<?xml version="1.0" encoding="utf-8" standalone="no"?>
<!DOCTYPE svg PUBLIC "-//W3C//DTD SVG 1.1//EN"
  "http://www.w3.org/Graphics/SVG/1.1/DTD/svg11.dtd">
<svg xmlns:xlink="http://www.w3.org/1999/xlink" width="873.054219pt" height="380.396781pt" viewBox="0 0 873.054219 380.396781" xmlns="http://www.w3.org/2000/svg" version="1.1">
 <metadata>
  <rdf:RDF xmlns:dc="http://purl.org/dc/elements/1.1/" xmlns:cc="http://creativecommons.org/ns#" xmlns:rdf="http://www.w3.org/1999/02/22-rdf-syntax-ns#">
   <cc:Work>
    <dc:type rdf:resource="http://purl.org/dc/dcmitype/StillImage"/>
    <dc:date>2026-05-29T09:52:44.613314</dc:date>
    <dc:format>image/svg+xml</dc:format>
    <dc:creator>
     <cc:Agent>
      <dc:title>Matplotlib v3.10.9, https://matplotlib.org/</dc:title>
     </cc:Agent>
    </dc:creator>
   </cc:Work>
  </rdf:RDF>
 </metadata>
 <defs>
  <style type="text/css">*{stroke-linejoin: round; stroke-linecap: butt}</style>
 </defs>
 <g id="figure_1">
  <g id="patch_1">
   <path d="M 0 380.396781 
L 873.054219 380.396781 
L 873.054219 0 
L 0 0 
z
" style="fill: #ffffff"/>
  </g>
  <g id="axes_1">
   <g id="patch_2">
    <path d="M 40.856406 347.76 
L 382.699885 347.76 
L 382.699885 34.92 
L 40.856406 34.92 
z
" style="fill: #ffffff"/>
   </g>
   <g id="patch_3">
    <path d="M 56.394746 347.76 
L 99.259132 347.76 
L 99.259132 91.2312 
L 56.394746 91.2312 
z
" clip-path="url(#p6d80ab0af6)" style="fill: #e8c5c5; stroke: #8b3a3a; stroke-width: 1.5; stroke-linejoin: miter"/>
   </g>
   <g id="patch_4">
    <path d="M 109.975229 347.76 
L 152.839615 347.76 
L 152.839615 236.241741 
L 109.975229 236.241741 
z
" clip-path="url(#p6d80ab0af6)" style="fill: #e7e6e2; stroke: #7a7a7a; stroke-width: 1.5; stroke-linejoin: miter"/>
   </g>
   <g id="patch_5">
    <path d="M 163.555711 347.76 
L 206.420097 347.76 
L 206.420097 174.777882 
L 163.555711 174.777882 
z
" clip-path="url(#p6d80ab0af6)" style="fill: #f0d4c4; stroke: #c8694f; stroke-width: 1.5; stroke-linejoin: miter"/>
   </g>
   <g id="patch_6">
    <path d="M 217.136194 347.76 
L 260.00058 347.76 
L 260.00058 119.202776 
L 217.136194 119.202776 
z
" clip-path="url(#p6d80ab0af6)" style="fill: #f5d4a0; stroke: #d4a05a; stroke-width: 1.5; stroke-linejoin: miter"/>
   </g>
   <g id="patch_7">
    <path d="M 270.716676 347.76 
L 313.581062 347.76 
L 313.581062 96.751906 
L 270.716676 96.751906 
z
" clip-path="url(#p6d80ab0af6)" style="fill: #d8eee0; stroke: #3da084; stroke-width: 1.5; stroke-linejoin: miter"/>
   </g>
   <g id="patch_8">
    <path d="M 324.297159 347.76 
L 367.161545 347.76 
L 367.161545 96.751906 
L 324.297159 96.751906 
z
" clip-path="url(#p6d80ab0af6)" style="fill: #d8eee0; stroke: #3da084; stroke-width: 1.5; stroke-linejoin: miter"/>
   </g>
   <g id="matplotlib.axis_1">
    <g id="xtick_1">
     <g id="line2d_1">
      <defs>
       <path id="m0789754941" d="M 0 0 
L 0 3.5 
" style="stroke: #000000; stroke-width: 0.8"/>
      </defs>
      <g>
       <use xlink:href="#m0789754941" x="77.826939" y="347.76" style="stroke: #000000; stroke-width: 0.8"/>
      </g>
     </g>
     <g id="text_1">
      <!-- Full FT -->
      <g transform="translate(64.68272 361.528281) scale(0.09 -0.09)">
       <defs>
        <path id="NanumGothic-46" d="M 1056 -186 
Q 1056 -275 966 -275 
L 672 -275 
Q 582 -275 582 -186 
L 582 4275 
Q 582 4416 604 4438 
Q 627 4461 768 4461 
L 2906 4461 
Q 2995 4461 2995 4371 
L 2995 4154 
Q 2995 4064 2906 4064 
L 1056 4064 
L 1056 2368 
L 2816 2368 
Q 2906 2368 2906 2278 
L 2906 2048 
Q 2906 1958 2816 1958 
L 1056 1958 
L 1056 -186 
z
" transform="scale(0.015625)"/>
        <path id="NanumGothic-75" d="M 3347 -186 
Q 3347 -275 3258 -275 
L 3027 -275 
Q 2938 -275 2938 -186 
L 2938 346 
Q 2771 -38 2492 -208 
Q 2214 -378 1792 -378 
Q 595 -378 595 960 
L 595 3098 
Q 595 3187 685 3187 
L 941 3187 
Q 1030 3187 1030 3098 
L 1030 1075 
Q 1030 -13 1862 -13 
Q 2106 -13 2301 92 
Q 2496 198 2630 380 
Q 2765 563 2835 806 
Q 2906 1050 2899 1318 
L 2899 3098 
Q 2899 3187 2989 3187 
L 3245 3187 
Q 3334 3187 3334 3098 
L 3334 525 
Q 3334 314 3337 147 
Q 3341 -19 3347 -186 
z
" transform="scale(0.015625)"/>
        <path id="NanumGothic-6c" d="M 1056 -186 
Q 1056 -275 966 -275 
L 685 -275 
Q 595 -275 595 -186 
L 595 4723 
Q 595 4813 685 4813 
L 966 4813 
Q 1056 4813 1056 4723 
L 1056 -186 
z
" transform="scale(0.015625)"/>
        <path id="NanumGothic-20" transform="scale(0.015625)"/>
        <path id="NanumGothic-54" d="M 2010 4064 
L 2010 -186 
Q 2010 -275 1920 -275 
L 1626 -275 
Q 1536 -275 1536 -186 
L 1536 4064 
L 218 4064 
Q 128 4064 128 4154 
L 128 4371 
Q 128 4461 218 4461 
L 3341 4461 
Q 3430 4461 3430 4371 
L 3430 4154 
Q 3430 4064 3341 4064 
L 2010 4064 
z
" transform="scale(0.015625)"/>
       </defs>
       <use xlink:href="#NanumGothic-46"/>
       <use xlink:href="#NanumGothic-75" transform="translate(50.299988 0)"/>
       <use xlink:href="#NanumGothic-6c" transform="translate(110.899979 0)"/>
       <use xlink:href="#NanumGothic-6c" transform="translate(135.099976 0)"/>
       <use xlink:href="#NanumGothic-20" transform="translate(159.299973 0)"/>
       <use xlink:href="#NanumGothic-46" transform="translate(187.299957 0)"/>
       <use xlink:href="#NanumGothic-54" transform="translate(237.599945 0)"/>
      </g>
     </g>
    </g>
    <g id="xtick_2">
     <g id="line2d_2">
      <g>
       <use xlink:href="#m0789754941" x="131.407422" y="347.76" style="stroke: #000000; stroke-width: 0.8"/>
      </g>
     </g>
     <g id="text_2">
      <!-- Last layer -->
      <g transform="translate(112.259219 361.528281) scale(0.09 -0.09)">
       <defs>
        <path id="NanumGothic-4c" d="M 2912 128 
Q 3002 128 3002 38 
L 3002 -186 
Q 3002 -275 2912 -275 
L 838 -275 
Q 749 -275 701 -272 
Q 653 -269 630 -246 
Q 608 -224 605 -173 
Q 602 -122 602 -32 
L 602 4371 
Q 602 4461 691 4461 
L 986 4461 
Q 1075 4461 1075 4371 
L 1075 128 
L 2912 128 
z
" transform="scale(0.015625)"/>
        <path id="NanumGothic-61" d="M 2566 1530 
L 2445 1530 
Q 2086 1542 1808 1500 
Q 1530 1459 1344 1389 
Q 1075 1293 940 1104 
Q 806 915 806 653 
Q 806 493 857 355 
Q 909 218 1018 141 
Q 1210 -13 1530 -13 
Q 1754 -13 1942 76 
Q 2131 166 2272 332 
Q 2413 499 2489 745 
Q 2566 992 2566 1312 
L 2566 1530 
z
M 742 2650 
Q 710 2630 681 2640 
Q 653 2650 653 2682 
L 653 2925 
Q 653 3014 742 3059 
Q 966 3181 1219 3229 
Q 1472 3277 1773 3277 
Q 2413 3277 2707 2973 
Q 3002 2669 3002 2054 
L 3002 448 
Q 3002 256 3008 105 
Q 3014 -45 3027 -186 
Q 3027 -275 2938 -275 
L 2707 -275 
Q 2618 -275 2618 -186 
L 2618 307 
Q 2483 -19 2166 -198 
Q 1850 -378 1478 -378 
Q 832 -378 531 0 
Q 429 128 377 297 
Q 326 467 326 634 
Q 326 1024 508 1305 
Q 691 1587 1069 1728 
Q 1530 1894 2483 1894 
L 2566 1894 
L 2566 2086 
Q 2566 2490 2384 2701 
Q 2202 2912 1773 2912 
Q 1485 2912 1229 2851 
Q 973 2790 742 2650 
z
" transform="scale(0.015625)"/>
        <path id="NanumGothic-73" d="M 422 147 
Q 813 -13 1229 -13 
Q 1574 -13 1798 156 
Q 2022 326 2022 614 
Q 2022 781 1897 937 
Q 1773 1094 1594 1197 
Q 1395 1306 1187 1405 
Q 979 1504 787 1613 
Q 557 1741 448 1929 
Q 339 2118 339 2323 
Q 339 2560 428 2739 
Q 518 2918 672 3040 
Q 826 3162 1030 3219 
Q 1235 3277 1466 3277 
Q 1709 3277 1888 3251 
Q 2067 3226 2246 3174 
Q 2285 3162 2313 3136 
Q 2342 3110 2336 3066 
L 2317 2874 
Q 2310 2822 2278 2809 
Q 2246 2797 2214 2810 
Q 2054 2867 1894 2889 
Q 1734 2912 1510 2912 
Q 768 2912 768 2323 
Q 768 2195 867 2080 
Q 966 1965 1203 1850 
Q 1408 1747 1606 1654 
Q 1805 1562 2035 1434 
Q 2234 1325 2365 1101 
Q 2496 877 2496 614 
Q 2496 358 2393 172 
Q 2291 -13 2118 -134 
Q 1946 -256 1722 -317 
Q 1498 -378 1261 -378 
Q 1120 -378 1008 -371 
Q 896 -365 797 -352 
Q 698 -339 595 -320 
Q 493 -301 378 -269 
Q 288 -237 294 -154 
L 320 83 
Q 333 186 422 147 
z
" transform="scale(0.015625)"/>
        <path id="NanumGothic-74" d="M 2208 -282 
Q 1939 -378 1677 -378 
Q 1158 -378 992 -38 
Q 883 192 883 774 
L 883 2816 
L 282 2816 
Q 192 2816 192 2906 
L 192 3098 
Q 192 3187 282 3187 
L 883 3187 
L 883 4051 
Q 883 4147 966 4147 
L 1235 4147 
Q 1318 4147 1318 4051 
L 1318 3187 
L 2029 3187 
Q 2118 3187 2118 3098 
L 2118 2906 
Q 2118 2816 2029 2816 
L 1318 2816 
L 1318 557 
Q 1318 -13 1779 -13 
Q 1958 -13 2182 64 
Q 2214 77 2243 64 
Q 2272 51 2272 13 
L 2285 -154 
Q 2298 -243 2208 -282 
z
" transform="scale(0.015625)"/>
        <path id="NanumGothic-79" d="M 301 -1222 
Q 224 -1203 237 -1126 
L 256 -909 
Q 256 -832 333 -864 
Q 435 -902 570 -902 
Q 704 -902 816 -860 
Q 928 -819 986 -749 
Q 1056 -659 1142 -454 
Q 1229 -250 1312 13 
Q 1024 794 742 1555 
Q 461 2317 173 3098 
Q 160 3130 173 3158 
Q 186 3187 224 3187 
L 525 3187 
Q 614 3187 653 3098 
L 1517 614 
Q 1754 1267 1968 1859 
Q 2182 2451 2419 3098 
Q 2451 3187 2547 3187 
L 2822 3187 
Q 2861 3187 2873 3158 
Q 2886 3130 2874 3098 
L 1542 -474 
Q 1472 -659 1385 -806 
Q 1299 -954 1210 -1043 
Q 1094 -1152 953 -1206 
Q 813 -1261 659 -1261 
Q 563 -1261 486 -1254 
Q 410 -1248 301 -1222 
z
" transform="scale(0.015625)"/>
        <path id="NanumGothic-65" d="M 2733 1696 
Q 2733 1958 2681 2163 
Q 2630 2368 2522 2534 
Q 2285 2912 1837 2912 
Q 1376 2912 1088 2528 
Q 973 2355 896 2131 
Q 819 1907 813 1696 
L 2733 1696 
z
M 813 1331 
Q 806 1011 886 764 
Q 966 518 1120 352 
Q 1274 186 1488 96 
Q 1702 6 1965 6 
Q 2221 6 2445 54 
Q 2669 102 2861 211 
Q 2944 250 2944 166 
L 2944 -122 
Q 2944 -179 2874 -211 
Q 2662 -294 2432 -336 
Q 2202 -378 1933 -378 
Q 1146 -378 742 80 
Q 339 538 339 1459 
Q 339 2272 742 2771 
Q 1165 3277 1811 3277 
Q 2170 3277 2432 3149 
Q 2694 3021 2880 2765 
Q 3206 2310 3206 1549 
Q 3206 1466 3203 1421 
Q 3200 1376 3181 1357 
Q 3162 1338 3114 1334 
Q 3066 1331 2976 1331 
L 813 1331 
z
" transform="scale(0.015625)"/>
        <path id="NanumGothic-72" d="M 2221 2797 
Q 2106 2835 1914 2835 
Q 1440 2835 1210 2368 
Q 1030 2003 1030 1434 
L 1030 -186 
Q 1030 -275 941 -275 
L 691 -275 
Q 602 -275 602 -186 
L 602 2413 
Q 602 2643 598 2787 
Q 595 2931 589 3098 
Q 589 3187 678 3187 
L 915 3187 
Q 1005 3187 1005 3098 
L 1005 2470 
Q 1318 3277 1926 3277 
Q 2074 3277 2221 3238 
Q 2259 3226 2288 3197 
Q 2317 3168 2317 3117 
L 2317 2848 
Q 2317 2810 2285 2797 
Q 2253 2784 2221 2797 
z
" transform="scale(0.015625)"/>
       </defs>
       <use xlink:href="#NanumGothic-4c"/>
       <use xlink:href="#NanumGothic-61" transform="translate(48.399994 0)"/>
       <use xlink:href="#NanumGothic-73" transform="translate(102.899979 0)"/>
       <use xlink:href="#NanumGothic-74" transform="translate(145.299973 0)"/>
       <use xlink:href="#NanumGothic-20" transform="translate(181.59996 0)"/>
       <use xlink:href="#NanumGothic-6c" transform="translate(209.599945 0)"/>
       <use xlink:href="#NanumGothic-61" transform="translate(233.799942 0)"/>
       <use xlink:href="#NanumGothic-79" transform="translate(288.299927 0)"/>
       <use xlink:href="#NanumGothic-65" transform="translate(334.699921 0)"/>
       <use xlink:href="#NanumGothic-72" transform="translate(389.199905 0)"/>
      </g>
      <!-- only -->
      <g transform="translate(122.776562 371.4235) scale(0.09 -0.09)">
       <defs>
        <path id="NanumGothic-6f" d="M 3130 1453 
Q 3130 1754 3050 2016 
Q 2970 2278 2829 2483 
Q 2496 2893 1965 2893 
Q 1696 2893 1481 2787 
Q 1267 2682 1101 2483 
Q 954 2278 874 2016 
Q 794 1754 794 1453 
Q 794 1146 874 883 
Q 954 621 1101 422 
Q 1440 6 1965 6 
Q 2234 6 2448 115 
Q 2662 224 2829 422 
Q 2970 621 3050 883 
Q 3130 1146 3130 1453 
z
M 3603 1453 
Q 3603 1075 3494 752 
Q 3386 429 3206 186 
Q 2982 -83 2672 -230 
Q 2362 -378 1965 -378 
Q 1568 -378 1254 -230 
Q 941 -83 717 186 
Q 538 429 432 752 
Q 326 1075 326 1453 
Q 326 2227 717 2720 
Q 1165 3277 1965 3277 
Q 2368 3277 2675 3139 
Q 2982 3002 3206 2720 
Q 3603 2214 3603 1453 
z
" transform="scale(0.015625)"/>
        <path id="NanumGothic-6e" d="M 3334 -186 
Q 3334 -275 3245 -275 
L 2989 -275 
Q 2899 -275 2899 -186 
L 2899 1830 
Q 2899 2419 2688 2665 
Q 2477 2912 2093 2912 
Q 1574 2912 1302 2624 
Q 1030 2336 1030 1818 
L 1030 -186 
Q 1030 -275 941 -275 
L 685 -275 
Q 595 -275 595 -186 
L 595 2374 
Q 595 2650 592 2803 
Q 589 2957 576 3098 
Q 570 3142 598 3164 
Q 627 3187 666 3187 
L 896 3187 
Q 986 3187 986 3098 
L 986 2746 
Q 1165 3021 1417 3149 
Q 1670 3277 2112 3277 
Q 2720 3277 3027 2925 
Q 3334 2573 3334 1933 
L 3334 -186 
z
" transform="scale(0.015625)"/>
       </defs>
       <use xlink:href="#NanumGothic-6f"/>
       <use xlink:href="#NanumGothic-6e" transform="translate(60.599991 0)"/>
       <use xlink:href="#NanumGothic-6c" transform="translate(121.199982 0)"/>
       <use xlink:href="#NanumGothic-79" transform="translate(145.399979 0)"/>
      </g>
     </g>
    </g>
    <g id="xtick_3">
     <g id="line2d_3">
      <g>
       <use xlink:href="#m0789754941" x="184.987904" y="347.76" style="stroke: #000000; stroke-width: 0.8"/>
      </g>
     </g>
     <g id="text_3">
      <!-- Frozen -->
      <g transform="translate(171.006967 361.528281) scale(0.09 -0.09)">
       <defs>
        <path id="NanumGothic-7a" d="M 454 -275 
Q 320 -275 297 -252 
Q 275 -230 275 -96 
L 275 6 
Q 275 90 326 147 
L 2387 2816 
L 448 2816 
Q 358 2816 358 2906 
L 358 3098 
Q 358 3187 448 3187 
L 2707 3187 
Q 2842 3187 2864 3164 
Q 2886 3142 2886 3008 
L 2886 2893 
Q 2886 2810 2842 2758 
L 774 83 
L 2797 83 
Q 2886 83 2886 -6 
L 2886 -186 
Q 2886 -275 2797 -275 
L 454 -275 
z
" transform="scale(0.015625)"/>
       </defs>
       <use xlink:href="#NanumGothic-46"/>
       <use xlink:href="#NanumGothic-72" transform="translate(50.299988 0)"/>
       <use xlink:href="#NanumGothic-6f" transform="translate(86.599976 0)"/>
       <use xlink:href="#NanumGothic-7a" transform="translate(147.199966 0)"/>
       <use xlink:href="#NanumGothic-65" transform="translate(195.59996 0)"/>
       <use xlink:href="#NanumGothic-6e" transform="translate(250.099945 0)"/>
      </g>
      <!-- vision -->
      <g transform="translate(173.269623 371.413656) scale(0.09 -0.09)">
       <defs>
        <path id="NanumGothic-76" d="M 1843 -192 
Q 1811 -275 1715 -275 
L 1402 -275 
Q 1306 -275 1280 -192 
L 154 3098 
Q 141 3130 160 3158 
Q 179 3187 218 3187 
L 506 3187 
Q 582 3187 621 3098 
L 1568 166 
L 2554 3098 
Q 2566 3136 2598 3161 
Q 2630 3187 2669 3187 
L 2950 3187 
Q 2989 3187 3008 3158 
Q 3027 3130 3014 3098 
L 1843 -192 
z
" transform="scale(0.015625)"/>
        <path id="NanumGothic-69" d="M 1050 -186 
Q 1050 -275 960 -275 
L 678 -275 
Q 589 -275 589 -186 
L 589 3098 
Q 589 3187 678 3187 
L 960 3187 
Q 1050 3187 1050 3098 
L 1050 -186 
z
M 506 4397 
Q 506 4525 595 4617 
Q 685 4710 813 4710 
Q 941 4710 1033 4617 
Q 1126 4525 1126 4397 
Q 1126 4269 1033 4179 
Q 941 4090 813 4090 
Q 685 4090 595 4179 
Q 506 4269 506 4397 
z
" transform="scale(0.015625)"/>
       </defs>
       <use xlink:href="#NanumGothic-76"/>
       <use xlink:href="#NanumGothic-69" transform="translate(48.399994 0)"/>
       <use xlink:href="#NanumGothic-73" transform="translate(72.599991 0)"/>
       <use xlink:href="#NanumGothic-69" transform="translate(114.999985 0)"/>
       <use xlink:href="#NanumGothic-6f" transform="translate(139.199982 0)"/>
       <use xlink:href="#NanumGothic-6e" transform="translate(199.799973 0)"/>
      </g>
     </g>
    </g>
    <g id="xtick_4">
     <g id="line2d_4">
      <g>
       <use xlink:href="#m0789754941" x="238.568387" y="347.76" style="stroke: #000000; stroke-width: 0.8"/>
      </g>
     </g>
     <g id="text_4">
      <!-- Sandwich -->
      <g transform="translate(218.399949 361.528281) scale(0.09 -0.09)">
       <defs>
        <path id="NanumGothic-53" d="M 550 -211 
Q 448 -179 467 -96 
L 493 198 
Q 506 250 534 269 
Q 563 288 602 262 
Q 826 141 1053 86 
Q 1280 32 1574 32 
Q 2042 32 2339 288 
Q 2637 544 2637 1011 
Q 2637 1197 2493 1382 
Q 2349 1568 2093 1734 
Q 1869 1875 1587 2028 
Q 1306 2182 1050 2364 
Q 794 2547 621 2774 
Q 448 3002 448 3302 
Q 448 3610 576 3843 
Q 704 4077 918 4233 
Q 1133 4390 1408 4473 
Q 1683 4557 1971 4557 
Q 2221 4557 2413 4528 
Q 2605 4499 2829 4429 
Q 2925 4397 2906 4314 
L 2854 4064 
Q 2835 3955 2746 4006 
Q 2566 4090 2396 4118 
Q 2227 4147 1965 4147 
Q 1754 4147 1565 4096 
Q 1376 4045 1238 3942 
Q 1101 3840 1017 3686 
Q 934 3533 934 3322 
Q 934 3155 1046 3008 
Q 1158 2861 1321 2733 
Q 1485 2605 1673 2499 
Q 1862 2394 2016 2304 
Q 2227 2182 2425 2054 
Q 2624 1926 2777 1766 
Q 2931 1606 3027 1414 
Q 3123 1222 3123 973 
Q 3123 653 2992 403 
Q 2861 154 2643 -19 
Q 2426 -192 2141 -285 
Q 1856 -378 1549 -378 
Q 1267 -378 1046 -339 
Q 826 -301 550 -211 
z
" transform="scale(0.015625)"/>
        <path id="NanumGothic-64" d="M 877 1459 
Q 877 1158 925 912 
Q 973 666 1075 480 
Q 1216 250 1417 128 
Q 1619 6 1901 6 
Q 2157 6 2352 140 
Q 2547 275 2678 483 
Q 2810 691 2874 950 
Q 2938 1210 2938 1459 
Q 2938 1766 2870 2028 
Q 2803 2291 2672 2483 
Q 2541 2675 2349 2784 
Q 2157 2893 1901 2893 
Q 1357 2893 1075 2426 
Q 973 2240 925 1993 
Q 877 1747 877 1459 
z
M 3366 -186 
Q 3366 -275 3277 -275 
L 3027 -275 
Q 2938 -275 2938 -186 
L 2938 294 
Q 2592 -358 1824 -358 
Q 1139 -358 755 166 
Q 403 653 403 1459 
Q 403 3258 1824 3258 
Q 2208 3258 2505 3104 
Q 2803 2950 2938 2707 
L 2938 4723 
Q 2938 4813 3027 4813 
L 3277 4813 
Q 3366 4813 3366 4723 
L 3366 -186 
z
" transform="scale(0.015625)"/>
        <path id="NanumGothic-77" d="M 4218 -205 
Q 4198 -275 4115 -275 
L 3738 -275 
Q 3661 -275 3635 -205 
L 2726 2739 
Q 2490 1997 2253 1267 
Q 2016 538 1779 -198 
Q 1760 -275 1664 -275 
L 1312 -275 
Q 1267 -275 1238 -262 
Q 1210 -250 1197 -198 
L 128 3098 
Q 115 3130 134 3158 
Q 154 3187 192 3187 
L 486 3187 
Q 563 3187 602 3098 
L 1510 179 
Q 1747 915 1974 1622 
Q 2202 2330 2438 3066 
Q 2470 3187 2586 3187 
L 2886 3187 
Q 3008 3187 3040 3066 
L 3930 179 
Q 4173 934 4400 1638 
Q 4627 2342 4870 3098 
Q 4883 3136 4915 3161 
Q 4947 3187 4986 3187 
L 5242 3187 
Q 5280 3187 5299 3158 
Q 5318 3130 5306 3098 
L 4218 -205 
z
" transform="scale(0.015625)"/>
        <path id="NanumGothic-63" d="M 2816 -301 
Q 2624 -333 2445 -345 
Q 2266 -358 2016 -358 
Q 1619 -358 1308 -217 
Q 998 -77 784 166 
Q 570 410 454 742 
Q 339 1075 339 1459 
Q 339 1850 460 2179 
Q 582 2509 809 2749 
Q 1037 2989 1353 3126 
Q 1670 3264 2067 3264 
Q 2278 3264 2451 3248 
Q 2624 3232 2822 3187 
Q 2912 3162 2906 3066 
L 2886 2861 
Q 2874 2784 2790 2803 
Q 2624 2854 2470 2876 
Q 2317 2899 2131 2899 
Q 1805 2899 1558 2793 
Q 1312 2688 1145 2496 
Q 979 2304 896 2038 
Q 813 1773 813 1459 
Q 813 1171 899 908 
Q 986 646 1149 444 
Q 1312 243 1545 124 
Q 1779 6 2080 6 
Q 2304 6 2451 25 
Q 2598 45 2784 96 
Q 2880 122 2886 51 
L 2906 -186 
Q 2912 -282 2816 -301 
z
" transform="scale(0.015625)"/>
        <path id="NanumGothic-68" d="M 3334 -186 
Q 3334 -275 3245 -275 
L 2989 -275 
Q 2899 -275 2899 -186 
L 2899 1786 
Q 2899 2093 2844 2307 
Q 2790 2522 2688 2653 
Q 2586 2784 2438 2841 
Q 2291 2899 2112 2899 
Q 1587 2899 1308 2649 
Q 1030 2400 1030 1958 
L 1030 -186 
Q 1030 -275 941 -275 
L 685 -275 
Q 595 -275 595 -186 
L 595 4730 
Q 595 4819 685 4819 
L 941 4819 
Q 1030 4819 1030 4730 
L 1030 2874 
Q 1210 3078 1475 3171 
Q 1741 3264 2138 3264 
Q 2758 3264 3046 2899 
Q 3334 2534 3334 1792 
L 3334 -186 
z
" transform="scale(0.015625)"/>
       </defs>
       <use xlink:href="#NanumGothic-53"/>
       <use xlink:href="#NanumGothic-61" transform="translate(54.499985 0)"/>
       <use xlink:href="#NanumGothic-6e" transform="translate(108.999969 0)"/>
       <use xlink:href="#NanumGothic-64" transform="translate(169.59996 0)"/>
       <use xlink:href="#NanumGothic-77" transform="translate(230.199951 0)"/>
       <use xlink:href="#NanumGothic-69" transform="translate(314.999939 0)"/>
       <use xlink:href="#NanumGothic-63" transform="translate(339.199936 0)"/>
       <use xlink:href="#NanumGothic-68" transform="translate(387.59993 0)"/>
      </g>
     </g>
    </g>
    <g id="xtick_5">
     <g id="line2d_5">
      <g>
       <use xlink:href="#m0789754941" x="292.148869" y="347.76" style="stroke: #000000; stroke-width: 0.8"/>
      </g>
     </g>
     <g id="text_5">
      <!-- LoRA -->
      <g transform="translate(281.173088 361.528281) scale(0.09 -0.09)">
       <defs>
        <path id="NanumGothic-52" d="M 3002 3078 
Q 3002 3347 2941 3536 
Q 2880 3725 2736 3843 
Q 2592 3962 2361 4013 
Q 2131 4064 1786 4064 
L 1126 4064 
L 1126 2157 
L 1798 2157 
Q 2061 2157 2281 2221 
Q 2502 2285 2662 2406 
Q 2822 2528 2912 2697 
Q 3002 2867 3002 3078 
z
M 3763 -186 
Q 3776 -218 3763 -246 
Q 3750 -275 3712 -275 
L 3379 -275 
Q 3283 -275 3238 -186 
Q 2950 416 2758 797 
Q 2566 1178 2458 1402 
Q 2323 1664 2253 1805 
Q 2106 1773 1981 1766 
Q 1856 1760 1664 1754 
L 1126 1754 
L 1126 -186 
Q 1126 -275 1037 -275 
L 749 -275 
Q 659 -275 659 -186 
L 659 4269 
Q 659 4339 662 4377 
Q 666 4416 685 4435 
Q 704 4454 742 4457 
Q 781 4461 851 4461 
L 2061 4461 
Q 2426 4461 2691 4361 
Q 2957 4262 3133 4083 
Q 3309 3904 3395 3648 
Q 3482 3392 3482 3078 
Q 3482 2886 3414 2713 
Q 3347 2541 3232 2393 
Q 3117 2246 2966 2128 
Q 2816 2010 2656 1933 
L 3763 -186 
z
" transform="scale(0.015625)"/>
        <path id="NanumGothic-41" d="M 3386 1402 
Q 3117 2067 2870 2716 
Q 2624 3366 2355 4032 
Q 2086 3366 1827 2716 
Q 1568 2067 1299 1402 
L 3386 1402 
z
M 4499 -186 
Q 4531 -275 4442 -275 
L 4134 -275 
Q 4096 -275 4067 -262 
Q 4038 -250 4013 -186 
L 3539 992 
L 1133 992 
Q 1011 691 896 403 
Q 781 115 666 -186 
Q 640 -250 611 -262 
Q 582 -275 544 -275 
L 243 -275 
Q 154 -275 186 -186 
L 2067 4397 
Q 2099 4474 2182 4474 
L 2573 4474 
Q 2656 4474 2688 4397 
L 4499 -186 
z
" transform="scale(0.015625)"/>
       </defs>
       <use xlink:href="#NanumGothic-4c"/>
       <use xlink:href="#NanumGothic-6f" transform="translate(48.399994 0)"/>
       <use xlink:href="#NanumGothic-52" transform="translate(108.999985 0)"/>
       <use xlink:href="#NanumGothic-41" transform="translate(171.199982 0)"/>
      </g>
      <!-- r=32 -->
      <g transform="translate(282.118791 371.413656) scale(0.09 -0.09)">
       <defs>
        <path id="NanumGothic-3d" d="M 3757 2995 
Q 3827 2995 3836 2985 
Q 3846 2976 3846 2906 
L 3846 2618 
Q 3846 2547 3836 2537 
Q 3827 2528 3757 2528 
L 467 2528 
Q 397 2528 387 2537 
Q 378 2547 378 2618 
L 378 2906 
Q 378 2976 387 2985 
Q 397 2995 467 2995 
L 3757 2995 
z
M 3757 1626 
Q 3827 1626 3836 1616 
Q 3846 1606 3846 1536 
L 3846 1261 
Q 3846 1190 3836 1180 
Q 3827 1171 3757 1171 
L 467 1171 
Q 397 1171 387 1180 
Q 378 1190 378 1261 
L 378 1536 
Q 378 1606 387 1616 
Q 397 1626 467 1626 
L 3757 1626 
z
" transform="scale(0.015625)"/>
        <path id="NanumGothic-33" d="M 493 -192 
Q 397 -166 410 -45 
L 435 205 
Q 448 282 538 243 
Q 806 134 1046 89 
Q 1286 45 1606 38 
Q 2112 32 2458 294 
Q 2861 563 2861 1082 
Q 2861 1990 1498 1990 
L 1165 1990 
Q 1082 1990 1082 2061 
L 1082 2298 
Q 1082 2381 1165 2381 
L 1197 2381 
Q 1882 2381 2266 2528 
Q 2848 2752 2848 3334 
Q 2848 3520 2749 3677 
Q 2650 3834 2483 3942 
Q 2330 4032 2138 4083 
Q 1946 4134 1734 4134 
Q 1517 4134 1254 4076 
Q 992 4019 749 3923 
Q 666 3891 653 3974 
L 627 4211 
Q 608 4301 710 4339 
Q 998 4435 1248 4480 
Q 1498 4525 1779 4525 
Q 2426 4525 2835 4250 
Q 3302 3936 3302 3334 
Q 3302 2906 2995 2592 
Q 2739 2317 2330 2189 
Q 2534 2163 2710 2080 
Q 2886 1997 3014 1850 
Q 3162 1690 3238 1488 
Q 3315 1286 3315 1043 
Q 3315 723 3184 464 
Q 3053 205 2810 19 
Q 2573 -154 2265 -253 
Q 1958 -352 1581 -346 
Q 1242 -339 995 -307 
Q 749 -275 493 -192 
z
" transform="scale(0.015625)"/>
        <path id="NanumGothic-32" d="M 576 -301 
Q 506 -301 470 -297 
Q 435 -294 419 -278 
Q 403 -262 400 -227 
Q 397 -192 397 -122 
L 403 19 
Q 403 102 454 154 
L 1510 1318 
Q 2688 2592 2688 3251 
Q 2688 3635 2432 3891 
Q 2182 4141 1811 4141 
Q 1293 4141 730 3853 
Q 640 3808 627 3891 
L 589 4102 
Q 570 4211 653 4237 
Q 979 4384 1241 4454 
Q 1504 4525 1779 4525 
Q 2394 4525 2758 4218 
Q 3168 3885 3168 3270 
Q 3168 3034 3053 2752 
Q 2938 2470 2733 2163 
Q 2605 1984 2371 1696 
Q 2138 1408 1837 1082 
Q 1613 838 1392 588 
Q 1171 339 947 96 
L 3187 96 
Q 3277 96 3277 6 
L 3277 -211 
Q 3277 -301 3187 -301 
L 576 -301 
z
" transform="scale(0.015625)"/>
       </defs>
       <use xlink:href="#NanumGothic-72"/>
       <use xlink:href="#NanumGothic-3d" transform="translate(36.299988 0)"/>
       <use xlink:href="#NanumGothic-33" transform="translate(101.699982 0)"/>
       <use xlink:href="#NanumGothic-32" transform="translate(162.299973 0)"/>
      </g>
     </g>
    </g>
    <g id="xtick_6">
     <g id="line2d_6">
      <g>
       <use xlink:href="#m0789754941" x="345.729352" y="347.76" style="stroke: #000000; stroke-width: 0.8"/>
      </g>
     </g>
     <g id="text_6">
      <!-- LoRA -->
      <g transform="translate(334.75357 361.528281) scale(0.09 -0.09)">
       <use xlink:href="#NanumGothic-4c"/>
       <use xlink:href="#NanumGothic-6f" transform="translate(48.399994 0)"/>
       <use xlink:href="#NanumGothic-52" transform="translate(108.999985 0)"/>
       <use xlink:href="#NanumGothic-41" transform="translate(171.199982 0)"/>
      </g>
      <!-- r=64 -->
      <g transform="translate(335.699273 371.413656) scale(0.09 -0.09)">
       <defs>
        <path id="NanumGothic-36" d="M 3078 1203 
Q 3078 1722 2810 2022 
Q 2541 2330 2042 2330 
Q 1786 2330 1581 2250 
Q 1376 2170 1232 2029 
Q 1088 1888 1008 1689 
Q 928 1491 928 1254 
Q 928 768 1197 435 
Q 1491 45 1984 45 
Q 2490 45 2797 384 
Q 3078 704 3078 1203 
z
M 3245 4013 
Q 3098 4064 2909 4096 
Q 2720 4128 2534 4128 
Q 1664 4128 1248 3501 
Q 896 2976 883 2061 
Q 1024 2317 1293 2496 
Q 1626 2733 2042 2733 
Q 2624 2733 3021 2426 
Q 3526 2035 3526 1235 
Q 3526 557 3110 109 
Q 2688 -346 1971 -346 
Q 435 -346 435 1920 
Q 435 3104 909 3770 
Q 1466 4525 2586 4525 
Q 2752 4525 2934 4499 
Q 3117 4474 3270 4429 
Q 3366 4410 3354 4314 
L 3341 4077 
Q 3341 4032 3309 4016 
Q 3277 4000 3245 4013 
z
" transform="scale(0.015625)"/>
        <path id="NanumGothic-34" d="M 2509 1216 
L 2509 4070 
Q 2035 3354 1568 2643 
Q 1101 1933 621 1216 
L 2509 1216 
z
M 2944 -211 
Q 2944 -301 2854 -301 
L 2598 -301 
Q 2509 -301 2509 -211 
L 2509 826 
L 397 826 
Q 262 826 240 848 
Q 218 870 218 1005 
L 218 1203 
Q 218 1261 224 1280 
Q 230 1299 262 1350 
L 2304 4397 
Q 2342 4454 2358 4464 
Q 2374 4474 2445 4474 
L 2765 4474 
Q 2899 4474 2921 4451 
Q 2944 4429 2944 4294 
L 2944 1216 
L 3578 1216 
Q 3667 1216 3667 1126 
L 3667 915 
Q 3667 826 3578 826 
L 2944 826 
L 2944 -211 
z
" transform="scale(0.015625)"/>
       </defs>
       <use xlink:href="#NanumGothic-72"/>
       <use xlink:href="#NanumGothic-3d" transform="translate(36.299988 0)"/>
       <use xlink:href="#NanumGothic-36" transform="translate(101.699982 0)"/>
       <use xlink:href="#NanumGothic-34" transform="translate(162.299973 0)"/>
      </g>
     </g>
    </g>
   </g>
   <g id="matplotlib.axis_2">
    <g id="ytick_1">
     <g id="line2d_7">
      <defs>
       <path id="m11b7c3682f" d="M 0 0 
L -3.5 0 
" style="stroke: #000000; stroke-width: 0.8"/>
      </defs>
      <g>
       <use xlink:href="#m11b7c3682f" x="40.856406" y="347.76" style="stroke: #000000; stroke-width: 0.8"/>
      </g>
     </g>
     <g id="text_7">
      <!-- 0 -->
      <g transform="translate(27.797031 351.520156) scale(0.1 -0.1)">
       <defs>
        <path id="NanumGothic-30" d="M 3066 2093 
Q 3066 4102 1965 4102 
Q 864 4102 864 2093 
Q 864 77 1965 77 
Q 3066 77 3066 2093 
z
M 3526 2093 
Q 3526 -326 1965 -326 
Q 390 -326 390 2093 
Q 390 3098 698 3725 
Q 1088 4512 1965 4512 
Q 2829 4512 3226 3725 
Q 3373 3411 3449 3008 
Q 3526 2605 3526 2093 
z
" transform="scale(0.015625)"/>
       </defs>
       <use xlink:href="#NanumGothic-30"/>
      </g>
     </g>
    </g>
    <g id="ytick_2">
     <g id="line2d_8">
      <g>
       <use xlink:href="#m11b7c3682f" x="40.856406" y="310.955294" style="stroke: #000000; stroke-width: 0.8"/>
      </g>
     </g>
     <g id="text_8">
      <!-- 10 -->
      <g transform="translate(21.737656 314.71545) scale(0.1 -0.1)">
       <defs>
        <path id="NanumGothic-31" d="M 2362 -211 
Q 2362 -301 2272 -301 
L 2010 -301 
Q 1920 -301 1920 -211 
L 1920 3949 
Q 1722 3782 1549 3635 
Q 1376 3488 1184 3322 
Q 1114 3264 1056 3334 
L 928 3488 
Q 909 3520 909 3555 
Q 909 3590 941 3616 
L 1933 4448 
Q 1958 4474 2010 4474 
L 2182 4474 
Q 2317 4474 2339 4451 
Q 2362 4429 2362 4294 
L 2362 -211 
z
" transform="scale(0.015625)"/>
       </defs>
       <use xlink:href="#NanumGothic-31"/>
       <use xlink:href="#NanumGothic-30" transform="translate(60.599991 0)"/>
      </g>
     </g>
    </g>
    <g id="ytick_3">
     <g id="line2d_9">
      <g>
       <use xlink:href="#m11b7c3682f" x="40.856406" y="274.150588" style="stroke: #000000; stroke-width: 0.8"/>
      </g>
     </g>
     <g id="text_9">
      <!-- 20 -->
      <g transform="translate(21.737656 277.910744) scale(0.1 -0.1)">
       <use xlink:href="#NanumGothic-32"/>
       <use xlink:href="#NanumGothic-30" transform="translate(60.599991 0)"/>
      </g>
     </g>
    </g>
    <g id="ytick_4">
     <g id="line2d_10">
      <g>
       <use xlink:href="#m11b7c3682f" x="40.856406" y="237.345882" style="stroke: #000000; stroke-width: 0.8"/>
      </g>
     </g>
     <g id="text_10">
      <!-- 30 -->
      <g transform="translate(21.737656 241.106039) scale(0.1 -0.1)">
       <use xlink:href="#NanumGothic-33"/>
       <use xlink:href="#NanumGothic-30" transform="translate(60.599991 0)"/>
      </g>
     </g>
    </g>
    <g id="ytick_5">
     <g id="line2d_11">
      <g>
       <use xlink:href="#m11b7c3682f" x="40.856406" y="200.541176" style="stroke: #000000; stroke-width: 0.8"/>
      </g>
     </g>
     <g id="text_11">
      <!-- 40 -->
      <g transform="translate(21.737656 204.301333) scale(0.1 -0.1)">
       <use xlink:href="#NanumGothic-34"/>
       <use xlink:href="#NanumGothic-30" transform="translate(60.599991 0)"/>
      </g>
     </g>
    </g>
    <g id="ytick_6">
     <g id="line2d_12">
      <g>
       <use xlink:href="#m11b7c3682f" x="40.856406" y="163.736471" style="stroke: #000000; stroke-width: 0.8"/>
      </g>
     </g>
     <g id="text_12">
      <!-- 50 -->
      <g transform="translate(21.737656 167.496627) scale(0.1 -0.1)">
       <defs>
        <path id="NanumGothic-35" d="M 736 -205 
Q 646 -173 646 -90 
L 646 179 
Q 646 288 736 243 
Q 966 134 1187 89 
Q 1408 45 1670 45 
Q 2234 45 2586 320 
Q 2970 614 2970 1165 
Q 2970 2246 1734 2246 
Q 1491 2246 1296 2220 
Q 1101 2195 864 2131 
Q 794 2112 749 2147 
Q 704 2182 704 2253 
L 742 4294 
Q 742 4429 764 4451 
Q 787 4474 922 4474 
L 3110 4474 
Q 3200 4474 3200 4384 
L 3200 4173 
Q 3200 4083 3110 4083 
L 1178 4083 
Q 1171 3680 1161 3296 
Q 1152 2912 1146 2509 
Q 1459 2630 1907 2630 
Q 2579 2630 2995 2266 
Q 3411 1888 3411 1254 
Q 3411 480 2931 58 
Q 2470 -346 1670 -346 
Q 1382 -346 1171 -314 
Q 960 -282 736 -205 
z
" transform="scale(0.015625)"/>
       </defs>
       <use xlink:href="#NanumGothic-35"/>
       <use xlink:href="#NanumGothic-30" transform="translate(60.599991 0)"/>
      </g>
     </g>
    </g>
    <g id="ytick_7">
     <g id="line2d_13">
      <g>
       <use xlink:href="#m11b7c3682f" x="40.856406" y="126.931765" style="stroke: #000000; stroke-width: 0.8"/>
      </g>
     </g>
     <g id="text_13">
      <!-- 60 -->
      <g transform="translate(21.737656 130.691921) scale(0.1 -0.1)">
       <use xlink:href="#NanumGothic-36"/>
       <use xlink:href="#NanumGothic-30" transform="translate(60.599991 0)"/>
      </g>
     </g>
    </g>
    <g id="ytick_8">
     <g id="line2d_14">
      <g>
       <use xlink:href="#m11b7c3682f" x="40.856406" y="90.127059" style="stroke: #000000; stroke-width: 0.8"/>
      </g>
     </g>
     <g id="text_14">
      <!-- 70 -->
      <g transform="translate(21.737656 93.887215) scale(0.1 -0.1)">
       <defs>
        <path id="NanumGothic-37" d="M 1549 -211 
Q 1504 -301 1421 -301 
L 1101 -301 
Q 1062 -301 1046 -275 
Q 1030 -250 1050 -211 
L 2912 4083 
L 538 4083 
Q 448 4083 448 4173 
L 448 4384 
Q 448 4474 538 4474 
L 3194 4474 
Q 3328 4474 3350 4451 
Q 3373 4429 3373 4294 
L 3373 4134 
Q 3373 4083 3354 4045 
L 1549 -211 
z
" transform="scale(0.015625)"/>
       </defs>
       <use xlink:href="#NanumGothic-37"/>
       <use xlink:href="#NanumGothic-30" transform="translate(60.599991 0)"/>
      </g>
     </g>
    </g>
    <g id="ytick_9">
     <g id="line2d_15">
      <g>
       <use xlink:href="#m11b7c3682f" x="40.856406" y="53.322353" style="stroke: #000000; stroke-width: 0.8"/>
      </g>
     </g>
     <g id="text_15">
      <!-- 80 -->
      <g transform="translate(21.737656 57.082509) scale(0.1 -0.1)">
       <defs>
        <path id="NanumGothic-38" d="M 2944 3360 
Q 2944 3725 2624 3936 
Q 2342 4134 1965 4134 
Q 1555 4134 1274 3930 
Q 966 3725 966 3360 
Q 966 3027 1286 2758 
Q 1376 2675 1526 2579 
Q 1677 2483 1882 2387 
Q 1933 2362 1965 2365 
Q 1997 2368 2061 2400 
Q 2470 2624 2707 2870 
Q 2944 3117 2944 3360 
z
M 3104 960 
Q 3104 1312 2784 1574 
Q 2682 1658 2496 1760 
Q 2310 1862 2042 1984 
Q 1958 2029 1856 1984 
Q 1606 1888 1414 1782 
Q 1222 1677 1107 1587 
Q 979 1459 899 1289 
Q 819 1120 819 928 
Q 819 538 1184 288 
Q 1517 38 1965 38 
Q 2426 38 2739 256 
Q 3104 506 3104 960 
z
M 3552 928 
Q 3552 614 3421 364 
Q 3290 115 3046 -51 
Q 2835 -192 2560 -269 
Q 2285 -346 1965 -346 
Q 1651 -346 1379 -262 
Q 1107 -179 883 -32 
Q 640 141 505 387 
Q 371 634 371 928 
Q 371 1427 704 1741 
Q 960 1984 1491 2182 
Q 518 2662 518 3411 
Q 518 3680 652 3888 
Q 787 4096 1030 4262 
Q 1235 4390 1468 4457 
Q 1702 4525 1965 4525 
Q 2272 4525 2515 4457 
Q 2758 4390 2957 4256 
Q 3398 3949 3398 3411 
Q 3398 2746 2400 2182 
Q 2662 2086 2870 1971 
Q 3078 1856 3206 1741 
Q 3552 1434 3552 928 
z
" transform="scale(0.015625)"/>
       </defs>
       <use xlink:href="#NanumGothic-38"/>
       <use xlink:href="#NanumGothic-30" transform="translate(60.599991 0)"/>
      </g>
     </g>
    </g>
    <g id="text_16">
     <!-- Success Rate (%) -->
     <g transform="translate(15.582344 235.137187) rotate(-90) scale(0.11 -0.11)">
      <defs>
       <path id="NanumGothic-28" d="M 1984 -1133 
Q 1939 -1133 1929 -1129 
Q 1920 -1126 1894 -1094 
Q 1312 -365 1030 384 
Q 749 1133 749 1933 
Q 749 2726 1030 3475 
Q 1312 4224 1894 4960 
Q 1920 4992 1929 4995 
Q 1939 4998 1971 4998 
L 2150 4998 
Q 2189 4998 2189 4992 
Q 2189 4986 2170 4954 
Q 1165 3379 1165 1933 
Q 1165 1197 1421 448 
Q 1677 -301 2176 -1088 
Q 2208 -1133 2144 -1133 
L 1984 -1133 
z
" transform="scale(0.015625)"/>
       <path id="NanumGothic-25" d="M 2522 3283 
Q 2522 4192 1869 4192 
Q 1222 4192 1222 3283 
Q 1222 2906 1357 2675 
Q 1536 2381 1869 2381 
Q 2208 2381 2387 2675 
Q 2522 2906 2522 3283 
z
M 5741 986 
Q 5741 1888 5094 1888 
Q 4435 1888 4435 986 
Q 4435 614 4576 378 
Q 4742 77 5094 77 
Q 5741 77 5741 986 
z
M 4992 4659 
Q 5075 4659 5081 4646 
Q 5088 4634 5050 4563 
L 2342 -282 
Q 2298 -358 2275 -371 
Q 2253 -384 2163 -384 
L 1978 -384 
Q 1888 -384 1878 -371 
Q 1869 -358 1920 -269 
L 4621 4576 
Q 4653 4640 4672 4649 
Q 4691 4659 4762 4659 
L 4992 4659 
z
M 2944 3283 
Q 2944 2714 2694 2387 
Q 2554 2208 2346 2112 
Q 2138 2016 1869 2016 
Q 1600 2016 1395 2112 
Q 1190 2208 1050 2387 
Q 800 2726 800 3283 
Q 800 3853 1050 4192 
Q 1338 4557 1869 4557 
Q 2406 4557 2694 4192 
Q 2944 3866 2944 3283 
z
M 6163 986 
Q 6163 410 5914 83 
Q 5632 -275 5094 -275 
Q 4550 -275 4269 83 
Q 4026 403 4026 986 
Q 4026 1562 4269 1894 
Q 4410 2074 4618 2170 
Q 4826 2266 5094 2266 
Q 5638 2266 5914 1894 
Q 6163 1568 6163 986 
z
" transform="scale(0.015625)"/>
       <path id="NanumGothic-29" d="M 301 -1133 
Q 243 -1133 275 -1088 
Q 774 -301 1027 448 
Q 1280 1197 1280 1933 
Q 1280 2662 1030 3414 
Q 781 4166 282 4954 
Q 262 4986 262 4992 
Q 262 4998 294 4998 
L 474 4998 
Q 506 4998 515 4995 
Q 525 4992 557 4960 
Q 1139 4224 1417 3475 
Q 1696 2726 1696 1933 
Q 1696 1133 1417 384 
Q 1139 -365 557 -1094 
Q 525 -1126 515 -1129 
Q 506 -1133 461 -1133 
L 301 -1133 
z
" transform="scale(0.015625)"/>
      </defs>
      <use xlink:href="#NanumGothic-53"/>
      <use xlink:href="#NanumGothic-75" transform="translate(54.499985 0)"/>
      <use xlink:href="#NanumGothic-63" transform="translate(115.099976 0)"/>
      <use xlink:href="#NanumGothic-63" transform="translate(163.499969 0)"/>
      <use xlink:href="#NanumGothic-65" transform="translate(211.899963 0)"/>
      <use xlink:href="#NanumGothic-73" transform="translate(266.399948 0)"/>
      <use xlink:href="#NanumGothic-73" transform="translate(308.799942 0)"/>
      <use xlink:href="#NanumGothic-20" transform="translate(351.199936 0)"/>
      <use xlink:href="#NanumGothic-52" transform="translate(379.199921 0)"/>
      <use xlink:href="#NanumGothic-61" transform="translate(441.399918 0)"/>
      <use xlink:href="#NanumGothic-74" transform="translate(495.899902 0)"/>
      <use xlink:href="#NanumGothic-65" transform="translate(532.19989 0)"/>
      <use xlink:href="#NanumGothic-20" transform="translate(586.699875 0)"/>
      <use xlink:href="#NanumGothic-28" transform="translate(614.69986 0)"/>
      <use xlink:href="#NanumGothic-25" transform="translate(650.999847 0)"/>
      <use xlink:href="#NanumGothic-29" transform="translate(759.999832 0)"/>
     </g>
    </g>
   </g>
   <g id="line2d_16">
    <path d="M 40.856406 91.2312 
L 382.699885 91.2312 
" clip-path="url(#p6d80ab0af6)" style="fill: none; stroke-dasharray: 4.44,1.92; stroke-dashoffset: 0; stroke: #8b3a3a; stroke-opacity: 0.5; stroke-width: 1.2"/>
   </g>
   <g id="patch_9">
    <path d="M 40.856406 347.76 
L 40.856406 34.92 
" style="fill: none; stroke: #7a7a7a; stroke-width: 0.8; stroke-linejoin: miter; stroke-linecap: square"/>
   </g>
   <g id="patch_10">
    <path d="M 40.856406 347.76 
L 382.699885 347.76 
" style="fill: none; stroke: #7a7a7a; stroke-width: 0.8; stroke-linejoin: miter; stroke-linecap: square"/>
   </g>
   <g id="text_17">
    <!-- 69.7% -->
    <g style="fill: #333333" transform="translate(61.773033 85.710494) scale(0.1 -0.1)">
     <defs>
      <path id="NanumGothic-39" d="M 2995 2925 
Q 2995 3424 2726 3763 
Q 2432 4128 1946 4128 
Q 1427 4128 1133 3802 
Q 845 3494 845 2982 
Q 845 2438 1107 2138 
L 1101 2138 
Q 1376 1843 1882 1843 
Q 2406 1843 2701 2138 
Q 2995 2445 2995 2925 
z
M 653 -256 
Q 557 -237 570 -109 
L 589 115 
Q 602 192 691 154 
Q 851 90 1014 64 
Q 1178 38 1382 38 
Q 1830 38 2163 214 
Q 2496 390 2707 717 
Q 3027 1254 3040 2080 
Q 2650 1453 1882 1453 
Q 1293 1453 896 1754 
Q 390 2144 390 2950 
Q 390 3661 806 4083 
Q 1229 4525 1958 4525 
Q 3494 4525 3494 2259 
Q 3494 -346 1338 -346 
Q 1043 -346 653 -256 
z
" transform="scale(0.015625)"/>
      <path id="NanumGothic-2e" d="M 691 -256 
Q 691 -122 784 -29 
Q 877 64 1011 64 
Q 1146 64 1238 -29 
Q 1331 -122 1331 -256 
Q 1331 -390 1238 -483 
Q 1146 -576 1011 -576 
Q 877 -576 784 -483 
Q 691 -390 691 -256 
z
" transform="scale(0.015625)"/>
     </defs>
     <use xlink:href="#NanumGothic-36"/>
     <use xlink:href="#NanumGothic-39" transform="translate(60.599991 0)"/>
     <use xlink:href="#NanumGothic-2e" transform="translate(121.199982 0)"/>
     <use xlink:href="#NanumGothic-37" transform="translate(151.499969 0)"/>
     <use xlink:href="#NanumGothic-25" transform="translate(212.09996 0)"/>
    </g>
   </g>
   <g id="text_18">
    <!-- 30.3% -->
    <g style="fill: #333333" transform="translate(115.353515 230.721035) scale(0.1 -0.1)">
     <use xlink:href="#NanumGothic-33"/>
     <use xlink:href="#NanumGothic-30" transform="translate(60.599991 0)"/>
     <use xlink:href="#NanumGothic-2e" transform="translate(121.199982 0)"/>
     <use xlink:href="#NanumGothic-33" transform="translate(151.499969 0)"/>
     <use xlink:href="#NanumGothic-25" transform="translate(212.09996 0)"/>
    </g>
   </g>
   <g id="text_19">
    <!-- 47.0% -->
    <g style="fill: #333333" transform="translate(168.933998 169.257176) scale(0.1 -0.1)">
     <use xlink:href="#NanumGothic-34"/>
     <use xlink:href="#NanumGothic-37" transform="translate(60.599991 0)"/>
     <use xlink:href="#NanumGothic-2e" transform="translate(121.199982 0)"/>
     <use xlink:href="#NanumGothic-30" transform="translate(151.499969 0)"/>
     <use xlink:href="#NanumGothic-25" transform="translate(212.09996 0)"/>
    </g>
   </g>
   <g id="text_20">
    <!-- 62.1% -->
    <g style="fill: #333333" transform="translate(222.51448 113.682071) scale(0.1 -0.1)">
     <use xlink:href="#NanumGothic-36"/>
     <use xlink:href="#NanumGothic-32" transform="translate(60.599991 0)"/>
     <use xlink:href="#NanumGothic-2e" transform="translate(121.199982 0)"/>
     <use xlink:href="#NanumGothic-31" transform="translate(151.499969 0)"/>
     <use xlink:href="#NanumGothic-25" transform="translate(212.09996 0)"/>
    </g>
   </g>
   <g id="text_21">
    <!-- 68.2% -->
    <g style="fill: #333333" transform="translate(276.094963 91.2312) scale(0.1 -0.1)">
     <use xlink:href="#NanumGothic-36"/>
     <use xlink:href="#NanumGothic-38" transform="translate(60.599991 0)"/>
     <use xlink:href="#NanumGothic-2e" transform="translate(121.199982 0)"/>
     <use xlink:href="#NanumGothic-32" transform="translate(151.499969 0)"/>
     <use xlink:href="#NanumGothic-25" transform="translate(212.09996 0)"/>
    </g>
   </g>
   <g id="text_22">
    <!-- 68.2% -->
    <g style="fill: #333333" transform="translate(329.675445 91.2312) scale(0.1 -0.1)">
     <use xlink:href="#NanumGothic-36"/>
     <use xlink:href="#NanumGothic-38" transform="translate(60.599991 0)"/>
     <use xlink:href="#NanumGothic-2e" transform="translate(121.199982 0)"/>
     <use xlink:href="#NanumGothic-32" transform="translate(151.499969 0)"/>
     <use xlink:href="#NanumGothic-25" transform="translate(212.09996 0)"/>
    </g>
   </g>
   <g id="text_23">
    <!-- Full FT baseline -->
    <g style="fill: #8b3a3a" transform="translate(309.916155 84.606353) scale(0.09 -0.09)">
     <defs>
      <path id="NanumGothic-62" d="M 3066 1478 
Q 3072 1747 3017 2003 
Q 2963 2259 2841 2464 
Q 2720 2669 2518 2793 
Q 2317 2918 2022 2918 
Q 1760 2918 1565 2806 
Q 1370 2694 1242 2496 
Q 1114 2298 1050 2035 
Q 986 1773 986 1478 
Q 986 1190 1066 924 
Q 1146 659 1283 460 
Q 1421 262 1609 144 
Q 1798 26 2022 26 
Q 2317 26 2518 150 
Q 2720 275 2841 480 
Q 2963 685 3017 947 
Q 3072 1210 3066 1478 
z
M 557 4749 
Q 557 4838 646 4838 
L 896 4838 
Q 986 4838 986 4749 
L 986 2707 
Q 1146 2970 1440 3126 
Q 1734 3283 2099 3283 
Q 3526 3283 3526 1478 
Q 3533 1120 3453 790 
Q 3373 461 3193 211 
Q 3014 -38 2742 -188 
Q 2470 -339 2099 -339 
Q 1331 -339 986 314 
L 986 -186 
Q 986 -275 896 -275 
L 646 -275 
Q 557 -275 557 -186 
L 557 4749 
z
" transform="scale(0.015625)"/>
     </defs>
     <use xlink:href="#NanumGothic-46"/>
     <use xlink:href="#NanumGothic-75" transform="translate(50.299988 0)"/>
     <use xlink:href="#NanumGothic-6c" transform="translate(110.899979 0)"/>
     <use xlink:href="#NanumGothic-6c" transform="translate(135.099976 0)"/>
     <use xlink:href="#NanumGothic-20" transform="translate(159.299973 0)"/>
     <use xlink:href="#NanumGothic-46" transform="translate(187.299957 0)"/>
     <use xlink:href="#NanumGothic-54" transform="translate(237.599945 0)"/>
     <use xlink:href="#NanumGothic-20" transform="translate(292.09993 0)"/>
     <use xlink:href="#NanumGothic-62" transform="translate(320.099915 0)"/>
     <use xlink:href="#NanumGothic-61" transform="translate(380.699905 0)"/>
     <use xlink:href="#NanumGothic-73" transform="translate(435.19989 0)"/>
     <use xlink:href="#NanumGothic-65" transform="translate(477.599884 0)"/>
     <use xlink:href="#NanumGothic-6c" transform="translate(532.099869 0)"/>
     <use xlink:href="#NanumGothic-69" transform="translate(556.299866 0)"/>
     <use xlink:href="#NanumGothic-6e" transform="translate(580.499863 0)"/>
     <use xlink:href="#NanumGothic-65" transform="translate(641.099854 0)"/>
    </g>
   </g>
   <g id="patch_11">
    <path d="M 240.773239 58.497359 
Q 265.659878 77.028073 289.2014 94.557206 
" style="fill: none; stroke: #3da084; stroke-width: 1.5; stroke-linecap: round"/>
    <path d="M 287.187565 90.564154 
L 289.2014 94.557206 
L 284.798657 93.772443 
" style="fill: none; stroke: #3da084; stroke-width: 1.5; stroke-linecap: round"/>
   </g>
   <g id="text_24">
    <!-- Sweet spot ★ -->
    <g style="fill: #3da084" transform="translate(190.770023 41.991728) scale(0.1 -0.1)">
     <defs>
      <path id="NanumGothic-70" d="M 2989 1504 
Q 2989 1766 2937 2012 
Q 2886 2259 2764 2451 
Q 2643 2643 2451 2761 
Q 2259 2880 1971 2880 
Q 1709 2880 1517 2771 
Q 1325 2662 1200 2473 
Q 1075 2285 1011 2035 
Q 947 1786 947 1504 
Q 947 762 1225 381 
Q 1504 0 1971 0 
Q 2214 0 2403 105 
Q 2592 211 2723 409 
Q 2854 608 2921 883 
Q 2989 1158 2989 1504 
z
M 518 3098 
Q 518 3187 608 3187 
L 851 3187 
Q 941 3187 941 3098 
L 909 2618 
Q 1037 2899 1341 3072 
Q 1645 3245 2048 3245 
Q 2426 3245 2691 3110 
Q 2957 2976 3126 2742 
Q 3296 2509 3376 2189 
Q 3456 1869 3456 1504 
Q 3456 1107 3363 768 
Q 3270 429 3094 179 
Q 2918 -70 2656 -214 
Q 2394 -358 2048 -358 
Q 1658 -358 1376 -208 
Q 1094 -58 947 211 
L 947 -1165 
Q 947 -1254 858 -1254 
L 614 -1254 
Q 576 -1254 547 -1228 
Q 518 -1203 518 -1165 
L 518 3098 
z
" transform="scale(0.015625)"/>
      <path id="NanumGothic-2605" d="M 5626 2630 
L 4032 1440 
L 4691 -467 
L 3008 710 
L 1325 -467 
L 1984 1440 
L 390 2630 
L 2381 2630 
L 3008 4442 
L 3635 2630 
L 5626 2630 
z
" transform="scale(0.015625)"/>
     </defs>
     <use xlink:href="#NanumGothic-53"/>
     <use xlink:href="#NanumGothic-77" transform="translate(54.499985 0)"/>
     <use xlink:href="#NanumGothic-65" transform="translate(139.299973 0)"/>
     <use xlink:href="#NanumGothic-65" transform="translate(193.799957 0)"/>
     <use xlink:href="#NanumGothic-74" transform="translate(248.299942 0)"/>
     <use xlink:href="#NanumGothic-20" transform="translate(284.59993 0)"/>
     <use xlink:href="#NanumGothic-73" transform="translate(312.599915 0)"/>
     <use xlink:href="#NanumGothic-70" transform="translate(354.999908 0)"/>
     <use xlink:href="#NanumGothic-6f" transform="translate(415.599899 0)"/>
     <use xlink:href="#NanumGothic-74" transform="translate(476.19989 0)"/>
     <use xlink:href="#NanumGothic-20" transform="translate(512.499878 0)"/>
     <use xlink:href="#NanumGothic-2605" transform="translate(540.499863 0)"/>
    </g>
    <!-- (1.4% params, single A100) -->
    <g style="fill: #3da084" transform="translate(157.121586 53.322353) scale(0.1 -0.1)">
     <defs>
      <path id="NanumGothic-6d" d="M 602 2374 
Q 602 2643 595 2800 
Q 589 2957 576 3098 
Q 576 3187 666 3187 
L 902 3187 
Q 992 3187 992 3098 
L 992 2752 
Q 1139 2989 1388 3126 
Q 1638 3264 2003 3264 
Q 2387 3264 2675 3075 
Q 2963 2886 3027 2522 
Q 3162 2886 3459 3075 
Q 3757 3264 4147 3264 
Q 4397 3264 4598 3174 
Q 4800 3085 4944 2928 
Q 5088 2771 5165 2560 
Q 5242 2349 5242 2112 
L 5242 -186 
Q 5242 -275 5152 -275 
L 4909 -275 
Q 4819 -275 4819 -192 
L 4819 2022 
Q 4819 2899 4083 2899 
Q 3859 2899 3683 2800 
Q 3507 2701 3382 2528 
Q 3258 2355 3197 2124 
Q 3136 1894 3142 1638 
L 3142 -186 
Q 3142 -275 3053 -275 
L 2797 -275 
Q 2707 -275 2707 -186 
L 2707 2022 
Q 2707 2899 1965 2899 
Q 1530 2899 1280 2617 
Q 1030 2336 1030 1875 
L 1030 -186 
Q 1030 -275 941 -275 
L 691 -275 
Q 602 -275 602 -186 
L 602 2374 
z
" transform="scale(0.015625)"/>
      <path id="NanumGothic-2c" d="M 1299 115 
Q 1382 115 1382 86 
Q 1382 58 1370 19 
L 947 -1126 
Q 922 -1178 899 -1194 
Q 877 -1210 832 -1210 
L 563 -1210 
Q 480 -1210 499 -1120 
L 800 6 
Q 813 45 838 80 
Q 864 115 934 115 
L 1299 115 
z
" transform="scale(0.015625)"/>
      <path id="NanumGothic-67" d="M 2950 1472 
Q 2950 2157 2668 2528 
Q 2387 2899 1907 2899 
Q 1389 2899 1126 2553 
Q 864 2208 864 1459 
Q 864 1184 941 953 
Q 1018 723 1152 560 
Q 1286 397 1472 304 
Q 1658 211 1875 211 
Q 2099 211 2297 304 
Q 2496 397 2640 566 
Q 2784 736 2867 966 
Q 2950 1197 2950 1472 
z
M 749 -1114 
Q 672 -1094 685 -1018 
L 704 -736 
Q 704 -653 787 -698 
Q 1030 -806 1254 -854 
Q 1478 -902 1741 -902 
Q 2323 -902 2614 -547 
Q 2906 -192 2944 422 
Q 2797 134 2509 -13 
Q 2221 -160 1869 -160 
Q 1555 -160 1286 -45 
Q 1018 70 819 281 
Q 621 493 505 793 
Q 390 1094 390 1459 
Q 390 1888 470 2224 
Q 550 2560 723 2790 
Q 896 3021 1171 3142 
Q 1446 3264 1837 3264 
Q 2176 3264 2435 3152 
Q 2694 3040 2963 2752 
L 2950 3098 
Q 2950 3187 3040 3187 
L 3283 3187 
Q 3373 3187 3373 3098 
L 3373 538 
Q 3373 122 3267 -214 
Q 3162 -550 2954 -784 
Q 2746 -1018 2438 -1142 
Q 2131 -1267 1734 -1267 
Q 1446 -1267 1228 -1232 
Q 1011 -1197 749 -1114 
z
" transform="scale(0.015625)"/>
     </defs>
     <use xlink:href="#NanumGothic-28"/>
     <use xlink:href="#NanumGothic-31" transform="translate(36.299988 0)"/>
     <use xlink:href="#NanumGothic-2e" transform="translate(96.899979 0)"/>
     <use xlink:href="#NanumGothic-34" transform="translate(127.199966 0)"/>
     <use xlink:href="#NanumGothic-25" transform="translate(187.799957 0)"/>
     <use xlink:href="#NanumGothic-20" transform="translate(296.799942 0)"/>
     <use xlink:href="#NanumGothic-70" transform="translate(324.799927 0)"/>
     <use xlink:href="#NanumGothic-61" transform="translate(385.399918 0)"/>
     <use xlink:href="#NanumGothic-72" transform="translate(439.899902 0)"/>
     <use xlink:href="#NanumGothic-61" transform="translate(476.19989 0)"/>
     <use xlink:href="#NanumGothic-6d" transform="translate(530.699875 0)"/>
     <use xlink:href="#NanumGothic-73" transform="translate(621.499863 0)"/>
     <use xlink:href="#NanumGothic-2c" transform="translate(663.899857 0)"/>
     <use xlink:href="#NanumGothic-20" transform="translate(694.199844 0)"/>
     <use xlink:href="#NanumGothic-73" transform="translate(722.199829 0)"/>
     <use xlink:href="#NanumGothic-69" transform="translate(764.599823 0)"/>
     <use xlink:href="#NanumGothic-6e" transform="translate(788.79982 0)"/>
     <use xlink:href="#NanumGothic-67" transform="translate(849.399811 0)"/>
     <use xlink:href="#NanumGothic-6c" transform="translate(909.999802 0)"/>
     <use xlink:href="#NanumGothic-65" transform="translate(934.199799 0)"/>
     <use xlink:href="#NanumGothic-20" transform="translate(988.699783 0)"/>
     <use xlink:href="#NanumGothic-41" transform="translate(1016.699768 0)"/>
     <use xlink:href="#NanumGothic-31" transform="translate(1089.39975 0)"/>
     <use xlink:href="#NanumGothic-30" transform="translate(1149.999741 0)"/>
     <use xlink:href="#NanumGothic-30" transform="translate(1210.599731 0)"/>
     <use xlink:href="#NanumGothic-29" transform="translate(1271.199722 0)"/>
    </g>
   </g>
   <g id="text_25">
    <!-- Performance (Franka-Tabletop) -->
    <g style="fill: #333333" transform="translate(133.226114 24.92) scale(0.11 -0.11)">
     <defs>
      <path id="NanumGothic-50" d="M 3008 3123 
Q 3008 3578 2771 3824 
Q 2534 4070 2074 4070 
L 1114 4070 
L 1114 2157 
L 1632 2157 
Q 1939 2157 2185 2189 
Q 2432 2221 2608 2323 
Q 2784 2426 2886 2614 
Q 2989 2803 3008 3123 
z
M 1114 -186 
Q 1114 -275 1024 -275 
L 736 -275 
Q 646 -275 646 -186 
L 646 4282 
Q 646 4422 675 4448 
Q 704 4474 838 4474 
L 1978 4474 
Q 2682 4474 3078 4134 
Q 3488 3782 3488 3123 
Q 3488 2790 3369 2531 
Q 3251 2272 3040 2096 
Q 2829 1920 2541 1830 
Q 2253 1741 1926 1754 
L 1114 1754 
L 1114 -186 
z
" transform="scale(0.015625)"/>
      <path id="NanumGothic-66" d="M 2144 4870 
Q 2227 4845 2221 4736 
L 2208 4550 
Q 2202 4512 2176 4502 
Q 2150 4493 2118 4506 
Q 2048 4531 1990 4540 
Q 1933 4550 1856 4550 
Q 1478 4550 1370 4173 
Q 1325 4019 1325 3494 
L 1325 3187 
L 2029 3187 
Q 2118 3187 2118 3098 
L 2118 2906 
Q 2118 2816 2029 2816 
L 1325 2816 
L 1325 -186 
Q 1325 -275 1235 -275 
L 986 -275 
Q 896 -275 896 -186 
L 896 2816 
L 275 2816 
Q 186 2816 186 2906 
L 186 3098 
Q 186 3187 275 3187 
L 896 3187 
L 896 3450 
Q 896 4147 1024 4454 
Q 1222 4915 1818 4915 
Q 2003 4915 2144 4870 
z
" transform="scale(0.015625)"/>
      <path id="NanumGothic-6b" d="M 1734 1645 
L 3117 -186 
Q 3136 -218 3129 -246 
Q 3123 -275 3085 -275 
L 2810 -275 
Q 2746 -275 2694 -256 
Q 2643 -237 2611 -186 
L 1459 1338 
L 1030 858 
L 1030 -186 
Q 1030 -275 941 -275 
L 685 -275 
Q 595 -275 595 -186 
L 595 4730 
Q 595 4819 685 4819 
L 941 4819 
Q 1030 4819 1030 4730 
L 1030 1395 
L 2490 3098 
Q 2579 3187 2701 3187 
L 3002 3187 
Q 3040 3187 3053 3158 
Q 3066 3130 3034 3098 
L 1734 1645 
z
" transform="scale(0.015625)"/>
      <path id="NanumGothic-2d" d="M 1946 2419 
Q 2016 2419 2025 2409 
Q 2035 2400 2035 2330 
L 2035 2048 
Q 2035 1978 2025 1968 
Q 2016 1958 1946 1958 
L 448 1958 
Q 378 1958 368 1968 
Q 358 1978 358 2048 
L 358 2330 
Q 358 2400 368 2409 
Q 378 2419 448 2419 
L 1946 2419 
z
" transform="scale(0.015625)"/>
     </defs>
     <use xlink:href="#NanumGothic-50"/>
     <use xlink:href="#NanumGothic-65" transform="translate(53.449997 0)"/>
     <use xlink:href="#NanumGothic-72" transform="translate(107.949982 0)"/>
     <use xlink:href="#NanumGothic-66" transform="translate(144.249969 0)"/>
     <use xlink:href="#NanumGothic-6f" transform="translate(180.549957 0)"/>
     <use xlink:href="#NanumGothic-72" transform="translate(241.149948 0)"/>
     <use xlink:href="#NanumGothic-6d" transform="translate(277.449936 0)"/>
     <use xlink:href="#NanumGothic-61" transform="translate(368.249924 0)"/>
     <use xlink:href="#NanumGothic-6e" transform="translate(422.749908 0)"/>
     <use xlink:href="#NanumGothic-63" transform="translate(483.349899 0)"/>
     <use xlink:href="#NanumGothic-65" transform="translate(531.749893 0)"/>
     <use xlink:href="#NanumGothic-20" transform="translate(586.249878 0)"/>
     <use xlink:href="#NanumGothic-28" transform="translate(614.249863 0)"/>
     <use xlink:href="#NanumGothic-46" transform="translate(650.54985 0)"/>
     <use xlink:href="#NanumGothic-72" transform="translate(700.849838 0)"/>
     <use xlink:href="#NanumGothic-61" transform="translate(737.149826 0)"/>
     <use xlink:href="#NanumGothic-6e" transform="translate(791.649811 0)"/>
     <use xlink:href="#NanumGothic-6b" transform="translate(852.249802 0)"/>
     <use xlink:href="#NanumGothic-61" transform="translate(904.249786 0)"/>
     <use xlink:href="#NanumGothic-2d" transform="translate(958.749771 0)"/>
     <use xlink:href="#NanumGothic-54" transform="translate(995.049759 0)"/>
     <use xlink:href="#NanumGothic-61" transform="translate(1040.674744 0)"/>
     <use xlink:href="#NanumGothic-62" transform="translate(1095.174728 0)"/>
     <use xlink:href="#NanumGothic-6c" transform="translate(1155.774719 0)"/>
     <use xlink:href="#NanumGothic-65" transform="translate(1179.974716 0)"/>
     <use xlink:href="#NanumGothic-74" transform="translate(1234.474701 0)"/>
     <use xlink:href="#NanumGothic-6f" transform="translate(1270.774689 0)"/>
     <use xlink:href="#NanumGothic-70" transform="translate(1331.37468 0)"/>
     <use xlink:href="#NanumGothic-29" transform="translate(1391.97467 0)"/>
    </g>
   </g>
  </g>
  <g id="axes_2">
   <g id="patch_12">
    <path d="M 485.252928 347.76 
L 827.096406 347.76 
L 827.096406 34.92 
L 485.252928 34.92 
z
" style="fill: #ffffff"/>
   </g>
   <g id="patch_13">
    <path d="M 500.791268 152953.597465 
L 522.223461 152953.597465 
L 522.223461 49.14 
L 500.791268 49.14 
z
" clip-path="url(#pf379acd9d9)" style="fill: #e8c5c5; stroke: #8b3a3a; stroke-width: 1.5; stroke-linejoin: miter"/>
   </g>
   <g id="patch_14">
    <path d="M 554.37175 152953.597465 
L 575.803943 152953.597465 
L 575.803943 230.268576 
L 554.37175 230.268576 
z
" clip-path="url(#pf379acd9d9)" style="fill: #e7e6e2; stroke: #7a7a7a; stroke-width: 1.5; stroke-linejoin: miter"/>
   </g>
   <g id="patch_15">
    <path d="M 607.952233 152953.597465 
L 629.384426 152953.597465 
L 629.384426 53.200981 
L 607.952233 53.200981 
z
" clip-path="url(#pf379acd9d9)" style="fill: #f0d4c4; stroke: #c8694f; stroke-width: 1.5; stroke-linejoin: miter"/>
   </g>
   <g id="patch_16">
    <path d="M 661.532715 152953.597465 
L 682.964908 152953.597465 
L 682.964908 185.564557 
L 661.532715 185.564557 
z
" clip-path="url(#pf379acd9d9)" style="fill: #f5d4a0; stroke: #d4a05a; stroke-width: 1.5; stroke-linejoin: miter"/>
   </g>
   <g id="patch_17">
    <path d="M 715.113198 152953.597465 
L 736.545391 152953.597465 
L 736.545391 333.54 
L 715.113198 333.54 
z
" clip-path="url(#pf379acd9d9)" style="fill: #d8eee0; stroke: #3da084; stroke-width: 1.5; stroke-linejoin: miter"/>
   </g>
   <g id="patch_18">
    <path d="M 768.69368 152953.597465 
L 790.125873 152953.597465 
L 790.125873 287.688005 
L 768.69368 287.688005 
z
" clip-path="url(#pf379acd9d9)" style="fill: #d8eee0; stroke: #3da084; stroke-width: 1.5; stroke-linejoin: miter"/>
   </g>
   <g id="matplotlib.axis_3">
    <g id="xtick_7">
     <g id="line2d_17">
      <g>
       <use xlink:href="#m0789754941" x="522.223461" y="347.76" style="stroke: #000000; stroke-width: 0.8"/>
      </g>
     </g>
     <g id="text_26">
      <!-- Full FT -->
      <g transform="translate(509.079242 361.528281) scale(0.09 -0.09)">
       <use xlink:href="#NanumGothic-46"/>
       <use xlink:href="#NanumGothic-75" transform="translate(50.299988 0)"/>
       <use xlink:href="#NanumGothic-6c" transform="translate(110.899979 0)"/>
       <use xlink:href="#NanumGothic-6c" transform="translate(135.099976 0)"/>
       <use xlink:href="#NanumGothic-20" transform="translate(159.299973 0)"/>
       <use xlink:href="#NanumGothic-46" transform="translate(187.299957 0)"/>
       <use xlink:href="#NanumGothic-54" transform="translate(237.599945 0)"/>
      </g>
     </g>
    </g>
    <g id="xtick_8">
     <g id="line2d_18">
      <g>
       <use xlink:href="#m0789754941" x="575.803943" y="347.76" style="stroke: #000000; stroke-width: 0.8"/>
      </g>
     </g>
     <g id="text_27">
      <!-- Last layer -->
      <g transform="translate(556.65574 361.528281) scale(0.09 -0.09)">
       <use xlink:href="#NanumGothic-4c"/>
       <use xlink:href="#NanumGothic-61" transform="translate(48.399994 0)"/>
       <use xlink:href="#NanumGothic-73" transform="translate(102.899979 0)"/>
       <use xlink:href="#NanumGothic-74" transform="translate(145.299973 0)"/>
       <use xlink:href="#NanumGothic-20" transform="translate(181.59996 0)"/>
       <use xlink:href="#NanumGothic-6c" transform="translate(209.599945 0)"/>
       <use xlink:href="#NanumGothic-61" transform="translate(233.799942 0)"/>
       <use xlink:href="#NanumGothic-79" transform="translate(288.299927 0)"/>
       <use xlink:href="#NanumGothic-65" transform="translate(334.699921 0)"/>
       <use xlink:href="#NanumGothic-72" transform="translate(389.199905 0)"/>
      </g>
      <!-- only -->
      <g transform="translate(567.173084 371.4235) scale(0.09 -0.09)">
       <use xlink:href="#NanumGothic-6f"/>
       <use xlink:href="#NanumGothic-6e" transform="translate(60.599991 0)"/>
       <use xlink:href="#NanumGothic-6c" transform="translate(121.199982 0)"/>
       <use xlink:href="#NanumGothic-79" transform="translate(145.399979 0)"/>
      </g>
     </g>
    </g>
    <g id="xtick_9">
     <g id="line2d_19">
      <g>
       <use xlink:href="#m0789754941" x="629.384426" y="347.76" style="stroke: #000000; stroke-width: 0.8"/>
      </g>
     </g>
     <g id="text_28">
      <!-- Frozen -->
      <g transform="translate(615.403488 361.528281) scale(0.09 -0.09)">
       <use xlink:href="#NanumGothic-46"/>
       <use xlink:href="#NanumGothic-72" transform="translate(50.299988 0)"/>
       <use xlink:href="#NanumGothic-6f" transform="translate(86.599976 0)"/>
       <use xlink:href="#NanumGothic-7a" transform="translate(147.199966 0)"/>
       <use xlink:href="#NanumGothic-65" transform="translate(195.59996 0)"/>
       <use xlink:href="#NanumGothic-6e" transform="translate(250.099945 0)"/>
      </g>
      <!-- vision -->
      <g transform="translate(617.666145 371.413656) scale(0.09 -0.09)">
       <use xlink:href="#NanumGothic-76"/>
       <use xlink:href="#NanumGothic-69" transform="translate(48.399994 0)"/>
       <use xlink:href="#NanumGothic-73" transform="translate(72.599991 0)"/>
       <use xlink:href="#NanumGothic-69" transform="translate(114.999985 0)"/>
       <use xlink:href="#NanumGothic-6f" transform="translate(139.199982 0)"/>
       <use xlink:href="#NanumGothic-6e" transform="translate(199.799973 0)"/>
      </g>
     </g>
    </g>
    <g id="xtick_10">
     <g id="line2d_20">
      <g>
       <use xlink:href="#m0789754941" x="682.964908" y="347.76" style="stroke: #000000; stroke-width: 0.8"/>
      </g>
     </g>
     <g id="text_29">
      <!-- Sandwich -->
      <g transform="translate(662.796471 361.528281) scale(0.09 -0.09)">
       <use xlink:href="#NanumGothic-53"/>
       <use xlink:href="#NanumGothic-61" transform="translate(54.499985 0)"/>
       <use xlink:href="#NanumGothic-6e" transform="translate(108.999969 0)"/>
       <use xlink:href="#NanumGothic-64" transform="translate(169.59996 0)"/>
       <use xlink:href="#NanumGothic-77" transform="translate(230.199951 0)"/>
       <use xlink:href="#NanumGothic-69" transform="translate(314.999939 0)"/>
       <use xlink:href="#NanumGothic-63" transform="translate(339.199936 0)"/>
       <use xlink:href="#NanumGothic-68" transform="translate(387.59993 0)"/>
      </g>
     </g>
    </g>
    <g id="xtick_11">
     <g id="line2d_21">
      <g>
       <use xlink:href="#m0789754941" x="736.545391" y="347.76" style="stroke: #000000; stroke-width: 0.8"/>
      </g>
     </g>
     <g id="text_30">
      <!-- LoRA -->
      <g transform="translate(725.56961 361.528281) scale(0.09 -0.09)">
       <use xlink:href="#NanumGothic-4c"/>
       <use xlink:href="#NanumGothic-6f" transform="translate(48.399994 0)"/>
       <use xlink:href="#NanumGothic-52" transform="translate(108.999985 0)"/>
       <use xlink:href="#NanumGothic-41" transform="translate(171.199982 0)"/>
      </g>
      <!-- r=32 -->
      <g transform="translate(726.515313 371.413656) scale(0.09 -0.09)">
       <use xlink:href="#NanumGothic-72"/>
       <use xlink:href="#NanumGothic-3d" transform="translate(36.299988 0)"/>
       <use xlink:href="#NanumGothic-33" transform="translate(101.699982 0)"/>
       <use xlink:href="#NanumGothic-32" transform="translate(162.299973 0)"/>
      </g>
     </g>
    </g>
    <g id="xtick_12">
     <g id="line2d_22">
      <g>
       <use xlink:href="#m0789754941" x="790.125873" y="347.76" style="stroke: #000000; stroke-width: 0.8"/>
      </g>
     </g>
     <g id="text_31">
      <!-- LoRA -->
      <g transform="translate(779.150092 361.528281) scale(0.09 -0.09)">
       <use xlink:href="#NanumGothic-4c"/>
       <use xlink:href="#NanumGothic-6f" transform="translate(48.399994 0)"/>
       <use xlink:href="#NanumGothic-52" transform="translate(108.999985 0)"/>
       <use xlink:href="#NanumGothic-41" transform="translate(171.199982 0)"/>
      </g>
      <!-- r=64 -->
      <g transform="translate(780.095795 371.413656) scale(0.09 -0.09)">
       <use xlink:href="#NanumGothic-72"/>
       <use xlink:href="#NanumGothic-3d" transform="translate(36.299988 0)"/>
       <use xlink:href="#NanumGothic-36" transform="translate(101.699982 0)"/>
       <use xlink:href="#NanumGothic-34" transform="translate(162.299973 0)"/>
      </g>
     </g>
    </g>
   </g>
   <g id="matplotlib.axis_4">
    <g id="ytick_10">
     <g id="line2d_23">
      <g>
       <use xlink:href="#m11b7c3682f" x="485.252928" y="331.933028" style="stroke: #000000; stroke-width: 0.8"/>
      </g>
     </g>
     <g id="text_32">
      <!-- $\mathdefault{10^{2}}$ -->
      <g transform="translate(461.552928 335.693184) scale(0.1 -0.1)">
       <use xlink:href="#NanumGothic-31" transform="translate(0 0.65)"/>
       <use xlink:href="#NanumGothic-30" transform="translate(60.599991 0.65)"/>
       <use xlink:href="#NanumGothic-32" transform="translate(122.071427 35.507812) scale(0.7)"/>
      </g>
     </g>
    </g>
    <g id="ytick_11">
     <g id="line2d_24">
      <g>
       <use xlink:href="#m11b7c3682f" x="485.252928" y="179.615997" style="stroke: #000000; stroke-width: 0.8"/>
      </g>
     </g>
     <g id="text_33">
      <!-- $\mathdefault{10^{3}}$ -->
      <g transform="translate(461.552928 183.376153) scale(0.1 -0.1)">
       <use xlink:href="#NanumGothic-31" transform="translate(0 0.65)"/>
       <use xlink:href="#NanumGothic-30" transform="translate(60.599991 0.65)"/>
       <use xlink:href="#NanumGothic-33" transform="translate(122.071427 35.507812) scale(0.7)"/>
      </g>
     </g>
    </g>
    <g id="ytick_12">
     <g id="line2d_25">
      <defs>
       <path id="mca01a9baba" d="M 0 0 
L -2 0 
" style="stroke: #000000; stroke-width: 0.6"/>
      </defs>
      <g>
       <use xlink:href="#mca01a9baba" x="485.252928" y="346.694073" style="stroke: #000000; stroke-width: 0.6"/>
      </g>
     </g>
    </g>
    <g id="ytick_13">
     <g id="line2d_26">
      <g>
       <use xlink:href="#mca01a9baba" x="485.252928" y="338.902673" style="stroke: #000000; stroke-width: 0.6"/>
      </g>
     </g>
    </g>
    <g id="ytick_14">
     <g id="line2d_27">
      <g>
       <use xlink:href="#mca01a9baba" x="485.252928" y="286.081033" style="stroke: #000000; stroke-width: 0.6"/>
      </g>
     </g>
    </g>
    <g id="ytick_15">
     <g id="line2d_28">
      <g>
       <use xlink:href="#mca01a9baba" x="485.252928" y="259.259335" style="stroke: #000000; stroke-width: 0.6"/>
      </g>
     </g>
    </g>
    <g id="ytick_16">
     <g id="line2d_29">
      <g>
       <use xlink:href="#mca01a9baba" x="485.252928" y="240.229038" style="stroke: #000000; stroke-width: 0.6"/>
      </g>
     </g>
    </g>
    <g id="ytick_17">
     <g id="line2d_30">
      <g>
       <use xlink:href="#mca01a9baba" x="485.252928" y="225.467992" style="stroke: #000000; stroke-width: 0.6"/>
      </g>
     </g>
    </g>
    <g id="ytick_18">
     <g id="line2d_31">
      <g>
       <use xlink:href="#mca01a9baba" x="485.252928" y="213.40734" style="stroke: #000000; stroke-width: 0.6"/>
      </g>
     </g>
    </g>
    <g id="ytick_19">
     <g id="line2d_32">
      <g>
       <use xlink:href="#mca01a9baba" x="485.252928" y="203.210204" style="stroke: #000000; stroke-width: 0.6"/>
      </g>
     </g>
    </g>
    <g id="ytick_20">
     <g id="line2d_33">
      <g>
       <use xlink:href="#mca01a9baba" x="485.252928" y="194.377043" style="stroke: #000000; stroke-width: 0.6"/>
      </g>
     </g>
    </g>
    <g id="ytick_21">
     <g id="line2d_34">
      <g>
       <use xlink:href="#mca01a9baba" x="485.252928" y="186.585642" style="stroke: #000000; stroke-width: 0.6"/>
      </g>
     </g>
    </g>
    <g id="ytick_22">
     <g id="line2d_35">
      <g>
       <use xlink:href="#mca01a9baba" x="485.252928" y="133.764002" style="stroke: #000000; stroke-width: 0.6"/>
      </g>
     </g>
    </g>
    <g id="ytick_23">
     <g id="line2d_36">
      <g>
       <use xlink:href="#mca01a9baba" x="485.252928" y="106.942305" style="stroke: #000000; stroke-width: 0.6"/>
      </g>
     </g>
    </g>
    <g id="ytick_24">
     <g id="line2d_37">
      <g>
       <use xlink:href="#mca01a9baba" x="485.252928" y="87.912007" style="stroke: #000000; stroke-width: 0.6"/>
      </g>
     </g>
    </g>
    <g id="ytick_25">
     <g id="line2d_38">
      <g>
       <use xlink:href="#mca01a9baba" x="485.252928" y="73.150962" style="stroke: #000000; stroke-width: 0.6"/>
      </g>
     </g>
    </g>
    <g id="ytick_26">
     <g id="line2d_39">
      <g>
       <use xlink:href="#mca01a9baba" x="485.252928" y="61.09031" style="stroke: #000000; stroke-width: 0.6"/>
      </g>
     </g>
    </g>
    <g id="ytick_27">
     <g id="line2d_40">
      <g>
       <use xlink:href="#mca01a9baba" x="485.252928" y="50.893173" style="stroke: #000000; stroke-width: 0.6"/>
      </g>
     </g>
    </g>
    <g id="ytick_28">
     <g id="line2d_41">
      <g>
       <use xlink:href="#mca01a9baba" x="485.252928" y="42.060012" style="stroke: #000000; stroke-width: 0.6"/>
      </g>
     </g>
    </g>
    <g id="text_34">
     <!-- Trainable params (M, log scale) -->
     <g style="fill: #333333" transform="translate(455.57324 263.068125) rotate(-90) scale(0.1 -0.1)">
      <defs>
       <path id="NanumGothic-4d" d="M 5523 -186 
Q 5523 -275 5434 -275 
L 5146 -275 
Q 5056 -275 5056 -186 
L 5056 4058 
Q 4582 2880 4205 1952 
Q 4045 1555 3891 1174 
Q 3738 794 3616 496 
Q 3494 198 3417 12 
Q 3341 -173 3341 -179 
Q 3309 -243 3245 -243 
L 2957 -243 
Q 2912 -243 2893 -227 
Q 2874 -211 2861 -179 
L 1094 4058 
L 1094 -186 
Q 1094 -275 1005 -275 
L 717 -275 
Q 627 -275 627 -186 
L 627 4294 
Q 627 4429 649 4451 
Q 672 4474 806 4474 
L 1286 4474 
Q 1338 4474 1360 4461 
Q 1382 4448 1402 4397 
L 3104 256 
L 4755 4403 
Q 4781 4474 4858 4474 
L 5344 4474 
Q 5478 4474 5500 4451 
Q 5523 4429 5523 4294 
L 5523 -186 
z
" transform="scale(0.015625)"/>
      </defs>
      <use xlink:href="#NanumGothic-54"/>
      <use xlink:href="#NanumGothic-72" transform="translate(44.874985 0)"/>
      <use xlink:href="#NanumGothic-61" transform="translate(81.174973 0)"/>
      <use xlink:href="#NanumGothic-69" transform="translate(135.674957 0)"/>
      <use xlink:href="#NanumGothic-6e" transform="translate(159.874954 0)"/>
      <use xlink:href="#NanumGothic-61" transform="translate(220.474945 0)"/>
      <use xlink:href="#NanumGothic-62" transform="translate(274.97493 0)"/>
      <use xlink:href="#NanumGothic-6c" transform="translate(335.574921 0)"/>
      <use xlink:href="#NanumGothic-65" transform="translate(359.774918 0)"/>
      <use xlink:href="#NanumGothic-20" transform="translate(414.274902 0)"/>
      <use xlink:href="#NanumGothic-70" transform="translate(442.274887 0)"/>
      <use xlink:href="#NanumGothic-61" transform="translate(502.874878 0)"/>
      <use xlink:href="#NanumGothic-72" transform="translate(557.374863 0)"/>
      <use xlink:href="#NanumGothic-61" transform="translate(593.67485 0)"/>
      <use xlink:href="#NanumGothic-6d" transform="translate(648.174835 0)"/>
      <use xlink:href="#NanumGothic-73" transform="translate(738.974823 0)"/>
      <use xlink:href="#NanumGothic-20" transform="translate(781.374817 0)"/>
      <use xlink:href="#NanumGothic-28" transform="translate(809.374802 0)"/>
      <use xlink:href="#NanumGothic-4d" transform="translate(845.674789 0)"/>
      <use xlink:href="#NanumGothic-2c" transform="translate(942.574783 0)"/>
      <use xlink:href="#NanumGothic-20" transform="translate(972.874771 0)"/>
      <use xlink:href="#NanumGothic-6c" transform="translate(1000.874756 0)"/>
      <use xlink:href="#NanumGothic-6f" transform="translate(1025.074753 0)"/>
      <use xlink:href="#NanumGothic-67" transform="translate(1085.674744 0)"/>
      <use xlink:href="#NanumGothic-20" transform="translate(1146.274734 0)"/>
      <use xlink:href="#NanumGothic-73" transform="translate(1174.274719 0)"/>
      <use xlink:href="#NanumGothic-63" transform="translate(1216.674713 0)"/>
      <use xlink:href="#NanumGothic-61" transform="translate(1265.074707 0)"/>
      <use xlink:href="#NanumGothic-6c" transform="translate(1319.574692 0)"/>
      <use xlink:href="#NanumGothic-65" transform="translate(1343.774689 0)"/>
      <use xlink:href="#NanumGothic-29" transform="translate(1398.274673 0)"/>
     </g>
    </g>
   </g>
   <g id="patch_19">
    <path d="M 485.252928 347.76 
L 485.252928 34.92 
" style="fill: none; stroke: #000000; stroke-width: 0.8; stroke-linejoin: miter; stroke-linecap: square"/>
   </g>
   <g id="patch_20">
    <path d="M 485.252928 347.76 
L 827.096406 347.76 
" style="fill: none; stroke: #000000; stroke-width: 0.8; stroke-linejoin: miter; stroke-linecap: square"/>
   </g>
   <g id="text_35">
    <!-- 7188M -->
    <g style="fill: #333333" transform="translate(497.936114 26.882212) scale(0.08 -0.08)">
     <use xlink:href="#NanumGothic-37"/>
     <use xlink:href="#NanumGothic-31" transform="translate(60.599991 0)"/>
     <use xlink:href="#NanumGothic-38" transform="translate(121.199982 0)"/>
     <use xlink:href="#NanumGothic-38" transform="translate(181.799973 0)"/>
     <use xlink:href="#NanumGothic-4d" transform="translate(242.399963 0)"/>
    </g>
   </g>
   <g id="text_36">
    <!-- 465M -->
    <g style="fill: #333333" transform="translate(553.940347 208.010787) scale(0.08 -0.08)">
     <use xlink:href="#NanumGothic-34"/>
     <use xlink:href="#NanumGothic-36" transform="translate(60.599991 0)"/>
     <use xlink:href="#NanumGothic-35" transform="translate(121.199982 0)"/>
     <use xlink:href="#NanumGothic-4d" transform="translate(181.799973 0)"/>
    </g>
   </g>
   <g id="text_37">
    <!-- 6760M -->
    <g style="fill: #333333" transform="translate(605.097079 30.943193) scale(0.08 -0.08)">
     <use xlink:href="#NanumGothic-36"/>
     <use xlink:href="#NanumGothic-37" transform="translate(60.599991 0)"/>
     <use xlink:href="#NanumGothic-36" transform="translate(121.199982 0)"/>
     <use xlink:href="#NanumGothic-30" transform="translate(181.799973 0)"/>
     <use xlink:href="#NanumGothic-4d" transform="translate(242.399963 0)"/>
    </g>
   </g>
   <g id="text_38">
    <!-- 914M -->
    <g style="fill: #333333" transform="translate(661.101312 163.306768) scale(0.08 -0.08)">
     <use xlink:href="#NanumGothic-39"/>
     <use xlink:href="#NanumGothic-31" transform="translate(60.599991 0)"/>
     <use xlink:href="#NanumGothic-34" transform="translate(121.199982 0)"/>
     <use xlink:href="#NanumGothic-4d" transform="translate(181.799973 0)"/>
    </g>
   </g>
   <g id="text_39">
    <!-- 98M -->
    <g style="fill: #333333" transform="translate(717.105544 311.282212) scale(0.08 -0.08)">
     <use xlink:href="#NanumGothic-39"/>
     <use xlink:href="#NanumGothic-38" transform="translate(60.599991 0)"/>
     <use xlink:href="#NanumGothic-4d" transform="translate(121.199982 0)"/>
    </g>
   </g>
   <g id="text_40">
    <!-- 195M -->
    <g style="fill: #333333" transform="translate(768.262277 265.430217) scale(0.08 -0.08)">
     <use xlink:href="#NanumGothic-31"/>
     <use xlink:href="#NanumGothic-39" transform="translate(60.599991 0)"/>
     <use xlink:href="#NanumGothic-35" transform="translate(121.199982 0)"/>
     <use xlink:href="#NanumGothic-4d" transform="translate(181.799973 0)"/>
    </g>
   </g>
   <g id="text_41">
    <!-- Compute Cost (params + memory) -->
    <g style="fill: #333333" transform="translate(567.86873 24.92) scale(0.11 -0.11)">
     <defs>
      <path id="NanumGothic-43" d="M 3834 186 
Q 3872 198 3904 188 
Q 3936 179 3936 141 
L 3949 -109 
Q 3955 -192 3859 -224 
Q 3648 -294 3424 -326 
Q 3200 -358 2861 -358 
Q 1747 -358 1088 320 
Q 762 653 605 1094 
Q 448 1536 448 2093 
Q 448 3187 1107 3866 
Q 1779 4544 2861 4544 
Q 3014 4544 3139 4537 
Q 3264 4531 3382 4518 
Q 3501 4506 3616 4486 
Q 3731 4467 3859 4435 
Q 3955 4416 3949 4314 
L 3936 4058 
Q 3923 3968 3840 4000 
Q 3590 4083 3366 4112 
Q 3142 4141 2861 4141 
Q 1958 4141 1421 3565 
Q 922 3008 922 2093 
Q 922 1632 1043 1261 
Q 1165 890 1414 614 
Q 1933 38 2861 45 
Q 3130 51 3395 83 
Q 3661 115 3834 186 
z
" transform="scale(0.015625)"/>
      <path id="NanumGothic-2b" d="M 3846 1971 
Q 3846 1882 3830 1869 
Q 3814 1856 3725 1856 
L 2342 1856 
L 2342 474 
Q 2342 390 2329 377 
Q 2317 365 2234 365 
L 1984 365 
Q 1901 365 1888 377 
Q 1875 390 1875 474 
L 1875 1856 
L 499 1856 
Q 410 1856 394 1869 
Q 378 1882 378 1971 
L 378 2202 
Q 378 2291 394 2304 
Q 410 2317 499 2317 
L 1875 2317 
L 1875 3686 
Q 1875 3776 1891 3789 
Q 1907 3802 1997 3802 
L 2221 3802 
Q 2310 3802 2326 3789 
Q 2342 3776 2342 3686 
L 2342 2317 
L 3725 2317 
Q 3814 2317 3830 2304 
Q 3846 2291 3846 2202 
L 3846 1971 
z
" transform="scale(0.015625)"/>
     </defs>
     <use xlink:href="#NanumGothic-43"/>
     <use xlink:href="#NanumGothic-6f" transform="translate(67.199997 0)"/>
     <use xlink:href="#NanumGothic-6d" transform="translate(127.799988 0)"/>
     <use xlink:href="#NanumGothic-70" transform="translate(218.599976 0)"/>
     <use xlink:href="#NanumGothic-75" transform="translate(279.199966 0)"/>
     <use xlink:href="#NanumGothic-74" transform="translate(339.799957 0)"/>
     <use xlink:href="#NanumGothic-65" transform="translate(376.099945 0)"/>
     <use xlink:href="#NanumGothic-20" transform="translate(430.59993 0)"/>
     <use xlink:href="#NanumGothic-43" transform="translate(458.599915 0)"/>
     <use xlink:href="#NanumGothic-6f" transform="translate(525.799911 0)"/>
     <use xlink:href="#NanumGothic-73" transform="translate(586.399902 0)"/>
     <use xlink:href="#NanumGothic-74" transform="translate(628.799896 0)"/>
     <use xlink:href="#NanumGothic-20" transform="translate(665.099884 0)"/>
     <use xlink:href="#NanumGothic-28" transform="translate(693.099869 0)"/>
     <use xlink:href="#NanumGothic-70" transform="translate(729.399857 0)"/>
     <use xlink:href="#NanumGothic-61" transform="translate(789.999847 0)"/>
     <use xlink:href="#NanumGothic-72" transform="translate(844.499832 0)"/>
     <use xlink:href="#NanumGothic-61" transform="translate(880.79982 0)"/>
     <use xlink:href="#NanumGothic-6d" transform="translate(935.299805 0)"/>
     <use xlink:href="#NanumGothic-73" transform="translate(1026.099792 0)"/>
     <use xlink:href="#NanumGothic-20" transform="translate(1068.499786 0)"/>
     <use xlink:href="#NanumGothic-2b" transform="translate(1096.499771 0)"/>
     <use xlink:href="#NanumGothic-20" transform="translate(1161.899765 0)"/>
     <use xlink:href="#NanumGothic-6d" transform="translate(1189.89975 0)"/>
     <use xlink:href="#NanumGothic-65" transform="translate(1280.699738 0)"/>
     <use xlink:href="#NanumGothic-6d" transform="translate(1335.199722 0)"/>
     <use xlink:href="#NanumGothic-6f" transform="translate(1425.99971 0)"/>
     <use xlink:href="#NanumGothic-72" transform="translate(1486.599701 0)"/>
     <use xlink:href="#NanumGothic-79" transform="translate(1522.899689 0)"/>
     <use xlink:href="#NanumGothic-29" transform="translate(1569.299683 0)"/>
    </g>
   </g>
  </g>
  <g id="axes_3">
   <g id="patch_21">
    <path d="M 522.223461 347.76 
L 543.655654 347.76 
L 543.655654 49.817143 
L 522.223461 49.817143 
z
" clip-path="url(#pf379acd9d9)" style="fill: #a8a3d4; opacity: 0.7; stroke: #5b56b5; stroke-width: 1.5; stroke-linejoin: miter"/>
   </g>
   <g id="patch_22">
    <path d="M 575.803943 347.76 
L 597.236136 347.76 
L 597.236136 254.538615 
L 575.803943 254.538615 
z
" clip-path="url(#pf379acd9d9)" style="fill: #a8a3d4; opacity: 0.7; stroke: #5b56b5; stroke-width: 1.5; stroke-linejoin: miter"/>
   </g>
   <g id="patch_23">
    <path d="M 629.384426 347.76 
L 650.816619 347.76 
L 650.816619 62.612235 
L 629.384426 62.612235 
z
" clip-path="url(#pf379acd9d9)" style="fill: #a8a3d4; opacity: 0.7; stroke: #5b56b5; stroke-width: 1.5; stroke-linejoin: miter"/>
   </g>
   <g id="patch_24">
    <path d="M 682.964908 347.76 
L 704.397101 347.76 
L 704.397101 230.776301 
L 682.964908 230.776301 
z
" clip-path="url(#pf379acd9d9)" style="fill: #a8a3d4; opacity: 0.7; stroke: #5b56b5; stroke-width: 1.5; stroke-linejoin: miter"/>
   </g>
   <g id="patch_25">
    <path d="M 736.545391 347.76 
L 757.977584 347.76 
L 757.977584 238.087783 
L 736.545391 238.087783 
z
" clip-path="url(#pf379acd9d9)" style="fill: #a8a3d4; opacity: 0.7; stroke: #5b56b5; stroke-width: 1.5; stroke-linejoin: miter"/>
   </g>
   <g id="patch_26">
    <path d="M 790.125873 347.76 
L 811.558066 347.76 
L 811.558066 238.087783 
L 790.125873 238.087783 
z
" clip-path="url(#pf379acd9d9)" style="fill: #a8a3d4; opacity: 0.7; stroke: #5b56b5; stroke-width: 1.5; stroke-linejoin: miter"/>
   </g>
   <g id="matplotlib.axis_5">
    <g id="ytick_29">
     <g id="line2d_42">
      <defs>
       <path id="m451dcd8038" d="M 0 0 
L 3.5 0 
" style="stroke: #000000; stroke-width: 0.8"/>
      </defs>
      <g>
       <use xlink:href="#m451dcd8038" x="827.096406" y="347.76" style="stroke: #000000; stroke-width: 0.8"/>
      </g>
     </g>
     <g id="text_42">
      <!-- 0 -->
      <g transform="translate(834.096406 351.520156) scale(0.1 -0.1)">
       <use xlink:href="#NanumGothic-30"/>
      </g>
     </g>
    </g>
    <g id="ytick_30">
     <g id="line2d_43">
      <g>
       <use xlink:href="#m451dcd8038" x="827.096406" y="311.202594" style="stroke: #000000; stroke-width: 0.8"/>
      </g>
     </g>
     <g id="text_43">
      <!-- 20 -->
      <g transform="translate(834.096406 314.96275) scale(0.1 -0.1)">
       <use xlink:href="#NanumGothic-32"/>
       <use xlink:href="#NanumGothic-30" transform="translate(60.599991 0)"/>
      </g>
     </g>
    </g>
    <g id="ytick_31">
     <g id="line2d_44">
      <g>
       <use xlink:href="#m451dcd8038" x="827.096406" y="274.645188" style="stroke: #000000; stroke-width: 0.8"/>
      </g>
     </g>
     <g id="text_44">
      <!-- 40 -->
      <g transform="translate(834.096406 278.405345) scale(0.1 -0.1)">
       <use xlink:href="#NanumGothic-34"/>
       <use xlink:href="#NanumGothic-30" transform="translate(60.599991 0)"/>
      </g>
     </g>
    </g>
    <g id="ytick_32">
     <g id="line2d_45">
      <g>
       <use xlink:href="#m451dcd8038" x="827.096406" y="238.087783" style="stroke: #000000; stroke-width: 0.8"/>
      </g>
     </g>
     <g id="text_45">
      <!-- 60 -->
      <g transform="translate(834.096406 241.847939) scale(0.1 -0.1)">
       <use xlink:href="#NanumGothic-36"/>
       <use xlink:href="#NanumGothic-30" transform="translate(60.599991 0)"/>
      </g>
     </g>
    </g>
    <g id="ytick_33">
     <g id="line2d_46">
      <g>
       <use xlink:href="#m451dcd8038" x="827.096406" y="201.530377" style="stroke: #000000; stroke-width: 0.8"/>
      </g>
     </g>
     <g id="text_46">
      <!-- 80 -->
      <g transform="translate(834.096406 205.290533) scale(0.1 -0.1)">
       <use xlink:href="#NanumGothic-38"/>
       <use xlink:href="#NanumGothic-30" transform="translate(60.599991 0)"/>
      </g>
     </g>
    </g>
    <g id="ytick_34">
     <g id="line2d_47">
      <g>
       <use xlink:href="#m451dcd8038" x="827.096406" y="164.972971" style="stroke: #000000; stroke-width: 0.8"/>
      </g>
     </g>
     <g id="text_47">
      <!-- 100 -->
      <g transform="translate(834.096406 168.733127) scale(0.1 -0.1)">
       <use xlink:href="#NanumGothic-31"/>
       <use xlink:href="#NanumGothic-30" transform="translate(60.599991 0)"/>
       <use xlink:href="#NanumGothic-30" transform="translate(121.199982 0)"/>
      </g>
     </g>
    </g>
    <g id="ytick_35">
     <g id="line2d_48">
      <g>
       <use xlink:href="#m451dcd8038" x="827.096406" y="128.415565" style="stroke: #000000; stroke-width: 0.8"/>
      </g>
     </g>
     <g id="text_48">
      <!-- 120 -->
      <g transform="translate(834.096406 132.175722) scale(0.1 -0.1)">
       <use xlink:href="#NanumGothic-31"/>
       <use xlink:href="#NanumGothic-32" transform="translate(60.599991 0)"/>
       <use xlink:href="#NanumGothic-30" transform="translate(121.199982 0)"/>
      </g>
     </g>
    </g>
    <g id="ytick_36">
     <g id="line2d_49">
      <g>
       <use xlink:href="#m451dcd8038" x="827.096406" y="91.85816" style="stroke: #000000; stroke-width: 0.8"/>
      </g>
     </g>
     <g id="text_49">
      <!-- 140 -->
      <g transform="translate(834.096406 95.618316) scale(0.1 -0.1)">
       <use xlink:href="#NanumGothic-31"/>
       <use xlink:href="#NanumGothic-34" transform="translate(60.599991 0)"/>
       <use xlink:href="#NanumGothic-30" transform="translate(121.199982 0)"/>
      </g>
     </g>
    </g>
    <g id="ytick_37">
     <g id="line2d_50">
      <g>
       <use xlink:href="#m451dcd8038" x="827.096406" y="55.300754" style="stroke: #000000; stroke-width: 0.8"/>
      </g>
     </g>
     <g id="text_50">
      <!-- 160 -->
      <g transform="translate(834.096406 59.06091) scale(0.1 -0.1)">
       <use xlink:href="#NanumGothic-31"/>
       <use xlink:href="#NanumGothic-36" transform="translate(60.599991 0)"/>
       <use xlink:href="#NanumGothic-30" transform="translate(121.199982 0)"/>
      </g>
     </g>
    </g>
    <g id="text_51">
     <!-- VRAM (GB) -->
     <g style="fill: #5b56b5" transform="translate(863.894844 218.304844) rotate(-90) scale(0.1 -0.1)">
      <defs>
       <path id="NanumGothic-56" d="M 3706 4371 
Q 3718 4410 3750 4435 
Q 3782 4461 3821 4461 
L 4109 4461 
Q 4147 4461 4166 4432 
Q 4186 4403 4173 4371 
L 2426 -192 
Q 2406 -243 2384 -259 
Q 2362 -275 2310 -275 
L 1958 -275 
Q 1907 -275 1884 -259 
Q 1862 -243 1843 -192 
L 134 4371 
Q 122 4403 141 4432 
Q 160 4461 198 4461 
L 518 4461 
Q 595 4461 634 4371 
L 2138 192 
Q 2522 1222 2912 2262 
Q 3302 3302 3706 4371 
z
" transform="scale(0.015625)"/>
       <path id="NanumGothic-47" d="M 4250 2285 
Q 4384 2285 4406 2262 
Q 4429 2240 4429 2106 
L 4429 77 
Q 4429 6 4387 -45 
Q 4346 -96 4294 -122 
Q 3987 -237 3651 -297 
Q 3315 -358 2950 -358 
Q 2419 -358 1968 -195 
Q 1517 -32 1190 278 
Q 864 589 681 1046 
Q 499 1504 499 2093 
Q 499 2630 668 3078 
Q 838 3526 1155 3852 
Q 1472 4179 1926 4361 
Q 2381 4544 2950 4544 
Q 3309 4544 3574 4512 
Q 3840 4480 4141 4384 
Q 4237 4358 4218 4256 
L 4186 4019 
Q 4179 3936 4090 3962 
Q 3802 4070 3539 4105 
Q 3277 4141 2950 4141 
Q 2496 4141 2128 3990 
Q 1760 3840 1501 3571 
Q 1242 3302 1104 2924 
Q 966 2547 966 2093 
Q 966 1600 1113 1216 
Q 1261 832 1526 573 
Q 1792 314 2153 179 
Q 2515 45 2950 45 
Q 3661 45 3962 218 
L 3962 1882 
L 2675 1882 
Q 2586 1882 2586 1971 
L 2586 2195 
Q 2586 2285 2675 2285 
L 4250 2285 
z
" transform="scale(0.015625)"/>
       <path id="NanumGothic-42" d="M 2784 3277 
Q 2784 4064 1741 4064 
L 1088 4064 
L 1088 2394 
L 1619 2394 
Q 2202 2394 2493 2624 
Q 2784 2854 2784 3277 
z
M 2931 1050 
Q 2931 1523 2585 1753 
Q 2240 1984 1491 1984 
L 1075 1984 
L 1075 128 
L 1568 128 
Q 2931 128 2931 1050 
z
M 3405 1075 
Q 3405 -275 1555 -275 
L 781 -275 
Q 646 -275 624 -252 
Q 602 -230 602 -96 
L 602 4282 
Q 602 4416 624 4438 
Q 646 4461 781 4461 
L 1741 4461 
Q 3258 4461 3258 3296 
Q 3258 2406 2413 2214 
Q 2899 2074 3152 1789 
Q 3405 1504 3405 1075 
z
" transform="scale(0.015625)"/>
      </defs>
      <use xlink:href="#NanumGothic-56"/>
      <use xlink:href="#NanumGothic-52" transform="translate(66.599991 0)"/>
      <use xlink:href="#NanumGothic-41" transform="translate(128.799988 0)"/>
      <use xlink:href="#NanumGothic-4d" transform="translate(201.499969 0)"/>
      <use xlink:href="#NanumGothic-20" transform="translate(298.399963 0)"/>
      <use xlink:href="#NanumGothic-28" transform="translate(326.399948 0)"/>
      <use xlink:href="#NanumGothic-47" transform="translate(362.699936 0)"/>
      <use xlink:href="#NanumGothic-42" transform="translate(442.399918 0)"/>
      <use xlink:href="#NanumGothic-29" transform="translate(502.999908 0)"/>
     </g>
    </g>
   </g>
   <g id="patch_27">
    <path d="M 827.096406 347.76 
L 827.096406 34.92 
" style="fill: none; stroke: #000000; stroke-width: 0.8; stroke-linejoin: miter; stroke-linecap: square"/>
   </g>
   <g id="patch_28">
    <path d="M 485.252928 347.76 
L 827.096406 347.76 
" style="fill: none; stroke: #000000; stroke-width: 0.8; stroke-linejoin: miter; stroke-linecap: square"/>
   </g>
   <g id="text_52">
    <!-- 163GB -->
    <g style="fill: #5b56b5" transform="translate(520.056432 42.505662) scale(0.08 -0.08)">
     <use xlink:href="#NanumGothic-31"/>
     <use xlink:href="#NanumGothic-36" transform="translate(60.599991 0)"/>
     <use xlink:href="#NanumGothic-33" transform="translate(121.199982 0)"/>
     <use xlink:href="#NanumGothic-47" transform="translate(181.799973 0)"/>
     <use xlink:href="#NanumGothic-42" transform="translate(261.499954 0)"/>
    </g>
   </g>
   <g id="text_53">
    <!-- 51GB -->
    <g style="fill: #5b56b5" transform="translate(576.060665 247.227134) scale(0.08 -0.08)">
     <use xlink:href="#NanumGothic-35"/>
     <use xlink:href="#NanumGothic-31" transform="translate(60.599991 0)"/>
     <use xlink:href="#NanumGothic-47" transform="translate(121.199982 0)"/>
     <use xlink:href="#NanumGothic-42" transform="translate(200.899963 0)"/>
    </g>
   </g>
   <g id="text_54">
    <!-- 156GB -->
    <g style="fill: #5b56b5" transform="translate(627.217397 55.300754) scale(0.08 -0.08)">
     <use xlink:href="#NanumGothic-31"/>
     <use xlink:href="#NanumGothic-35" transform="translate(60.599991 0)"/>
     <use xlink:href="#NanumGothic-36" transform="translate(121.199982 0)"/>
     <use xlink:href="#NanumGothic-47" transform="translate(181.799973 0)"/>
     <use xlink:href="#NanumGothic-42" transform="translate(261.499954 0)"/>
    </g>
   </g>
   <g id="text_55">
    <!-- 64GB -->
    <g style="fill: #5b56b5" transform="translate(683.22163 223.46482) scale(0.08 -0.08)">
     <use xlink:href="#NanumGothic-36"/>
     <use xlink:href="#NanumGothic-34" transform="translate(60.599991 0)"/>
     <use xlink:href="#NanumGothic-47" transform="translate(121.199982 0)"/>
     <use xlink:href="#NanumGothic-42" transform="translate(200.899963 0)"/>
    </g>
   </g>
   <g id="text_56">
    <!-- 60GB -->
    <g style="fill: #5b56b5" transform="translate(736.802112 230.776301) scale(0.08 -0.08)">
     <use xlink:href="#NanumGothic-36"/>
     <use xlink:href="#NanumGothic-30" transform="translate(60.599991 0)"/>
     <use xlink:href="#NanumGothic-47" transform="translate(121.199982 0)"/>
     <use xlink:href="#NanumGothic-42" transform="translate(200.899963 0)"/>
    </g>
   </g>
   <g id="text_57">
    <!-- 60GB -->
    <g style="fill: #5b56b5" transform="translate(790.382595 230.776301) scale(0.08 -0.08)">
     <use xlink:href="#NanumGothic-36"/>
     <use xlink:href="#NanumGothic-30" transform="translate(60.599991 0)"/>
     <use xlink:href="#NanumGothic-47" transform="translate(121.199982 0)"/>
     <use xlink:href="#NanumGothic-42" transform="translate(200.899963 0)"/>
    </g>
   </g>
  </g>
  <g id="text_58">
   <!-- OpenVLA Fine-tuning Strategies: Performance vs Cost -->
   <g transform="translate(260.460625 17.951562) scale(0.14 -0.14)">
    <defs>
     <path id="NanumGothic-4f" d="M 4160 2093 
Q 4160 2496 4057 2854 
Q 3955 3213 3770 3501 
Q 3546 3814 3235 3984 
Q 2925 4154 2534 4154 
Q 2138 4154 1827 3984 
Q 1517 3814 1293 3501 
Q 1107 3213 1004 2854 
Q 902 2496 902 2093 
Q 902 1690 1004 1328 
Q 1107 966 1293 678 
Q 1523 371 1836 198 
Q 2150 26 2534 26 
Q 2925 26 3235 195 
Q 3546 365 3770 678 
Q 3955 966 4057 1328 
Q 4160 1690 4160 2093 
z
M 4627 2093 
Q 4614 954 4102 314 
Q 3546 -378 2534 -378 
Q 1523 -378 960 314 
Q 435 973 435 2093 
Q 435 2624 563 3053 
Q 691 3482 934 3814 
Q 1222 4166 1628 4361 
Q 2035 4557 2534 4557 
Q 3040 4557 3440 4365 
Q 3840 4173 4128 3808 
Q 4378 3462 4506 3036 
Q 4634 2611 4627 2093 
z
" transform="scale(0.015625)"/>
     <path id="NanumGothic-3a" d="M 646 3526 
Q 646 3674 755 3782 
Q 864 3891 1011 3891 
Q 1158 3891 1267 3782 
Q 1376 3674 1376 3526 
Q 1376 3379 1267 3270 
Q 1158 3162 1011 3162 
Q 864 3162 755 3270 
Q 646 3379 646 3526 
z
M 646 640 
Q 646 787 755 896 
Q 864 1005 1011 1005 
Q 1158 1005 1267 896 
Q 1376 787 1376 640 
Q 1376 493 1267 384 
Q 1158 275 1011 275 
Q 864 275 755 384 
Q 646 493 646 640 
z
" transform="scale(0.015625)"/>
    </defs>
    <use xlink:href="#NanumGothic-4f"/>
    <use xlink:href="#NanumGothic-70" transform="translate(78.699982 0)"/>
    <use xlink:href="#NanumGothic-65" transform="translate(139.299973 0)"/>
    <use xlink:href="#NanumGothic-6e" transform="translate(193.799957 0)"/>
    <use xlink:href="#NanumGothic-56" transform="translate(254.399948 0)"/>
    <use xlink:href="#NanumGothic-4c" transform="translate(320.999939 0)"/>
    <use xlink:href="#NanumGothic-41" transform="translate(369.399933 0)"/>
    <use xlink:href="#NanumGothic-20" transform="translate(442.099915 0)"/>
    <use xlink:href="#NanumGothic-46" transform="translate(470.099899 0)"/>
    <use xlink:href="#NanumGothic-69" transform="translate(520.399887 0)"/>
    <use xlink:href="#NanumGothic-6e" transform="translate(544.599884 0)"/>
    <use xlink:href="#NanumGothic-65" transform="translate(605.199875 0)"/>
    <use xlink:href="#NanumGothic-2d" transform="translate(659.69986 0)"/>
    <use xlink:href="#NanumGothic-74" transform="translate(695.999847 0)"/>
    <use xlink:href="#NanumGothic-75" transform="translate(732.299835 0)"/>
    <use xlink:href="#NanumGothic-6e" transform="translate(792.899826 0)"/>
    <use xlink:href="#NanumGothic-69" transform="translate(853.499817 0)"/>
    <use xlink:href="#NanumGothic-6e" transform="translate(877.699814 0)"/>
    <use xlink:href="#NanumGothic-67" transform="translate(938.299805 0)"/>
    <use xlink:href="#NanumGothic-20" transform="translate(998.899796 0)"/>
    <use xlink:href="#NanumGothic-53" transform="translate(1026.89978 0)"/>
    <use xlink:href="#NanumGothic-74" transform="translate(1081.399765 0)"/>
    <use xlink:href="#NanumGothic-72" transform="translate(1117.699753 0)"/>
    <use xlink:href="#NanumGothic-61" transform="translate(1153.999741 0)"/>
    <use xlink:href="#NanumGothic-74" transform="translate(1208.499725 0)"/>
    <use xlink:href="#NanumGothic-65" transform="translate(1244.799713 0)"/>
    <use xlink:href="#NanumGothic-67" transform="translate(1299.299698 0)"/>
    <use xlink:href="#NanumGothic-69" transform="translate(1359.899689 0)"/>
    <use xlink:href="#NanumGothic-65" transform="translate(1384.099686 0)"/>
    <use xlink:href="#NanumGothic-73" transform="translate(1438.59967 0)"/>
    <use xlink:href="#NanumGothic-3a" transform="translate(1480.999664 0)"/>
    <use xlink:href="#NanumGothic-20" transform="translate(1511.299652 0)"/>
    <use xlink:href="#NanumGothic-50" transform="translate(1539.299637 0)"/>
    <use xlink:href="#NanumGothic-65" transform="translate(1592.749634 0)"/>
    <use xlink:href="#NanumGothic-72" transform="translate(1647.249619 0)"/>
    <use xlink:href="#NanumGothic-66" transform="translate(1683.549606 0)"/>
    <use xlink:href="#NanumGothic-6f" transform="translate(1719.849594 0)"/>
    <use xlink:href="#NanumGothic-72" transform="translate(1780.449585 0)"/>
    <use xlink:href="#NanumGothic-6d" transform="translate(1816.749573 0)"/>
    <use xlink:href="#NanumGothic-61" transform="translate(1907.549561 0)"/>
    <use xlink:href="#NanumGothic-6e" transform="translate(1962.049545 0)"/>
    <use xlink:href="#NanumGothic-63" transform="translate(2022.649536 0)"/>
    <use xlink:href="#NanumGothic-65" transform="translate(2071.04953 0)"/>
    <use xlink:href="#NanumGothic-20" transform="translate(2125.549515 0)"/>
    <use xlink:href="#NanumGothic-76" transform="translate(2153.5495 0)"/>
    <use xlink:href="#NanumGothic-73" transform="translate(2201.949493 0)"/>
    <use xlink:href="#NanumGothic-20" transform="translate(2244.349487 0)"/>
    <use xlink:href="#NanumGothic-43" transform="translate(2272.349472 0)"/>
    <use xlink:href="#NanumGothic-6f" transform="translate(2339.549469 0)"/>
    <use xlink:href="#NanumGothic-73" transform="translate(2400.14946 0)"/>
    <use xlink:href="#NanumGothic-74" transform="translate(2442.549454 0)"/>
   </g>
  </g>
 </g>
 <defs>
  <clipPath id="p6d80ab0af6">
   <rect x="40.856406" y="34.92" width="341.843478" height="312.84"/>
  </clipPath>
  <clipPath id="pf379acd9d9">
   <rect x="485.252928" y="34.92" width="341.843478" height="312.84"/>
  </clipPath>
 </defs>
</svg>
