<?xml version="1.0" encoding="utf-8" standalone="no"?>
<!DOCTYPE svg PUBLIC "-//W3C//DTD SVG 1.1//EN"
  "http://www.w3.org/Graphics/SVG/1.1/DTD/svg11.dtd">
<svg xmlns:xlink="http://www.w3.org/1999/xlink" width="917.498347pt" height="386.64pt" viewBox="0 0 917.498347 386.64" xmlns="http://www.w3.org/2000/svg" version="1.1">
 <metadata>
  <rdf:RDF xmlns:dc="http://purl.org/dc/elements/1.1/" xmlns:cc="http://creativecommons.org/ns#" xmlns:rdf="http://www.w3.org/1999/02/22-rdf-syntax-ns#">
   <cc:Work>
    <dc:type rdf:resource="http://purl.org/dc/dcmitype/StillImage"/>
    <dc:date>2026-05-29T09:52:43.587650</dc:date>
    <dc:format>image/svg+xml</dc:format>
    <dc:creator>
     <cc:Agent>
      <dc:title>Matplotlib v3.10.9, https://matplotlib.org/</dc:title>
     </cc:Agent>
    </dc:creator>
   </cc:Work>
  </rdf:RDF>
 </metadata>
 <defs>
  <style type="text/css">*{stroke-linejoin: round; stroke-linecap: butt}</style>
 </defs>
 <g id="figure_1">
  <g id="patch_1">
   <path d="M 0 386.64 
L 917.498347 386.64 
L 917.498347 -0 
L 0 -0 
z
" style="fill: #ffffff"/>
  </g>
  <g id="axes_1">
   <g id="patch_2">
    <path d="M 165.556723 69.896747 
C 162.37655 71.054235 159.241148 72.331216 156.1572 73.724968 
C 153.073251 75.11872 150.042948 76.628252 147.072749 78.250348 
L 211.606315 196.416961 
z
" style="fill: #c8694f; stroke: #ffffff; stroke-width: 2; stroke-linejoin: miter"/>
   </g>
   <g id="patch_3">
    <path d="M 153.726648 92.973386 
C 131.936063 104.873741 113.856038 122.572818 101.49442 144.105086 
C 89.132802 165.637354 82.964778 190.175128 83.675358 214.993332 
C 84.385931 239.811539 91.947783 263.956168 105.521121 284.74589 
C 119.094459 305.535613 138.157527 322.171252 160.593304 332.805356 
L 218.260209 211.14 
z
" style="fill: #a8a3d4; stroke: #ffffff; stroke-width: 2; stroke-linejoin: miter"/>
   </g>
   <g id="patch_4">
    <path d="M 160.593304 332.805356 
C 179.792427 341.905352 200.87571 346.332918 222.113564 345.724851 
C 243.351419 345.116784 264.146772 339.490185 282.793782 329.306614 
C 301.440793 319.123044 317.415173 304.668815 329.406542 287.129623 
C 341.397911 269.59043 349.069122 249.459349 351.790882 228.387844 
L 218.260209 211.14 
z
" style="fill: #d8eee0; stroke: #ffffff; stroke-width: 2; stroke-linejoin: miter"/>
   </g>
   <g id="patch_5">
    <path d="M 351.790882 228.387844 
C 354.512642 207.316334 352.208424 185.896764 345.067259 165.886258 
C 337.926094 145.875751 326.148741 127.836872 310.701333 113.249409 
L 218.260209 211.14 
z
" style="fill: #f5d4a0; stroke: #ffffff; stroke-width: 2; stroke-linejoin: miter"/>
   </g>
   <g id="patch_6">
    <path d="M 310.701333 113.249409 
C 292.545318 96.104124 269.97237 84.343375 245.517436 79.287912 
C 221.0625 74.23244 195.676602 76.078855 172.210584 84.619794 
L 218.260209 211.14 
z
" style="fill: #e8c5c5; stroke: #ffffff; stroke-width: 2; stroke-linejoin: miter"/>
   </g>
   <g id="matplotlib.axis_1"/>
   <g id="matplotlib.axis_2"/>
   <g id="text_1">
    <!-- MM (Mobile Manipulator) -->
    <g transform="translate(41.470409 59.145583) scale(0.09 -0.09)">
     <defs>
      <path id="NanumGothic-4d" d="M 5523 -186 
Q 5523 -275 5434 -275 
L 5146 -275 
Q 5056 -275 5056 -186 
L 5056 4058 
Q 4582 2880 4205 1952 
Q 4045 1555 3891 1174 
Q 3738 794 3616 496 
Q 3494 198 3417 12 
Q 3341 -173 3341 -179 
Q 3309 -243 3245 -243 
L 2957 -243 
Q 2912 -243 2893 -227 
Q 2874 -211 2861 -179 
L 1094 4058 
L 1094 -186 
Q 1094 -275 1005 -275 
L 717 -275 
Q 627 -275 627 -186 
L 627 4294 
Q 627 4429 649 4451 
Q 672 4474 806 4474 
L 1286 4474 
Q 1338 4474 1360 4461 
Q 1382 4448 1402 4397 
L 3104 256 
L 4755 4403 
Q 4781 4474 4858 4474 
L 5344 4474 
Q 5478 4474 5500 4451 
Q 5523 4429 5523 4294 
L 5523 -186 
z
" transform="scale(0.015625)"/>
      <path id="NanumGothic-20" transform="scale(0.015625)"/>
      <path id="NanumGothic-28" d="M 1984 -1133 
Q 1939 -1133 1929 -1129 
Q 1920 -1126 1894 -1094 
Q 1312 -365 1030 384 
Q 749 1133 749 1933 
Q 749 2726 1030 3475 
Q 1312 4224 1894 4960 
Q 1920 4992 1929 4995 
Q 1939 4998 1971 4998 
L 2150 4998 
Q 2189 4998 2189 4992 
Q 2189 4986 2170 4954 
Q 1165 3379 1165 1933 
Q 1165 1197 1421 448 
Q 1677 -301 2176 -1088 
Q 2208 -1133 2144 -1133 
L 1984 -1133 
z
" transform="scale(0.015625)"/>
      <path id="NanumGothic-6f" d="M 3130 1453 
Q 3130 1754 3050 2016 
Q 2970 2278 2829 2483 
Q 2496 2893 1965 2893 
Q 1696 2893 1481 2787 
Q 1267 2682 1101 2483 
Q 954 2278 874 2016 
Q 794 1754 794 1453 
Q 794 1146 874 883 
Q 954 621 1101 422 
Q 1440 6 1965 6 
Q 2234 6 2448 115 
Q 2662 224 2829 422 
Q 2970 621 3050 883 
Q 3130 1146 3130 1453 
z
M 3603 1453 
Q 3603 1075 3494 752 
Q 3386 429 3206 186 
Q 2982 -83 2672 -230 
Q 2362 -378 1965 -378 
Q 1568 -378 1254 -230 
Q 941 -83 717 186 
Q 538 429 432 752 
Q 326 1075 326 1453 
Q 326 2227 717 2720 
Q 1165 3277 1965 3277 
Q 2368 3277 2675 3139 
Q 2982 3002 3206 2720 
Q 3603 2214 3603 1453 
z
" transform="scale(0.015625)"/>
      <path id="NanumGothic-62" d="M 3066 1478 
Q 3072 1747 3017 2003 
Q 2963 2259 2841 2464 
Q 2720 2669 2518 2793 
Q 2317 2918 2022 2918 
Q 1760 2918 1565 2806 
Q 1370 2694 1242 2496 
Q 1114 2298 1050 2035 
Q 986 1773 986 1478 
Q 986 1190 1066 924 
Q 1146 659 1283 460 
Q 1421 262 1609 144 
Q 1798 26 2022 26 
Q 2317 26 2518 150 
Q 2720 275 2841 480 
Q 2963 685 3017 947 
Q 3072 1210 3066 1478 
z
M 557 4749 
Q 557 4838 646 4838 
L 896 4838 
Q 986 4838 986 4749 
L 986 2707 
Q 1146 2970 1440 3126 
Q 1734 3283 2099 3283 
Q 3526 3283 3526 1478 
Q 3533 1120 3453 790 
Q 3373 461 3193 211 
Q 3014 -38 2742 -188 
Q 2470 -339 2099 -339 
Q 1331 -339 986 314 
L 986 -186 
Q 986 -275 896 -275 
L 646 -275 
Q 557 -275 557 -186 
L 557 4749 
z
" transform="scale(0.015625)"/>
      <path id="NanumGothic-69" d="M 1050 -186 
Q 1050 -275 960 -275 
L 678 -275 
Q 589 -275 589 -186 
L 589 3098 
Q 589 3187 678 3187 
L 960 3187 
Q 1050 3187 1050 3098 
L 1050 -186 
z
M 506 4397 
Q 506 4525 595 4617 
Q 685 4710 813 4710 
Q 941 4710 1033 4617 
Q 1126 4525 1126 4397 
Q 1126 4269 1033 4179 
Q 941 4090 813 4090 
Q 685 4090 595 4179 
Q 506 4269 506 4397 
z
" transform="scale(0.015625)"/>
      <path id="NanumGothic-6c" d="M 1056 -186 
Q 1056 -275 966 -275 
L 685 -275 
Q 595 -275 595 -186 
L 595 4723 
Q 595 4813 685 4813 
L 966 4813 
Q 1056 4813 1056 4723 
L 1056 -186 
z
" transform="scale(0.015625)"/>
      <path id="NanumGothic-65" d="M 2733 1696 
Q 2733 1958 2681 2163 
Q 2630 2368 2522 2534 
Q 2285 2912 1837 2912 
Q 1376 2912 1088 2528 
Q 973 2355 896 2131 
Q 819 1907 813 1696 
L 2733 1696 
z
M 813 1331 
Q 806 1011 886 764 
Q 966 518 1120 352 
Q 1274 186 1488 96 
Q 1702 6 1965 6 
Q 2221 6 2445 54 
Q 2669 102 2861 211 
Q 2944 250 2944 166 
L 2944 -122 
Q 2944 -179 2874 -211 
Q 2662 -294 2432 -336 
Q 2202 -378 1933 -378 
Q 1146 -378 742 80 
Q 339 538 339 1459 
Q 339 2272 742 2771 
Q 1165 3277 1811 3277 
Q 2170 3277 2432 3149 
Q 2694 3021 2880 2765 
Q 3206 2310 3206 1549 
Q 3206 1466 3203 1421 
Q 3200 1376 3181 1357 
Q 3162 1338 3114 1334 
Q 3066 1331 2976 1331 
L 813 1331 
z
" transform="scale(0.015625)"/>
      <path id="NanumGothic-61" d="M 2566 1530 
L 2445 1530 
Q 2086 1542 1808 1500 
Q 1530 1459 1344 1389 
Q 1075 1293 940 1104 
Q 806 915 806 653 
Q 806 493 857 355 
Q 909 218 1018 141 
Q 1210 -13 1530 -13 
Q 1754 -13 1942 76 
Q 2131 166 2272 332 
Q 2413 499 2489 745 
Q 2566 992 2566 1312 
L 2566 1530 
z
M 742 2650 
Q 710 2630 681 2640 
Q 653 2650 653 2682 
L 653 2925 
Q 653 3014 742 3059 
Q 966 3181 1219 3229 
Q 1472 3277 1773 3277 
Q 2413 3277 2707 2973 
Q 3002 2669 3002 2054 
L 3002 448 
Q 3002 256 3008 105 
Q 3014 -45 3027 -186 
Q 3027 -275 2938 -275 
L 2707 -275 
Q 2618 -275 2618 -186 
L 2618 307 
Q 2483 -19 2166 -198 
Q 1850 -378 1478 -378 
Q 832 -378 531 0 
Q 429 128 377 297 
Q 326 467 326 634 
Q 326 1024 508 1305 
Q 691 1587 1069 1728 
Q 1530 1894 2483 1894 
L 2566 1894 
L 2566 2086 
Q 2566 2490 2384 2701 
Q 2202 2912 1773 2912 
Q 1485 2912 1229 2851 
Q 973 2790 742 2650 
z
" transform="scale(0.015625)"/>
      <path id="NanumGothic-6e" d="M 3334 -186 
Q 3334 -275 3245 -275 
L 2989 -275 
Q 2899 -275 2899 -186 
L 2899 1830 
Q 2899 2419 2688 2665 
Q 2477 2912 2093 2912 
Q 1574 2912 1302 2624 
Q 1030 2336 1030 1818 
L 1030 -186 
Q 1030 -275 941 -275 
L 685 -275 
Q 595 -275 595 -186 
L 595 2374 
Q 595 2650 592 2803 
Q 589 2957 576 3098 
Q 570 3142 598 3164 
Q 627 3187 666 3187 
L 896 3187 
Q 986 3187 986 3098 
L 986 2746 
Q 1165 3021 1417 3149 
Q 1670 3277 2112 3277 
Q 2720 3277 3027 2925 
Q 3334 2573 3334 1933 
L 3334 -186 
z
" transform="scale(0.015625)"/>
      <path id="NanumGothic-70" d="M 2989 1504 
Q 2989 1766 2937 2012 
Q 2886 2259 2764 2451 
Q 2643 2643 2451 2761 
Q 2259 2880 1971 2880 
Q 1709 2880 1517 2771 
Q 1325 2662 1200 2473 
Q 1075 2285 1011 2035 
Q 947 1786 947 1504 
Q 947 762 1225 381 
Q 1504 0 1971 0 
Q 2214 0 2403 105 
Q 2592 211 2723 409 
Q 2854 608 2921 883 
Q 2989 1158 2989 1504 
z
M 518 3098 
Q 518 3187 608 3187 
L 851 3187 
Q 941 3187 941 3098 
L 909 2618 
Q 1037 2899 1341 3072 
Q 1645 3245 2048 3245 
Q 2426 3245 2691 3110 
Q 2957 2976 3126 2742 
Q 3296 2509 3376 2189 
Q 3456 1869 3456 1504 
Q 3456 1107 3363 768 
Q 3270 429 3094 179 
Q 2918 -70 2656 -214 
Q 2394 -358 2048 -358 
Q 1658 -358 1376 -208 
Q 1094 -58 947 211 
L 947 -1165 
Q 947 -1254 858 -1254 
L 614 -1254 
Q 576 -1254 547 -1228 
Q 518 -1203 518 -1165 
L 518 3098 
z
" transform="scale(0.015625)"/>
      <path id="NanumGothic-75" d="M 3347 -186 
Q 3347 -275 3258 -275 
L 3027 -275 
Q 2938 -275 2938 -186 
L 2938 346 
Q 2771 -38 2492 -208 
Q 2214 -378 1792 -378 
Q 595 -378 595 960 
L 595 3098 
Q 595 3187 685 3187 
L 941 3187 
Q 1030 3187 1030 3098 
L 1030 1075 
Q 1030 -13 1862 -13 
Q 2106 -13 2301 92 
Q 2496 198 2630 380 
Q 2765 563 2835 806 
Q 2906 1050 2899 1318 
L 2899 3098 
Q 2899 3187 2989 3187 
L 3245 3187 
Q 3334 3187 3334 3098 
L 3334 525 
Q 3334 314 3337 147 
Q 3341 -19 3347 -186 
z
" transform="scale(0.015625)"/>
      <path id="NanumGothic-74" d="M 2208 -282 
Q 1939 -378 1677 -378 
Q 1158 -378 992 -38 
Q 883 192 883 774 
L 883 2816 
L 282 2816 
Q 192 2816 192 2906 
L 192 3098 
Q 192 3187 282 3187 
L 883 3187 
L 883 4051 
Q 883 4147 966 4147 
L 1235 4147 
Q 1318 4147 1318 4051 
L 1318 3187 
L 2029 3187 
Q 2118 3187 2118 3098 
L 2118 2906 
Q 2118 2816 2029 2816 
L 1318 2816 
L 1318 557 
Q 1318 -13 1779 -13 
Q 1958 -13 2182 64 
Q 2214 77 2243 64 
Q 2272 51 2272 13 
L 2285 -154 
Q 2298 -243 2208 -282 
z
" transform="scale(0.015625)"/>
      <path id="NanumGothic-72" d="M 2221 2797 
Q 2106 2835 1914 2835 
Q 1440 2835 1210 2368 
Q 1030 2003 1030 1434 
L 1030 -186 
Q 1030 -275 941 -275 
L 691 -275 
Q 602 -275 602 -186 
L 602 2413 
Q 602 2643 598 2787 
Q 595 2931 589 3098 
Q 589 3187 678 3187 
L 915 3187 
Q 1005 3187 1005 3098 
L 1005 2470 
Q 1318 3277 1926 3277 
Q 2074 3277 2221 3238 
Q 2259 3226 2288 3197 
Q 2317 3168 2317 3117 
L 2317 2848 
Q 2317 2810 2285 2797 
Q 2253 2784 2221 2797 
z
" transform="scale(0.015625)"/>
      <path id="NanumGothic-29" d="M 301 -1133 
Q 243 -1133 275 -1088 
Q 774 -301 1027 448 
Q 1280 1197 1280 1933 
Q 1280 2662 1030 3414 
Q 781 4166 282 4954 
Q 262 4986 262 4992 
Q 262 4998 294 4998 
L 474 4998 
Q 506 4998 515 4995 
Q 525 4992 557 4960 
Q 1139 4224 1417 3475 
Q 1696 2726 1696 1933 
Q 1696 1133 1417 384 
Q 1139 -365 557 -1094 
Q 525 -1126 515 -1129 
Q 506 -1133 461 -1133 
L 301 -1133 
z
" transform="scale(0.015625)"/>
     </defs>
     <use xlink:href="#NanumGothic-4d"/>
     <use xlink:href="#NanumGothic-4d" transform="translate(96.899994 0)"/>
     <use xlink:href="#NanumGothic-20" transform="translate(193.799988 0)"/>
     <use xlink:href="#NanumGothic-28" transform="translate(221.799973 0)"/>
     <use xlink:href="#NanumGothic-4d" transform="translate(258.09996 0)"/>
     <use xlink:href="#NanumGothic-6f" transform="translate(354.999954 0)"/>
     <use xlink:href="#NanumGothic-62" transform="translate(415.599945 0)"/>
     <use xlink:href="#NanumGothic-69" transform="translate(476.199936 0)"/>
     <use xlink:href="#NanumGothic-6c" transform="translate(500.399933 0)"/>
     <use xlink:href="#NanumGothic-65" transform="translate(524.59993 0)"/>
     <use xlink:href="#NanumGothic-20" transform="translate(579.099915 0)"/>
     <use xlink:href="#NanumGothic-4d" transform="translate(607.099899 0)"/>
     <use xlink:href="#NanumGothic-61" transform="translate(703.999893 0)"/>
     <use xlink:href="#NanumGothic-6e" transform="translate(758.499878 0)"/>
     <use xlink:href="#NanumGothic-69" transform="translate(819.099869 0)"/>
     <use xlink:href="#NanumGothic-70" transform="translate(843.299866 0)"/>
     <use xlink:href="#NanumGothic-75" transform="translate(903.899857 0)"/>
     <use xlink:href="#NanumGothic-6c" transform="translate(964.499847 0)"/>
     <use xlink:href="#NanumGothic-61" transform="translate(988.699844 0)"/>
     <use xlink:href="#NanumGothic-74" transform="translate(1043.199829 0)"/>
     <use xlink:href="#NanumGothic-6f" transform="translate(1079.499817 0)"/>
     <use xlink:href="#NanumGothic-72" transform="translate(1140.099808 0)"/>
     <use xlink:href="#NanumGothic-29" transform="translate(1176.399796 0)"/>
    </g>
    <!-- 2.4% -->
    <g transform="translate(127.16869 69.030958) scale(0.09 -0.09)">
     <defs>
      <path id="NanumGothic-32" d="M 576 -301 
Q 506 -301 470 -297 
Q 435 -294 419 -278 
Q 403 -262 400 -227 
Q 397 -192 397 -122 
L 403 19 
Q 403 102 454 154 
L 1510 1318 
Q 2688 2592 2688 3251 
Q 2688 3635 2432 3891 
Q 2182 4141 1811 4141 
Q 1293 4141 730 3853 
Q 640 3808 627 3891 
L 589 4102 
Q 570 4211 653 4237 
Q 979 4384 1241 4454 
Q 1504 4525 1779 4525 
Q 2394 4525 2758 4218 
Q 3168 3885 3168 3270 
Q 3168 3034 3053 2752 
Q 2938 2470 2733 2163 
Q 2605 1984 2371 1696 
Q 2138 1408 1837 1082 
Q 1613 838 1392 588 
Q 1171 339 947 96 
L 3187 96 
Q 3277 96 3277 6 
L 3277 -211 
Q 3277 -301 3187 -301 
L 576 -301 
z
" transform="scale(0.015625)"/>
      <path id="NanumGothic-2e" d="M 691 -256 
Q 691 -122 784 -29 
Q 877 64 1011 64 
Q 1146 64 1238 -29 
Q 1331 -122 1331 -256 
Q 1331 -390 1238 -483 
Q 1146 -576 1011 -576 
Q 877 -576 784 -483 
Q 691 -390 691 -256 
z
" transform="scale(0.015625)"/>
      <path id="NanumGothic-34" d="M 2509 1216 
L 2509 4070 
Q 2035 3354 1568 2643 
Q 1101 1933 621 1216 
L 2509 1216 
z
M 2944 -211 
Q 2944 -301 2854 -301 
L 2598 -301 
Q 2509 -301 2509 -211 
L 2509 826 
L 397 826 
Q 262 826 240 848 
Q 218 870 218 1005 
L 218 1203 
Q 218 1261 224 1280 
Q 230 1299 262 1350 
L 2304 4397 
Q 2342 4454 2358 4464 
Q 2374 4474 2445 4474 
L 2765 4474 
Q 2899 4474 2921 4451 
Q 2944 4429 2944 4294 
L 2944 1216 
L 3578 1216 
Q 3667 1216 3667 1126 
L 3667 915 
Q 3667 826 3578 826 
L 2944 826 
L 2944 -211 
z
" transform="scale(0.015625)"/>
      <path id="NanumGothic-25" d="M 2522 3283 
Q 2522 4192 1869 4192 
Q 1222 4192 1222 3283 
Q 1222 2906 1357 2675 
Q 1536 2381 1869 2381 
Q 2208 2381 2387 2675 
Q 2522 2906 2522 3283 
z
M 5741 986 
Q 5741 1888 5094 1888 
Q 4435 1888 4435 986 
Q 4435 614 4576 378 
Q 4742 77 5094 77 
Q 5741 77 5741 986 
z
M 4992 4659 
Q 5075 4659 5081 4646 
Q 5088 4634 5050 4563 
L 2342 -282 
Q 2298 -358 2275 -371 
Q 2253 -384 2163 -384 
L 1978 -384 
Q 1888 -384 1878 -371 
Q 1869 -358 1920 -269 
L 4621 4576 
Q 4653 4640 4672 4649 
Q 4691 4659 4762 4659 
L 4992 4659 
z
M 2944 3283 
Q 2944 2714 2694 2387 
Q 2554 2208 2346 2112 
Q 2138 2016 1869 2016 
Q 1600 2016 1395 2112 
Q 1190 2208 1050 2387 
Q 800 2726 800 3283 
Q 800 3853 1050 4192 
Q 1338 4557 1869 4557 
Q 2406 4557 2694 4192 
Q 2944 3866 2944 3283 
z
M 6163 986 
Q 6163 410 5914 83 
Q 5632 -275 5094 -275 
Q 4550 -275 4269 83 
Q 4026 403 4026 986 
Q 4026 1562 4269 1894 
Q 4410 2074 4618 2170 
Q 4826 2266 5094 2266 
Q 5638 2266 5914 1894 
Q 6163 1568 6163 986 
z
" transform="scale(0.015625)"/>
     </defs>
     <use xlink:href="#NanumGothic-32"/>
     <use xlink:href="#NanumGothic-2e" transform="translate(60.599991 0)"/>
     <use xlink:href="#NanumGothic-34" transform="translate(90.899979 0)"/>
     <use xlink:href="#NanumGothic-25" transform="translate(151.499969 0)"/>
    </g>
   </g>
   <g id="text_2">
    <!-- 2.4% -->
    <g style="fill: #333333" transform="translate(166.615047 125.304188) scale(0.09 -0.09)">
     <use xlink:href="#NanumGothic-32"/>
     <use xlink:href="#NanumGothic-2e" transform="translate(60.599991 0)"/>
     <use xlink:href="#NanumGothic-34" transform="translate(90.899979 0)"/>
     <use xlink:href="#NanumGothic-25" transform="translate(151.499969 0)"/>
    </g>
   </g>
   <g id="text_3">
    <!-- ME (Multi-Env) -->
    <g transform="translate(7.2 212.983365) scale(0.09 -0.09)">
     <defs>
      <path id="NanumGothic-45" d="M 826 -282 
Q 691 -282 668 -259 
Q 646 -237 646 -102 
L 646 4307 
Q 646 4429 668 4451 
Q 691 4474 813 4474 
L 3034 4474 
Q 3123 4474 3123 4384 
L 3123 4160 
Q 3123 4070 3034 4070 
L 1114 4070 
L 1114 2381 
L 2938 2381 
Q 3027 2381 3027 2291 
L 3027 2061 
Q 3027 1971 2938 1971 
L 1114 1971 
L 1114 128 
L 3110 128 
Q 3200 128 3200 38 
L 3200 -192 
Q 3200 -282 3110 -282 
L 826 -282 
z
" transform="scale(0.015625)"/>
      <path id="NanumGothic-2d" d="M 1946 2419 
Q 2016 2419 2025 2409 
Q 2035 2400 2035 2330 
L 2035 2048 
Q 2035 1978 2025 1968 
Q 2016 1958 1946 1958 
L 448 1958 
Q 378 1958 368 1968 
Q 358 1978 358 2048 
L 358 2330 
Q 358 2400 368 2409 
Q 378 2419 448 2419 
L 1946 2419 
z
" transform="scale(0.015625)"/>
      <path id="NanumGothic-76" d="M 1843 -192 
Q 1811 -275 1715 -275 
L 1402 -275 
Q 1306 -275 1280 -192 
L 154 3098 
Q 141 3130 160 3158 
Q 179 3187 218 3187 
L 506 3187 
Q 582 3187 621 3098 
L 1568 166 
L 2554 3098 
Q 2566 3136 2598 3161 
Q 2630 3187 2669 3187 
L 2950 3187 
Q 2989 3187 3008 3158 
Q 3027 3130 3014 3098 
L 1843 -192 
z
" transform="scale(0.015625)"/>
     </defs>
     <use xlink:href="#NanumGothic-4d"/>
     <use xlink:href="#NanumGothic-45" transform="translate(96.899994 0)"/>
     <use xlink:href="#NanumGothic-20" transform="translate(154.499985 0)"/>
     <use xlink:href="#NanumGothic-28" transform="translate(182.499969 0)"/>
     <use xlink:href="#NanumGothic-4d" transform="translate(218.799957 0)"/>
     <use xlink:href="#NanumGothic-75" transform="translate(315.699951 0)"/>
     <use xlink:href="#NanumGothic-6c" transform="translate(376.299942 0)"/>
     <use xlink:href="#NanumGothic-74" transform="translate(400.499939 0)"/>
     <use xlink:href="#NanumGothic-69" transform="translate(436.799927 0)"/>
     <use xlink:href="#NanumGothic-2d" transform="translate(460.999924 0)"/>
     <use xlink:href="#NanumGothic-45" transform="translate(497.299911 0)"/>
     <use xlink:href="#NanumGothic-6e" transform="translate(554.899902 0)"/>
     <use xlink:href="#NanumGothic-76" transform="translate(615.499893 0)"/>
     <use xlink:href="#NanumGothic-29" transform="translate(663.899887 0)"/>
    </g>
    <!-- ~35% -->
    <g transform="translate(43.613437 222.86874) scale(0.09 -0.09)">
     <defs>
      <path id="NanumGothic-7e" d="M 3635 2310 
Q 3686 2240 3686 2217 
Q 3686 2195 3635 2112 
Q 3328 1600 2842 1600 
Q 2598 1600 2054 1843 
Q 1517 2099 1376 2099 
Q 1139 2099 845 1709 
Q 787 1626 768 1626 
Q 749 1626 691 1709 
L 595 1843 
Q 544 1920 547 1955 
Q 550 1990 602 2080 
Q 909 2560 1382 2560 
Q 1651 2560 2170 2317 
Q 2688 2061 2848 2061 
Q 2976 2061 3113 2166 
Q 3251 2272 3392 2464 
Q 3443 2534 3456 2537 
Q 3469 2541 3520 2470 
L 3635 2310 
z
" transform="scale(0.015625)"/>
      <path id="NanumGothic-33" d="M 493 -192 
Q 397 -166 410 -45 
L 435 205 
Q 448 282 538 243 
Q 806 134 1046 89 
Q 1286 45 1606 38 
Q 2112 32 2458 294 
Q 2861 563 2861 1082 
Q 2861 1990 1498 1990 
L 1165 1990 
Q 1082 1990 1082 2061 
L 1082 2298 
Q 1082 2381 1165 2381 
L 1197 2381 
Q 1882 2381 2266 2528 
Q 2848 2752 2848 3334 
Q 2848 3520 2749 3677 
Q 2650 3834 2483 3942 
Q 2330 4032 2138 4083 
Q 1946 4134 1734 4134 
Q 1517 4134 1254 4076 
Q 992 4019 749 3923 
Q 666 3891 653 3974 
L 627 4211 
Q 608 4301 710 4339 
Q 998 4435 1248 4480 
Q 1498 4525 1779 4525 
Q 2426 4525 2835 4250 
Q 3302 3936 3302 3334 
Q 3302 2906 2995 2592 
Q 2739 2317 2330 2189 
Q 2534 2163 2710 2080 
Q 2886 1997 3014 1850 
Q 3162 1690 3238 1488 
Q 3315 1286 3315 1043 
Q 3315 723 3184 464 
Q 3053 205 2810 19 
Q 2573 -154 2265 -253 
Q 1958 -352 1581 -346 
Q 1242 -339 995 -307 
Q 749 -275 493 -192 
z
" transform="scale(0.015625)"/>
      <path id="NanumGothic-35" d="M 736 -205 
Q 646 -173 646 -90 
L 646 179 
Q 646 288 736 243 
Q 966 134 1187 89 
Q 1408 45 1670 45 
Q 2234 45 2586 320 
Q 2970 614 2970 1165 
Q 2970 2246 1734 2246 
Q 1491 2246 1296 2220 
Q 1101 2195 864 2131 
Q 794 2112 749 2147 
Q 704 2182 704 2253 
L 742 4294 
Q 742 4429 764 4451 
Q 787 4474 922 4474 
L 3110 4474 
Q 3200 4474 3200 4384 
L 3200 4173 
Q 3200 4083 3110 4083 
L 1178 4083 
Q 1171 3680 1161 3296 
Q 1152 2912 1146 2509 
Q 1459 2630 1907 2630 
Q 2579 2630 2995 2266 
Q 3411 1888 3411 1254 
Q 3411 480 2931 58 
Q 2470 -346 1670 -346 
Q 1382 -346 1171 -314 
Q 960 -282 736 -205 
z
" transform="scale(0.015625)"/>
     </defs>
     <use xlink:href="#NanumGothic-7e"/>
     <use xlink:href="#NanumGothic-33" transform="translate(65.399994 0)"/>
     <use xlink:href="#NanumGothic-35" transform="translate(125.999985 0)"/>
     <use xlink:href="#NanumGothic-25" transform="translate(186.599976 0)"/>
    </g>
   </g>
   <g id="text_4">
    <!-- 35.0% -->
    <g style="fill: #333333" transform="translate(123.060784 215.954402) scale(0.09 -0.09)">
     <defs>
      <path id="NanumGothic-30" d="M 3066 2093 
Q 3066 4102 1965 4102 
Q 864 4102 864 2093 
Q 864 77 1965 77 
Q 3066 77 3066 2093 
z
M 3526 2093 
Q 3526 -326 1965 -326 
Q 390 -326 390 2093 
Q 390 3098 698 3725 
Q 1088 4512 1965 4512 
Q 2829 4512 3226 3725 
Q 3373 3411 3449 3008 
Q 3526 2605 3526 2093 
z
" transform="scale(0.015625)"/>
     </defs>
     <use xlink:href="#NanumGothic-33"/>
     <use xlink:href="#NanumGothic-35" transform="translate(60.599991 0)"/>
     <use xlink:href="#NanumGothic-2e" transform="translate(121.199982 0)"/>
     <use xlink:href="#NanumGothic-30" transform="translate(151.499969 0)"/>
     <use xlink:href="#NanumGothic-25" transform="translate(212.09996 0)"/>
    </g>
   </g>
   <g id="text_5">
    <!-- CE (Cross-Embodiment) -->
    <g transform="translate(289.247139 338.728005) scale(0.09 -0.09)">
     <defs>
      <path id="NanumGothic-43" d="M 3834 186 
Q 3872 198 3904 188 
Q 3936 179 3936 141 
L 3949 -109 
Q 3955 -192 3859 -224 
Q 3648 -294 3424 -326 
Q 3200 -358 2861 -358 
Q 1747 -358 1088 320 
Q 762 653 605 1094 
Q 448 1536 448 2093 
Q 448 3187 1107 3866 
Q 1779 4544 2861 4544 
Q 3014 4544 3139 4537 
Q 3264 4531 3382 4518 
Q 3501 4506 3616 4486 
Q 3731 4467 3859 4435 
Q 3955 4416 3949 4314 
L 3936 4058 
Q 3923 3968 3840 4000 
Q 3590 4083 3366 4112 
Q 3142 4141 2861 4141 
Q 1958 4141 1421 3565 
Q 922 3008 922 2093 
Q 922 1632 1043 1261 
Q 1165 890 1414 614 
Q 1933 38 2861 45 
Q 3130 51 3395 83 
Q 3661 115 3834 186 
z
" transform="scale(0.015625)"/>
      <path id="NanumGothic-73" d="M 422 147 
Q 813 -13 1229 -13 
Q 1574 -13 1798 156 
Q 2022 326 2022 614 
Q 2022 781 1897 937 
Q 1773 1094 1594 1197 
Q 1395 1306 1187 1405 
Q 979 1504 787 1613 
Q 557 1741 448 1929 
Q 339 2118 339 2323 
Q 339 2560 428 2739 
Q 518 2918 672 3040 
Q 826 3162 1030 3219 
Q 1235 3277 1466 3277 
Q 1709 3277 1888 3251 
Q 2067 3226 2246 3174 
Q 2285 3162 2313 3136 
Q 2342 3110 2336 3066 
L 2317 2874 
Q 2310 2822 2278 2809 
Q 2246 2797 2214 2810 
Q 2054 2867 1894 2889 
Q 1734 2912 1510 2912 
Q 768 2912 768 2323 
Q 768 2195 867 2080 
Q 966 1965 1203 1850 
Q 1408 1747 1606 1654 
Q 1805 1562 2035 1434 
Q 2234 1325 2365 1101 
Q 2496 877 2496 614 
Q 2496 358 2393 172 
Q 2291 -13 2118 -134 
Q 1946 -256 1722 -317 
Q 1498 -378 1261 -378 
Q 1120 -378 1008 -371 
Q 896 -365 797 -352 
Q 698 -339 595 -320 
Q 493 -301 378 -269 
Q 288 -237 294 -154 
L 320 83 
Q 333 186 422 147 
z
" transform="scale(0.015625)"/>
      <path id="NanumGothic-6d" d="M 602 2374 
Q 602 2643 595 2800 
Q 589 2957 576 3098 
Q 576 3187 666 3187 
L 902 3187 
Q 992 3187 992 3098 
L 992 2752 
Q 1139 2989 1388 3126 
Q 1638 3264 2003 3264 
Q 2387 3264 2675 3075 
Q 2963 2886 3027 2522 
Q 3162 2886 3459 3075 
Q 3757 3264 4147 3264 
Q 4397 3264 4598 3174 
Q 4800 3085 4944 2928 
Q 5088 2771 5165 2560 
Q 5242 2349 5242 2112 
L 5242 -186 
Q 5242 -275 5152 -275 
L 4909 -275 
Q 4819 -275 4819 -192 
L 4819 2022 
Q 4819 2899 4083 2899 
Q 3859 2899 3683 2800 
Q 3507 2701 3382 2528 
Q 3258 2355 3197 2124 
Q 3136 1894 3142 1638 
L 3142 -186 
Q 3142 -275 3053 -275 
L 2797 -275 
Q 2707 -275 2707 -186 
L 2707 2022 
Q 2707 2899 1965 2899 
Q 1530 2899 1280 2617 
Q 1030 2336 1030 1875 
L 1030 -186 
Q 1030 -275 941 -275 
L 691 -275 
Q 602 -275 602 -186 
L 602 2374 
z
" transform="scale(0.015625)"/>
      <path id="NanumGothic-64" d="M 877 1459 
Q 877 1158 925 912 
Q 973 666 1075 480 
Q 1216 250 1417 128 
Q 1619 6 1901 6 
Q 2157 6 2352 140 
Q 2547 275 2678 483 
Q 2810 691 2874 950 
Q 2938 1210 2938 1459 
Q 2938 1766 2870 2028 
Q 2803 2291 2672 2483 
Q 2541 2675 2349 2784 
Q 2157 2893 1901 2893 
Q 1357 2893 1075 2426 
Q 973 2240 925 1993 
Q 877 1747 877 1459 
z
M 3366 -186 
Q 3366 -275 3277 -275 
L 3027 -275 
Q 2938 -275 2938 -186 
L 2938 294 
Q 2592 -358 1824 -358 
Q 1139 -358 755 166 
Q 403 653 403 1459 
Q 403 3258 1824 3258 
Q 2208 3258 2505 3104 
Q 2803 2950 2938 2707 
L 2938 4723 
Q 2938 4813 3027 4813 
L 3277 4813 
Q 3366 4813 3366 4723 
L 3366 -186 
z
" transform="scale(0.015625)"/>
     </defs>
     <use xlink:href="#NanumGothic-43"/>
     <use xlink:href="#NanumGothic-45" transform="translate(67.199997 0)"/>
     <use xlink:href="#NanumGothic-20" transform="translate(124.799988 0)"/>
     <use xlink:href="#NanumGothic-28" transform="translate(152.799973 0)"/>
     <use xlink:href="#NanumGothic-43" transform="translate(189.09996 0)"/>
     <use xlink:href="#NanumGothic-72" transform="translate(256.299957 0)"/>
     <use xlink:href="#NanumGothic-6f" transform="translate(292.599945 0)"/>
     <use xlink:href="#NanumGothic-73" transform="translate(353.199936 0)"/>
     <use xlink:href="#NanumGothic-73" transform="translate(395.59993 0)"/>
     <use xlink:href="#NanumGothic-2d" transform="translate(437.999924 0)"/>
     <use xlink:href="#NanumGothic-45" transform="translate(474.299911 0)"/>
     <use xlink:href="#NanumGothic-6d" transform="translate(531.899902 0)"/>
     <use xlink:href="#NanumGothic-62" transform="translate(622.69989 0)"/>
     <use xlink:href="#NanumGothic-6f" transform="translate(683.299881 0)"/>
     <use xlink:href="#NanumGothic-64" transform="translate(743.899872 0)"/>
     <use xlink:href="#NanumGothic-69" transform="translate(804.499863 0)"/>
     <use xlink:href="#NanumGothic-6d" transform="translate(828.69986 0)"/>
     <use xlink:href="#NanumGothic-65" transform="translate(919.499847 0)"/>
     <use xlink:href="#NanumGothic-6e" transform="translate(973.999832 0)"/>
     <use xlink:href="#NanumGothic-74" transform="translate(1034.599823 0)"/>
     <use xlink:href="#NanumGothic-29" transform="translate(1070.899811 0)"/>
    </g>
    <!-- ~30% -->
    <g transform="translate(289.247139 348.61338) scale(0.09 -0.09)">
     <use xlink:href="#NanumGothic-7e"/>
     <use xlink:href="#NanumGothic-33" transform="translate(65.399994 0)"/>
     <use xlink:href="#NanumGothic-30" transform="translate(125.999985 0)"/>
     <use xlink:href="#NanumGothic-25" transform="translate(186.599976 0)"/>
    </g>
   </g>
   <g id="text_6">
    <!-- 30.0% -->
    <g style="fill: #333333" transform="translate(242.531837 284.542388) scale(0.09 -0.09)">
     <use xlink:href="#NanumGothic-33"/>
     <use xlink:href="#NanumGothic-30" transform="translate(60.599991 0)"/>
     <use xlink:href="#NanumGothic-2e" transform="translate(121.199982 0)"/>
     <use xlink:href="#NanumGothic-30" transform="translate(151.499969 0)"/>
     <use xlink:href="#NanumGothic-25" transform="translate(212.09996 0)"/>
    </g>
   </g>
   <g id="text_7">
    <!-- HL (High-Level) -->
    <g transform="translate(357.747968 159.041559) scale(0.09 -0.09)">
     <defs>
      <path id="NanumGothic-48" d="M 4019 -186 
Q 4019 -275 3930 -275 
L 3642 -275 
Q 3552 -275 3552 -186 
L 3552 1971 
L 1126 1971 
L 1126 -186 
Q 1126 -275 1037 -275 
L 749 -275 
Q 659 -275 659 -186 
L 659 4384 
Q 659 4474 749 4474 
L 1037 4474 
Q 1126 4474 1126 4384 
L 1126 2374 
L 3552 2374 
L 3552 4384 
Q 3552 4474 3642 4474 
L 3930 4474 
Q 4019 4474 4019 4384 
L 4019 -186 
z
" transform="scale(0.015625)"/>
      <path id="NanumGothic-4c" d="M 2912 128 
Q 3002 128 3002 38 
L 3002 -186 
Q 3002 -275 2912 -275 
L 838 -275 
Q 749 -275 701 -272 
Q 653 -269 630 -246 
Q 608 -224 605 -173 
Q 602 -122 602 -32 
L 602 4371 
Q 602 4461 691 4461 
L 986 4461 
Q 1075 4461 1075 4371 
L 1075 128 
L 2912 128 
z
" transform="scale(0.015625)"/>
      <path id="NanumGothic-67" d="M 2950 1472 
Q 2950 2157 2668 2528 
Q 2387 2899 1907 2899 
Q 1389 2899 1126 2553 
Q 864 2208 864 1459 
Q 864 1184 941 953 
Q 1018 723 1152 560 
Q 1286 397 1472 304 
Q 1658 211 1875 211 
Q 2099 211 2297 304 
Q 2496 397 2640 566 
Q 2784 736 2867 966 
Q 2950 1197 2950 1472 
z
M 749 -1114 
Q 672 -1094 685 -1018 
L 704 -736 
Q 704 -653 787 -698 
Q 1030 -806 1254 -854 
Q 1478 -902 1741 -902 
Q 2323 -902 2614 -547 
Q 2906 -192 2944 422 
Q 2797 134 2509 -13 
Q 2221 -160 1869 -160 
Q 1555 -160 1286 -45 
Q 1018 70 819 281 
Q 621 493 505 793 
Q 390 1094 390 1459 
Q 390 1888 470 2224 
Q 550 2560 723 2790 
Q 896 3021 1171 3142 
Q 1446 3264 1837 3264 
Q 2176 3264 2435 3152 
Q 2694 3040 2963 2752 
L 2950 3098 
Q 2950 3187 3040 3187 
L 3283 3187 
Q 3373 3187 3373 3098 
L 3373 538 
Q 3373 122 3267 -214 
Q 3162 -550 2954 -784 
Q 2746 -1018 2438 -1142 
Q 2131 -1267 1734 -1267 
Q 1446 -1267 1228 -1232 
Q 1011 -1197 749 -1114 
z
" transform="scale(0.015625)"/>
      <path id="NanumGothic-68" d="M 3334 -186 
Q 3334 -275 3245 -275 
L 2989 -275 
Q 2899 -275 2899 -186 
L 2899 1786 
Q 2899 2093 2844 2307 
Q 2790 2522 2688 2653 
Q 2586 2784 2438 2841 
Q 2291 2899 2112 2899 
Q 1587 2899 1308 2649 
Q 1030 2400 1030 1958 
L 1030 -186 
Q 1030 -275 941 -275 
L 685 -275 
Q 595 -275 595 -186 
L 595 4730 
Q 595 4819 685 4819 
L 941 4819 
Q 1030 4819 1030 4730 
L 1030 2874 
Q 1210 3078 1475 3171 
Q 1741 3264 2138 3264 
Q 2758 3264 3046 2899 
Q 3334 2534 3334 1792 
L 3334 -186 
z
" transform="scale(0.015625)"/>
     </defs>
     <use xlink:href="#NanumGothic-48"/>
     <use xlink:href="#NanumGothic-4c" transform="translate(72.699982 0)"/>
     <use xlink:href="#NanumGothic-20" transform="translate(121.099976 0)"/>
     <use xlink:href="#NanumGothic-28" transform="translate(149.09996 0)"/>
     <use xlink:href="#NanumGothic-48" transform="translate(185.399948 0)"/>
     <use xlink:href="#NanumGothic-69" transform="translate(258.09993 0)"/>
     <use xlink:href="#NanumGothic-67" transform="translate(282.299927 0)"/>
     <use xlink:href="#NanumGothic-68" transform="translate(342.899918 0)"/>
     <use xlink:href="#NanumGothic-2d" transform="translate(403.499908 0)"/>
     <use xlink:href="#NanumGothic-4c" transform="translate(439.799896 0)"/>
     <use xlink:href="#NanumGothic-65" transform="translate(488.19989 0)"/>
     <use xlink:href="#NanumGothic-76" transform="translate(542.699875 0)"/>
     <use xlink:href="#NanumGothic-65" transform="translate(591.099869 0)"/>
     <use xlink:href="#NanumGothic-6c" transform="translate(645.599854 0)"/>
     <use xlink:href="#NanumGothic-29" transform="translate(669.79985 0)"/>
    </g>
    <!-- ~15% -->
    <g transform="translate(357.747968 168.945215) scale(0.09 -0.09)">
     <defs>
      <path id="NanumGothic-31" d="M 2362 -211 
Q 2362 -301 2272 -301 
L 2010 -301 
Q 1920 -301 1920 -211 
L 1920 3949 
Q 1722 3782 1549 3635 
Q 1376 3488 1184 3322 
Q 1114 3264 1056 3334 
L 928 3488 
Q 909 3520 909 3555 
Q 909 3590 941 3616 
L 1933 4448 
Q 1958 4474 2010 4474 
L 2182 4474 
Q 2317 4474 2339 4451 
Q 2362 4429 2362 4294 
L 2362 -211 
z
" transform="scale(0.015625)"/>
     </defs>
     <use xlink:href="#NanumGothic-7e"/>
     <use xlink:href="#NanumGothic-31" transform="translate(65.399994 0)"/>
     <use xlink:href="#NanumGothic-35" transform="translate(125.999985 0)"/>
     <use xlink:href="#NanumGothic-25" transform="translate(186.599976 0)"/>
    </g>
   </g>
   <g id="text_8">
    <!-- 15.0% -->
    <g style="fill: #333333" transform="translate(279.895925 186.490178) scale(0.09 -0.09)">
     <use xlink:href="#NanumGothic-31"/>
     <use xlink:href="#NanumGothic-35" transform="translate(60.599991 0)"/>
     <use xlink:href="#NanumGothic-2e" transform="translate(121.199982 0)"/>
     <use xlink:href="#NanumGothic-30" transform="translate(151.499969 0)"/>
     <use xlink:href="#NanumGothic-25" transform="translate(212.09996 0)"/>
    </g>
   </g>
   <g id="text_9">
    <!-- WD (Web Data) -->
    <g transform="translate(248.243159 63.707437) scale(0.09 -0.09)">
     <defs>
      <path id="NanumGothic-57" d="M 5088 -211 
Q 5069 -275 5005 -275 
L 4576 -275 
Q 4506 -275 4493 -211 
L 3296 3949 
Q 2989 2906 2688 1872 
Q 2387 838 2080 -211 
Q 2061 -275 1997 -275 
L 1555 -275 
Q 1485 -275 1472 -211 
L 160 4371 
Q 147 4403 166 4432 
Q 186 4461 224 4461 
L 525 4461 
Q 614 4461 640 4371 
L 1792 211 
Q 2093 1261 2393 2275 
Q 2694 3290 2995 4339 
Q 3008 4403 3053 4432 
Q 3098 4461 3155 4461 
L 3488 4461 
Q 3597 4461 3629 4339 
L 4800 237 
Q 5094 1299 5382 2304 
Q 5670 3309 5971 4371 
Q 5984 4410 6016 4435 
Q 6048 4461 6086 4461 
L 6355 4461 
Q 6394 4461 6413 4432 
Q 6432 4403 6419 4371 
L 5088 -211 
z
" transform="scale(0.015625)"/>
      <path id="NanumGothic-44" d="M 3706 2131 
Q 3706 3149 3142 3635 
Q 2643 4064 1773 4064 
L 1082 4064 
L 1082 128 
L 1472 128 
Q 3706 128 3706 2131 
z
M 4173 2106 
Q 4173 1510 3968 1043 
Q 3763 576 3398 269 
Q 3053 6 2560 -134 
Q 2067 -275 1446 -275 
L 787 -275 
Q 653 -275 630 -252 
Q 608 -230 608 -96 
L 608 4282 
Q 608 4416 630 4438 
Q 653 4461 787 4461 
L 1792 4461 
Q 3008 4461 3622 3802 
Q 4173 3194 4173 2106 
z
" transform="scale(0.015625)"/>
     </defs>
     <use xlink:href="#NanumGothic-57"/>
     <use xlink:href="#NanumGothic-44" transform="translate(102.899994 0)"/>
     <use xlink:href="#NanumGothic-20" transform="translate(175.599976 0)"/>
     <use xlink:href="#NanumGothic-28" transform="translate(203.59996 0)"/>
     <use xlink:href="#NanumGothic-57" transform="translate(239.899948 0)"/>
     <use xlink:href="#NanumGothic-65" transform="translate(338.174942 0)"/>
     <use xlink:href="#NanumGothic-62" transform="translate(392.674927 0)"/>
     <use xlink:href="#NanumGothic-20" transform="translate(453.274918 0)"/>
     <use xlink:href="#NanumGothic-44" transform="translate(481.274902 0)"/>
     <use xlink:href="#NanumGothic-61" transform="translate(553.974884 0)"/>
     <use xlink:href="#NanumGothic-74" transform="translate(608.474869 0)"/>
     <use xlink:href="#NanumGothic-61" transform="translate(644.774857 0)"/>
     <use xlink:href="#NanumGothic-29" transform="translate(699.274841 0)"/>
    </g>
    <!-- ~17.6% -->
    <g transform="translate(248.243159 73.592812) scale(0.09 -0.09)">
     <defs>
      <path id="NanumGothic-37" d="M 1549 -211 
Q 1504 -301 1421 -301 
L 1101 -301 
Q 1062 -301 1046 -275 
Q 1030 -250 1050 -211 
L 2912 4083 
L 538 4083 
Q 448 4083 448 4173 
L 448 4384 
Q 448 4474 538 4474 
L 3194 4474 
Q 3328 4474 3350 4451 
Q 3373 4429 3373 4294 
L 3373 4134 
Q 3373 4083 3354 4045 
L 1549 -211 
z
" transform="scale(0.015625)"/>
      <path id="NanumGothic-36" d="M 3078 1203 
Q 3078 1722 2810 2022 
Q 2541 2330 2042 2330 
Q 1786 2330 1581 2250 
Q 1376 2170 1232 2029 
Q 1088 1888 1008 1689 
Q 928 1491 928 1254 
Q 928 768 1197 435 
Q 1491 45 1984 45 
Q 2490 45 2797 384 
Q 3078 704 3078 1203 
z
M 3245 4013 
Q 3098 4064 2909 4096 
Q 2720 4128 2534 4128 
Q 1664 4128 1248 3501 
Q 896 2976 883 2061 
Q 1024 2317 1293 2496 
Q 1626 2733 2042 2733 
Q 2624 2733 3021 2426 
Q 3526 2035 3526 1235 
Q 3526 557 3110 109 
Q 2688 -346 1971 -346 
Q 435 -346 435 1920 
Q 435 3104 909 3770 
Q 1466 4525 2586 4525 
Q 2752 4525 2934 4499 
Q 3117 4474 3270 4429 
Q 3366 4410 3354 4314 
L 3341 4077 
Q 3341 4032 3309 4016 
Q 3277 4000 3245 4013 
z
" transform="scale(0.015625)"/>
     </defs>
     <use xlink:href="#NanumGothic-7e"/>
     <use xlink:href="#NanumGothic-31" transform="translate(65.399994 0)"/>
     <use xlink:href="#NanumGothic-37" transform="translate(125.999985 0)"/>
     <use xlink:href="#NanumGothic-2e" transform="translate(186.599976 0)"/>
     <use xlink:href="#NanumGothic-36" transform="translate(216.899963 0)"/>
     <use xlink:href="#NanumGothic-25" transform="translate(277.499954 0)"/>
    </g>
   </g>
   <g id="text_10">
    <!-- 17.6% -->
    <g style="fill: #333333" transform="translate(220.16603 134.531169) scale(0.09 -0.09)">
     <use xlink:href="#NanumGothic-31"/>
     <use xlink:href="#NanumGothic-37" transform="translate(60.599991 0)"/>
     <use xlink:href="#NanumGothic-2e" transform="translate(121.199982 0)"/>
     <use xlink:href="#NanumGothic-36" transform="translate(151.499969 0)"/>
     <use xlink:href="#NanumGothic-25" transform="translate(212.09996 0)"/>
    </g>
   </g>
   <g id="patch_7">
    <path d="M 428.975452 101.567975 
Q 395.194746 118.87163 362.707647 135.512654 
" style="fill: none; stroke: #c8694f; stroke-width: 1.3; stroke-linecap: round"/>
    <path d="M 367.179571 135.469096 
L 362.707647 135.512654 
L 365.355955 131.90898 
" style="fill: none; stroke: #c8694f; stroke-width: 1.3; stroke-linecap: round"/>
   </g>
   <g id="text_11">
    <!-- Target embodiment -->
    <g style="fill: #c8694f" transform="translate(420.220209 74.432875) scale(0.1 -0.1)">
     <defs>
      <path id="NanumGothic-54" d="M 2010 4064 
L 2010 -186 
Q 2010 -275 1920 -275 
L 1626 -275 
Q 1536 -275 1536 -186 
L 1536 4064 
L 218 4064 
Q 128 4064 128 4154 
L 128 4371 
Q 128 4461 218 4461 
L 3341 4461 
Q 3430 4461 3430 4371 
L 3430 4154 
Q 3430 4064 3341 4064 
L 2010 4064 
z
" transform="scale(0.015625)"/>
     </defs>
     <use xlink:href="#NanumGothic-54"/>
     <use xlink:href="#NanumGothic-61" transform="translate(45.624985 0)"/>
     <use xlink:href="#NanumGothic-72" transform="translate(100.124969 0)"/>
     <use xlink:href="#NanumGothic-67" transform="translate(136.424957 0)"/>
     <use xlink:href="#NanumGothic-65" transform="translate(197.024948 0)"/>
     <use xlink:href="#NanumGothic-74" transform="translate(251.524933 0)"/>
     <use xlink:href="#NanumGothic-20" transform="translate(287.824921 0)"/>
     <use xlink:href="#NanumGothic-65" transform="translate(315.824905 0)"/>
     <use xlink:href="#NanumGothic-6d" transform="translate(370.32489 0)"/>
     <use xlink:href="#NanumGothic-62" transform="translate(461.124878 0)"/>
     <use xlink:href="#NanumGothic-6f" transform="translate(521.724869 0)"/>
     <use xlink:href="#NanumGothic-64" transform="translate(582.32486 0)"/>
     <use xlink:href="#NanumGothic-69" transform="translate(642.92485 0)"/>
     <use xlink:href="#NanumGothic-6d" transform="translate(667.124847 0)"/>
     <use xlink:href="#NanumGothic-65" transform="translate(757.924835 0)"/>
     <use xlink:href="#NanumGothic-6e" transform="translate(812.42482 0)"/>
     <use xlink:href="#NanumGothic-74" transform="translate(873.024811 0)"/>
    </g>
    <!-- only 2.4%! -->
    <g style="fill: #c8694f" transform="translate(420.220209 85.436937) scale(0.1 -0.1)">
     <defs>
      <path id="NanumGothic-79" d="M 301 -1222 
Q 224 -1203 237 -1126 
L 256 -909 
Q 256 -832 333 -864 
Q 435 -902 570 -902 
Q 704 -902 816 -860 
Q 928 -819 986 -749 
Q 1056 -659 1142 -454 
Q 1229 -250 1312 13 
Q 1024 794 742 1555 
Q 461 2317 173 3098 
Q 160 3130 173 3158 
Q 186 3187 224 3187 
L 525 3187 
Q 614 3187 653 3098 
L 1517 614 
Q 1754 1267 1968 1859 
Q 2182 2451 2419 3098 
Q 2451 3187 2547 3187 
L 2822 3187 
Q 2861 3187 2873 3158 
Q 2886 3130 2874 3098 
L 1542 -474 
Q 1472 -659 1385 -806 
Q 1299 -954 1210 -1043 
Q 1094 -1152 953 -1206 
Q 813 -1261 659 -1261 
Q 563 -1261 486 -1254 
Q 410 -1248 301 -1222 
z
" transform="scale(0.015625)"/>
      <path id="NanumGothic-21" d="M 1498 4518 
Q 1619 4518 1638 4496 
Q 1658 4474 1658 4352 
L 1587 1043 
Q 1587 934 1568 918 
Q 1549 902 1440 902 
L 1338 902 
Q 1235 902 1219 918 
Q 1203 934 1197 1037 
L 1120 4352 
Q 1120 4416 1120 4448 
Q 1120 4480 1136 4496 
Q 1152 4512 1184 4515 
Q 1216 4518 1280 4518 
L 1498 4518 
z
M 1082 26 
Q 1082 154 1171 246 
Q 1261 339 1389 339 
Q 1517 339 1609 246 
Q 1702 154 1702 26 
Q 1702 -102 1609 -192 
Q 1517 -282 1389 -282 
Q 1261 -282 1171 -192 
Q 1082 -102 1082 26 
z
" transform="scale(0.015625)"/>
     </defs>
     <use xlink:href="#NanumGothic-6f"/>
     <use xlink:href="#NanumGothic-6e" transform="translate(60.599991 0)"/>
     <use xlink:href="#NanumGothic-6c" transform="translate(121.199982 0)"/>
     <use xlink:href="#NanumGothic-79" transform="translate(145.399979 0)"/>
     <use xlink:href="#NanumGothic-20" transform="translate(191.799973 0)"/>
     <use xlink:href="#NanumGothic-32" transform="translate(219.799957 0)"/>
     <use xlink:href="#NanumGothic-2e" transform="translate(280.399948 0)"/>
     <use xlink:href="#NanumGothic-34" transform="translate(310.699936 0)"/>
     <use xlink:href="#NanumGothic-25" transform="translate(371.299927 0)"/>
     <use xlink:href="#NanumGothic-21" transform="translate(480.299911 0)"/>
    </g>
    <!-- (400h, 100 homes) -->
    <g style="fill: #c8694f" transform="translate(420.220209 96.696) scale(0.1 -0.1)">
     <defs>
      <path id="NanumGothic-2c" d="M 1299 115 
Q 1382 115 1382 86 
Q 1382 58 1370 19 
L 947 -1126 
Q 922 -1178 899 -1194 
Q 877 -1210 832 -1210 
L 563 -1210 
Q 480 -1210 499 -1120 
L 800 6 
Q 813 45 838 80 
Q 864 115 934 115 
L 1299 115 
z
" transform="scale(0.015625)"/>
     </defs>
     <use xlink:href="#NanumGothic-28"/>
     <use xlink:href="#NanumGothic-34" transform="translate(36.299988 0)"/>
     <use xlink:href="#NanumGothic-30" transform="translate(96.899979 0)"/>
     <use xlink:href="#NanumGothic-30" transform="translate(157.499969 0)"/>
     <use xlink:href="#NanumGothic-68" transform="translate(218.09996 0)"/>
     <use xlink:href="#NanumGothic-2c" transform="translate(278.699951 0)"/>
     <use xlink:href="#NanumGothic-20" transform="translate(308.999939 0)"/>
     <use xlink:href="#NanumGothic-31" transform="translate(336.999924 0)"/>
     <use xlink:href="#NanumGothic-30" transform="translate(397.599915 0)"/>
     <use xlink:href="#NanumGothic-30" transform="translate(458.199905 0)"/>
     <use xlink:href="#NanumGothic-20" transform="translate(518.799896 0)"/>
     <use xlink:href="#NanumGothic-68" transform="translate(546.799881 0)"/>
     <use xlink:href="#NanumGothic-6f" transform="translate(607.399872 0)"/>
     <use xlink:href="#NanumGothic-6d" transform="translate(667.999863 0)"/>
     <use xlink:href="#NanumGothic-65" transform="translate(758.79985 0)"/>
     <use xlink:href="#NanumGothic-73" transform="translate(813.299835 0)"/>
     <use xlink:href="#NanumGothic-29" transform="translate(855.699829 0)"/>
    </g>
   </g>
   <g id="text_12">
    <!-- Data source 비중 -->
    <g style="fill: #333333" transform="translate(176.196381 32.84) scale(0.11 -0.11)">
     <defs>
      <path id="NanumGothic-63" d="M 2816 -301 
Q 2624 -333 2445 -345 
Q 2266 -358 2016 -358 
Q 1619 -358 1308 -217 
Q 998 -77 784 166 
Q 570 410 454 742 
Q 339 1075 339 1459 
Q 339 1850 460 2179 
Q 582 2509 809 2749 
Q 1037 2989 1353 3126 
Q 1670 3264 2067 3264 
Q 2278 3264 2451 3248 
Q 2624 3232 2822 3187 
Q 2912 3162 2906 3066 
L 2886 2861 
Q 2874 2784 2790 2803 
Q 2624 2854 2470 2876 
Q 2317 2899 2131 2899 
Q 1805 2899 1558 2793 
Q 1312 2688 1145 2496 
Q 979 2304 896 2038 
Q 813 1773 813 1459 
Q 813 1171 899 908 
Q 986 646 1149 444 
Q 1312 243 1545 124 
Q 1779 6 2080 6 
Q 2304 6 2451 25 
Q 2598 45 2784 96 
Q 2880 122 2886 51 
L 2906 -186 
Q 2912 -282 2816 -301 
z
" transform="scale(0.015625)"/>
      <path id="NanumGothic-be44" d="M 5158 -806 
Q 5158 -896 5069 -896 
L 4806 -896 
Q 4717 -896 4717 -806 
L 4717 4915 
Q 4717 5005 4806 5005 
L 5069 5005 
Q 5158 5005 5158 4915 
L 5158 -806 
z
M 1178 781 
Q 1024 781 931 800 
Q 838 819 787 873 
Q 736 928 717 1014 
Q 698 1101 698 1235 
L 698 4602 
Q 698 4634 723 4656 
Q 749 4678 781 4678 
L 1056 4678 
Q 1088 4678 1110 4652 
Q 1133 4627 1133 4602 
L 1133 3117 
L 3117 3117 
L 3117 4595 
Q 3117 4627 3139 4652 
Q 3162 4678 3194 4678 
L 3469 4678 
Q 3501 4678 3526 4656 
Q 3552 4634 3552 4602 
L 3552 1190 
Q 3552 947 3449 864 
Q 3347 781 3066 781 
L 1178 781 
z
M 1133 2739 
L 1133 1312 
Q 1133 1216 1165 1187 
Q 1197 1158 1286 1158 
L 2963 1158 
Q 3053 1158 3085 1187 
Q 3117 1216 3117 1312 
L 3117 2739 
L 1133 2739 
z
" transform="scale(0.015625)"/>
      <path id="NanumGothic-c911" d="M 5728 2310 
Q 5760 2310 5792 2288 
Q 5824 2266 5824 2227 
L 5824 2010 
Q 5824 1978 5792 1952 
Q 5760 1926 5728 1926 
L 3219 1926 
L 3219 1146 
Q 3507 1133 3817 1078 
Q 4128 1024 4390 905 
Q 4653 787 4822 595 
Q 4992 403 4992 109 
Q 4992 -218 4787 -422 
Q 4582 -627 4281 -742 
Q 3981 -858 3632 -899 
Q 3283 -941 2995 -941 
Q 2803 -941 2582 -921 
Q 2362 -902 2141 -860 
Q 1920 -819 1715 -742 
Q 1510 -666 1353 -547 
Q 1197 -429 1101 -269 
Q 1005 -109 1005 109 
Q 1005 397 1174 592 
Q 1344 787 1606 905 
Q 1869 1024 2182 1078 
Q 2496 1133 2778 1146 
L 2778 1926 
L 288 1926 
Q 250 1926 221 1952 
Q 192 1978 192 2010 
L 192 2227 
Q 192 2266 221 2288 
Q 250 2310 288 2310 
L 5728 2310 
z
M 4493 4218 
Q 4160 3904 3590 3610 
Q 3770 3558 3990 3500 
Q 4211 3443 4441 3385 
Q 4672 3328 4902 3277 
Q 5133 3226 5331 3187 
Q 5414 3168 5389 3098 
L 5299 2886 
Q 5267 2816 5184 2835 
Q 4966 2874 4697 2938 
Q 4429 3002 4150 3075 
Q 3872 3149 3600 3225 
Q 3328 3302 3098 3379 
Q 2592 3168 2013 3005 
Q 1434 2842 832 2739 
Q 774 2726 752 2748 
Q 730 2771 717 2810 
L 659 3002 
Q 634 3098 710 3104 
Q 1152 3174 1638 3308 
Q 2125 3443 2576 3609 
Q 3027 3776 3404 3958 
Q 3782 4141 4006 4307 
Q 4109 4384 4086 4429 
Q 4064 4474 3974 4474 
L 1210 4474 
Q 1126 4474 1126 4557 
L 1126 4781 
Q 1126 4858 1210 4858 
L 4134 4858 
Q 4627 4858 4716 4688 
Q 4806 4518 4493 4218 
z
M 4525 102 
Q 4525 314 4352 438 
Q 4179 563 3936 633 
Q 3693 704 3433 726 
Q 3174 749 2995 749 
Q 2810 749 2550 726 
Q 2291 704 2051 633 
Q 1811 563 1641 438 
Q 1472 314 1472 102 
Q 1472 -102 1641 -230 
Q 1811 -358 2051 -425 
Q 2291 -493 2550 -515 
Q 2810 -538 2995 -538 
Q 3174 -538 3436 -515 
Q 3699 -493 3939 -425 
Q 4179 -358 4352 -230 
Q 4525 -102 4525 102 
z
" transform="scale(0.015625)"/>
     </defs>
     <use xlink:href="#NanumGothic-44"/>
     <use xlink:href="#NanumGothic-61" transform="translate(72.699982 0)"/>
     <use xlink:href="#NanumGothic-74" transform="translate(127.199966 0)"/>
     <use xlink:href="#NanumGothic-61" transform="translate(163.499954 0)"/>
     <use xlink:href="#NanumGothic-20" transform="translate(217.999939 0)"/>
     <use xlink:href="#NanumGothic-73" transform="translate(245.999924 0)"/>
     <use xlink:href="#NanumGothic-6f" transform="translate(288.399918 0)"/>
     <use xlink:href="#NanumGothic-75" transform="translate(348.999908 0)"/>
     <use xlink:href="#NanumGothic-72" transform="translate(409.599899 0)"/>
     <use xlink:href="#NanumGothic-63" transform="translate(445.899887 0)"/>
     <use xlink:href="#NanumGothic-65" transform="translate(494.299881 0)"/>
     <use xlink:href="#NanumGothic-20" transform="translate(548.799866 0)"/>
     <use xlink:href="#NanumGothic-be44" transform="translate(576.79985 0)"/>
     <use xlink:href="#NanumGothic-c911" transform="translate(670.799835 0)"/>
    </g>
   </g>
  </g>
  <g id="axes_2">
   <g id="patch_8">
    <path d="M 437.109877 379.44 
L 910.298347 379.44 
L 910.298347 42.84 
L 437.109877 42.84 
z
" style="fill: #ffffff"/>
   </g>
   <g id="patch_9">
    <path d="M 437.109877 97.130323 
L 887.765562 97.130323 
L 887.765562 53.698065 
L 437.109877 53.698065 
z
" clip-path="url(#p2aba8946bd)" style="fill: #c8694f; stroke: #7a7a7a; stroke-linejoin: miter"/>
   </g>
   <g id="patch_10">
    <path d="M 437.109877 151.420645 
L 887.765562 151.420645 
L 887.765562 107.988387 
L 437.109877 107.988387 
z
" clip-path="url(#p2aba8946bd)" style="fill: #a8a3d4; stroke: #7a7a7a; stroke-linejoin: miter"/>
   </g>
   <g id="patch_11">
    <path d="M 437.109877 205.710968 
L 887.765562 205.710968 
L 887.765562 162.27871 
L 437.109877 162.27871 
z
" clip-path="url(#p2aba8946bd)" style="fill: #d8eee0; stroke: #7a7a7a; stroke-linejoin: miter"/>
   </g>
   <g id="patch_12">
    <path d="M 437.109877 260.00129 
L 887.765562 260.00129 
L 887.765562 216.569032 
L 437.109877 216.569032 
z
" clip-path="url(#p2aba8946bd)" style="fill: #f5d4a0; stroke: #7a7a7a; stroke-linejoin: miter"/>
   </g>
   <g id="patch_13">
    <path d="M 437.109877 314.291613 
L 887.765562 314.291613 
L 887.765562 270.859355 
L 437.109877 270.859355 
z
" clip-path="url(#p2aba8946bd)" style="fill: #e8c5c5; stroke: #7a7a7a; stroke-linejoin: miter"/>
   </g>
   <g id="patch_14">
    <path d="M 437.109877 368.581935 
L 887.765562 368.581935 
L 887.765562 325.149677 
L 437.109877 325.149677 
z
" clip-path="url(#p2aba8946bd)" style="fill: #dccaeb; stroke: #7a7a7a; stroke-linejoin: miter"/>
   </g>
   <g id="matplotlib.axis_3"/>
   <g id="matplotlib.axis_4"/>
   <g id="text_13">
    <!-- MM -->
    <g style="fill: #333333" transform="translate(446.12299 78.472709) scale(0.11 -0.11)">
     <use xlink:href="#NanumGothic-4d"/>
     <use xlink:href="#NanumGothic-4d" transform="translate(96.899994 0)"/>
    </g>
   </g>
   <g id="text_14">
    <!-- Target embodiment expertise -->
    <g style="fill: #333333" transform="translate(504.70823 78.204037) scale(0.1 -0.1)">
     <defs>
      <path id="NanumGothic-78" d="M 3046 -186 
Q 3066 -218 3050 -246 
Q 3034 -275 2995 -275 
L 2637 -275 
Q 2560 -275 2509 -186 
L 1645 1222 
L 717 -186 
Q 659 -275 589 -275 
L 269 -275 
Q 230 -275 214 -246 
Q 198 -218 218 -186 
L 1389 1562 
L 339 3098 
Q 320 3130 336 3158 
Q 352 3187 390 3187 
L 742 3187 
Q 819 3187 870 3098 
L 1645 1894 
L 2432 3098 
Q 2490 3187 2560 3187 
L 2874 3187 
Q 2912 3187 2928 3158 
Q 2944 3130 2925 3098 
L 1901 1562 
L 3046 -186 
z
" transform="scale(0.015625)"/>
     </defs>
     <use xlink:href="#NanumGothic-54"/>
     <use xlink:href="#NanumGothic-61" transform="translate(45.624985 0)"/>
     <use xlink:href="#NanumGothic-72" transform="translate(100.124969 0)"/>
     <use xlink:href="#NanumGothic-67" transform="translate(136.424957 0)"/>
     <use xlink:href="#NanumGothic-65" transform="translate(197.024948 0)"/>
     <use xlink:href="#NanumGothic-74" transform="translate(251.524933 0)"/>
     <use xlink:href="#NanumGothic-20" transform="translate(287.824921 0)"/>
     <use xlink:href="#NanumGothic-65" transform="translate(315.824905 0)"/>
     <use xlink:href="#NanumGothic-6d" transform="translate(370.32489 0)"/>
     <use xlink:href="#NanumGothic-62" transform="translate(461.124878 0)"/>
     <use xlink:href="#NanumGothic-6f" transform="translate(521.724869 0)"/>
     <use xlink:href="#NanumGothic-64" transform="translate(582.32486 0)"/>
     <use xlink:href="#NanumGothic-69" transform="translate(642.92485 0)"/>
     <use xlink:href="#NanumGothic-6d" transform="translate(667.124847 0)"/>
     <use xlink:href="#NanumGothic-65" transform="translate(757.924835 0)"/>
     <use xlink:href="#NanumGothic-6e" transform="translate(812.42482 0)"/>
     <use xlink:href="#NanumGothic-74" transform="translate(873.024811 0)"/>
     <use xlink:href="#NanumGothic-20" transform="translate(909.324799 0)"/>
     <use xlink:href="#NanumGothic-65" transform="translate(937.324783 0)"/>
     <use xlink:href="#NanumGothic-78" transform="translate(991.824768 0)"/>
     <use xlink:href="#NanumGothic-70" transform="translate(1042.824753 0)"/>
     <use xlink:href="#NanumGothic-65" transform="translate(1103.424744 0)"/>
     <use xlink:href="#NanumGothic-72" transform="translate(1157.924728 0)"/>
     <use xlink:href="#NanumGothic-74" transform="translate(1194.224716 0)"/>
     <use xlink:href="#NanumGothic-69" transform="translate(1230.524704 0)"/>
     <use xlink:href="#NanumGothic-73" transform="translate(1254.724701 0)"/>
     <use xlink:href="#NanumGothic-65" transform="translate(1297.124695 0)"/>
    </g>
   </g>
   <g id="text_15">
    <!-- ME -->
    <g style="fill: #333333" transform="translate(446.12299 132.763032) scale(0.11 -0.11)">
     <use xlink:href="#NanumGothic-4d"/>
     <use xlink:href="#NanumGothic-45" transform="translate(96.899994 0)"/>
    </g>
   </g>
   <g id="text_16">
    <!-- Diverse environments -->
    <g style="fill: #333333" transform="translate(504.70823 132.484985) scale(0.1 -0.1)">
     <use xlink:href="#NanumGothic-44"/>
     <use xlink:href="#NanumGothic-69" transform="translate(72.699982 0)"/>
     <use xlink:href="#NanumGothic-76" transform="translate(96.899979 0)"/>
     <use xlink:href="#NanumGothic-65" transform="translate(145.299973 0)"/>
     <use xlink:href="#NanumGothic-72" transform="translate(199.799957 0)"/>
     <use xlink:href="#NanumGothic-73" transform="translate(236.099945 0)"/>
     <use xlink:href="#NanumGothic-65" transform="translate(278.499939 0)"/>
     <use xlink:href="#NanumGothic-20" transform="translate(332.999924 0)"/>
     <use xlink:href="#NanumGothic-65" transform="translate(360.999908 0)"/>
     <use xlink:href="#NanumGothic-6e" transform="translate(415.499893 0)"/>
     <use xlink:href="#NanumGothic-76" transform="translate(476.099884 0)"/>
     <use xlink:href="#NanumGothic-69" transform="translate(524.499878 0)"/>
     <use xlink:href="#NanumGothic-72" transform="translate(548.699875 0)"/>
     <use xlink:href="#NanumGothic-6f" transform="translate(584.999863 0)"/>
     <use xlink:href="#NanumGothic-6e" transform="translate(645.599854 0)"/>
     <use xlink:href="#NanumGothic-6d" transform="translate(706.199844 0)"/>
     <use xlink:href="#NanumGothic-65" transform="translate(796.999832 0)"/>
     <use xlink:href="#NanumGothic-6e" transform="translate(851.499817 0)"/>
     <use xlink:href="#NanumGothic-74" transform="translate(912.099808 0)"/>
     <use xlink:href="#NanumGothic-73" transform="translate(948.399796 0)"/>
    </g>
   </g>
   <g id="text_17">
    <!-- CE -->
    <g style="fill: #333333" transform="translate(446.12299 187.053354) scale(0.11 -0.11)">
     <use xlink:href="#NanumGothic-43"/>
     <use xlink:href="#NanumGothic-45" transform="translate(67.199997 0)"/>
    </g>
   </g>
   <g id="text_18">
    <!-- Cross-embodiment manipulation -->
    <g style="fill: #333333" transform="translate(504.70823 186.794839) scale(0.1 -0.1)">
     <use xlink:href="#NanumGothic-43"/>
     <use xlink:href="#NanumGothic-72" transform="translate(67.199997 0)"/>
     <use xlink:href="#NanumGothic-6f" transform="translate(103.499985 0)"/>
     <use xlink:href="#NanumGothic-73" transform="translate(164.099976 0)"/>
     <use xlink:href="#NanumGothic-73" transform="translate(206.499969 0)"/>
     <use xlink:href="#NanumGothic-2d" transform="translate(248.899963 0)"/>
     <use xlink:href="#NanumGothic-65" transform="translate(285.199951 0)"/>
     <use xlink:href="#NanumGothic-6d" transform="translate(339.699936 0)"/>
     <use xlink:href="#NanumGothic-62" transform="translate(430.499924 0)"/>
     <use xlink:href="#NanumGothic-6f" transform="translate(491.099915 0)"/>
     <use xlink:href="#NanumGothic-64" transform="translate(551.699905 0)"/>
     <use xlink:href="#NanumGothic-69" transform="translate(612.299896 0)"/>
     <use xlink:href="#NanumGothic-6d" transform="translate(636.499893 0)"/>
     <use xlink:href="#NanumGothic-65" transform="translate(727.299881 0)"/>
     <use xlink:href="#NanumGothic-6e" transform="translate(781.799866 0)"/>
     <use xlink:href="#NanumGothic-74" transform="translate(842.399857 0)"/>
     <use xlink:href="#NanumGothic-20" transform="translate(878.699844 0)"/>
     <use xlink:href="#NanumGothic-6d" transform="translate(906.699829 0)"/>
     <use xlink:href="#NanumGothic-61" transform="translate(997.499817 0)"/>
     <use xlink:href="#NanumGothic-6e" transform="translate(1051.999802 0)"/>
     <use xlink:href="#NanumGothic-69" transform="translate(1112.599792 0)"/>
     <use xlink:href="#NanumGothic-70" transform="translate(1136.799789 0)"/>
     <use xlink:href="#NanumGothic-75" transform="translate(1197.39978 0)"/>
     <use xlink:href="#NanumGothic-6c" transform="translate(1257.999771 0)"/>
     <use xlink:href="#NanumGothic-61" transform="translate(1282.199768 0)"/>
     <use xlink:href="#NanumGothic-74" transform="translate(1336.699753 0)"/>
     <use xlink:href="#NanumGothic-69" transform="translate(1372.999741 0)"/>
     <use xlink:href="#NanumGothic-6f" transform="translate(1397.199738 0)"/>
     <use xlink:href="#NanumGothic-6e" transform="translate(1457.799728 0)"/>
    </g>
   </g>
   <g id="text_19">
    <!-- HL -->
    <g style="fill: #333333" transform="translate(446.12299 241.343677) scale(0.11 -0.11)">
     <use xlink:href="#NanumGothic-48"/>
     <use xlink:href="#NanumGothic-4c" transform="translate(72.699982 0)"/>
    </g>
   </g>
   <g id="text_20">
    <!-- High-level subtask reasoning -->
    <g style="fill: #333333" transform="translate(504.70823 241.075005) scale(0.1 -0.1)">
     <defs>
      <path id="NanumGothic-6b" d="M 1734 1645 
L 3117 -186 
Q 3136 -218 3129 -246 
Q 3123 -275 3085 -275 
L 2810 -275 
Q 2746 -275 2694 -256 
Q 2643 -237 2611 -186 
L 1459 1338 
L 1030 858 
L 1030 -186 
Q 1030 -275 941 -275 
L 685 -275 
Q 595 -275 595 -186 
L 595 4730 
Q 595 4819 685 4819 
L 941 4819 
Q 1030 4819 1030 4730 
L 1030 1395 
L 2490 3098 
Q 2579 3187 2701 3187 
L 3002 3187 
Q 3040 3187 3053 3158 
Q 3066 3130 3034 3098 
L 1734 1645 
z
" transform="scale(0.015625)"/>
     </defs>
     <use xlink:href="#NanumGothic-48"/>
     <use xlink:href="#NanumGothic-69" transform="translate(72.699982 0)"/>
     <use xlink:href="#NanumGothic-67" transform="translate(96.899979 0)"/>
     <use xlink:href="#NanumGothic-68" transform="translate(157.499969 0)"/>
     <use xlink:href="#NanumGothic-2d" transform="translate(218.09996 0)"/>
     <use xlink:href="#NanumGothic-6c" transform="translate(254.399948 0)"/>
     <use xlink:href="#NanumGothic-65" transform="translate(278.599945 0)"/>
     <use xlink:href="#NanumGothic-76" transform="translate(333.09993 0)"/>
     <use xlink:href="#NanumGothic-65" transform="translate(381.499924 0)"/>
     <use xlink:href="#NanumGothic-6c" transform="translate(435.999908 0)"/>
     <use xlink:href="#NanumGothic-20" transform="translate(460.199905 0)"/>
     <use xlink:href="#NanumGothic-73" transform="translate(488.19989 0)"/>
     <use xlink:href="#NanumGothic-75" transform="translate(530.599884 0)"/>
     <use xlink:href="#NanumGothic-62" transform="translate(591.199875 0)"/>
     <use xlink:href="#NanumGothic-74" transform="translate(651.799866 0)"/>
     <use xlink:href="#NanumGothic-61" transform="translate(688.099854 0)"/>
     <use xlink:href="#NanumGothic-73" transform="translate(742.599838 0)"/>
     <use xlink:href="#NanumGothic-6b" transform="translate(784.999832 0)"/>
     <use xlink:href="#NanumGothic-20" transform="translate(836.999817 0)"/>
     <use xlink:href="#NanumGothic-72" transform="translate(864.999802 0)"/>
     <use xlink:href="#NanumGothic-65" transform="translate(901.299789 0)"/>
     <use xlink:href="#NanumGothic-61" transform="translate(955.799774 0)"/>
     <use xlink:href="#NanumGothic-73" transform="translate(1010.299759 0)"/>
     <use xlink:href="#NanumGothic-6f" transform="translate(1052.699753 0)"/>
     <use xlink:href="#NanumGothic-6e" transform="translate(1113.299744 0)"/>
     <use xlink:href="#NanumGothic-69" transform="translate(1173.899734 0)"/>
     <use xlink:href="#NanumGothic-6e" transform="translate(1198.099731 0)"/>
     <use xlink:href="#NanumGothic-67" transform="translate(1258.699722 0)"/>
    </g>
   </g>
   <g id="text_21">
    <!-- WD -->
    <g style="fill: #333333" transform="translate(446.12299 295.633999) scale(0.11 -0.11)">
     <use xlink:href="#NanumGothic-57"/>
     <use xlink:href="#NanumGothic-44" transform="translate(102.899994 0)"/>
    </g>
   </g>
   <g id="text_22">
    <!-- OOD object recognition -->
    <g style="fill: #333333" transform="translate(504.70823 289.689859) scale(0.1 -0.1)">
     <defs>
      <path id="NanumGothic-4f" d="M 4160 2093 
Q 4160 2496 4057 2854 
Q 3955 3213 3770 3501 
Q 3546 3814 3235 3984 
Q 2925 4154 2534 4154 
Q 2138 4154 1827 3984 
Q 1517 3814 1293 3501 
Q 1107 3213 1004 2854 
Q 902 2496 902 2093 
Q 902 1690 1004 1328 
Q 1107 966 1293 678 
Q 1523 371 1836 198 
Q 2150 26 2534 26 
Q 2925 26 3235 195 
Q 3546 365 3770 678 
Q 3955 966 4057 1328 
Q 4160 1690 4160 2093 
z
M 4627 2093 
Q 4614 954 4102 314 
Q 3546 -378 2534 -378 
Q 1523 -378 960 314 
Q 435 973 435 2093 
Q 435 2624 563 3053 
Q 691 3482 934 3814 
Q 1222 4166 1628 4361 
Q 2035 4557 2534 4557 
Q 3040 4557 3440 4365 
Q 3840 4173 4128 3808 
Q 4378 3462 4506 3036 
Q 4634 2611 4627 2093 
z
" transform="scale(0.015625)"/>
      <path id="NanumGothic-6a" d="M 147 -1248 
Q 58 -1242 58 -1126 
L 58 -947 
Q 58 -870 147 -890 
Q 173 -896 221 -899 
Q 269 -902 307 -902 
Q 461 -902 563 -848 
Q 666 -794 723 -704 
Q 794 -563 794 -243 
L 794 3098 
Q 794 3187 883 3187 
L 1139 3187 
Q 1229 3187 1229 3098 
L 1229 -288 
Q 1229 -1267 429 -1267 
Q 339 -1267 278 -1264 
Q 218 -1261 147 -1248 
z
M 698 4397 
Q 698 4525 787 4617 
Q 877 4710 1005 4710 
Q 1133 4710 1225 4617 
Q 1318 4525 1318 4397 
Q 1318 4269 1225 4179 
Q 1133 4090 1005 4090 
Q 877 4090 787 4179 
Q 698 4269 698 4397 
z
" transform="scale(0.015625)"/>
     </defs>
     <use xlink:href="#NanumGothic-4f"/>
     <use xlink:href="#NanumGothic-4f" transform="translate(78.699982 0)"/>
     <use xlink:href="#NanumGothic-44" transform="translate(157.399963 0)"/>
     <use xlink:href="#NanumGothic-20" transform="translate(230.099945 0)"/>
     <use xlink:href="#NanumGothic-6f" transform="translate(258.09993 0)"/>
     <use xlink:href="#NanumGothic-62" transform="translate(318.699921 0)"/>
     <use xlink:href="#NanumGothic-6a" transform="translate(379.299911 0)"/>
     <use xlink:href="#NanumGothic-65" transform="translate(406.199905 0)"/>
     <use xlink:href="#NanumGothic-63" transform="translate(460.69989 0)"/>
     <use xlink:href="#NanumGothic-74" transform="translate(509.099884 0)"/>
     <use xlink:href="#NanumGothic-20" transform="translate(545.399872 0)"/>
     <use xlink:href="#NanumGothic-72" transform="translate(573.399857 0)"/>
     <use xlink:href="#NanumGothic-65" transform="translate(609.699844 0)"/>
     <use xlink:href="#NanumGothic-63" transform="translate(664.199829 0)"/>
     <use xlink:href="#NanumGothic-6f" transform="translate(712.599823 0)"/>
     <use xlink:href="#NanumGothic-67" transform="translate(773.199814 0)"/>
     <use xlink:href="#NanumGothic-6e" transform="translate(833.799805 0)"/>
     <use xlink:href="#NanumGothic-69" transform="translate(894.399796 0)"/>
     <use xlink:href="#NanumGothic-74" transform="translate(918.599792 0)"/>
     <use xlink:href="#NanumGothic-69" transform="translate(954.89978 0)"/>
     <use xlink:href="#NanumGothic-6f" transform="translate(979.099777 0)"/>
     <use xlink:href="#NanumGothic-6e" transform="translate(1039.699768 0)"/>
    </g>
    <!-- (VQA, captioning) -->
    <g style="fill: #333333" transform="translate(504.70823 301.040796) scale(0.1 -0.1)">
     <defs>
      <path id="NanumGothic-56" d="M 3706 4371 
Q 3718 4410 3750 4435 
Q 3782 4461 3821 4461 
L 4109 4461 
Q 4147 4461 4166 4432 
Q 4186 4403 4173 4371 
L 2426 -192 
Q 2406 -243 2384 -259 
Q 2362 -275 2310 -275 
L 1958 -275 
Q 1907 -275 1884 -259 
Q 1862 -243 1843 -192 
L 134 4371 
Q 122 4403 141 4432 
Q 160 4461 198 4461 
L 518 4461 
Q 595 4461 634 4371 
L 2138 192 
Q 2522 1222 2912 2262 
Q 3302 3302 3706 4371 
z
" transform="scale(0.015625)"/>
      <path id="NanumGothic-51" d="M 4160 2093 
Q 4160 2925 3770 3494 
Q 3328 4141 2534 4141 
Q 1734 4141 1293 3494 
Q 902 2925 902 2093 
Q 902 1261 1293 691 
Q 1734 45 2534 45 
Q 3328 45 3770 691 
Q 4160 1261 4160 2093 
z
M 4294 -1069 
Q 4326 -1101 4316 -1129 
Q 4307 -1158 4269 -1158 
L 3904 -1158 
Q 3776 -1158 3686 -1069 
L 2931 -326 
Q 2848 -339 2752 -348 
Q 2656 -358 2534 -358 
Q 1517 -358 966 326 
Q 448 966 435 2093 
Q 429 3117 934 3802 
Q 1222 4154 1628 4349 
Q 2035 4544 2534 4544 
Q 3034 4544 3437 4349 
Q 3840 4154 4128 3802 
Q 4634 3117 4627 2093 
Q 4621 1670 4534 1305 
Q 4448 941 4301 653 
Q 4147 358 3913 137 
Q 3680 -83 3379 -198 
L 4294 -1069 
z
" transform="scale(0.015625)"/>
      <path id="NanumGothic-41" d="M 3386 1402 
Q 3117 2067 2870 2716 
Q 2624 3366 2355 4032 
Q 2086 3366 1827 2716 
Q 1568 2067 1299 1402 
L 3386 1402 
z
M 4499 -186 
Q 4531 -275 4442 -275 
L 4134 -275 
Q 4096 -275 4067 -262 
Q 4038 -250 4013 -186 
L 3539 992 
L 1133 992 
Q 1011 691 896 403 
Q 781 115 666 -186 
Q 640 -250 611 -262 
Q 582 -275 544 -275 
L 243 -275 
Q 154 -275 186 -186 
L 2067 4397 
Q 2099 4474 2182 4474 
L 2573 4474 
Q 2656 4474 2688 4397 
L 4499 -186 
z
" transform="scale(0.015625)"/>
     </defs>
     <use xlink:href="#NanumGothic-28"/>
     <use xlink:href="#NanumGothic-56" transform="translate(36.299988 0)"/>
     <use xlink:href="#NanumGothic-51" transform="translate(102.899979 0)"/>
     <use xlink:href="#NanumGothic-41" transform="translate(181.59996 0)"/>
     <use xlink:href="#NanumGothic-2c" transform="translate(254.299942 0)"/>
     <use xlink:href="#NanumGothic-20" transform="translate(284.59993 0)"/>
     <use xlink:href="#NanumGothic-63" transform="translate(312.599915 0)"/>
     <use xlink:href="#NanumGothic-61" transform="translate(360.999908 0)"/>
     <use xlink:href="#NanumGothic-70" transform="translate(415.499893 0)"/>
     <use xlink:href="#NanumGothic-74" transform="translate(476.099884 0)"/>
     <use xlink:href="#NanumGothic-69" transform="translate(512.399872 0)"/>
     <use xlink:href="#NanumGothic-6f" transform="translate(536.599869 0)"/>
     <use xlink:href="#NanumGothic-6e" transform="translate(597.19986 0)"/>
     <use xlink:href="#NanumGothic-69" transform="translate(657.79985 0)"/>
     <use xlink:href="#NanumGothic-6e" transform="translate(681.999847 0)"/>
     <use xlink:href="#NanumGothic-67" transform="translate(742.599838 0)"/>
     <use xlink:href="#NanumGothic-29" transform="translate(803.199829 0)"/>
    </g>
   </g>
   <g id="text_23">
    <!-- VI -->
    <g style="fill: #333333" transform="translate(446.12299 349.924322) scale(0.11 -0.11)">
     <defs>
      <path id="NanumGothic-49" d="M 1069 -186 
Q 1069 -275 979 -275 
L 672 -275 
Q 582 -275 582 -186 
L 582 4371 
Q 582 4461 672 4461 
L 979 4461 
Q 1069 4461 1069 4371 
L 1069 -186 
z
" transform="scale(0.015625)"/>
     </defs>
     <use xlink:href="#NanumGothic-56"/>
     <use xlink:href="#NanumGothic-49" transform="translate(66.599991 0)"/>
    </g>
   </g>
   <g id="text_24">
    <!-- Verbal instruction -->
    <g style="fill: #333333" transform="translate(504.70823 343.975494) scale(0.1 -0.1)">
     <use xlink:href="#NanumGothic-56"/>
     <use xlink:href="#NanumGothic-65" transform="translate(61.974991 0)"/>
     <use xlink:href="#NanumGothic-72" transform="translate(116.474976 0)"/>
     <use xlink:href="#NanumGothic-62" transform="translate(152.774963 0)"/>
     <use xlink:href="#NanumGothic-61" transform="translate(213.374954 0)"/>
     <use xlink:href="#NanumGothic-6c" transform="translate(267.874939 0)"/>
     <use xlink:href="#NanumGothic-20" transform="translate(292.074936 0)"/>
     <use xlink:href="#NanumGothic-69" transform="translate(320.074921 0)"/>
     <use xlink:href="#NanumGothic-6e" transform="translate(344.274918 0)"/>
     <use xlink:href="#NanumGothic-73" transform="translate(404.874908 0)"/>
     <use xlink:href="#NanumGothic-74" transform="translate(447.274902 0)"/>
     <use xlink:href="#NanumGothic-72" transform="translate(483.57489 0)"/>
     <use xlink:href="#NanumGothic-75" transform="translate(519.874878 0)"/>
     <use xlink:href="#NanumGothic-63" transform="translate(580.474869 0)"/>
     <use xlink:href="#NanumGothic-74" transform="translate(628.874863 0)"/>
     <use xlink:href="#NanumGothic-69" transform="translate(665.17485 0)"/>
     <use xlink:href="#NanumGothic-6f" transform="translate(689.374847 0)"/>
     <use xlink:href="#NanumGothic-6e" transform="translate(749.974838 0)"/>
    </g>
    <!-- (post-train only, 11%) -->
    <g style="fill: #333333" transform="translate(504.70823 355.306119) scale(0.1 -0.1)">
     <use xlink:href="#NanumGothic-28"/>
     <use xlink:href="#NanumGothic-70" transform="translate(36.299988 0)"/>
     <use xlink:href="#NanumGothic-6f" transform="translate(96.899979 0)"/>
     <use xlink:href="#NanumGothic-73" transform="translate(157.499969 0)"/>
     <use xlink:href="#NanumGothic-74" transform="translate(199.899963 0)"/>
     <use xlink:href="#NanumGothic-2d" transform="translate(236.199951 0)"/>
     <use xlink:href="#NanumGothic-74" transform="translate(272.499939 0)"/>
     <use xlink:href="#NanumGothic-72" transform="translate(308.799927 0)"/>
     <use xlink:href="#NanumGothic-61" transform="translate(345.099915 0)"/>
     <use xlink:href="#NanumGothic-69" transform="translate(399.599899 0)"/>
     <use xlink:href="#NanumGothic-6e" transform="translate(423.799896 0)"/>
     <use xlink:href="#NanumGothic-20" transform="translate(484.399887 0)"/>
     <use xlink:href="#NanumGothic-6f" transform="translate(512.399872 0)"/>
     <use xlink:href="#NanumGothic-6e" transform="translate(572.999863 0)"/>
     <use xlink:href="#NanumGothic-6c" transform="translate(633.599854 0)"/>
     <use xlink:href="#NanumGothic-79" transform="translate(657.79985 0)"/>
     <use xlink:href="#NanumGothic-2c" transform="translate(704.199844 0)"/>
     <use xlink:href="#NanumGothic-20" transform="translate(734.499832 0)"/>
     <use xlink:href="#NanumGothic-31" transform="translate(762.499817 0)"/>
     <use xlink:href="#NanumGothic-31" transform="translate(823.099808 0)"/>
     <use xlink:href="#NanumGothic-25" transform="translate(883.699799 0)"/>
     <use xlink:href="#NanumGothic-29" transform="translate(992.699783 0)"/>
    </g>
   </g>
   <g id="text_25">
    <!-- 각 source가 generalization의 다른 axis에 기여 -->
    <g style="fill: #333333" transform="translate(562.555127 32.84) scale(0.11 -0.11)">
     <defs>
      <path id="NanumGothic-ac01" d="M 3290 4243 
Q 3142 3354 2515 2675 
Q 1888 1997 698 1498 
Q 595 1453 557 1536 
L 461 1747 
Q 435 1798 457 1830 
Q 480 1862 512 1875 
Q 1530 2298 2109 2880 
Q 2688 3462 2810 4134 
Q 2848 4314 2656 4314 
L 685 4314 
Q 608 4314 608 4397 
L 608 4621 
Q 608 4698 685 4698 
L 2803 4698 
Q 3110 4698 3219 4589 
Q 3328 4480 3290 4243 
z
M 1197 1165 
Q 1197 1203 1229 1222 
Q 1261 1242 1293 1242 
L 4442 1242 
Q 4742 1242 4835 1130 
Q 4928 1018 4928 755 
L 4928 -832 
Q 4928 -922 4838 -922 
L 4576 -922 
Q 4486 -922 4486 -832 
L 4486 723 
Q 4486 813 4457 835 
Q 4429 858 4339 858 
L 1293 858 
Q 1261 858 1229 880 
Q 1197 902 1197 934 
L 1197 1165 
z
M 4928 1664 
Q 4928 1574 4838 1574 
L 4576 1574 
Q 4486 1574 4486 1664 
L 4486 4915 
Q 4486 5005 4576 5005 
L 4838 5005 
Q 4928 5005 4928 4915 
L 4928 3366 
L 5811 3366 
Q 5850 3366 5878 3344 
Q 5907 3322 5907 3283 
L 5907 3066 
Q 5907 3034 5878 3008 
Q 5850 2982 5811 2982 
L 4928 2982 
L 4928 1664 
z
" transform="scale(0.015625)"/>
      <path id="NanumGothic-ac00" d="M 3245 4064 
Q 3213 3514 3027 2982 
Q 2842 2451 2512 1968 
Q 2182 1485 1718 1072 
Q 1254 659 666 346 
Q 582 301 544 365 
L 403 589 
Q 358 666 429 698 
Q 973 979 1392 1340 
Q 1811 1702 2108 2124 
Q 2406 2547 2579 3014 
Q 2752 3482 2797 3974 
Q 2810 4070 2771 4105 
Q 2733 4141 2643 4141 
L 659 4141 
Q 582 4141 582 4224 
L 582 4448 
Q 582 4525 659 4525 
L 2765 4525 
Q 3066 4525 3162 4413 
Q 3258 4301 3245 4064 
z
M 4928 -806 
Q 4928 -896 4838 -896 
L 4576 -896 
Q 4486 -896 4486 -806 
L 4486 4915 
Q 4486 5005 4576 5005 
L 4838 5005 
Q 4928 5005 4928 4915 
L 4928 2650 
L 5811 2650 
Q 5850 2650 5878 2627 
Q 5907 2605 5907 2566 
L 5907 2349 
Q 5907 2317 5878 2291 
Q 5850 2266 5811 2266 
L 4928 2266 
L 4928 -806 
z
" transform="scale(0.015625)"/>
      <path id="NanumGothic-7a" d="M 454 -275 
Q 320 -275 297 -252 
Q 275 -230 275 -96 
L 275 6 
Q 275 90 326 147 
L 2387 2816 
L 448 2816 
Q 358 2816 358 2906 
L 358 3098 
Q 358 3187 448 3187 
L 2707 3187 
Q 2842 3187 2864 3164 
Q 2886 3142 2886 3008 
L 2886 2893 
Q 2886 2810 2842 2758 
L 774 83 
L 2797 83 
Q 2886 83 2886 -6 
L 2886 -186 
Q 2886 -275 2797 -275 
L 454 -275 
z
" transform="scale(0.015625)"/>
      <path id="NanumGothic-c758" d="M 5152 -806 
Q 5152 -896 5062 -896 
L 4800 -896 
Q 4710 -896 4710 -806 
L 4710 4915 
Q 4710 5005 4800 5005 
L 5062 5005 
Q 5152 5005 5152 4915 
L 5152 -806 
z
M 3693 3187 
Q 3693 2867 3577 2601 
Q 3462 2336 3257 2144 
Q 3053 1952 2771 1846 
Q 2490 1741 2157 1741 
Q 1830 1741 1555 1846 
Q 1280 1952 1078 2144 
Q 877 2336 761 2601 
Q 646 2867 646 3187 
Q 646 3526 761 3795 
Q 877 4064 1078 4253 
Q 1280 4442 1555 4541 
Q 1830 4640 2157 4640 
Q 2464 4640 2742 4541 
Q 3021 4442 3232 4253 
Q 3443 4064 3568 3795 
Q 3693 3526 3693 3187 
z
M 3245 3194 
Q 3245 3456 3158 3654 
Q 3072 3853 2921 3984 
Q 2771 4115 2572 4179 
Q 2374 4243 2157 4243 
Q 1926 4243 1734 4176 
Q 1542 4109 1398 3977 
Q 1254 3846 1174 3651 
Q 1094 3456 1094 3194 
Q 1094 2701 1385 2416 
Q 1677 2131 2157 2131 
Q 2374 2131 2572 2204 
Q 2771 2278 2921 2412 
Q 3072 2547 3158 2745 
Q 3245 2944 3245 3194 
z
M 4294 1069 
Q 4326 1075 4355 1059 
Q 4384 1043 4390 1018 
L 4422 800 
Q 4429 723 4346 704 
Q 4134 666 3884 630 
Q 3635 595 3369 563 
Q 3104 531 2835 505 
Q 2566 480 2310 461 
Q 2112 448 1846 435 
Q 1581 422 1305 412 
Q 1030 403 780 400 
Q 531 397 371 403 
Q 333 403 304 428 
Q 275 454 275 486 
L 275 704 
Q 275 742 304 764 
Q 333 787 371 787 
Q 557 787 816 790 
Q 1075 794 1347 800 
Q 1619 806 1872 816 
Q 2125 826 2298 838 
Q 2522 851 2800 876 
Q 3078 902 3353 934 
Q 3629 966 3878 1001 
Q 4128 1037 4294 1069 
z
" transform="scale(0.015625)"/>
      <path id="NanumGothic-b2e4" d="M 4019 1171 
Q 4032 1082 3936 1062 
Q 3699 1005 3337 953 
Q 2976 902 2576 864 
Q 2176 826 1785 806 
Q 1395 787 1107 794 
Q 819 800 713 928 
Q 608 1056 608 1325 
L 608 4077 
Q 608 4346 710 4435 
Q 813 4525 1094 4525 
L 3296 4525 
Q 3379 4525 3379 4448 
L 3379 4218 
Q 3379 4141 3296 4141 
L 1178 4141 
Q 1088 4141 1069 4118 
Q 1050 4096 1050 4000 
L 1050 1357 
Q 1050 1261 1082 1229 
Q 1114 1197 1203 1190 
Q 1510 1178 1852 1194 
Q 2195 1210 2544 1245 
Q 2893 1280 3229 1328 
Q 3565 1376 3866 1434 
Q 3968 1453 3987 1363 
L 4019 1171 
z
M 4928 -806 
Q 4928 -896 4838 -896 
L 4576 -896 
Q 4486 -896 4486 -806 
L 4486 4915 
Q 4486 5005 4576 5005 
L 4838 5005 
Q 4928 5005 4928 4915 
L 4928 2586 
L 5811 2586 
Q 5850 2586 5878 2563 
Q 5907 2541 5907 2502 
L 5907 2285 
Q 5907 2253 5878 2227 
Q 5850 2202 5811 2202 
L 4928 2202 
L 4928 -806 
z
" transform="scale(0.015625)"/>
      <path id="NanumGothic-b978" d="M 5728 1734 
Q 5760 1734 5792 1712 
Q 5824 1690 5824 1651 
L 5824 1434 
Q 5824 1402 5792 1376 
Q 5760 1350 5728 1350 
L 288 1350 
Q 250 1350 221 1376 
Q 192 1402 192 1434 
L 192 1651 
Q 192 1690 221 1712 
Q 250 1734 288 1734 
L 5728 1734 
z
M 5082 -704 
Q 5082 -742 5050 -761 
Q 5018 -781 4986 -781 
L 1562 -781 
Q 1261 -781 1168 -656 
Q 1075 -531 1075 -269 
L 1075 749 
Q 1075 838 1165 838 
L 1427 838 
Q 1517 838 1517 749 
L 1517 -262 
Q 1517 -352 1545 -374 
Q 1574 -397 1664 -397 
L 4986 -397 
Q 5018 -397 5050 -419 
Q 5082 -442 5082 -474 
L 5082 -704 
z
M 5043 2406 
Q 5043 2374 5014 2352 
Q 4986 2330 4960 2330 
L 1587 2330 
Q 1286 2330 1193 2442 
Q 1101 2554 1101 2822 
L 1101 3328 
Q 1101 3603 1213 3692 
Q 1325 3782 1613 3782 
L 4333 3782 
Q 4422 3782 4444 3808 
Q 4467 3834 4467 3930 
L 4467 4352 
Q 4467 4448 4444 4473 
Q 4422 4499 4333 4499 
L 1190 4499 
Q 1158 4499 1129 4518 
Q 1101 4538 1101 4570 
L 1101 4800 
Q 1101 4832 1129 4851 
Q 1158 4870 1190 4870 
L 4403 4870 
Q 4557 4870 4653 4848 
Q 4749 4826 4806 4774 
Q 4864 4723 4886 4630 
Q 4909 4538 4909 4403 
L 4909 3878 
Q 4909 3603 4797 3513 
Q 4685 3424 4397 3424 
L 1670 3424 
Q 1581 3424 1558 3398 
Q 1536 3373 1536 3277 
L 1536 2842 
Q 1536 2752 1561 2723 
Q 1587 2694 1677 2694 
L 4954 2694 
Q 4986 2694 5014 2675 
Q 5043 2656 5043 2624 
L 5043 2406 
z
" transform="scale(0.015625)"/>
      <path id="NanumGothic-c5d0" d="M 4230 -563 
Q 4230 -653 4141 -653 
L 3898 -653 
Q 3808 -653 3808 -563 
L 3808 2419 
L 3085 2419 
Q 3059 1978 2944 1648 
Q 2829 1318 2643 1097 
Q 2458 877 2218 768 
Q 1978 659 1709 659 
Q 1421 659 1177 784 
Q 934 909 755 1155 
Q 576 1402 473 1773 
Q 371 2144 371 2643 
Q 371 3142 473 3510 
Q 576 3878 758 4124 
Q 941 4371 1184 4489 
Q 1427 4608 1715 4608 
Q 1990 4608 2230 4499 
Q 2470 4390 2656 4166 
Q 2842 3942 2954 3603 
Q 3066 3264 3085 2803 
L 3808 2803 
L 3808 4806 
Q 3808 4896 3898 4896 
L 4141 4896 
Q 4230 4896 4230 4806 
L 4230 -563 
z
M 2643 2643 
Q 2643 2938 2585 3219 
Q 2528 3501 2413 3725 
Q 2298 3949 2122 4086 
Q 1946 4224 1709 4224 
Q 1459 4224 1289 4083 
Q 1120 3942 1014 3715 
Q 909 3488 864 3206 
Q 819 2925 819 2643 
Q 819 2362 870 2077 
Q 922 1792 1027 1561 
Q 1133 1331 1302 1187 
Q 1472 1043 1709 1043 
Q 1946 1043 2122 1184 
Q 2298 1325 2413 1552 
Q 2528 1779 2585 2067 
Q 2643 2355 2643 2643 
z
M 5363 -806 
Q 5363 -896 5274 -896 
L 5030 -896 
Q 4941 -896 4941 -806 
L 4941 4915 
Q 4941 5005 5030 5005 
L 5274 5005 
Q 5363 5005 5363 4915 
L 5363 -806 
z
" transform="scale(0.015625)"/>
      <path id="NanumGothic-ae30" d="M 5152 -806 
Q 5152 -896 5062 -896 
L 4800 -896 
Q 4710 -896 4710 -806 
L 4710 4915 
Q 4710 5005 4800 5005 
L 5062 5005 
Q 5152 5005 5152 4915 
L 5152 -806 
z
M 3437 4064 
Q 3405 3514 3219 2982 
Q 3034 2451 2704 1968 
Q 2374 1485 1910 1072 
Q 1446 659 858 346 
Q 774 301 736 365 
L 595 589 
Q 550 666 621 698 
Q 1165 979 1584 1340 
Q 2003 1702 2300 2124 
Q 2598 2547 2771 3014 
Q 2944 3482 2989 3974 
Q 3002 4070 2963 4105 
Q 2925 4141 2835 4141 
L 800 4141 
Q 723 4141 723 4224 
L 723 4448 
Q 723 4525 800 4525 
L 2957 4525 
Q 3258 4525 3354 4413 
Q 3450 4301 3437 4064 
z
" transform="scale(0.015625)"/>
      <path id="NanumGothic-c5ec" d="M 5152 -806 
Q 5152 -896 5062 -896 
L 4800 -896 
Q 4710 -896 4710 -806 
L 4710 1446 
L 3354 1446 
Q 3264 1248 3142 1075 
Q 3021 902 2857 777 
Q 2694 653 2489 582 
Q 2285 512 2035 512 
Q 1613 512 1321 697 
Q 1030 883 854 1180 
Q 678 1478 601 1843 
Q 525 2208 525 2566 
Q 525 2944 601 3312 
Q 678 3680 854 3974 
Q 1030 4269 1321 4448 
Q 1613 4627 2035 4627 
Q 2285 4627 2486 4560 
Q 2688 4493 2851 4371 
Q 3014 4250 3136 4083 
Q 3258 3917 3347 3718 
L 4710 3718 
L 4710 4915 
Q 4710 5005 4800 5005 
L 5062 5005 
Q 5152 5005 5152 4915 
L 5152 -806 
z
M 3117 2573 
Q 3117 2861 3056 3155 
Q 2995 3450 2867 3686 
Q 2739 3923 2534 4070 
Q 2330 4218 2035 4218 
Q 1728 4218 1526 4070 
Q 1325 3923 1203 3686 
Q 1082 3450 1030 3155 
Q 979 2861 979 2573 
Q 979 2298 1027 2003 
Q 1075 1709 1196 1469 
Q 1318 1229 1523 1075 
Q 1728 922 2035 922 
Q 2330 922 2534 1075 
Q 2739 1229 2867 1469 
Q 2995 1709 3056 2003 
Q 3117 2298 3117 2573 
z
M 3571 2566 
Q 3571 2189 3475 1824 
L 4710 1824 
L 4710 3341 
L 3475 3341 
Q 3571 2963 3571 2566 
z
" transform="scale(0.015625)"/>
     </defs>
     <use xlink:href="#NanumGothic-ac01"/>
     <use xlink:href="#NanumGothic-20" transform="translate(93.999985 0)"/>
     <use xlink:href="#NanumGothic-73" transform="translate(121.999969 0)"/>
     <use xlink:href="#NanumGothic-6f" transform="translate(164.399963 0)"/>
     <use xlink:href="#NanumGothic-75" transform="translate(224.999954 0)"/>
     <use xlink:href="#NanumGothic-72" transform="translate(285.599945 0)"/>
     <use xlink:href="#NanumGothic-63" transform="translate(321.899933 0)"/>
     <use xlink:href="#NanumGothic-65" transform="translate(370.299927 0)"/>
     <use xlink:href="#NanumGothic-ac00" transform="translate(424.799911 0)"/>
     <use xlink:href="#NanumGothic-20" transform="translate(518.799896 0)"/>
     <use xlink:href="#NanumGothic-67" transform="translate(546.799881 0)"/>
     <use xlink:href="#NanumGothic-65" transform="translate(607.399872 0)"/>
     <use xlink:href="#NanumGothic-6e" transform="translate(661.899857 0)"/>
     <use xlink:href="#NanumGothic-65" transform="translate(722.499847 0)"/>
     <use xlink:href="#NanumGothic-72" transform="translate(776.999832 0)"/>
     <use xlink:href="#NanumGothic-61" transform="translate(813.29982 0)"/>
     <use xlink:href="#NanumGothic-6c" transform="translate(867.799805 0)"/>
     <use xlink:href="#NanumGothic-69" transform="translate(891.999802 0)"/>
     <use xlink:href="#NanumGothic-7a" transform="translate(916.199799 0)"/>
     <use xlink:href="#NanumGothic-61" transform="translate(964.599792 0)"/>
     <use xlink:href="#NanumGothic-74" transform="translate(1019.099777 0)"/>
     <use xlink:href="#NanumGothic-69" transform="translate(1055.399765 0)"/>
     <use xlink:href="#NanumGothic-6f" transform="translate(1079.599762 0)"/>
     <use xlink:href="#NanumGothic-6e" transform="translate(1140.199753 0)"/>
     <use xlink:href="#NanumGothic-c758" transform="translate(1200.799744 0)"/>
     <use xlink:href="#NanumGothic-20" transform="translate(1294.799728 0)"/>
     <use xlink:href="#NanumGothic-b2e4" transform="translate(1322.799713 0)"/>
     <use xlink:href="#NanumGothic-b978" transform="translate(1416.799698 0)"/>
     <use xlink:href="#NanumGothic-20" transform="translate(1510.799683 0)"/>
     <use xlink:href="#NanumGothic-61" transform="translate(1538.799667 0)"/>
     <use xlink:href="#NanumGothic-78" transform="translate(1593.299652 0)"/>
     <use xlink:href="#NanumGothic-69" transform="translate(1644.299637 0)"/>
     <use xlink:href="#NanumGothic-73" transform="translate(1668.499634 0)"/>
     <use xlink:href="#NanumGothic-c5d0" transform="translate(1710.899628 0)"/>
     <use xlink:href="#NanumGothic-20" transform="translate(1804.899612 0)"/>
     <use xlink:href="#NanumGothic-ae30" transform="translate(1832.899597 0)"/>
     <use xlink:href="#NanumGothic-c5ec" transform="translate(1926.899582 0)"/>
    </g>
   </g>
  </g>
  <g id="text_26">
   <!-- π0.5 Pre-training Data: 5+ source heterogeneous co-training -->
   <g transform="translate(266.159128 17.741562) scale(0.14 -0.14)">
    <defs>
     <path id="NanumGothic-3c0" d="M 2835 326 
Q 2810 141 2768 13 
Q 2726 -115 2652 -192 
Q 2579 -269 2476 -304 
Q 2374 -339 2234 -339 
Q 1978 -339 1827 -201 
Q 1677 -64 1677 282 
L 1677 2739 
L 1152 2739 
L 1152 467 
Q 1152 262 1107 108 
Q 1062 -45 973 -141 
Q 864 -250 685 -291 
Q 506 -333 237 -333 
L 237 51 
Q 390 51 496 67 
Q 602 83 666 141 
Q 755 243 755 467 
L 755 2739 
L 83 2739 
L 83 3085 
L 2771 3085 
L 2771 2739 
L 2086 2739 
L 2086 320 
Q 2086 147 2124 92 
Q 2163 38 2266 38 
Q 2374 38 2412 105 
Q 2451 173 2483 416 
L 2835 326 
z
" transform="scale(0.015625)"/>
     <path id="NanumGothic-50" d="M 3008 3123 
Q 3008 3578 2771 3824 
Q 2534 4070 2074 4070 
L 1114 4070 
L 1114 2157 
L 1632 2157 
Q 1939 2157 2185 2189 
Q 2432 2221 2608 2323 
Q 2784 2426 2886 2614 
Q 2989 2803 3008 3123 
z
M 1114 -186 
Q 1114 -275 1024 -275 
L 736 -275 
Q 646 -275 646 -186 
L 646 4282 
Q 646 4422 675 4448 
Q 704 4474 838 4474 
L 1978 4474 
Q 2682 4474 3078 4134 
Q 3488 3782 3488 3123 
Q 3488 2790 3369 2531 
Q 3251 2272 3040 2096 
Q 2829 1920 2541 1830 
Q 2253 1741 1926 1754 
L 1114 1754 
L 1114 -186 
z
" transform="scale(0.015625)"/>
     <path id="NanumGothic-3a" d="M 646 3526 
Q 646 3674 755 3782 
Q 864 3891 1011 3891 
Q 1158 3891 1267 3782 
Q 1376 3674 1376 3526 
Q 1376 3379 1267 3270 
Q 1158 3162 1011 3162 
Q 864 3162 755 3270 
Q 646 3379 646 3526 
z
M 646 640 
Q 646 787 755 896 
Q 864 1005 1011 1005 
Q 1158 1005 1267 896 
Q 1376 787 1376 640 
Q 1376 493 1267 384 
Q 1158 275 1011 275 
Q 864 275 755 384 
Q 646 493 646 640 
z
" transform="scale(0.015625)"/>
     <path id="NanumGothic-2b" d="M 3846 1971 
Q 3846 1882 3830 1869 
Q 3814 1856 3725 1856 
L 2342 1856 
L 2342 474 
Q 2342 390 2329 377 
Q 2317 365 2234 365 
L 1984 365 
Q 1901 365 1888 377 
Q 1875 390 1875 474 
L 1875 1856 
L 499 1856 
Q 410 1856 394 1869 
Q 378 1882 378 1971 
L 378 2202 
Q 378 2291 394 2304 
Q 410 2317 499 2317 
L 1875 2317 
L 1875 3686 
Q 1875 3776 1891 3789 
Q 1907 3802 1997 3802 
L 2221 3802 
Q 2310 3802 2326 3789 
Q 2342 3776 2342 3686 
L 2342 2317 
L 3725 2317 
Q 3814 2317 3830 2304 
Q 3846 2291 3846 2202 
L 3846 1971 
z
" transform="scale(0.015625)"/>
    </defs>
    <use xlink:href="#NanumGothic-3c0"/>
    <use xlink:href="#NanumGothic-30" transform="translate(45.899994 0)"/>
    <use xlink:href="#NanumGothic-2e" transform="translate(106.499985 0)"/>
    <use xlink:href="#NanumGothic-35" transform="translate(136.799973 0)"/>
    <use xlink:href="#NanumGothic-20" transform="translate(197.399963 0)"/>
    <use xlink:href="#NanumGothic-50" transform="translate(225.399948 0)"/>
    <use xlink:href="#NanumGothic-72" transform="translate(283.099945 0)"/>
    <use xlink:href="#NanumGothic-65" transform="translate(319.399933 0)"/>
    <use xlink:href="#NanumGothic-2d" transform="translate(373.899918 0)"/>
    <use xlink:href="#NanumGothic-74" transform="translate(410.199905 0)"/>
    <use xlink:href="#NanumGothic-72" transform="translate(446.499893 0)"/>
    <use xlink:href="#NanumGothic-61" transform="translate(482.799881 0)"/>
    <use xlink:href="#NanumGothic-69" transform="translate(537.299866 0)"/>
    <use xlink:href="#NanumGothic-6e" transform="translate(561.499863 0)"/>
    <use xlink:href="#NanumGothic-69" transform="translate(622.099854 0)"/>
    <use xlink:href="#NanumGothic-6e" transform="translate(646.29985 0)"/>
    <use xlink:href="#NanumGothic-67" transform="translate(706.899841 0)"/>
    <use xlink:href="#NanumGothic-20" transform="translate(767.499832 0)"/>
    <use xlink:href="#NanumGothic-44" transform="translate(795.499817 0)"/>
    <use xlink:href="#NanumGothic-61" transform="translate(868.199799 0)"/>
    <use xlink:href="#NanumGothic-74" transform="translate(922.699783 0)"/>
    <use xlink:href="#NanumGothic-61" transform="translate(958.999771 0)"/>
    <use xlink:href="#NanumGothic-3a" transform="translate(1013.499756 0)"/>
    <use xlink:href="#NanumGothic-20" transform="translate(1043.799744 0)"/>
    <use xlink:href="#NanumGothic-35" transform="translate(1071.799728 0)"/>
    <use xlink:href="#NanumGothic-2b" transform="translate(1132.399719 0)"/>
    <use xlink:href="#NanumGothic-20" transform="translate(1197.799713 0)"/>
    <use xlink:href="#NanumGothic-73" transform="translate(1225.799698 0)"/>
    <use xlink:href="#NanumGothic-6f" transform="translate(1268.199692 0)"/>
    <use xlink:href="#NanumGothic-75" transform="translate(1328.799683 0)"/>
    <use xlink:href="#NanumGothic-72" transform="translate(1389.399673 0)"/>
    <use xlink:href="#NanumGothic-63" transform="translate(1425.699661 0)"/>
    <use xlink:href="#NanumGothic-65" transform="translate(1474.099655 0)"/>
    <use xlink:href="#NanumGothic-20" transform="translate(1528.59964 0)"/>
    <use xlink:href="#NanumGothic-68" transform="translate(1556.599625 0)"/>
    <use xlink:href="#NanumGothic-65" transform="translate(1617.199615 0)"/>
    <use xlink:href="#NanumGothic-74" transform="translate(1671.6996 0)"/>
    <use xlink:href="#NanumGothic-65" transform="translate(1707.999588 0)"/>
    <use xlink:href="#NanumGothic-72" transform="translate(1762.499573 0)"/>
    <use xlink:href="#NanumGothic-6f" transform="translate(1798.799561 0)"/>
    <use xlink:href="#NanumGothic-67" transform="translate(1859.399551 0)"/>
    <use xlink:href="#NanumGothic-65" transform="translate(1919.999542 0)"/>
    <use xlink:href="#NanumGothic-6e" transform="translate(1974.499527 0)"/>
    <use xlink:href="#NanumGothic-65" transform="translate(2035.099518 0)"/>
    <use xlink:href="#NanumGothic-6f" transform="translate(2089.599503 0)"/>
    <use xlink:href="#NanumGothic-75" transform="translate(2150.199493 0)"/>
    <use xlink:href="#NanumGothic-73" transform="translate(2210.799484 0)"/>
    <use xlink:href="#NanumGothic-20" transform="translate(2253.199478 0)"/>
    <use xlink:href="#NanumGothic-63" transform="translate(2281.199463 0)"/>
    <use xlink:href="#NanumGothic-6f" transform="translate(2329.599457 0)"/>
    <use xlink:href="#NanumGothic-2d" transform="translate(2390.199448 0)"/>
    <use xlink:href="#NanumGothic-74" transform="translate(2426.499435 0)"/>
    <use xlink:href="#NanumGothic-72" transform="translate(2462.799423 0)"/>
    <use xlink:href="#NanumGothic-61" transform="translate(2499.099411 0)"/>
    <use xlink:href="#NanumGothic-69" transform="translate(2553.599396 0)"/>
    <use xlink:href="#NanumGothic-6e" transform="translate(2577.799393 0)"/>
    <use xlink:href="#NanumGothic-69" transform="translate(2638.399384 0)"/>
    <use xlink:href="#NanumGothic-6e" transform="translate(2662.59938 0)"/>
    <use xlink:href="#NanumGothic-67" transform="translate(2723.199371 0)"/>
   </g>
  </g>
 </g>
 <defs>
  <clipPath id="p2aba8946bd">
   <rect x="437.109877" y="42.84" width="473.18847" height="336.6"/>
  </clipPath>
 </defs>
</svg>
