<?xml version="1.0" encoding="utf-8" standalone="no"?>
<!DOCTYPE svg PUBLIC "-//W3C//DTD SVG 1.1//EN"
  "http://www.w3.org/Graphics/SVG/1.1/DTD/svg11.dtd">
<svg xmlns:xlink="http://www.w3.org/1999/xlink" width="912.96pt" height="454.32pt" viewBox="0 0 912.96 454.32" xmlns="http://www.w3.org/2000/svg" version="1.1">
 <metadata>
  <rdf:RDF xmlns:dc="http://purl.org/dc/elements/1.1/" xmlns:cc="http://creativecommons.org/ns#" xmlns:rdf="http://www.w3.org/1999/02/22-rdf-syntax-ns#">
   <cc:Work>
    <dc:type rdf:resource="http://purl.org/dc/dcmitype/StillImage"/>
    <dc:date>2026-05-29T09:52:43.156526</dc:date>
    <dc:format>image/svg+xml</dc:format>
    <dc:creator>
     <cc:Agent>
      <dc:title>Matplotlib v3.10.9, https://matplotlib.org/</dc:title>
     </cc:Agent>
    </dc:creator>
   </cc:Work>
  </rdf:RDF>
 </metadata>
 <defs>
  <style type="text/css">*{stroke-linejoin: round; stroke-linecap: butt}</style>
 </defs>
 <g id="figure_1">
  <g id="patch_1">
   <path d="M 0 454.32 
L 912.96 454.32 
L 912.96 0 
L 0 0 
z
" style="fill: #ffffff"/>
  </g>
  <g id="axes_1">
   <g id="patch_2">
    <path d="M 7.2 447.12 
L 905.76 447.12 
L 905.76 30.6 
L 7.2 30.6 
z
" style="fill: #ffffff"/>
   </g>
   <g id="patch_3">
    <path d="M 29.022171 294.0489 
L 184.344686 294.0489 
Q 190.762971 294.0489 190.762971 288.8424 
L 190.762971 188.8776 
Q 190.762971 183.6711 184.344686 183.6711 
L 29.022171 183.6711 
Q 22.603886 183.6711 22.603886 188.8776 
L 22.603886 288.8424 
Q 22.603886 294.0489 29.022171 294.0489 
z
" clip-path="url(#p6d4e7bae78)" style="fill: #fafafa; stroke: #7a7a7a; stroke-width: 1.3; stroke-linejoin: miter"/>
   </g>
   <g id="patch_4">
    <path d="M 240.8256 215.9514 
L 524.513829 215.9514 
Q 530.932114 215.9514 530.932114 210.7449 
L 530.932114 79.5411 
Q 530.932114 74.3346 524.513829 74.3346 
L 240.8256 74.3346 
Q 234.407314 74.3346 234.407314 79.5411 
L 234.407314 210.7449 
Q 234.407314 215.9514 240.8256 215.9514 
z
" clip-path="url(#p6d4e7bae78)" style="fill: #a8a3d4; opacity: 0.5; stroke: #5b56b5; stroke-width: 1.8; stroke-linejoin: miter"/>
   </g>
   <g id="patch_5">
    <path d="M 567.516343 205.01775 
L 743.377371 205.01775 
Q 748.512 205.01775 748.512 200.85255 
L 748.512 89.43345 
Q 748.512 85.26825 743.377371 85.26825 
L 567.516343 85.26825 
Q 562.381714 85.26825 562.381714 89.43345 
L 562.381714 200.85255 
Q 562.381714 205.01775 567.516343 205.01775 
z
" clip-path="url(#p6d4e7bae78)" style="fill: #fff4e0; stroke: #c8694f; stroke-width: 1.5; stroke-linejoin: miter"/>
   </g>
   <g id="patch_6">
    <path d="M 240.8256 408.5919 
L 524.513829 408.5919 
Q 530.932114 408.5919 530.932114 403.3854 
L 530.932114 272.1816 
Q 530.932114 266.9751 524.513829 266.9751 
L 240.8256 266.9751 
Q 234.407314 266.9751 234.407314 272.1816 
L 234.407314 403.3854 
Q 234.407314 408.5919 240.8256 408.5919 
z
" clip-path="url(#p6d4e7bae78)" style="fill: #d8eee0; opacity: 0.6; stroke: #3da084; stroke-width: 1.8; stroke-linejoin: miter"/>
   </g>
   <g id="patch_7">
    <path d="M 599.607771 400.2615 
L 871.743086 400.2615 
Q 876.877714 400.2615 876.877714 396.0963 
L 876.877714 295.0902 
Q 876.877714 290.925 871.743086 290.925 
L 599.607771 290.925 
Q 594.473143 290.925 594.473143 295.0902 
L 594.473143 396.0963 
Q 594.473143 400.2615 599.607771 400.2615 
z
" clip-path="url(#p6d4e7bae78)" style="fill: #e7e6e2; opacity: 0.7; stroke: #7a7a7a; stroke-width: 1.4; stroke-linejoin: miter"/>
   </g>
   <g id="patch_8">
    <path d="M 191.429166 211.311692 
Q 212.585547 186.794531 232.646294 163.547051 
" clip-path="url(#p6d4e7bae78)" style="fill: none; stroke: #7a7a7a; stroke-width: 1.5; stroke-linecap: round"/>
    <path d="M 225.216937 166.646189 
L 232.646294 163.547051 
L 230.667991 171.350019 
z
" clip-path="url(#p6d4e7bae78)" style="fill: #7a7a7a; stroke: #7a7a7a; stroke-width: 1.5; stroke-linecap: round"/>
   </g>
   <g id="patch_9">
    <path d="M 532.292083 142.53975 
Q 546.335992 142.53975 558.36744 142.53975 
" clip-path="url(#p6d4e7bae78)" style="fill: none; stroke: #c8694f; stroke-width: 1.8; stroke-linecap: round"/>
    <path d="M 551.16744 138.93975 
L 558.36744 142.53975 
L 551.16744 146.13975 
z
" clip-path="url(#p6d4e7bae78)" style="fill: #c8694f; stroke: #c8694f; stroke-width: 1.8; stroke-linecap: round"/>
   </g>
   <g id="patch_10">
    <path d="M 653.859177 206.230706 
Q 552.734203 283.060502 428.044675 270.473448 
" clip-path="url(#p6d4e7bae78)" style="fill: none; stroke: #c8694f; stroke-width: 1.5; stroke-linecap: round"/>
    <path d="M 434.846696 274.778389 
L 428.044675 270.473448 
L 435.56984 267.614796 
z
" clip-path="url(#p6d4e7bae78)" style="fill: #c8694f; stroke: #c8694f; stroke-width: 1.5; stroke-linecap: round"/>
   </g>
   <g id="patch_11">
    <path d="M 191.608388 266.231931 
Q 223.040151 294.895119 234.129211 334.455688 
" clip-path="url(#p6d4e7bae78)" style="fill: none; stroke: #7a7a7a; stroke-width: 1.3; stroke-linecap: round"/>
    <path d="M 235.398455 327.868654 
L 234.129211 334.455688 
L 229.62113 329.488072 
z
" clip-path="url(#p6d4e7bae78)" style="fill: #7a7a7a; stroke: #7a7a7a; stroke-width: 1.3; stroke-linecap: round"/>
   </g>
   <g id="patch_12">
    <path d="M 532.276413 338.025171 
Q 562.382075 341.688419 590.490011 345.108584 
" clip-path="url(#p6d4e7bae78)" style="fill: none; stroke: #3da084; stroke-width: 1.8; stroke-linecap: round"/>
    <path d="M 583.777567 340.665263 
L 590.490011 345.108584 
L 582.907888 347.812546 
z
" clip-path="url(#p6d4e7bae78)" style="fill: #3da084; stroke: #3da084; stroke-width: 1.8; stroke-linecap: round"/>
   </g>
   <g id="patch_13">
    <path d="M 316.561371 62.8803 
L 570.725486 62.8803 
Q 573.2928 62.8803 573.2928 60.7977 
L 573.2928 36.8478 
Q 573.2928 34.7652 570.725486 34.7652 
L 316.561371 34.7652 
Q 313.994057 34.7652 313.994057 36.8478 
L 313.994057 60.7977 
Q 313.994057 62.8803 316.561371 62.8803 
z
" clip-path="url(#p6d4e7bae78)" style="fill: #fff8e7; stroke: #d4a05a; stroke-linejoin: miter"/>
   </g>
   <g id="matplotlib.axis_1"/>
   <g id="matplotlib.axis_2"/>
   <g id="text_1">
    <!-- Input -->
    <g style="fill: #333333" transform="translate(92.146554 210.22425) scale(0.12 -0.12)">
     <defs>
      <path id="NanumGothic-49" d="M 1069 -186 
Q 1069 -275 979 -275 
L 672 -275 
Q 582 -275 582 -186 
L 582 4371 
Q 582 4461 672 4461 
L 979 4461 
Q 1069 4461 1069 4371 
L 1069 -186 
z
" transform="scale(0.015625)"/>
      <path id="NanumGothic-6e" d="M 3334 -186 
Q 3334 -275 3245 -275 
L 2989 -275 
Q 2899 -275 2899 -186 
L 2899 1830 
Q 2899 2419 2688 2665 
Q 2477 2912 2093 2912 
Q 1574 2912 1302 2624 
Q 1030 2336 1030 1818 
L 1030 -186 
Q 1030 -275 941 -275 
L 685 -275 
Q 595 -275 595 -186 
L 595 2374 
Q 595 2650 592 2803 
Q 589 2957 576 3098 
Q 570 3142 598 3164 
Q 627 3187 666 3187 
L 896 3187 
Q 986 3187 986 3098 
L 986 2746 
Q 1165 3021 1417 3149 
Q 1670 3277 2112 3277 
Q 2720 3277 3027 2925 
Q 3334 2573 3334 1933 
L 3334 -186 
z
" transform="scale(0.015625)"/>
      <path id="NanumGothic-70" d="M 2989 1504 
Q 2989 1766 2937 2012 
Q 2886 2259 2764 2451 
Q 2643 2643 2451 2761 
Q 2259 2880 1971 2880 
Q 1709 2880 1517 2771 
Q 1325 2662 1200 2473 
Q 1075 2285 1011 2035 
Q 947 1786 947 1504 
Q 947 762 1225 381 
Q 1504 0 1971 0 
Q 2214 0 2403 105 
Q 2592 211 2723 409 
Q 2854 608 2921 883 
Q 2989 1158 2989 1504 
z
M 518 3098 
Q 518 3187 608 3187 
L 851 3187 
Q 941 3187 941 3098 
L 909 2618 
Q 1037 2899 1341 3072 
Q 1645 3245 2048 3245 
Q 2426 3245 2691 3110 
Q 2957 2976 3126 2742 
Q 3296 2509 3376 2189 
Q 3456 1869 3456 1504 
Q 3456 1107 3363 768 
Q 3270 429 3094 179 
Q 2918 -70 2656 -214 
Q 2394 -358 2048 -358 
Q 1658 -358 1376 -208 
Q 1094 -58 947 211 
L 947 -1165 
Q 947 -1254 858 -1254 
L 614 -1254 
Q 576 -1254 547 -1228 
Q 518 -1203 518 -1165 
L 518 3098 
z
" transform="scale(0.015625)"/>
      <path id="NanumGothic-75" d="M 3347 -186 
Q 3347 -275 3258 -275 
L 3027 -275 
Q 2938 -275 2938 -186 
L 2938 346 
Q 2771 -38 2492 -208 
Q 2214 -378 1792 -378 
Q 595 -378 595 960 
L 595 3098 
Q 595 3187 685 3187 
L 941 3187 
Q 1030 3187 1030 3098 
L 1030 1075 
Q 1030 -13 1862 -13 
Q 2106 -13 2301 92 
Q 2496 198 2630 380 
Q 2765 563 2835 806 
Q 2906 1050 2899 1318 
L 2899 3098 
Q 2899 3187 2989 3187 
L 3245 3187 
Q 3334 3187 3334 3098 
L 3334 525 
Q 3334 314 3337 147 
Q 3341 -19 3347 -186 
z
" transform="scale(0.015625)"/>
      <path id="NanumGothic-74" d="M 2208 -282 
Q 1939 -378 1677 -378 
Q 1158 -378 992 -38 
Q 883 192 883 774 
L 883 2816 
L 282 2816 
Q 192 2816 192 2906 
L 192 3098 
Q 192 3187 282 3187 
L 883 3187 
L 883 4051 
Q 883 4147 966 4147 
L 1235 4147 
Q 1318 4147 1318 4051 
L 1318 3187 
L 2029 3187 
Q 2118 3187 2118 3098 
L 2118 2906 
Q 2118 2816 2029 2816 
L 1318 2816 
L 1318 557 
Q 1318 -13 1779 -13 
Q 1958 -13 2182 64 
Q 2214 77 2243 64 
Q 2272 51 2272 13 
L 2285 -154 
Q 2298 -243 2208 -282 
z
" transform="scale(0.015625)"/>
     </defs>
     <use xlink:href="#NanumGothic-49"/>
     <use xlink:href="#NanumGothic-6e" transform="translate(24.199997 0)"/>
     <use xlink:href="#NanumGothic-70" transform="translate(84.799988 0)"/>
     <use xlink:href="#NanumGothic-75" transform="translate(145.399979 0)"/>
     <use xlink:href="#NanumGothic-74" transform="translate(205.999969 0)"/>
    </g>
   </g>
   <g id="text_2">
    <!-- observation o$_t$ -->
    <g style="fill: #333333" transform="translate(73.733429 230.4795) scale(0.1 -0.1)">
     <defs>
      <path id="NanumGothic-6f" d="M 3130 1453 
Q 3130 1754 3050 2016 
Q 2970 2278 2829 2483 
Q 2496 2893 1965 2893 
Q 1696 2893 1481 2787 
Q 1267 2682 1101 2483 
Q 954 2278 874 2016 
Q 794 1754 794 1453 
Q 794 1146 874 883 
Q 954 621 1101 422 
Q 1440 6 1965 6 
Q 2234 6 2448 115 
Q 2662 224 2829 422 
Q 2970 621 3050 883 
Q 3130 1146 3130 1453 
z
M 3603 1453 
Q 3603 1075 3494 752 
Q 3386 429 3206 186 
Q 2982 -83 2672 -230 
Q 2362 -378 1965 -378 
Q 1568 -378 1254 -230 
Q 941 -83 717 186 
Q 538 429 432 752 
Q 326 1075 326 1453 
Q 326 2227 717 2720 
Q 1165 3277 1965 3277 
Q 2368 3277 2675 3139 
Q 2982 3002 3206 2720 
Q 3603 2214 3603 1453 
z
" transform="scale(0.015625)"/>
      <path id="NanumGothic-62" d="M 3066 1478 
Q 3072 1747 3017 2003 
Q 2963 2259 2841 2464 
Q 2720 2669 2518 2793 
Q 2317 2918 2022 2918 
Q 1760 2918 1565 2806 
Q 1370 2694 1242 2496 
Q 1114 2298 1050 2035 
Q 986 1773 986 1478 
Q 986 1190 1066 924 
Q 1146 659 1283 460 
Q 1421 262 1609 144 
Q 1798 26 2022 26 
Q 2317 26 2518 150 
Q 2720 275 2841 480 
Q 2963 685 3017 947 
Q 3072 1210 3066 1478 
z
M 557 4749 
Q 557 4838 646 4838 
L 896 4838 
Q 986 4838 986 4749 
L 986 2707 
Q 1146 2970 1440 3126 
Q 1734 3283 2099 3283 
Q 3526 3283 3526 1478 
Q 3533 1120 3453 790 
Q 3373 461 3193 211 
Q 3014 -38 2742 -188 
Q 2470 -339 2099 -339 
Q 1331 -339 986 314 
L 986 -186 
Q 986 -275 896 -275 
L 646 -275 
Q 557 -275 557 -186 
L 557 4749 
z
" transform="scale(0.015625)"/>
      <path id="NanumGothic-73" d="M 422 147 
Q 813 -13 1229 -13 
Q 1574 -13 1798 156 
Q 2022 326 2022 614 
Q 2022 781 1897 937 
Q 1773 1094 1594 1197 
Q 1395 1306 1187 1405 
Q 979 1504 787 1613 
Q 557 1741 448 1929 
Q 339 2118 339 2323 
Q 339 2560 428 2739 
Q 518 2918 672 3040 
Q 826 3162 1030 3219 
Q 1235 3277 1466 3277 
Q 1709 3277 1888 3251 
Q 2067 3226 2246 3174 
Q 2285 3162 2313 3136 
Q 2342 3110 2336 3066 
L 2317 2874 
Q 2310 2822 2278 2809 
Q 2246 2797 2214 2810 
Q 2054 2867 1894 2889 
Q 1734 2912 1510 2912 
Q 768 2912 768 2323 
Q 768 2195 867 2080 
Q 966 1965 1203 1850 
Q 1408 1747 1606 1654 
Q 1805 1562 2035 1434 
Q 2234 1325 2365 1101 
Q 2496 877 2496 614 
Q 2496 358 2393 172 
Q 2291 -13 2118 -134 
Q 1946 -256 1722 -317 
Q 1498 -378 1261 -378 
Q 1120 -378 1008 -371 
Q 896 -365 797 -352 
Q 698 -339 595 -320 
Q 493 -301 378 -269 
Q 288 -237 294 -154 
L 320 83 
Q 333 186 422 147 
z
" transform="scale(0.015625)"/>
      <path id="NanumGothic-65" d="M 2733 1696 
Q 2733 1958 2681 2163 
Q 2630 2368 2522 2534 
Q 2285 2912 1837 2912 
Q 1376 2912 1088 2528 
Q 973 2355 896 2131 
Q 819 1907 813 1696 
L 2733 1696 
z
M 813 1331 
Q 806 1011 886 764 
Q 966 518 1120 352 
Q 1274 186 1488 96 
Q 1702 6 1965 6 
Q 2221 6 2445 54 
Q 2669 102 2861 211 
Q 2944 250 2944 166 
L 2944 -122 
Q 2944 -179 2874 -211 
Q 2662 -294 2432 -336 
Q 2202 -378 1933 -378 
Q 1146 -378 742 80 
Q 339 538 339 1459 
Q 339 2272 742 2771 
Q 1165 3277 1811 3277 
Q 2170 3277 2432 3149 
Q 2694 3021 2880 2765 
Q 3206 2310 3206 1549 
Q 3206 1466 3203 1421 
Q 3200 1376 3181 1357 
Q 3162 1338 3114 1334 
Q 3066 1331 2976 1331 
L 813 1331 
z
" transform="scale(0.015625)"/>
      <path id="NanumGothic-72" d="M 2221 2797 
Q 2106 2835 1914 2835 
Q 1440 2835 1210 2368 
Q 1030 2003 1030 1434 
L 1030 -186 
Q 1030 -275 941 -275 
L 691 -275 
Q 602 -275 602 -186 
L 602 2413 
Q 602 2643 598 2787 
Q 595 2931 589 3098 
Q 589 3187 678 3187 
L 915 3187 
Q 1005 3187 1005 3098 
L 1005 2470 
Q 1318 3277 1926 3277 
Q 2074 3277 2221 3238 
Q 2259 3226 2288 3197 
Q 2317 3168 2317 3117 
L 2317 2848 
Q 2317 2810 2285 2797 
Q 2253 2784 2221 2797 
z
" transform="scale(0.015625)"/>
      <path id="NanumGothic-76" d="M 1843 -192 
Q 1811 -275 1715 -275 
L 1402 -275 
Q 1306 -275 1280 -192 
L 154 3098 
Q 141 3130 160 3158 
Q 179 3187 218 3187 
L 506 3187 
Q 582 3187 621 3098 
L 1568 166 
L 2554 3098 
Q 2566 3136 2598 3161 
Q 2630 3187 2669 3187 
L 2950 3187 
Q 2989 3187 3008 3158 
Q 3027 3130 3014 3098 
L 1843 -192 
z
" transform="scale(0.015625)"/>
      <path id="NanumGothic-61" d="M 2566 1530 
L 2445 1530 
Q 2086 1542 1808 1500 
Q 1530 1459 1344 1389 
Q 1075 1293 940 1104 
Q 806 915 806 653 
Q 806 493 857 355 
Q 909 218 1018 141 
Q 1210 -13 1530 -13 
Q 1754 -13 1942 76 
Q 2131 166 2272 332 
Q 2413 499 2489 745 
Q 2566 992 2566 1312 
L 2566 1530 
z
M 742 2650 
Q 710 2630 681 2640 
Q 653 2650 653 2682 
L 653 2925 
Q 653 3014 742 3059 
Q 966 3181 1219 3229 
Q 1472 3277 1773 3277 
Q 2413 3277 2707 2973 
Q 3002 2669 3002 2054 
L 3002 448 
Q 3002 256 3008 105 
Q 3014 -45 3027 -186 
Q 3027 -275 2938 -275 
L 2707 -275 
Q 2618 -275 2618 -186 
L 2618 307 
Q 2483 -19 2166 -198 
Q 1850 -378 1478 -378 
Q 832 -378 531 0 
Q 429 128 377 297 
Q 326 467 326 634 
Q 326 1024 508 1305 
Q 691 1587 1069 1728 
Q 1530 1894 2483 1894 
L 2566 1894 
L 2566 2086 
Q 2566 2490 2384 2701 
Q 2202 2912 1773 2912 
Q 1485 2912 1229 2851 
Q 973 2790 742 2650 
z
" transform="scale(0.015625)"/>
      <path id="NanumGothic-69" d="M 1050 -186 
Q 1050 -275 960 -275 
L 678 -275 
Q 589 -275 589 -186 
L 589 3098 
Q 589 3187 678 3187 
L 960 3187 
Q 1050 3187 1050 3098 
L 1050 -186 
z
M 506 4397 
Q 506 4525 595 4617 
Q 685 4710 813 4710 
Q 941 4710 1033 4617 
Q 1126 4525 1126 4397 
Q 1126 4269 1033 4179 
Q 941 4090 813 4090 
Q 685 4090 595 4179 
Q 506 4269 506 4397 
z
" transform="scale(0.015625)"/>
      <path id="NanumGothic-20" transform="scale(0.015625)"/>
      <path id="DejaVuSans-Oblique-74" d="M 2706 3500 
L 2619 3053 
L 1472 3053 
L 1100 1153 
Q 1081 1047 1072 975 
Q 1063 903 1063 863 
Q 1063 663 1183 572 
Q 1303 481 1569 481 
L 2150 481 
L 2053 0 
L 1503 0 
Q 991 0 739 200 
Q 488 400 488 806 
Q 488 878 497 964 
Q 506 1050 525 1153 
L 897 3053 
L 409 3053 
L 500 3500 
L 978 3500 
L 1172 4494 
L 1747 4494 
L 1556 3500 
L 2706 3500 
z
" transform="scale(0.015625)"/>
     </defs>
     <use xlink:href="#NanumGothic-6f" transform="translate(0 0.40625)"/>
     <use xlink:href="#NanumGothic-62" transform="translate(60.599991 0.40625)"/>
     <use xlink:href="#NanumGothic-73" transform="translate(121.199982 0.40625)"/>
     <use xlink:href="#NanumGothic-65" transform="translate(163.599976 0.40625)"/>
     <use xlink:href="#NanumGothic-72" transform="translate(218.09996 0.40625)"/>
     <use xlink:href="#NanumGothic-76" transform="translate(254.399948 0.40625)"/>
     <use xlink:href="#NanumGothic-61" transform="translate(302.799942 0.40625)"/>
     <use xlink:href="#NanumGothic-74" transform="translate(357.299927 0.40625)"/>
     <use xlink:href="#NanumGothic-69" transform="translate(393.599915 0.40625)"/>
     <use xlink:href="#NanumGothic-6f" transform="translate(417.799911 0.40625)"/>
     <use xlink:href="#NanumGothic-6e" transform="translate(478.399902 0.40625)"/>
     <use xlink:href="#NanumGothic-20" transform="translate(538.999893 0.40625)"/>
     <use xlink:href="#NanumGothic-6f" transform="translate(566.999878 0.40625)"/>
     <use xlink:href="#DejaVuSans-Oblique-74" transform="translate(628.5569 -16) scale(0.7)"/>
    </g>
    <!-- + task ℓ -->
    <g style="fill: #333333" transform="translate(88.65296 241.46325) scale(0.1 -0.1)">
     <defs>
      <path id="NanumGothic-2b" d="M 3846 1971 
Q 3846 1882 3830 1869 
Q 3814 1856 3725 1856 
L 2342 1856 
L 2342 474 
Q 2342 390 2329 377 
Q 2317 365 2234 365 
L 1984 365 
Q 1901 365 1888 377 
Q 1875 390 1875 474 
L 1875 1856 
L 499 1856 
Q 410 1856 394 1869 
Q 378 1882 378 1971 
L 378 2202 
Q 378 2291 394 2304 
Q 410 2317 499 2317 
L 1875 2317 
L 1875 3686 
Q 1875 3776 1891 3789 
Q 1907 3802 1997 3802 
L 2221 3802 
Q 2310 3802 2326 3789 
Q 2342 3776 2342 3686 
L 2342 2317 
L 3725 2317 
Q 3814 2317 3830 2304 
Q 3846 2291 3846 2202 
L 3846 1971 
z
" transform="scale(0.015625)"/>
      <path id="NanumGothic-6b" d="M 1734 1645 
L 3117 -186 
Q 3136 -218 3129 -246 
Q 3123 -275 3085 -275 
L 2810 -275 
Q 2746 -275 2694 -256 
Q 2643 -237 2611 -186 
L 1459 1338 
L 1030 858 
L 1030 -186 
Q 1030 -275 941 -275 
L 685 -275 
Q 595 -275 595 -186 
L 595 4730 
Q 595 4819 685 4819 
L 941 4819 
Q 1030 4819 1030 4730 
L 1030 1395 
L 2490 3098 
Q 2579 3187 2701 3187 
L 3002 3187 
Q 3040 3187 3053 3158 
Q 3066 3130 3034 3098 
L 1734 1645 
z
" transform="scale(0.015625)"/>
      <path id="NanumGothic-2113" d="M 2464 3507 
Q 2464 3712 2409 3837 
Q 2355 3962 2266 3962 
Q 2138 3962 1997 3728 
Q 1856 3494 1766 3104 
Q 1696 2810 1648 2515 
Q 1600 2221 1571 1949 
Q 1542 1677 1529 1437 
Q 1517 1197 1517 1011 
Q 1920 1523 2192 2153 
Q 2464 2784 2464 3507 
z
M 2822 3526 
Q 2822 3072 2723 2656 
Q 2624 2240 2451 1869 
Q 2278 1498 2041 1171 
Q 1805 845 1536 570 
Q 1562 301 1654 157 
Q 1747 13 1875 13 
Q 1958 13 2028 64 
Q 2099 115 2163 201 
Q 2227 288 2281 400 
Q 2336 512 2387 627 
L 2675 486 
Q 2502 70 2313 -118 
Q 2125 -307 1837 -307 
Q 1619 -307 1456 -124 
Q 1293 58 1254 326 
Q 1178 256 1059 166 
Q 941 77 819 6 
L 634 282 
Q 774 371 931 486 
Q 1088 602 1216 717 
Q 1184 1344 1222 1942 
Q 1261 2541 1414 3181 
Q 1459 3373 1539 3581 
Q 1619 3789 1734 3968 
Q 1850 4147 2000 4262 
Q 2150 4378 2330 4378 
Q 2458 4378 2550 4291 
Q 2643 4205 2704 4077 
Q 2765 3949 2793 3801 
Q 2822 3654 2822 3526 
z
" transform="scale(0.015625)"/>
     </defs>
     <use xlink:href="#NanumGothic-2b"/>
     <use xlink:href="#NanumGothic-20" transform="translate(65.399994 0)"/>
     <use xlink:href="#NanumGothic-74" transform="translate(93.399979 0)"/>
     <use xlink:href="#NanumGothic-61" transform="translate(129.699966 0)"/>
     <use xlink:href="#NanumGothic-73" transform="translate(184.199951 0)"/>
     <use xlink:href="#NanumGothic-6b" transform="translate(226.599945 0)"/>
     <use xlink:href="#NanumGothic-20" transform="translate(278.59993 0)"/>
     <use xlink:href="#NanumGothic-2113" transform="translate(306.599915 0)"/>
    </g>
   </g>
   <g id="text_3">
    <!-- "clean the kitchen" -->
    <g style="fill: #666666" transform="translate(67.434991 277.90875) scale(0.09 -0.09)">
     <defs>
      <path id="NanumGothic-22" d="M 1146 3117 
Q 1146 3046 1136 3036 
Q 1126 3027 1056 3027 
L 813 3027 
Q 742 3027 732 3036 
Q 723 3046 723 3117 
L 723 4416 
Q 723 4486 732 4496 
Q 742 4506 813 4506 
L 1056 4506 
Q 1126 4506 1136 4496 
Q 1146 4486 1146 4416 
L 1146 3117 
z
M 2054 3117 
Q 2054 3046 2044 3036 
Q 2035 3027 1965 3027 
L 1728 3027 
Q 1658 3027 1648 3036 
Q 1638 3046 1638 3117 
L 1638 4416 
Q 1638 4486 1648 4496 
Q 1658 4506 1728 4506 
L 1965 4506 
Q 2035 4506 2044 4496 
Q 2054 4486 2054 4416 
L 2054 3117 
z
" transform="scale(0.015625)"/>
      <path id="NanumGothic-63" d="M 2816 -301 
Q 2624 -333 2445 -345 
Q 2266 -358 2016 -358 
Q 1619 -358 1308 -217 
Q 998 -77 784 166 
Q 570 410 454 742 
Q 339 1075 339 1459 
Q 339 1850 460 2179 
Q 582 2509 809 2749 
Q 1037 2989 1353 3126 
Q 1670 3264 2067 3264 
Q 2278 3264 2451 3248 
Q 2624 3232 2822 3187 
Q 2912 3162 2906 3066 
L 2886 2861 
Q 2874 2784 2790 2803 
Q 2624 2854 2470 2876 
Q 2317 2899 2131 2899 
Q 1805 2899 1558 2793 
Q 1312 2688 1145 2496 
Q 979 2304 896 2038 
Q 813 1773 813 1459 
Q 813 1171 899 908 
Q 986 646 1149 444 
Q 1312 243 1545 124 
Q 1779 6 2080 6 
Q 2304 6 2451 25 
Q 2598 45 2784 96 
Q 2880 122 2886 51 
L 2906 -186 
Q 2912 -282 2816 -301 
z
" transform="scale(0.015625)"/>
      <path id="NanumGothic-6c" d="M 1056 -186 
Q 1056 -275 966 -275 
L 685 -275 
Q 595 -275 595 -186 
L 595 4723 
Q 595 4813 685 4813 
L 966 4813 
Q 1056 4813 1056 4723 
L 1056 -186 
z
" transform="scale(0.015625)"/>
      <path id="NanumGothic-68" d="M 3334 -186 
Q 3334 -275 3245 -275 
L 2989 -275 
Q 2899 -275 2899 -186 
L 2899 1786 
Q 2899 2093 2844 2307 
Q 2790 2522 2688 2653 
Q 2586 2784 2438 2841 
Q 2291 2899 2112 2899 
Q 1587 2899 1308 2649 
Q 1030 2400 1030 1958 
L 1030 -186 
Q 1030 -275 941 -275 
L 685 -275 
Q 595 -275 595 -186 
L 595 4730 
Q 595 4819 685 4819 
L 941 4819 
Q 1030 4819 1030 4730 
L 1030 2874 
Q 1210 3078 1475 3171 
Q 1741 3264 2138 3264 
Q 2758 3264 3046 2899 
Q 3334 2534 3334 1792 
L 3334 -186 
z
" transform="scale(0.015625)"/>
     </defs>
     <use xlink:href="#NanumGothic-22"/>
     <use xlink:href="#NanumGothic-63" transform="translate(42.999985 0)"/>
     <use xlink:href="#NanumGothic-6c" transform="translate(91.399979 0)"/>
     <use xlink:href="#NanumGothic-65" transform="translate(115.599976 0)"/>
     <use xlink:href="#NanumGothic-61" transform="translate(170.09996 0)"/>
     <use xlink:href="#NanumGothic-6e" transform="translate(224.599945 0)"/>
     <use xlink:href="#NanumGothic-20" transform="translate(285.199936 0)"/>
     <use xlink:href="#NanumGothic-74" transform="translate(313.199921 0)"/>
     <use xlink:href="#NanumGothic-68" transform="translate(349.499908 0)"/>
     <use xlink:href="#NanumGothic-65" transform="translate(410.099899 0)"/>
     <use xlink:href="#NanumGothic-20" transform="translate(464.599884 0)"/>
     <use xlink:href="#NanumGothic-6b" transform="translate(492.599869 0)"/>
     <use xlink:href="#NanumGothic-69" transform="translate(544.599854 0)"/>
     <use xlink:href="#NanumGothic-74" transform="translate(568.79985 0)"/>
     <use xlink:href="#NanumGothic-63" transform="translate(605.099838 0)"/>
     <use xlink:href="#NanumGothic-68" transform="translate(653.499832 0)"/>
     <use xlink:href="#NanumGothic-65" transform="translate(714.099823 0)"/>
     <use xlink:href="#NanumGothic-6e" transform="translate(768.599808 0)"/>
     <use xlink:href="#NanumGothic-22" transform="translate(829.199799 0)"/>
    </g>
   </g>
   <g id="text_4">
    <!-- Stage 1: HIGH-LEVEL -->
    <g style="fill: #5b56b5" transform="translate(329.238074 98.2845) scale(0.11 -0.11)">
     <defs>
      <path id="NanumGothic-53" d="M 550 -211 
Q 448 -179 467 -96 
L 493 198 
Q 506 250 534 269 
Q 563 288 602 262 
Q 826 141 1053 86 
Q 1280 32 1574 32 
Q 2042 32 2339 288 
Q 2637 544 2637 1011 
Q 2637 1197 2493 1382 
Q 2349 1568 2093 1734 
Q 1869 1875 1587 2028 
Q 1306 2182 1050 2364 
Q 794 2547 621 2774 
Q 448 3002 448 3302 
Q 448 3610 576 3843 
Q 704 4077 918 4233 
Q 1133 4390 1408 4473 
Q 1683 4557 1971 4557 
Q 2221 4557 2413 4528 
Q 2605 4499 2829 4429 
Q 2925 4397 2906 4314 
L 2854 4064 
Q 2835 3955 2746 4006 
Q 2566 4090 2396 4118 
Q 2227 4147 1965 4147 
Q 1754 4147 1565 4096 
Q 1376 4045 1238 3942 
Q 1101 3840 1017 3686 
Q 934 3533 934 3322 
Q 934 3155 1046 3008 
Q 1158 2861 1321 2733 
Q 1485 2605 1673 2499 
Q 1862 2394 2016 2304 
Q 2227 2182 2425 2054 
Q 2624 1926 2777 1766 
Q 2931 1606 3027 1414 
Q 3123 1222 3123 973 
Q 3123 653 2992 403 
Q 2861 154 2643 -19 
Q 2426 -192 2141 -285 
Q 1856 -378 1549 -378 
Q 1267 -378 1046 -339 
Q 826 -301 550 -211 
z
" transform="scale(0.015625)"/>
      <path id="NanumGothic-67" d="M 2950 1472 
Q 2950 2157 2668 2528 
Q 2387 2899 1907 2899 
Q 1389 2899 1126 2553 
Q 864 2208 864 1459 
Q 864 1184 941 953 
Q 1018 723 1152 560 
Q 1286 397 1472 304 
Q 1658 211 1875 211 
Q 2099 211 2297 304 
Q 2496 397 2640 566 
Q 2784 736 2867 966 
Q 2950 1197 2950 1472 
z
M 749 -1114 
Q 672 -1094 685 -1018 
L 704 -736 
Q 704 -653 787 -698 
Q 1030 -806 1254 -854 
Q 1478 -902 1741 -902 
Q 2323 -902 2614 -547 
Q 2906 -192 2944 422 
Q 2797 134 2509 -13 
Q 2221 -160 1869 -160 
Q 1555 -160 1286 -45 
Q 1018 70 819 281 
Q 621 493 505 793 
Q 390 1094 390 1459 
Q 390 1888 470 2224 
Q 550 2560 723 2790 
Q 896 3021 1171 3142 
Q 1446 3264 1837 3264 
Q 2176 3264 2435 3152 
Q 2694 3040 2963 2752 
L 2950 3098 
Q 2950 3187 3040 3187 
L 3283 3187 
Q 3373 3187 3373 3098 
L 3373 538 
Q 3373 122 3267 -214 
Q 3162 -550 2954 -784 
Q 2746 -1018 2438 -1142 
Q 2131 -1267 1734 -1267 
Q 1446 -1267 1228 -1232 
Q 1011 -1197 749 -1114 
z
" transform="scale(0.015625)"/>
      <path id="NanumGothic-31" d="M 2362 -211 
Q 2362 -301 2272 -301 
L 2010 -301 
Q 1920 -301 1920 -211 
L 1920 3949 
Q 1722 3782 1549 3635 
Q 1376 3488 1184 3322 
Q 1114 3264 1056 3334 
L 928 3488 
Q 909 3520 909 3555 
Q 909 3590 941 3616 
L 1933 4448 
Q 1958 4474 2010 4474 
L 2182 4474 
Q 2317 4474 2339 4451 
Q 2362 4429 2362 4294 
L 2362 -211 
z
" transform="scale(0.015625)"/>
      <path id="NanumGothic-3a" d="M 646 3526 
Q 646 3674 755 3782 
Q 864 3891 1011 3891 
Q 1158 3891 1267 3782 
Q 1376 3674 1376 3526 
Q 1376 3379 1267 3270 
Q 1158 3162 1011 3162 
Q 864 3162 755 3270 
Q 646 3379 646 3526 
z
M 646 640 
Q 646 787 755 896 
Q 864 1005 1011 1005 
Q 1158 1005 1267 896 
Q 1376 787 1376 640 
Q 1376 493 1267 384 
Q 1158 275 1011 275 
Q 864 275 755 384 
Q 646 493 646 640 
z
" transform="scale(0.015625)"/>
      <path id="NanumGothic-48" d="M 4019 -186 
Q 4019 -275 3930 -275 
L 3642 -275 
Q 3552 -275 3552 -186 
L 3552 1971 
L 1126 1971 
L 1126 -186 
Q 1126 -275 1037 -275 
L 749 -275 
Q 659 -275 659 -186 
L 659 4384 
Q 659 4474 749 4474 
L 1037 4474 
Q 1126 4474 1126 4384 
L 1126 2374 
L 3552 2374 
L 3552 4384 
Q 3552 4474 3642 4474 
L 3930 4474 
Q 4019 4474 4019 4384 
L 4019 -186 
z
" transform="scale(0.015625)"/>
      <path id="NanumGothic-47" d="M 4250 2285 
Q 4384 2285 4406 2262 
Q 4429 2240 4429 2106 
L 4429 77 
Q 4429 6 4387 -45 
Q 4346 -96 4294 -122 
Q 3987 -237 3651 -297 
Q 3315 -358 2950 -358 
Q 2419 -358 1968 -195 
Q 1517 -32 1190 278 
Q 864 589 681 1046 
Q 499 1504 499 2093 
Q 499 2630 668 3078 
Q 838 3526 1155 3852 
Q 1472 4179 1926 4361 
Q 2381 4544 2950 4544 
Q 3309 4544 3574 4512 
Q 3840 4480 4141 4384 
Q 4237 4358 4218 4256 
L 4186 4019 
Q 4179 3936 4090 3962 
Q 3802 4070 3539 4105 
Q 3277 4141 2950 4141 
Q 2496 4141 2128 3990 
Q 1760 3840 1501 3571 
Q 1242 3302 1104 2924 
Q 966 2547 966 2093 
Q 966 1600 1113 1216 
Q 1261 832 1526 573 
Q 1792 314 2153 179 
Q 2515 45 2950 45 
Q 3661 45 3962 218 
L 3962 1882 
L 2675 1882 
Q 2586 1882 2586 1971 
L 2586 2195 
Q 2586 2285 2675 2285 
L 4250 2285 
z
" transform="scale(0.015625)"/>
      <path id="NanumGothic-2d" d="M 1946 2419 
Q 2016 2419 2025 2409 
Q 2035 2400 2035 2330 
L 2035 2048 
Q 2035 1978 2025 1968 
Q 2016 1958 1946 1958 
L 448 1958 
Q 378 1958 368 1968 
Q 358 1978 358 2048 
L 358 2330 
Q 358 2400 368 2409 
Q 378 2419 448 2419 
L 1946 2419 
z
" transform="scale(0.015625)"/>
      <path id="NanumGothic-4c" d="M 2912 128 
Q 3002 128 3002 38 
L 3002 -186 
Q 3002 -275 2912 -275 
L 838 -275 
Q 749 -275 701 -272 
Q 653 -269 630 -246 
Q 608 -224 605 -173 
Q 602 -122 602 -32 
L 602 4371 
Q 602 4461 691 4461 
L 986 4461 
Q 1075 4461 1075 4371 
L 1075 128 
L 2912 128 
z
" transform="scale(0.015625)"/>
      <path id="NanumGothic-45" d="M 826 -282 
Q 691 -282 668 -259 
Q 646 -237 646 -102 
L 646 4307 
Q 646 4429 668 4451 
Q 691 4474 813 4474 
L 3034 4474 
Q 3123 4474 3123 4384 
L 3123 4160 
Q 3123 4070 3034 4070 
L 1114 4070 
L 1114 2381 
L 2938 2381 
Q 3027 2381 3027 2291 
L 3027 2061 
Q 3027 1971 2938 1971 
L 1114 1971 
L 1114 128 
L 3110 128 
Q 3200 128 3200 38 
L 3200 -192 
Q 3200 -282 3110 -282 
L 826 -282 
z
" transform="scale(0.015625)"/>
      <path id="NanumGothic-56" d="M 3706 4371 
Q 3718 4410 3750 4435 
Q 3782 4461 3821 4461 
L 4109 4461 
Q 4147 4461 4166 4432 
Q 4186 4403 4173 4371 
L 2426 -192 
Q 2406 -243 2384 -259 
Q 2362 -275 2310 -275 
L 1958 -275 
Q 1907 -275 1884 -259 
Q 1862 -243 1843 -192 
L 134 4371 
Q 122 4403 141 4432 
Q 160 4461 198 4461 
L 518 4461 
Q 595 4461 634 4371 
L 2138 192 
Q 2522 1222 2912 2262 
Q 3302 3302 3706 4371 
z
" transform="scale(0.015625)"/>
     </defs>
     <use xlink:href="#NanumGothic-53"/>
     <use xlink:href="#NanumGothic-74" transform="translate(54.499985 0)"/>
     <use xlink:href="#NanumGothic-61" transform="translate(90.799973 0)"/>
     <use xlink:href="#NanumGothic-67" transform="translate(145.299957 0)"/>
     <use xlink:href="#NanumGothic-65" transform="translate(205.899948 0)"/>
     <use xlink:href="#NanumGothic-20" transform="translate(260.399933 0)"/>
     <use xlink:href="#NanumGothic-31" transform="translate(288.399918 0)"/>
     <use xlink:href="#NanumGothic-3a" transform="translate(348.999908 0)"/>
     <use xlink:href="#NanumGothic-20" transform="translate(379.299896 0)"/>
     <use xlink:href="#NanumGothic-48" transform="translate(407.299881 0)"/>
     <use xlink:href="#NanumGothic-49" transform="translate(479.999863 0)"/>
     <use xlink:href="#NanumGothic-47" transform="translate(504.19986 0)"/>
     <use xlink:href="#NanumGothic-48" transform="translate(583.899841 0)"/>
     <use xlink:href="#NanumGothic-2d" transform="translate(656.599823 0)"/>
     <use xlink:href="#NanumGothic-4c" transform="translate(692.899811 0)"/>
     <use xlink:href="#NanumGothic-45" transform="translate(741.299805 0)"/>
     <use xlink:href="#NanumGothic-56" transform="translate(798.899796 0)"/>
     <use xlink:href="#NanumGothic-45" transform="translate(865.499786 0)"/>
     <use xlink:href="#NanumGothic-4c" transform="translate(923.099777 0)"/>
    </g>
   </g>
   <g id="text_5">
    <!-- autoregressive text decode -->
    <g style="fill: #333333" transform="translate(320.700964 124.317) scale(0.1 -0.1)">
     <defs>
      <path id="NanumGothic-78" d="M 3046 -186 
Q 3066 -218 3050 -246 
Q 3034 -275 2995 -275 
L 2637 -275 
Q 2560 -275 2509 -186 
L 1645 1222 
L 717 -186 
Q 659 -275 589 -275 
L 269 -275 
Q 230 -275 214 -246 
Q 198 -218 218 -186 
L 1389 1562 
L 339 3098 
Q 320 3130 336 3158 
Q 352 3187 390 3187 
L 742 3187 
Q 819 3187 870 3098 
L 1645 1894 
L 2432 3098 
Q 2490 3187 2560 3187 
L 2874 3187 
Q 2912 3187 2928 3158 
Q 2944 3130 2925 3098 
L 1901 1562 
L 3046 -186 
z
" transform="scale(0.015625)"/>
      <path id="NanumGothic-64" d="M 877 1459 
Q 877 1158 925 912 
Q 973 666 1075 480 
Q 1216 250 1417 128 
Q 1619 6 1901 6 
Q 2157 6 2352 140 
Q 2547 275 2678 483 
Q 2810 691 2874 950 
Q 2938 1210 2938 1459 
Q 2938 1766 2870 2028 
Q 2803 2291 2672 2483 
Q 2541 2675 2349 2784 
Q 2157 2893 1901 2893 
Q 1357 2893 1075 2426 
Q 973 2240 925 1993 
Q 877 1747 877 1459 
z
M 3366 -186 
Q 3366 -275 3277 -275 
L 3027 -275 
Q 2938 -275 2938 -186 
L 2938 294 
Q 2592 -358 1824 -358 
Q 1139 -358 755 166 
Q 403 653 403 1459 
Q 403 3258 1824 3258 
Q 2208 3258 2505 3104 
Q 2803 2950 2938 2707 
L 2938 4723 
Q 2938 4813 3027 4813 
L 3277 4813 
Q 3366 4813 3366 4723 
L 3366 -186 
z
" transform="scale(0.015625)"/>
     </defs>
     <use xlink:href="#NanumGothic-61"/>
     <use xlink:href="#NanumGothic-75" transform="translate(54.499985 0)"/>
     <use xlink:href="#NanumGothic-74" transform="translate(115.099976 0)"/>
     <use xlink:href="#NanumGothic-6f" transform="translate(151.399963 0)"/>
     <use xlink:href="#NanumGothic-72" transform="translate(211.999954 0)"/>
     <use xlink:href="#NanumGothic-65" transform="translate(248.299942 0)"/>
     <use xlink:href="#NanumGothic-67" transform="translate(302.799927 0)"/>
     <use xlink:href="#NanumGothic-72" transform="translate(363.399918 0)"/>
     <use xlink:href="#NanumGothic-65" transform="translate(399.699905 0)"/>
     <use xlink:href="#NanumGothic-73" transform="translate(454.19989 0)"/>
     <use xlink:href="#NanumGothic-73" transform="translate(496.599884 0)"/>
     <use xlink:href="#NanumGothic-69" transform="translate(538.999878 0)"/>
     <use xlink:href="#NanumGothic-76" transform="translate(563.199875 0)"/>
     <use xlink:href="#NanumGothic-65" transform="translate(611.599869 0)"/>
     <use xlink:href="#NanumGothic-20" transform="translate(666.099854 0)"/>
     <use xlink:href="#NanumGothic-74" transform="translate(694.099838 0)"/>
     <use xlink:href="#NanumGothic-65" transform="translate(730.399826 0)"/>
     <use xlink:href="#NanumGothic-78" transform="translate(784.899811 0)"/>
     <use xlink:href="#NanumGothic-74" transform="translate(835.899796 0)"/>
     <use xlink:href="#NanumGothic-20" transform="translate(872.199783 0)"/>
     <use xlink:href="#NanumGothic-64" transform="translate(900.199768 0)"/>
     <use xlink:href="#NanumGothic-65" transform="translate(960.799759 0)"/>
     <use xlink:href="#NanumGothic-63" transform="translate(1015.299744 0)"/>
     <use xlink:href="#NanumGothic-6f" transform="translate(1063.699738 0)"/>
     <use xlink:href="#NanumGothic-64" transform="translate(1124.299728 0)"/>
     <use xlink:href="#NanumGothic-65" transform="translate(1184.899719 0)"/>
    </g>
   </g>
   <g id="text_6">
    <!-- π$_θ$(ℓ̂ | o$_t$, ℓ) -->
    <g style="fill: #333333" transform="translate(352.199714 152.95275) scale(0.11 -0.11)">
     <defs>
      <path id="NanumGothic-3c0" d="M 2835 326 
Q 2810 141 2768 13 
Q 2726 -115 2652 -192 
Q 2579 -269 2476 -304 
Q 2374 -339 2234 -339 
Q 1978 -339 1827 -201 
Q 1677 -64 1677 282 
L 1677 2739 
L 1152 2739 
L 1152 467 
Q 1152 262 1107 108 
Q 1062 -45 973 -141 
Q 864 -250 685 -291 
Q 506 -333 237 -333 
L 237 51 
Q 390 51 496 67 
Q 602 83 666 141 
Q 755 243 755 467 
L 755 2739 
L 83 2739 
L 83 3085 
L 2771 3085 
L 2771 2739 
L 2086 2739 
L 2086 320 
Q 2086 147 2124 92 
Q 2163 38 2266 38 
Q 2374 38 2412 105 
Q 2451 173 2483 416 
L 2835 326 
z
" transform="scale(0.015625)"/>
      <path id="DejaVuSans-Oblique-3b8" d="M 2913 2219 
L 925 2219 
Q 791 1284 928 888 
Q 1100 400 1566 400 
Q 2034 400 2391 891 
Q 2703 1322 2913 2219 
z
M 3009 2750 
Q 3094 3638 2984 3950 
Q 2813 4444 2353 4444 
Q 1875 4444 1525 3956 
Q 1250 3563 1034 2750 
L 3009 2750 
z
M 2444 4913 
Q 3194 4913 3494 4250 
Q 3794 3591 3566 2422 
Q 3341 1256 2781 594 
Q 2225 -72 1475 -72 
Q 722 -72 425 594 
Q 128 1256 353 2422 
Q 581 3591 1134 4250 
Q 1691 4913 2444 4913 
z
" transform="scale(0.015625)"/>
      <path id="NanumGothic-28" d="M 1984 -1133 
Q 1939 -1133 1929 -1129 
Q 1920 -1126 1894 -1094 
Q 1312 -365 1030 384 
Q 749 1133 749 1933 
Q 749 2726 1030 3475 
Q 1312 4224 1894 4960 
Q 1920 4992 1929 4995 
Q 1939 4998 1971 4998 
L 2150 4998 
Q 2189 4998 2189 4992 
Q 2189 4986 2170 4954 
Q 1165 3379 1165 1933 
Q 1165 1197 1421 448 
Q 1677 -301 2176 -1088 
Q 2208 -1133 2144 -1133 
L 1984 -1133 
z
" transform="scale(0.015625)"/>
      <path id="STIXGeneral-Regular-a4" d="M 3341 256 
L 3034 -64 
L 2406 563 
Q 2029 301 1606 301 
Q 1171 301 794 563 
L 179 -64 
L -141 256 
L 486 870 
Q 224 1248 224 1677 
Q 224 2118 486 2483 
L -141 3110 
L 179 3418 
L 794 2803 
Q 1184 3053 1606 3053 
Q 2048 3053 2406 2803 
L 3034 3418 
L 3341 3110 
L 2726 2483 
Q 2976 2112 2976 1683 
Q 2976 1261 2726 870 
L 3341 256 
z
M 2541 1690 
Q 2541 2086 2265 2364 
Q 1990 2643 1594 2643 
Q 1210 2643 934 2361 
Q 659 2080 659 1683 
Q 659 1280 937 995 
Q 1216 710 1606 710 
Q 2003 710 2272 995 
Q 2541 1280 2541 1690 
z
" transform="scale(0.015625)"/>
      <path id="NanumGothic-7c" d="M 1056 -877 
Q 1056 -966 966 -966 
L 685 -966 
Q 595 -966 595 -877 
L 595 4717 
Q 595 4806 685 4806 
L 966 4806 
Q 1056 4806 1056 4717 
L 1056 -877 
z
" transform="scale(0.015625)"/>
      <path id="NanumGothic-2c" d="M 1299 115 
Q 1382 115 1382 86 
Q 1382 58 1370 19 
L 947 -1126 
Q 922 -1178 899 -1194 
Q 877 -1210 832 -1210 
L 563 -1210 
Q 480 -1210 499 -1120 
L 800 6 
Q 813 45 838 80 
Q 864 115 934 115 
L 1299 115 
z
" transform="scale(0.015625)"/>
      <path id="NanumGothic-29" d="M 301 -1133 
Q 243 -1133 275 -1088 
Q 774 -301 1027 448 
Q 1280 1197 1280 1933 
Q 1280 2662 1030 3414 
Q 781 4166 282 4954 
Q 262 4986 262 4992 
Q 262 4998 294 4998 
L 474 4998 
Q 506 4998 515 4995 
Q 525 4992 557 4960 
Q 1139 4224 1417 3475 
Q 1696 2726 1696 1933 
Q 1696 1133 1417 384 
Q 1139 -365 557 -1094 
Q 525 -1126 515 -1129 
Q 506 -1133 461 -1133 
L 301 -1133 
z
" transform="scale(0.015625)"/>
     </defs>
     <use xlink:href="#NanumGothic-3c0" transform="translate(0 0.90625)"/>
     <use xlink:href="#DejaVuSans-Oblique-3b8" transform="translate(46.857025 -15.5) scale(0.7)"/>
     <use xlink:href="#NanumGothic-28" transform="translate(92.418549 0.90625)"/>
     <use xlink:href="#NanumGothic-2113" transform="translate(128.718536 0.90625)"/>
     <use xlink:href="#STIXGeneral-Regular-a4" transform="translate(182.718521 0.90625)"/>
     <use xlink:href="#NanumGothic-20" transform="translate(232.718506 0.90625)"/>
     <use xlink:href="#NanumGothic-7c" transform="translate(260.718491 0.90625)"/>
     <use xlink:href="#NanumGothic-20" transform="translate(284.918488 0.90625)"/>
     <use xlink:href="#NanumGothic-6f" transform="translate(312.918472 0.90625)"/>
     <use xlink:href="#DejaVuSans-Oblique-74" transform="translate(374.475494 -15.5) scale(0.7)"/>
     <use xlink:href="#NanumGothic-2c" transform="translate(404.656158 0.90625)"/>
     <use xlink:href="#NanumGothic-20" transform="translate(434.956146 0.90625)"/>
     <use xlink:href="#NanumGothic-2113" transform="translate(462.956131 0.90625)"/>
     <use xlink:href="#NanumGothic-29" transform="translate(516.956116 0.90625)"/>
    </g>
   </g>
   <g id="text_7">
    <!-- 주기 ~ 2 sec -->
    <g style="fill: #666666" transform="translate(358.220652 184.19175) scale(0.09 -0.09)">
     <defs>
      <path id="NanumGothic-c8fc" d="M 5280 2547 
Q 5254 2483 5158 2515 
Q 4659 2630 4128 2825 
Q 3597 3021 3098 3264 
Q 2637 3027 2099 2819 
Q 1562 2611 954 2445 
Q 864 2413 832 2496 
L 755 2701 
Q 717 2797 806 2816 
Q 1267 2938 1718 3107 
Q 2170 3277 2582 3472 
Q 2995 3667 3360 3881 
Q 3725 4096 4006 4314 
Q 4083 4371 4073 4416 
Q 4064 4461 3962 4461 
L 1210 4461 
Q 1126 4461 1126 4544 
L 1126 4768 
Q 1126 4845 1210 4845 
L 4134 4845 
Q 4384 4845 4528 4790 
Q 4672 4736 4713 4646 
Q 4755 4557 4697 4438 
Q 4640 4320 4499 4192 
Q 4077 3814 3501 3482 
Q 3904 3302 4381 3142 
Q 4858 2982 5312 2874 
Q 5370 2861 5376 2841 
Q 5382 2822 5363 2784 
L 5280 2547 
z
M 2854 -858 
Q 2822 -858 2796 -829 
Q 2771 -800 2771 -762 
L 2771 1312 
L 288 1312 
Q 250 1312 221 1337 
Q 192 1363 192 1395 
L 192 1613 
Q 192 1651 221 1673 
Q 250 1696 288 1696 
L 5728 1696 
Q 5760 1696 5792 1673 
Q 5824 1651 5824 1613 
L 5824 1395 
Q 5824 1363 5792 1337 
Q 5760 1312 5728 1312 
L 3213 1312 
L 3213 -762 
Q 3213 -800 3190 -829 
Q 3168 -858 3130 -858 
L 2854 -858 
z
" transform="scale(0.015625)"/>
      <path id="NanumGothic-ae30" d="M 5152 -806 
Q 5152 -896 5062 -896 
L 4800 -896 
Q 4710 -896 4710 -806 
L 4710 4915 
Q 4710 5005 4800 5005 
L 5062 5005 
Q 5152 5005 5152 4915 
L 5152 -806 
z
M 3437 4064 
Q 3405 3514 3219 2982 
Q 3034 2451 2704 1968 
Q 2374 1485 1910 1072 
Q 1446 659 858 346 
Q 774 301 736 365 
L 595 589 
Q 550 666 621 698 
Q 1165 979 1584 1340 
Q 2003 1702 2300 2124 
Q 2598 2547 2771 3014 
Q 2944 3482 2989 3974 
Q 3002 4070 2963 4105 
Q 2925 4141 2835 4141 
L 800 4141 
Q 723 4141 723 4224 
L 723 4448 
Q 723 4525 800 4525 
L 2957 4525 
Q 3258 4525 3354 4413 
Q 3450 4301 3437 4064 
z
" transform="scale(0.015625)"/>
      <path id="NanumGothic-7e" d="M 3635 2310 
Q 3686 2240 3686 2217 
Q 3686 2195 3635 2112 
Q 3328 1600 2842 1600 
Q 2598 1600 2054 1843 
Q 1517 2099 1376 2099 
Q 1139 2099 845 1709 
Q 787 1626 768 1626 
Q 749 1626 691 1709 
L 595 1843 
Q 544 1920 547 1955 
Q 550 1990 602 2080 
Q 909 2560 1382 2560 
Q 1651 2560 2170 2317 
Q 2688 2061 2848 2061 
Q 2976 2061 3113 2166 
Q 3251 2272 3392 2464 
Q 3443 2534 3456 2537 
Q 3469 2541 3520 2470 
L 3635 2310 
z
" transform="scale(0.015625)"/>
      <path id="NanumGothic-32" d="M 576 -301 
Q 506 -301 470 -297 
Q 435 -294 419 -278 
Q 403 -262 400 -227 
Q 397 -192 397 -122 
L 403 19 
Q 403 102 454 154 
L 1510 1318 
Q 2688 2592 2688 3251 
Q 2688 3635 2432 3891 
Q 2182 4141 1811 4141 
Q 1293 4141 730 3853 
Q 640 3808 627 3891 
L 589 4102 
Q 570 4211 653 4237 
Q 979 4384 1241 4454 
Q 1504 4525 1779 4525 
Q 2394 4525 2758 4218 
Q 3168 3885 3168 3270 
Q 3168 3034 3053 2752 
Q 2938 2470 2733 2163 
Q 2605 1984 2371 1696 
Q 2138 1408 1837 1082 
Q 1613 838 1392 588 
Q 1171 339 947 96 
L 3187 96 
Q 3277 96 3277 6 
L 3277 -211 
Q 3277 -301 3187 -301 
L 576 -301 
z
" transform="scale(0.015625)"/>
     </defs>
     <use xlink:href="#NanumGothic-c8fc"/>
     <use xlink:href="#NanumGothic-ae30" transform="translate(93.999985 0)"/>
     <use xlink:href="#NanumGothic-20" transform="translate(187.999969 0)"/>
     <use xlink:href="#NanumGothic-7e" transform="translate(215.999954 0)"/>
     <use xlink:href="#NanumGothic-20" transform="translate(281.399948 0)"/>
     <use xlink:href="#NanumGothic-32" transform="translate(309.399933 0)"/>
     <use xlink:href="#NanumGothic-20" transform="translate(369.999924 0)"/>
     <use xlink:href="#NanumGothic-73" transform="translate(397.999908 0)"/>
     <use xlink:href="#NanumGothic-65" transform="translate(440.399902 0)"/>
     <use xlink:href="#NanumGothic-63" transform="translate(494.899887 0)"/>
    </g>
   </g>
   <g id="text_8">
    <!-- subtask ℓ̂ -->
    <g style="fill: #c8694f" transform="translate(626.583029 108.6975) scale(0.11 -0.11)">
     <defs>
      <path id="NanumGothic-302" d="M 5139 -736 
L 877 -736 
L 877 4205 
L 5139 4205 
L 5139 -736 
z
M 3008 1574 
L 1222 -538 
L 4794 -538 
L 3008 1574 
z
M 1088 -371 
L 2867 1741 
L 1088 3846 
L 1088 -371 
z
M 3002 1894 
L 4781 4006 
L 1229 4006 
L 3002 1894 
z
M 4928 3853 
L 3149 1734 
L 4928 -371 
L 4928 3853 
z
" transform="scale(0.015625)"/>
     </defs>
     <use xlink:href="#NanumGothic-73"/>
     <use xlink:href="#NanumGothic-75" transform="translate(42.399994 0)"/>
     <use xlink:href="#NanumGothic-62" transform="translate(102.999985 0)"/>
     <use xlink:href="#NanumGothic-74" transform="translate(163.599976 0)"/>
     <use xlink:href="#NanumGothic-61" transform="translate(199.899963 0)"/>
     <use xlink:href="#NanumGothic-73" transform="translate(254.399948 0)"/>
     <use xlink:href="#NanumGothic-6b" transform="translate(296.799942 0)"/>
     <use xlink:href="#NanumGothic-20" transform="translate(348.799927 0)"/>
     <use xlink:href="#NanumGothic-2113" transform="translate(376.799911 0)"/>
     <use xlink:href="#NanumGothic-302" transform="translate(430.799896 0)"/>
    </g>
   </g>
   <g id="text_9">
    <!-- "pick up the -->
    <g style="fill: #333333" transform="translate(627.607795 126.3495) scale(0.1 -0.1)">
     <use xlink:href="#NanumGothic-22"/>
     <use xlink:href="#NanumGothic-70" transform="translate(42.999985 0)"/>
     <use xlink:href="#NanumGothic-69" transform="translate(103.599976 0)"/>
     <use xlink:href="#NanumGothic-63" transform="translate(127.799973 0)"/>
     <use xlink:href="#NanumGothic-6b" transform="translate(176.199966 0)"/>
     <use xlink:href="#NanumGothic-20" transform="translate(228.199951 0)"/>
     <use xlink:href="#NanumGothic-75" transform="translate(256.199936 0)"/>
     <use xlink:href="#NanumGothic-70" transform="translate(316.799927 0)"/>
     <use xlink:href="#NanumGothic-20" transform="translate(377.399918 0)"/>
     <use xlink:href="#NanumGothic-74" transform="translate(405.399902 0)"/>
     <use xlink:href="#NanumGothic-68" transform="translate(441.69989 0)"/>
     <use xlink:href="#NanumGothic-65" transform="translate(502.299881 0)"/>
    </g>
    <!-- plate" -->
    <g style="fill: #333333" transform="translate(641.79217 137.33325) scale(0.1 -0.1)">
     <use xlink:href="#NanumGothic-70"/>
     <use xlink:href="#NanumGothic-6c" transform="translate(60.599991 0)"/>
     <use xlink:href="#NanumGothic-61" transform="translate(84.799988 0)"/>
     <use xlink:href="#NanumGothic-74" transform="translate(139.299973 0)"/>
     <use xlink:href="#NanumGothic-65" transform="translate(175.59996 0)"/>
     <use xlink:href="#NanumGothic-22" transform="translate(230.099945 0)"/>
    </g>
   </g>
   <g id="text_10">
    <!-- (intermediate -->
    <g style="fill: #666666" transform="translate(630.503732 177.7305) scale(0.08 -0.08)">
     <defs>
      <path id="NanumGothic-6d" d="M 602 2374 
Q 602 2643 595 2800 
Q 589 2957 576 3098 
Q 576 3187 666 3187 
L 902 3187 
Q 992 3187 992 3098 
L 992 2752 
Q 1139 2989 1388 3126 
Q 1638 3264 2003 3264 
Q 2387 3264 2675 3075 
Q 2963 2886 3027 2522 
Q 3162 2886 3459 3075 
Q 3757 3264 4147 3264 
Q 4397 3264 4598 3174 
Q 4800 3085 4944 2928 
Q 5088 2771 5165 2560 
Q 5242 2349 5242 2112 
L 5242 -186 
Q 5242 -275 5152 -275 
L 4909 -275 
Q 4819 -275 4819 -192 
L 4819 2022 
Q 4819 2899 4083 2899 
Q 3859 2899 3683 2800 
Q 3507 2701 3382 2528 
Q 3258 2355 3197 2124 
Q 3136 1894 3142 1638 
L 3142 -186 
Q 3142 -275 3053 -275 
L 2797 -275 
Q 2707 -275 2707 -186 
L 2707 2022 
Q 2707 2899 1965 2899 
Q 1530 2899 1280 2617 
Q 1030 2336 1030 1875 
L 1030 -186 
Q 1030 -275 941 -275 
L 691 -275 
Q 602 -275 602 -186 
L 602 2374 
z
" transform="scale(0.015625)"/>
     </defs>
     <use xlink:href="#NanumGothic-28"/>
     <use xlink:href="#NanumGothic-69" transform="translate(36.299988 0)"/>
     <use xlink:href="#NanumGothic-6e" transform="translate(60.499985 0)"/>
     <use xlink:href="#NanumGothic-74" transform="translate(121.099976 0)"/>
     <use xlink:href="#NanumGothic-65" transform="translate(157.399963 0)"/>
     <use xlink:href="#NanumGothic-72" transform="translate(211.899948 0)"/>
     <use xlink:href="#NanumGothic-6d" transform="translate(248.199936 0)"/>
     <use xlink:href="#NanumGothic-65" transform="translate(338.999924 0)"/>
     <use xlink:href="#NanumGothic-64" transform="translate(393.499908 0)"/>
     <use xlink:href="#NanumGothic-69" transform="translate(454.099899 0)"/>
     <use xlink:href="#NanumGothic-61" transform="translate(478.299896 0)"/>
     <use xlink:href="#NanumGothic-74" transform="translate(532.799881 0)"/>
     <use xlink:href="#NanumGothic-65" transform="translate(569.099869 0)"/>
    </g>
    <!-- reasoning) -->
    <g style="fill: #666666" transform="translate(635.823732 186.795) scale(0.08 -0.08)">
     <use xlink:href="#NanumGothic-72"/>
     <use xlink:href="#NanumGothic-65" transform="translate(36.299988 0)"/>
     <use xlink:href="#NanumGothic-61" transform="translate(90.799973 0)"/>
     <use xlink:href="#NanumGothic-73" transform="translate(145.299957 0)"/>
     <use xlink:href="#NanumGothic-6f" transform="translate(187.699951 0)"/>
     <use xlink:href="#NanumGothic-6e" transform="translate(248.299942 0)"/>
     <use xlink:href="#NanumGothic-69" transform="translate(308.899933 0)"/>
     <use xlink:href="#NanumGothic-6e" transform="translate(333.09993 0)"/>
     <use xlink:href="#NanumGothic-67" transform="translate(393.699921 0)"/>
     <use xlink:href="#NanumGothic-29" transform="translate(454.299911 0)"/>
    </g>
   </g>
   <g id="text_11">
    <!-- Stage 2: LOW-LEVEL -->
    <g style="fill: #3da084" transform="translate(330.299402 290.925) scale(0.11 -0.11)">
     <defs>
      <path id="NanumGothic-4f" d="M 4160 2093 
Q 4160 2496 4057 2854 
Q 3955 3213 3770 3501 
Q 3546 3814 3235 3984 
Q 2925 4154 2534 4154 
Q 2138 4154 1827 3984 
Q 1517 3814 1293 3501 
Q 1107 3213 1004 2854 
Q 902 2496 902 2093 
Q 902 1690 1004 1328 
Q 1107 966 1293 678 
Q 1523 371 1836 198 
Q 2150 26 2534 26 
Q 2925 26 3235 195 
Q 3546 365 3770 678 
Q 3955 966 4057 1328 
Q 4160 1690 4160 2093 
z
M 4627 2093 
Q 4614 954 4102 314 
Q 3546 -378 2534 -378 
Q 1523 -378 960 314 
Q 435 973 435 2093 
Q 435 2624 563 3053 
Q 691 3482 934 3814 
Q 1222 4166 1628 4361 
Q 2035 4557 2534 4557 
Q 3040 4557 3440 4365 
Q 3840 4173 4128 3808 
Q 4378 3462 4506 3036 
Q 4634 2611 4627 2093 
z
" transform="scale(0.015625)"/>
      <path id="NanumGothic-57" d="M 5088 -211 
Q 5069 -275 5005 -275 
L 4576 -275 
Q 4506 -275 4493 -211 
L 3296 3949 
Q 2989 2906 2688 1872 
Q 2387 838 2080 -211 
Q 2061 -275 1997 -275 
L 1555 -275 
Q 1485 -275 1472 -211 
L 160 4371 
Q 147 4403 166 4432 
Q 186 4461 224 4461 
L 525 4461 
Q 614 4461 640 4371 
L 1792 211 
Q 2093 1261 2393 2275 
Q 2694 3290 2995 4339 
Q 3008 4403 3053 4432 
Q 3098 4461 3155 4461 
L 3488 4461 
Q 3597 4461 3629 4339 
L 4800 237 
Q 5094 1299 5382 2304 
Q 5670 3309 5971 4371 
Q 5984 4410 6016 4435 
Q 6048 4461 6086 4461 
L 6355 4461 
Q 6394 4461 6413 4432 
Q 6432 4403 6419 4371 
L 5088 -211 
z
" transform="scale(0.015625)"/>
     </defs>
     <use xlink:href="#NanumGothic-53"/>
     <use xlink:href="#NanumGothic-74" transform="translate(54.499985 0)"/>
     <use xlink:href="#NanumGothic-61" transform="translate(90.799973 0)"/>
     <use xlink:href="#NanumGothic-67" transform="translate(145.299957 0)"/>
     <use xlink:href="#NanumGothic-65" transform="translate(205.899948 0)"/>
     <use xlink:href="#NanumGothic-20" transform="translate(260.399933 0)"/>
     <use xlink:href="#NanumGothic-32" transform="translate(288.399918 0)"/>
     <use xlink:href="#NanumGothic-3a" transform="translate(348.999908 0)"/>
     <use xlink:href="#NanumGothic-20" transform="translate(379.299896 0)"/>
     <use xlink:href="#NanumGothic-4c" transform="translate(407.299881 0)"/>
     <use xlink:href="#NanumGothic-4f" transform="translate(455.699875 0)"/>
     <use xlink:href="#NanumGothic-57" transform="translate(534.399857 0)"/>
     <use xlink:href="#NanumGothic-2d" transform="translate(637.29985 0)"/>
     <use xlink:href="#NanumGothic-4c" transform="translate(673.599838 0)"/>
     <use xlink:href="#NanumGothic-45" transform="translate(721.999832 0)"/>
     <use xlink:href="#NanumGothic-56" transform="translate(779.599823 0)"/>
     <use xlink:href="#NanumGothic-45" transform="translate(846.199814 0)"/>
     <use xlink:href="#NanumGothic-4c" transform="translate(903.799805 0)"/>
    </g>
   </g>
   <g id="text_12">
    <!-- flow matching ODE 10 step -->
    <g style="fill: #333333" transform="translate(318.776746 316.9575) scale(0.1 -0.1)">
     <defs>
      <path id="NanumGothic-66" d="M 2144 4870 
Q 2227 4845 2221 4736 
L 2208 4550 
Q 2202 4512 2176 4502 
Q 2150 4493 2118 4506 
Q 2048 4531 1990 4540 
Q 1933 4550 1856 4550 
Q 1478 4550 1370 4173 
Q 1325 4019 1325 3494 
L 1325 3187 
L 2029 3187 
Q 2118 3187 2118 3098 
L 2118 2906 
Q 2118 2816 2029 2816 
L 1325 2816 
L 1325 -186 
Q 1325 -275 1235 -275 
L 986 -275 
Q 896 -275 896 -186 
L 896 2816 
L 275 2816 
Q 186 2816 186 2906 
L 186 3098 
Q 186 3187 275 3187 
L 896 3187 
L 896 3450 
Q 896 4147 1024 4454 
Q 1222 4915 1818 4915 
Q 2003 4915 2144 4870 
z
" transform="scale(0.015625)"/>
      <path id="NanumGothic-77" d="M 4218 -205 
Q 4198 -275 4115 -275 
L 3738 -275 
Q 3661 -275 3635 -205 
L 2726 2739 
Q 2490 1997 2253 1267 
Q 2016 538 1779 -198 
Q 1760 -275 1664 -275 
L 1312 -275 
Q 1267 -275 1238 -262 
Q 1210 -250 1197 -198 
L 128 3098 
Q 115 3130 134 3158 
Q 154 3187 192 3187 
L 486 3187 
Q 563 3187 602 3098 
L 1510 179 
Q 1747 915 1974 1622 
Q 2202 2330 2438 3066 
Q 2470 3187 2586 3187 
L 2886 3187 
Q 3008 3187 3040 3066 
L 3930 179 
Q 4173 934 4400 1638 
Q 4627 2342 4870 3098 
Q 4883 3136 4915 3161 
Q 4947 3187 4986 3187 
L 5242 3187 
Q 5280 3187 5299 3158 
Q 5318 3130 5306 3098 
L 4218 -205 
z
" transform="scale(0.015625)"/>
      <path id="NanumGothic-44" d="M 3706 2131 
Q 3706 3149 3142 3635 
Q 2643 4064 1773 4064 
L 1082 4064 
L 1082 128 
L 1472 128 
Q 3706 128 3706 2131 
z
M 4173 2106 
Q 4173 1510 3968 1043 
Q 3763 576 3398 269 
Q 3053 6 2560 -134 
Q 2067 -275 1446 -275 
L 787 -275 
Q 653 -275 630 -252 
Q 608 -230 608 -96 
L 608 4282 
Q 608 4416 630 4438 
Q 653 4461 787 4461 
L 1792 4461 
Q 3008 4461 3622 3802 
Q 4173 3194 4173 2106 
z
" transform="scale(0.015625)"/>
      <path id="NanumGothic-30" d="M 3066 2093 
Q 3066 4102 1965 4102 
Q 864 4102 864 2093 
Q 864 77 1965 77 
Q 3066 77 3066 2093 
z
M 3526 2093 
Q 3526 -326 1965 -326 
Q 390 -326 390 2093 
Q 390 3098 698 3725 
Q 1088 4512 1965 4512 
Q 2829 4512 3226 3725 
Q 3373 3411 3449 3008 
Q 3526 2605 3526 2093 
z
" transform="scale(0.015625)"/>
     </defs>
     <use xlink:href="#NanumGothic-66"/>
     <use xlink:href="#NanumGothic-6c" transform="translate(36.299988 0)"/>
     <use xlink:href="#NanumGothic-6f" transform="translate(60.499985 0)"/>
     <use xlink:href="#NanumGothic-77" transform="translate(121.099976 0)"/>
     <use xlink:href="#NanumGothic-20" transform="translate(205.899963 0)"/>
     <use xlink:href="#NanumGothic-6d" transform="translate(233.899948 0)"/>
     <use xlink:href="#NanumGothic-61" transform="translate(324.699936 0)"/>
     <use xlink:href="#NanumGothic-74" transform="translate(379.199921 0)"/>
     <use xlink:href="#NanumGothic-63" transform="translate(415.499908 0)"/>
     <use xlink:href="#NanumGothic-68" transform="translate(463.899902 0)"/>
     <use xlink:href="#NanumGothic-69" transform="translate(524.499893 0)"/>
     <use xlink:href="#NanumGothic-6e" transform="translate(548.69989 0)"/>
     <use xlink:href="#NanumGothic-67" transform="translate(609.299881 0)"/>
     <use xlink:href="#NanumGothic-20" transform="translate(669.899872 0)"/>
     <use xlink:href="#NanumGothic-4f" transform="translate(697.899857 0)"/>
     <use xlink:href="#NanumGothic-44" transform="translate(776.599838 0)"/>
     <use xlink:href="#NanumGothic-45" transform="translate(849.29982 0)"/>
     <use xlink:href="#NanumGothic-20" transform="translate(906.899811 0)"/>
     <use xlink:href="#NanumGothic-31" transform="translate(934.899796 0)"/>
     <use xlink:href="#NanumGothic-30" transform="translate(995.499786 0)"/>
     <use xlink:href="#NanumGothic-20" transform="translate(1056.099777 0)"/>
     <use xlink:href="#NanumGothic-73" transform="translate(1084.099762 0)"/>
     <use xlink:href="#NanumGothic-74" transform="translate(1126.499756 0)"/>
     <use xlink:href="#NanumGothic-65" transform="translate(1162.799744 0)"/>
     <use xlink:href="#NanumGothic-70" transform="translate(1217.299728 0)"/>
    </g>
   </g>
   <g id="text_13">
    <!-- π$_θ$(A | o$_t$, ℓ̂) -->
    <g style="fill: #333333" transform="translate(351.209714 345.59325) scale(0.11 -0.11)">
     <defs>
      <path id="NanumGothic-41" d="M 3386 1402 
Q 3117 2067 2870 2716 
Q 2624 3366 2355 4032 
Q 2086 3366 1827 2716 
Q 1568 2067 1299 1402 
L 3386 1402 
z
M 4499 -186 
Q 4531 -275 4442 -275 
L 4134 -275 
Q 4096 -275 4067 -262 
Q 4038 -250 4013 -186 
L 3539 992 
L 1133 992 
Q 1011 691 896 403 
Q 781 115 666 -186 
Q 640 -250 611 -262 
Q 582 -275 544 -275 
L 243 -275 
Q 154 -275 186 -186 
L 2067 4397 
Q 2099 4474 2182 4474 
L 2573 4474 
Q 2656 4474 2688 4397 
L 4499 -186 
z
" transform="scale(0.015625)"/>
     </defs>
     <use xlink:href="#NanumGothic-3c0" transform="translate(0 0.90625)"/>
     <use xlink:href="#DejaVuSans-Oblique-3b8" transform="translate(46.857025 -15.5) scale(0.7)"/>
     <use xlink:href="#NanumGothic-28" transform="translate(92.418549 0.90625)"/>
     <use xlink:href="#NanumGothic-41" transform="translate(128.718536 0.90625)"/>
     <use xlink:href="#NanumGothic-20" transform="translate(201.418518 0.90625)"/>
     <use xlink:href="#NanumGothic-7c" transform="translate(229.418503 0.90625)"/>
     <use xlink:href="#NanumGothic-20" transform="translate(253.6185 0.90625)"/>
     <use xlink:href="#NanumGothic-6f" transform="translate(281.618484 0.90625)"/>
     <use xlink:href="#DejaVuSans-Oblique-74" transform="translate(343.175507 -15.5) scale(0.7)"/>
     <use xlink:href="#NanumGothic-2c" transform="translate(373.356171 0.90625)"/>
     <use xlink:href="#NanumGothic-20" transform="translate(403.656158 0.90625)"/>
     <use xlink:href="#NanumGothic-2113" transform="translate(431.656143 0.90625)"/>
     <use xlink:href="#STIXGeneral-Regular-a4" transform="translate(485.656128 0.90625)"/>
     <use xlink:href="#NanumGothic-29" transform="translate(535.656113 0.90625)"/>
    </g>
   </g>
   <g id="text_14">
    <!-- 주기 ~ 50 Hz -->
    <g style="fill: #666666" transform="translate(356.583074 376.83225) scale(0.09 -0.09)">
     <defs>
      <path id="NanumGothic-35" d="M 736 -205 
Q 646 -173 646 -90 
L 646 179 
Q 646 288 736 243 
Q 966 134 1187 89 
Q 1408 45 1670 45 
Q 2234 45 2586 320 
Q 2970 614 2970 1165 
Q 2970 2246 1734 2246 
Q 1491 2246 1296 2220 
Q 1101 2195 864 2131 
Q 794 2112 749 2147 
Q 704 2182 704 2253 
L 742 4294 
Q 742 4429 764 4451 
Q 787 4474 922 4474 
L 3110 4474 
Q 3200 4474 3200 4384 
L 3200 4173 
Q 3200 4083 3110 4083 
L 1178 4083 
Q 1171 3680 1161 3296 
Q 1152 2912 1146 2509 
Q 1459 2630 1907 2630 
Q 2579 2630 2995 2266 
Q 3411 1888 3411 1254 
Q 3411 480 2931 58 
Q 2470 -346 1670 -346 
Q 1382 -346 1171 -314 
Q 960 -282 736 -205 
z
" transform="scale(0.015625)"/>
      <path id="NanumGothic-7a" d="M 454 -275 
Q 320 -275 297 -252 
Q 275 -230 275 -96 
L 275 6 
Q 275 90 326 147 
L 2387 2816 
L 448 2816 
Q 358 2816 358 2906 
L 358 3098 
Q 358 3187 448 3187 
L 2707 3187 
Q 2842 3187 2864 3164 
Q 2886 3142 2886 3008 
L 2886 2893 
Q 2886 2810 2842 2758 
L 774 83 
L 2797 83 
Q 2886 83 2886 -6 
L 2886 -186 
Q 2886 -275 2797 -275 
L 454 -275 
z
" transform="scale(0.015625)"/>
     </defs>
     <use xlink:href="#NanumGothic-c8fc"/>
     <use xlink:href="#NanumGothic-ae30" transform="translate(93.999985 0)"/>
     <use xlink:href="#NanumGothic-20" transform="translate(187.999969 0)"/>
     <use xlink:href="#NanumGothic-7e" transform="translate(215.999954 0)"/>
     <use xlink:href="#NanumGothic-20" transform="translate(281.399948 0)"/>
     <use xlink:href="#NanumGothic-35" transform="translate(309.399933 0)"/>
     <use xlink:href="#NanumGothic-30" transform="translate(369.999924 0)"/>
     <use xlink:href="#NanumGothic-20" transform="translate(430.599915 0)"/>
     <use xlink:href="#NanumGothic-48" transform="translate(458.599899 0)"/>
     <use xlink:href="#NanumGothic-7a" transform="translate(531.299881 0)"/>
    </g>
   </g>
   <g id="text_15">
    <!-- Output -->
    <g style="fill: #333333" transform="translate(717.356132 311.751) scale(0.11 -0.11)">
     <use xlink:href="#NanumGothic-4f"/>
     <use xlink:href="#NanumGothic-75" transform="translate(78.699982 0)"/>
     <use xlink:href="#NanumGothic-74" transform="translate(139.299973 0)"/>
     <use xlink:href="#NanumGothic-70" transform="translate(175.59996 0)"/>
     <use xlink:href="#NanumGothic-75" transform="translate(236.199951 0)"/>
     <use xlink:href="#NanumGothic-74" transform="translate(296.799942 0)"/>
    </g>
   </g>
   <g id="text_16">
    <!-- action chunk A -->
    <g style="fill: #333333" transform="translate(700.90121 342.99) scale(0.1 -0.1)">
     <use xlink:href="#NanumGothic-61"/>
     <use xlink:href="#NanumGothic-63" transform="translate(54.499985 0)"/>
     <use xlink:href="#NanumGothic-74" transform="translate(102.899979 0)"/>
     <use xlink:href="#NanumGothic-69" transform="translate(139.199966 0)"/>
     <use xlink:href="#NanumGothic-6f" transform="translate(163.399963 0)"/>
     <use xlink:href="#NanumGothic-6e" transform="translate(223.999954 0)"/>
     <use xlink:href="#NanumGothic-20" transform="translate(284.599945 0)"/>
     <use xlink:href="#NanumGothic-63" transform="translate(312.59993 0)"/>
     <use xlink:href="#NanumGothic-68" transform="translate(360.999924 0)"/>
     <use xlink:href="#NanumGothic-75" transform="translate(421.599915 0)"/>
     <use xlink:href="#NanumGothic-6e" transform="translate(482.199905 0)"/>
     <use xlink:href="#NanumGothic-6b" transform="translate(542.799896 0)"/>
     <use xlink:href="#NanumGothic-20" transform="translate(594.799881 0)"/>
     <use xlink:href="#NanumGothic-41" transform="translate(622.799866 0)"/>
    </g>
   </g>
   <g id="text_17">
    <!-- [50 steps × 18-dim] -->
    <g style="fill: #666666" transform="translate(694.893475 374.229) scale(0.09 -0.09)">
     <defs>
      <path id="NanumGothic-5b" d="M 1024 -1126 
Q 934 -1126 918 -1113 
Q 902 -1101 902 -1011 
L 902 4877 
Q 902 4966 918 4982 
Q 934 4998 1024 4998 
L 1894 4998 
Q 1990 4998 2006 4985 
Q 2022 4973 2022 4883 
L 2022 4800 
Q 2022 4704 2006 4688 
Q 1990 4672 1888 4672 
L 1427 4672 
Q 1357 4672 1344 4659 
Q 1331 4646 1331 4570 
L 1331 -704 
Q 1331 -774 1340 -787 
Q 1350 -800 1421 -800 
L 1888 -800 
Q 1990 -800 2006 -816 
Q 2022 -832 2022 -928 
L 2022 -1005 
Q 2022 -1094 2006 -1110 
Q 1990 -1126 1888 -1126 
L 1024 -1126 
z
" transform="scale(0.015625)"/>
      <path id="NanumGothic-d7" d="M 3162 3533 
Q 3200 3571 3213 3571 
Q 3226 3571 3264 3526 
L 3437 3366 
Q 3482 3315 3482 3302 
Q 3482 3290 3437 3245 
L 2170 1971 
L 3386 755 
Q 3430 717 3430 704 
Q 3430 691 3386 640 
L 3226 480 
Q 3181 435 3168 435 
Q 3155 435 3110 480 
L 1888 1702 
L 627 442 
Q 582 397 569 397 
Q 557 397 512 442 
L 352 608 
Q 314 646 314 659 
Q 314 672 358 723 
L 1613 1984 
Q 1478 2118 1321 2272 
Q 1165 2426 1008 2586 
Q 851 2746 694 2902 
Q 538 3059 397 3194 
Q 371 3226 364 3248 
Q 358 3270 397 3309 
L 557 3469 
Q 602 3514 614 3514 
Q 627 3514 672 3469 
L 1882 2259 
L 3162 3526 
L 3162 3533 
z
" transform="scale(0.015625)"/>
      <path id="NanumGothic-38" d="M 2944 3360 
Q 2944 3725 2624 3936 
Q 2342 4134 1965 4134 
Q 1555 4134 1274 3930 
Q 966 3725 966 3360 
Q 966 3027 1286 2758 
Q 1376 2675 1526 2579 
Q 1677 2483 1882 2387 
Q 1933 2362 1965 2365 
Q 1997 2368 2061 2400 
Q 2470 2624 2707 2870 
Q 2944 3117 2944 3360 
z
M 3104 960 
Q 3104 1312 2784 1574 
Q 2682 1658 2496 1760 
Q 2310 1862 2042 1984 
Q 1958 2029 1856 1984 
Q 1606 1888 1414 1782 
Q 1222 1677 1107 1587 
Q 979 1459 899 1289 
Q 819 1120 819 928 
Q 819 538 1184 288 
Q 1517 38 1965 38 
Q 2426 38 2739 256 
Q 3104 506 3104 960 
z
M 3552 928 
Q 3552 614 3421 364 
Q 3290 115 3046 -51 
Q 2835 -192 2560 -269 
Q 2285 -346 1965 -346 
Q 1651 -346 1379 -262 
Q 1107 -179 883 -32 
Q 640 141 505 387 
Q 371 634 371 928 
Q 371 1427 704 1741 
Q 960 1984 1491 2182 
Q 518 2662 518 3411 
Q 518 3680 652 3888 
Q 787 4096 1030 4262 
Q 1235 4390 1468 4457 
Q 1702 4525 1965 4525 
Q 2272 4525 2515 4457 
Q 2758 4390 2957 4256 
Q 3398 3949 3398 3411 
Q 3398 2746 2400 2182 
Q 2662 2086 2870 1971 
Q 3078 1856 3206 1741 
Q 3552 1434 3552 928 
z
" transform="scale(0.015625)"/>
      <path id="NanumGothic-5d" d="M 1376 4998 
Q 1466 4998 1482 4985 
Q 1498 4973 1498 4883 
L 1498 -1005 
Q 1498 -1094 1482 -1110 
Q 1466 -1126 1376 -1126 
L 506 -1126 
Q 410 -1126 394 -1113 
Q 378 -1101 378 -1011 
L 378 -928 
Q 378 -832 394 -816 
Q 410 -800 512 -800 
L 973 -800 
Q 1043 -800 1056 -787 
Q 1069 -774 1069 -698 
L 1069 4576 
Q 1069 4646 1059 4659 
Q 1050 4672 979 4672 
L 512 4672 
Q 410 4672 394 4688 
Q 378 4704 378 4800 
L 378 4877 
Q 378 4966 394 4982 
Q 410 4998 512 4998 
L 1376 4998 
z
" transform="scale(0.015625)"/>
     </defs>
     <use xlink:href="#NanumGothic-5b"/>
     <use xlink:href="#NanumGothic-35" transform="translate(36.299988 0)"/>
     <use xlink:href="#NanumGothic-30" transform="translate(96.899979 0)"/>
     <use xlink:href="#NanumGothic-20" transform="translate(157.499969 0)"/>
     <use xlink:href="#NanumGothic-73" transform="translate(185.499954 0)"/>
     <use xlink:href="#NanumGothic-74" transform="translate(227.899948 0)"/>
     <use xlink:href="#NanumGothic-65" transform="translate(264.199936 0)"/>
     <use xlink:href="#NanumGothic-70" transform="translate(318.699921 0)"/>
     <use xlink:href="#NanumGothic-73" transform="translate(379.299911 0)"/>
     <use xlink:href="#NanumGothic-20" transform="translate(421.699905 0)"/>
     <use xlink:href="#NanumGothic-d7" transform="translate(449.69989 0)"/>
     <use xlink:href="#NanumGothic-20" transform="translate(508.899887 0)"/>
     <use xlink:href="#NanumGothic-31" transform="translate(536.899872 0)"/>
     <use xlink:href="#NanumGothic-38" transform="translate(597.499863 0)"/>
     <use xlink:href="#NanumGothic-2d" transform="translate(658.099854 0)"/>
     <use xlink:href="#NanumGothic-64" transform="translate(694.399841 0)"/>
     <use xlink:href="#NanumGothic-69" transform="translate(754.999832 0)"/>
     <use xlink:href="#NanumGothic-6d" transform="translate(779.199829 0)"/>
     <use xlink:href="#NanumGothic-5d" transform="translate(869.999817 0)"/>
    </g>
   </g>
   <g id="text_18">
    <!-- Stage 1과 Stage 2는 같은 모델 π$_θ$ (다른 token type) -->
    <g style="fill: #8b6914" transform="translate(329.993429 51.77275) scale(0.1 -0.1)">
     <defs>
      <path id="NanumGothic-acfc" d="M 4928 -806 
Q 4928 -896 4838 -896 
L 4576 -896 
Q 4486 -896 4486 -806 
L 4486 4915 
Q 4486 5005 4576 5005 
L 4838 5005 
Q 4928 5005 4928 4915 
L 4928 2413 
L 5811 2413 
Q 5850 2413 5878 2390 
Q 5907 2368 5907 2330 
L 5907 2112 
Q 5907 2080 5878 2054 
Q 5850 2029 5811 2029 
L 4928 2029 
L 4928 -806 
z
M 4090 973 
Q 4192 992 4198 928 
L 4237 704 
Q 4250 627 4154 614 
Q 3725 544 3213 486 
Q 2701 429 2182 397 
Q 1997 384 1747 377 
Q 1498 371 1238 368 
Q 979 365 732 365 
Q 486 365 307 371 
Q 269 371 240 396 
Q 211 422 211 454 
L 211 672 
Q 211 710 240 732 
Q 269 755 307 755 
Q 429 755 589 752 
Q 749 749 925 749 
Q 1101 749 1289 752 
Q 1478 755 1658 755 
L 1658 2522 
Q 1658 2560 1680 2589 
Q 1702 2618 1741 2618 
L 2016 2618 
Q 2048 2618 2073 2589 
Q 2099 2560 2099 2522 
L 2099 768 
Q 2112 768 2131 771 
Q 2150 774 2170 774 
Q 2394 787 2650 803 
Q 2906 819 3162 841 
Q 3418 864 3658 896 
Q 3898 928 4090 973 
z
M 608 4410 
Q 608 4448 640 4467 
Q 672 4486 704 4486 
L 3104 4486 
Q 3258 4486 3350 4454 
Q 3443 4422 3494 4361 
Q 3546 4301 3565 4205 
Q 3584 4109 3590 3974 
Q 3597 3712 3587 3437 
Q 3578 3162 3555 2883 
Q 3533 2605 3494 2336 
Q 3456 2067 3405 1830 
Q 3392 1792 3369 1760 
Q 3347 1728 3309 1734 
L 3053 1754 
Q 2944 1760 2976 1869 
Q 3034 2106 3075 2381 
Q 3117 2656 3139 2934 
Q 3162 3213 3168 3478 
Q 3174 3744 3155 3968 
Q 3142 4058 3120 4080 
Q 3098 4102 3008 4102 
L 704 4102 
Q 659 4102 633 4124 
Q 608 4147 608 4179 
L 608 4410 
z
" transform="scale(0.015625)"/>
      <path id="NanumGothic-b294" d="M 5037 2893 
Q 5037 2854 5005 2835 
Q 4973 2816 4941 2816 
L 1619 2816 
Q 1318 2816 1225 2941 
Q 1133 3066 1133 3328 
L 1133 4806 
Q 1133 4896 1222 4896 
L 1485 4896 
Q 1574 4896 1574 4806 
L 1574 3341 
Q 1574 3251 1603 3225 
Q 1632 3200 1722 3200 
L 4941 3200 
Q 4973 3200 5005 3177 
Q 5037 3155 5037 3123 
L 5037 2893 
z
M 5133 -704 
Q 5133 -742 5101 -761 
Q 5069 -781 5037 -781 
L 1562 -781 
Q 1261 -781 1168 -656 
Q 1075 -531 1075 -269 
L 1075 979 
Q 1075 1069 1165 1069 
L 1427 1069 
Q 1517 1069 1517 979 
L 1517 -262 
Q 1517 -352 1545 -374 
Q 1574 -397 1664 -397 
L 5037 -397 
Q 5069 -397 5101 -419 
Q 5133 -442 5133 -474 
L 5133 -704 
z
M 5728 1958 
Q 5760 1958 5792 1936 
Q 5824 1914 5824 1875 
L 5824 1658 
Q 5824 1626 5792 1600 
Q 5760 1574 5728 1574 
L 288 1574 
Q 250 1574 221 1600 
Q 192 1626 192 1658 
L 192 1875 
Q 192 1914 221 1936 
Q 250 1958 288 1958 
L 5728 1958 
z
" transform="scale(0.015625)"/>
      <path id="NanumGothic-ac19" d="M 4928 218 
Q 4928 134 4845 134 
L 1786 134 
L 1786 -378 
Q 1786 -467 1818 -505 
Q 1850 -544 1939 -544 
L 4986 -544 
Q 5069 -544 5069 -627 
L 5069 -826 
Q 5069 -915 4986 -915 
L 1824 -915 
Q 1542 -915 1440 -822 
Q 1338 -730 1338 -461 
L 1338 1088 
Q 1338 1357 1440 1449 
Q 1542 1542 1824 1542 
L 4877 1542 
Q 4960 1542 4960 1459 
L 4960 1261 
Q 4960 1171 4877 1171 
L 1939 1171 
Q 1850 1171 1818 1136 
Q 1786 1101 1786 1005 
L 1786 499 
L 4838 499 
Q 4928 499 4928 429 
L 4928 218 
z
M 3290 4326 
Q 3213 3904 3033 3545 
Q 2854 3187 2544 2867 
Q 2234 2547 1779 2262 
Q 1325 1978 698 1709 
Q 595 1664 557 1747 
L 461 1958 
Q 435 2010 457 2042 
Q 480 2074 512 2086 
Q 2579 2938 2810 4211 
Q 2848 4397 2656 4397 
L 685 4397 
Q 608 4397 608 4480 
L 608 4704 
Q 608 4781 685 4781 
L 2803 4781 
Q 3110 4781 3222 4672 
Q 3334 4563 3290 4326 
z
M 4928 1952 
Q 4928 1862 4838 1862 
L 4576 1862 
Q 4486 1862 4486 1952 
L 4486 4915 
Q 4486 5005 4576 5005 
L 4838 5005 
Q 4928 5005 4928 4915 
L 4928 3616 
L 5811 3616 
Q 5850 3616 5878 3593 
Q 5907 3571 5907 3533 
L 5907 3315 
Q 5907 3283 5878 3257 
Q 5850 3232 5811 3232 
L 4928 3232 
L 4928 1952 
z
" transform="scale(0.015625)"/>
      <path id="NanumGothic-c740" d="M 5728 2022 
Q 5760 2022 5792 2000 
Q 5824 1978 5824 1939 
L 5824 1722 
Q 5824 1690 5792 1664 
Q 5760 1638 5728 1638 
L 288 1638 
Q 250 1638 221 1664 
Q 192 1690 192 1722 
L 192 1939 
Q 192 1978 221 2000 
Q 250 2022 288 2022 
L 5728 2022 
z
M 3008 2624 
Q 2701 2624 2352 2681 
Q 2003 2739 1705 2873 
Q 1408 3008 1213 3229 
Q 1018 3450 1018 3776 
Q 1018 4122 1213 4342 
Q 1408 4563 1705 4691 
Q 2003 4819 2352 4867 
Q 2701 4915 3008 4915 
Q 3322 4915 3674 4857 
Q 4026 4800 4320 4669 
Q 4614 4538 4806 4320 
Q 4998 4102 4998 3776 
Q 4998 3450 4806 3229 
Q 4614 3008 4320 2873 
Q 4026 2739 3674 2681 
Q 3322 2624 3008 2624 
z
M 3008 4518 
Q 2803 4518 2540 4489 
Q 2278 4461 2048 4381 
Q 1818 4301 1658 4153 
Q 1498 4006 1498 3770 
Q 1498 3533 1658 3385 
Q 1818 3238 2048 3158 
Q 2278 3078 2540 3049 
Q 2803 3021 3008 3021 
Q 3213 3021 3475 3049 
Q 3738 3078 3968 3158 
Q 4198 3238 4358 3385 
Q 4518 3533 4518 3770 
Q 4518 4006 4358 4153 
Q 4198 4301 3968 4381 
Q 3738 4461 3475 4489 
Q 3213 4518 3008 4518 
z
M 5133 -704 
Q 5133 -742 5101 -761 
Q 5069 -781 5037 -781 
L 1562 -781 
Q 1261 -781 1168 -656 
Q 1075 -531 1075 -269 
L 1075 1037 
Q 1075 1126 1165 1126 
L 1427 1126 
Q 1517 1126 1517 1037 
L 1517 -262 
Q 1517 -352 1545 -374 
Q 1574 -397 1664 -397 
L 5037 -397 
Q 5069 -397 5101 -419 
Q 5133 -442 5133 -474 
L 5133 -704 
z
" transform="scale(0.015625)"/>
      <path id="NanumGothic-baa8" d="M 1005 4134 
Q 1005 4403 1107 4496 
Q 1210 4589 1491 4589 
L 4493 4589 
Q 4646 4589 4739 4569 
Q 4832 4550 4886 4499 
Q 4941 4448 4960 4358 
Q 4979 4269 4979 4134 
L 4979 2349 
Q 4979 2080 4876 1987 
Q 4774 1894 4493 1894 
L 3213 1894 
L 3213 499 
L 5728 499 
Q 5760 499 5792 476 
Q 5824 454 5824 416 
L 5824 198 
Q 5824 166 5792 140 
Q 5760 115 5728 115 
L 288 115 
Q 250 115 221 140 
Q 192 166 192 198 
L 192 416 
Q 192 454 221 476 
Q 250 499 288 499 
L 2771 499 
L 2771 1894 
L 1491 1894 
Q 1338 1894 1245 1913 
Q 1152 1933 1097 1987 
Q 1043 2042 1024 2128 
Q 1005 2214 1005 2349 
L 1005 4134 
z
M 1600 4205 
Q 1510 4205 1478 4169 
Q 1446 4134 1446 4038 
L 1446 2445 
Q 1446 2349 1478 2313 
Q 1510 2278 1600 2278 
L 4384 2278 
Q 4474 2278 4506 2313 
Q 4538 2349 4538 2445 
L 4538 4038 
Q 4538 4134 4506 4169 
Q 4474 4205 4384 4205 
L 1600 4205 
z
" transform="scale(0.015625)"/>
      <path id="NanumGothic-b378" d="M 5498 -838 
Q 5498 -870 5469 -892 
Q 5440 -915 5414 -915 
L 1990 -915 
Q 1690 -915 1597 -803 
Q 1504 -691 1504 -422 
L 1504 26 
Q 1504 294 1616 387 
Q 1728 480 2016 480 
L 4781 480 
Q 4870 480 4896 505 
Q 4922 531 4922 627 
L 4922 960 
Q 4922 1056 4899 1081 
Q 4877 1107 4787 1107 
L 1581 1107 
Q 1549 1107 1520 1126 
Q 1491 1146 1491 1178 
L 1491 1408 
Q 1491 1440 1520 1459 
Q 1549 1478 1581 1478 
L 4858 1478 
Q 5011 1478 5107 1456 
Q 5203 1434 5260 1382 
Q 5318 1331 5340 1238 
Q 5363 1146 5363 1011 
L 5363 563 
Q 5363 294 5251 201 
Q 5139 109 4851 109 
L 2080 109 
Q 1990 109 1968 83 
Q 1946 58 1946 -38 
L 1946 -397 
Q 1946 -486 1971 -515 
Q 1997 -544 2086 -544 
L 5408 -544 
Q 5440 -544 5469 -563 
Q 5498 -582 5498 -614 
L 5498 -838 
z
M 3264 2413 
Q 3283 2330 3187 2304 
Q 2214 2067 1018 2099 
Q 730 2106 624 2234 
Q 518 2362 518 2630 
L 518 4314 
Q 518 4582 620 4672 
Q 723 4762 1005 4762 
L 2803 4762 
Q 2886 4762 2886 4685 
L 2886 4454 
Q 2886 4378 2803 4378 
L 1088 4378 
Q 998 4378 979 4355 
Q 960 4333 960 4237 
L 960 2662 
Q 960 2566 992 2531 
Q 1024 2496 1114 2496 
Q 1606 2490 2124 2538 
Q 2643 2586 3104 2675 
Q 3168 2688 3190 2669 
Q 3213 2650 3226 2611 
L 3264 2413 
z
M 3808 3680 
L 3808 4806 
Q 3808 4896 3898 4896 
L 4141 4896 
Q 4230 4896 4230 4806 
L 4230 2010 
Q 4230 1920 4141 1920 
L 3898 1920 
Q 3808 1920 3808 2010 
L 3808 3296 
L 2560 3296 
Q 2477 3296 2477 3373 
L 2477 3603 
Q 2477 3680 2560 3680 
L 3808 3680 
z
M 5363 1926 
Q 5363 1837 5274 1837 
L 5030 1837 
Q 4941 1837 4941 1926 
L 4941 4915 
Q 4941 5005 5030 5005 
L 5274 5005 
Q 5363 5005 5363 4915 
L 5363 1926 
z
" transform="scale(0.015625)"/>
      <path id="NanumGothic-b2e4" d="M 4019 1171 
Q 4032 1082 3936 1062 
Q 3699 1005 3337 953 
Q 2976 902 2576 864 
Q 2176 826 1785 806 
Q 1395 787 1107 794 
Q 819 800 713 928 
Q 608 1056 608 1325 
L 608 4077 
Q 608 4346 710 4435 
Q 813 4525 1094 4525 
L 3296 4525 
Q 3379 4525 3379 4448 
L 3379 4218 
Q 3379 4141 3296 4141 
L 1178 4141 
Q 1088 4141 1069 4118 
Q 1050 4096 1050 4000 
L 1050 1357 
Q 1050 1261 1082 1229 
Q 1114 1197 1203 1190 
Q 1510 1178 1852 1194 
Q 2195 1210 2544 1245 
Q 2893 1280 3229 1328 
Q 3565 1376 3866 1434 
Q 3968 1453 3987 1363 
L 4019 1171 
z
M 4928 -806 
Q 4928 -896 4838 -896 
L 4576 -896 
Q 4486 -896 4486 -806 
L 4486 4915 
Q 4486 5005 4576 5005 
L 4838 5005 
Q 4928 5005 4928 4915 
L 4928 2586 
L 5811 2586 
Q 5850 2586 5878 2563 
Q 5907 2541 5907 2502 
L 5907 2285 
Q 5907 2253 5878 2227 
Q 5850 2202 5811 2202 
L 4928 2202 
L 4928 -806 
z
" transform="scale(0.015625)"/>
      <path id="NanumGothic-b978" d="M 5728 1734 
Q 5760 1734 5792 1712 
Q 5824 1690 5824 1651 
L 5824 1434 
Q 5824 1402 5792 1376 
Q 5760 1350 5728 1350 
L 288 1350 
Q 250 1350 221 1376 
Q 192 1402 192 1434 
L 192 1651 
Q 192 1690 221 1712 
Q 250 1734 288 1734 
L 5728 1734 
z
M 5082 -704 
Q 5082 -742 5050 -761 
Q 5018 -781 4986 -781 
L 1562 -781 
Q 1261 -781 1168 -656 
Q 1075 -531 1075 -269 
L 1075 749 
Q 1075 838 1165 838 
L 1427 838 
Q 1517 838 1517 749 
L 1517 -262 
Q 1517 -352 1545 -374 
Q 1574 -397 1664 -397 
L 4986 -397 
Q 5018 -397 5050 -419 
Q 5082 -442 5082 -474 
L 5082 -704 
z
M 5043 2406 
Q 5043 2374 5014 2352 
Q 4986 2330 4960 2330 
L 1587 2330 
Q 1286 2330 1193 2442 
Q 1101 2554 1101 2822 
L 1101 3328 
Q 1101 3603 1213 3692 
Q 1325 3782 1613 3782 
L 4333 3782 
Q 4422 3782 4444 3808 
Q 4467 3834 4467 3930 
L 4467 4352 
Q 4467 4448 4444 4473 
Q 4422 4499 4333 4499 
L 1190 4499 
Q 1158 4499 1129 4518 
Q 1101 4538 1101 4570 
L 1101 4800 
Q 1101 4832 1129 4851 
Q 1158 4870 1190 4870 
L 4403 4870 
Q 4557 4870 4653 4848 
Q 4749 4826 4806 4774 
Q 4864 4723 4886 4630 
Q 4909 4538 4909 4403 
L 4909 3878 
Q 4909 3603 4797 3513 
Q 4685 3424 4397 3424 
L 1670 3424 
Q 1581 3424 1558 3398 
Q 1536 3373 1536 3277 
L 1536 2842 
Q 1536 2752 1561 2723 
Q 1587 2694 1677 2694 
L 4954 2694 
Q 4986 2694 5014 2675 
Q 5043 2656 5043 2624 
L 5043 2406 
z
" transform="scale(0.015625)"/>
      <path id="NanumGothic-79" d="M 301 -1222 
Q 224 -1203 237 -1126 
L 256 -909 
Q 256 -832 333 -864 
Q 435 -902 570 -902 
Q 704 -902 816 -860 
Q 928 -819 986 -749 
Q 1056 -659 1142 -454 
Q 1229 -250 1312 13 
Q 1024 794 742 1555 
Q 461 2317 173 3098 
Q 160 3130 173 3158 
Q 186 3187 224 3187 
L 525 3187 
Q 614 3187 653 3098 
L 1517 614 
Q 1754 1267 1968 1859 
Q 2182 2451 2419 3098 
Q 2451 3187 2547 3187 
L 2822 3187 
Q 2861 3187 2873 3158 
Q 2886 3130 2874 3098 
L 1542 -474 
Q 1472 -659 1385 -806 
Q 1299 -954 1210 -1043 
Q 1094 -1152 953 -1206 
Q 813 -1261 659 -1261 
Q 563 -1261 486 -1254 
Q 410 -1248 301 -1222 
z
" transform="scale(0.015625)"/>
     </defs>
     <use xlink:href="#NanumGothic-53" transform="translate(0 0.796875)"/>
     <use xlink:href="#NanumGothic-74" transform="translate(54.499985 0.796875)"/>
     <use xlink:href="#NanumGothic-61" transform="translate(90.799973 0.796875)"/>
     <use xlink:href="#NanumGothic-67" transform="translate(145.299957 0.796875)"/>
     <use xlink:href="#NanumGothic-65" transform="translate(205.899948 0.796875)"/>
     <use xlink:href="#NanumGothic-20" transform="translate(260.399933 0.796875)"/>
     <use xlink:href="#NanumGothic-31" transform="translate(288.399918 0.796875)"/>
     <use xlink:href="#NanumGothic-acfc" transform="translate(348.999908 0.796875)"/>
     <use xlink:href="#NanumGothic-20" transform="translate(442.999893 0.796875)"/>
     <use xlink:href="#NanumGothic-53" transform="translate(470.999878 0.796875)"/>
     <use xlink:href="#NanumGothic-74" transform="translate(525.499863 0.796875)"/>
     <use xlink:href="#NanumGothic-61" transform="translate(561.79985 0.796875)"/>
     <use xlink:href="#NanumGothic-67" transform="translate(616.299835 0.796875)"/>
     <use xlink:href="#NanumGothic-65" transform="translate(676.899826 0.796875)"/>
     <use xlink:href="#NanumGothic-20" transform="translate(731.399811 0.796875)"/>
     <use xlink:href="#NanumGothic-32" transform="translate(759.399796 0.796875)"/>
     <use xlink:href="#NanumGothic-b294" transform="translate(819.999786 0.796875)"/>
     <use xlink:href="#NanumGothic-20" transform="translate(913.999771 0.796875)"/>
     <use xlink:href="#NanumGothic-ac19" transform="translate(941.999756 0.796875)"/>
     <use xlink:href="#NanumGothic-c740" transform="translate(1035.999741 0.796875)"/>
     <use xlink:href="#NanumGothic-20" transform="translate(1129.999725 0.796875)"/>
     <use xlink:href="#NanumGothic-baa8" transform="translate(1157.99971 0.796875)"/>
     <use xlink:href="#NanumGothic-b378" transform="translate(1251.999695 0.796875)"/>
     <use xlink:href="#NanumGothic-20" transform="translate(1345.99968 0.796875)"/>
     <use xlink:href="#NanumGothic-3c0" transform="translate(1373.999664 0.796875)"/>
     <use xlink:href="#DejaVuSans-Oblique-3b8" transform="translate(1420.856689 -15.609375) scale(0.7)"/>
     <use xlink:href="#NanumGothic-20" transform="translate(1466.418213 0.796875)"/>
     <use xlink:href="#NanumGothic-28" transform="translate(1494.418198 0.796875)"/>
     <use xlink:href="#NanumGothic-b2e4" transform="translate(1530.718185 0.796875)"/>
     <use xlink:href="#NanumGothic-b978" transform="translate(1624.71817 0.796875)"/>
     <use xlink:href="#NanumGothic-20" transform="translate(1718.718155 0.796875)"/>
     <use xlink:href="#NanumGothic-74" transform="translate(1746.71814 0.796875)"/>
     <use xlink:href="#NanumGothic-6f" transform="translate(1783.018127 0.796875)"/>
     <use xlink:href="#NanumGothic-6b" transform="translate(1843.618118 0.796875)"/>
     <use xlink:href="#NanumGothic-65" transform="translate(1895.618103 0.796875)"/>
     <use xlink:href="#NanumGothic-6e" transform="translate(1950.118088 0.796875)"/>
     <use xlink:href="#NanumGothic-20" transform="translate(2010.718079 0.796875)"/>
     <use xlink:href="#NanumGothic-74" transform="translate(2038.718063 0.796875)"/>
     <use xlink:href="#NanumGothic-79" transform="translate(2075.018051 0.796875)"/>
     <use xlink:href="#NanumGothic-70" transform="translate(2121.418045 0.796875)"/>
     <use xlink:href="#NanumGothic-65" transform="translate(2182.018036 0.796875)"/>
     <use xlink:href="#NanumGothic-29" transform="translate(2236.518021 0.796875)"/>
    </g>
   </g>
  </g>
  <g id="text_19">
   <!-- π0.5 Hierarchical Inference: 같은 모델, 두 단계 추론 -->
   <g transform="translate(297.671875 18.052188) scale(0.14 -0.14)">
    <defs>
     <path id="NanumGothic-2e" d="M 691 -256 
Q 691 -122 784 -29 
Q 877 64 1011 64 
Q 1146 64 1238 -29 
Q 1331 -122 1331 -256 
Q 1331 -390 1238 -483 
Q 1146 -576 1011 -576 
Q 877 -576 784 -483 
Q 691 -390 691 -256 
z
" transform="scale(0.015625)"/>
     <path id="NanumGothic-b450" d="M 5030 2554 
Q 5030 2464 4947 2464 
L 1491 2464 
Q 1210 2464 1107 2557 
Q 1005 2650 1005 2918 
L 1005 4422 
Q 1005 4691 1107 4784 
Q 1210 4877 1491 4877 
L 4902 4877 
Q 4986 4877 4986 4794 
L 4986 4582 
Q 4986 4493 4902 4493 
L 1600 4493 
Q 1510 4493 1478 4454 
Q 1446 4416 1446 4320 
L 1446 3021 
Q 1446 2931 1478 2889 
Q 1510 2848 1600 2848 
L 4947 2848 
Q 5030 2848 5030 2765 
L 5030 2554 
z
M 2854 -858 
Q 2822 -858 2796 -829 
Q 2771 -800 2771 -762 
L 2771 1267 
L 288 1267 
Q 250 1267 221 1292 
Q 192 1318 192 1350 
L 192 1568 
Q 192 1606 221 1628 
Q 250 1651 288 1651 
L 5728 1651 
Q 5760 1651 5792 1628 
Q 5824 1606 5824 1568 
L 5824 1350 
Q 5824 1318 5792 1292 
Q 5760 1267 5728 1267 
L 3213 1267 
L 3213 -762 
Q 3213 -800 3190 -829 
Q 3168 -858 3130 -858 
L 2854 -858 
z
" transform="scale(0.015625)"/>
     <path id="NanumGothic-b2e8" d="M 4070 2054 
Q 4090 1971 3994 1946 
Q 3738 1888 3379 1843 
Q 3021 1798 2630 1769 
Q 2240 1741 1856 1728 
Q 1472 1715 1178 1722 
Q 890 1728 784 1856 
Q 678 1984 678 2253 
L 678 4192 
Q 678 4461 780 4550 
Q 883 4640 1165 4640 
L 3347 4640 
Q 3430 4640 3430 4563 
L 3430 4333 
Q 3430 4256 3347 4256 
L 1248 4256 
Q 1158 4256 1139 4233 
Q 1120 4211 1120 4115 
L 1120 2285 
Q 1120 2189 1152 2157 
Q 1184 2125 1274 2118 
Q 1568 2106 1904 2115 
Q 2240 2125 2585 2150 
Q 2931 2176 3267 2217 
Q 3603 2259 3910 2317 
Q 3974 2330 3996 2310 
Q 4019 2291 4032 2253 
L 4070 2054 
z
M 4928 768 
Q 4928 678 4838 678 
L 4576 678 
Q 4486 678 4486 768 
L 4486 4915 
Q 4486 5005 4576 5005 
L 4838 5005 
Q 4928 5005 4928 4915 
L 4928 3091 
L 5811 3091 
Q 5850 3091 5878 3068 
Q 5907 3046 5907 3008 
L 5907 2790 
Q 5907 2758 5878 2732 
Q 5850 2707 5811 2707 
L 4928 2707 
L 4928 768 
z
M 5216 -704 
Q 5216 -742 5184 -761 
Q 5152 -781 5120 -781 
L 1843 -781 
Q 1542 -781 1449 -665 
Q 1357 -550 1357 -288 
L 1357 883 
Q 1357 973 1446 973 
L 1709 973 
Q 1798 973 1798 883 
L 1798 -262 
Q 1798 -352 1827 -374 
Q 1856 -397 1946 -397 
L 5120 -397 
Q 5152 -397 5184 -419 
Q 5216 -442 5216 -474 
L 5216 -704 
z
" transform="scale(0.015625)"/>
     <path id="NanumGothic-acc4" d="M 2938 4000 
Q 2925 3846 2902 3702 
Q 2880 3558 2848 3411 
L 3808 3411 
L 3808 4806 
Q 3808 4896 3898 4896 
L 4141 4896 
Q 4230 4896 4230 4806 
L 4230 -563 
Q 4230 -653 4141 -653 
L 3898 -653 
Q 3808 -653 3808 -563 
L 3808 1568 
L 2586 1568 
Q 2502 1568 2502 1645 
L 2502 1869 
Q 2502 1946 2586 1946 
L 3808 1946 
L 3808 3034 
L 2739 3034 
Q 2272 1594 730 570 
Q 646 512 602 576 
L 461 774 
Q 429 813 441 851 
Q 454 890 486 909 
Q 915 1178 1264 1507 
Q 1613 1837 1869 2211 
Q 2125 2586 2278 2998 
Q 2432 3411 2470 3846 
Q 2483 4006 2444 4054 
Q 2406 4102 2278 4102 
L 723 4102 
Q 646 4102 646 4179 
L 646 4410 
Q 646 4442 672 4464 
Q 698 4486 730 4486 
L 2432 4486 
Q 2720 4486 2838 4364 
Q 2957 4243 2938 4000 
z
M 5363 -806 
Q 5363 -896 5274 -896 
L 5030 -896 
Q 4941 -896 4941 -806 
L 4941 4915 
Q 4941 5005 5030 5005 
L 5274 5005 
Q 5363 5005 5363 4915 
L 5363 -806 
z
" transform="scale(0.015625)"/>
     <path id="NanumGothic-cd94" d="M 4506 3501 
Q 4358 3347 4108 3180 
Q 3859 3014 3539 2848 
Q 3731 2790 3958 2720 
Q 4186 2650 4416 2586 
Q 4646 2522 4864 2467 
Q 5082 2413 5248 2381 
Q 5331 2362 5306 2291 
L 5229 2061 
Q 5210 1990 5114 2010 
Q 4928 2048 4672 2115 
Q 4416 2182 4134 2265 
Q 3853 2349 3568 2438 
Q 3283 2528 3034 2611 
Q 2502 2381 1920 2198 
Q 1338 2016 832 1939 
Q 774 1926 752 1939 
Q 730 1952 717 2003 
L 659 2208 
Q 646 2259 662 2284 
Q 678 2310 710 2317 
Q 1094 2381 1558 2515 
Q 2022 2650 2473 2822 
Q 2925 2995 3325 3193 
Q 3725 3392 3981 3584 
Q 4051 3635 4064 3696 
Q 4077 3757 3974 3757 
L 1210 3757 
Q 1126 3757 1126 3840 
L 1126 4064 
Q 1126 4141 1210 4141 
L 4147 4141 
Q 5107 4141 4506 3501 
z
M 2854 -858 
Q 2822 -858 2796 -829 
Q 2771 -800 2771 -762 
L 2771 1024 
L 288 1024 
Q 250 1024 221 1049 
Q 192 1075 192 1107 
L 192 1325 
Q 192 1363 221 1385 
Q 250 1408 288 1408 
L 5728 1408 
Q 5760 1408 5792 1385 
Q 5824 1363 5824 1325 
L 5824 1107 
Q 5824 1075 5792 1049 
Q 5760 1024 5728 1024 
L 3213 1024 
L 3213 -762 
Q 3213 -800 3190 -829 
Q 3168 -858 3130 -858 
L 2854 -858 
z
M 3814 5005 
Q 3910 5005 3910 4915 
L 3910 4710 
Q 3910 4614 3814 4614 
L 2093 4614 
Q 1997 4614 1997 4710 
L 1997 4915 
Q 1997 5005 2093 5005 
L 3814 5005 
z
" transform="scale(0.015625)"/>
     <path id="NanumGothic-b860" d="M 5043 2419 
Q 5043 2387 5014 2364 
Q 4986 2342 4960 2342 
L 3206 2342 
L 3206 1658 
L 5728 1658 
Q 5760 1658 5792 1635 
Q 5824 1613 5824 1574 
L 5824 1357 
Q 5824 1325 5792 1299 
Q 5760 1274 5728 1274 
L 288 1274 
Q 250 1274 221 1299 
Q 192 1325 192 1357 
L 192 1574 
Q 192 1613 221 1635 
Q 250 1658 288 1658 
L 2765 1658 
L 2765 2342 
L 1587 2342 
Q 1286 2342 1193 2454 
Q 1101 2566 1101 2835 
L 1101 3341 
Q 1101 3616 1213 3705 
Q 1325 3795 1613 3795 
L 4333 3795 
Q 4422 3795 4444 3820 
Q 4467 3846 4467 3942 
L 4467 4365 
Q 4467 4461 4444 4486 
Q 4422 4512 4333 4512 
L 1190 4512 
Q 1158 4512 1129 4531 
Q 1101 4550 1101 4582 
L 1101 4813 
Q 1101 4845 1129 4864 
Q 1158 4883 1190 4883 
L 4403 4883 
Q 4557 4883 4653 4860 
Q 4749 4838 4806 4787 
Q 4864 4736 4886 4643 
Q 4909 4550 4909 4416 
L 4909 3891 
Q 4909 3616 4797 3526 
Q 4685 3437 4397 3437 
L 1670 3437 
Q 1581 3437 1558 3411 
Q 1536 3386 1536 3290 
L 1536 2854 
Q 1536 2765 1561 2736 
Q 1587 2707 1677 2707 
L 4954 2707 
Q 4986 2707 5014 2688 
Q 5043 2669 5043 2637 
L 5043 2419 
z
M 5082 -704 
Q 5082 -742 5050 -761 
Q 5018 -781 4986 -781 
L 1562 -781 
Q 1261 -781 1168 -656 
Q 1075 -531 1075 -269 
L 1075 710 
Q 1075 800 1165 800 
L 1427 800 
Q 1517 800 1517 710 
L 1517 -262 
Q 1517 -352 1545 -374 
Q 1574 -397 1664 -397 
L 4986 -397 
Q 5018 -397 5050 -419 
Q 5082 -442 5082 -474 
L 5082 -704 
z
" transform="scale(0.015625)"/>
    </defs>
    <use xlink:href="#NanumGothic-3c0"/>
    <use xlink:href="#NanumGothic-30" transform="translate(45.899994 0)"/>
    <use xlink:href="#NanumGothic-2e" transform="translate(106.499985 0)"/>
    <use xlink:href="#NanumGothic-35" transform="translate(136.799973 0)"/>
    <use xlink:href="#NanumGothic-20" transform="translate(197.399963 0)"/>
    <use xlink:href="#NanumGothic-48" transform="translate(225.399948 0)"/>
    <use xlink:href="#NanumGothic-69" transform="translate(298.09993 0)"/>
    <use xlink:href="#NanumGothic-65" transform="translate(322.299927 0)"/>
    <use xlink:href="#NanumGothic-72" transform="translate(376.799911 0)"/>
    <use xlink:href="#NanumGothic-61" transform="translate(413.099899 0)"/>
    <use xlink:href="#NanumGothic-72" transform="translate(467.599884 0)"/>
    <use xlink:href="#NanumGothic-63" transform="translate(503.899872 0)"/>
    <use xlink:href="#NanumGothic-68" transform="translate(552.299866 0)"/>
    <use xlink:href="#NanumGothic-69" transform="translate(612.899857 0)"/>
    <use xlink:href="#NanumGothic-63" transform="translate(637.099854 0)"/>
    <use xlink:href="#NanumGothic-61" transform="translate(685.499847 0)"/>
    <use xlink:href="#NanumGothic-6c" transform="translate(739.999832 0)"/>
    <use xlink:href="#NanumGothic-20" transform="translate(764.199829 0)"/>
    <use xlink:href="#NanumGothic-49" transform="translate(792.199814 0)"/>
    <use xlink:href="#NanumGothic-6e" transform="translate(816.399811 0)"/>
    <use xlink:href="#NanumGothic-66" transform="translate(876.999802 0)"/>
    <use xlink:href="#NanumGothic-65" transform="translate(913.299789 0)"/>
    <use xlink:href="#NanumGothic-72" transform="translate(967.799774 0)"/>
    <use xlink:href="#NanumGothic-65" transform="translate(1004.099762 0)"/>
    <use xlink:href="#NanumGothic-6e" transform="translate(1058.599747 0)"/>
    <use xlink:href="#NanumGothic-63" transform="translate(1119.199738 0)"/>
    <use xlink:href="#NanumGothic-65" transform="translate(1167.599731 0)"/>
    <use xlink:href="#NanumGothic-3a" transform="translate(1222.099716 0)"/>
    <use xlink:href="#NanumGothic-20" transform="translate(1252.399704 0)"/>
    <use xlink:href="#NanumGothic-ac19" transform="translate(1280.399689 0)"/>
    <use xlink:href="#NanumGothic-c740" transform="translate(1374.399673 0)"/>
    <use xlink:href="#NanumGothic-20" transform="translate(1468.399658 0)"/>
    <use xlink:href="#NanumGothic-baa8" transform="translate(1496.399643 0)"/>
    <use xlink:href="#NanumGothic-b378" transform="translate(1590.399628 0)"/>
    <use xlink:href="#NanumGothic-2c" transform="translate(1684.399612 0)"/>
    <use xlink:href="#NanumGothic-20" transform="translate(1714.6996 0)"/>
    <use xlink:href="#NanumGothic-b450" transform="translate(1742.699585 0)"/>
    <use xlink:href="#NanumGothic-20" transform="translate(1836.69957 0)"/>
    <use xlink:href="#NanumGothic-b2e8" transform="translate(1864.699554 0)"/>
    <use xlink:href="#NanumGothic-acc4" transform="translate(1958.699539 0)"/>
    <use xlink:href="#NanumGothic-20" transform="translate(2052.699524 0)"/>
    <use xlink:href="#NanumGothic-cd94" transform="translate(2080.699509 0)"/>
    <use xlink:href="#NanumGothic-b860" transform="translate(2174.699493 0)"/>
   </g>
  </g>
 </g>
 <defs>
  <clipPath id="p6d4e7bae78">
   <rect x="7.2" y="30.6" width="898.56" height="416.52"/>
  </clipPath>
 </defs>
</svg>
