<?xml version="1.0" encoding="utf-8" standalone="no"?>
<!DOCTYPE svg PUBLIC "-//W3C//DTD SVG 1.1//EN"
  "http://www.w3.org/Graphics/SVG/1.1/DTD/svg11.dtd">
<svg xmlns:xlink="http://www.w3.org/1999/xlink" width="628.2pt" height="487.795312pt" viewBox="0 0 628.2 487.795312" xmlns="http://www.w3.org/2000/svg" version="1.1">
 <metadata>
  <rdf:RDF xmlns:dc="http://purl.org/dc/elements/1.1/" xmlns:cc="http://creativecommons.org/ns#" xmlns:rdf="http://www.w3.org/1999/02/22-rdf-syntax-ns#">
   <cc:Work>
    <dc:type rdf:resource="http://purl.org/dc/dcmitype/StillImage"/>
    <dc:date>2026-05-29T09:08:00.082016</dc:date>
    <dc:format>image/svg+xml</dc:format>
    <dc:creator>
     <cc:Agent>
      <dc:title>Matplotlib v3.10.9, https://matplotlib.org/</dc:title>
     </cc:Agent>
    </dc:creator>
   </cc:Work>
  </rdf:RDF>
 </metadata>
 <defs>
  <style type="text/css">*{stroke-linejoin: round; stroke-linecap: butt}</style>
 </defs>
 <g id="figure_1">
  <g id="patch_1">
   <path d="M 0 487.795312 
L 628.2 487.795312 
L 628.2 0 
L 0 0 
z
" style="fill: #ffffff"/>
  </g>
  <g id="axes_1">
   <g id="patch_2">
    <path d="M 7.2 390.24 
L 621 390.24 
L 621 57.6 
L 7.2 57.6 
z
" style="fill: #ffffff"/>
   </g>
   <g id="line2d_1">
    <path d="M 87.26087 308.928 
L 514.252174 150 
" clip-path="url(#p3d9d8e5e81)" style="fill: none; stroke-dasharray: 5.92,2.56; stroke-dashoffset: 0; stroke: #5b56b5; stroke-opacity: 0.6; stroke-width: 1.6"/>
   </g>
   <g id="matplotlib.axis_1"/>
   <g id="matplotlib.axis_2"/>
   <g id="patch_3">
    <path d="M 97.595447 305.081426 
Q 140.632822 289.06273 181.574582 273.824031 
" clip-path="url(#p3d9d8e5e81)" style="fill: none; stroke: #3da084; stroke-width: 2; stroke-linecap: round"/>
    <path d="M 173.571059 272.961697 
L 181.574582 273.824031 
L 176.082601 279.709449 
z
" clip-path="url(#p3d9d8e5e81)" style="fill: #3da084; stroke: #3da084; stroke-width: 2; stroke-linecap: round"/>
   </g>
   <g id="patch_4">
    <path d="M 204.343273 265.349426 
Q 247.380648 249.33073 288.322408 234.092031 
" clip-path="url(#p3d9d8e5e81)" style="fill: none; stroke: #3da084; stroke-width: 2; stroke-linecap: round"/>
    <path d="M 280.318885 233.229697 
L 288.322408 234.092031 
L 282.830427 239.977449 
z
" clip-path="url(#p3d9d8e5e81)" style="fill: #3da084; stroke: #3da084; stroke-width: 2; stroke-linecap: round"/>
   </g>
   <g id="patch_5">
    <path d="M 311.091099 225.617426 
Q 354.128474 209.59873 395.070234 194.360031 
" clip-path="url(#p3d9d8e5e81)" style="fill: none; stroke: #3da084; stroke-width: 2; stroke-linecap: round"/>
    <path d="M 387.066711 193.497697 
L 395.070234 194.360031 
L 389.578254 200.245449 
z
" clip-path="url(#p3d9d8e5e81)" style="fill: #3da084; stroke: #3da084; stroke-width: 2; stroke-linecap: round"/>
   </g>
   <g id="patch_6">
    <path d="M 417.838925 185.885426 
Q 460.8763 169.86673 501.81806 154.628031 
" clip-path="url(#p3d9d8e5e81)" style="fill: none; stroke: #3da084; stroke-width: 2; stroke-linecap: round"/>
    <path d="M 493.814537 153.765697 
L 501.81806 154.628031 
L 496.32608 160.513449 
z
" clip-path="url(#p3d9d8e5e81)" style="fill: #3da084; stroke: #3da084; stroke-width: 2; stroke-linecap: round"/>
   </g>
   <g id="patch_7">
    <path d="M 7.2 390.24 
L 7.2 57.6 
" style="fill: none; stroke: #333333; stroke-width: 0.8; stroke-linejoin: miter; stroke-linecap: square"/>
   </g>
   <g id="patch_8">
    <path d="M 7.2 390.24 
L 621 390.24 
" style="fill: none; stroke: #333333; stroke-width: 0.8; stroke-linejoin: miter; stroke-linecap: square"/>
   </g>
   <g id="PathCollection_1">
    <defs>
     <path id="m1dc04050fd" d="M 0 9.746794 
C 2.58488 9.746794 5.064238 8.719811 6.892024 6.892024 
C 8.719811 5.064238 9.746794 2.58488 9.746794 0 
C 9.746794 -2.58488 8.719811 -5.064238 6.892024 -6.892024 
C 5.064238 -8.719811 2.58488 -9.746794 0 -9.746794 
C -2.58488 -9.746794 -5.064238 -8.719811 -6.892024 -6.892024 
C -8.719811 -5.064238 -9.746794 -2.58488 -9.746794 0 
C -9.746794 2.58488 -8.719811 5.064238 -6.892024 6.892024 
C -5.064238 8.719811 -2.58488 9.746794 0 9.746794 
z
" style="stroke: #8a8884; stroke-width: 1.5"/>
    </defs>
    <g clip-path="url(#p3d9d8e5e81)">
     <use xlink:href="#m1dc04050fd" x="87.26087" y="308.928" style="fill: #e7e6e2; stroke: #8a8884; stroke-width: 1.5"/>
    </g>
   </g>
   <g id="PathCollection_2">
    <defs>
     <path id="m2d1bc28a3d" d="M 0 9.746794 
C 2.58488 9.746794 5.064238 8.719811 6.892024 6.892024 
C 8.719811 5.064238 9.746794 2.58488 9.746794 0 
C 9.746794 -2.58488 8.719811 -5.064238 6.892024 -6.892024 
C 5.064238 -8.719811 2.58488 -9.746794 0 -9.746794 
C -2.58488 -9.746794 -5.064238 -8.719811 -6.892024 -6.892024 
C -8.719811 -5.064238 -9.746794 -2.58488 -9.746794 0 
C -9.746794 2.58488 -8.719811 5.064238 -6.892024 6.892024 
C -5.064238 8.719811 -2.58488 9.746794 0 9.746794 
z
" style="stroke: #3da084; stroke-width: 1.5"/>
    </defs>
    <g clip-path="url(#p3d9d8e5e81)">
     <use xlink:href="#m2d1bc28a3d" x="514.252174" y="150" style="fill: #d8eee0; stroke: #3da084; stroke-width: 1.5"/>
    </g>
   </g>
   <g id="text_1">
    <!-- ε (τ=0) -->
    <g style="fill: #666666" transform="translate(64.072486 332.952) scale(0.13 -0.13)">
     <defs>
      <path id="NanumGothic-3b5" d="M 2688 659 
Q 2579 122 2236 -112 
Q 1894 -346 1402 -346 
Q 1152 -346 925 -285 
Q 698 -224 525 -99 
Q 352 26 249 218 
Q 147 410 147 672 
Q 147 806 192 947 
Q 237 1088 317 1203 
Q 397 1318 505 1398 
Q 614 1478 742 1504 
Q 506 1594 387 1786 
Q 269 1978 269 2240 
Q 269 2470 371 2643 
Q 474 2816 640 2931 
Q 806 3046 1017 3104 
Q 1229 3162 1453 3162 
Q 1920 3162 2227 2950 
Q 2534 2739 2624 2298 
L 2208 2298 
Q 2138 2554 1958 2675 
Q 1779 2797 1453 2797 
Q 1299 2797 1158 2765 
Q 1018 2733 912 2665 
Q 806 2598 745 2496 
Q 685 2394 685 2253 
Q 685 2054 768 1939 
Q 851 1824 988 1766 
Q 1126 1709 1308 1693 
Q 1491 1677 1690 1677 
L 1690 1299 
Q 1446 1299 1241 1270 
Q 1037 1242 889 1174 
Q 742 1107 659 992 
Q 576 877 576 704 
Q 576 531 646 403 
Q 717 275 832 195 
Q 947 115 1091 73 
Q 1235 32 1389 32 
Q 1741 32 1965 182 
Q 2189 333 2272 659 
L 2688 659 
z
" transform="scale(0.015625)"/>
      <path id="NanumGothic-20" transform="scale(0.015625)"/>
      <path id="NanumGothic-28" d="M 1984 -1133 
Q 1939 -1133 1929 -1129 
Q 1920 -1126 1894 -1094 
Q 1312 -365 1030 384 
Q 749 1133 749 1933 
Q 749 2726 1030 3475 
Q 1312 4224 1894 4960 
Q 1920 4992 1929 4995 
Q 1939 4998 1971 4998 
L 2150 4998 
Q 2189 4998 2189 4992 
Q 2189 4986 2170 4954 
Q 1165 3379 1165 1933 
Q 1165 1197 1421 448 
Q 1677 -301 2176 -1088 
Q 2208 -1133 2144 -1133 
L 1984 -1133 
z
" transform="scale(0.015625)"/>
      <path id="NanumGothic-3c4" d="M 2771 2739 
L 1382 2739 
L 1382 320 
Q 1382 147 1456 86 
Q 1530 26 1626 26 
Q 1734 26 1804 102 
Q 1875 179 1907 416 
L 2259 326 
Q 2208 -38 2045 -188 
Q 1882 -339 1594 -339 
Q 1338 -339 1155 -185 
Q 973 -32 973 307 
L 973 2739 
L 83 2739 
L 83 3085 
L 2771 3085 
L 2771 2739 
z
" transform="scale(0.015625)"/>
      <path id="NanumGothic-3d" d="M 3757 2995 
Q 3827 2995 3836 2985 
Q 3846 2976 3846 2906 
L 3846 2618 
Q 3846 2547 3836 2537 
Q 3827 2528 3757 2528 
L 467 2528 
Q 397 2528 387 2537 
Q 378 2547 378 2618 
L 378 2906 
Q 378 2976 387 2985 
Q 397 2995 467 2995 
L 3757 2995 
z
M 3757 1626 
Q 3827 1626 3836 1616 
Q 3846 1606 3846 1536 
L 3846 1261 
Q 3846 1190 3836 1180 
Q 3827 1171 3757 1171 
L 467 1171 
Q 397 1171 387 1180 
Q 378 1190 378 1261 
L 378 1536 
Q 378 1606 387 1616 
Q 397 1626 467 1626 
L 3757 1626 
z
" transform="scale(0.015625)"/>
      <path id="NanumGothic-30" d="M 3066 2093 
Q 3066 4102 1965 4102 
Q 864 4102 864 2093 
Q 864 77 1965 77 
Q 3066 77 3066 2093 
z
M 3526 2093 
Q 3526 -326 1965 -326 
Q 390 -326 390 2093 
Q 390 3098 698 3725 
Q 1088 4512 1965 4512 
Q 2829 4512 3226 3725 
Q 3373 3411 3449 3008 
Q 3526 2605 3526 2093 
z
" transform="scale(0.015625)"/>
      <path id="NanumGothic-29" d="M 301 -1133 
Q 243 -1133 275 -1088 
Q 774 -301 1027 448 
Q 1280 1197 1280 1933 
Q 1280 2662 1030 3414 
Q 781 4166 282 4954 
Q 262 4986 262 4992 
Q 262 4998 294 4998 
L 474 4998 
Q 506 4998 515 4995 
Q 525 4992 557 4960 
Q 1139 4224 1417 3475 
Q 1696 2726 1696 1933 
Q 1696 1133 1417 384 
Q 1139 -365 557 -1094 
Q 525 -1126 515 -1129 
Q 506 -1133 461 -1133 
L 301 -1133 
z
" transform="scale(0.015625)"/>
     </defs>
     <use xlink:href="#NanumGothic-3b5"/>
     <use xlink:href="#NanumGothic-20" transform="translate(44.499985 0)"/>
     <use xlink:href="#NanumGothic-28" transform="translate(72.499969 0)"/>
     <use xlink:href="#NanumGothic-3c4" transform="translate(108.799957 0)"/>
     <use xlink:href="#NanumGothic-3d" transform="translate(153.399948 0)"/>
     <use xlink:href="#NanumGothic-30" transform="translate(218.799942 0)"/>
     <use xlink:href="#NanumGothic-29" transform="translate(279.399933 0)"/>
    </g>
   </g>
   <g id="text_2">
    <!-- A$_t$ (τ=1) -->
    <g style="fill: #3da084" transform="translate(522.258261 170.328) scale(0.13 -0.13)">
     <defs>
      <path id="NanumGothic-41" d="M 3386 1402 
Q 3117 2067 2870 2716 
Q 2624 3366 2355 4032 
Q 2086 3366 1827 2716 
Q 1568 2067 1299 1402 
L 3386 1402 
z
M 4499 -186 
Q 4531 -275 4442 -275 
L 4134 -275 
Q 4096 -275 4067 -262 
Q 4038 -250 4013 -186 
L 3539 992 
L 1133 992 
Q 1011 691 896 403 
Q 781 115 666 -186 
Q 640 -250 611 -262 
Q 582 -275 544 -275 
L 243 -275 
Q 154 -275 186 -186 
L 2067 4397 
Q 2099 4474 2182 4474 
L 2573 4474 
Q 2656 4474 2688 4397 
L 4499 -186 
z
" transform="scale(0.015625)"/>
      <path id="DejaVuSans-Oblique-74" d="M 2706 3500 
L 2619 3053 
L 1472 3053 
L 1100 1153 
Q 1081 1047 1072 975 
Q 1063 903 1063 863 
Q 1063 663 1183 572 
Q 1303 481 1569 481 
L 2150 481 
L 2053 0 
L 1503 0 
Q 991 0 739 200 
Q 488 400 488 806 
Q 488 878 497 964 
Q 506 1050 525 1153 
L 897 3053 
L 409 3053 
L 500 3500 
L 978 3500 
L 1172 4494 
L 1747 4494 
L 1556 3500 
L 2706 3500 
z
" transform="scale(0.015625)"/>
      <path id="NanumGothic-31" d="M 2362 -211 
Q 2362 -301 2272 -301 
L 2010 -301 
Q 1920 -301 1920 -211 
L 1920 3949 
Q 1722 3782 1549 3635 
Q 1376 3488 1184 3322 
Q 1114 3264 1056 3334 
L 928 3488 
Q 909 3520 909 3555 
Q 909 3590 941 3616 
L 1933 4448 
Q 1958 4474 2010 4474 
L 2182 4474 
Q 2317 4474 2339 4451 
Q 2362 4429 2362 4294 
L 2362 -211 
z
" transform="scale(0.015625)"/>
     </defs>
     <use xlink:href="#NanumGothic-41" transform="translate(0 0.90625)"/>
     <use xlink:href="#DejaVuSans-Oblique-74" transform="translate(73.657013 -15.5) scale(0.7)"/>
     <use xlink:href="#NanumGothic-20" transform="translate(103.837677 0.90625)"/>
     <use xlink:href="#NanumGothic-28" transform="translate(131.837662 0.90625)"/>
     <use xlink:href="#NanumGothic-3c4" transform="translate(168.13765 0.90625)"/>
     <use xlink:href="#NanumGothic-3d" transform="translate(212.73764 0.90625)"/>
     <use xlink:href="#NanumGothic-31" transform="translate(278.137634 0.90625)"/>
     <use xlink:href="#NanumGothic-29" transform="translate(338.737625 0.90625)"/>
    </g>
   </g>
   <g id="text_3">
    <!-- τ=0.25 -->
    <g style="fill: #666666" transform="translate(156.646957 252.564) scale(0.11 -0.11)">
     <defs>
      <path id="NanumGothic-2e" d="M 691 -256 
Q 691 -122 784 -29 
Q 877 64 1011 64 
Q 1146 64 1238 -29 
Q 1331 -122 1331 -256 
Q 1331 -390 1238 -483 
Q 1146 -576 1011 -576 
Q 877 -576 784 -483 
Q 691 -390 691 -256 
z
" transform="scale(0.015625)"/>
      <path id="NanumGothic-32" d="M 576 -301 
Q 506 -301 470 -297 
Q 435 -294 419 -278 
Q 403 -262 400 -227 
Q 397 -192 397 -122 
L 403 19 
Q 403 102 454 154 
L 1510 1318 
Q 2688 2592 2688 3251 
Q 2688 3635 2432 3891 
Q 2182 4141 1811 4141 
Q 1293 4141 730 3853 
Q 640 3808 627 3891 
L 589 4102 
Q 570 4211 653 4237 
Q 979 4384 1241 4454 
Q 1504 4525 1779 4525 
Q 2394 4525 2758 4218 
Q 3168 3885 3168 3270 
Q 3168 3034 3053 2752 
Q 2938 2470 2733 2163 
Q 2605 1984 2371 1696 
Q 2138 1408 1837 1082 
Q 1613 838 1392 588 
Q 1171 339 947 96 
L 3187 96 
Q 3277 96 3277 6 
L 3277 -211 
Q 3277 -301 3187 -301 
L 576 -301 
z
" transform="scale(0.015625)"/>
      <path id="NanumGothic-35" d="M 736 -205 
Q 646 -173 646 -90 
L 646 179 
Q 646 288 736 243 
Q 966 134 1187 89 
Q 1408 45 1670 45 
Q 2234 45 2586 320 
Q 2970 614 2970 1165 
Q 2970 2246 1734 2246 
Q 1491 2246 1296 2220 
Q 1101 2195 864 2131 
Q 794 2112 749 2147 
Q 704 2182 704 2253 
L 742 4294 
Q 742 4429 764 4451 
Q 787 4474 922 4474 
L 3110 4474 
Q 3200 4474 3200 4384 
L 3200 4173 
Q 3200 4083 3110 4083 
L 1178 4083 
Q 1171 3680 1161 3296 
Q 1152 2912 1146 2509 
Q 1459 2630 1907 2630 
Q 2579 2630 2995 2266 
Q 3411 1888 3411 1254 
Q 3411 480 2931 58 
Q 2470 -346 1670 -346 
Q 1382 -346 1171 -314 
Q 960 -282 736 -205 
z
" transform="scale(0.015625)"/>
     </defs>
     <use xlink:href="#NanumGothic-3c4"/>
     <use xlink:href="#NanumGothic-3d" transform="translate(44.599991 0)"/>
     <use xlink:href="#NanumGothic-30" transform="translate(109.999985 0)"/>
     <use xlink:href="#NanumGothic-2e" transform="translate(170.599976 0)"/>
     <use xlink:href="#NanumGothic-32" transform="translate(200.899963 0)"/>
     <use xlink:href="#NanumGothic-35" transform="translate(261.499954 0)"/>
    </g>
   </g>
   <g id="text_4">
    <!-- τ=0.5 -->
    <g style="fill: #666666" transform="translate(263.394783 212.832) scale(0.11 -0.11)">
     <use xlink:href="#NanumGothic-3c4"/>
     <use xlink:href="#NanumGothic-3d" transform="translate(44.599991 0)"/>
     <use xlink:href="#NanumGothic-30" transform="translate(109.999985 0)"/>
     <use xlink:href="#NanumGothic-2e" transform="translate(170.599976 0)"/>
     <use xlink:href="#NanumGothic-35" transform="translate(200.899963 0)"/>
    </g>
   </g>
   <g id="text_5">
    <!-- τ=0.75 -->
    <g style="fill: #666666" transform="translate(370.142609 173.1) scale(0.11 -0.11)">
     <defs>
      <path id="NanumGothic-37" d="M 1549 -211 
Q 1504 -301 1421 -301 
L 1101 -301 
Q 1062 -301 1046 -275 
Q 1030 -250 1050 -211 
L 2912 4083 
L 538 4083 
Q 448 4083 448 4173 
L 448 4384 
Q 448 4474 538 4474 
L 3194 4474 
Q 3328 4474 3350 4451 
Q 3373 4429 3373 4294 
L 3373 4134 
Q 3373 4083 3354 4045 
L 1549 -211 
z
" transform="scale(0.015625)"/>
     </defs>
     <use xlink:href="#NanumGothic-3c4"/>
     <use xlink:href="#NanumGothic-3d" transform="translate(44.599991 0)"/>
     <use xlink:href="#NanumGothic-30" transform="translate(109.999985 0)"/>
     <use xlink:href="#NanumGothic-2e" transform="translate(170.599976 0)"/>
     <use xlink:href="#NanumGothic-37" transform="translate(200.899963 0)"/>
     <use xlink:href="#NanumGothic-35" transform="translate(261.499954 0)"/>
    </g>
   </g>
   <g id="text_6">
    <!-- x -->
    <g style="fill: #333333" transform="translate(604.987826 384.696) scale(0.13 -0.13)">
     <defs>
      <path id="NanumGothic-78" d="M 3046 -186 
Q 3066 -218 3050 -246 
Q 3034 -275 2995 -275 
L 2637 -275 
Q 2560 -275 2509 -186 
L 1645 1222 
L 717 -186 
Q 659 -275 589 -275 
L 269 -275 
Q 230 -275 214 -246 
Q 198 -218 218 -186 
L 1389 1562 
L 339 3098 
Q 320 3130 336 3158 
Q 352 3187 390 3187 
L 742 3187 
Q 819 3187 870 3098 
L 1645 1894 
L 2432 3098 
Q 2490 3187 2560 3187 
L 2874 3187 
Q 2912 3187 2928 3158 
Q 2944 3130 2925 3098 
L 1901 1562 
L 3046 -186 
z
" transform="scale(0.015625)"/>
     </defs>
     <use xlink:href="#NanumGothic-78"/>
    </g>
   </g>
   <g id="text_7">
    <!-- y -->
    <g style="fill: #333333" transform="translate(15.206087 68.688) scale(0.13 -0.13)">
     <defs>
      <path id="NanumGothic-79" d="M 301 -1222 
Q 224 -1203 237 -1126 
L 256 -909 
Q 256 -832 333 -864 
Q 435 -902 570 -902 
Q 704 -902 816 -860 
Q 928 -819 986 -749 
Q 1056 -659 1142 -454 
Q 1229 -250 1312 13 
Q 1024 794 742 1555 
Q 461 2317 173 3098 
Q 160 3130 173 3158 
Q 186 3187 224 3187 
L 525 3187 
Q 614 3187 653 3098 
L 1517 614 
Q 1754 1267 1968 1859 
Q 2182 2451 2419 3098 
Q 2451 3187 2547 3187 
L 2822 3187 
Q 2861 3187 2873 3158 
Q 2886 3130 2874 3098 
L 1542 -474 
Q 1472 -659 1385 -806 
Q 1299 -954 1210 -1043 
Q 1094 -1152 953 -1206 
Q 813 -1261 659 -1261 
Q 563 -1261 486 -1254 
Q 410 -1248 301 -1222 
z
" transform="scale(0.015625)"/>
     </defs>
     <use xlink:href="#NanumGothic-79"/>
    </g>
   </g>
   <g id="text_8">
    <!-- 노이즈 ε 에서 action A$_t$ 로 가는 직선 -->
    <g style="fill: #666666" transform="translate(219.96 47.6) scale(0.12 -0.12)">
     <defs>
      <path id="NanumGothic-b178" d="M 5101 2086 
Q 5101 2048 5069 2029 
Q 5037 2010 5005 2010 
L 3213 2010 
L 3213 499 
L 5728 499 
Q 5760 499 5792 476 
Q 5824 454 5824 416 
L 5824 198 
Q 5824 166 5792 140 
Q 5760 115 5728 115 
L 288 115 
Q 250 115 221 140 
Q 192 166 192 198 
L 192 416 
Q 192 454 221 476 
Q 250 499 288 499 
L 2771 499 
L 2771 2010 
L 1568 2010 
Q 1267 2010 1174 2134 
Q 1082 2259 1082 2522 
L 1082 4538 
Q 1082 4627 1171 4627 
L 1434 4627 
Q 1523 4627 1523 4538 
L 1523 2528 
Q 1523 2438 1552 2416 
Q 1581 2394 1670 2394 
L 5005 2394 
Q 5037 2394 5069 2371 
Q 5101 2349 5101 2317 
L 5101 2086 
z
" transform="scale(0.015625)"/>
      <path id="NanumGothic-c774" d="M 3654 2566 
Q 3654 2208 3568 1843 
Q 3482 1478 3296 1184 
Q 3110 890 2819 701 
Q 2528 512 2118 512 
Q 1696 512 1405 697 
Q 1114 883 938 1180 
Q 762 1478 685 1843 
Q 608 2208 608 2566 
Q 608 2944 685 3312 
Q 762 3680 938 3974 
Q 1114 4269 1405 4448 
Q 1696 4627 2118 4627 
Q 2528 4627 2819 4448 
Q 3110 4269 3296 3977 
Q 3482 3686 3568 3318 
Q 3654 2950 3654 2566 
z
M 3200 2573 
Q 3200 2867 3139 3168 
Q 3078 3469 2950 3709 
Q 2822 3949 2617 4099 
Q 2413 4250 2118 4250 
Q 1811 4250 1609 4099 
Q 1408 3949 1286 3709 
Q 1165 3469 1113 3168 
Q 1062 2867 1062 2573 
Q 1062 2291 1110 1993 
Q 1158 1696 1280 1449 
Q 1402 1203 1606 1046 
Q 1811 890 2118 890 
Q 2413 890 2617 1046 
Q 2822 1203 2950 1449 
Q 3078 1696 3139 1993 
Q 3200 2291 3200 2573 
z
M 5152 -806 
Q 5152 -896 5062 -896 
L 4800 -896 
Q 4710 -896 4710 -806 
L 4710 4915 
Q 4710 5005 4800 5005 
L 5062 5005 
Q 5152 5005 5152 4915 
L 5152 -806 
z
" transform="scale(0.015625)"/>
      <path id="NanumGothic-c988" d="M 5261 1856 
Q 5235 1792 5139 1824 
Q 4627 1965 4086 2198 
Q 3546 2432 3046 2726 
Q 2592 2432 2086 2182 
Q 1581 1933 979 1709 
Q 896 1683 851 1754 
L 768 1958 
Q 730 2042 813 2074 
Q 1376 2291 1827 2508 
Q 2278 2726 2652 2960 
Q 3027 3194 3353 3456 
Q 3680 3718 4006 4038 
Q 4154 4186 3962 4186 
L 1210 4186 
Q 1126 4186 1126 4269 
L 1126 4493 
Q 1126 4570 1210 4570 
L 4134 4570 
Q 4384 4570 4525 4518 
Q 4666 4467 4704 4380 
Q 4742 4294 4688 4172 
Q 4634 4051 4499 3917 
Q 3974 3386 3392 2970 
Q 3590 2854 3827 2742 
Q 4064 2630 4317 2524 
Q 4570 2419 4819 2332 
Q 5069 2246 5299 2182 
Q 5357 2170 5363 2147 
Q 5370 2125 5350 2086 
L 5261 1856 
z
M 5728 499 
Q 5760 499 5792 476 
Q 5824 454 5824 416 
L 5824 198 
Q 5824 166 5792 140 
Q 5760 115 5728 115 
L 288 115 
Q 250 115 221 140 
Q 192 166 192 198 
L 192 416 
Q 192 454 221 476 
Q 250 499 288 499 
L 5728 499 
z
" transform="scale(0.015625)"/>
      <path id="NanumGothic-c5d0" d="M 4230 -563 
Q 4230 -653 4141 -653 
L 3898 -653 
Q 3808 -653 3808 -563 
L 3808 2419 
L 3085 2419 
Q 3059 1978 2944 1648 
Q 2829 1318 2643 1097 
Q 2458 877 2218 768 
Q 1978 659 1709 659 
Q 1421 659 1177 784 
Q 934 909 755 1155 
Q 576 1402 473 1773 
Q 371 2144 371 2643 
Q 371 3142 473 3510 
Q 576 3878 758 4124 
Q 941 4371 1184 4489 
Q 1427 4608 1715 4608 
Q 1990 4608 2230 4499 
Q 2470 4390 2656 4166 
Q 2842 3942 2954 3603 
Q 3066 3264 3085 2803 
L 3808 2803 
L 3808 4806 
Q 3808 4896 3898 4896 
L 4141 4896 
Q 4230 4896 4230 4806 
L 4230 -563 
z
M 2643 2643 
Q 2643 2938 2585 3219 
Q 2528 3501 2413 3725 
Q 2298 3949 2122 4086 
Q 1946 4224 1709 4224 
Q 1459 4224 1289 4083 
Q 1120 3942 1014 3715 
Q 909 3488 864 3206 
Q 819 2925 819 2643 
Q 819 2362 870 2077 
Q 922 1792 1027 1561 
Q 1133 1331 1302 1187 
Q 1472 1043 1709 1043 
Q 1946 1043 2122 1184 
Q 2298 1325 2413 1552 
Q 2528 1779 2585 2067 
Q 2643 2355 2643 2643 
z
M 5363 -806 
Q 5363 -896 5274 -896 
L 5030 -896 
Q 4941 -896 4941 -806 
L 4941 4915 
Q 4941 5005 5030 5005 
L 5274 5005 
Q 5363 5005 5363 4915 
L 5363 -806 
z
" transform="scale(0.015625)"/>
      <path id="NanumGothic-c11c" d="M 5152 -806 
Q 5152 -896 5062 -896 
L 4800 -896 
Q 4710 -896 4710 -806 
L 4710 2534 
L 3309 2534 
Q 3226 2534 3226 2611 
L 3226 2842 
Q 3226 2918 3309 2918 
L 4710 2918 
L 4710 4915 
Q 4710 5005 4800 5005 
L 5062 5005 
Q 5152 5005 5152 4915 
L 5152 -806 
z
M 2323 4589 
Q 2323 4166 2288 3779 
Q 2253 3392 2176 3034 
Q 2240 2778 2374 2493 
Q 2509 2208 2691 1926 
Q 2874 1645 3101 1379 
Q 3328 1114 3584 902 
Q 3616 877 3619 838 
Q 3622 800 3603 774 
L 3443 576 
Q 3386 506 3309 576 
Q 3130 730 2941 944 
Q 2752 1158 2576 1395 
Q 2400 1632 2246 1881 
Q 2093 2131 1984 2362 
Q 1779 1779 1446 1289 
Q 1114 800 653 378 
Q 589 326 544 371 
L 352 570 
Q 333 589 336 621 
Q 339 653 371 685 
Q 762 1056 1050 1465 
Q 1338 1875 1520 2348 
Q 1702 2822 1788 3379 
Q 1875 3936 1875 4602 
Q 1875 4646 1897 4668 
Q 1920 4691 1952 4691 
L 2253 4678 
Q 2323 4678 2323 4589 
z
" transform="scale(0.015625)"/>
      <path id="NanumGothic-61" d="M 2566 1530 
L 2445 1530 
Q 2086 1542 1808 1500 
Q 1530 1459 1344 1389 
Q 1075 1293 940 1104 
Q 806 915 806 653 
Q 806 493 857 355 
Q 909 218 1018 141 
Q 1210 -13 1530 -13 
Q 1754 -13 1942 76 
Q 2131 166 2272 332 
Q 2413 499 2489 745 
Q 2566 992 2566 1312 
L 2566 1530 
z
M 742 2650 
Q 710 2630 681 2640 
Q 653 2650 653 2682 
L 653 2925 
Q 653 3014 742 3059 
Q 966 3181 1219 3229 
Q 1472 3277 1773 3277 
Q 2413 3277 2707 2973 
Q 3002 2669 3002 2054 
L 3002 448 
Q 3002 256 3008 105 
Q 3014 -45 3027 -186 
Q 3027 -275 2938 -275 
L 2707 -275 
Q 2618 -275 2618 -186 
L 2618 307 
Q 2483 -19 2166 -198 
Q 1850 -378 1478 -378 
Q 832 -378 531 0 
Q 429 128 377 297 
Q 326 467 326 634 
Q 326 1024 508 1305 
Q 691 1587 1069 1728 
Q 1530 1894 2483 1894 
L 2566 1894 
L 2566 2086 
Q 2566 2490 2384 2701 
Q 2202 2912 1773 2912 
Q 1485 2912 1229 2851 
Q 973 2790 742 2650 
z
" transform="scale(0.015625)"/>
      <path id="NanumGothic-63" d="M 2816 -301 
Q 2624 -333 2445 -345 
Q 2266 -358 2016 -358 
Q 1619 -358 1308 -217 
Q 998 -77 784 166 
Q 570 410 454 742 
Q 339 1075 339 1459 
Q 339 1850 460 2179 
Q 582 2509 809 2749 
Q 1037 2989 1353 3126 
Q 1670 3264 2067 3264 
Q 2278 3264 2451 3248 
Q 2624 3232 2822 3187 
Q 2912 3162 2906 3066 
L 2886 2861 
Q 2874 2784 2790 2803 
Q 2624 2854 2470 2876 
Q 2317 2899 2131 2899 
Q 1805 2899 1558 2793 
Q 1312 2688 1145 2496 
Q 979 2304 896 2038 
Q 813 1773 813 1459 
Q 813 1171 899 908 
Q 986 646 1149 444 
Q 1312 243 1545 124 
Q 1779 6 2080 6 
Q 2304 6 2451 25 
Q 2598 45 2784 96 
Q 2880 122 2886 51 
L 2906 -186 
Q 2912 -282 2816 -301 
z
" transform="scale(0.015625)"/>
      <path id="NanumGothic-74" d="M 2208 -282 
Q 1939 -378 1677 -378 
Q 1158 -378 992 -38 
Q 883 192 883 774 
L 883 2816 
L 282 2816 
Q 192 2816 192 2906 
L 192 3098 
Q 192 3187 282 3187 
L 883 3187 
L 883 4051 
Q 883 4147 966 4147 
L 1235 4147 
Q 1318 4147 1318 4051 
L 1318 3187 
L 2029 3187 
Q 2118 3187 2118 3098 
L 2118 2906 
Q 2118 2816 2029 2816 
L 1318 2816 
L 1318 557 
Q 1318 -13 1779 -13 
Q 1958 -13 2182 64 
Q 2214 77 2243 64 
Q 2272 51 2272 13 
L 2285 -154 
Q 2298 -243 2208 -282 
z
" transform="scale(0.015625)"/>
      <path id="NanumGothic-69" d="M 1050 -186 
Q 1050 -275 960 -275 
L 678 -275 
Q 589 -275 589 -186 
L 589 3098 
Q 589 3187 678 3187 
L 960 3187 
Q 1050 3187 1050 3098 
L 1050 -186 
z
M 506 4397 
Q 506 4525 595 4617 
Q 685 4710 813 4710 
Q 941 4710 1033 4617 
Q 1126 4525 1126 4397 
Q 1126 4269 1033 4179 
Q 941 4090 813 4090 
Q 685 4090 595 4179 
Q 506 4269 506 4397 
z
" transform="scale(0.015625)"/>
      <path id="NanumGothic-6f" d="M 3130 1453 
Q 3130 1754 3050 2016 
Q 2970 2278 2829 2483 
Q 2496 2893 1965 2893 
Q 1696 2893 1481 2787 
Q 1267 2682 1101 2483 
Q 954 2278 874 2016 
Q 794 1754 794 1453 
Q 794 1146 874 883 
Q 954 621 1101 422 
Q 1440 6 1965 6 
Q 2234 6 2448 115 
Q 2662 224 2829 422 
Q 2970 621 3050 883 
Q 3130 1146 3130 1453 
z
M 3603 1453 
Q 3603 1075 3494 752 
Q 3386 429 3206 186 
Q 2982 -83 2672 -230 
Q 2362 -378 1965 -378 
Q 1568 -378 1254 -230 
Q 941 -83 717 186 
Q 538 429 432 752 
Q 326 1075 326 1453 
Q 326 2227 717 2720 
Q 1165 3277 1965 3277 
Q 2368 3277 2675 3139 
Q 2982 3002 3206 2720 
Q 3603 2214 3603 1453 
z
" transform="scale(0.015625)"/>
      <path id="NanumGothic-6e" d="M 3334 -186 
Q 3334 -275 3245 -275 
L 2989 -275 
Q 2899 -275 2899 -186 
L 2899 1830 
Q 2899 2419 2688 2665 
Q 2477 2912 2093 2912 
Q 1574 2912 1302 2624 
Q 1030 2336 1030 1818 
L 1030 -186 
Q 1030 -275 941 -275 
L 685 -275 
Q 595 -275 595 -186 
L 595 2374 
Q 595 2650 592 2803 
Q 589 2957 576 3098 
Q 570 3142 598 3164 
Q 627 3187 666 3187 
L 896 3187 
Q 986 3187 986 3098 
L 986 2746 
Q 1165 3021 1417 3149 
Q 1670 3277 2112 3277 
Q 2720 3277 3027 2925 
Q 3334 2573 3334 1933 
L 3334 -186 
z
" transform="scale(0.015625)"/>
      <path id="NanumGothic-b85c" d="M 2771 499 
L 2771 1613 
L 1491 1613 
Q 1190 1613 1097 1725 
Q 1005 1837 1005 2106 
L 1005 2906 
Q 1005 3181 1117 3270 
Q 1229 3360 1517 3360 
L 4403 3360 
Q 4493 3360 4515 3385 
Q 4538 3411 4538 3507 
L 4538 4173 
Q 4538 4269 4515 4294 
Q 4493 4320 4403 4320 
L 1094 4320 
Q 1062 4320 1033 4339 
Q 1005 4358 1005 4390 
L 1005 4634 
Q 1005 4666 1033 4685 
Q 1062 4704 1094 4704 
L 4474 4704 
Q 4627 4704 4723 4681 
Q 4819 4659 4876 4608 
Q 4934 4557 4956 4464 
Q 4979 4371 4979 4237 
L 4979 3437 
Q 4979 3162 4867 3072 
Q 4755 2982 4467 2982 
L 1581 2982 
Q 1491 2982 1468 2956 
Q 1446 2931 1446 2835 
L 1446 2144 
Q 1446 2054 1472 2025 
Q 1498 1997 1587 1997 
L 5024 1997 
Q 5056 1997 5085 1977 
Q 5114 1958 5114 1926 
L 5114 1690 
Q 5114 1658 5085 1635 
Q 5056 1613 5030 1613 
L 3213 1613 
L 3213 499 
L 5728 499 
Q 5760 499 5792 476 
Q 5824 454 5824 416 
L 5824 198 
Q 5824 166 5792 140 
Q 5760 115 5728 115 
L 288 115 
Q 250 115 221 140 
Q 192 166 192 198 
L 192 416 
Q 192 454 221 476 
Q 250 499 288 499 
L 2771 499 
z
" transform="scale(0.015625)"/>
      <path id="NanumGothic-ac00" d="M 3245 4064 
Q 3213 3514 3027 2982 
Q 2842 2451 2512 1968 
Q 2182 1485 1718 1072 
Q 1254 659 666 346 
Q 582 301 544 365 
L 403 589 
Q 358 666 429 698 
Q 973 979 1392 1340 
Q 1811 1702 2108 2124 
Q 2406 2547 2579 3014 
Q 2752 3482 2797 3974 
Q 2810 4070 2771 4105 
Q 2733 4141 2643 4141 
L 659 4141 
Q 582 4141 582 4224 
L 582 4448 
Q 582 4525 659 4525 
L 2765 4525 
Q 3066 4525 3162 4413 
Q 3258 4301 3245 4064 
z
M 4928 -806 
Q 4928 -896 4838 -896 
L 4576 -896 
Q 4486 -896 4486 -806 
L 4486 4915 
Q 4486 5005 4576 5005 
L 4838 5005 
Q 4928 5005 4928 4915 
L 4928 2650 
L 5811 2650 
Q 5850 2650 5878 2627 
Q 5907 2605 5907 2566 
L 5907 2349 
Q 5907 2317 5878 2291 
Q 5850 2266 5811 2266 
L 4928 2266 
L 4928 -806 
z
" transform="scale(0.015625)"/>
      <path id="NanumGothic-b294" d="M 5037 2893 
Q 5037 2854 5005 2835 
Q 4973 2816 4941 2816 
L 1619 2816 
Q 1318 2816 1225 2941 
Q 1133 3066 1133 3328 
L 1133 4806 
Q 1133 4896 1222 4896 
L 1485 4896 
Q 1574 4896 1574 4806 
L 1574 3341 
Q 1574 3251 1603 3225 
Q 1632 3200 1722 3200 
L 4941 3200 
Q 4973 3200 5005 3177 
Q 5037 3155 5037 3123 
L 5037 2893 
z
M 5133 -704 
Q 5133 -742 5101 -761 
Q 5069 -781 5037 -781 
L 1562 -781 
Q 1261 -781 1168 -656 
Q 1075 -531 1075 -269 
L 1075 979 
Q 1075 1069 1165 1069 
L 1427 1069 
Q 1517 1069 1517 979 
L 1517 -262 
Q 1517 -352 1545 -374 
Q 1574 -397 1664 -397 
L 5037 -397 
Q 5069 -397 5101 -419 
Q 5133 -442 5133 -474 
L 5133 -704 
z
M 5728 1958 
Q 5760 1958 5792 1936 
Q 5824 1914 5824 1875 
L 5824 1658 
Q 5824 1626 5792 1600 
Q 5760 1574 5728 1574 
L 288 1574 
Q 250 1574 221 1600 
Q 192 1626 192 1658 
L 192 1875 
Q 192 1914 221 1936 
Q 250 1958 288 1958 
L 5728 1958 
z
" transform="scale(0.015625)"/>
      <path id="NanumGothic-c9c1" d="M 3328 4166 
Q 3238 3917 3084 3667 
Q 2931 3418 2720 3174 
Q 2938 2950 3258 2739 
Q 3578 2528 3955 2368 
Q 4006 2349 4012 2313 
Q 4019 2278 4000 2246 
L 3872 2016 
Q 3853 1984 3814 1981 
Q 3776 1978 3744 1990 
Q 3603 2054 3440 2144 
Q 3277 2234 3104 2349 
Q 2931 2464 2761 2598 
Q 2592 2733 2445 2880 
Q 2074 2515 1629 2211 
Q 1184 1907 723 1702 
Q 691 1690 659 1683 
Q 627 1677 608 1709 
L 480 1933 
Q 461 1965 477 2000 
Q 493 2035 525 2048 
Q 1350 2445 1932 2957 
Q 2515 3469 2842 4141 
Q 2886 4230 2854 4268 
Q 2822 4307 2733 4307 
L 858 4307 
Q 781 4307 781 4390 
L 781 4614 
Q 781 4691 858 4691 
L 2906 4691 
Q 3238 4691 3334 4572 
Q 3430 4454 3328 4166 
z
M 1421 1133 
Q 1421 1171 1453 1190 
Q 1485 1210 1517 1210 
L 4666 1210 
Q 4966 1210 5059 1098 
Q 5152 986 5152 723 
L 5152 -832 
Q 5152 -922 5062 -922 
L 4800 -922 
Q 4710 -922 4710 -832 
L 4710 691 
Q 4710 781 4681 803 
Q 4653 826 4563 826 
L 1517 826 
Q 1485 826 1453 848 
Q 1421 870 1421 902 
L 1421 1133 
z
M 5152 1658 
Q 5152 1568 5062 1568 
L 4800 1568 
Q 4710 1568 4710 1658 
L 4710 4915 
Q 4710 5005 4800 5005 
L 5062 5005 
Q 5152 5005 5152 4915 
L 5152 1658 
z
" transform="scale(0.015625)"/>
      <path id="NanumGothic-c120" d="M 2381 4710 
Q 2381 4461 2352 4224 
Q 2323 3987 2272 3763 
Q 2349 3501 2493 3241 
Q 2637 2982 2832 2748 
Q 3027 2515 3257 2326 
Q 3488 2138 3731 2022 
Q 3770 2003 3766 1971 
Q 3763 1939 3750 1907 
L 3622 1696 
Q 3603 1664 3577 1651 
Q 3552 1638 3494 1670 
Q 3309 1760 3107 1926 
Q 2906 2093 2710 2294 
Q 2515 2496 2348 2723 
Q 2182 2950 2074 3162 
Q 1856 2643 1501 2217 
Q 1146 1792 666 1478 
Q 634 1459 595 1452 
Q 557 1446 531 1478 
L 371 1690 
Q 352 1715 365 1753 
Q 378 1792 410 1811 
Q 755 2022 1040 2336 
Q 1325 2650 1526 3027 
Q 1728 3405 1833 3837 
Q 1939 4269 1933 4717 
Q 1933 4819 2010 4819 
L 2310 4800 
Q 2381 4800 2381 4710 
z
M 4710 3475 
L 4710 4915 
Q 4710 5005 4800 5005 
L 5062 5005 
Q 5152 5005 5152 4915 
L 5152 832 
Q 5152 742 5062 742 
L 4800 742 
Q 4710 742 4710 832 
L 4710 3091 
L 3392 3091 
Q 3309 3091 3309 3168 
L 3309 3398 
Q 3309 3475 3392 3475 
L 4710 3475 
z
M 5344 -704 
Q 5344 -742 5312 -761 
Q 5280 -781 5248 -781 
L 2042 -781 
Q 1741 -781 1648 -669 
Q 1555 -557 1555 -294 
L 1555 960 
Q 1555 1050 1645 1050 
L 1907 1050 
Q 1997 1050 1997 960 
L 1997 -262 
Q 1997 -352 2025 -374 
Q 2054 -397 2144 -397 
L 5248 -397 
Q 5280 -397 5312 -419 
Q 5344 -442 5344 -474 
L 5344 -704 
z
" transform="scale(0.015625)"/>
     </defs>
     <use xlink:href="#NanumGothic-b178" transform="translate(0 0.796875)"/>
     <use xlink:href="#NanumGothic-c774" transform="translate(93.999985 0.796875)"/>
     <use xlink:href="#NanumGothic-c988" transform="translate(187.999969 0.796875)"/>
     <use xlink:href="#NanumGothic-20" transform="translate(281.999954 0.796875)"/>
     <use xlink:href="#NanumGothic-3b5" transform="translate(309.999939 0.796875)"/>
     <use xlink:href="#NanumGothic-20" transform="translate(354.499924 0.796875)"/>
     <use xlink:href="#NanumGothic-c5d0" transform="translate(382.499908 0.796875)"/>
     <use xlink:href="#NanumGothic-c11c" transform="translate(476.499893 0.796875)"/>
     <use xlink:href="#NanumGothic-20" transform="translate(570.499878 0.796875)"/>
     <use xlink:href="#NanumGothic-61" transform="translate(598.499863 0.796875)"/>
     <use xlink:href="#NanumGothic-63" transform="translate(652.999847 0.796875)"/>
     <use xlink:href="#NanumGothic-74" transform="translate(701.399841 0.796875)"/>
     <use xlink:href="#NanumGothic-69" transform="translate(737.699829 0.796875)"/>
     <use xlink:href="#NanumGothic-6f" transform="translate(761.899826 0.796875)"/>
     <use xlink:href="#NanumGothic-6e" transform="translate(822.499817 0.796875)"/>
     <use xlink:href="#NanumGothic-20" transform="translate(883.099808 0.796875)"/>
     <use xlink:href="#NanumGothic-41" transform="translate(911.099792 0.796875)"/>
     <use xlink:href="#DejaVuSans-Oblique-74" transform="translate(984.756805 -15.609375) scale(0.7)"/>
     <use xlink:href="#NanumGothic-20" transform="translate(1014.937469 0.796875)"/>
     <use xlink:href="#NanumGothic-b85c" transform="translate(1042.937454 0.796875)"/>
     <use xlink:href="#NanumGothic-20" transform="translate(1136.937439 0.796875)"/>
     <use xlink:href="#NanumGothic-ac00" transform="translate(1164.937424 0.796875)"/>
     <use xlink:href="#NanumGothic-b294" transform="translate(1258.937408 0.796875)"/>
     <use xlink:href="#NanumGothic-20" transform="translate(1352.937393 0.796875)"/>
     <use xlink:href="#NanumGothic-c9c1" transform="translate(1380.937378 0.796875)"/>
     <use xlink:href="#NanumGothic-c120" transform="translate(1474.937363 0.796875)"/>
    </g>
   </g>
   <g id="PathCollection_3">
    <defs>
     <path id="m34803f0314" d="M 0 5.244044 
C 1.390737 5.244044 2.7247 4.691499 3.708099 3.708099 
C 4.691499 2.7247 5.244044 1.390737 5.244044 0 
C 5.244044 -1.390737 4.691499 -2.7247 3.708099 -3.708099 
C 2.7247 -4.691499 1.390737 -5.244044 0 -5.244044 
C -1.390737 -5.244044 -2.7247 -4.691499 -3.708099 -3.708099 
C -4.691499 -2.7247 -5.244044 -1.390737 -5.244044 0 
C -5.244044 1.390737 -4.691499 2.7247 -3.708099 3.708099 
C -2.7247 4.691499 -1.390737 5.244044 0 5.244044 
z
" style="stroke: #5b56b5"/>
    </defs>
    <g clip-path="url(#p3d9d8e5e81)">
     <use xlink:href="#m34803f0314" x="194.008696" y="269.196" style="fill: #5b56b5; stroke: #5b56b5"/>
    </g>
   </g>
   <g id="PathCollection_4">
    <g clip-path="url(#p3d9d8e5e81)">
     <use xlink:href="#m34803f0314" x="300.756522" y="229.464" style="fill: #5b56b5; stroke: #5b56b5"/>
    </g>
   </g>
   <g id="PathCollection_5">
    <g clip-path="url(#p3d9d8e5e81)">
     <use xlink:href="#m34803f0314" x="407.504348" y="189.732" style="fill: #5b56b5; stroke: #5b56b5"/>
    </g>
   </g>
  </g>
  <g id="text_9">
   <!-- 2차원 공간에서 본 직선 경로 -->
   <g transform="translate(213.705469 18.480469) scale(0.15 -0.15)">
    <defs>
     <path id="NanumGothic-cc28" d="M 3219 3213 
Q 3110 2925 2953 2656 
Q 2797 2387 2592 2131 
Q 2714 1978 2874 1818 
Q 3034 1658 3200 1517 
Q 3366 1376 3536 1261 
Q 3706 1146 3859 1069 
Q 3930 1030 3885 954 
L 3763 742 
Q 3718 666 3635 717 
Q 3482 806 3309 931 
Q 3136 1056 2966 1203 
Q 2797 1350 2633 1510 
Q 2470 1670 2330 1830 
Q 1978 1453 1542 1139 
Q 1107 826 614 589 
Q 525 544 493 608 
L 371 819 
Q 352 851 368 886 
Q 384 922 416 934 
Q 1190 1306 1776 1862 
Q 2362 2419 2733 3187 
Q 2778 3277 2746 3315 
Q 2714 3354 2624 3354 
L 685 3354 
Q 608 3354 608 3437 
L 608 3661 
Q 608 3738 698 3738 
L 2797 3738 
Q 3130 3738 3229 3619 
Q 3328 3501 3219 3213 
z
M 4928 -806 
Q 4928 -896 4838 -896 
L 4576 -896 
Q 4486 -896 4486 -806 
L 4486 4915 
Q 4486 5005 4576 5005 
L 4838 5005 
Q 4928 5005 4928 4915 
L 4928 2586 
L 5811 2586 
Q 5850 2586 5878 2563 
Q 5907 2541 5907 2502 
L 5907 2285 
Q 5907 2253 5878 2227 
Q 5850 2202 5811 2202 
L 4928 2202 
L 4928 -806 
z
M 2790 4710 
Q 2886 4710 2886 4621 
L 2886 4416 
Q 2886 4320 2790 4320 
L 1210 4320 
Q 1114 4320 1114 4416 
L 1114 4621 
Q 1114 4710 1210 4710 
L 2790 4710 
z
" transform="scale(0.015625)"/>
     <path id="NanumGothic-c6d0" d="M 3642 3699 
Q 3642 3456 3533 3245 
Q 3424 3034 3229 2877 
Q 3034 2720 2765 2627 
Q 2496 2534 2182 2534 
Q 1875 2534 1612 2624 
Q 1350 2714 1158 2874 
Q 966 3034 857 3245 
Q 749 3456 749 3699 
Q 749 3968 857 4185 
Q 966 4403 1158 4556 
Q 1350 4710 1612 4790 
Q 1875 4870 2182 4870 
Q 2477 4870 2739 4787 
Q 3002 4704 3203 4553 
Q 3405 4403 3523 4185 
Q 3642 3968 3642 3699 
z
M 4710 1434 
L 4710 4915 
Q 4710 5005 4800 5005 
L 5062 5005 
Q 5152 5005 5152 4915 
L 5152 339 
Q 5152 250 5062 250 
L 4800 250 
Q 4710 250 4710 339 
L 4710 1050 
L 3430 1050 
Q 3347 1050 3347 1126 
L 3347 1357 
Q 3347 1434 3430 1434 
L 4710 1434 
z
M 3219 3706 
Q 3219 3898 3136 4045 
Q 3053 4192 2912 4291 
Q 2771 4390 2582 4441 
Q 2394 4493 2182 4493 
Q 1965 4493 1779 4441 
Q 1594 4390 1459 4288 
Q 1325 4186 1248 4042 
Q 1171 3898 1171 3706 
Q 1171 3341 1449 3123 
Q 1728 2906 2182 2906 
Q 2394 2906 2582 2966 
Q 2771 3027 2912 3132 
Q 3053 3238 3136 3385 
Q 3219 3533 3219 3706 
z
M 2054 582 
Q 2022 582 1996 611 
Q 1971 640 1971 678 
L 1971 1709 
Q 1773 1696 1549 1689 
Q 1325 1683 1110 1676 
Q 896 1670 707 1667 
Q 518 1664 390 1670 
Q 352 1670 323 1696 
Q 294 1722 294 1754 
L 294 1971 
Q 294 2010 323 2032 
Q 352 2054 390 2054 
Q 576 2054 832 2057 
Q 1088 2061 1357 2067 
Q 1626 2074 1875 2083 
Q 2125 2093 2298 2106 
Q 2522 2118 2797 2144 
Q 3072 2170 3347 2202 
Q 3622 2234 3868 2269 
Q 4115 2304 4282 2336 
Q 4314 2342 4342 2326 
Q 4371 2310 4378 2285 
L 4410 2067 
Q 4416 1990 4333 1971 
Q 3923 1901 3414 1833 
Q 2906 1766 2413 1734 
L 2413 678 
Q 2413 640 2390 611 
Q 2368 582 2330 582 
L 2054 582 
z
M 5306 -704 
Q 5306 -742 5274 -761 
Q 5242 -781 5210 -781 
L 1728 -781 
Q 1427 -781 1334 -669 
Q 1242 -557 1242 -294 
L 1242 512 
Q 1242 602 1331 602 
L 1594 602 
Q 1683 602 1683 512 
L 1683 -262 
Q 1683 -352 1712 -374 
Q 1741 -397 1830 -397 
L 5210 -397 
Q 5242 -397 5274 -419 
Q 5306 -442 5306 -474 
L 5306 -704 
z
" transform="scale(0.015625)"/>
     <path id="NanumGothic-acf5" d="M 4992 243 
Q 4992 -70 4813 -294 
Q 4634 -518 4349 -659 
Q 4064 -800 3705 -867 
Q 3347 -934 2995 -934 
Q 2650 -934 2294 -867 
Q 1939 -800 1651 -659 
Q 1363 -518 1184 -294 
Q 1005 -70 1005 243 
Q 1005 550 1184 774 
Q 1363 998 1651 1142 
Q 1939 1286 2294 1356 
Q 2650 1427 2995 1427 
Q 3354 1427 3709 1360 
Q 4064 1293 4349 1149 
Q 4634 1005 4813 781 
Q 4992 557 4992 243 
z
M 4525 237 
Q 4525 448 4374 595 
Q 4224 742 3993 838 
Q 3763 934 3494 979 
Q 3226 1024 2995 1024 
Q 2752 1024 2483 979 
Q 2214 934 1990 838 
Q 1766 742 1619 595 
Q 1472 448 1472 237 
Q 1472 32 1619 -115 
Q 1766 -262 1990 -355 
Q 2214 -448 2483 -489 
Q 2752 -531 2995 -531 
Q 3232 -531 3501 -489 
Q 3770 -448 3997 -355 
Q 4224 -262 4374 -115 
Q 4525 32 4525 237 
z
M 2918 3475 
Q 2950 3475 2976 3446 
Q 3002 3418 3002 3379 
L 3002 2304 
L 5728 2304 
Q 5760 2304 5792 2281 
Q 5824 2259 5824 2221 
L 5824 2003 
Q 5824 1971 5792 1945 
Q 5760 1920 5728 1920 
L 288 1920 
Q 250 1920 221 1945 
Q 192 1971 192 2003 
L 192 2221 
Q 192 2259 221 2281 
Q 250 2304 288 2304 
L 2573 2304 
L 2573 3379 
Q 2573 3418 2595 3446 
Q 2618 3475 2656 3475 
L 2918 3475 
z
M 1056 4794 
Q 1056 4832 1088 4851 
Q 1120 4870 1152 4870 
L 4461 4870 
Q 4614 4870 4707 4838 
Q 4800 4806 4851 4745 
Q 4902 4685 4924 4589 
Q 4947 4493 4947 4358 
Q 4947 4166 4934 3948 
Q 4922 3731 4896 3520 
Q 4870 3309 4835 3113 
Q 4800 2918 4768 2771 
Q 4755 2733 4732 2701 
Q 4710 2669 4672 2675 
L 4416 2694 
Q 4307 2701 4339 2810 
Q 4378 2950 4410 3152 
Q 4442 3354 4467 3568 
Q 4493 3782 4502 3990 
Q 4512 4198 4512 4352 
Q 4512 4442 4483 4464 
Q 4454 4486 4365 4486 
L 1152 4486 
Q 1120 4486 1088 4508 
Q 1056 4531 1056 4563 
L 1056 4794 
z
" transform="scale(0.015625)"/>
     <path id="NanumGothic-ac04" d="M 3290 4198 
Q 3130 3264 2480 2531 
Q 1830 1798 698 1325 
Q 659 1312 617 1312 
Q 576 1312 557 1363 
L 461 1574 
Q 435 1626 457 1658 
Q 480 1690 512 1702 
Q 979 1894 1372 2156 
Q 1766 2419 2064 2726 
Q 2362 3034 2554 3379 
Q 2746 3725 2810 4090 
Q 2848 4269 2656 4269 
L 685 4269 
Q 608 4269 608 4352 
L 608 4576 
Q 608 4653 685 4653 
L 2803 4653 
Q 3110 4653 3219 4544 
Q 3328 4435 3290 4198 
z
M 4928 806 
Q 4928 717 4838 717 
L 4576 717 
Q 4486 717 4486 806 
L 4486 4915 
Q 4486 5005 4576 5005 
L 4838 5005 
Q 4928 5005 4928 4915 
L 4928 3066 
L 5811 3066 
Q 5850 3066 5878 3043 
Q 5907 3021 5907 2982 
L 5907 2765 
Q 5907 2733 5878 2707 
Q 5850 2682 5811 2682 
L 4928 2682 
L 4928 806 
z
M 5216 -704 
Q 5216 -742 5184 -761 
Q 5152 -781 5120 -781 
L 1862 -781 
Q 1562 -781 1469 -669 
Q 1376 -557 1376 -294 
L 1376 934 
Q 1376 1024 1466 1024 
L 1728 1024 
Q 1818 1024 1818 934 
L 1818 -262 
Q 1818 -352 1846 -374 
Q 1875 -397 1965 -397 
L 5120 -397 
Q 5152 -397 5184 -419 
Q 5216 -442 5216 -474 
L 5216 -704 
z
" transform="scale(0.015625)"/>
     <path id="NanumGothic-bcf8" d="M 3245 2445 
L 3245 1696 
L 5728 1696 
Q 5760 1696 5792 1673 
Q 5824 1651 5824 1613 
L 5824 1395 
Q 5824 1363 5792 1337 
Q 5760 1312 5728 1312 
L 288 1312 
Q 250 1312 221 1337 
Q 192 1363 192 1395 
L 192 1613 
Q 192 1651 221 1673 
Q 250 1696 288 1696 
L 2803 1696 
L 2803 2445 
L 1600 2445 
Q 1446 2445 1353 2464 
Q 1261 2483 1209 2537 
Q 1158 2592 1139 2678 
Q 1120 2765 1120 2899 
L 1120 4774 
Q 1120 4806 1145 4828 
Q 1171 4851 1203 4851 
L 1478 4851 
Q 1510 4851 1532 4825 
Q 1555 4800 1555 4774 
L 1555 4019 
L 4461 4019 
L 4461 4768 
Q 4461 4800 4483 4825 
Q 4506 4851 4538 4851 
L 4813 4851 
Q 4845 4851 4870 4828 
Q 4896 4806 4896 4774 
L 4896 2854 
Q 4896 2611 4793 2528 
Q 4691 2445 4410 2445 
L 3245 2445 
z
M 1555 3642 
L 1555 2976 
Q 1555 2880 1587 2851 
Q 1619 2822 1709 2822 
L 4307 2822 
Q 4397 2822 4429 2851 
Q 4461 2880 4461 2976 
L 4461 3642 
L 1555 3642 
z
M 5133 -704 
Q 5133 -742 5101 -761 
Q 5069 -781 5037 -781 
L 1562 -781 
Q 1261 -781 1168 -656 
Q 1075 -531 1075 -269 
L 1075 768 
Q 1075 858 1165 858 
L 1427 858 
Q 1517 858 1517 768 
L 1517 -262 
Q 1517 -352 1545 -374 
Q 1574 -397 1664 -397 
L 5037 -397 
Q 5069 -397 5101 -419 
Q 5133 -442 5133 -474 
L 5133 -704 
z
" transform="scale(0.015625)"/>
     <path id="NanumGothic-acbd" d="M 5203 250 
Q 5203 -26 5056 -243 
Q 4909 -461 4656 -611 
Q 4403 -762 4067 -842 
Q 3731 -922 3347 -922 
Q 2931 -922 2592 -842 
Q 2253 -762 2009 -611 
Q 1766 -461 1632 -243 
Q 1498 -26 1498 250 
Q 1498 518 1632 732 
Q 1766 947 2009 1097 
Q 2253 1248 2592 1328 
Q 2931 1408 3347 1408 
Q 3731 1408 4067 1328 
Q 4403 1248 4656 1101 
Q 4909 954 5056 739 
Q 5203 525 5203 250 
z
M 3430 4269 
Q 3411 4173 3392 4080 
Q 3373 3987 3347 3898 
L 4710 3898 
L 4710 4915 
Q 4710 5005 4800 5005 
L 5062 5005 
Q 5152 5005 5152 4915 
L 5152 1523 
Q 5152 1434 5062 1434 
L 4800 1434 
Q 4710 1434 4710 1523 
L 4710 2368 
L 3078 2368 
Q 2995 2368 2995 2445 
L 2995 2669 
Q 2995 2746 3078 2746 
L 4710 2746 
L 4710 3520 
L 3206 3520 
Q 2931 2899 2361 2403 
Q 1792 1907 870 1523 
Q 768 1478 730 1562 
L 634 1773 
Q 608 1824 627 1856 
Q 646 1888 685 1901 
Q 1702 2323 2265 2902 
Q 2829 3482 2950 4154 
Q 2989 4339 2797 4339 
L 858 4339 
Q 781 4339 781 4422 
L 781 4646 
Q 781 4723 858 4723 
L 2944 4723 
Q 3251 4723 3360 4614 
Q 3469 4506 3430 4269 
z
M 4749 230 
Q 4749 422 4633 569 
Q 4518 717 4323 816 
Q 4128 915 3872 969 
Q 3616 1024 3341 1024 
Q 3034 1024 2778 969 
Q 2522 915 2339 816 
Q 2157 717 2054 569 
Q 1952 422 1952 230 
Q 1952 45 2054 -99 
Q 2157 -243 2339 -339 
Q 2522 -435 2778 -486 
Q 3034 -538 3341 -538 
Q 3616 -538 3872 -486 
Q 4128 -435 4323 -339 
Q 4518 -243 4633 -99 
Q 4749 45 4749 230 
z
" transform="scale(0.015625)"/>
    </defs>
    <use xlink:href="#NanumGothic-32"/>
    <use xlink:href="#NanumGothic-cc28" transform="translate(60.599991 0)"/>
    <use xlink:href="#NanumGothic-c6d0" transform="translate(154.599976 0)"/>
    <use xlink:href="#NanumGothic-20" transform="translate(248.59996 0)"/>
    <use xlink:href="#NanumGothic-acf5" transform="translate(276.599945 0)"/>
    <use xlink:href="#NanumGothic-ac04" transform="translate(370.59993 0)"/>
    <use xlink:href="#NanumGothic-c5d0" transform="translate(464.599915 0)"/>
    <use xlink:href="#NanumGothic-c11c" transform="translate(558.599899 0)"/>
    <use xlink:href="#NanumGothic-20" transform="translate(652.599884 0)"/>
    <use xlink:href="#NanumGothic-bcf8" transform="translate(680.599869 0)"/>
    <use xlink:href="#NanumGothic-20" transform="translate(774.599854 0)"/>
    <use xlink:href="#NanumGothic-c9c1" transform="translate(802.599838 0)"/>
    <use xlink:href="#NanumGothic-c120" transform="translate(896.599823 0)"/>
    <use xlink:href="#NanumGothic-20" transform="translate(990.599808 0)"/>
    <use xlink:href="#NanumGothic-acbd" transform="translate(1018.599792 0)"/>
    <use xlink:href="#NanumGothic-b85c" transform="translate(1112.599777 0)"/>
   </g>
  </g>
  <g id="text_10">
   <!-- 모든 지점에서 velocity 벡터(초록)가 방향과 크기 모두 동일 = $A_t - ε$ -->
   <g style="fill: #333333" transform="translate(130.86 440.64) scale(0.12 -0.12)">
    <defs>
     <path id="NanumGothic-baa8" d="M 1005 4134 
Q 1005 4403 1107 4496 
Q 1210 4589 1491 4589 
L 4493 4589 
Q 4646 4589 4739 4569 
Q 4832 4550 4886 4499 
Q 4941 4448 4960 4358 
Q 4979 4269 4979 4134 
L 4979 2349 
Q 4979 2080 4876 1987 
Q 4774 1894 4493 1894 
L 3213 1894 
L 3213 499 
L 5728 499 
Q 5760 499 5792 476 
Q 5824 454 5824 416 
L 5824 198 
Q 5824 166 5792 140 
Q 5760 115 5728 115 
L 288 115 
Q 250 115 221 140 
Q 192 166 192 198 
L 192 416 
Q 192 454 221 476 
Q 250 499 288 499 
L 2771 499 
L 2771 1894 
L 1491 1894 
Q 1338 1894 1245 1913 
Q 1152 1933 1097 1987 
Q 1043 2042 1024 2128 
Q 1005 2214 1005 2349 
L 1005 4134 
z
M 1600 4205 
Q 1510 4205 1478 4169 
Q 1446 4134 1446 4038 
L 1446 2445 
Q 1446 2349 1478 2313 
Q 1510 2278 1600 2278 
L 4384 2278 
Q 4474 2278 4506 2313 
Q 4538 2349 4538 2445 
L 4538 4038 
Q 4538 4134 4506 4169 
Q 4474 4205 4384 4205 
L 1600 4205 
z
" transform="scale(0.015625)"/>
     <path id="NanumGothic-b4e0" d="M 5133 -704 
Q 5133 -742 5101 -761 
Q 5069 -781 5037 -781 
L 1562 -781 
Q 1261 -781 1168 -656 
Q 1075 -531 1075 -269 
L 1075 979 
Q 1075 1069 1165 1069 
L 1427 1069 
Q 1517 1069 1517 979 
L 1517 -262 
Q 1517 -352 1545 -374 
Q 1574 -397 1664 -397 
L 5037 -397 
Q 5069 -397 5101 -419 
Q 5133 -442 5133 -474 
L 5133 -704 
z
M 5728 1958 
Q 5760 1958 5792 1936 
Q 5824 1914 5824 1875 
L 5824 1658 
Q 5824 1626 5792 1600 
Q 5760 1574 5728 1574 
L 288 1574 
Q 250 1574 221 1600 
Q 192 1626 192 1658 
L 192 1875 
Q 192 1914 221 1936 
Q 250 1958 288 1958 
L 5728 1958 
z
M 4979 2867 
Q 4979 2778 4896 2778 
L 1594 2778 
Q 1312 2778 1209 2870 
Q 1107 2963 1107 3232 
L 1107 4384 
Q 1107 4653 1209 4745 
Q 1312 4838 1594 4838 
L 4851 4838 
Q 4934 4838 4934 4755 
L 4934 4544 
Q 4934 4454 4851 4454 
L 1702 4454 
Q 1613 4454 1581 4419 
Q 1549 4384 1549 4288 
L 1549 3328 
Q 1549 3238 1581 3200 
Q 1613 3162 1702 3162 
L 4896 3162 
Q 4979 3162 4979 3078 
L 4979 2867 
z
" transform="scale(0.015625)"/>
     <path id="NanumGothic-c9c0" d="M 3827 858 
Q 3808 826 3779 819 
Q 3750 813 3699 851 
Q 3546 966 3373 1116 
Q 3200 1267 3033 1436 
Q 2867 1606 2707 1788 
Q 2547 1971 2413 2150 
Q 2093 1747 1683 1379 
Q 1274 1011 749 646 
Q 717 627 685 617 
Q 653 608 634 634 
L 480 832 
Q 454 864 460 899 
Q 467 934 493 954 
Q 1517 1677 2089 2419 
Q 2662 3162 2886 3968 
Q 2912 4058 2889 4099 
Q 2867 4141 2778 4141 
L 838 4141 
Q 762 4141 762 4224 
L 762 4448 
Q 762 4525 851 4525 
L 2950 4525 
Q 3283 4525 3372 4409 
Q 3462 4294 3373 4000 
Q 3123 3181 2669 2496 
Q 2816 2291 2982 2092 
Q 3149 1894 3315 1718 
Q 3482 1542 3648 1398 
Q 3814 1254 3962 1158 
Q 3994 1133 3994 1101 
Q 3994 1069 3974 1043 
L 3827 858 
z
M 5152 -806 
Q 5152 -896 5062 -896 
L 4800 -896 
Q 4710 -896 4710 -806 
L 4710 4915 
Q 4710 5005 4800 5005 
L 5062 5005 
Q 5152 5005 5152 4915 
L 5152 -806 
z
" transform="scale(0.015625)"/>
     <path id="NanumGothic-c810" d="M 1498 819 
Q 1498 1088 1600 1181 
Q 1702 1274 1984 1274 
L 4666 1274 
Q 4819 1274 4912 1254 
Q 5005 1235 5059 1184 
Q 5114 1133 5133 1043 
Q 5152 954 5152 819 
L 5152 -390 
Q 5152 -659 5049 -752 
Q 4947 -845 4666 -845 
L 1984 -845 
Q 1830 -845 1737 -825 
Q 1645 -806 1590 -752 
Q 1536 -698 1517 -611 
Q 1498 -525 1498 -390 
L 1498 819 
z
M 2093 890 
Q 2003 890 1971 854 
Q 1939 819 1939 723 
L 1939 -294 
Q 1939 -390 1971 -425 
Q 2003 -461 2093 -461 
L 4557 -461 
Q 4646 -461 4678 -425 
Q 4710 -390 4710 -294 
L 4710 723 
Q 4710 819 4678 854 
Q 4646 890 4557 890 
L 2093 890 
z
M 3309 4205 
Q 3219 3942 3056 3686 
Q 2893 3430 2669 3181 
Q 2886 2950 3206 2742 
Q 3526 2534 3904 2374 
Q 3955 2355 3961 2320 
Q 3968 2285 3949 2253 
L 3821 2022 
Q 3802 1990 3763 1987 
Q 3725 1984 3693 1997 
Q 3552 2061 3389 2150 
Q 3226 2240 3053 2355 
Q 2880 2470 2710 2604 
Q 2541 2739 2394 2886 
Q 2029 2528 1590 2233 
Q 1152 1939 704 1741 
Q 672 1728 640 1721 
Q 608 1715 589 1747 
L 461 1971 
Q 442 2003 458 2038 
Q 474 2074 506 2086 
Q 1331 2483 1913 2995 
Q 2496 3507 2822 4179 
Q 2867 4269 2835 4307 
Q 2803 4346 2714 4346 
L 838 4346 
Q 762 4346 762 4429 
L 762 4653 
Q 762 4730 838 4730 
L 2886 4730 
Q 3219 4730 3315 4611 
Q 3411 4493 3309 4205 
z
M 4710 3520 
L 4710 4915 
Q 4710 5005 4800 5005 
L 5062 5005 
Q 5152 5005 5152 4915 
L 5152 1728 
Q 5152 1638 5062 1638 
L 4800 1638 
Q 4710 1638 4710 1728 
L 4710 3136 
L 3526 3136 
Q 3443 3136 3443 3213 
L 3443 3443 
Q 3443 3520 3526 3520 
L 4710 3520 
z
" transform="scale(0.015625)"/>
     <path id="NanumGothic-76" d="M 1843 -192 
Q 1811 -275 1715 -275 
L 1402 -275 
Q 1306 -275 1280 -192 
L 154 3098 
Q 141 3130 160 3158 
Q 179 3187 218 3187 
L 506 3187 
Q 582 3187 621 3098 
L 1568 166 
L 2554 3098 
Q 2566 3136 2598 3161 
Q 2630 3187 2669 3187 
L 2950 3187 
Q 2989 3187 3008 3158 
Q 3027 3130 3014 3098 
L 1843 -192 
z
" transform="scale(0.015625)"/>
     <path id="NanumGothic-65" d="M 2733 1696 
Q 2733 1958 2681 2163 
Q 2630 2368 2522 2534 
Q 2285 2912 1837 2912 
Q 1376 2912 1088 2528 
Q 973 2355 896 2131 
Q 819 1907 813 1696 
L 2733 1696 
z
M 813 1331 
Q 806 1011 886 764 
Q 966 518 1120 352 
Q 1274 186 1488 96 
Q 1702 6 1965 6 
Q 2221 6 2445 54 
Q 2669 102 2861 211 
Q 2944 250 2944 166 
L 2944 -122 
Q 2944 -179 2874 -211 
Q 2662 -294 2432 -336 
Q 2202 -378 1933 -378 
Q 1146 -378 742 80 
Q 339 538 339 1459 
Q 339 2272 742 2771 
Q 1165 3277 1811 3277 
Q 2170 3277 2432 3149 
Q 2694 3021 2880 2765 
Q 3206 2310 3206 1549 
Q 3206 1466 3203 1421 
Q 3200 1376 3181 1357 
Q 3162 1338 3114 1334 
Q 3066 1331 2976 1331 
L 813 1331 
z
" transform="scale(0.015625)"/>
     <path id="NanumGothic-6c" d="M 1056 -186 
Q 1056 -275 966 -275 
L 685 -275 
Q 595 -275 595 -186 
L 595 4723 
Q 595 4813 685 4813 
L 966 4813 
Q 1056 4813 1056 4723 
L 1056 -186 
z
" transform="scale(0.015625)"/>
     <path id="NanumGothic-bca1" d="M 998 1984 
Q 845 1984 752 2003 
Q 659 2022 608 2076 
Q 557 2131 537 2217 
Q 518 2304 518 2438 
L 518 4704 
Q 518 4736 544 4758 
Q 570 4781 602 4781 
L 877 4781 
Q 909 4781 931 4755 
Q 954 4730 954 4704 
L 954 3725 
L 2477 3725 
L 2477 4698 
Q 2477 4730 2499 4755 
Q 2522 4781 2554 4781 
L 2829 4781 
Q 2861 4781 2886 4758 
Q 2912 4736 2912 4704 
L 2912 3469 
L 3808 3469 
L 3808 4806 
Q 3808 4896 3898 4896 
L 4141 4896 
Q 4230 4896 4230 4806 
L 4230 1734 
Q 4230 1645 4141 1645 
L 3898 1645 
Q 3808 1645 3808 1734 
L 3808 3085 
L 2912 3085 
L 2912 2394 
Q 2912 2150 2809 2067 
Q 2707 1984 2426 1984 
L 998 1984 
z
M 1440 1114 
Q 1440 1152 1472 1171 
Q 1504 1190 1536 1190 
L 4877 1190 
Q 5178 1190 5270 1078 
Q 5363 966 5363 704 
L 5363 -832 
Q 5363 -922 5274 -922 
L 5011 -922 
Q 4922 -922 4922 -832 
L 4922 672 
Q 4922 762 4893 784 
Q 4864 806 4774 806 
L 1536 806 
Q 1504 806 1472 828 
Q 1440 851 1440 883 
L 1440 1114 
z
M 954 3347 
L 954 2515 
Q 954 2419 986 2390 
Q 1018 2362 1107 2362 
L 2323 2362 
Q 2413 2362 2445 2390 
Q 2477 2419 2477 2515 
L 2477 3347 
L 954 3347 
z
M 5363 1638 
Q 5363 1549 5274 1549 
L 5030 1549 
Q 4941 1549 4941 1638 
L 4941 4915 
Q 4941 5005 5030 5005 
L 5274 5005 
Q 5363 5005 5363 4915 
L 5363 1638 
z
" transform="scale(0.015625)"/>
     <path id="NanumGothic-d130" d="M 2982 2464 
Q 2797 2451 2582 2441 
Q 2368 2432 2150 2425 
Q 1933 2419 1728 2419 
Q 1523 2419 1357 2426 
L 1088 2426 
L 1088 1229 
Q 1088 1133 1120 1097 
Q 1152 1062 1242 1062 
Q 1779 1050 2406 1098 
Q 3034 1146 3590 1254 
Q 3699 1274 3718 1184 
L 3750 998 
Q 3763 941 3744 918 
Q 3725 896 3667 883 
Q 3398 826 3078 784 
Q 2758 742 2425 713 
Q 2093 685 1763 672 
Q 1434 659 1146 666 
Q 858 672 752 800 
Q 646 928 646 1197 
L 646 4077 
Q 646 4346 748 4435 
Q 851 4525 1133 4525 
L 3142 4525 
Q 3226 4525 3226 4448 
L 3226 4218 
Q 3226 4141 3142 4141 
L 1216 4141 
Q 1126 4141 1107 4118 
Q 1088 4096 1088 4000 
L 1088 2797 
L 1357 2797 
Q 1517 2797 1718 2797 
Q 1920 2797 2137 2803 
Q 2355 2810 2572 2816 
Q 2790 2822 2982 2835 
Q 3021 2842 3043 2816 
Q 3066 2790 3066 2758 
L 3066 2541 
Q 3066 2477 2982 2464 
z
M 5152 -806 
Q 5152 -896 5062 -896 
L 4800 -896 
Q 4710 -896 4710 -806 
L 4710 2470 
L 3622 2470 
Q 3539 2470 3539 2547 
L 3539 2778 
Q 3539 2854 3622 2854 
L 4710 2854 
L 4710 4915 
Q 4710 5005 4800 5005 
L 5062 5005 
Q 5152 5005 5152 4915 
L 5152 -806 
z
" transform="scale(0.015625)"/>
     <path id="NanumGothic-cd08" d="M 4512 3315 
Q 4346 3130 4080 2941 
Q 3814 2752 3475 2566 
Q 3680 2496 3923 2419 
Q 4166 2342 4409 2275 
Q 4653 2208 4880 2153 
Q 5107 2099 5286 2067 
Q 5338 2054 5347 2035 
Q 5357 2016 5344 1971 
L 5286 1754 
Q 5274 1683 5184 1702 
Q 5005 1734 4736 1801 
Q 4467 1869 4163 1955 
Q 3859 2042 3548 2134 
Q 3238 2227 2982 2317 
Q 2490 2093 1946 1913 
Q 1402 1734 851 1626 
Q 755 1606 730 1670 
L 653 1888 
Q 640 1920 659 1949 
Q 678 1978 717 1990 
Q 1709 2202 2521 2557 
Q 3334 2912 3974 3392 
Q 4077 3469 4070 3523 
Q 4064 3578 3962 3578 
L 1190 3578 
Q 1107 3578 1107 3661 
L 1107 3885 
Q 1107 3962 1190 3962 
L 4147 3962 
Q 5101 3962 4512 3315 
z
M 3123 1664 
Q 3155 1664 3180 1635 
Q 3206 1606 3206 1568 
L 3206 499 
L 5728 499 
Q 5760 499 5792 476 
Q 5824 454 5824 416 
L 5824 198 
Q 5824 166 5792 140 
Q 5760 115 5728 115 
L 288 115 
Q 250 115 221 140 
Q 192 166 192 198 
L 192 416 
Q 192 454 221 476 
Q 250 499 288 499 
L 2765 499 
L 2765 1568 
Q 2765 1606 2787 1635 
Q 2810 1664 2848 1664 
L 3123 1664 
z
M 3814 4877 
Q 3910 4877 3910 4787 
L 3910 4582 
Q 3910 4486 3814 4486 
L 2093 4486 
Q 1997 4486 1997 4582 
L 1997 4787 
Q 1997 4877 2093 4877 
L 3814 4877 
z
" transform="scale(0.015625)"/>
     <path id="NanumGothic-b85d" d="M 5011 2573 
Q 5011 2541 4982 2518 
Q 4954 2496 4928 2496 
L 3206 2496 
L 3206 1856 
L 5728 1856 
Q 5760 1856 5792 1833 
Q 5824 1811 5824 1773 
L 5824 1555 
Q 5824 1523 5792 1497 
Q 5760 1472 5728 1472 
L 288 1472 
Q 250 1472 221 1497 
Q 192 1523 192 1555 
L 192 1773 
Q 192 1811 221 1833 
Q 250 1856 288 1856 
L 2765 1856 
L 2765 2496 
L 1594 2496 
Q 1293 2496 1200 2608 
Q 1107 2720 1107 2989 
L 1107 3437 
Q 1107 3706 1219 3798 
Q 1331 3891 1619 3891 
L 4333 3891 
Q 4422 3891 4444 3913 
Q 4467 3936 4467 4038 
L 4467 4390 
Q 4467 4486 4444 4512 
Q 4422 4538 4333 4538 
L 1197 4538 
Q 1165 4538 1136 4557 
Q 1107 4576 1107 4608 
L 1107 4838 
Q 1107 4870 1136 4889 
Q 1165 4909 1197 4909 
L 4403 4909 
Q 4557 4909 4653 4886 
Q 4749 4864 4806 4813 
Q 4864 4762 4886 4669 
Q 4909 4576 4909 4442 
L 4909 3974 
Q 4909 3706 4797 3613 
Q 4685 3520 4397 3520 
L 1677 3520 
Q 1587 3520 1564 3497 
Q 1542 3475 1542 3373 
L 1542 3008 
Q 1542 2918 1568 2889 
Q 1594 2861 1683 2861 
L 4922 2861 
Q 4954 2861 4982 2841 
Q 5011 2822 5011 2790 
L 5011 2573 
z
M 947 851 
Q 947 890 979 909 
Q 1011 928 1043 928 
L 4442 928 
Q 4742 928 4835 816 
Q 4928 704 4928 442 
L 4928 -870 
Q 4928 -960 4838 -960 
L 4576 -960 
Q 4486 -960 4486 -870 
L 4486 410 
Q 4486 499 4457 521 
Q 4429 544 4339 544 
L 1043 544 
Q 1011 544 979 566 
Q 947 589 947 621 
L 947 851 
z
" transform="scale(0.015625)"/>
     <path id="NanumGothic-bc29" d="M 5005 250 
Q 5005 -26 4857 -243 
Q 4710 -461 4457 -611 
Q 4205 -762 3869 -842 
Q 3533 -922 3149 -922 
Q 2733 -922 2393 -842 
Q 2054 -762 1811 -611 
Q 1568 -461 1433 -243 
Q 1299 -26 1299 250 
Q 1299 518 1433 732 
Q 1568 947 1811 1097 
Q 2054 1248 2393 1328 
Q 2733 1408 3149 1408 
Q 3533 1408 3869 1328 
Q 4205 1248 4457 1101 
Q 4710 954 4857 739 
Q 5005 525 5005 250 
z
M 1158 1971 
Q 1005 1971 912 1990 
Q 819 2010 768 2064 
Q 717 2118 697 2204 
Q 678 2291 678 2426 
L 678 4730 
Q 678 4762 704 4784 
Q 730 4806 762 4806 
L 1037 4806 
Q 1069 4806 1091 4780 
Q 1114 4755 1114 4730 
L 1114 3731 
L 2982 3731 
L 2982 4723 
Q 2982 4755 3004 4780 
Q 3027 4806 3059 4806 
L 3334 4806 
Q 3366 4806 3392 4784 
Q 3418 4762 3418 4730 
L 3418 2381 
Q 3418 2138 3315 2054 
Q 3213 1971 2931 1971 
L 1158 1971 
z
M 4550 230 
Q 4550 422 4435 569 
Q 4320 717 4125 816 
Q 3930 915 3674 969 
Q 3418 1024 3142 1024 
Q 2835 1024 2579 969 
Q 2323 915 2140 816 
Q 1958 717 1856 569 
Q 1754 422 1754 230 
Q 1754 45 1856 -99 
Q 1958 -243 2140 -339 
Q 2323 -435 2579 -486 
Q 2835 -538 3142 -538 
Q 3418 -538 3674 -486 
Q 3930 -435 4125 -339 
Q 4320 -243 4435 -99 
Q 4550 45 4550 230 
z
M 4928 1530 
Q 4928 1440 4838 1440 
L 4576 1440 
Q 4486 1440 4486 1530 
L 4486 4915 
Q 4486 5005 4576 5005 
L 4838 5005 
Q 4928 5005 4928 4915 
L 4928 3373 
L 5811 3373 
Q 5850 3373 5878 3347 
Q 5907 3322 5907 3283 
L 5907 3072 
Q 5907 3040 5878 3014 
Q 5850 2989 5811 2989 
L 4928 2989 
L 4928 1530 
z
M 1114 3354 
L 1114 2502 
Q 1114 2406 1146 2377 
Q 1178 2349 1267 2349 
L 2829 2349 
Q 2918 2349 2950 2377 
Q 2982 2406 2982 2502 
L 2982 3354 
L 1114 3354 
z
" transform="scale(0.015625)"/>
     <path id="NanumGothic-d5a5" d="M 5005 64 
Q 5005 -160 4857 -339 
Q 4710 -518 4457 -646 
Q 4205 -774 3869 -844 
Q 3533 -915 3149 -915 
Q 2733 -915 2393 -844 
Q 2054 -774 1811 -646 
Q 1568 -518 1433 -339 
Q 1299 -160 1299 64 
Q 1299 282 1433 458 
Q 1568 634 1811 762 
Q 2054 890 2393 960 
Q 2733 1030 3149 1030 
Q 3533 1030 3869 963 
Q 4205 896 4457 768 
Q 4710 640 4857 461 
Q 5005 282 5005 64 
z
M 3533 2413 
Q 3533 2182 3427 1993 
Q 3322 1805 3139 1664 
Q 2957 1523 2704 1446 
Q 2451 1370 2157 1370 
Q 1856 1370 1606 1446 
Q 1357 1523 1171 1664 
Q 986 1805 883 1997 
Q 781 2189 781 2413 
Q 781 2643 883 2835 
Q 986 3027 1171 3161 
Q 1357 3296 1606 3373 
Q 1856 3450 2157 3450 
Q 2451 3450 2704 3373 
Q 2957 3296 3139 3158 
Q 3322 3021 3427 2829 
Q 3533 2637 3533 2413 
z
M 4550 45 
Q 4550 192 4435 307 
Q 4320 422 4125 502 
Q 3930 582 3674 624 
Q 3418 666 3142 666 
Q 2835 666 2579 624 
Q 2323 582 2140 502 
Q 1958 422 1856 307 
Q 1754 192 1754 45 
Q 1754 -96 1856 -208 
Q 1958 -320 2140 -397 
Q 2323 -474 2579 -512 
Q 2835 -550 3142 -550 
Q 3418 -550 3674 -512 
Q 3930 -474 4125 -397 
Q 4320 -320 4435 -208 
Q 4550 -96 4550 45 
z
M 4928 1254 
Q 4928 1165 4838 1165 
L 4576 1165 
Q 4486 1165 4486 1254 
L 4486 4915 
Q 4486 5005 4576 5005 
L 4838 5005 
Q 4928 5005 4928 4915 
L 4928 3776 
L 5811 3776 
Q 5850 3776 5878 3753 
Q 5907 3731 5907 3693 
L 5907 3482 
Q 5907 3450 5878 3424 
Q 5850 3398 5811 3398 
L 4928 3398 
L 4928 2630 
L 5811 2630 
Q 5850 2630 5878 2608 
Q 5907 2586 5907 2547 
L 5907 2336 
Q 5907 2304 5878 2278 
Q 5850 2253 5811 2253 
L 4928 2253 
L 4928 1254 
z
M 3104 2413 
Q 3104 2566 3033 2691 
Q 2963 2816 2835 2902 
Q 2707 2989 2534 3037 
Q 2362 3085 2157 3085 
Q 1952 3085 1779 3037 
Q 1606 2989 1478 2902 
Q 1350 2816 1276 2691 
Q 1203 2566 1203 2413 
Q 1203 2259 1276 2134 
Q 1350 2010 1478 1920 
Q 1606 1830 1779 1782 
Q 1952 1734 2157 1734 
Q 2362 1734 2534 1782 
Q 2707 1830 2835 1920 
Q 2963 2010 3033 2134 
Q 3104 2259 3104 2413 
z
M 4026 3827 
Q 4026 3744 3930 3744 
L 397 3744 
Q 365 3744 336 3769 
Q 307 3795 307 3834 
L 307 4038 
Q 307 4077 336 4102 
Q 365 4128 397 4128 
L 3930 4128 
Q 4026 4128 4026 4045 
L 4026 3827 
z
M 3091 4608 
Q 3091 4518 2995 4518 
L 1242 4518 
Q 1210 4518 1181 4540 
Q 1152 4563 1152 4602 
L 1152 4819 
Q 1152 4858 1177 4883 
Q 1203 4909 1235 4909 
L 2995 4909 
Q 3091 4909 3091 4819 
L 3091 4608 
z
" transform="scale(0.015625)"/>
     <path id="NanumGothic-acfc" d="M 4928 -806 
Q 4928 -896 4838 -896 
L 4576 -896 
Q 4486 -896 4486 -806 
L 4486 4915 
Q 4486 5005 4576 5005 
L 4838 5005 
Q 4928 5005 4928 4915 
L 4928 2413 
L 5811 2413 
Q 5850 2413 5878 2390 
Q 5907 2368 5907 2330 
L 5907 2112 
Q 5907 2080 5878 2054 
Q 5850 2029 5811 2029 
L 4928 2029 
L 4928 -806 
z
M 4090 973 
Q 4192 992 4198 928 
L 4237 704 
Q 4250 627 4154 614 
Q 3725 544 3213 486 
Q 2701 429 2182 397 
Q 1997 384 1747 377 
Q 1498 371 1238 368 
Q 979 365 732 365 
Q 486 365 307 371 
Q 269 371 240 396 
Q 211 422 211 454 
L 211 672 
Q 211 710 240 732 
Q 269 755 307 755 
Q 429 755 589 752 
Q 749 749 925 749 
Q 1101 749 1289 752 
Q 1478 755 1658 755 
L 1658 2522 
Q 1658 2560 1680 2589 
Q 1702 2618 1741 2618 
L 2016 2618 
Q 2048 2618 2073 2589 
Q 2099 2560 2099 2522 
L 2099 768 
Q 2112 768 2131 771 
Q 2150 774 2170 774 
Q 2394 787 2650 803 
Q 2906 819 3162 841 
Q 3418 864 3658 896 
Q 3898 928 4090 973 
z
M 608 4410 
Q 608 4448 640 4467 
Q 672 4486 704 4486 
L 3104 4486 
Q 3258 4486 3350 4454 
Q 3443 4422 3494 4361 
Q 3546 4301 3565 4205 
Q 3584 4109 3590 3974 
Q 3597 3712 3587 3437 
Q 3578 3162 3555 2883 
Q 3533 2605 3494 2336 
Q 3456 2067 3405 1830 
Q 3392 1792 3369 1760 
Q 3347 1728 3309 1734 
L 3053 1754 
Q 2944 1760 2976 1869 
Q 3034 2106 3075 2381 
Q 3117 2656 3139 2934 
Q 3162 3213 3168 3478 
Q 3174 3744 3155 3968 
Q 3142 4058 3120 4080 
Q 3098 4102 3008 4102 
L 704 4102 
Q 659 4102 633 4124 
Q 608 4147 608 4179 
L 608 4410 
z
" transform="scale(0.015625)"/>
     <path id="NanumGothic-d06c" d="M 1024 4506 
Q 1024 4544 1056 4563 
Q 1088 4582 1120 4582 
L 4506 4582 
Q 4659 4582 4752 4550 
Q 4845 4518 4896 4457 
Q 4947 4397 4966 4301 
Q 4986 4205 4992 4070 
Q 4998 3898 4988 3626 
Q 4979 3354 4960 3034 
Q 4941 2714 4912 2362 
Q 4883 2010 4848 1670 
Q 4813 1331 4774 1027 
Q 4736 723 4698 499 
L 5728 499 
Q 5760 499 5792 476 
Q 5824 454 5824 416 
L 5824 198 
Q 5824 166 5792 140 
Q 5760 115 5728 115 
L 288 115 
Q 250 115 221 140 
Q 192 166 192 198 
L 192 416 
Q 192 454 221 476 
Q 250 499 288 499 
L 4262 499 
Q 4294 634 4326 835 
Q 4358 1037 4387 1283 
Q 4416 1530 4445 1805 
Q 4474 2080 4493 2362 
Q 4397 2349 4246 2342 
Q 4096 2336 3939 2333 
Q 3782 2330 3654 2326 
Q 3526 2323 3482 2323 
Q 3328 2317 3011 2313 
Q 2694 2310 2339 2307 
Q 1984 2304 1661 2301 
Q 1338 2298 1165 2298 
Q 1082 2298 1082 2374 
L 1082 2592 
Q 1082 2669 1165 2669 
Q 1293 2669 1488 2669 
Q 1683 2669 1910 2672 
Q 2138 2675 2378 2678 
Q 2618 2682 2826 2685 
Q 3034 2688 3200 2688 
Q 3366 2688 3443 2694 
Q 3482 2694 3622 2700 
Q 3763 2707 3932 2710 
Q 4102 2714 4268 2720 
Q 4435 2726 4525 2739 
Q 4550 3149 4560 3501 
Q 4570 3853 4557 4064 
Q 4550 4154 4524 4176 
Q 4499 4198 4410 4198 
L 1120 4198 
Q 1088 4198 1056 4220 
Q 1024 4243 1024 4275 
L 1024 4506 
z
" transform="scale(0.015625)"/>
     <path id="NanumGothic-ae30" d="M 5152 -806 
Q 5152 -896 5062 -896 
L 4800 -896 
Q 4710 -896 4710 -806 
L 4710 4915 
Q 4710 5005 4800 5005 
L 5062 5005 
Q 5152 5005 5152 4915 
L 5152 -806 
z
M 3437 4064 
Q 3405 3514 3219 2982 
Q 3034 2451 2704 1968 
Q 2374 1485 1910 1072 
Q 1446 659 858 346 
Q 774 301 736 365 
L 595 589 
Q 550 666 621 698 
Q 1165 979 1584 1340 
Q 2003 1702 2300 2124 
Q 2598 2547 2771 3014 
Q 2944 3482 2989 3974 
Q 3002 4070 2963 4105 
Q 2925 4141 2835 4141 
L 800 4141 
Q 723 4141 723 4224 
L 723 4448 
Q 723 4525 800 4525 
L 2957 4525 
Q 3258 4525 3354 4413 
Q 3450 4301 3437 4064 
z
" transform="scale(0.015625)"/>
     <path id="NanumGothic-b450" d="M 5030 2554 
Q 5030 2464 4947 2464 
L 1491 2464 
Q 1210 2464 1107 2557 
Q 1005 2650 1005 2918 
L 1005 4422 
Q 1005 4691 1107 4784 
Q 1210 4877 1491 4877 
L 4902 4877 
Q 4986 4877 4986 4794 
L 4986 4582 
Q 4986 4493 4902 4493 
L 1600 4493 
Q 1510 4493 1478 4454 
Q 1446 4416 1446 4320 
L 1446 3021 
Q 1446 2931 1478 2889 
Q 1510 2848 1600 2848 
L 4947 2848 
Q 5030 2848 5030 2765 
L 5030 2554 
z
M 2854 -858 
Q 2822 -858 2796 -829 
Q 2771 -800 2771 -762 
L 2771 1267 
L 288 1267 
Q 250 1267 221 1292 
Q 192 1318 192 1350 
L 192 1568 
Q 192 1606 221 1628 
Q 250 1651 288 1651 
L 5728 1651 
Q 5760 1651 5792 1628 
Q 5824 1606 5824 1568 
L 5824 1350 
Q 5824 1318 5792 1292 
Q 5760 1267 5728 1267 
L 3213 1267 
L 3213 -762 
Q 3213 -800 3190 -829 
Q 3168 -858 3130 -858 
L 2854 -858 
z
" transform="scale(0.015625)"/>
     <path id="NanumGothic-b3d9" d="M 4992 109 
Q 4992 -218 4787 -422 
Q 4582 -627 4281 -742 
Q 3981 -858 3632 -899 
Q 3283 -941 2995 -941 
Q 2803 -941 2582 -921 
Q 2362 -902 2141 -860 
Q 1920 -819 1715 -742 
Q 1510 -666 1353 -547 
Q 1197 -429 1101 -269 
Q 1005 -109 1005 109 
Q 1005 429 1209 630 
Q 1414 832 1715 947 
Q 2016 1062 2365 1107 
Q 2714 1152 2995 1152 
Q 3283 1152 3632 1110 
Q 3981 1069 4285 953 
Q 4589 838 4790 633 
Q 4992 429 4992 109 
z
M 5728 1990 
Q 5760 1990 5792 1968 
Q 5824 1946 5824 1907 
L 5824 1690 
Q 5824 1658 5792 1632 
Q 5760 1606 5728 1606 
L 288 1606 
Q 250 1606 221 1632 
Q 192 1658 192 1690 
L 192 1907 
Q 192 1946 221 1968 
Q 250 1990 288 1990 
L 2778 1990 
L 2778 2816 
L 1594 2816 
Q 1312 2816 1209 2909 
Q 1107 3002 1107 3270 
L 1107 4422 
Q 1107 4691 1209 4784 
Q 1312 4877 1594 4877 
L 4851 4877 
Q 4934 4877 4934 4794 
L 4934 4582 
Q 4934 4493 4851 4493 
L 1702 4493 
Q 1613 4493 1581 4457 
Q 1549 4422 1549 4326 
L 1549 3366 
Q 1549 3277 1581 3238 
Q 1613 3200 1702 3200 
L 4896 3200 
Q 4979 3200 4979 3117 
L 4979 2906 
Q 4979 2816 4896 2816 
L 3219 2816 
L 3219 1990 
L 5728 1990 
z
M 4525 102 
Q 4525 314 4352 438 
Q 4179 563 3936 633 
Q 3693 704 3433 726 
Q 3174 749 2995 749 
Q 2810 749 2550 726 
Q 2291 704 2051 633 
Q 1811 563 1641 438 
Q 1472 314 1472 102 
Q 1472 -102 1641 -230 
Q 1811 -358 2051 -425 
Q 2291 -493 2550 -515 
Q 2810 -538 2995 -538 
Q 3174 -538 3436 -515 
Q 3699 -493 3939 -425 
Q 4179 -358 4352 -230 
Q 4525 -102 4525 102 
z
" transform="scale(0.015625)"/>
     <path id="NanumGothic-c77c" d="M 5152 2003 
Q 5152 1914 5062 1914 
L 4800 1914 
Q 4710 1914 4710 2003 
L 4710 4915 
Q 4710 5005 4800 5005 
L 5062 5005 
Q 5152 5005 5152 4915 
L 5152 2003 
z
M 3565 3469 
Q 3565 3168 3446 2915 
Q 3328 2662 3123 2476 
Q 2918 2291 2643 2185 
Q 2368 2080 2054 2080 
Q 1747 2080 1481 2182 
Q 1216 2285 1014 2467 
Q 813 2650 697 2906 
Q 582 3162 582 3469 
Q 582 3795 697 4054 
Q 813 4314 1014 4493 
Q 1216 4672 1481 4768 
Q 1747 4864 2054 4864 
Q 2342 4864 2614 4768 
Q 2886 4672 3097 4493 
Q 3309 4314 3437 4054 
Q 3565 3795 3565 3469 
z
M 3117 3475 
Q 3117 3712 3027 3897 
Q 2938 4083 2790 4204 
Q 2643 4326 2451 4390 
Q 2259 4454 2054 4454 
Q 1843 4454 1654 4393 
Q 1466 4333 1328 4211 
Q 1190 4090 1110 3904 
Q 1030 3718 1030 3475 
Q 1030 3245 1107 3062 
Q 1184 2880 1321 2749 
Q 1459 2618 1644 2550 
Q 1830 2483 2054 2483 
Q 2259 2483 2451 2550 
Q 2643 2618 2790 2746 
Q 2938 2874 3027 3059 
Q 3117 3245 3117 3475 
z
M 5286 -838 
Q 5286 -870 5257 -892 
Q 5229 -915 5203 -915 
L 1984 -915 
Q 1683 -915 1590 -803 
Q 1498 -691 1498 -422 
L 1498 58 
Q 1498 326 1610 419 
Q 1722 512 2010 512 
L 4570 512 
Q 4659 512 4684 537 
Q 4710 563 4710 659 
L 4710 1024 
Q 4710 1120 4688 1145 
Q 4666 1171 4576 1171 
L 1574 1171 
Q 1542 1171 1513 1190 
Q 1485 1210 1485 1242 
L 1485 1472 
Q 1485 1504 1513 1523 
Q 1542 1542 1574 1542 
L 4646 1542 
Q 4800 1542 4896 1520 
Q 4992 1498 5049 1446 
Q 5107 1395 5129 1302 
Q 5152 1210 5152 1075 
L 5152 595 
Q 5152 326 5040 233 
Q 4928 141 4640 141 
L 2074 141 
Q 1984 141 1961 115 
Q 1939 90 1939 -6 
L 1939 -397 
Q 1939 -486 1964 -515 
Q 1990 -544 2080 -544 
L 5197 -544 
Q 5229 -544 5257 -563 
Q 5286 -582 5286 -614 
L 5286 -838 
z
" transform="scale(0.015625)"/>
     <path id="DejaVuSans-Oblique-41" d="M 2356 4666 
L 3072 4666 
L 3938 0 
L 3278 0 
L 3084 1197 
L 984 1197 
L 325 0 
L -341 0 
L 2356 4666 
z
M 2584 4044 
L 1275 1722 
L 2988 1722 
L 2584 4044 
z
" transform="scale(0.015625)"/>
     <path id="DejaVuSans-2212" d="M 678 2272 
L 4684 2272 
L 4684 1741 
L 678 1741 
L 678 2272 
z
" transform="scale(0.015625)"/>
     <path id="DejaVuSans-Oblique-3b5" d="M 1263 1888 
Q 925 1963 778 2166 
Q 669 2309 669 2503 
Q 669 3034 1175 3344 
Q 1575 3588 2188 3588 
Q 2425 3588 2684 3550 
Q 2944 3513 3234 3438 
L 3134 2916 
Q 2847 3006 2606 3047 
Q 2359 3088 2138 3088 
Q 1766 3088 1522 2944 
Q 1228 2772 1228 2522 
Q 1228 2356 1381 2241 
Q 1563 2103 1925 2103 
L 2409 2103 
L 2319 1628 
L 1856 1628 
Q 1425 1628 1172 1469 
Q 828 1253 828 916 
Q 828 703 1013 563 
Q 1244 388 1716 388 
Q 2006 388 2284 444 
Q 2563 503 2806 619 
L 2700 84 
Q 2403 -3 2131 -47 
Q 1859 -91 1609 -91 
Q 866 -91 516 194 
Q 250 413 250 781 
Q 250 1278 600 1584 
Q 859 1813 1263 1888 
z
" transform="scale(0.015625)"/>
    </defs>
    <use xlink:href="#NanumGothic-baa8" transform="translate(0 0.796875)"/>
    <use xlink:href="#NanumGothic-b4e0" transform="translate(93.999985 0.796875)"/>
    <use xlink:href="#NanumGothic-20" transform="translate(187.999969 0.796875)"/>
    <use xlink:href="#NanumGothic-c9c0" transform="translate(215.999954 0.796875)"/>
    <use xlink:href="#NanumGothic-c810" transform="translate(309.999939 0.796875)"/>
    <use xlink:href="#NanumGothic-c5d0" transform="translate(403.999924 0.796875)"/>
    <use xlink:href="#NanumGothic-c11c" transform="translate(497.999908 0.796875)"/>
    <use xlink:href="#NanumGothic-20" transform="translate(591.999893 0.796875)"/>
    <use xlink:href="#NanumGothic-76" transform="translate(619.999878 0.796875)"/>
    <use xlink:href="#NanumGothic-65" transform="translate(668.399872 0.796875)"/>
    <use xlink:href="#NanumGothic-6c" transform="translate(722.899857 0.796875)"/>
    <use xlink:href="#NanumGothic-6f" transform="translate(747.099854 0.796875)"/>
    <use xlink:href="#NanumGothic-63" transform="translate(807.699844 0.796875)"/>
    <use xlink:href="#NanumGothic-69" transform="translate(856.099838 0.796875)"/>
    <use xlink:href="#NanumGothic-74" transform="translate(880.299835 0.796875)"/>
    <use xlink:href="#NanumGothic-79" transform="translate(916.599823 0.796875)"/>
    <use xlink:href="#NanumGothic-20" transform="translate(962.999817 0.796875)"/>
    <use xlink:href="#NanumGothic-bca1" transform="translate(990.999802 0.796875)"/>
    <use xlink:href="#NanumGothic-d130" transform="translate(1084.999786 0.796875)"/>
    <use xlink:href="#NanumGothic-28" transform="translate(1178.999771 0.796875)"/>
    <use xlink:href="#NanumGothic-cd08" transform="translate(1215.299759 0.796875)"/>
    <use xlink:href="#NanumGothic-b85d" transform="translate(1309.299744 0.796875)"/>
    <use xlink:href="#NanumGothic-29" transform="translate(1403.299728 0.796875)"/>
    <use xlink:href="#NanumGothic-ac00" transform="translate(1439.599716 0.796875)"/>
    <use xlink:href="#NanumGothic-20" transform="translate(1533.599701 0.796875)"/>
    <use xlink:href="#NanumGothic-bc29" transform="translate(1561.599686 0.796875)"/>
    <use xlink:href="#NanumGothic-d5a5" transform="translate(1655.59967 0.796875)"/>
    <use xlink:href="#NanumGothic-acfc" transform="translate(1749.599655 0.796875)"/>
    <use xlink:href="#NanumGothic-20" transform="translate(1843.59964 0.796875)"/>
    <use xlink:href="#NanumGothic-d06c" transform="translate(1871.599625 0.796875)"/>
    <use xlink:href="#NanumGothic-ae30" transform="translate(1965.599609 0.796875)"/>
    <use xlink:href="#NanumGothic-20" transform="translate(2059.599594 0.796875)"/>
    <use xlink:href="#NanumGothic-baa8" transform="translate(2087.599579 0.796875)"/>
    <use xlink:href="#NanumGothic-b450" transform="translate(2181.599564 0.796875)"/>
    <use xlink:href="#NanumGothic-20" transform="translate(2275.599548 0.796875)"/>
    <use xlink:href="#NanumGothic-b3d9" transform="translate(2303.599533 0.796875)"/>
    <use xlink:href="#NanumGothic-c77c" transform="translate(2397.599518 0.796875)"/>
    <use xlink:href="#NanumGothic-20" transform="translate(2491.599503 0.796875)"/>
    <use xlink:href="#NanumGothic-3d" transform="translate(2519.599487 0.796875)"/>
    <use xlink:href="#NanumGothic-20" transform="translate(2584.999481 0.796875)"/>
    <use xlink:href="#DejaVuSans-Oblique-41" transform="translate(2612.999466 0.796875)"/>
    <use xlink:href="#DejaVuSans-Oblique-74" transform="translate(2681.407669 -15.609375) scale(0.7)"/>
    <use xlink:href="#DejaVuSans-2212" transform="translate(2731.070755 0.796875)"/>
    <use xlink:href="#DejaVuSans-Oblique-3b5" transform="translate(2834.342239 0.796875)"/>
   </g>
  </g>
  <g id="text_11">
   <!-- 직선이라서 미분(접선 방향)이 일정한 상수 벡터 -->
   <g style="fill: #666666" transform="translate(194.277344 478.44) scale(0.11 -0.11)">
    <defs>
     <path id="NanumGothic-b77c" d="M 1088 570 
Q 800 582 701 688 
Q 602 794 602 1062 
L 602 2330 
Q 602 2598 714 2691 
Q 826 2784 1114 2784 
L 2726 2784 
Q 2816 2784 2841 2809 
Q 2867 2835 2867 2931 
L 2867 3994 
Q 2867 4090 2844 4115 
Q 2822 4141 2733 4141 
L 717 4141 
Q 685 4141 656 4160 
Q 627 4179 627 4211 
L 627 4454 
Q 627 4486 656 4505 
Q 685 4525 717 4525 
L 2803 4525 
Q 2957 4525 3053 4502 
Q 3149 4480 3206 4429 
Q 3264 4378 3286 4285 
Q 3309 4192 3309 4058 
L 3309 2854 
Q 3309 2586 3197 2493 
Q 3085 2400 2797 2400 
L 1178 2400 
Q 1088 2400 1065 2374 
Q 1043 2349 1043 2253 
L 1043 1094 
Q 1043 947 1184 947 
Q 1946 934 2646 1004 
Q 3347 1075 4006 1222 
Q 4096 1242 4115 1158 
L 4154 947 
Q 4166 864 4070 838 
Q 3731 762 3356 707 
Q 2982 653 2598 617 
Q 2214 582 1830 569 
Q 1446 557 1088 570 
z
M 4928 -806 
Q 4928 -896 4838 -896 
L 4576 -896 
Q 4486 -896 4486 -806 
L 4486 4915 
Q 4486 5005 4576 5005 
L 4838 5005 
Q 4928 5005 4928 4915 
L 4928 2586 
L 5811 2586 
Q 5850 2586 5878 2563 
Q 5907 2541 5907 2502 
L 5907 2285 
Q 5907 2253 5878 2227 
Q 5850 2202 5811 2202 
L 4928 2202 
L 4928 -806 
z
" transform="scale(0.015625)"/>
     <path id="NanumGothic-bbf8" d="M 5152 -806 
Q 5152 -896 5062 -896 
L 4800 -896 
Q 4710 -896 4710 -806 
L 4710 4915 
Q 4710 5005 4800 5005 
L 5062 5005 
Q 5152 5005 5152 4915 
L 5152 -806 
z
M 704 4070 
Q 704 4339 806 4432 
Q 909 4525 1190 4525 
L 3072 4525 
Q 3226 4525 3318 4505 
Q 3411 4486 3465 4435 
Q 3520 4384 3539 4294 
Q 3558 4205 3558 4070 
L 3558 1235 
Q 3558 966 3456 873 
Q 3354 781 3072 781 
L 1190 781 
Q 1037 781 944 800 
Q 851 819 796 873 
Q 742 928 723 1014 
Q 704 1101 704 1235 
L 704 4070 
z
M 1299 4141 
Q 1210 4141 1178 4105 
Q 1146 4070 1146 3974 
L 1146 1331 
Q 1146 1235 1178 1200 
Q 1210 1165 1299 1165 
L 2963 1165 
Q 3053 1165 3085 1200 
Q 3117 1235 3117 1331 
L 3117 3974 
Q 3117 4070 3085 4105 
Q 3053 4141 2963 4141 
L 1299 4141 
z
" transform="scale(0.015625)"/>
     <path id="NanumGothic-bd84" d="M 1600 2637 
Q 1446 2637 1353 2656 
Q 1261 2675 1209 2729 
Q 1158 2784 1139 2870 
Q 1120 2957 1120 3091 
L 1120 4838 
Q 1120 4870 1145 4892 
Q 1171 4915 1203 4915 
L 1478 4915 
Q 1510 4915 1532 4889 
Q 1555 4864 1555 4838 
L 1555 4179 
L 4461 4179 
L 4461 4832 
Q 4461 4864 4483 4889 
Q 4506 4915 4538 4915 
L 4813 4915 
Q 4845 4915 4870 4892 
Q 4896 4870 4896 4838 
L 4896 3046 
Q 4896 2803 4793 2720 
Q 4691 2637 4410 2637 
L 1600 2637 
z
M 2912 262 
Q 2880 262 2854 291 
Q 2829 320 2829 358 
L 2829 1626 
L 288 1626 
Q 250 1626 221 1651 
Q 192 1677 192 1709 
L 192 1926 
Q 192 1965 221 1987 
Q 250 2010 288 2010 
L 5728 2010 
Q 5760 2010 5792 1987 
Q 5824 1965 5824 1926 
L 5824 1709 
Q 5824 1677 5792 1651 
Q 5760 1626 5728 1626 
L 3270 1626 
L 3270 358 
Q 3270 320 3248 291 
Q 3226 262 3187 262 
L 2912 262 
z
M 1555 3802 
L 1555 3168 
Q 1555 3072 1587 3043 
Q 1619 3014 1709 3014 
L 4307 3014 
Q 4397 3014 4429 3043 
Q 4461 3072 4461 3168 
L 4461 3802 
L 1555 3802 
z
M 5133 -704 
Q 5133 -742 5101 -761 
Q 5069 -781 5037 -781 
L 1510 -781 
Q 1210 -781 1117 -656 
Q 1024 -531 1024 -269 
L 1024 915 
Q 1024 1005 1114 1005 
L 1376 1005 
Q 1466 1005 1466 915 
L 1466 -262 
Q 1466 -352 1494 -374 
Q 1523 -397 1613 -397 
L 5037 -397 
Q 5069 -397 5101 -419 
Q 5133 -442 5133 -474 
L 5133 -704 
z
" transform="scale(0.015625)"/>
     <path id="NanumGothic-c811" d="M 1971 -845 
Q 1818 -845 1725 -825 
Q 1632 -806 1581 -752 
Q 1530 -698 1510 -611 
Q 1491 -525 1491 -390 
L 1491 1446 
Q 1491 1478 1516 1497 
Q 1542 1517 1574 1517 
L 1856 1517 
Q 1888 1517 1910 1494 
Q 1933 1472 1933 1446 
L 1933 768 
L 4710 768 
L 4710 1434 
Q 4710 1466 4732 1491 
Q 4755 1517 4787 1517 
L 5069 1517 
Q 5101 1517 5126 1494 
Q 5152 1472 5152 1440 
L 5152 -435 
Q 5152 -678 5049 -761 
Q 4947 -845 4666 -845 
L 1971 -845 
z
M 3309 4250 
Q 3130 3757 2694 3270 
Q 2938 3021 3261 2806 
Q 3584 2592 3930 2464 
Q 3968 2451 3965 2416 
Q 3962 2381 3949 2349 
L 3821 2125 
Q 3802 2093 3776 2080 
Q 3750 2067 3693 2099 
Q 3341 2259 3005 2483 
Q 2669 2707 2406 2970 
Q 2054 2637 1619 2345 
Q 1184 2054 704 1843 
Q 672 1830 640 1824 
Q 608 1818 589 1850 
L 461 2074 
Q 442 2106 458 2141 
Q 474 2176 506 2189 
Q 1395 2611 1955 3107 
Q 2515 3603 2822 4224 
Q 2867 4314 2835 4352 
Q 2803 4390 2714 4390 
L 838 4390 
Q 762 4390 762 4474 
L 762 4698 
Q 762 4774 851 4774 
L 2886 4774 
Q 3219 4774 3315 4656 
Q 3411 4538 3309 4250 
z
M 1933 384 
L 1933 -307 
Q 1933 -403 1965 -432 
Q 1997 -461 2086 -461 
L 4557 -461 
Q 4646 -461 4678 -432 
Q 4710 -403 4710 -307 
L 4710 384 
L 1933 384 
z
M 4710 3686 
L 4710 4915 
Q 4710 5005 4800 5005 
L 5062 5005 
Q 5152 5005 5152 4915 
L 5152 1939 
Q 5152 1850 5062 1850 
L 4800 1850 
Q 4710 1850 4710 1939 
L 4710 3302 
L 3526 3302 
Q 3443 3302 3443 3379 
L 3443 3610 
Q 3443 3686 3526 3686 
L 4710 3686 
z
" transform="scale(0.015625)"/>
     <path id="NanumGothic-c815" d="M 5178 250 
Q 5178 -26 5030 -243 
Q 4883 -461 4630 -611 
Q 4378 -762 4042 -842 
Q 3706 -922 3322 -922 
Q 2906 -922 2566 -842 
Q 2227 -762 1984 -611 
Q 1741 -461 1606 -243 
Q 1472 -26 1472 250 
Q 1472 518 1606 732 
Q 1741 947 1984 1097 
Q 2227 1248 2566 1328 
Q 2906 1408 3322 1408 
Q 3706 1408 4042 1328 
Q 4378 1248 4630 1101 
Q 4883 954 5030 739 
Q 5178 525 5178 250 
z
M 4723 230 
Q 4723 422 4608 569 
Q 4493 717 4297 816 
Q 4102 915 3846 969 
Q 3590 1024 3315 1024 
Q 3008 1024 2752 969 
Q 2496 915 2313 816 
Q 2131 717 2028 569 
Q 1926 422 1926 230 
Q 1926 45 2028 -99 
Q 2131 -243 2313 -339 
Q 2496 -435 2752 -486 
Q 3008 -538 3315 -538 
Q 3590 -538 3846 -486 
Q 4102 -435 4297 -339 
Q 4493 -243 4608 -99 
Q 4723 45 4723 230 
z
M 3309 4166 
Q 3219 3904 3056 3648 
Q 2893 3392 2669 3142 
Q 2886 2912 3206 2704 
Q 3526 2496 3904 2336 
Q 3955 2317 3961 2281 
Q 3968 2246 3949 2214 
L 3821 1984 
Q 3802 1952 3763 1949 
Q 3725 1946 3693 1958 
Q 3552 2022 3389 2112 
Q 3226 2202 3053 2317 
Q 2880 2432 2710 2566 
Q 2541 2701 2394 2848 
Q 2029 2490 1590 2195 
Q 1152 1901 704 1702 
Q 672 1690 640 1683 
Q 608 1677 589 1709 
L 461 1933 
Q 442 1965 458 2000 
Q 474 2035 506 2048 
Q 1331 2445 1913 2957 
Q 2496 3469 2822 4141 
Q 2867 4230 2835 4268 
Q 2803 4307 2714 4307 
L 838 4307 
Q 762 4307 762 4390 
L 762 4614 
Q 762 4691 838 4691 
L 2886 4691 
Q 3219 4691 3315 4572 
Q 3411 4454 3309 4166 
z
M 4710 3520 
L 4710 4915 
Q 4710 5005 4800 5005 
L 5062 5005 
Q 5152 5005 5152 4915 
L 5152 1549 
Q 5152 1459 5062 1459 
L 4800 1459 
Q 4710 1459 4710 1549 
L 4710 3136 
L 3526 3136 
Q 3443 3136 3443 3213 
L 3443 3443 
Q 3443 3520 3526 3520 
L 4710 3520 
z
" transform="scale(0.015625)"/>
     <path id="NanumGothic-d55c" d="M 3488 2170 
Q 3488 1939 3385 1734 
Q 3283 1530 3107 1376 
Q 2931 1222 2688 1136 
Q 2445 1050 2163 1050 
Q 1882 1050 1638 1136 
Q 1395 1222 1219 1376 
Q 1043 1530 944 1734 
Q 845 1939 845 2170 
Q 845 2400 944 2601 
Q 1043 2803 1219 2953 
Q 1395 3104 1638 3190 
Q 1882 3277 2163 3277 
Q 2445 3277 2688 3190 
Q 2931 3104 3107 2953 
Q 3283 2803 3385 2601 
Q 3488 2400 3488 2170 
z
M 4928 544 
Q 4928 454 4838 454 
L 4576 454 
Q 4486 454 4486 544 
L 4486 4915 
Q 4486 5005 4576 5005 
L 4838 5005 
Q 4928 5005 4928 4915 
L 4928 2797 
L 5811 2797 
Q 5850 2797 5878 2774 
Q 5907 2752 5907 2714 
L 5907 2496 
Q 5907 2464 5878 2438 
Q 5850 2413 5811 2413 
L 4928 2413 
L 4928 544 
z
M 3053 2170 
Q 3053 2323 2985 2454 
Q 2918 2586 2800 2682 
Q 2682 2778 2518 2832 
Q 2355 2886 2163 2886 
Q 1971 2886 1811 2832 
Q 1651 2778 1529 2682 
Q 1408 2586 1341 2454 
Q 1274 2323 1274 2170 
Q 1274 2016 1341 1881 
Q 1408 1747 1529 1651 
Q 1651 1555 1811 1497 
Q 1971 1440 2163 1440 
Q 2355 1440 2518 1497 
Q 2682 1555 2800 1651 
Q 2918 1747 2985 1881 
Q 3053 2016 3053 2170 
z
M 5216 -723 
Q 5216 -762 5184 -781 
Q 5152 -800 5120 -800 
L 1818 -800 
Q 1517 -800 1424 -688 
Q 1331 -576 1331 -314 
L 1331 570 
Q 1331 659 1421 659 
L 1683 659 
Q 1773 659 1773 570 
L 1773 -288 
Q 1773 -378 1801 -397 
Q 1830 -416 1920 -416 
L 5120 -416 
Q 5152 -416 5184 -438 
Q 5216 -461 5216 -493 
L 5216 -723 
z
M 4026 3667 
Q 4026 3584 3930 3584 
L 397 3584 
Q 365 3584 336 3609 
Q 307 3635 307 3674 
L 307 3878 
Q 307 3917 336 3942 
Q 365 3968 397 3968 
L 3930 3968 
Q 4026 3968 4026 3885 
L 4026 3667 
z
M 3091 4538 
Q 3091 4454 2995 4454 
L 1242 4454 
Q 1210 4454 1181 4473 
Q 1152 4493 1152 4531 
L 1152 4755 
Q 1152 4794 1177 4819 
Q 1203 4845 1235 4845 
L 2995 4845 
Q 3091 4845 3091 4755 
L 3091 4538 
z
" transform="scale(0.015625)"/>
     <path id="NanumGothic-c0c1" d="M 1299 250 
Q 1299 518 1433 732 
Q 1568 947 1811 1097 
Q 2054 1248 2393 1328 
Q 2733 1408 3149 1408 
Q 3533 1408 3869 1328 
Q 4205 1248 4457 1101 
Q 4710 954 4857 739 
Q 5005 525 5005 250 
Q 5005 -26 4857 -243 
Q 4710 -461 4457 -611 
Q 4205 -762 3869 -842 
Q 3533 -922 3149 -922 
Q 2733 -922 2393 -842 
Q 2054 -762 1811 -611 
Q 1568 -461 1433 -243 
Q 1299 -26 1299 250 
z
M 1754 230 
Q 1754 45 1856 -99 
Q 1958 -243 2140 -339 
Q 2323 -435 2579 -486 
Q 2835 -538 3142 -538 
Q 3418 -538 3674 -486 
Q 3930 -435 4125 -339 
Q 4320 -243 4435 -99 
Q 4550 45 4550 230 
Q 4550 422 4435 569 
Q 4320 717 4125 816 
Q 3930 915 3674 969 
Q 3418 1024 3142 1024 
Q 2835 1024 2579 969 
Q 2323 915 2140 816 
Q 1958 717 1856 569 
Q 1754 422 1754 230 
z
M 2342 4774 
Q 2342 4307 2246 3904 
Q 2323 3635 2460 3392 
Q 2598 3149 2784 2937 
Q 2970 2726 3190 2556 
Q 3411 2387 3654 2272 
Q 3693 2253 3689 2217 
Q 3686 2182 3674 2157 
L 3539 1946 
Q 3520 1914 3494 1901 
Q 3469 1888 3411 1920 
Q 3264 1997 3075 2128 
Q 2886 2259 2694 2438 
Q 2502 2618 2329 2832 
Q 2157 3046 2042 3277 
Q 1830 2790 1472 2393 
Q 1114 1997 634 1683 
Q 602 1664 563 1657 
Q 525 1651 499 1683 
L 339 1894 
Q 320 1920 333 1958 
Q 346 1997 378 2016 
Q 1139 2483 1523 3193 
Q 1907 3904 1894 4781 
Q 1894 4883 1971 4883 
L 2272 4864 
Q 2342 4864 2342 4774 
z
M 4928 1530 
Q 4928 1440 4838 1440 
L 4576 1440 
Q 4486 1440 4486 1530 
L 4486 4915 
Q 4486 5005 4576 5005 
L 4838 5005 
Q 4928 5005 4928 4915 
L 4928 3373 
L 5811 3373 
Q 5850 3373 5878 3350 
Q 5907 3328 5907 3290 
L 5907 3072 
Q 5907 3040 5878 3014 
Q 5850 2989 5811 2989 
L 4928 2989 
L 4928 1530 
z
" transform="scale(0.015625)"/>
     <path id="NanumGothic-c218" d="M 2854 -858 
Q 2822 -858 2796 -829 
Q 2771 -800 2771 -762 
L 2771 1325 
L 288 1325 
Q 250 1325 221 1350 
Q 192 1376 192 1408 
L 192 1626 
Q 192 1664 221 1686 
Q 250 1709 288 1709 
L 5728 1709 
Q 5760 1709 5792 1686 
Q 5824 1664 5824 1626 
L 5824 1408 
Q 5824 1376 5792 1350 
Q 5760 1325 5728 1325 
L 3213 1325 
L 3213 -762 
Q 3213 -800 3190 -829 
Q 3168 -858 3130 -858 
L 2854 -858 
z
M 3232 4864 
Q 3219 4781 3200 4704 
Q 3181 4627 3162 4557 
Q 3181 4486 3206 4425 
Q 3232 4365 3264 4307 
Q 3373 4096 3584 3881 
Q 3795 3667 4070 3478 
Q 4346 3290 4666 3142 
Q 4986 2995 5325 2912 
Q 5363 2899 5376 2860 
Q 5389 2822 5376 2790 
L 5274 2573 
Q 5254 2541 5232 2528 
Q 5210 2515 5146 2528 
Q 4806 2618 4473 2774 
Q 4141 2931 3853 3136 
Q 3565 3341 3331 3577 
Q 3098 3814 2950 4058 
Q 2675 3558 2163 3158 
Q 1651 2758 877 2451 
Q 774 2413 749 2477 
L 627 2701 
Q 614 2733 624 2771 
Q 634 2810 672 2822 
Q 1088 2963 1465 3196 
Q 1843 3430 2131 3712 
Q 2419 3994 2595 4301 
Q 2771 4608 2790 4909 
Q 2797 4986 2874 4986 
L 3162 4954 
Q 3194 4947 3219 4928 
Q 3245 4909 3232 4864 
z
" transform="scale(0.015625)"/>
    </defs>
    <use xlink:href="#NanumGothic-c9c1"/>
    <use xlink:href="#NanumGothic-c120" transform="translate(93.999985 0)"/>
    <use xlink:href="#NanumGothic-c774" transform="translate(187.999969 0)"/>
    <use xlink:href="#NanumGothic-b77c" transform="translate(281.999954 0)"/>
    <use xlink:href="#NanumGothic-c11c" transform="translate(375.999939 0)"/>
    <use xlink:href="#NanumGothic-20" transform="translate(469.999924 0)"/>
    <use xlink:href="#NanumGothic-bbf8" transform="translate(497.999908 0)"/>
    <use xlink:href="#NanumGothic-bd84" transform="translate(591.999893 0)"/>
    <use xlink:href="#NanumGothic-28" transform="translate(685.999878 0)"/>
    <use xlink:href="#NanumGothic-c811" transform="translate(722.299866 0)"/>
    <use xlink:href="#NanumGothic-c120" transform="translate(816.29985 0)"/>
    <use xlink:href="#NanumGothic-20" transform="translate(910.299835 0)"/>
    <use xlink:href="#NanumGothic-bc29" transform="translate(938.29982 0)"/>
    <use xlink:href="#NanumGothic-d5a5" transform="translate(1032.299805 0)"/>
    <use xlink:href="#NanumGothic-29" transform="translate(1126.299789 0)"/>
    <use xlink:href="#NanumGothic-c774" transform="translate(1162.599777 0)"/>
    <use xlink:href="#NanumGothic-20" transform="translate(1256.599762 0)"/>
    <use xlink:href="#NanumGothic-c77c" transform="translate(1284.599747 0)"/>
    <use xlink:href="#NanumGothic-c815" transform="translate(1378.599731 0)"/>
    <use xlink:href="#NanumGothic-d55c" transform="translate(1472.599716 0)"/>
    <use xlink:href="#NanumGothic-20" transform="translate(1566.599701 0)"/>
    <use xlink:href="#NanumGothic-c0c1" transform="translate(1594.599686 0)"/>
    <use xlink:href="#NanumGothic-c218" transform="translate(1688.59967 0)"/>
    <use xlink:href="#NanumGothic-20" transform="translate(1782.599655 0)"/>
    <use xlink:href="#NanumGothic-bca1" transform="translate(1810.59964 0)"/>
    <use xlink:href="#NanumGothic-d130" transform="translate(1904.599625 0)"/>
   </g>
  </g>
 </g>
 <defs>
  <clipPath id="p3d9d8e5e81">
   <rect x="7.2" y="57.6" width="613.8" height="332.64"/>
  </clipPath>
 </defs>
</svg>
