<?xml version="1.0" encoding="utf-8" standalone="no"?>
<!DOCTYPE svg PUBLIC "-//W3C//DTD SVG 1.1//EN"
  "http://www.w3.org/Graphics/SVG/1.1/DTD/svg11.dtd">
<svg xmlns:xlink="http://www.w3.org/1999/xlink" width="737.326719pt" height="447.137656pt" viewBox="0 0 737.326719 447.137656" xmlns="http://www.w3.org/2000/svg" version="1.1">
 <metadata>
  <rdf:RDF xmlns:dc="http://purl.org/dc/elements/1.1/" xmlns:cc="http://creativecommons.org/ns#" xmlns:rdf="http://www.w3.org/1999/02/22-rdf-syntax-ns#">
   <cc:Work>
    <dc:type rdf:resource="http://purl.org/dc/dcmitype/StillImage"/>
    <dc:date>2026-05-29T09:52:45.892406</dc:date>
    <dc:format>image/svg+xml</dc:format>
    <dc:creator>
     <cc:Agent>
      <dc:title>Matplotlib v3.10.9, https://matplotlib.org/</dc:title>
     </cc:Agent>
    </dc:creator>
   </cc:Work>
  </rdf:RDF>
 </metadata>
 <defs>
  <style type="text/css">*{stroke-linejoin: round; stroke-linecap: butt}</style>
 </defs>
 <g id="figure_1">
  <g id="patch_1">
   <path d="M 0 447.137656 
L 737.326719 447.137656 
L 737.326719 0 
L 0 0 
z
" style="fill: #ffffff"/>
  </g>
  <g id="axes_1">
   <g id="patch_2">
    <path d="M 41.086719 405 
L 730.126719 405 
L 730.126719 35.28 
L 41.086719 35.28 
z
" style="fill: #ffffff"/>
   </g>
   <g id="patch_3">
    <path d="M 72.406719 405 
L 158.650197 405 
L 158.650197 360.6336 
L 72.406719 360.6336 
z
" clip-path="url(#pd309d01deb)" style="fill: #e8c5c5; stroke: #8b3a3a; stroke-width: 1.5; stroke-linejoin: miter"/>
   </g>
   <g id="patch_4">
    <path d="M 299.36324 405 
L 385.606719 405 
L 385.606719 197.9568 
L 299.36324 197.9568 
z
" clip-path="url(#pd309d01deb)" style="fill: #f0d4c4; stroke: #c8694f; stroke-width: 1.5; stroke-linejoin: miter"/>
   </g>
   <g id="patch_5">
    <path d="M 526.319762 405 
L 612.56324 405 
L 612.56324 188.0976 
L 526.319762 188.0976 
z
" clip-path="url(#pd309d01deb)" style="fill: #d8eee0; stroke: #3da084; stroke-width: 1.5; stroke-linejoin: miter"/>
   </g>
   <g id="patch_6">
    <path d="M 158.650197 405 
L 244.893675 405 
L 244.893675 405 
L 158.650197 405 
z
" clip-path="url(#pd309d01deb)" style="fill: url(#h15d6af2339); opacity: 0.7; stroke: #8b3a3a; stroke-width: 1.5; stroke-linejoin: miter"/>
   </g>
   <g id="patch_7">
    <path d="M 385.606719 405 
L 471.850197 405 
L 471.850197 148.6608 
L 385.606719 148.6608 
z
" clip-path="url(#pd309d01deb)" style="fill: url(#h5ba8c9bf72); opacity: 0.7; stroke: #c8694f; stroke-width: 1.5; stroke-linejoin: miter"/>
   </g>
   <g id="patch_8">
    <path d="M 612.56324 405 
L 698.806719 405 
L 698.806719 94.4352 
L 612.56324 94.4352 
z
" clip-path="url(#pd309d01deb)" style="fill: url(#h3cc43821e5); opacity: 0.7; stroke: #3da084; stroke-width: 1.5; stroke-linejoin: miter"/>
   </g>
   <g id="matplotlib.axis_1">
    <g id="xtick_1">
     <g id="line2d_1">
      <defs>
       <path id="mf78a2dc196" d="M 0 0 
L 0 3.5 
" style="stroke: #000000; stroke-width: 0.8"/>
      </defs>
      <g>
       <use xlink:href="#mf78a2dc196" x="158.650197" y="405" style="stroke: #000000; stroke-width: 0.8"/>
      </g>
     </g>
     <g id="text_1">
      <!-- from scratch -->
      <g transform="translate(126.811213 420.272344) scale(0.11 -0.11)">
       <defs>
        <path id="NanumGothic-66" d="M 2144 4870 
Q 2227 4845 2221 4736 
L 2208 4550 
Q 2202 4512 2176 4502 
Q 2150 4493 2118 4506 
Q 2048 4531 1990 4540 
Q 1933 4550 1856 4550 
Q 1478 4550 1370 4173 
Q 1325 4019 1325 3494 
L 1325 3187 
L 2029 3187 
Q 2118 3187 2118 3098 
L 2118 2906 
Q 2118 2816 2029 2816 
L 1325 2816 
L 1325 -186 
Q 1325 -275 1235 -275 
L 986 -275 
Q 896 -275 896 -186 
L 896 2816 
L 275 2816 
Q 186 2816 186 2906 
L 186 3098 
Q 186 3187 275 3187 
L 896 3187 
L 896 3450 
Q 896 4147 1024 4454 
Q 1222 4915 1818 4915 
Q 2003 4915 2144 4870 
z
" transform="scale(0.015625)"/>
        <path id="NanumGothic-72" d="M 2221 2797 
Q 2106 2835 1914 2835 
Q 1440 2835 1210 2368 
Q 1030 2003 1030 1434 
L 1030 -186 
Q 1030 -275 941 -275 
L 691 -275 
Q 602 -275 602 -186 
L 602 2413 
Q 602 2643 598 2787 
Q 595 2931 589 3098 
Q 589 3187 678 3187 
L 915 3187 
Q 1005 3187 1005 3098 
L 1005 2470 
Q 1318 3277 1926 3277 
Q 2074 3277 2221 3238 
Q 2259 3226 2288 3197 
Q 2317 3168 2317 3117 
L 2317 2848 
Q 2317 2810 2285 2797 
Q 2253 2784 2221 2797 
z
" transform="scale(0.015625)"/>
        <path id="NanumGothic-6f" d="M 3130 1453 
Q 3130 1754 3050 2016 
Q 2970 2278 2829 2483 
Q 2496 2893 1965 2893 
Q 1696 2893 1481 2787 
Q 1267 2682 1101 2483 
Q 954 2278 874 2016 
Q 794 1754 794 1453 
Q 794 1146 874 883 
Q 954 621 1101 422 
Q 1440 6 1965 6 
Q 2234 6 2448 115 
Q 2662 224 2829 422 
Q 2970 621 3050 883 
Q 3130 1146 3130 1453 
z
M 3603 1453 
Q 3603 1075 3494 752 
Q 3386 429 3206 186 
Q 2982 -83 2672 -230 
Q 2362 -378 1965 -378 
Q 1568 -378 1254 -230 
Q 941 -83 717 186 
Q 538 429 432 752 
Q 326 1075 326 1453 
Q 326 2227 717 2720 
Q 1165 3277 1965 3277 
Q 2368 3277 2675 3139 
Q 2982 3002 3206 2720 
Q 3603 2214 3603 1453 
z
" transform="scale(0.015625)"/>
        <path id="NanumGothic-6d" d="M 602 2374 
Q 602 2643 595 2800 
Q 589 2957 576 3098 
Q 576 3187 666 3187 
L 902 3187 
Q 992 3187 992 3098 
L 992 2752 
Q 1139 2989 1388 3126 
Q 1638 3264 2003 3264 
Q 2387 3264 2675 3075 
Q 2963 2886 3027 2522 
Q 3162 2886 3459 3075 
Q 3757 3264 4147 3264 
Q 4397 3264 4598 3174 
Q 4800 3085 4944 2928 
Q 5088 2771 5165 2560 
Q 5242 2349 5242 2112 
L 5242 -186 
Q 5242 -275 5152 -275 
L 4909 -275 
Q 4819 -275 4819 -192 
L 4819 2022 
Q 4819 2899 4083 2899 
Q 3859 2899 3683 2800 
Q 3507 2701 3382 2528 
Q 3258 2355 3197 2124 
Q 3136 1894 3142 1638 
L 3142 -186 
Q 3142 -275 3053 -275 
L 2797 -275 
Q 2707 -275 2707 -186 
L 2707 2022 
Q 2707 2899 1965 2899 
Q 1530 2899 1280 2617 
Q 1030 2336 1030 1875 
L 1030 -186 
Q 1030 -275 941 -275 
L 691 -275 
Q 602 -275 602 -186 
L 602 2374 
z
" transform="scale(0.015625)"/>
        <path id="NanumGothic-20" transform="scale(0.015625)"/>
        <path id="NanumGothic-73" d="M 422 147 
Q 813 -13 1229 -13 
Q 1574 -13 1798 156 
Q 2022 326 2022 614 
Q 2022 781 1897 937 
Q 1773 1094 1594 1197 
Q 1395 1306 1187 1405 
Q 979 1504 787 1613 
Q 557 1741 448 1929 
Q 339 2118 339 2323 
Q 339 2560 428 2739 
Q 518 2918 672 3040 
Q 826 3162 1030 3219 
Q 1235 3277 1466 3277 
Q 1709 3277 1888 3251 
Q 2067 3226 2246 3174 
Q 2285 3162 2313 3136 
Q 2342 3110 2336 3066 
L 2317 2874 
Q 2310 2822 2278 2809 
Q 2246 2797 2214 2810 
Q 2054 2867 1894 2889 
Q 1734 2912 1510 2912 
Q 768 2912 768 2323 
Q 768 2195 867 2080 
Q 966 1965 1203 1850 
Q 1408 1747 1606 1654 
Q 1805 1562 2035 1434 
Q 2234 1325 2365 1101 
Q 2496 877 2496 614 
Q 2496 358 2393 172 
Q 2291 -13 2118 -134 
Q 1946 -256 1722 -317 
Q 1498 -378 1261 -378 
Q 1120 -378 1008 -371 
Q 896 -365 797 -352 
Q 698 -339 595 -320 
Q 493 -301 378 -269 
Q 288 -237 294 -154 
L 320 83 
Q 333 186 422 147 
z
" transform="scale(0.015625)"/>
        <path id="NanumGothic-63" d="M 2816 -301 
Q 2624 -333 2445 -345 
Q 2266 -358 2016 -358 
Q 1619 -358 1308 -217 
Q 998 -77 784 166 
Q 570 410 454 742 
Q 339 1075 339 1459 
Q 339 1850 460 2179 
Q 582 2509 809 2749 
Q 1037 2989 1353 3126 
Q 1670 3264 2067 3264 
Q 2278 3264 2451 3248 
Q 2624 3232 2822 3187 
Q 2912 3162 2906 3066 
L 2886 2861 
Q 2874 2784 2790 2803 
Q 2624 2854 2470 2876 
Q 2317 2899 2131 2899 
Q 1805 2899 1558 2793 
Q 1312 2688 1145 2496 
Q 979 2304 896 2038 
Q 813 1773 813 1459 
Q 813 1171 899 908 
Q 986 646 1149 444 
Q 1312 243 1545 124 
Q 1779 6 2080 6 
Q 2304 6 2451 25 
Q 2598 45 2784 96 
Q 2880 122 2886 51 
L 2906 -186 
Q 2912 -282 2816 -301 
z
" transform="scale(0.015625)"/>
        <path id="NanumGothic-61" d="M 2566 1530 
L 2445 1530 
Q 2086 1542 1808 1500 
Q 1530 1459 1344 1389 
Q 1075 1293 940 1104 
Q 806 915 806 653 
Q 806 493 857 355 
Q 909 218 1018 141 
Q 1210 -13 1530 -13 
Q 1754 -13 1942 76 
Q 2131 166 2272 332 
Q 2413 499 2489 745 
Q 2566 992 2566 1312 
L 2566 1530 
z
M 742 2650 
Q 710 2630 681 2640 
Q 653 2650 653 2682 
L 653 2925 
Q 653 3014 742 3059 
Q 966 3181 1219 3229 
Q 1472 3277 1773 3277 
Q 2413 3277 2707 2973 
Q 3002 2669 3002 2054 
L 3002 448 
Q 3002 256 3008 105 
Q 3014 -45 3027 -186 
Q 3027 -275 2938 -275 
L 2707 -275 
Q 2618 -275 2618 -186 
L 2618 307 
Q 2483 -19 2166 -198 
Q 1850 -378 1478 -378 
Q 832 -378 531 0 
Q 429 128 377 297 
Q 326 467 326 634 
Q 326 1024 508 1305 
Q 691 1587 1069 1728 
Q 1530 1894 2483 1894 
L 2566 1894 
L 2566 2086 
Q 2566 2490 2384 2701 
Q 2202 2912 1773 2912 
Q 1485 2912 1229 2851 
Q 973 2790 742 2650 
z
" transform="scale(0.015625)"/>
        <path id="NanumGothic-74" d="M 2208 -282 
Q 1939 -378 1677 -378 
Q 1158 -378 992 -38 
Q 883 192 883 774 
L 883 2816 
L 282 2816 
Q 192 2816 192 2906 
L 192 3098 
Q 192 3187 282 3187 
L 883 3187 
L 883 4051 
Q 883 4147 966 4147 
L 1235 4147 
Q 1318 4147 1318 4051 
L 1318 3187 
L 2029 3187 
Q 2118 3187 2118 3098 
L 2118 2906 
Q 2118 2816 2029 2816 
L 1318 2816 
L 1318 557 
Q 1318 -13 1779 -13 
Q 1958 -13 2182 64 
Q 2214 77 2243 64 
Q 2272 51 2272 13 
L 2285 -154 
Q 2298 -243 2208 -282 
z
" transform="scale(0.015625)"/>
        <path id="NanumGothic-68" d="M 3334 -186 
Q 3334 -275 3245 -275 
L 2989 -275 
Q 2899 -275 2899 -186 
L 2899 1786 
Q 2899 2093 2844 2307 
Q 2790 2522 2688 2653 
Q 2586 2784 2438 2841 
Q 2291 2899 2112 2899 
Q 1587 2899 1308 2649 
Q 1030 2400 1030 1958 
L 1030 -186 
Q 1030 -275 941 -275 
L 685 -275 
Q 595 -275 595 -186 
L 595 4730 
Q 595 4819 685 4819 
L 941 4819 
Q 1030 4819 1030 4730 
L 1030 2874 
Q 1210 3078 1475 3171 
Q 1741 3264 2138 3264 
Q 2758 3264 3046 2899 
Q 3334 2534 3334 1792 
L 3334 -186 
z
" transform="scale(0.015625)"/>
       </defs>
       <use xlink:href="#NanumGothic-66"/>
       <use xlink:href="#NanumGothic-72" transform="translate(36.299988 0)"/>
       <use xlink:href="#NanumGothic-6f" transform="translate(72.599976 0)"/>
       <use xlink:href="#NanumGothic-6d" transform="translate(133.199966 0)"/>
       <use xlink:href="#NanumGothic-20" transform="translate(223.999954 0)"/>
       <use xlink:href="#NanumGothic-73" transform="translate(251.999939 0)"/>
       <use xlink:href="#NanumGothic-63" transform="translate(294.399933 0)"/>
       <use xlink:href="#NanumGothic-72" transform="translate(342.799927 0)"/>
       <use xlink:href="#NanumGothic-61" transform="translate(379.099915 0)"/>
       <use xlink:href="#NanumGothic-74" transform="translate(433.599899 0)"/>
       <use xlink:href="#NanumGothic-63" transform="translate(469.899887 0)"/>
       <use xlink:href="#NanumGothic-68" transform="translate(518.299881 0)"/>
      </g>
      <!-- (no VLM PT) -->
      <g transform="translate(127.086213 432.486469) scale(0.11 -0.11)">
       <defs>
        <path id="NanumGothic-28" d="M 1984 -1133 
Q 1939 -1133 1929 -1129 
Q 1920 -1126 1894 -1094 
Q 1312 -365 1030 384 
Q 749 1133 749 1933 
Q 749 2726 1030 3475 
Q 1312 4224 1894 4960 
Q 1920 4992 1929 4995 
Q 1939 4998 1971 4998 
L 2150 4998 
Q 2189 4998 2189 4992 
Q 2189 4986 2170 4954 
Q 1165 3379 1165 1933 
Q 1165 1197 1421 448 
Q 1677 -301 2176 -1088 
Q 2208 -1133 2144 -1133 
L 1984 -1133 
z
" transform="scale(0.015625)"/>
        <path id="NanumGothic-6e" d="M 3334 -186 
Q 3334 -275 3245 -275 
L 2989 -275 
Q 2899 -275 2899 -186 
L 2899 1830 
Q 2899 2419 2688 2665 
Q 2477 2912 2093 2912 
Q 1574 2912 1302 2624 
Q 1030 2336 1030 1818 
L 1030 -186 
Q 1030 -275 941 -275 
L 685 -275 
Q 595 -275 595 -186 
L 595 2374 
Q 595 2650 592 2803 
Q 589 2957 576 3098 
Q 570 3142 598 3164 
Q 627 3187 666 3187 
L 896 3187 
Q 986 3187 986 3098 
L 986 2746 
Q 1165 3021 1417 3149 
Q 1670 3277 2112 3277 
Q 2720 3277 3027 2925 
Q 3334 2573 3334 1933 
L 3334 -186 
z
" transform="scale(0.015625)"/>
        <path id="NanumGothic-56" d="M 3706 4371 
Q 3718 4410 3750 4435 
Q 3782 4461 3821 4461 
L 4109 4461 
Q 4147 4461 4166 4432 
Q 4186 4403 4173 4371 
L 2426 -192 
Q 2406 -243 2384 -259 
Q 2362 -275 2310 -275 
L 1958 -275 
Q 1907 -275 1884 -259 
Q 1862 -243 1843 -192 
L 134 4371 
Q 122 4403 141 4432 
Q 160 4461 198 4461 
L 518 4461 
Q 595 4461 634 4371 
L 2138 192 
Q 2522 1222 2912 2262 
Q 3302 3302 3706 4371 
z
" transform="scale(0.015625)"/>
        <path id="NanumGothic-4c" d="M 2912 128 
Q 3002 128 3002 38 
L 3002 -186 
Q 3002 -275 2912 -275 
L 838 -275 
Q 749 -275 701 -272 
Q 653 -269 630 -246 
Q 608 -224 605 -173 
Q 602 -122 602 -32 
L 602 4371 
Q 602 4461 691 4461 
L 986 4461 
Q 1075 4461 1075 4371 
L 1075 128 
L 2912 128 
z
" transform="scale(0.015625)"/>
        <path id="NanumGothic-4d" d="M 5523 -186 
Q 5523 -275 5434 -275 
L 5146 -275 
Q 5056 -275 5056 -186 
L 5056 4058 
Q 4582 2880 4205 1952 
Q 4045 1555 3891 1174 
Q 3738 794 3616 496 
Q 3494 198 3417 12 
Q 3341 -173 3341 -179 
Q 3309 -243 3245 -243 
L 2957 -243 
Q 2912 -243 2893 -227 
Q 2874 -211 2861 -179 
L 1094 4058 
L 1094 -186 
Q 1094 -275 1005 -275 
L 717 -275 
Q 627 -275 627 -186 
L 627 4294 
Q 627 4429 649 4451 
Q 672 4474 806 4474 
L 1286 4474 
Q 1338 4474 1360 4461 
Q 1382 4448 1402 4397 
L 3104 256 
L 4755 4403 
Q 4781 4474 4858 4474 
L 5344 4474 
Q 5478 4474 5500 4451 
Q 5523 4429 5523 4294 
L 5523 -186 
z
" transform="scale(0.015625)"/>
        <path id="NanumGothic-50" d="M 3008 3123 
Q 3008 3578 2771 3824 
Q 2534 4070 2074 4070 
L 1114 4070 
L 1114 2157 
L 1632 2157 
Q 1939 2157 2185 2189 
Q 2432 2221 2608 2323 
Q 2784 2426 2886 2614 
Q 2989 2803 3008 3123 
z
M 1114 -186 
Q 1114 -275 1024 -275 
L 736 -275 
Q 646 -275 646 -186 
L 646 4282 
Q 646 4422 675 4448 
Q 704 4474 838 4474 
L 1978 4474 
Q 2682 4474 3078 4134 
Q 3488 3782 3488 3123 
Q 3488 2790 3369 2531 
Q 3251 2272 3040 2096 
Q 2829 1920 2541 1830 
Q 2253 1741 1926 1754 
L 1114 1754 
L 1114 -186 
z
" transform="scale(0.015625)"/>
        <path id="NanumGothic-54" d="M 2010 4064 
L 2010 -186 
Q 2010 -275 1920 -275 
L 1626 -275 
Q 1536 -275 1536 -186 
L 1536 4064 
L 218 4064 
Q 128 4064 128 4154 
L 128 4371 
Q 128 4461 218 4461 
L 3341 4461 
Q 3430 4461 3430 4371 
L 3430 4154 
Q 3430 4064 3341 4064 
L 2010 4064 
z
" transform="scale(0.015625)"/>
        <path id="NanumGothic-29" d="M 301 -1133 
Q 243 -1133 275 -1088 
Q 774 -301 1027 448 
Q 1280 1197 1280 1933 
Q 1280 2662 1030 3414 
Q 781 4166 282 4954 
Q 262 4986 262 4992 
Q 262 4998 294 4998 
L 474 4998 
Q 506 4998 515 4995 
Q 525 4992 557 4960 
Q 1139 4224 1417 3475 
Q 1696 2726 1696 1933 
Q 1696 1133 1417 384 
Q 1139 -365 557 -1094 
Q 525 -1126 515 -1129 
Q 506 -1133 461 -1133 
L 301 -1133 
z
" transform="scale(0.015625)"/>
       </defs>
       <use xlink:href="#NanumGothic-28"/>
       <use xlink:href="#NanumGothic-6e" transform="translate(36.299988 0)"/>
       <use xlink:href="#NanumGothic-6f" transform="translate(96.899979 0)"/>
       <use xlink:href="#NanumGothic-20" transform="translate(157.499969 0)"/>
       <use xlink:href="#NanumGothic-56" transform="translate(185.499954 0)"/>
       <use xlink:href="#NanumGothic-4c" transform="translate(252.099945 0)"/>
       <use xlink:href="#NanumGothic-4d" transform="translate(300.499939 0)"/>
       <use xlink:href="#NanumGothic-20" transform="translate(397.399933 0)"/>
       <use xlink:href="#NanumGothic-50" transform="translate(425.399918 0)"/>
       <use xlink:href="#NanumGothic-54" transform="translate(483.099915 0)"/>
       <use xlink:href="#NanumGothic-29" transform="translate(537.599899 0)"/>
      </g>
     </g>
    </g>
    <g id="xtick_2">
     <g id="line2d_2">
      <g>
       <use xlink:href="#mf78a2dc196" x="385.606719" y="405" style="stroke: #000000; stroke-width: 0.8"/>
      </g>
     </g>
     <g id="text_2">
      <!-- fine-tuning only -->
      <g transform="translate(345.205781 420.447656) scale(0.11 -0.11)">
       <defs>
        <path id="NanumGothic-69" d="M 1050 -186 
Q 1050 -275 960 -275 
L 678 -275 
Q 589 -275 589 -186 
L 589 3098 
Q 589 3187 678 3187 
L 960 3187 
Q 1050 3187 1050 3098 
L 1050 -186 
z
M 506 4397 
Q 506 4525 595 4617 
Q 685 4710 813 4710 
Q 941 4710 1033 4617 
Q 1126 4525 1126 4397 
Q 1126 4269 1033 4179 
Q 941 4090 813 4090 
Q 685 4090 595 4179 
Q 506 4269 506 4397 
z
" transform="scale(0.015625)"/>
        <path id="NanumGothic-65" d="M 2733 1696 
Q 2733 1958 2681 2163 
Q 2630 2368 2522 2534 
Q 2285 2912 1837 2912 
Q 1376 2912 1088 2528 
Q 973 2355 896 2131 
Q 819 1907 813 1696 
L 2733 1696 
z
M 813 1331 
Q 806 1011 886 764 
Q 966 518 1120 352 
Q 1274 186 1488 96 
Q 1702 6 1965 6 
Q 2221 6 2445 54 
Q 2669 102 2861 211 
Q 2944 250 2944 166 
L 2944 -122 
Q 2944 -179 2874 -211 
Q 2662 -294 2432 -336 
Q 2202 -378 1933 -378 
Q 1146 -378 742 80 
Q 339 538 339 1459 
Q 339 2272 742 2771 
Q 1165 3277 1811 3277 
Q 2170 3277 2432 3149 
Q 2694 3021 2880 2765 
Q 3206 2310 3206 1549 
Q 3206 1466 3203 1421 
Q 3200 1376 3181 1357 
Q 3162 1338 3114 1334 
Q 3066 1331 2976 1331 
L 813 1331 
z
" transform="scale(0.015625)"/>
        <path id="NanumGothic-2d" d="M 1946 2419 
Q 2016 2419 2025 2409 
Q 2035 2400 2035 2330 
L 2035 2048 
Q 2035 1978 2025 1968 
Q 2016 1958 1946 1958 
L 448 1958 
Q 378 1958 368 1968 
Q 358 1978 358 2048 
L 358 2330 
Q 358 2400 368 2409 
Q 378 2419 448 2419 
L 1946 2419 
z
" transform="scale(0.015625)"/>
        <path id="NanumGothic-75" d="M 3347 -186 
Q 3347 -275 3258 -275 
L 3027 -275 
Q 2938 -275 2938 -186 
L 2938 346 
Q 2771 -38 2492 -208 
Q 2214 -378 1792 -378 
Q 595 -378 595 960 
L 595 3098 
Q 595 3187 685 3187 
L 941 3187 
Q 1030 3187 1030 3098 
L 1030 1075 
Q 1030 -13 1862 -13 
Q 2106 -13 2301 92 
Q 2496 198 2630 380 
Q 2765 563 2835 806 
Q 2906 1050 2899 1318 
L 2899 3098 
Q 2899 3187 2989 3187 
L 3245 3187 
Q 3334 3187 3334 3098 
L 3334 525 
Q 3334 314 3337 147 
Q 3341 -19 3347 -186 
z
" transform="scale(0.015625)"/>
        <path id="NanumGothic-67" d="M 2950 1472 
Q 2950 2157 2668 2528 
Q 2387 2899 1907 2899 
Q 1389 2899 1126 2553 
Q 864 2208 864 1459 
Q 864 1184 941 953 
Q 1018 723 1152 560 
Q 1286 397 1472 304 
Q 1658 211 1875 211 
Q 2099 211 2297 304 
Q 2496 397 2640 566 
Q 2784 736 2867 966 
Q 2950 1197 2950 1472 
z
M 749 -1114 
Q 672 -1094 685 -1018 
L 704 -736 
Q 704 -653 787 -698 
Q 1030 -806 1254 -854 
Q 1478 -902 1741 -902 
Q 2323 -902 2614 -547 
Q 2906 -192 2944 422 
Q 2797 134 2509 -13 
Q 2221 -160 1869 -160 
Q 1555 -160 1286 -45 
Q 1018 70 819 281 
Q 621 493 505 793 
Q 390 1094 390 1459 
Q 390 1888 470 2224 
Q 550 2560 723 2790 
Q 896 3021 1171 3142 
Q 1446 3264 1837 3264 
Q 2176 3264 2435 3152 
Q 2694 3040 2963 2752 
L 2950 3098 
Q 2950 3187 3040 3187 
L 3283 3187 
Q 3373 3187 3373 3098 
L 3373 538 
Q 3373 122 3267 -214 
Q 3162 -550 2954 -784 
Q 2746 -1018 2438 -1142 
Q 2131 -1267 1734 -1267 
Q 1446 -1267 1228 -1232 
Q 1011 -1197 749 -1114 
z
" transform="scale(0.015625)"/>
        <path id="NanumGothic-6c" d="M 1056 -186 
Q 1056 -275 966 -275 
L 685 -275 
Q 595 -275 595 -186 
L 595 4723 
Q 595 4813 685 4813 
L 966 4813 
Q 1056 4813 1056 4723 
L 1056 -186 
z
" transform="scale(0.015625)"/>
        <path id="NanumGothic-79" d="M 301 -1222 
Q 224 -1203 237 -1126 
L 256 -909 
Q 256 -832 333 -864 
Q 435 -902 570 -902 
Q 704 -902 816 -860 
Q 928 -819 986 -749 
Q 1056 -659 1142 -454 
Q 1229 -250 1312 13 
Q 1024 794 742 1555 
Q 461 2317 173 3098 
Q 160 3130 173 3158 
Q 186 3187 224 3187 
L 525 3187 
Q 614 3187 653 3098 
L 1517 614 
Q 1754 1267 1968 1859 
Q 2182 2451 2419 3098 
Q 2451 3187 2547 3187 
L 2822 3187 
Q 2861 3187 2873 3158 
Q 2886 3130 2874 3098 
L 1542 -474 
Q 1472 -659 1385 -806 
Q 1299 -954 1210 -1043 
Q 1094 -1152 953 -1206 
Q 813 -1261 659 -1261 
Q 563 -1261 486 -1254 
Q 410 -1248 301 -1222 
z
" transform="scale(0.015625)"/>
       </defs>
       <use xlink:href="#NanumGothic-66"/>
       <use xlink:href="#NanumGothic-69" transform="translate(36.299988 0)"/>
       <use xlink:href="#NanumGothic-6e" transform="translate(60.499985 0)"/>
       <use xlink:href="#NanumGothic-65" transform="translate(121.099976 0)"/>
       <use xlink:href="#NanumGothic-2d" transform="translate(175.59996 0)"/>
       <use xlink:href="#NanumGothic-74" transform="translate(211.899948 0)"/>
       <use xlink:href="#NanumGothic-75" transform="translate(248.199936 0)"/>
       <use xlink:href="#NanumGothic-6e" transform="translate(308.799927 0)"/>
       <use xlink:href="#NanumGothic-69" transform="translate(369.399918 0)"/>
       <use xlink:href="#NanumGothic-6e" transform="translate(393.599915 0)"/>
       <use xlink:href="#NanumGothic-67" transform="translate(454.199905 0)"/>
       <use xlink:href="#NanumGothic-20" transform="translate(514.799896 0)"/>
       <use xlink:href="#NanumGothic-6f" transform="translate(542.799881 0)"/>
       <use xlink:href="#NanumGothic-6e" transform="translate(603.399872 0)"/>
       <use xlink:href="#NanumGothic-6c" transform="translate(663.999863 0)"/>
       <use xlink:href="#NanumGothic-79" transform="translate(688.19986 0)"/>
      </g>
      <!-- (robot data only) -->
      <g transform="translate(342.670625 432.933687) scale(0.11 -0.11)">
       <defs>
        <path id="NanumGothic-62" d="M 3066 1478 
Q 3072 1747 3017 2003 
Q 2963 2259 2841 2464 
Q 2720 2669 2518 2793 
Q 2317 2918 2022 2918 
Q 1760 2918 1565 2806 
Q 1370 2694 1242 2496 
Q 1114 2298 1050 2035 
Q 986 1773 986 1478 
Q 986 1190 1066 924 
Q 1146 659 1283 460 
Q 1421 262 1609 144 
Q 1798 26 2022 26 
Q 2317 26 2518 150 
Q 2720 275 2841 480 
Q 2963 685 3017 947 
Q 3072 1210 3066 1478 
z
M 557 4749 
Q 557 4838 646 4838 
L 896 4838 
Q 986 4838 986 4749 
L 986 2707 
Q 1146 2970 1440 3126 
Q 1734 3283 2099 3283 
Q 3526 3283 3526 1478 
Q 3533 1120 3453 790 
Q 3373 461 3193 211 
Q 3014 -38 2742 -188 
Q 2470 -339 2099 -339 
Q 1331 -339 986 314 
L 986 -186 
Q 986 -275 896 -275 
L 646 -275 
Q 557 -275 557 -186 
L 557 4749 
z
" transform="scale(0.015625)"/>
        <path id="NanumGothic-64" d="M 877 1459 
Q 877 1158 925 912 
Q 973 666 1075 480 
Q 1216 250 1417 128 
Q 1619 6 1901 6 
Q 2157 6 2352 140 
Q 2547 275 2678 483 
Q 2810 691 2874 950 
Q 2938 1210 2938 1459 
Q 2938 1766 2870 2028 
Q 2803 2291 2672 2483 
Q 2541 2675 2349 2784 
Q 2157 2893 1901 2893 
Q 1357 2893 1075 2426 
Q 973 2240 925 1993 
Q 877 1747 877 1459 
z
M 3366 -186 
Q 3366 -275 3277 -275 
L 3027 -275 
Q 2938 -275 2938 -186 
L 2938 294 
Q 2592 -358 1824 -358 
Q 1139 -358 755 166 
Q 403 653 403 1459 
Q 403 3258 1824 3258 
Q 2208 3258 2505 3104 
Q 2803 2950 2938 2707 
L 2938 4723 
Q 2938 4813 3027 4813 
L 3277 4813 
Q 3366 4813 3366 4723 
L 3366 -186 
z
" transform="scale(0.015625)"/>
       </defs>
       <use xlink:href="#NanumGothic-28"/>
       <use xlink:href="#NanumGothic-72" transform="translate(36.299988 0)"/>
       <use xlink:href="#NanumGothic-6f" transform="translate(72.599976 0)"/>
       <use xlink:href="#NanumGothic-62" transform="translate(133.199966 0)"/>
       <use xlink:href="#NanumGothic-6f" transform="translate(193.799957 0)"/>
       <use xlink:href="#NanumGothic-74" transform="translate(254.399948 0)"/>
       <use xlink:href="#NanumGothic-20" transform="translate(290.699936 0)"/>
       <use xlink:href="#NanumGothic-64" transform="translate(318.699921 0)"/>
       <use xlink:href="#NanumGothic-61" transform="translate(379.299911 0)"/>
       <use xlink:href="#NanumGothic-74" transform="translate(433.799896 0)"/>
       <use xlink:href="#NanumGothic-61" transform="translate(470.099884 0)"/>
       <use xlink:href="#NanumGothic-20" transform="translate(524.599869 0)"/>
       <use xlink:href="#NanumGothic-6f" transform="translate(552.599854 0)"/>
       <use xlink:href="#NanumGothic-6e" transform="translate(613.199844 0)"/>
       <use xlink:href="#NanumGothic-6c" transform="translate(673.799835 0)"/>
       <use xlink:href="#NanumGothic-79" transform="translate(697.999832 0)"/>
       <use xlink:href="#NanumGothic-29" transform="translate(744.399826 0)"/>
      </g>
     </g>
    </g>
    <g id="xtick_3">
     <g id="line2d_3">
      <g>
       <use xlink:href="#mf78a2dc196" x="612.56324" y="405" style="stroke: #000000; stroke-width: 0.8"/>
      </g>
     </g>
     <g id="text_3">
      <!-- co-fine-tuning -->
      <g transform="translate(576.259803 420.447656) scale(0.11 -0.11)">
       <use xlink:href="#NanumGothic-63"/>
       <use xlink:href="#NanumGothic-6f" transform="translate(48.399994 0)"/>
       <use xlink:href="#NanumGothic-2d" transform="translate(108.999985 0)"/>
       <use xlink:href="#NanumGothic-66" transform="translate(145.299973 0)"/>
       <use xlink:href="#NanumGothic-69" transform="translate(181.59996 0)"/>
       <use xlink:href="#NanumGothic-6e" transform="translate(205.799957 0)"/>
       <use xlink:href="#NanumGothic-65" transform="translate(266.399948 0)"/>
       <use xlink:href="#NanumGothic-2d" transform="translate(320.899933 0)"/>
       <use xlink:href="#NanumGothic-74" transform="translate(357.199921 0)"/>
       <use xlink:href="#NanumGothic-75" transform="translate(393.499908 0)"/>
       <use xlink:href="#NanumGothic-6e" transform="translate(454.099899 0)"/>
       <use xlink:href="#NanumGothic-69" transform="translate(514.69989 0)"/>
       <use xlink:href="#NanumGothic-6e" transform="translate(538.899887 0)"/>
       <use xlink:href="#NanumGothic-67" transform="translate(599.499878 0)"/>
      </g>
      <!-- (robot + web data) -->
      <g transform="translate(564.044647 432.684125) scale(0.11 -0.11)">
       <defs>
        <path id="NanumGothic-2b" d="M 3846 1971 
Q 3846 1882 3830 1869 
Q 3814 1856 3725 1856 
L 2342 1856 
L 2342 474 
Q 2342 390 2329 377 
Q 2317 365 2234 365 
L 1984 365 
Q 1901 365 1888 377 
Q 1875 390 1875 474 
L 1875 1856 
L 499 1856 
Q 410 1856 394 1869 
Q 378 1882 378 1971 
L 378 2202 
Q 378 2291 394 2304 
Q 410 2317 499 2317 
L 1875 2317 
L 1875 3686 
Q 1875 3776 1891 3789 
Q 1907 3802 1997 3802 
L 2221 3802 
Q 2310 3802 2326 3789 
Q 2342 3776 2342 3686 
L 2342 2317 
L 3725 2317 
Q 3814 2317 3830 2304 
Q 3846 2291 3846 2202 
L 3846 1971 
z
" transform="scale(0.015625)"/>
        <path id="NanumGothic-77" d="M 4218 -205 
Q 4198 -275 4115 -275 
L 3738 -275 
Q 3661 -275 3635 -205 
L 2726 2739 
Q 2490 1997 2253 1267 
Q 2016 538 1779 -198 
Q 1760 -275 1664 -275 
L 1312 -275 
Q 1267 -275 1238 -262 
Q 1210 -250 1197 -198 
L 128 3098 
Q 115 3130 134 3158 
Q 154 3187 192 3187 
L 486 3187 
Q 563 3187 602 3098 
L 1510 179 
Q 1747 915 1974 1622 
Q 2202 2330 2438 3066 
Q 2470 3187 2586 3187 
L 2886 3187 
Q 3008 3187 3040 3066 
L 3930 179 
Q 4173 934 4400 1638 
Q 4627 2342 4870 3098 
Q 4883 3136 4915 3161 
Q 4947 3187 4986 3187 
L 5242 3187 
Q 5280 3187 5299 3158 
Q 5318 3130 5306 3098 
L 4218 -205 
z
" transform="scale(0.015625)"/>
       </defs>
       <use xlink:href="#NanumGothic-28"/>
       <use xlink:href="#NanumGothic-72" transform="translate(36.299988 0)"/>
       <use xlink:href="#NanumGothic-6f" transform="translate(72.599976 0)"/>
       <use xlink:href="#NanumGothic-62" transform="translate(133.199966 0)"/>
       <use xlink:href="#NanumGothic-6f" transform="translate(193.799957 0)"/>
       <use xlink:href="#NanumGothic-74" transform="translate(254.399948 0)"/>
       <use xlink:href="#NanumGothic-20" transform="translate(290.699936 0)"/>
       <use xlink:href="#NanumGothic-2b" transform="translate(318.699921 0)"/>
       <use xlink:href="#NanumGothic-20" transform="translate(384.099915 0)"/>
       <use xlink:href="#NanumGothic-77" transform="translate(412.099899 0)"/>
       <use xlink:href="#NanumGothic-65" transform="translate(496.899887 0)"/>
       <use xlink:href="#NanumGothic-62" transform="translate(551.399872 0)"/>
       <use xlink:href="#NanumGothic-20" transform="translate(611.999863 0)"/>
       <use xlink:href="#NanumGothic-64" transform="translate(639.999847 0)"/>
       <use xlink:href="#NanumGothic-61" transform="translate(700.599838 0)"/>
       <use xlink:href="#NanumGothic-74" transform="translate(755.099823 0)"/>
       <use xlink:href="#NanumGothic-61" transform="translate(791.399811 0)"/>
       <use xlink:href="#NanumGothic-29" transform="translate(845.899796 0)"/>
      </g>
     </g>
    </g>
   </g>
   <g id="matplotlib.axis_2">
    <g id="ytick_1">
     <g id="line2d_4">
      <defs>
       <path id="m16e496d0c6" d="M 0 0 
L -3.5 0 
" style="stroke: #000000; stroke-width: 0.8"/>
      </defs>
      <g>
       <use xlink:href="#m16e496d0c6" x="41.086719" y="405" style="stroke: #000000; stroke-width: 0.8"/>
      </g>
     </g>
     <g id="text_4">
      <!-- 0 -->
      <g transform="translate(28.027344 408.760156) scale(0.1 -0.1)">
       <defs>
        <path id="NanumGothic-30" d="M 3066 2093 
Q 3066 4102 1965 4102 
Q 864 4102 864 2093 
Q 864 77 1965 77 
Q 3066 77 3066 2093 
z
M 3526 2093 
Q 3526 -326 1965 -326 
Q 390 -326 390 2093 
Q 390 3098 698 3725 
Q 1088 4512 1965 4512 
Q 2829 4512 3226 3725 
Q 3373 3411 3449 3008 
Q 3526 2605 3526 2093 
z
" transform="scale(0.015625)"/>
       </defs>
       <use xlink:href="#NanumGothic-30"/>
      </g>
     </g>
    </g>
    <g id="ytick_2">
     <g id="line2d_5">
      <g>
       <use xlink:href="#m16e496d0c6" x="41.086719" y="355.704" style="stroke: #000000; stroke-width: 0.8"/>
      </g>
     </g>
     <g id="text_5">
      <!-- 10 -->
      <g transform="translate(21.967969 359.464156) scale(0.1 -0.1)">
       <defs>
        <path id="NanumGothic-31" d="M 2362 -211 
Q 2362 -301 2272 -301 
L 2010 -301 
Q 1920 -301 1920 -211 
L 1920 3949 
Q 1722 3782 1549 3635 
Q 1376 3488 1184 3322 
Q 1114 3264 1056 3334 
L 928 3488 
Q 909 3520 909 3555 
Q 909 3590 941 3616 
L 1933 4448 
Q 1958 4474 2010 4474 
L 2182 4474 
Q 2317 4474 2339 4451 
Q 2362 4429 2362 4294 
L 2362 -211 
z
" transform="scale(0.015625)"/>
       </defs>
       <use xlink:href="#NanumGothic-31"/>
       <use xlink:href="#NanumGothic-30" transform="translate(60.599991 0)"/>
      </g>
     </g>
    </g>
    <g id="ytick_3">
     <g id="line2d_6">
      <g>
       <use xlink:href="#m16e496d0c6" x="41.086719" y="306.408" style="stroke: #000000; stroke-width: 0.8"/>
      </g>
     </g>
     <g id="text_6">
      <!-- 20 -->
      <g transform="translate(21.967969 310.168156) scale(0.1 -0.1)">
       <defs>
        <path id="NanumGothic-32" d="M 576 -301 
Q 506 -301 470 -297 
Q 435 -294 419 -278 
Q 403 -262 400 -227 
Q 397 -192 397 -122 
L 403 19 
Q 403 102 454 154 
L 1510 1318 
Q 2688 2592 2688 3251 
Q 2688 3635 2432 3891 
Q 2182 4141 1811 4141 
Q 1293 4141 730 3853 
Q 640 3808 627 3891 
L 589 4102 
Q 570 4211 653 4237 
Q 979 4384 1241 4454 
Q 1504 4525 1779 4525 
Q 2394 4525 2758 4218 
Q 3168 3885 3168 3270 
Q 3168 3034 3053 2752 
Q 2938 2470 2733 2163 
Q 2605 1984 2371 1696 
Q 2138 1408 1837 1082 
Q 1613 838 1392 588 
Q 1171 339 947 96 
L 3187 96 
Q 3277 96 3277 6 
L 3277 -211 
Q 3277 -301 3187 -301 
L 576 -301 
z
" transform="scale(0.015625)"/>
       </defs>
       <use xlink:href="#NanumGothic-32"/>
       <use xlink:href="#NanumGothic-30" transform="translate(60.599991 0)"/>
      </g>
     </g>
    </g>
    <g id="ytick_4">
     <g id="line2d_7">
      <g>
       <use xlink:href="#m16e496d0c6" x="41.086719" y="257.112" style="stroke: #000000; stroke-width: 0.8"/>
      </g>
     </g>
     <g id="text_7">
      <!-- 30 -->
      <g transform="translate(21.967969 260.872156) scale(0.1 -0.1)">
       <defs>
        <path id="NanumGothic-33" d="M 493 -192 
Q 397 -166 410 -45 
L 435 205 
Q 448 282 538 243 
Q 806 134 1046 89 
Q 1286 45 1606 38 
Q 2112 32 2458 294 
Q 2861 563 2861 1082 
Q 2861 1990 1498 1990 
L 1165 1990 
Q 1082 1990 1082 2061 
L 1082 2298 
Q 1082 2381 1165 2381 
L 1197 2381 
Q 1882 2381 2266 2528 
Q 2848 2752 2848 3334 
Q 2848 3520 2749 3677 
Q 2650 3834 2483 3942 
Q 2330 4032 2138 4083 
Q 1946 4134 1734 4134 
Q 1517 4134 1254 4076 
Q 992 4019 749 3923 
Q 666 3891 653 3974 
L 627 4211 
Q 608 4301 710 4339 
Q 998 4435 1248 4480 
Q 1498 4525 1779 4525 
Q 2426 4525 2835 4250 
Q 3302 3936 3302 3334 
Q 3302 2906 2995 2592 
Q 2739 2317 2330 2189 
Q 2534 2163 2710 2080 
Q 2886 1997 3014 1850 
Q 3162 1690 3238 1488 
Q 3315 1286 3315 1043 
Q 3315 723 3184 464 
Q 3053 205 2810 19 
Q 2573 -154 2265 -253 
Q 1958 -352 1581 -346 
Q 1242 -339 995 -307 
Q 749 -275 493 -192 
z
" transform="scale(0.015625)"/>
       </defs>
       <use xlink:href="#NanumGothic-33"/>
       <use xlink:href="#NanumGothic-30" transform="translate(60.599991 0)"/>
      </g>
     </g>
    </g>
    <g id="ytick_5">
     <g id="line2d_8">
      <g>
       <use xlink:href="#m16e496d0c6" x="41.086719" y="207.816" style="stroke: #000000; stroke-width: 0.8"/>
      </g>
     </g>
     <g id="text_8">
      <!-- 40 -->
      <g transform="translate(21.967969 211.576156) scale(0.1 -0.1)">
       <defs>
        <path id="NanumGothic-34" d="M 2509 1216 
L 2509 4070 
Q 2035 3354 1568 2643 
Q 1101 1933 621 1216 
L 2509 1216 
z
M 2944 -211 
Q 2944 -301 2854 -301 
L 2598 -301 
Q 2509 -301 2509 -211 
L 2509 826 
L 397 826 
Q 262 826 240 848 
Q 218 870 218 1005 
L 218 1203 
Q 218 1261 224 1280 
Q 230 1299 262 1350 
L 2304 4397 
Q 2342 4454 2358 4464 
Q 2374 4474 2445 4474 
L 2765 4474 
Q 2899 4474 2921 4451 
Q 2944 4429 2944 4294 
L 2944 1216 
L 3578 1216 
Q 3667 1216 3667 1126 
L 3667 915 
Q 3667 826 3578 826 
L 2944 826 
L 2944 -211 
z
" transform="scale(0.015625)"/>
       </defs>
       <use xlink:href="#NanumGothic-34"/>
       <use xlink:href="#NanumGothic-30" transform="translate(60.599991 0)"/>
      </g>
     </g>
    </g>
    <g id="ytick_6">
     <g id="line2d_9">
      <g>
       <use xlink:href="#m16e496d0c6" x="41.086719" y="158.52" style="stroke: #000000; stroke-width: 0.8"/>
      </g>
     </g>
     <g id="text_9">
      <!-- 50 -->
      <g transform="translate(21.967969 162.280156) scale(0.1 -0.1)">
       <defs>
        <path id="NanumGothic-35" d="M 736 -205 
Q 646 -173 646 -90 
L 646 179 
Q 646 288 736 243 
Q 966 134 1187 89 
Q 1408 45 1670 45 
Q 2234 45 2586 320 
Q 2970 614 2970 1165 
Q 2970 2246 1734 2246 
Q 1491 2246 1296 2220 
Q 1101 2195 864 2131 
Q 794 2112 749 2147 
Q 704 2182 704 2253 
L 742 4294 
Q 742 4429 764 4451 
Q 787 4474 922 4474 
L 3110 4474 
Q 3200 4474 3200 4384 
L 3200 4173 
Q 3200 4083 3110 4083 
L 1178 4083 
Q 1171 3680 1161 3296 
Q 1152 2912 1146 2509 
Q 1459 2630 1907 2630 
Q 2579 2630 2995 2266 
Q 3411 1888 3411 1254 
Q 3411 480 2931 58 
Q 2470 -346 1670 -346 
Q 1382 -346 1171 -314 
Q 960 -282 736 -205 
z
" transform="scale(0.015625)"/>
       </defs>
       <use xlink:href="#NanumGothic-35"/>
       <use xlink:href="#NanumGothic-30" transform="translate(60.599991 0)"/>
      </g>
     </g>
    </g>
    <g id="ytick_7">
     <g id="line2d_10">
      <g>
       <use xlink:href="#m16e496d0c6" x="41.086719" y="109.224" style="stroke: #000000; stroke-width: 0.8"/>
      </g>
     </g>
     <g id="text_10">
      <!-- 60 -->
      <g transform="translate(21.967969 112.984156) scale(0.1 -0.1)">
       <defs>
        <path id="NanumGothic-36" d="M 3078 1203 
Q 3078 1722 2810 2022 
Q 2541 2330 2042 2330 
Q 1786 2330 1581 2250 
Q 1376 2170 1232 2029 
Q 1088 1888 1008 1689 
Q 928 1491 928 1254 
Q 928 768 1197 435 
Q 1491 45 1984 45 
Q 2490 45 2797 384 
Q 3078 704 3078 1203 
z
M 3245 4013 
Q 3098 4064 2909 4096 
Q 2720 4128 2534 4128 
Q 1664 4128 1248 3501 
Q 896 2976 883 2061 
Q 1024 2317 1293 2496 
Q 1626 2733 2042 2733 
Q 2624 2733 3021 2426 
Q 3526 2035 3526 1235 
Q 3526 557 3110 109 
Q 2688 -346 1971 -346 
Q 435 -346 435 1920 
Q 435 3104 909 3770 
Q 1466 4525 2586 4525 
Q 2752 4525 2934 4499 
Q 3117 4474 3270 4429 
Q 3366 4410 3354 4314 
L 3341 4077 
Q 3341 4032 3309 4016 
Q 3277 4000 3245 4013 
z
" transform="scale(0.015625)"/>
       </defs>
       <use xlink:href="#NanumGothic-36"/>
       <use xlink:href="#NanumGothic-30" transform="translate(60.599991 0)"/>
      </g>
     </g>
    </g>
    <g id="ytick_8">
     <g id="line2d_11">
      <g>
       <use xlink:href="#m16e496d0c6" x="41.086719" y="59.928" style="stroke: #000000; stroke-width: 0.8"/>
      </g>
     </g>
     <g id="text_11">
      <!-- 70 -->
      <g transform="translate(21.967969 63.688156) scale(0.1 -0.1)">
       <defs>
        <path id="NanumGothic-37" d="M 1549 -211 
Q 1504 -301 1421 -301 
L 1101 -301 
Q 1062 -301 1046 -275 
Q 1030 -250 1050 -211 
L 2912 4083 
L 538 4083 
Q 448 4083 448 4173 
L 448 4384 
Q 448 4474 538 4474 
L 3194 4474 
Q 3328 4474 3350 4451 
Q 3373 4429 3373 4294 
L 3373 4134 
Q 3373 4083 3354 4045 
L 1549 -211 
z
" transform="scale(0.015625)"/>
       </defs>
       <use xlink:href="#NanumGothic-37"/>
       <use xlink:href="#NanumGothic-30" transform="translate(60.599991 0)"/>
      </g>
     </g>
    </g>
    <g id="text_12">
     <!-- Unseen Generalization Avg (%) -->
     <g transform="translate(15.790312 300.484687) rotate(-90) scale(0.11 -0.11)">
      <defs>
       <path id="NanumGothic-55" d="M 1088 1376 
Q 1088 768 1402 416 
Q 1754 26 2342 26 
Q 2944 26 3296 416 
Q 3456 589 3529 829 
Q 3603 1069 3603 1376 
L 3603 4384 
Q 3603 4474 3693 4474 
L 3987 4474 
Q 4077 4474 4077 4384 
L 4077 1376 
Q 4077 909 3923 553 
Q 3770 198 3482 -26 
Q 3014 -378 2342 -378 
Q 1677 -378 1210 -26 
Q 614 416 614 1376 
L 614 4384 
Q 614 4474 704 4474 
L 998 4474 
Q 1088 4474 1088 4384 
L 1088 1376 
z
" transform="scale(0.015625)"/>
       <path id="NanumGothic-47" d="M 4250 2285 
Q 4384 2285 4406 2262 
Q 4429 2240 4429 2106 
L 4429 77 
Q 4429 6 4387 -45 
Q 4346 -96 4294 -122 
Q 3987 -237 3651 -297 
Q 3315 -358 2950 -358 
Q 2419 -358 1968 -195 
Q 1517 -32 1190 278 
Q 864 589 681 1046 
Q 499 1504 499 2093 
Q 499 2630 668 3078 
Q 838 3526 1155 3852 
Q 1472 4179 1926 4361 
Q 2381 4544 2950 4544 
Q 3309 4544 3574 4512 
Q 3840 4480 4141 4384 
Q 4237 4358 4218 4256 
L 4186 4019 
Q 4179 3936 4090 3962 
Q 3802 4070 3539 4105 
Q 3277 4141 2950 4141 
Q 2496 4141 2128 3990 
Q 1760 3840 1501 3571 
Q 1242 3302 1104 2924 
Q 966 2547 966 2093 
Q 966 1600 1113 1216 
Q 1261 832 1526 573 
Q 1792 314 2153 179 
Q 2515 45 2950 45 
Q 3661 45 3962 218 
L 3962 1882 
L 2675 1882 
Q 2586 1882 2586 1971 
L 2586 2195 
Q 2586 2285 2675 2285 
L 4250 2285 
z
" transform="scale(0.015625)"/>
       <path id="NanumGothic-7a" d="M 454 -275 
Q 320 -275 297 -252 
Q 275 -230 275 -96 
L 275 6 
Q 275 90 326 147 
L 2387 2816 
L 448 2816 
Q 358 2816 358 2906 
L 358 3098 
Q 358 3187 448 3187 
L 2707 3187 
Q 2842 3187 2864 3164 
Q 2886 3142 2886 3008 
L 2886 2893 
Q 2886 2810 2842 2758 
L 774 83 
L 2797 83 
Q 2886 83 2886 -6 
L 2886 -186 
Q 2886 -275 2797 -275 
L 454 -275 
z
" transform="scale(0.015625)"/>
       <path id="NanumGothic-41" d="M 3386 1402 
Q 3117 2067 2870 2716 
Q 2624 3366 2355 4032 
Q 2086 3366 1827 2716 
Q 1568 2067 1299 1402 
L 3386 1402 
z
M 4499 -186 
Q 4531 -275 4442 -275 
L 4134 -275 
Q 4096 -275 4067 -262 
Q 4038 -250 4013 -186 
L 3539 992 
L 1133 992 
Q 1011 691 896 403 
Q 781 115 666 -186 
Q 640 -250 611 -262 
Q 582 -275 544 -275 
L 243 -275 
Q 154 -275 186 -186 
L 2067 4397 
Q 2099 4474 2182 4474 
L 2573 4474 
Q 2656 4474 2688 4397 
L 4499 -186 
z
" transform="scale(0.015625)"/>
       <path id="NanumGothic-76" d="M 1843 -192 
Q 1811 -275 1715 -275 
L 1402 -275 
Q 1306 -275 1280 -192 
L 154 3098 
Q 141 3130 160 3158 
Q 179 3187 218 3187 
L 506 3187 
Q 582 3187 621 3098 
L 1568 166 
L 2554 3098 
Q 2566 3136 2598 3161 
Q 2630 3187 2669 3187 
L 2950 3187 
Q 2989 3187 3008 3158 
Q 3027 3130 3014 3098 
L 1843 -192 
z
" transform="scale(0.015625)"/>
       <path id="NanumGothic-25" d="M 2522 3283 
Q 2522 4192 1869 4192 
Q 1222 4192 1222 3283 
Q 1222 2906 1357 2675 
Q 1536 2381 1869 2381 
Q 2208 2381 2387 2675 
Q 2522 2906 2522 3283 
z
M 5741 986 
Q 5741 1888 5094 1888 
Q 4435 1888 4435 986 
Q 4435 614 4576 378 
Q 4742 77 5094 77 
Q 5741 77 5741 986 
z
M 4992 4659 
Q 5075 4659 5081 4646 
Q 5088 4634 5050 4563 
L 2342 -282 
Q 2298 -358 2275 -371 
Q 2253 -384 2163 -384 
L 1978 -384 
Q 1888 -384 1878 -371 
Q 1869 -358 1920 -269 
L 4621 4576 
Q 4653 4640 4672 4649 
Q 4691 4659 4762 4659 
L 4992 4659 
z
M 2944 3283 
Q 2944 2714 2694 2387 
Q 2554 2208 2346 2112 
Q 2138 2016 1869 2016 
Q 1600 2016 1395 2112 
Q 1190 2208 1050 2387 
Q 800 2726 800 3283 
Q 800 3853 1050 4192 
Q 1338 4557 1869 4557 
Q 2406 4557 2694 4192 
Q 2944 3866 2944 3283 
z
M 6163 986 
Q 6163 410 5914 83 
Q 5632 -275 5094 -275 
Q 4550 -275 4269 83 
Q 4026 403 4026 986 
Q 4026 1562 4269 1894 
Q 4410 2074 4618 2170 
Q 4826 2266 5094 2266 
Q 5638 2266 5914 1894 
Q 6163 1568 6163 986 
z
" transform="scale(0.015625)"/>
      </defs>
      <use xlink:href="#NanumGothic-55"/>
      <use xlink:href="#NanumGothic-6e" transform="translate(72.699982 0)"/>
      <use xlink:href="#NanumGothic-73" transform="translate(133.299973 0)"/>
      <use xlink:href="#NanumGothic-65" transform="translate(175.699966 0)"/>
      <use xlink:href="#NanumGothic-65" transform="translate(230.199951 0)"/>
      <use xlink:href="#NanumGothic-6e" transform="translate(284.699936 0)"/>
      <use xlink:href="#NanumGothic-20" transform="translate(345.299927 0)"/>
      <use xlink:href="#NanumGothic-47" transform="translate(373.299911 0)"/>
      <use xlink:href="#NanumGothic-65" transform="translate(452.999893 0)"/>
      <use xlink:href="#NanumGothic-6e" transform="translate(507.499878 0)"/>
      <use xlink:href="#NanumGothic-65" transform="translate(568.099869 0)"/>
      <use xlink:href="#NanumGothic-72" transform="translate(622.599854 0)"/>
      <use xlink:href="#NanumGothic-61" transform="translate(658.899841 0)"/>
      <use xlink:href="#NanumGothic-6c" transform="translate(713.399826 0)"/>
      <use xlink:href="#NanumGothic-69" transform="translate(737.599823 0)"/>
      <use xlink:href="#NanumGothic-7a" transform="translate(761.79982 0)"/>
      <use xlink:href="#NanumGothic-61" transform="translate(810.199814 0)"/>
      <use xlink:href="#NanumGothic-74" transform="translate(864.699799 0)"/>
      <use xlink:href="#NanumGothic-69" transform="translate(900.999786 0)"/>
      <use xlink:href="#NanumGothic-6f" transform="translate(925.199783 0)"/>
      <use xlink:href="#NanumGothic-6e" transform="translate(985.799774 0)"/>
      <use xlink:href="#NanumGothic-20" transform="translate(1046.399765 0)"/>
      <use xlink:href="#NanumGothic-41" transform="translate(1074.39975 0)"/>
      <use xlink:href="#NanumGothic-76" transform="translate(1142.224731 0)"/>
      <use xlink:href="#NanumGothic-67" transform="translate(1190.624725 0)"/>
      <use xlink:href="#NanumGothic-20" transform="translate(1251.224716 0)"/>
      <use xlink:href="#NanumGothic-28" transform="translate(1279.224701 0)"/>
      <use xlink:href="#NanumGothic-25" transform="translate(1315.524689 0)"/>
      <use xlink:href="#NanumGothic-29" transform="translate(1424.524673 0)"/>
     </g>
    </g>
   </g>
   <g id="patch_9">
    <path d="M 41.086719 405 
L 41.086719 35.28 
" style="fill: none; stroke: #7a7a7a; stroke-width: 0.8; stroke-linejoin: miter; stroke-linecap: square"/>
   </g>
   <g id="patch_10">
    <path d="M 41.086719 405 
L 730.126719 405 
" style="fill: none; stroke: #7a7a7a; stroke-width: 0.8; stroke-linejoin: miter; stroke-linecap: square"/>
   </g>
   <g id="text_13">
    <!-- 9% -->
    <g style="fill: #333333" transform="translate(106.200802 353.2392) scale(0.11 -0.11)">
     <defs>
      <path id="NanumGothic-39" d="M 2995 2925 
Q 2995 3424 2726 3763 
Q 2432 4128 1946 4128 
Q 1427 4128 1133 3802 
Q 845 3494 845 2982 
Q 845 2438 1107 2138 
L 1101 2138 
Q 1376 1843 1882 1843 
Q 2406 1843 2701 2138 
Q 2995 2445 2995 2925 
z
M 653 -256 
Q 557 -237 570 -109 
L 589 115 
Q 602 192 691 154 
Q 851 90 1014 64 
Q 1178 38 1382 38 
Q 1830 38 2163 214 
Q 2496 390 2707 717 
Q 3027 1254 3040 2080 
Q 2650 1453 1882 1453 
Q 1293 1453 896 1754 
Q 390 2144 390 2950 
Q 390 3661 806 4083 
Q 1229 4525 1958 4525 
Q 3494 4525 3494 2259 
Q 3494 -346 1338 -346 
Q 1043 -346 653 -256 
z
" transform="scale(0.015625)"/>
     </defs>
     <use xlink:href="#NanumGothic-39"/>
     <use xlink:href="#NanumGothic-25" transform="translate(60.599991 0)"/>
    </g>
   </g>
   <g id="text_14">
    <!-- 42% -->
    <g style="fill: #333333" transform="translate(329.824667 190.5624) scale(0.11 -0.11)">
     <use xlink:href="#NanumGothic-34"/>
     <use xlink:href="#NanumGothic-32" transform="translate(60.599991 0)"/>
     <use xlink:href="#NanumGothic-25" transform="translate(121.199982 0)"/>
    </g>
   </g>
   <g id="text_15">
    <!-- 44% -->
    <g style="fill: #333333" transform="translate(556.781189 180.7032) scale(0.11 -0.11)">
     <use xlink:href="#NanumGothic-34"/>
     <use xlink:href="#NanumGothic-34" transform="translate(60.599991 0)"/>
     <use xlink:href="#NanumGothic-25" transform="translate(121.199982 0)"/>
    </g>
   </g>
   <g id="text_16">
    <!-- (skipped) -->
    <g style="fill: #7a7a7a" transform="translate(182.535139 395.1408) scale(0.09 -0.09)">
     <defs>
      <path id="NanumGothic-6b" d="M 1734 1645 
L 3117 -186 
Q 3136 -218 3129 -246 
Q 3123 -275 3085 -275 
L 2810 -275 
Q 2746 -275 2694 -256 
Q 2643 -237 2611 -186 
L 1459 1338 
L 1030 858 
L 1030 -186 
Q 1030 -275 941 -275 
L 685 -275 
Q 595 -275 595 -186 
L 595 4730 
Q 595 4819 685 4819 
L 941 4819 
Q 1030 4819 1030 4730 
L 1030 1395 
L 2490 3098 
Q 2579 3187 2701 3187 
L 3002 3187 
Q 3040 3187 3053 3158 
Q 3066 3130 3034 3098 
L 1734 1645 
z
" transform="scale(0.015625)"/>
      <path id="NanumGothic-70" d="M 2989 1504 
Q 2989 1766 2937 2012 
Q 2886 2259 2764 2451 
Q 2643 2643 2451 2761 
Q 2259 2880 1971 2880 
Q 1709 2880 1517 2771 
Q 1325 2662 1200 2473 
Q 1075 2285 1011 2035 
Q 947 1786 947 1504 
Q 947 762 1225 381 
Q 1504 0 1971 0 
Q 2214 0 2403 105 
Q 2592 211 2723 409 
Q 2854 608 2921 883 
Q 2989 1158 2989 1504 
z
M 518 3098 
Q 518 3187 608 3187 
L 851 3187 
Q 941 3187 941 3098 
L 909 2618 
Q 1037 2899 1341 3072 
Q 1645 3245 2048 3245 
Q 2426 3245 2691 3110 
Q 2957 2976 3126 2742 
Q 3296 2509 3376 2189 
Q 3456 1869 3456 1504 
Q 3456 1107 3363 768 
Q 3270 429 3094 179 
Q 2918 -70 2656 -214 
Q 2394 -358 2048 -358 
Q 1658 -358 1376 -208 
Q 1094 -58 947 211 
L 947 -1165 
Q 947 -1254 858 -1254 
L 614 -1254 
Q 576 -1254 547 -1228 
Q 518 -1203 518 -1165 
L 518 3098 
z
" transform="scale(0.015625)"/>
     </defs>
     <use xlink:href="#NanumGothic-28"/>
     <use xlink:href="#NanumGothic-73" transform="translate(36.299988 0)"/>
     <use xlink:href="#NanumGothic-6b" transform="translate(78.699982 0)"/>
     <use xlink:href="#NanumGothic-69" transform="translate(130.699966 0)"/>
     <use xlink:href="#NanumGothic-70" transform="translate(154.899963 0)"/>
     <use xlink:href="#NanumGothic-70" transform="translate(215.499954 0)"/>
     <use xlink:href="#NanumGothic-65" transform="translate(276.099945 0)"/>
     <use xlink:href="#NanumGothic-64" transform="translate(330.59993 0)"/>
     <use xlink:href="#NanumGothic-29" transform="translate(391.199921 0)"/>
    </g>
   </g>
   <g id="text_17">
    <!-- 52% -->
    <g style="fill: #333333" transform="translate(416.068145 141.2664) scale(0.11 -0.11)">
     <use xlink:href="#NanumGothic-35"/>
     <use xlink:href="#NanumGothic-32" transform="translate(60.599991 0)"/>
     <use xlink:href="#NanumGothic-25" transform="translate(121.199982 0)"/>
    </g>
   </g>
   <g id="text_18">
    <!-- 63% -->
    <g style="fill: #333333" transform="translate(643.024667 87.0408) scale(0.11 -0.11)">
     <use xlink:href="#NanumGothic-36"/>
     <use xlink:href="#NanumGothic-33" transform="translate(60.599991 0)"/>
     <use xlink:href="#NanumGothic-25" transform="translate(121.199982 0)"/>
    </g>
   </g>
   <g id="patch_11">
    <path d="M 160.115081 359.265428 
Q 272.129745 254.645998 382.918787 151.171274 
" style="fill: none; stroke: #5b56b5; stroke-width: 1.5; stroke-linecap: round"/>
    <path d="M 378.630367 152.439917 
L 382.918787 151.171274 
L 381.36065 155.363196 
" style="fill: none; stroke: #5b56b5; stroke-width: 1.5; stroke-linecap: round"/>
   </g>
   <g id="text_19">
    <!-- +33pp -->
    <g style="fill: #5b56b5" transform="translate(256.739395 235.922175) scale(0.1 -0.1)">
     <use xlink:href="#NanumGothic-2b"/>
     <use xlink:href="#NanumGothic-33" transform="translate(65.399994 0)"/>
     <use xlink:href="#NanumGothic-33" transform="translate(125.999985 0)"/>
     <use xlink:href="#NanumGothic-70" transform="translate(186.599976 0)"/>
     <use xlink:href="#NanumGothic-70" transform="translate(247.199966 0)"/>
    </g>
    <!-- (VLM pre-training) -->
    <g style="fill: #5b56b5" transform="translate(229.25502 247.2528) scale(0.1 -0.1)">
     <use xlink:href="#NanumGothic-28"/>
     <use xlink:href="#NanumGothic-56" transform="translate(36.299988 0)"/>
     <use xlink:href="#NanumGothic-4c" transform="translate(102.899979 0)"/>
     <use xlink:href="#NanumGothic-4d" transform="translate(151.299973 0)"/>
     <use xlink:href="#NanumGothic-20" transform="translate(248.199966 0)"/>
     <use xlink:href="#NanumGothic-70" transform="translate(276.199951 0)"/>
     <use xlink:href="#NanumGothic-72" transform="translate(336.799942 0)"/>
     <use xlink:href="#NanumGothic-65" transform="translate(373.09993 0)"/>
     <use xlink:href="#NanumGothic-2d" transform="translate(427.599915 0)"/>
     <use xlink:href="#NanumGothic-74" transform="translate(463.899902 0)"/>
     <use xlink:href="#NanumGothic-72" transform="translate(500.19989 0)"/>
     <use xlink:href="#NanumGothic-61" transform="translate(536.499878 0)"/>
     <use xlink:href="#NanumGothic-69" transform="translate(590.999863 0)"/>
     <use xlink:href="#NanumGothic-6e" transform="translate(615.19986 0)"/>
     <use xlink:href="#NanumGothic-69" transform="translate(675.79985 0)"/>
     <use xlink:href="#NanumGothic-6e" transform="translate(699.999847 0)"/>
     <use xlink:href="#NanumGothic-67" transform="translate(760.599838 0)"/>
     <use xlink:href="#NanumGothic-29" transform="translate(821.199829 0)"/>
    </g>
   </g>
   <g id="patch_12">
    <path d="M 430.671247 148.196619 
Q 542.204734 121.548474 652.107081 95.29005 
" style="fill: none; stroke: #3da084; stroke-width: 1.5; stroke-linecap: round"/>
    <path d="M 647.751816 94.274339 
L 652.107081 95.29005 
L 648.681353 98.164835 
" style="fill: none; stroke: #3da084; stroke-width: 1.5; stroke-linecap: round"/>
   </g>
   <g id="text_20">
    <!-- +11pp -->
    <g style="fill: #3da084" transform="translate(526.817656 95.65545) scale(0.1 -0.1)">
     <use xlink:href="#NanumGothic-2b"/>
     <use xlink:href="#NanumGothic-31" transform="translate(65.399994 0)"/>
     <use xlink:href="#NanumGothic-31" transform="translate(125.999985 0)"/>
     <use xlink:href="#NanumGothic-70" transform="translate(186.599976 0)"/>
     <use xlink:href="#NanumGothic-70" transform="translate(247.199966 0)"/>
    </g>
    <!-- (co-FT vs FT) -->
    <g style="fill: #3da084" transform="translate(513.491875 106.7592) scale(0.1 -0.1)">
     <defs>
      <path id="NanumGothic-46" d="M 1056 -186 
Q 1056 -275 966 -275 
L 672 -275 
Q 582 -275 582 -186 
L 582 4275 
Q 582 4416 604 4438 
Q 627 4461 768 4461 
L 2906 4461 
Q 2995 4461 2995 4371 
L 2995 4154 
Q 2995 4064 2906 4064 
L 1056 4064 
L 1056 2368 
L 2816 2368 
Q 2906 2368 2906 2278 
L 2906 2048 
Q 2906 1958 2816 1958 
L 1056 1958 
L 1056 -186 
z
" transform="scale(0.015625)"/>
     </defs>
     <use xlink:href="#NanumGothic-28"/>
     <use xlink:href="#NanumGothic-63" transform="translate(36.299988 0)"/>
     <use xlink:href="#NanumGothic-6f" transform="translate(84.699982 0)"/>
     <use xlink:href="#NanumGothic-2d" transform="translate(145.299973 0)"/>
     <use xlink:href="#NanumGothic-46" transform="translate(181.59996 0)"/>
     <use xlink:href="#NanumGothic-54" transform="translate(231.899948 0)"/>
     <use xlink:href="#NanumGothic-20" transform="translate(286.399933 0)"/>
     <use xlink:href="#NanumGothic-76" transform="translate(314.399918 0)"/>
     <use xlink:href="#NanumGothic-73" transform="translate(362.799911 0)"/>
     <use xlink:href="#NanumGothic-20" transform="translate(405.199905 0)"/>
     <use xlink:href="#NanumGothic-46" transform="translate(433.19989 0)"/>
     <use xlink:href="#NanumGothic-54" transform="translate(483.499878 0)"/>
     <use xlink:href="#NanumGothic-29" transform="translate(537.999863 0)"/>
    </g>
   </g>
   <g id="legend_1">
    <g id="patch_13">
     <path d="M 50.086719 51.800312 
L 70.086719 51.800312 
L 70.086719 44.800312 
L 50.086719 44.800312 
z
" style="fill: #e8c5c5; stroke: #8b3a3a; stroke-width: 1.5; stroke-linejoin: miter"/>
    </g>
    <g id="text_21">
     <!-- RT-2-PaLI-X 5B -->
     <g transform="translate(78.086719 51.800312) scale(0.1 -0.1)">
      <defs>
       <path id="NanumGothic-52" d="M 3002 3078 
Q 3002 3347 2941 3536 
Q 2880 3725 2736 3843 
Q 2592 3962 2361 4013 
Q 2131 4064 1786 4064 
L 1126 4064 
L 1126 2157 
L 1798 2157 
Q 2061 2157 2281 2221 
Q 2502 2285 2662 2406 
Q 2822 2528 2912 2697 
Q 3002 2867 3002 3078 
z
M 3763 -186 
Q 3776 -218 3763 -246 
Q 3750 -275 3712 -275 
L 3379 -275 
Q 3283 -275 3238 -186 
Q 2950 416 2758 797 
Q 2566 1178 2458 1402 
Q 2323 1664 2253 1805 
Q 2106 1773 1981 1766 
Q 1856 1760 1664 1754 
L 1126 1754 
L 1126 -186 
Q 1126 -275 1037 -275 
L 749 -275 
Q 659 -275 659 -186 
L 659 4269 
Q 659 4339 662 4377 
Q 666 4416 685 4435 
Q 704 4454 742 4457 
Q 781 4461 851 4461 
L 2061 4461 
Q 2426 4461 2691 4361 
Q 2957 4262 3133 4083 
Q 3309 3904 3395 3648 
Q 3482 3392 3482 3078 
Q 3482 2886 3414 2713 
Q 3347 2541 3232 2393 
Q 3117 2246 2966 2128 
Q 2816 2010 2656 1933 
L 3763 -186 
z
" transform="scale(0.015625)"/>
       <path id="NanumGothic-49" d="M 1069 -186 
Q 1069 -275 979 -275 
L 672 -275 
Q 582 -275 582 -186 
L 582 4371 
Q 582 4461 672 4461 
L 979 4461 
Q 1069 4461 1069 4371 
L 1069 -186 
z
" transform="scale(0.015625)"/>
       <path id="NanumGothic-58" d="M 4122 -186 
Q 4147 -218 4128 -246 
Q 4109 -275 4070 -275 
L 3686 -275 
Q 3616 -275 3558 -186 
L 2163 1882 
L 710 -186 
Q 672 -237 643 -256 
Q 614 -275 582 -275 
L 230 -275 
Q 192 -275 173 -246 
Q 154 -218 179 -186 
L 1888 2221 
L 358 4371 
Q 333 4403 352 4432 
Q 371 4461 410 4461 
L 768 4461 
Q 813 4461 838 4441 
Q 864 4422 896 4371 
L 2182 2554 
L 3482 4371 
Q 3546 4461 3610 4461 
L 3942 4461 
Q 3981 4461 4000 4432 
Q 4019 4403 3994 4371 
L 2458 2221 
L 4122 -186 
z
" transform="scale(0.015625)"/>
       <path id="NanumGothic-42" d="M 2784 3277 
Q 2784 4064 1741 4064 
L 1088 4064 
L 1088 2394 
L 1619 2394 
Q 2202 2394 2493 2624 
Q 2784 2854 2784 3277 
z
M 2931 1050 
Q 2931 1523 2585 1753 
Q 2240 1984 1491 1984 
L 1075 1984 
L 1075 128 
L 1568 128 
Q 2931 128 2931 1050 
z
M 3405 1075 
Q 3405 -275 1555 -275 
L 781 -275 
Q 646 -275 624 -252 
Q 602 -230 602 -96 
L 602 4282 
Q 602 4416 624 4438 
Q 646 4461 781 4461 
L 1741 4461 
Q 3258 4461 3258 3296 
Q 3258 2406 2413 2214 
Q 2899 2074 3152 1789 
Q 3405 1504 3405 1075 
z
" transform="scale(0.015625)"/>
      </defs>
      <use xlink:href="#NanumGothic-52"/>
      <use xlink:href="#NanumGothic-54" transform="translate(62.199997 0)"/>
      <use xlink:href="#NanumGothic-2d" transform="translate(116.699982 0)"/>
      <use xlink:href="#NanumGothic-32" transform="translate(152.999969 0)"/>
      <use xlink:href="#NanumGothic-2d" transform="translate(213.59996 0)"/>
      <use xlink:href="#NanumGothic-50" transform="translate(249.899948 0)"/>
      <use xlink:href="#NanumGothic-61" transform="translate(303.599945 0)"/>
      <use xlink:href="#NanumGothic-4c" transform="translate(358.09993 0)"/>
      <use xlink:href="#NanumGothic-49" transform="translate(406.499924 0)"/>
      <use xlink:href="#NanumGothic-2d" transform="translate(430.699921 0)"/>
      <use xlink:href="#NanumGothic-58" transform="translate(466.999908 0)"/>
      <use xlink:href="#NanumGothic-20" transform="translate(533.599899 0)"/>
      <use xlink:href="#NanumGothic-35" transform="translate(561.599884 0)"/>
      <use xlink:href="#NanumGothic-42" transform="translate(622.199875 0)"/>
     </g>
    </g>
    <g id="patch_14">
     <path d="M 50.086719 66.28 
L 70.086719 66.28 
L 70.086719 59.28 
L 50.086719 59.28 
z
" style="fill: url(#h15d6af2339); opacity: 0.7; stroke: #8b3a3a; stroke-width: 1.5; stroke-linejoin: miter"/>
    </g>
    <g id="text_22">
     <!-- RT-2-PaLI-X 55B -->
     <g transform="translate(78.086719 66.28) scale(0.1 -0.1)">
      <use xlink:href="#NanumGothic-52"/>
      <use xlink:href="#NanumGothic-54" transform="translate(62.199997 0)"/>
      <use xlink:href="#NanumGothic-2d" transform="translate(116.699982 0)"/>
      <use xlink:href="#NanumGothic-32" transform="translate(152.999969 0)"/>
      <use xlink:href="#NanumGothic-2d" transform="translate(213.59996 0)"/>
      <use xlink:href="#NanumGothic-50" transform="translate(249.899948 0)"/>
      <use xlink:href="#NanumGothic-61" transform="translate(303.599945 0)"/>
      <use xlink:href="#NanumGothic-4c" transform="translate(358.09993 0)"/>
      <use xlink:href="#NanumGothic-49" transform="translate(406.499924 0)"/>
      <use xlink:href="#NanumGothic-2d" transform="translate(430.699921 0)"/>
      <use xlink:href="#NanumGothic-58" transform="translate(466.999908 0)"/>
      <use xlink:href="#NanumGothic-20" transform="translate(533.599899 0)"/>
      <use xlink:href="#NanumGothic-35" transform="translate(561.599884 0)"/>
      <use xlink:href="#NanumGothic-35" transform="translate(622.199875 0)"/>
      <use xlink:href="#NanumGothic-42" transform="translate(682.799866 0)"/>
     </g>
    </g>
   </g>
  </g>
  <g id="text_23">
   <!-- RT-2 Co-fine-tuning Ablation (Unseen Generalization) -->
   <g transform="translate(199.487969 18.133125) scale(0.14 -0.14)">
    <defs>
     <path id="NanumGothic-43" d="M 3834 186 
Q 3872 198 3904 188 
Q 3936 179 3936 141 
L 3949 -109 
Q 3955 -192 3859 -224 
Q 3648 -294 3424 -326 
Q 3200 -358 2861 -358 
Q 1747 -358 1088 320 
Q 762 653 605 1094 
Q 448 1536 448 2093 
Q 448 3187 1107 3866 
Q 1779 4544 2861 4544 
Q 3014 4544 3139 4537 
Q 3264 4531 3382 4518 
Q 3501 4506 3616 4486 
Q 3731 4467 3859 4435 
Q 3955 4416 3949 4314 
L 3936 4058 
Q 3923 3968 3840 4000 
Q 3590 4083 3366 4112 
Q 3142 4141 2861 4141 
Q 1958 4141 1421 3565 
Q 922 3008 922 2093 
Q 922 1632 1043 1261 
Q 1165 890 1414 614 
Q 1933 38 2861 45 
Q 3130 51 3395 83 
Q 3661 115 3834 186 
z
" transform="scale(0.015625)"/>
    </defs>
    <use xlink:href="#NanumGothic-52"/>
    <use xlink:href="#NanumGothic-54" transform="translate(62.199997 0)"/>
    <use xlink:href="#NanumGothic-2d" transform="translate(116.699982 0)"/>
    <use xlink:href="#NanumGothic-32" transform="translate(152.999969 0)"/>
    <use xlink:href="#NanumGothic-20" transform="translate(213.59996 0)"/>
    <use xlink:href="#NanumGothic-43" transform="translate(241.599945 0)"/>
    <use xlink:href="#NanumGothic-6f" transform="translate(308.799942 0)"/>
    <use xlink:href="#NanumGothic-2d" transform="translate(369.399933 0)"/>
    <use xlink:href="#NanumGothic-66" transform="translate(405.699921 0)"/>
    <use xlink:href="#NanumGothic-69" transform="translate(441.999908 0)"/>
    <use xlink:href="#NanumGothic-6e" transform="translate(466.199905 0)"/>
    <use xlink:href="#NanumGothic-65" transform="translate(526.799896 0)"/>
    <use xlink:href="#NanumGothic-2d" transform="translate(581.299881 0)"/>
    <use xlink:href="#NanumGothic-74" transform="translate(617.599869 0)"/>
    <use xlink:href="#NanumGothic-75" transform="translate(653.899857 0)"/>
    <use xlink:href="#NanumGothic-6e" transform="translate(714.499847 0)"/>
    <use xlink:href="#NanumGothic-69" transform="translate(775.099838 0)"/>
    <use xlink:href="#NanumGothic-6e" transform="translate(799.299835 0)"/>
    <use xlink:href="#NanumGothic-67" transform="translate(859.899826 0)"/>
    <use xlink:href="#NanumGothic-20" transform="translate(920.499817 0)"/>
    <use xlink:href="#NanumGothic-41" transform="translate(948.499802 0)"/>
    <use xlink:href="#NanumGothic-62" transform="translate(1021.199783 0)"/>
    <use xlink:href="#NanumGothic-6c" transform="translate(1081.799774 0)"/>
    <use xlink:href="#NanumGothic-61" transform="translate(1105.999771 0)"/>
    <use xlink:href="#NanumGothic-74" transform="translate(1160.499756 0)"/>
    <use xlink:href="#NanumGothic-69" transform="translate(1196.799744 0)"/>
    <use xlink:href="#NanumGothic-6f" transform="translate(1220.999741 0)"/>
    <use xlink:href="#NanumGothic-6e" transform="translate(1281.599731 0)"/>
    <use xlink:href="#NanumGothic-20" transform="translate(1342.199722 0)"/>
    <use xlink:href="#NanumGothic-28" transform="translate(1370.199707 0)"/>
    <use xlink:href="#NanumGothic-55" transform="translate(1406.499695 0)"/>
    <use xlink:href="#NanumGothic-6e" transform="translate(1479.199677 0)"/>
    <use xlink:href="#NanumGothic-73" transform="translate(1539.799667 0)"/>
    <use xlink:href="#NanumGothic-65" transform="translate(1582.199661 0)"/>
    <use xlink:href="#NanumGothic-65" transform="translate(1636.699646 0)"/>
    <use xlink:href="#NanumGothic-6e" transform="translate(1691.199631 0)"/>
    <use xlink:href="#NanumGothic-20" transform="translate(1751.799622 0)"/>
    <use xlink:href="#NanumGothic-47" transform="translate(1779.799606 0)"/>
    <use xlink:href="#NanumGothic-65" transform="translate(1859.499588 0)"/>
    <use xlink:href="#NanumGothic-6e" transform="translate(1913.999573 0)"/>
    <use xlink:href="#NanumGothic-65" transform="translate(1974.599564 0)"/>
    <use xlink:href="#NanumGothic-72" transform="translate(2029.099548 0)"/>
    <use xlink:href="#NanumGothic-61" transform="translate(2065.399536 0)"/>
    <use xlink:href="#NanumGothic-6c" transform="translate(2119.899521 0)"/>
    <use xlink:href="#NanumGothic-69" transform="translate(2144.099518 0)"/>
    <use xlink:href="#NanumGothic-7a" transform="translate(2168.299515 0)"/>
    <use xlink:href="#NanumGothic-61" transform="translate(2216.699509 0)"/>
    <use xlink:href="#NanumGothic-74" transform="translate(2271.199493 0)"/>
    <use xlink:href="#NanumGothic-69" transform="translate(2307.499481 0)"/>
    <use xlink:href="#NanumGothic-6f" transform="translate(2331.699478 0)"/>
    <use xlink:href="#NanumGothic-6e" transform="translate(2392.299469 0)"/>
    <use xlink:href="#NanumGothic-29" transform="translate(2452.89946 0)"/>
   </g>
  </g>
  <g id="text_24">
   <!-- 핵심: (1) VLM pre-training이 결정적,  (2) Co-fine-tuning이 FT보다 우수,  (3) 모델 클수록 차이 증폭 -->
   <g style="fill: #333333" transform="translate(135.522578 437.76) scale(0.11 -0.11)">
    <defs>
     <path id="NanumGothic-d575" d="M 3053 2394 
Q 3053 2202 2973 2019 
Q 2893 1837 2736 1696 
Q 2579 1555 2352 1468 
Q 2125 1382 1837 1382 
Q 1542 1382 1315 1468 
Q 1088 1555 934 1696 
Q 781 1837 701 2019 
Q 621 2202 621 2394 
Q 621 2592 701 2771 
Q 781 2950 934 3091 
Q 1088 3232 1315 3315 
Q 1542 3398 1837 3398 
Q 2125 3398 2352 3312 
Q 2579 3226 2736 3088 
Q 2893 2950 2973 2768 
Q 3053 2586 3053 2394 
z
M 4128 1472 
Q 4128 1382 4038 1382 
L 3795 1382 
Q 3706 1382 3706 1472 
L 3706 4806 
Q 3706 4896 3795 4896 
L 4038 4896 
Q 4128 4896 4128 4806 
L 4128 3251 
L 4941 3251 
L 4941 4915 
Q 4941 5005 5030 5005 
L 5274 5005 
Q 5363 5005 5363 4915 
L 5363 1363 
Q 5363 1274 5274 1274 
L 5030 1274 
Q 4941 1274 4941 1363 
L 4941 2867 
L 4128 2867 
L 4128 1472 
z
M 1440 870 
Q 1440 909 1472 928 
Q 1504 947 1536 947 
L 4877 947 
Q 5178 947 5270 835 
Q 5363 723 5363 461 
L 5363 -832 
Q 5363 -922 5274 -922 
L 5011 -922 
Q 4922 -922 4922 -832 
L 4922 429 
Q 4922 518 4893 540 
Q 4864 563 4774 563 
L 1536 563 
Q 1504 563 1472 585 
Q 1440 608 1440 640 
L 1440 870 
z
M 2643 2394 
Q 2643 2656 2441 2845 
Q 2240 3034 1837 3034 
Q 1434 3034 1232 2848 
Q 1030 2662 1030 2394 
Q 1030 2138 1232 1942 
Q 1434 1747 1837 1747 
Q 2240 1747 2441 1942 
Q 2643 2138 2643 2394 
z
M 3251 3770 
Q 3251 3686 3155 3686 
L 474 3686 
Q 442 3686 413 3712 
Q 384 3738 384 3776 
L 384 3981 
Q 384 4019 413 4044 
Q 442 4070 474 4070 
L 3155 4070 
Q 3251 4070 3251 3987 
L 3251 3770 
z
M 2611 4538 
Q 2611 4448 2515 4448 
L 1152 4448 
Q 1120 4448 1091 4470 
Q 1062 4493 1062 4531 
L 1062 4749 
Q 1062 4787 1088 4812 
Q 1114 4838 1146 4838 
L 2515 4838 
Q 2611 4838 2611 4749 
L 2611 4538 
z
" transform="scale(0.015625)"/>
     <path id="NanumGothic-c2ec" d="M 1498 819 
Q 1498 1088 1600 1181 
Q 1702 1274 1984 1274 
L 4666 1274 
Q 4819 1274 4912 1254 
Q 5005 1235 5059 1184 
Q 5114 1133 5133 1043 
Q 5152 954 5152 819 
L 5152 -390 
Q 5152 -659 5049 -752 
Q 4947 -845 4666 -845 
L 1984 -845 
Q 1830 -845 1737 -825 
Q 1645 -806 1590 -752 
Q 1536 -698 1517 -611 
Q 1498 -525 1498 -390 
L 1498 819 
z
M 2093 890 
Q 2003 890 1971 854 
Q 1939 819 1939 723 
L 1939 -294 
Q 1939 -390 1971 -425 
Q 2003 -461 2093 -461 
L 4557 -461 
Q 4646 -461 4678 -425 
Q 4710 -390 4710 -294 
L 4710 723 
Q 4710 819 4678 854 
Q 4646 890 4557 890 
L 2093 890 
z
M 2342 4774 
Q 2342 4307 2246 3904 
Q 2323 3635 2460 3392 
Q 2598 3149 2784 2937 
Q 2970 2726 3190 2556 
Q 3411 2387 3654 2272 
Q 3693 2253 3689 2217 
Q 3686 2182 3674 2157 
L 3539 1946 
Q 3520 1914 3494 1901 
Q 3469 1888 3411 1920 
Q 3264 1997 3075 2128 
Q 2886 2259 2694 2438 
Q 2502 2618 2329 2832 
Q 2157 3046 2042 3277 
Q 1830 2790 1472 2393 
Q 1114 1997 634 1683 
Q 602 1664 563 1657 
Q 525 1651 499 1683 
L 339 1894 
Q 326 1920 336 1958 
Q 346 1997 378 2016 
Q 1139 2483 1523 3193 
Q 1907 3904 1894 4781 
Q 1894 4883 1971 4883 
L 2272 4864 
Q 2342 4864 2342 4774 
z
M 5152 1728 
Q 5152 1638 5062 1638 
L 4800 1638 
Q 4710 1638 4710 1728 
L 4710 4915 
Q 4710 5005 4800 5005 
L 5062 5005 
Q 5152 5005 5152 4915 
L 5152 1728 
z
" transform="scale(0.015625)"/>
     <path id="NanumGothic-3a" d="M 646 3526 
Q 646 3674 755 3782 
Q 864 3891 1011 3891 
Q 1158 3891 1267 3782 
Q 1376 3674 1376 3526 
Q 1376 3379 1267 3270 
Q 1158 3162 1011 3162 
Q 864 3162 755 3270 
Q 646 3379 646 3526 
z
M 646 640 
Q 646 787 755 896 
Q 864 1005 1011 1005 
Q 1158 1005 1267 896 
Q 1376 787 1376 640 
Q 1376 493 1267 384 
Q 1158 275 1011 275 
Q 864 275 755 384 
Q 646 493 646 640 
z
" transform="scale(0.015625)"/>
     <path id="NanumGothic-c774" d="M 3654 2566 
Q 3654 2208 3568 1843 
Q 3482 1478 3296 1184 
Q 3110 890 2819 701 
Q 2528 512 2118 512 
Q 1696 512 1405 697 
Q 1114 883 938 1180 
Q 762 1478 685 1843 
Q 608 2208 608 2566 
Q 608 2944 685 3312 
Q 762 3680 938 3974 
Q 1114 4269 1405 4448 
Q 1696 4627 2118 4627 
Q 2528 4627 2819 4448 
Q 3110 4269 3296 3977 
Q 3482 3686 3568 3318 
Q 3654 2950 3654 2566 
z
M 3200 2573 
Q 3200 2867 3139 3168 
Q 3078 3469 2950 3709 
Q 2822 3949 2617 4099 
Q 2413 4250 2118 4250 
Q 1811 4250 1609 4099 
Q 1408 3949 1286 3709 
Q 1165 3469 1113 3168 
Q 1062 2867 1062 2573 
Q 1062 2291 1110 1993 
Q 1158 1696 1280 1449 
Q 1402 1203 1606 1046 
Q 1811 890 2118 890 
Q 2413 890 2617 1046 
Q 2822 1203 2950 1449 
Q 3078 1696 3139 1993 
Q 3200 2291 3200 2573 
z
M 5152 -806 
Q 5152 -896 5062 -896 
L 4800 -896 
Q 4710 -896 4710 -806 
L 4710 4915 
Q 4710 5005 4800 5005 
L 5062 5005 
Q 5152 5005 5152 4915 
L 5152 -806 
z
" transform="scale(0.015625)"/>
     <path id="NanumGothic-acb0" d="M 3418 4326 
Q 3405 4250 3385 4176 
Q 3366 4102 3347 4032 
L 4710 4032 
L 4710 4915 
Q 4710 5005 4800 5005 
L 5062 5005 
Q 5152 5005 5152 4915 
L 5152 1965 
Q 5152 1875 5062 1875 
L 4800 1875 
Q 4710 1875 4710 1965 
L 4710 2541 
L 3078 2541 
Q 2995 2541 2995 2618 
L 2995 2842 
Q 2995 2918 3078 2918 
L 4710 2918 
L 4710 3654 
L 3219 3654 
Q 3098 3366 2902 3107 
Q 2707 2848 2422 2608 
Q 2138 2368 1750 2144 
Q 1363 1920 864 1709 
Q 768 1664 723 1747 
L 627 1958 
Q 602 2016 618 2041 
Q 634 2067 678 2086 
Q 1734 2522 2281 3053 
Q 2829 3584 2938 4211 
Q 2976 4397 2784 4397 
L 851 4397 
Q 774 4397 774 4480 
L 774 4704 
Q 774 4781 851 4781 
L 2931 4781 
Q 3238 4781 3350 4672 
Q 3462 4563 3418 4326 
z
M 5286 -838 
Q 5286 -870 5257 -892 
Q 5229 -915 5203 -915 
L 1984 -915 
Q 1683 -915 1590 -803 
Q 1498 -691 1498 -422 
L 1498 58 
Q 1498 326 1610 419 
Q 1722 512 2010 512 
L 4570 512 
Q 4659 512 4684 537 
Q 4710 563 4710 659 
L 4710 1024 
Q 4710 1120 4688 1145 
Q 4666 1171 4576 1171 
L 1574 1171 
Q 1542 1171 1513 1190 
Q 1485 1210 1485 1242 
L 1485 1472 
Q 1485 1504 1513 1523 
Q 1542 1542 1574 1542 
L 4646 1542 
Q 4800 1542 4896 1520 
Q 4992 1498 5049 1446 
Q 5107 1395 5129 1302 
Q 5152 1210 5152 1075 
L 5152 595 
Q 5152 326 5040 233 
Q 4928 141 4640 141 
L 2074 141 
Q 1984 141 1961 115 
Q 1939 90 1939 -6 
L 1939 -397 
Q 1939 -486 1964 -515 
Q 1990 -544 2080 -544 
L 5197 -544 
Q 5229 -544 5257 -563 
Q 5286 -582 5286 -614 
L 5286 -838 
z
" transform="scale(0.015625)"/>
     <path id="NanumGothic-c815" d="M 5178 250 
Q 5178 -26 5030 -243 
Q 4883 -461 4630 -611 
Q 4378 -762 4042 -842 
Q 3706 -922 3322 -922 
Q 2906 -922 2566 -842 
Q 2227 -762 1984 -611 
Q 1741 -461 1606 -243 
Q 1472 -26 1472 250 
Q 1472 518 1606 732 
Q 1741 947 1984 1097 
Q 2227 1248 2566 1328 
Q 2906 1408 3322 1408 
Q 3706 1408 4042 1328 
Q 4378 1248 4630 1101 
Q 4883 954 5030 739 
Q 5178 525 5178 250 
z
M 4723 230 
Q 4723 422 4608 569 
Q 4493 717 4297 816 
Q 4102 915 3846 969 
Q 3590 1024 3315 1024 
Q 3008 1024 2752 969 
Q 2496 915 2313 816 
Q 2131 717 2028 569 
Q 1926 422 1926 230 
Q 1926 45 2028 -99 
Q 2131 -243 2313 -339 
Q 2496 -435 2752 -486 
Q 3008 -538 3315 -538 
Q 3590 -538 3846 -486 
Q 4102 -435 4297 -339 
Q 4493 -243 4608 -99 
Q 4723 45 4723 230 
z
M 3309 4166 
Q 3219 3904 3056 3648 
Q 2893 3392 2669 3142 
Q 2886 2912 3206 2704 
Q 3526 2496 3904 2336 
Q 3955 2317 3961 2281 
Q 3968 2246 3949 2214 
L 3821 1984 
Q 3802 1952 3763 1949 
Q 3725 1946 3693 1958 
Q 3552 2022 3389 2112 
Q 3226 2202 3053 2317 
Q 2880 2432 2710 2566 
Q 2541 2701 2394 2848 
Q 2029 2490 1590 2195 
Q 1152 1901 704 1702 
Q 672 1690 640 1683 
Q 608 1677 589 1709 
L 461 1933 
Q 442 1965 458 2000 
Q 474 2035 506 2048 
Q 1331 2445 1913 2957 
Q 2496 3469 2822 4141 
Q 2867 4230 2835 4268 
Q 2803 4307 2714 4307 
L 838 4307 
Q 762 4307 762 4390 
L 762 4614 
Q 762 4691 838 4691 
L 2886 4691 
Q 3219 4691 3315 4572 
Q 3411 4454 3309 4166 
z
M 4710 3520 
L 4710 4915 
Q 4710 5005 4800 5005 
L 5062 5005 
Q 5152 5005 5152 4915 
L 5152 1549 
Q 5152 1459 5062 1459 
L 4800 1459 
Q 4710 1459 4710 1549 
L 4710 3136 
L 3526 3136 
Q 3443 3136 3443 3213 
L 3443 3443 
Q 3443 3520 3526 3520 
L 4710 3520 
z
" transform="scale(0.015625)"/>
     <path id="NanumGothic-c801" d="M 3309 4166 
Q 3219 3904 3056 3648 
Q 2893 3392 2669 3142 
Q 2886 2912 3206 2704 
Q 3526 2496 3904 2336 
Q 3955 2317 3961 2281 
Q 3968 2246 3949 2214 
L 3821 1984 
Q 3802 1952 3763 1949 
Q 3725 1946 3693 1958 
Q 3552 2022 3389 2112 
Q 3226 2202 3053 2317 
Q 2880 2432 2710 2566 
Q 2541 2701 2394 2848 
Q 2029 2490 1590 2195 
Q 1152 1901 704 1702 
Q 672 1690 640 1683 
Q 608 1677 589 1709 
L 461 1933 
Q 442 1965 458 2000 
Q 474 2035 506 2048 
Q 1331 2445 1913 2957 
Q 2496 3469 2822 4141 
Q 2867 4230 2835 4268 
Q 2803 4307 2714 4307 
L 838 4307 
Q 762 4307 762 4390 
L 762 4614 
Q 762 4691 838 4691 
L 2886 4691 
Q 3219 4691 3315 4572 
Q 3411 4454 3309 4166 
z
M 1421 1133 
Q 1421 1171 1453 1190 
Q 1485 1210 1517 1210 
L 4666 1210 
Q 4966 1210 5059 1098 
Q 5152 986 5152 723 
L 5152 -832 
Q 5152 -922 5062 -922 
L 4800 -922 
Q 4710 -922 4710 -832 
L 4710 691 
Q 4710 781 4681 803 
Q 4653 826 4563 826 
L 1517 826 
Q 1485 826 1453 848 
Q 1421 870 1421 902 
L 1421 1133 
z
M 4710 3462 
L 4710 4915 
Q 4710 5005 4800 5005 
L 5062 5005 
Q 5152 5005 5152 4915 
L 5152 1651 
Q 5152 1562 5062 1562 
L 4800 1562 
Q 4710 1562 4710 1651 
L 4710 3078 
L 3501 3078 
Q 3418 3078 3418 3155 
L 3418 3386 
Q 3418 3462 3501 3462 
L 4710 3462 
z
" transform="scale(0.015625)"/>
     <path id="NanumGothic-2c" d="M 1299 115 
Q 1382 115 1382 86 
Q 1382 58 1370 19 
L 947 -1126 
Q 922 -1178 899 -1194 
Q 877 -1210 832 -1210 
L 563 -1210 
Q 480 -1210 499 -1120 
L 800 6 
Q 813 45 838 80 
Q 864 115 934 115 
L 1299 115 
z
" transform="scale(0.015625)"/>
     <path id="NanumGothic-bcf4" d="M 3213 1818 
L 3213 499 
L 5728 499 
Q 5760 499 5792 476 
Q 5824 454 5824 416 
L 5824 198 
Q 5824 166 5792 140 
Q 5760 115 5728 115 
L 288 115 
Q 250 115 221 140 
Q 192 166 192 198 
L 192 416 
Q 192 454 221 476 
Q 250 499 288 499 
L 2771 499 
L 2771 1818 
L 1498 1818 
Q 1344 1818 1251 1837 
Q 1158 1856 1107 1910 
Q 1056 1965 1037 2051 
Q 1018 2138 1018 2272 
L 1018 4672 
Q 1018 4704 1043 4726 
Q 1069 4749 1101 4749 
L 1376 4749 
Q 1408 4749 1430 4723 
Q 1453 4698 1453 4672 
L 1453 3654 
L 4531 3654 
L 4531 4666 
Q 4531 4698 4553 4723 
Q 4576 4749 4608 4749 
L 4883 4749 
Q 4915 4749 4940 4726 
Q 4966 4704 4966 4672 
L 4966 2227 
Q 4966 1984 4864 1901 
Q 4762 1818 4480 1818 
L 3213 1818 
z
M 1453 3277 
L 1453 2349 
Q 1453 2253 1485 2224 
Q 1517 2195 1606 2195 
L 4378 2195 
Q 4467 2195 4499 2224 
Q 4531 2253 4531 2349 
L 4531 3277 
L 1453 3277 
z
" transform="scale(0.015625)"/>
     <path id="NanumGothic-b2e4" d="M 4019 1171 
Q 4032 1082 3936 1062 
Q 3699 1005 3337 953 
Q 2976 902 2576 864 
Q 2176 826 1785 806 
Q 1395 787 1107 794 
Q 819 800 713 928 
Q 608 1056 608 1325 
L 608 4077 
Q 608 4346 710 4435 
Q 813 4525 1094 4525 
L 3296 4525 
Q 3379 4525 3379 4448 
L 3379 4218 
Q 3379 4141 3296 4141 
L 1178 4141 
Q 1088 4141 1069 4118 
Q 1050 4096 1050 4000 
L 1050 1357 
Q 1050 1261 1082 1229 
Q 1114 1197 1203 1190 
Q 1510 1178 1852 1194 
Q 2195 1210 2544 1245 
Q 2893 1280 3229 1328 
Q 3565 1376 3866 1434 
Q 3968 1453 3987 1363 
L 4019 1171 
z
M 4928 -806 
Q 4928 -896 4838 -896 
L 4576 -896 
Q 4486 -896 4486 -806 
L 4486 4915 
Q 4486 5005 4576 5005 
L 4838 5005 
Q 4928 5005 4928 4915 
L 4928 2586 
L 5811 2586 
Q 5850 2586 5878 2563 
Q 5907 2541 5907 2502 
L 5907 2285 
Q 5907 2253 5878 2227 
Q 5850 2202 5811 2202 
L 4928 2202 
L 4928 -806 
z
" transform="scale(0.015625)"/>
     <path id="NanumGothic-c6b0" d="M 2995 2387 
Q 2669 2387 2307 2457 
Q 1946 2528 1642 2678 
Q 1338 2829 1142 3072 
Q 947 3315 947 3661 
Q 947 4006 1142 4249 
Q 1338 4493 1642 4643 
Q 1946 4794 2307 4861 
Q 2669 4928 2995 4928 
Q 3328 4928 3693 4861 
Q 4058 4794 4355 4643 
Q 4653 4493 4848 4249 
Q 5043 4006 5043 3661 
Q 5043 3315 4848 3072 
Q 4653 2829 4355 2678 
Q 4058 2528 3693 2457 
Q 3328 2387 2995 2387 
z
M 2995 4525 
Q 2771 4525 2499 4489 
Q 2227 4454 1987 4358 
Q 1747 4262 1584 4092 
Q 1421 3923 1421 3654 
Q 1421 3386 1584 3219 
Q 1747 3053 1987 2957 
Q 2227 2861 2499 2825 
Q 2771 2790 2995 2790 
Q 3213 2790 3485 2825 
Q 3757 2861 3997 2957 
Q 4237 3053 4403 3219 
Q 4570 3386 4570 3654 
Q 4570 3923 4403 4092 
Q 4237 4262 3997 4358 
Q 3757 4454 3485 4489 
Q 3213 4525 2995 4525 
z
M 2854 -858 
Q 2822 -858 2796 -829 
Q 2771 -800 2771 -762 
L 2771 1331 
L 288 1331 
Q 250 1331 221 1356 
Q 192 1382 192 1414 
L 192 1632 
Q 192 1670 221 1692 
Q 250 1715 288 1715 
L 5728 1715 
Q 5760 1715 5792 1692 
Q 5824 1670 5824 1632 
L 5824 1414 
Q 5824 1382 5792 1356 
Q 5760 1331 5728 1331 
L 3213 1331 
L 3213 -762 
Q 3213 -800 3190 -829 
Q 3168 -858 3130 -858 
L 2854 -858 
z
" transform="scale(0.015625)"/>
     <path id="NanumGothic-c218" d="M 2854 -858 
Q 2822 -858 2796 -829 
Q 2771 -800 2771 -762 
L 2771 1325 
L 288 1325 
Q 250 1325 221 1350 
Q 192 1376 192 1408 
L 192 1626 
Q 192 1664 221 1686 
Q 250 1709 288 1709 
L 5728 1709 
Q 5760 1709 5792 1686 
Q 5824 1664 5824 1626 
L 5824 1408 
Q 5824 1376 5792 1350 
Q 5760 1325 5728 1325 
L 3213 1325 
L 3213 -762 
Q 3213 -800 3190 -829 
Q 3168 -858 3130 -858 
L 2854 -858 
z
M 3232 4864 
Q 3219 4781 3200 4704 
Q 3181 4627 3162 4557 
Q 3181 4486 3206 4425 
Q 3232 4365 3264 4307 
Q 3373 4096 3584 3881 
Q 3795 3667 4070 3478 
Q 4346 3290 4666 3142 
Q 4986 2995 5325 2912 
Q 5363 2899 5376 2860 
Q 5389 2822 5376 2790 
L 5274 2573 
Q 5254 2541 5232 2528 
Q 5210 2515 5146 2528 
Q 4806 2618 4473 2774 
Q 4141 2931 3853 3136 
Q 3565 3341 3331 3577 
Q 3098 3814 2950 4058 
Q 2675 3558 2163 3158 
Q 1651 2758 877 2451 
Q 774 2413 749 2477 
L 627 2701 
Q 614 2733 624 2771 
Q 634 2810 672 2822 
Q 1088 2963 1465 3196 
Q 1843 3430 2131 3712 
Q 2419 3994 2595 4301 
Q 2771 4608 2790 4909 
Q 2797 4986 2874 4986 
L 3162 4954 
Q 3194 4947 3219 4928 
Q 3245 4909 3232 4864 
z
" transform="scale(0.015625)"/>
     <path id="NanumGothic-baa8" d="M 1005 4134 
Q 1005 4403 1107 4496 
Q 1210 4589 1491 4589 
L 4493 4589 
Q 4646 4589 4739 4569 
Q 4832 4550 4886 4499 
Q 4941 4448 4960 4358 
Q 4979 4269 4979 4134 
L 4979 2349 
Q 4979 2080 4876 1987 
Q 4774 1894 4493 1894 
L 3213 1894 
L 3213 499 
L 5728 499 
Q 5760 499 5792 476 
Q 5824 454 5824 416 
L 5824 198 
Q 5824 166 5792 140 
Q 5760 115 5728 115 
L 288 115 
Q 250 115 221 140 
Q 192 166 192 198 
L 192 416 
Q 192 454 221 476 
Q 250 499 288 499 
L 2771 499 
L 2771 1894 
L 1491 1894 
Q 1338 1894 1245 1913 
Q 1152 1933 1097 1987 
Q 1043 2042 1024 2128 
Q 1005 2214 1005 2349 
L 1005 4134 
z
M 1600 4205 
Q 1510 4205 1478 4169 
Q 1446 4134 1446 4038 
L 1446 2445 
Q 1446 2349 1478 2313 
Q 1510 2278 1600 2278 
L 4384 2278 
Q 4474 2278 4506 2313 
Q 4538 2349 4538 2445 
L 4538 4038 
Q 4538 4134 4506 4169 
Q 4474 4205 4384 4205 
L 1600 4205 
z
" transform="scale(0.015625)"/>
     <path id="NanumGothic-b378" d="M 5498 -838 
Q 5498 -870 5469 -892 
Q 5440 -915 5414 -915 
L 1990 -915 
Q 1690 -915 1597 -803 
Q 1504 -691 1504 -422 
L 1504 26 
Q 1504 294 1616 387 
Q 1728 480 2016 480 
L 4781 480 
Q 4870 480 4896 505 
Q 4922 531 4922 627 
L 4922 960 
Q 4922 1056 4899 1081 
Q 4877 1107 4787 1107 
L 1581 1107 
Q 1549 1107 1520 1126 
Q 1491 1146 1491 1178 
L 1491 1408 
Q 1491 1440 1520 1459 
Q 1549 1478 1581 1478 
L 4858 1478 
Q 5011 1478 5107 1456 
Q 5203 1434 5260 1382 
Q 5318 1331 5340 1238 
Q 5363 1146 5363 1011 
L 5363 563 
Q 5363 294 5251 201 
Q 5139 109 4851 109 
L 2080 109 
Q 1990 109 1968 83 
Q 1946 58 1946 -38 
L 1946 -397 
Q 1946 -486 1971 -515 
Q 1997 -544 2086 -544 
L 5408 -544 
Q 5440 -544 5469 -563 
Q 5498 -582 5498 -614 
L 5498 -838 
z
M 3264 2413 
Q 3283 2330 3187 2304 
Q 2214 2067 1018 2099 
Q 730 2106 624 2234 
Q 518 2362 518 2630 
L 518 4314 
Q 518 4582 620 4672 
Q 723 4762 1005 4762 
L 2803 4762 
Q 2886 4762 2886 4685 
L 2886 4454 
Q 2886 4378 2803 4378 
L 1088 4378 
Q 998 4378 979 4355 
Q 960 4333 960 4237 
L 960 2662 
Q 960 2566 992 2531 
Q 1024 2496 1114 2496 
Q 1606 2490 2124 2538 
Q 2643 2586 3104 2675 
Q 3168 2688 3190 2669 
Q 3213 2650 3226 2611 
L 3264 2413 
z
M 3808 3680 
L 3808 4806 
Q 3808 4896 3898 4896 
L 4141 4896 
Q 4230 4896 4230 4806 
L 4230 2010 
Q 4230 1920 4141 1920 
L 3898 1920 
Q 3808 1920 3808 2010 
L 3808 3296 
L 2560 3296 
Q 2477 3296 2477 3373 
L 2477 3603 
Q 2477 3680 2560 3680 
L 3808 3680 
z
M 5363 1926 
Q 5363 1837 5274 1837 
L 5030 1837 
Q 4941 1837 4941 1926 
L 4941 4915 
Q 4941 5005 5030 5005 
L 5274 5005 
Q 5363 5005 5363 4915 
L 5363 1926 
z
" transform="scale(0.015625)"/>
     <path id="NanumGothic-d074" d="M 1056 4819 
Q 1056 4858 1088 4877 
Q 1120 4896 1152 4896 
L 4461 4896 
Q 4614 4896 4707 4864 
Q 4800 4832 4851 4771 
Q 4902 4710 4924 4614 
Q 4947 4518 4947 4384 
Q 4947 4205 4937 3974 
Q 4928 3744 4909 3507 
Q 4890 3270 4858 3046 
Q 4826 2822 4787 2662 
L 5728 2662 
Q 5760 2662 5792 2640 
Q 5824 2618 5824 2579 
L 5824 2362 
Q 5824 2330 5792 2304 
Q 5760 2278 5728 2278 
L 288 2278 
Q 250 2278 221 2304 
Q 192 2330 192 2362 
L 192 2579 
Q 192 2618 221 2640 
Q 250 2662 288 2662 
L 4352 2662 
Q 4384 2803 4413 3001 
Q 4442 3200 4461 3424 
Q 4358 3411 4211 3404 
Q 4064 3398 3920 3395 
Q 3776 3392 3661 3389 
Q 3546 3386 3501 3386 
Q 3347 3379 3030 3376 
Q 2714 3373 2362 3369 
Q 2010 3366 1686 3366 
Q 1363 3366 1190 3366 
Q 1107 3366 1107 3443 
L 1107 3661 
Q 1107 3738 1190 3738 
Q 1318 3738 1513 3738 
Q 1709 3738 1936 3738 
Q 2163 3738 2400 3741 
Q 2637 3744 2848 3747 
Q 3059 3750 3222 3750 
Q 3386 3750 3462 3757 
Q 3501 3757 3625 3760 
Q 3750 3763 3907 3769 
Q 4064 3776 4224 3782 
Q 4384 3789 4493 3795 
Q 4506 3968 4509 4118 
Q 4512 4269 4512 4378 
Q 4512 4467 4483 4489 
Q 4454 4512 4365 4512 
L 1152 4512 
Q 1120 4512 1088 4534 
Q 1056 4557 1056 4589 
L 1056 4819 
z
M 5056 -781 
Q 5056 -813 5027 -835 
Q 4998 -858 4973 -858 
L 1568 -858 
Q 1267 -858 1174 -746 
Q 1082 -634 1082 -365 
L 1082 134 
Q 1082 403 1194 496 
Q 1306 589 1594 589 
L 4346 589 
Q 4435 589 4460 614 
Q 4486 640 4486 736 
L 4486 1133 
Q 4486 1229 4464 1254 
Q 4442 1280 4352 1280 
L 1158 1280 
Q 1126 1280 1097 1299 
Q 1069 1318 1069 1350 
L 1069 1574 
Q 1069 1606 1097 1625 
Q 1126 1645 1158 1645 
L 4416 1645 
Q 4570 1645 4666 1622 
Q 4762 1600 4819 1549 
Q 4877 1498 4899 1405 
Q 4922 1312 4922 1178 
L 4922 678 
Q 4922 410 4810 317 
Q 4698 224 4410 224 
L 1651 224 
Q 1562 224 1539 198 
Q 1517 173 1517 77 
L 1517 -339 
Q 1517 -429 1542 -457 
Q 1568 -486 1658 -486 
L 4966 -486 
Q 4998 -486 5027 -505 
Q 5056 -525 5056 -557 
L 5056 -781 
z
" transform="scale(0.015625)"/>
     <path id="NanumGothic-b85d" d="M 5011 2573 
Q 5011 2541 4982 2518 
Q 4954 2496 4928 2496 
L 3206 2496 
L 3206 1856 
L 5728 1856 
Q 5760 1856 5792 1833 
Q 5824 1811 5824 1773 
L 5824 1555 
Q 5824 1523 5792 1497 
Q 5760 1472 5728 1472 
L 288 1472 
Q 250 1472 221 1497 
Q 192 1523 192 1555 
L 192 1773 
Q 192 1811 221 1833 
Q 250 1856 288 1856 
L 2765 1856 
L 2765 2496 
L 1594 2496 
Q 1293 2496 1200 2608 
Q 1107 2720 1107 2989 
L 1107 3437 
Q 1107 3706 1219 3798 
Q 1331 3891 1619 3891 
L 4333 3891 
Q 4422 3891 4444 3913 
Q 4467 3936 4467 4038 
L 4467 4390 
Q 4467 4486 4444 4512 
Q 4422 4538 4333 4538 
L 1197 4538 
Q 1165 4538 1136 4557 
Q 1107 4576 1107 4608 
L 1107 4838 
Q 1107 4870 1136 4889 
Q 1165 4909 1197 4909 
L 4403 4909 
Q 4557 4909 4653 4886 
Q 4749 4864 4806 4813 
Q 4864 4762 4886 4669 
Q 4909 4576 4909 4442 
L 4909 3974 
Q 4909 3706 4797 3613 
Q 4685 3520 4397 3520 
L 1677 3520 
Q 1587 3520 1564 3497 
Q 1542 3475 1542 3373 
L 1542 3008 
Q 1542 2918 1568 2889 
Q 1594 2861 1683 2861 
L 4922 2861 
Q 4954 2861 4982 2841 
Q 5011 2822 5011 2790 
L 5011 2573 
z
M 947 851 
Q 947 890 979 909 
Q 1011 928 1043 928 
L 4442 928 
Q 4742 928 4835 816 
Q 4928 704 4928 442 
L 4928 -870 
Q 4928 -960 4838 -960 
L 4576 -960 
Q 4486 -960 4486 -870 
L 4486 410 
Q 4486 499 4457 521 
Q 4429 544 4339 544 
L 1043 544 
Q 1011 544 979 566 
Q 947 589 947 621 
L 947 851 
z
" transform="scale(0.015625)"/>
     <path id="NanumGothic-cc28" d="M 3219 3213 
Q 3110 2925 2953 2656 
Q 2797 2387 2592 2131 
Q 2714 1978 2874 1818 
Q 3034 1658 3200 1517 
Q 3366 1376 3536 1261 
Q 3706 1146 3859 1069 
Q 3930 1030 3885 954 
L 3763 742 
Q 3718 666 3635 717 
Q 3482 806 3309 931 
Q 3136 1056 2966 1203 
Q 2797 1350 2633 1510 
Q 2470 1670 2330 1830 
Q 1978 1453 1542 1139 
Q 1107 826 614 589 
Q 525 544 493 608 
L 371 819 
Q 352 851 368 886 
Q 384 922 416 934 
Q 1190 1306 1776 1862 
Q 2362 2419 2733 3187 
Q 2778 3277 2746 3315 
Q 2714 3354 2624 3354 
L 685 3354 
Q 608 3354 608 3437 
L 608 3661 
Q 608 3738 698 3738 
L 2797 3738 
Q 3130 3738 3229 3619 
Q 3328 3501 3219 3213 
z
M 4928 -806 
Q 4928 -896 4838 -896 
L 4576 -896 
Q 4486 -896 4486 -806 
L 4486 4915 
Q 4486 5005 4576 5005 
L 4838 5005 
Q 4928 5005 4928 4915 
L 4928 2586 
L 5811 2586 
Q 5850 2586 5878 2563 
Q 5907 2541 5907 2502 
L 5907 2285 
Q 5907 2253 5878 2227 
Q 5850 2202 5811 2202 
L 4928 2202 
L 4928 -806 
z
M 2790 4710 
Q 2886 4710 2886 4621 
L 2886 4416 
Q 2886 4320 2790 4320 
L 1210 4320 
Q 1114 4320 1114 4416 
L 1114 4621 
Q 1114 4710 1210 4710 
L 2790 4710 
z
" transform="scale(0.015625)"/>
     <path id="NanumGothic-c99d" d="M 4992 160 
Q 4992 -58 4896 -221 
Q 4800 -384 4640 -509 
Q 4480 -634 4272 -717 
Q 4064 -800 3843 -848 
Q 3622 -896 3401 -918 
Q 3181 -941 2995 -941 
Q 2816 -941 2595 -918 
Q 2374 -896 2153 -848 
Q 1933 -800 1725 -717 
Q 1517 -634 1357 -509 
Q 1197 -384 1101 -221 
Q 1005 -58 1005 160 
Q 1005 371 1101 534 
Q 1197 698 1357 819 
Q 1517 941 1725 1024 
Q 1933 1107 2153 1158 
Q 2374 1210 2592 1232 
Q 2810 1254 2995 1254 
Q 3181 1254 3401 1232 
Q 3622 1210 3846 1162 
Q 4070 1114 4275 1030 
Q 4480 947 4640 825 
Q 4800 704 4896 537 
Q 4992 371 4992 160 
z
M 4493 4218 
Q 4160 3904 3590 3610 
Q 3770 3558 3990 3500 
Q 4211 3443 4441 3385 
Q 4672 3328 4902 3277 
Q 5133 3226 5331 3187 
Q 5414 3168 5389 3098 
L 5299 2886 
Q 5267 2816 5184 2835 
Q 4966 2874 4697 2938 
Q 4429 3002 4150 3075 
Q 3872 3149 3600 3225 
Q 3328 3302 3098 3379 
Q 2592 3168 2013 3005 
Q 1434 2842 832 2739 
Q 774 2726 752 2748 
Q 730 2771 717 2810 
L 659 3002 
Q 634 3098 710 3104 
Q 1152 3174 1638 3308 
Q 2125 3443 2576 3609 
Q 3027 3776 3404 3958 
Q 3782 4141 4006 4307 
Q 4109 4384 4086 4429 
Q 4064 4474 3974 4474 
L 1210 4474 
Q 1126 4474 1126 4557 
L 1126 4781 
Q 1126 4858 1210 4858 
L 4134 4858 
Q 4627 4858 4716 4688 
Q 4806 4518 4493 4218 
z
M 4525 154 
Q 4525 371 4352 512 
Q 4179 653 3932 733 
Q 3686 813 3427 841 
Q 3168 870 2995 870 
Q 2816 870 2557 841 
Q 2298 813 2058 733 
Q 1818 653 1645 512 
Q 1472 371 1472 154 
Q 1472 -64 1645 -201 
Q 1818 -339 2058 -416 
Q 2298 -493 2557 -521 
Q 2816 -550 2995 -550 
Q 3168 -550 3427 -521 
Q 3686 -493 3932 -416 
Q 4179 -339 4352 -201 
Q 4525 -64 4525 154 
z
M 5728 2214 
Q 5760 2214 5792 2192 
Q 5824 2170 5824 2131 
L 5824 1914 
Q 5824 1882 5792 1856 
Q 5760 1830 5728 1830 
L 288 1830 
Q 250 1830 221 1856 
Q 192 1882 192 1914 
L 192 2131 
Q 192 2170 221 2192 
Q 250 2214 288 2214 
L 5728 2214 
z
" transform="scale(0.015625)"/>
     <path id="NanumGothic-d3ed" d="M 5037 2867 
Q 5037 2784 4941 2784 
L 3219 2784 
L 3219 1971 
L 5728 1971 
Q 5760 1971 5792 1948 
Q 5824 1926 5824 1888 
L 5824 1670 
Q 5824 1638 5792 1612 
Q 5760 1587 5728 1587 
L 288 1587 
Q 250 1587 221 1612 
Q 192 1638 192 1670 
L 192 1888 
Q 192 1926 221 1948 
Q 250 1971 288 1971 
L 2778 1971 
L 2778 2784 
L 998 2784 
Q 966 2784 937 2809 
Q 909 2835 909 2874 
L 909 3072 
Q 909 3110 937 3136 
Q 966 3162 998 3162 
L 1786 3162 
L 1786 4499 
L 1126 4499 
Q 1094 4499 1065 4524 
Q 1037 4550 1037 4589 
L 1037 4787 
Q 1037 4826 1065 4851 
Q 1094 4877 1126 4877 
L 4813 4877 
Q 4909 4877 4909 4794 
L 4909 4582 
Q 4909 4499 4813 4499 
L 4186 4499 
L 4186 3162 
L 4941 3162 
Q 5037 3162 5037 3078 
L 5037 2867 
z
M 947 909 
Q 947 947 979 966 
Q 1011 986 1043 986 
L 4442 986 
Q 4742 986 4835 874 
Q 4928 762 4928 499 
L 4928 -870 
Q 4928 -960 4838 -960 
L 4576 -960 
Q 4486 -960 4486 -870 
L 4486 467 
Q 4486 557 4457 579 
Q 4429 602 4339 602 
L 1043 602 
Q 1011 602 979 624 
Q 947 646 947 678 
L 947 909 
z
M 2221 3162 
L 3750 3162 
L 3750 4499 
L 2221 4499 
L 2221 3162 
z
" transform="scale(0.015625)"/>
    </defs>
    <use xlink:href="#NanumGothic-d575"/>
    <use xlink:href="#NanumGothic-c2ec" transform="translate(93.999985 0)"/>
    <use xlink:href="#NanumGothic-3a" transform="translate(187.999969 0)"/>
    <use xlink:href="#NanumGothic-20" transform="translate(218.299957 0)"/>
    <use xlink:href="#NanumGothic-28" transform="translate(246.299942 0)"/>
    <use xlink:href="#NanumGothic-31" transform="translate(282.59993 0)"/>
    <use xlink:href="#NanumGothic-29" transform="translate(343.199921 0)"/>
    <use xlink:href="#NanumGothic-20" transform="translate(379.499908 0)"/>
    <use xlink:href="#NanumGothic-56" transform="translate(407.499893 0)"/>
    <use xlink:href="#NanumGothic-4c" transform="translate(474.099884 0)"/>
    <use xlink:href="#NanumGothic-4d" transform="translate(522.499878 0)"/>
    <use xlink:href="#NanumGothic-20" transform="translate(619.399872 0)"/>
    <use xlink:href="#NanumGothic-70" transform="translate(647.399857 0)"/>
    <use xlink:href="#NanumGothic-72" transform="translate(707.999847 0)"/>
    <use xlink:href="#NanumGothic-65" transform="translate(744.299835 0)"/>
    <use xlink:href="#NanumGothic-2d" transform="translate(798.79982 0)"/>
    <use xlink:href="#NanumGothic-74" transform="translate(835.099808 0)"/>
    <use xlink:href="#NanumGothic-72" transform="translate(871.399796 0)"/>
    <use xlink:href="#NanumGothic-61" transform="translate(907.699783 0)"/>
    <use xlink:href="#NanumGothic-69" transform="translate(962.199768 0)"/>
    <use xlink:href="#NanumGothic-6e" transform="translate(986.399765 0)"/>
    <use xlink:href="#NanumGothic-69" transform="translate(1046.999756 0)"/>
    <use xlink:href="#NanumGothic-6e" transform="translate(1071.199753 0)"/>
    <use xlink:href="#NanumGothic-67" transform="translate(1131.799744 0)"/>
    <use xlink:href="#NanumGothic-c774" transform="translate(1192.399734 0)"/>
    <use xlink:href="#NanumGothic-20" transform="translate(1286.399719 0)"/>
    <use xlink:href="#NanumGothic-acb0" transform="translate(1314.399704 0)"/>
    <use xlink:href="#NanumGothic-c815" transform="translate(1408.399689 0)"/>
    <use xlink:href="#NanumGothic-c801" transform="translate(1502.399673 0)"/>
    <use xlink:href="#NanumGothic-2c" transform="translate(1596.399658 0)"/>
    <use xlink:href="#NanumGothic-20" transform="translate(1626.699646 0)"/>
    <use xlink:href="#NanumGothic-20" transform="translate(1654.699631 0)"/>
    <use xlink:href="#NanumGothic-28" transform="translate(1682.699615 0)"/>
    <use xlink:href="#NanumGothic-32" transform="translate(1718.999603 0)"/>
    <use xlink:href="#NanumGothic-29" transform="translate(1779.599594 0)"/>
    <use xlink:href="#NanumGothic-20" transform="translate(1815.899582 0)"/>
    <use xlink:href="#NanumGothic-43" transform="translate(1843.899567 0)"/>
    <use xlink:href="#NanumGothic-6f" transform="translate(1911.099564 0)"/>
    <use xlink:href="#NanumGothic-2d" transform="translate(1971.699554 0)"/>
    <use xlink:href="#NanumGothic-66" transform="translate(2007.999542 0)"/>
    <use xlink:href="#NanumGothic-69" transform="translate(2044.29953 0)"/>
    <use xlink:href="#NanumGothic-6e" transform="translate(2068.499527 0)"/>
    <use xlink:href="#NanumGothic-65" transform="translate(2129.099518 0)"/>
    <use xlink:href="#NanumGothic-2d" transform="translate(2183.599503 0)"/>
    <use xlink:href="#NanumGothic-74" transform="translate(2219.89949 0)"/>
    <use xlink:href="#NanumGothic-75" transform="translate(2256.199478 0)"/>
    <use xlink:href="#NanumGothic-6e" transform="translate(2316.799469 0)"/>
    <use xlink:href="#NanumGothic-69" transform="translate(2377.39946 0)"/>
    <use xlink:href="#NanumGothic-6e" transform="translate(2401.599457 0)"/>
    <use xlink:href="#NanumGothic-67" transform="translate(2462.199448 0)"/>
    <use xlink:href="#NanumGothic-c774" transform="translate(2522.799438 0)"/>
    <use xlink:href="#NanumGothic-20" transform="translate(2616.799423 0)"/>
    <use xlink:href="#NanumGothic-46" transform="translate(2644.799408 0)"/>
    <use xlink:href="#NanumGothic-54" transform="translate(2695.099396 0)"/>
    <use xlink:href="#NanumGothic-bcf4" transform="translate(2749.59938 0)"/>
    <use xlink:href="#NanumGothic-b2e4" transform="translate(2843.599365 0)"/>
    <use xlink:href="#NanumGothic-20" transform="translate(2937.59935 0)"/>
    <use xlink:href="#NanumGothic-c6b0" transform="translate(2965.599335 0)"/>
    <use xlink:href="#NanumGothic-c218" transform="translate(3059.599319 0)"/>
    <use xlink:href="#NanumGothic-2c" transform="translate(3153.599304 0)"/>
    <use xlink:href="#NanumGothic-20" transform="translate(3183.899292 0)"/>
    <use xlink:href="#NanumGothic-20" transform="translate(3211.899277 0)"/>
    <use xlink:href="#NanumGothic-28" transform="translate(3239.899261 0)"/>
    <use xlink:href="#NanumGothic-33" transform="translate(3276.199249 0)"/>
    <use xlink:href="#NanumGothic-29" transform="translate(3336.79924 0)"/>
    <use xlink:href="#NanumGothic-20" transform="translate(3373.099228 0)"/>
    <use xlink:href="#NanumGothic-baa8" transform="translate(3401.099213 0)"/>
    <use xlink:href="#NanumGothic-b378" transform="translate(3495.099197 0)"/>
    <use xlink:href="#NanumGothic-20" transform="translate(3589.099182 0)"/>
    <use xlink:href="#NanumGothic-d074" transform="translate(3617.099167 0)"/>
    <use xlink:href="#NanumGothic-c218" transform="translate(3711.099152 0)"/>
    <use xlink:href="#NanumGothic-b85d" transform="translate(3805.099136 0)"/>
    <use xlink:href="#NanumGothic-20" transform="translate(3899.099121 0)"/>
    <use xlink:href="#NanumGothic-cc28" transform="translate(3927.099106 0)"/>
    <use xlink:href="#NanumGothic-c774" transform="translate(4021.099091 0)"/>
    <use xlink:href="#NanumGothic-20" transform="translate(4115.099075 0)"/>
    <use xlink:href="#NanumGothic-c99d" transform="translate(4143.09906 0)"/>
    <use xlink:href="#NanumGothic-d3ed" transform="translate(4237.099045 0)"/>
   </g>
  </g>
 </g>
 <defs>
  <clipPath id="pd309d01deb">
   <rect x="41.086719" y="35.28" width="689.04" height="369.72"/>
  </clipPath>
 </defs>
 <defs>
  <pattern id="h15d6af2339" patternUnits="userSpaceOnUse" x="0" y="0" width="72" height="72">
   <rect x="0" y="0" width="73" height="73" fill="#e8c5c5"/>
   <path d="M -36 36 
L 36 -36 
M -32 40 
L 40 -32 
M -28 44 
L 44 -28 
M -24 48 
L 48 -24 
M -20 52 
L 52 -20 
M -16 56 
L 56 -16 
M -12 60 
L 60 -12 
M -8 64 
L 64 -8 
M -4 68 
L 68 -4 
M 0 72 
L 72 0 
M 4 76 
L 76 4 
M 8 80 
L 80 8 
M 12 84 
L 84 12 
M 16 88 
L 88 16 
M 20 92 
L 92 20 
M 24 96 
L 96 24 
M 28 100 
L 100 28 
M 32 104 
L 104 32 
M 36 108 
L 108 36 
" style="fill: #8b3a3a; stroke: #8b3a3a; stroke-width: 1.0; stroke-linecap: butt; stroke-linejoin: miter; stroke-opacity: 0.7"/>
  </pattern>
  <pattern id="h5ba8c9bf72" patternUnits="userSpaceOnUse" x="0" y="0" width="72" height="72">
   <rect x="0" y="0" width="73" height="73" fill="#f0d4c4"/>
   <path d="M -36 36 
L 36 -36 
M -32 40 
L 40 -32 
M -28 44 
L 44 -28 
M -24 48 
L 48 -24 
M -20 52 
L 52 -20 
M -16 56 
L 56 -16 
M -12 60 
L 60 -12 
M -8 64 
L 64 -8 
M -4 68 
L 68 -4 
M 0 72 
L 72 0 
M 4 76 
L 76 4 
M 8 80 
L 80 8 
M 12 84 
L 84 12 
M 16 88 
L 88 16 
M 20 92 
L 92 20 
M 24 96 
L 96 24 
M 28 100 
L 100 28 
M 32 104 
L 104 32 
M 36 108 
L 108 36 
" style="fill: #c8694f; stroke: #c8694f; stroke-width: 1.0; stroke-linecap: butt; stroke-linejoin: miter; stroke-opacity: 0.7"/>
  </pattern>
  <pattern id="h3cc43821e5" patternUnits="userSpaceOnUse" x="0" y="0" width="72" height="72">
   <rect x="0" y="0" width="73" height="73" fill="#d8eee0"/>
   <path d="M -36 36 
L 36 -36 
M -32 40 
L 40 -32 
M -28 44 
L 44 -28 
M -24 48 
L 48 -24 
M -20 52 
L 52 -20 
M -16 56 
L 56 -16 
M -12 60 
L 60 -12 
M -8 64 
L 64 -8 
M -4 68 
L 68 -4 
M 0 72 
L 72 0 
M 4 76 
L 76 4 
M 8 80 
L 80 8 
M 12 84 
L 84 12 
M 16 88 
L 88 16 
M 20 92 
L 92 20 
M 24 96 
L 96 24 
M 28 100 
L 100 28 
M 32 104 
L 104 32 
M 36 108 
L 108 36 
" style="fill: #3da084; stroke: #3da084; stroke-width: 1.0; stroke-linecap: butt; stroke-linejoin: miter; stroke-opacity: 0.7"/>
  </pattern>
 </defs>
</svg>
