<?xml version="1.0" encoding="utf-8" standalone="no"?>
<!DOCTYPE svg PUBLIC "-//W3C//DTD SVG 1.1//EN"
  "http://www.w3.org/Graphics/SVG/1.1/DTD/svg11.dtd">
<svg xmlns:xlink="http://www.w3.org/1999/xlink" width="912.96pt" height="516.6pt" viewBox="0 0 912.96 516.6" xmlns="http://www.w3.org/2000/svg" version="1.1">
 <metadata>
  <rdf:RDF xmlns:dc="http://purl.org/dc/elements/1.1/" xmlns:cc="http://creativecommons.org/ns#" xmlns:rdf="http://www.w3.org/1999/02/22-rdf-syntax-ns#">
   <cc:Work>
    <dc:type rdf:resource="http://purl.org/dc/dcmitype/StillImage"/>
    <dc:date>2026-05-29T09:08:01.081267</dc:date>
    <dc:format>image/svg+xml</dc:format>
    <dc:creator>
     <cc:Agent>
      <dc:title>Matplotlib v3.10.9, https://matplotlib.org/</dc:title>
     </cc:Agent>
    </dc:creator>
   </cc:Work>
  </rdf:RDF>
 </metadata>
 <defs>
  <style type="text/css">*{stroke-linejoin: round; stroke-linecap: butt}</style>
 </defs>
 <g id="figure_1">
  <g id="patch_1">
   <path d="M 0 516.6 
L 912.96 516.6 
L 912.96 0 
L 0 0 
z
" style="fill: #ffffff"/>
  </g>
  <g id="axes_1">
   <g id="patch_2">
    <path d="M 7.2 509.4 
L 905.76 509.4 
L 905.76 34.2 
L 7.2 34.2 
z
" style="fill: #ffffff"/>
   </g>
   <g id="patch_3">
    <path d="M 29.664 380.04 
L 151.611429 380.04 
Q 158.029714 380.04 158.029714 374.76 
L 158.029714 168.84 
Q 158.029714 163.56 151.611429 163.56 
L 29.664 163.56 
Q 23.245714 163.56 23.245714 168.84 
L 23.245714 374.76 
Q 23.245714 380.04 29.664 380.04 
z
" clip-path="url(#p73ee1f523f)" style="fill: #a8a3d4; opacity: 0.5; stroke: #5b56b5; stroke-width: 1.8; stroke-linejoin: miter"/>
   </g>
   <g id="patch_4">
    <path d="M 264.573257 496.2 
L 712.5696 496.2 
Q 716.420571 496.2 716.420571 493.032 
L 716.420571 446.568 
Q 716.420571 443.4 712.5696 443.4 
L 264.573257 443.4 
Q 260.722286 443.4 260.722286 446.568 
L 260.722286 493.032 
Q 260.722286 496.2 264.573257 496.2 
z
" clip-path="url(#p73ee1f523f)" style="fill: #d8eee0; opacity: 0.6; stroke: #3da084; stroke-width: 1.6; stroke-linejoin: miter"/>
   </g>
   <g id="patch_5">
    <path d="M 265.215086 427.032 
L 711.927771 427.032 
Q 715.778743 427.032 715.778743 423.864 
L 715.778743 352.056 
Q 715.778743 348.888 711.927771 348.888 
L 265.215086 348.888 
Q 261.364114 348.888 261.364114 352.056 
L 261.364114 423.864 
Q 261.364114 427.032 265.215086 427.032 
z
" clip-path="url(#p73ee1f523f)" style="fill: #a8a3d4; opacity: 0.5; stroke: #5b56b5; stroke-width: 1.5; stroke-linejoin: miter"/>
   </g>
   <g id="patch_6">
    <path d="M 727.973486 410.136 
L 801.141943 410.136 
Q 804.351086 410.136 804.351086 407.496 
L 804.351086 368.424 
Q 804.351086 365.784 801.141943 365.784 
L 727.973486 365.784 
Q 724.764343 365.784 724.764343 368.424 
L 724.764343 407.496 
Q 724.764343 410.136 727.973486 410.136 
z
" clip-path="url(#p73ee1f523f)" style="fill: #fff4e0; stroke: #c8694f; stroke-linejoin: miter"/>
   </g>
   <g id="patch_7">
    <path d="M 156.818941 387.96 
Q 210.978148 387.96 263.460305 387.96 
" clip-path="url(#p73ee1f523f)" style="fill: none; stroke: #5b56b5; stroke-width: 1.5; stroke-linecap: round"/>
    <path d="M 257.460305 384.96 
L 263.460305 387.96 
L 257.460305 390.96 
" clip-path="url(#p73ee1f523f)" style="fill: none; stroke: #5b56b5; stroke-width: 1.5; stroke-linecap: round"/>
   </g>
   <g id="patch_8">
    <path d="M 265.215086 343.608 
L 711.927771 343.608 
Q 715.778743 343.608 715.778743 340.44 
L 715.778743 268.632 
Q 715.778743 265.464 711.927771 265.464 
L 265.215086 265.464 
Q 261.364114 265.464 261.364114 268.632 
L 261.364114 340.44 
Q 261.364114 343.608 265.215086 343.608 
z
" clip-path="url(#p73ee1f523f)" style="fill: #f0d4c4; opacity: 0.5; stroke: #c8694f; stroke-width: 1.5; stroke-linejoin: miter"/>
   </g>
   <g id="patch_9">
    <path d="M 727.973486 326.712 
L 801.141943 326.712 
Q 804.351086 326.712 804.351086 324.072 
L 804.351086 285 
Q 804.351086 282.36 801.141943 282.36 
L 727.973486 282.36 
Q 724.764343 282.36 724.764343 285 
L 724.764343 324.072 
Q 724.764343 326.712 727.973486 326.712 
z
" clip-path="url(#p73ee1f523f)" style="fill: #fff4e0; stroke: #c8694f; stroke-linejoin: miter"/>
   </g>
   <g id="patch_10">
    <path d="M 265.215086 260.184 
L 711.927771 260.184 
Q 715.778743 260.184 715.778743 257.016 
L 715.778743 185.208 
Q 715.778743 182.04 711.927771 182.04 
L 265.215086 182.04 
Q 261.364114 182.04 261.364114 185.208 
L 261.364114 257.016 
Q 261.364114 260.184 265.215086 260.184 
z
" clip-path="url(#p73ee1f523f)" style="fill: #a8a3d4; opacity: 0.5; stroke: #5b56b5; stroke-width: 1.5; stroke-linejoin: miter"/>
   </g>
   <g id="patch_11">
    <path d="M 727.973486 243.288 
L 801.141943 243.288 
Q 804.351086 243.288 804.351086 240.648 
L 804.351086 201.576 
Q 804.351086 198.936 801.141943 198.936 
L 727.973486 198.936 
Q 724.764343 198.936 724.764343 201.576 
L 724.764343 240.648 
Q 724.764343 243.288 727.973486 243.288 
z
" clip-path="url(#p73ee1f523f)" style="fill: #fff4e0; stroke: #c8694f; stroke-linejoin: miter"/>
   </g>
   <g id="patch_12">
    <path d="M 156.818941 221.112 
Q 210.978148 221.112 263.460305 221.112 
" clip-path="url(#p73ee1f523f)" style="fill: none; stroke: #5b56b5; stroke-width: 1.5; stroke-linecap: round"/>
    <path d="M 257.460305 218.112 
L 263.460305 221.112 
L 257.460305 224.112 
" clip-path="url(#p73ee1f523f)" style="fill: none; stroke: #5b56b5; stroke-width: 1.5; stroke-linecap: round"/>
   </g>
   <g id="patch_13">
    <path d="M 265.215086 176.76 
L 711.927771 176.76 
Q 715.778743 176.76 715.778743 173.592 
L 715.778743 101.784 
Q 715.778743 98.616 711.927771 98.616 
L 265.215086 98.616 
Q 261.364114 98.616 261.364114 101.784 
L 261.364114 173.592 
Q 261.364114 176.76 265.215086 176.76 
z
" clip-path="url(#p73ee1f523f)" style="fill: #f0d4c4; opacity: 0.5; stroke: #c8694f; stroke-width: 1.5; stroke-linejoin: miter"/>
   </g>
   <g id="patch_14">
    <path d="M 727.973486 159.864 
L 801.141943 159.864 
Q 804.351086 159.864 804.351086 157.224 
L 804.351086 118.152 
Q 804.351086 115.512 801.141943 115.512 
L 727.973486 115.512 
Q 724.764343 115.512 724.764343 118.152 
L 724.764343 157.224 
Q 724.764343 159.864 727.973486 159.864 
z
" clip-path="url(#p73ee1f523f)" style="fill: #fff4e0; stroke: #c8694f; stroke-linejoin: miter"/>
   </g>
   <g id="patch_15">
    <path d="M 488.571429 441.400664 
Q 488.571429 435.478847 488.571429 431.122277 
" clip-path="url(#p73ee1f523f)" style="fill: none; stroke: #7a7a7a; stroke-width: 1.4; stroke-linecap: round"/>
    <path d="M 485.571429 437.122277 
L 488.571429 431.122277 
L 491.571429 437.122277 
" clip-path="url(#p73ee1f523f)" style="fill: none; stroke: #7a7a7a; stroke-width: 1.4; stroke-linecap: round"/>
   </g>
   <g id="patch_16">
    <path d="M 488.571429 92.389119 
Q 488.571429 79.86894 488.571429 68.914007 
" clip-path="url(#p73ee1f523f)" style="fill: none; stroke: #7a7a7a; stroke-width: 1.4; stroke-linecap: round"/>
    <path d="M 485.571429 74.914007 
L 488.571429 68.914007 
L 491.571429 74.914007 
" clip-path="url(#p73ee1f523f)" style="fill: none; stroke: #7a7a7a; stroke-width: 1.4; stroke-linecap: round"/>
   </g>
   <g id="patch_17">
    <path d="M 265.215086 64.824 
L 711.927771 64.824 
Q 715.778743 64.824 715.778743 61.656 
L 715.778743 26.808 
Q 715.778743 23.64 711.927771 23.64 
L 265.215086 23.64 
Q 261.364114 23.64 261.364114 26.808 
L 261.364114 61.656 
Q 261.364114 64.824 265.215086 64.824 
z
" clip-path="url(#p73ee1f523f)" style="fill: #d8eee0; opacity: 0.7; stroke: #3da084; stroke-width: 1.6; stroke-linejoin: miter"/>
   </g>
   <g id="patch_18">
    <path d="M 779.319771 300.84 
L 884.579657 300.84 
Q 889.714286 300.84 889.714286 296.616 
L 889.714286 220.584 
Q 889.714286 216.36 884.579657 216.36 
L 779.319771 216.36 
Q 774.185143 216.36 774.185143 220.584 
L 774.185143 296.616 
Q 774.185143 300.84 779.319771 300.84 
z
" clip-path="url(#p73ee1f523f)" style="fill: #fff4e0; stroke: #c8694f; stroke-width: 1.5; stroke-linejoin: miter"/>
   </g>
   <g id="matplotlib.axis_1"/>
   <g id="matplotlib.axis_2"/>
   <g id="text_1">
    <!-- VLM features -->
    <g style="fill: #5b56b5" transform="translate(53.719902 187.32) scale(0.12 -0.12)">
     <defs>
      <path id="NanumGothic-56" d="M 3706 4371 
Q 3718 4410 3750 4435 
Q 3782 4461 3821 4461 
L 4109 4461 
Q 4147 4461 4166 4432 
Q 4186 4403 4173 4371 
L 2426 -192 
Q 2406 -243 2384 -259 
Q 2362 -275 2310 -275 
L 1958 -275 
Q 1907 -275 1884 -259 
Q 1862 -243 1843 -192 
L 134 4371 
Q 122 4403 141 4432 
Q 160 4461 198 4461 
L 518 4461 
Q 595 4461 634 4371 
L 2138 192 
Q 2522 1222 2912 2262 
Q 3302 3302 3706 4371 
z
" transform="scale(0.015625)"/>
      <path id="NanumGothic-4c" d="M 2912 128 
Q 3002 128 3002 38 
L 3002 -186 
Q 3002 -275 2912 -275 
L 838 -275 
Q 749 -275 701 -272 
Q 653 -269 630 -246 
Q 608 -224 605 -173 
Q 602 -122 602 -32 
L 602 4371 
Q 602 4461 691 4461 
L 986 4461 
Q 1075 4461 1075 4371 
L 1075 128 
L 2912 128 
z
" transform="scale(0.015625)"/>
      <path id="NanumGothic-4d" d="M 5523 -186 
Q 5523 -275 5434 -275 
L 5146 -275 
Q 5056 -275 5056 -186 
L 5056 4058 
Q 4582 2880 4205 1952 
Q 4045 1555 3891 1174 
Q 3738 794 3616 496 
Q 3494 198 3417 12 
Q 3341 -173 3341 -179 
Q 3309 -243 3245 -243 
L 2957 -243 
Q 2912 -243 2893 -227 
Q 2874 -211 2861 -179 
L 1094 4058 
L 1094 -186 
Q 1094 -275 1005 -275 
L 717 -275 
Q 627 -275 627 -186 
L 627 4294 
Q 627 4429 649 4451 
Q 672 4474 806 4474 
L 1286 4474 
Q 1338 4474 1360 4461 
Q 1382 4448 1402 4397 
L 3104 256 
L 4755 4403 
Q 4781 4474 4858 4474 
L 5344 4474 
Q 5478 4474 5500 4451 
Q 5523 4429 5523 4294 
L 5523 -186 
z
" transform="scale(0.015625)"/>
      <path id="NanumGothic-20" transform="scale(0.015625)"/>
      <path id="NanumGothic-66" d="M 2144 4870 
Q 2227 4845 2221 4736 
L 2208 4550 
Q 2202 4512 2176 4502 
Q 2150 4493 2118 4506 
Q 2048 4531 1990 4540 
Q 1933 4550 1856 4550 
Q 1478 4550 1370 4173 
Q 1325 4019 1325 3494 
L 1325 3187 
L 2029 3187 
Q 2118 3187 2118 3098 
L 2118 2906 
Q 2118 2816 2029 2816 
L 1325 2816 
L 1325 -186 
Q 1325 -275 1235 -275 
L 986 -275 
Q 896 -275 896 -186 
L 896 2816 
L 275 2816 
Q 186 2816 186 2906 
L 186 3098 
Q 186 3187 275 3187 
L 896 3187 
L 896 3450 
Q 896 4147 1024 4454 
Q 1222 4915 1818 4915 
Q 2003 4915 2144 4870 
z
" transform="scale(0.015625)"/>
      <path id="NanumGothic-65" d="M 2733 1696 
Q 2733 1958 2681 2163 
Q 2630 2368 2522 2534 
Q 2285 2912 1837 2912 
Q 1376 2912 1088 2528 
Q 973 2355 896 2131 
Q 819 1907 813 1696 
L 2733 1696 
z
M 813 1331 
Q 806 1011 886 764 
Q 966 518 1120 352 
Q 1274 186 1488 96 
Q 1702 6 1965 6 
Q 2221 6 2445 54 
Q 2669 102 2861 211 
Q 2944 250 2944 166 
L 2944 -122 
Q 2944 -179 2874 -211 
Q 2662 -294 2432 -336 
Q 2202 -378 1933 -378 
Q 1146 -378 742 80 
Q 339 538 339 1459 
Q 339 2272 742 2771 
Q 1165 3277 1811 3277 
Q 2170 3277 2432 3149 
Q 2694 3021 2880 2765 
Q 3206 2310 3206 1549 
Q 3206 1466 3203 1421 
Q 3200 1376 3181 1357 
Q 3162 1338 3114 1334 
Q 3066 1331 2976 1331 
L 813 1331 
z
" transform="scale(0.015625)"/>
      <path id="NanumGothic-61" d="M 2566 1530 
L 2445 1530 
Q 2086 1542 1808 1500 
Q 1530 1459 1344 1389 
Q 1075 1293 940 1104 
Q 806 915 806 653 
Q 806 493 857 355 
Q 909 218 1018 141 
Q 1210 -13 1530 -13 
Q 1754 -13 1942 76 
Q 2131 166 2272 332 
Q 2413 499 2489 745 
Q 2566 992 2566 1312 
L 2566 1530 
z
M 742 2650 
Q 710 2630 681 2640 
Q 653 2650 653 2682 
L 653 2925 
Q 653 3014 742 3059 
Q 966 3181 1219 3229 
Q 1472 3277 1773 3277 
Q 2413 3277 2707 2973 
Q 3002 2669 3002 2054 
L 3002 448 
Q 3002 256 3008 105 
Q 3014 -45 3027 -186 
Q 3027 -275 2938 -275 
L 2707 -275 
Q 2618 -275 2618 -186 
L 2618 307 
Q 2483 -19 2166 -198 
Q 1850 -378 1478 -378 
Q 832 -378 531 0 
Q 429 128 377 297 
Q 326 467 326 634 
Q 326 1024 508 1305 
Q 691 1587 1069 1728 
Q 1530 1894 2483 1894 
L 2566 1894 
L 2566 2086 
Q 2566 2490 2384 2701 
Q 2202 2912 1773 2912 
Q 1485 2912 1229 2851 
Q 973 2790 742 2650 
z
" transform="scale(0.015625)"/>
      <path id="NanumGothic-74" d="M 2208 -282 
Q 1939 -378 1677 -378 
Q 1158 -378 992 -38 
Q 883 192 883 774 
L 883 2816 
L 282 2816 
Q 192 2816 192 2906 
L 192 3098 
Q 192 3187 282 3187 
L 883 3187 
L 883 4051 
Q 883 4147 966 4147 
L 1235 4147 
Q 1318 4147 1318 4051 
L 1318 3187 
L 2029 3187 
Q 2118 3187 2118 3098 
L 2118 2906 
Q 2118 2816 2029 2816 
L 1318 2816 
L 1318 557 
Q 1318 -13 1779 -13 
Q 1958 -13 2182 64 
Q 2214 77 2243 64 
Q 2272 51 2272 13 
L 2285 -154 
Q 2298 -243 2208 -282 
z
" transform="scale(0.015625)"/>
      <path id="NanumGothic-75" d="M 3347 -186 
Q 3347 -275 3258 -275 
L 3027 -275 
Q 2938 -275 2938 -186 
L 2938 346 
Q 2771 -38 2492 -208 
Q 2214 -378 1792 -378 
Q 595 -378 595 960 
L 595 3098 
Q 595 3187 685 3187 
L 941 3187 
Q 1030 3187 1030 3098 
L 1030 1075 
Q 1030 -13 1862 -13 
Q 2106 -13 2301 92 
Q 2496 198 2630 380 
Q 2765 563 2835 806 
Q 2906 1050 2899 1318 
L 2899 3098 
Q 2899 3187 2989 3187 
L 3245 3187 
Q 3334 3187 3334 3098 
L 3334 525 
Q 3334 314 3337 147 
Q 3341 -19 3347 -186 
z
" transform="scale(0.015625)"/>
      <path id="NanumGothic-72" d="M 2221 2797 
Q 2106 2835 1914 2835 
Q 1440 2835 1210 2368 
Q 1030 2003 1030 1434 
L 1030 -186 
Q 1030 -275 941 -275 
L 691 -275 
Q 602 -275 602 -186 
L 602 2413 
Q 602 2643 598 2787 
Q 595 2931 589 3098 
Q 589 3187 678 3187 
L 915 3187 
Q 1005 3187 1005 3098 
L 1005 2470 
Q 1318 3277 1926 3277 
Q 2074 3277 2221 3238 
Q 2259 3226 2288 3197 
Q 2317 3168 2317 3117 
L 2317 2848 
Q 2317 2810 2285 2797 
Q 2253 2784 2221 2797 
z
" transform="scale(0.015625)"/>
      <path id="NanumGothic-73" d="M 422 147 
Q 813 -13 1229 -13 
Q 1574 -13 1798 156 
Q 2022 326 2022 614 
Q 2022 781 1897 937 
Q 1773 1094 1594 1197 
Q 1395 1306 1187 1405 
Q 979 1504 787 1613 
Q 557 1741 448 1929 
Q 339 2118 339 2323 
Q 339 2560 428 2739 
Q 518 2918 672 3040 
Q 826 3162 1030 3219 
Q 1235 3277 1466 3277 
Q 1709 3277 1888 3251 
Q 2067 3226 2246 3174 
Q 2285 3162 2313 3136 
Q 2342 3110 2336 3066 
L 2317 2874 
Q 2310 2822 2278 2809 
Q 2246 2797 2214 2810 
Q 2054 2867 1894 2889 
Q 1734 2912 1510 2912 
Q 768 2912 768 2323 
Q 768 2195 867 2080 
Q 966 1965 1203 1850 
Q 1408 1747 1606 1654 
Q 1805 1562 2035 1434 
Q 2234 1325 2365 1101 
Q 2496 877 2496 614 
Q 2496 358 2393 172 
Q 2291 -13 2118 -134 
Q 1946 -256 1722 -317 
Q 1498 -378 1261 -378 
Q 1120 -378 1008 -371 
Q 896 -365 797 -352 
Q 698 -339 595 -320 
Q 493 -301 378 -269 
Q 288 -237 294 -154 
L 320 83 
Q 333 186 422 147 
z
" transform="scale(0.015625)"/>
     </defs>
     <use xlink:href="#NanumGothic-56"/>
     <use xlink:href="#NanumGothic-4c" transform="translate(66.599991 0)"/>
     <use xlink:href="#NanumGothic-4d" transform="translate(114.999985 0)"/>
     <use xlink:href="#NanumGothic-20" transform="translate(211.899979 0)"/>
     <use xlink:href="#NanumGothic-66" transform="translate(239.899963 0)"/>
     <use xlink:href="#NanumGothic-65" transform="translate(276.199951 0)"/>
     <use xlink:href="#NanumGothic-61" transform="translate(330.699936 0)"/>
     <use xlink:href="#NanumGothic-74" transform="translate(385.199921 0)"/>
     <use xlink:href="#NanumGothic-75" transform="translate(421.499908 0)"/>
     <use xlink:href="#NanumGothic-72" transform="translate(482.099899 0)"/>
     <use xlink:href="#NanumGothic-65" transform="translate(518.399887 0)"/>
     <use xlink:href="#NanumGothic-73" transform="translate(572.899872 0)"/>
    </g>
   </g>
   <g id="text_2">
    <!-- (SmolLM-2 layer 8 -->
    <g style="fill: #333333" transform="translate(52.788496 203.512594) scale(0.09 -0.09)">
     <defs>
      <path id="NanumGothic-28" d="M 1984 -1133 
Q 1939 -1133 1929 -1129 
Q 1920 -1126 1894 -1094 
Q 1312 -365 1030 384 
Q 749 1133 749 1933 
Q 749 2726 1030 3475 
Q 1312 4224 1894 4960 
Q 1920 4992 1929 4995 
Q 1939 4998 1971 4998 
L 2150 4998 
Q 2189 4998 2189 4992 
Q 2189 4986 2170 4954 
Q 1165 3379 1165 1933 
Q 1165 1197 1421 448 
Q 1677 -301 2176 -1088 
Q 2208 -1133 2144 -1133 
L 1984 -1133 
z
" transform="scale(0.015625)"/>
      <path id="NanumGothic-53" d="M 550 -211 
Q 448 -179 467 -96 
L 493 198 
Q 506 250 534 269 
Q 563 288 602 262 
Q 826 141 1053 86 
Q 1280 32 1574 32 
Q 2042 32 2339 288 
Q 2637 544 2637 1011 
Q 2637 1197 2493 1382 
Q 2349 1568 2093 1734 
Q 1869 1875 1587 2028 
Q 1306 2182 1050 2364 
Q 794 2547 621 2774 
Q 448 3002 448 3302 
Q 448 3610 576 3843 
Q 704 4077 918 4233 
Q 1133 4390 1408 4473 
Q 1683 4557 1971 4557 
Q 2221 4557 2413 4528 
Q 2605 4499 2829 4429 
Q 2925 4397 2906 4314 
L 2854 4064 
Q 2835 3955 2746 4006 
Q 2566 4090 2396 4118 
Q 2227 4147 1965 4147 
Q 1754 4147 1565 4096 
Q 1376 4045 1238 3942 
Q 1101 3840 1017 3686 
Q 934 3533 934 3322 
Q 934 3155 1046 3008 
Q 1158 2861 1321 2733 
Q 1485 2605 1673 2499 
Q 1862 2394 2016 2304 
Q 2227 2182 2425 2054 
Q 2624 1926 2777 1766 
Q 2931 1606 3027 1414 
Q 3123 1222 3123 973 
Q 3123 653 2992 403 
Q 2861 154 2643 -19 
Q 2426 -192 2141 -285 
Q 1856 -378 1549 -378 
Q 1267 -378 1046 -339 
Q 826 -301 550 -211 
z
" transform="scale(0.015625)"/>
      <path id="NanumGothic-6d" d="M 602 2374 
Q 602 2643 595 2800 
Q 589 2957 576 3098 
Q 576 3187 666 3187 
L 902 3187 
Q 992 3187 992 3098 
L 992 2752 
Q 1139 2989 1388 3126 
Q 1638 3264 2003 3264 
Q 2387 3264 2675 3075 
Q 2963 2886 3027 2522 
Q 3162 2886 3459 3075 
Q 3757 3264 4147 3264 
Q 4397 3264 4598 3174 
Q 4800 3085 4944 2928 
Q 5088 2771 5165 2560 
Q 5242 2349 5242 2112 
L 5242 -186 
Q 5242 -275 5152 -275 
L 4909 -275 
Q 4819 -275 4819 -192 
L 4819 2022 
Q 4819 2899 4083 2899 
Q 3859 2899 3683 2800 
Q 3507 2701 3382 2528 
Q 3258 2355 3197 2124 
Q 3136 1894 3142 1638 
L 3142 -186 
Q 3142 -275 3053 -275 
L 2797 -275 
Q 2707 -275 2707 -186 
L 2707 2022 
Q 2707 2899 1965 2899 
Q 1530 2899 1280 2617 
Q 1030 2336 1030 1875 
L 1030 -186 
Q 1030 -275 941 -275 
L 691 -275 
Q 602 -275 602 -186 
L 602 2374 
z
" transform="scale(0.015625)"/>
      <path id="NanumGothic-6f" d="M 3130 1453 
Q 3130 1754 3050 2016 
Q 2970 2278 2829 2483 
Q 2496 2893 1965 2893 
Q 1696 2893 1481 2787 
Q 1267 2682 1101 2483 
Q 954 2278 874 2016 
Q 794 1754 794 1453 
Q 794 1146 874 883 
Q 954 621 1101 422 
Q 1440 6 1965 6 
Q 2234 6 2448 115 
Q 2662 224 2829 422 
Q 2970 621 3050 883 
Q 3130 1146 3130 1453 
z
M 3603 1453 
Q 3603 1075 3494 752 
Q 3386 429 3206 186 
Q 2982 -83 2672 -230 
Q 2362 -378 1965 -378 
Q 1568 -378 1254 -230 
Q 941 -83 717 186 
Q 538 429 432 752 
Q 326 1075 326 1453 
Q 326 2227 717 2720 
Q 1165 3277 1965 3277 
Q 2368 3277 2675 3139 
Q 2982 3002 3206 2720 
Q 3603 2214 3603 1453 
z
" transform="scale(0.015625)"/>
      <path id="NanumGothic-6c" d="M 1056 -186 
Q 1056 -275 966 -275 
L 685 -275 
Q 595 -275 595 -186 
L 595 4723 
Q 595 4813 685 4813 
L 966 4813 
Q 1056 4813 1056 4723 
L 1056 -186 
z
" transform="scale(0.015625)"/>
      <path id="NanumGothic-2d" d="M 1946 2419 
Q 2016 2419 2025 2409 
Q 2035 2400 2035 2330 
L 2035 2048 
Q 2035 1978 2025 1968 
Q 2016 1958 1946 1958 
L 448 1958 
Q 378 1958 368 1968 
Q 358 1978 358 2048 
L 358 2330 
Q 358 2400 368 2409 
Q 378 2419 448 2419 
L 1946 2419 
z
" transform="scale(0.015625)"/>
      <path id="NanumGothic-32" d="M 576 -301 
Q 506 -301 470 -297 
Q 435 -294 419 -278 
Q 403 -262 400 -227 
Q 397 -192 397 -122 
L 403 19 
Q 403 102 454 154 
L 1510 1318 
Q 2688 2592 2688 3251 
Q 2688 3635 2432 3891 
Q 2182 4141 1811 4141 
Q 1293 4141 730 3853 
Q 640 3808 627 3891 
L 589 4102 
Q 570 4211 653 4237 
Q 979 4384 1241 4454 
Q 1504 4525 1779 4525 
Q 2394 4525 2758 4218 
Q 3168 3885 3168 3270 
Q 3168 3034 3053 2752 
Q 2938 2470 2733 2163 
Q 2605 1984 2371 1696 
Q 2138 1408 1837 1082 
Q 1613 838 1392 588 
Q 1171 339 947 96 
L 3187 96 
Q 3277 96 3277 6 
L 3277 -211 
Q 3277 -301 3187 -301 
L 576 -301 
z
" transform="scale(0.015625)"/>
      <path id="NanumGothic-79" d="M 301 -1222 
Q 224 -1203 237 -1126 
L 256 -909 
Q 256 -832 333 -864 
Q 435 -902 570 -902 
Q 704 -902 816 -860 
Q 928 -819 986 -749 
Q 1056 -659 1142 -454 
Q 1229 -250 1312 13 
Q 1024 794 742 1555 
Q 461 2317 173 3098 
Q 160 3130 173 3158 
Q 186 3187 224 3187 
L 525 3187 
Q 614 3187 653 3098 
L 1517 614 
Q 1754 1267 1968 1859 
Q 2182 2451 2419 3098 
Q 2451 3187 2547 3187 
L 2822 3187 
Q 2861 3187 2873 3158 
Q 2886 3130 2874 3098 
L 1542 -474 
Q 1472 -659 1385 -806 
Q 1299 -954 1210 -1043 
Q 1094 -1152 953 -1206 
Q 813 -1261 659 -1261 
Q 563 -1261 486 -1254 
Q 410 -1248 301 -1222 
z
" transform="scale(0.015625)"/>
      <path id="NanumGothic-38" d="M 2944 3360 
Q 2944 3725 2624 3936 
Q 2342 4134 1965 4134 
Q 1555 4134 1274 3930 
Q 966 3725 966 3360 
Q 966 3027 1286 2758 
Q 1376 2675 1526 2579 
Q 1677 2483 1882 2387 
Q 1933 2362 1965 2365 
Q 1997 2368 2061 2400 
Q 2470 2624 2707 2870 
Q 2944 3117 2944 3360 
z
M 3104 960 
Q 3104 1312 2784 1574 
Q 2682 1658 2496 1760 
Q 2310 1862 2042 1984 
Q 1958 2029 1856 1984 
Q 1606 1888 1414 1782 
Q 1222 1677 1107 1587 
Q 979 1459 899 1289 
Q 819 1120 819 928 
Q 819 538 1184 288 
Q 1517 38 1965 38 
Q 2426 38 2739 256 
Q 3104 506 3104 960 
z
M 3552 928 
Q 3552 614 3421 364 
Q 3290 115 3046 -51 
Q 2835 -192 2560 -269 
Q 2285 -346 1965 -346 
Q 1651 -346 1379 -262 
Q 1107 -179 883 -32 
Q 640 141 505 387 
Q 371 634 371 928 
Q 371 1427 704 1741 
Q 960 1984 1491 2182 
Q 518 2662 518 3411 
Q 518 3680 652 3888 
Q 787 4096 1030 4262 
Q 1235 4390 1468 4457 
Q 1702 4525 1965 4525 
Q 2272 4525 2515 4457 
Q 2758 4390 2957 4256 
Q 3398 3949 3398 3411 
Q 3398 2746 2400 2182 
Q 2662 2086 2870 1971 
Q 3078 1856 3206 1741 
Q 3552 1434 3552 928 
z
" transform="scale(0.015625)"/>
     </defs>
     <use xlink:href="#NanumGothic-28"/>
     <use xlink:href="#NanumGothic-53" transform="translate(36.299988 0)"/>
     <use xlink:href="#NanumGothic-6d" transform="translate(90.799973 0)"/>
     <use xlink:href="#NanumGothic-6f" transform="translate(181.59996 0)"/>
     <use xlink:href="#NanumGothic-6c" transform="translate(242.199951 0)"/>
     <use xlink:href="#NanumGothic-4c" transform="translate(266.399948 0)"/>
     <use xlink:href="#NanumGothic-4d" transform="translate(314.799942 0)"/>
     <use xlink:href="#NanumGothic-2d" transform="translate(411.699936 0)"/>
     <use xlink:href="#NanumGothic-32" transform="translate(447.999924 0)"/>
     <use xlink:href="#NanumGothic-20" transform="translate(508.599915 0)"/>
     <use xlink:href="#NanumGothic-6c" transform="translate(536.599899 0)"/>
     <use xlink:href="#NanumGothic-61" transform="translate(560.799896 0)"/>
     <use xlink:href="#NanumGothic-79" transform="translate(615.299881 0)"/>
     <use xlink:href="#NanumGothic-65" transform="translate(661.699875 0)"/>
     <use xlink:href="#NanumGothic-72" transform="translate(716.19986 0)"/>
     <use xlink:href="#NanumGothic-20" transform="translate(752.499847 0)"/>
     <use xlink:href="#NanumGothic-38" transform="translate(780.499832 0)"/>
    </g>
    <!-- output, frozen) -->
    <g style="fill: #333333" transform="translate(58.856464 213.72) scale(0.09 -0.09)">
     <defs>
      <path id="NanumGothic-70" d="M 2989 1504 
Q 2989 1766 2937 2012 
Q 2886 2259 2764 2451 
Q 2643 2643 2451 2761 
Q 2259 2880 1971 2880 
Q 1709 2880 1517 2771 
Q 1325 2662 1200 2473 
Q 1075 2285 1011 2035 
Q 947 1786 947 1504 
Q 947 762 1225 381 
Q 1504 0 1971 0 
Q 2214 0 2403 105 
Q 2592 211 2723 409 
Q 2854 608 2921 883 
Q 2989 1158 2989 1504 
z
M 518 3098 
Q 518 3187 608 3187 
L 851 3187 
Q 941 3187 941 3098 
L 909 2618 
Q 1037 2899 1341 3072 
Q 1645 3245 2048 3245 
Q 2426 3245 2691 3110 
Q 2957 2976 3126 2742 
Q 3296 2509 3376 2189 
Q 3456 1869 3456 1504 
Q 3456 1107 3363 768 
Q 3270 429 3094 179 
Q 2918 -70 2656 -214 
Q 2394 -358 2048 -358 
Q 1658 -358 1376 -208 
Q 1094 -58 947 211 
L 947 -1165 
Q 947 -1254 858 -1254 
L 614 -1254 
Q 576 -1254 547 -1228 
Q 518 -1203 518 -1165 
L 518 3098 
z
" transform="scale(0.015625)"/>
      <path id="NanumGothic-2c" d="M 1299 115 
Q 1382 115 1382 86 
Q 1382 58 1370 19 
L 947 -1126 
Q 922 -1178 899 -1194 
Q 877 -1210 832 -1210 
L 563 -1210 
Q 480 -1210 499 -1120 
L 800 6 
Q 813 45 838 80 
Q 864 115 934 115 
L 1299 115 
z
" transform="scale(0.015625)"/>
      <path id="NanumGothic-7a" d="M 454 -275 
Q 320 -275 297 -252 
Q 275 -230 275 -96 
L 275 6 
Q 275 90 326 147 
L 2387 2816 
L 448 2816 
Q 358 2816 358 2906 
L 358 3098 
Q 358 3187 448 3187 
L 2707 3187 
Q 2842 3187 2864 3164 
Q 2886 3142 2886 3008 
L 2886 2893 
Q 2886 2810 2842 2758 
L 774 83 
L 2797 83 
Q 2886 83 2886 -6 
L 2886 -186 
Q 2886 -275 2797 -275 
L 454 -275 
z
" transform="scale(0.015625)"/>
      <path id="NanumGothic-6e" d="M 3334 -186 
Q 3334 -275 3245 -275 
L 2989 -275 
Q 2899 -275 2899 -186 
L 2899 1830 
Q 2899 2419 2688 2665 
Q 2477 2912 2093 2912 
Q 1574 2912 1302 2624 
Q 1030 2336 1030 1818 
L 1030 -186 
Q 1030 -275 941 -275 
L 685 -275 
Q 595 -275 595 -186 
L 595 2374 
Q 595 2650 592 2803 
Q 589 2957 576 3098 
Q 570 3142 598 3164 
Q 627 3187 666 3187 
L 896 3187 
Q 986 3187 986 3098 
L 986 2746 
Q 1165 3021 1417 3149 
Q 1670 3277 2112 3277 
Q 2720 3277 3027 2925 
Q 3334 2573 3334 1933 
L 3334 -186 
z
" transform="scale(0.015625)"/>
      <path id="NanumGothic-29" d="M 301 -1133 
Q 243 -1133 275 -1088 
Q 774 -301 1027 448 
Q 1280 1197 1280 1933 
Q 1280 2662 1030 3414 
Q 781 4166 282 4954 
Q 262 4986 262 4992 
Q 262 4998 294 4998 
L 474 4998 
Q 506 4998 515 4995 
Q 525 4992 557 4960 
Q 1139 4224 1417 3475 
Q 1696 2726 1696 1933 
Q 1696 1133 1417 384 
Q 1139 -365 557 -1094 
Q 525 -1126 515 -1129 
Q 506 -1133 461 -1133 
L 301 -1133 
z
" transform="scale(0.015625)"/>
     </defs>
     <use xlink:href="#NanumGothic-6f"/>
     <use xlink:href="#NanumGothic-75" transform="translate(60.599991 0)"/>
     <use xlink:href="#NanumGothic-74" transform="translate(121.199982 0)"/>
     <use xlink:href="#NanumGothic-70" transform="translate(157.499969 0)"/>
     <use xlink:href="#NanumGothic-75" transform="translate(218.09996 0)"/>
     <use xlink:href="#NanumGothic-74" transform="translate(278.699951 0)"/>
     <use xlink:href="#NanumGothic-2c" transform="translate(314.999939 0)"/>
     <use xlink:href="#NanumGothic-20" transform="translate(345.299927 0)"/>
     <use xlink:href="#NanumGothic-66" transform="translate(373.299911 0)"/>
     <use xlink:href="#NanumGothic-72" transform="translate(409.599899 0)"/>
     <use xlink:href="#NanumGothic-6f" transform="translate(445.899887 0)"/>
     <use xlink:href="#NanumGothic-7a" transform="translate(506.499878 0)"/>
     <use xlink:href="#NanumGothic-65" transform="translate(554.899872 0)"/>
     <use xlink:href="#NanumGothic-6e" transform="translate(609.399857 0)"/>
     <use xlink:href="#NanumGothic-29" transform="translate(669.999847 0)"/>
    </g>
   </g>
   <g id="text_3">
    <!-- [S=149, -->
    <g style="fill: #333333" transform="translate(69.566621 255.258437) scale(0.1 -0.1)">
     <defs>
      <path id="DejaVuSansMono-5b" d="M 1447 4863 
L 2772 4863 
L 2772 4416 
L 2022 4416 
L 2022 -397 
L 2772 -397 
L 2772 -844 
L 1447 -844 
L 1447 4863 
z
" transform="scale(0.015625)"/>
      <path id="DejaVuSansMono-53" d="M 3163 4506 
L 3163 3866 
Q 2875 4050 2586 4144 
Q 2297 4238 2003 4238 
Q 1556 4238 1297 4030 
Q 1038 3822 1038 3469 
Q 1038 3159 1208 2996 
Q 1378 2834 1844 2725 
L 2175 2650 
Q 2831 2497 3131 2169 
Q 3431 1841 3431 1275 
Q 3431 609 3018 259 
Q 2606 -91 1819 -91 
Q 1491 -91 1159 -20 
Q 828 50 494 191 
L 494 863 
Q 853 634 1173 528 
Q 1494 422 1819 422 
Q 2297 422 2562 636 
Q 2828 850 2828 1234 
Q 2828 1584 2645 1768 
Q 2463 1953 2009 2053 
L 1672 2131 
Q 1022 2278 728 2575 
Q 434 2872 434 3372 
Q 434 3997 854 4373 
Q 1275 4750 1972 4750 
Q 2241 4750 2537 4689 
Q 2834 4628 3163 4506 
z
" transform="scale(0.015625)"/>
      <path id="DejaVuSansMono-3d" d="M 275 1638 
L 3578 1638 
L 3578 1100 
L 275 1100 
L 275 1638 
z
M 275 2906 
L 3578 2906 
L 3578 2375 
L 275 2375 
L 275 2906 
z
" transform="scale(0.015625)"/>
      <path id="DejaVuSansMono-31" d="M 844 531 
L 1825 531 
L 1825 4097 
L 769 3859 
L 769 4434 
L 1819 4666 
L 2450 4666 
L 2450 531 
L 3419 531 
L 3419 0 
L 844 0 
L 844 531 
z
" transform="scale(0.015625)"/>
      <path id="DejaVuSansMono-34" d="M 2297 4091 
L 825 1625 
L 2297 1625 
L 2297 4091 
z
M 2194 4666 
L 2925 4666 
L 2925 1625 
L 3547 1625 
L 3547 1113 
L 2925 1113 
L 2925 0 
L 2297 0 
L 2297 1113 
L 319 1113 
L 319 1709 
L 2194 4666 
z
" transform="scale(0.015625)"/>
      <path id="DejaVuSansMono-39" d="M 1863 2069 
Q 2266 2069 2495 2359 
Q 2725 2650 2725 3163 
Q 2725 3675 2495 3965 
Q 2266 4256 1863 4256 
Q 1444 4256 1231 3979 
Q 1019 3703 1019 3163 
Q 1019 2619 1230 2344 
Q 1441 2069 1863 2069 
z
M 738 97 
L 738 678 
Q 934 563 1156 502 
Q 1378 441 1619 441 
Q 2219 441 2526 892 
Q 2834 1344 2834 2222 
Q 2688 1909 2422 1742 
Q 2156 1575 1813 1575 
Q 1138 1575 767 1990 
Q 397 2406 397 3169 
Q 397 3922 776 4336 
Q 1156 4750 1850 4750 
Q 2663 4750 3041 4165 
Q 3419 3581 3419 2328 
Q 3419 1150 2964 529 
Q 2509 -91 1644 -91 
Q 1416 -91 1184 -42 
Q 953 6 738 97 
z
" transform="scale(0.015625)"/>
      <path id="DejaVuSansMono-2c" d="M 1569 947 
L 2356 947 
L 2356 300 
L 1741 -897 
L 1259 -897 
L 1569 300 
L 1569 947 
z
" transform="scale(0.015625)"/>
     </defs>
     <use xlink:href="#DejaVuSansMono-5b"/>
     <use xlink:href="#DejaVuSansMono-53" transform="translate(60.205078 0)"/>
     <use xlink:href="#DejaVuSansMono-3d" transform="translate(120.410156 0)"/>
     <use xlink:href="#DejaVuSansMono-31" transform="translate(180.615234 0)"/>
     <use xlink:href="#DejaVuSansMono-34" transform="translate(240.820312 0)"/>
     <use xlink:href="#DejaVuSansMono-39" transform="translate(301.025391 0)"/>
     <use xlink:href="#DejaVuSansMono-2c" transform="translate(361.230469 0)"/>
    </g>
    <!--   d_a=432] -->
    <g style="fill: #333333" transform="translate(60.536152 266.52) scale(0.1 -0.1)">
     <defs>
      <path id="DejaVuSansMono-20" transform="scale(0.015625)"/>
      <path id="DejaVuSansMono-64" d="M 2681 3053 
L 2681 4863 
L 3256 4863 
L 3256 0 
L 2681 0 
L 2681 441 
Q 2538 181 2298 45 
Q 2059 -91 1747 -91 
Q 1113 -91 748 401 
Q 384 894 384 1759 
Q 384 2613 750 3098 
Q 1116 3584 1747 3584 
Q 2063 3584 2303 3448 
Q 2544 3313 2681 3053 
z
M 991 1747 
Q 991 1078 1203 737 
Q 1416 397 1831 397 
Q 2247 397 2464 740 
Q 2681 1084 2681 1747 
Q 2681 2413 2464 2755 
Q 2247 3097 1831 3097 
Q 1416 3097 1203 2756 
Q 991 2416 991 1747 
z
" transform="scale(0.015625)"/>
      <path id="DejaVuSansMono-5f" d="M 3853 -1259 
L 3853 -1509 
L 0 -1509 
L 0 -1259 
L 3853 -1259 
z
" transform="scale(0.015625)"/>
      <path id="DejaVuSansMono-61" d="M 2194 1759 
L 2003 1759 
Q 1500 1759 1245 1582 
Q 991 1406 991 1056 
Q 991 741 1181 566 
Q 1372 391 1709 391 
Q 2184 391 2456 720 
Q 2728 1050 2731 1631 
L 2731 1759 
L 2194 1759 
z
M 3309 1997 
L 3309 0 
L 2731 0 
L 2731 519 
Q 2547 206 2267 57 
Q 1988 -91 1588 -91 
Q 1053 -91 734 211 
Q 416 513 416 1019 
Q 416 1603 808 1906 
Q 1200 2209 1959 2209 
L 2731 2209 
L 2731 2300 
Q 2728 2719 2518 2908 
Q 2309 3097 1850 3097 
Q 1556 3097 1256 3012 
Q 956 2928 672 2766 
L 672 3341 
Q 991 3463 1283 3523 
Q 1575 3584 1850 3584 
Q 2284 3584 2592 3456 
Q 2900 3328 3091 3072 
Q 3209 2916 3259 2686 
Q 3309 2456 3309 1997 
z
" transform="scale(0.015625)"/>
      <path id="DejaVuSansMono-33" d="M 2425 2497 
Q 2884 2375 3128 2064 
Q 3372 1753 3372 1288 
Q 3372 644 2939 276 
Q 2506 -91 1741 -91 
Q 1419 -91 1084 -31 
Q 750 28 428 141 
L 428 769 
Q 747 603 1056 522 
Q 1366 441 1672 441 
Q 2191 441 2469 675 
Q 2747 909 2747 1350 
Q 2747 1756 2469 1995 
Q 2191 2234 1716 2234 
L 1234 2234 
L 1234 2753 
L 1716 2753 
Q 2150 2753 2394 2943 
Q 2638 3134 2638 3475 
Q 2638 3834 2411 4026 
Q 2184 4219 1766 4219 
Q 1488 4219 1191 4156 
Q 894 4094 569 3969 
L 569 4550 
Q 947 4650 1242 4700 
Q 1538 4750 1766 4750 
Q 2447 4750 2855 4408 
Q 3263 4066 3263 3500 
Q 3263 3116 3048 2859 
Q 2834 2603 2425 2497 
z
" transform="scale(0.015625)"/>
      <path id="DejaVuSansMono-32" d="M 1166 531 
L 3309 531 
L 3309 0 
L 475 0 
L 475 531 
Q 1059 1147 1496 1619 
Q 1934 2091 2100 2284 
Q 2413 2666 2522 2902 
Q 2631 3138 2631 3384 
Q 2631 3775 2401 3997 
Q 2172 4219 1772 4219 
Q 1488 4219 1175 4116 
Q 863 4013 513 3803 
L 513 4441 
Q 834 4594 1145 4672 
Q 1456 4750 1759 4750 
Q 2444 4750 2861 4386 
Q 3278 4022 3278 3431 
Q 3278 3131 3139 2831 
Q 3000 2531 2688 2169 
Q 2513 1966 2180 1606 
Q 1847 1247 1166 531 
z
" transform="scale(0.015625)"/>
      <path id="DejaVuSansMono-5d" d="M 2406 4863 
L 2406 -844 
L 1081 -844 
L 1081 -397 
L 1831 -397 
L 1831 4416 
L 1081 4416 
L 1081 4863 
L 2406 4863 
z
" transform="scale(0.015625)"/>
     </defs>
     <use xlink:href="#DejaVuSansMono-20"/>
     <use xlink:href="#DejaVuSansMono-20" transform="translate(60.205078 0)"/>
     <use xlink:href="#DejaVuSansMono-64" transform="translate(120.410156 0)"/>
     <use xlink:href="#DejaVuSansMono-5f" transform="translate(180.615234 0)"/>
     <use xlink:href="#DejaVuSansMono-61" transform="translate(240.820312 0)"/>
     <use xlink:href="#DejaVuSansMono-3d" transform="translate(301.025391 0)"/>
     <use xlink:href="#DejaVuSansMono-34" transform="translate(361.230469 0)"/>
     <use xlink:href="#DejaVuSansMono-33" transform="translate(421.435547 0)"/>
     <use xlink:href="#DejaVuSansMono-32" transform="translate(481.640625 0)"/>
     <use xlink:href="#DejaVuSansMono-5d" transform="translate(541.845703 0)"/>
    </g>
   </g>
   <g id="text_4">
    <!-- K, V source -->
    <g style="fill: #666666" transform="translate(67.247558 319.994625) scale(0.09 -0.09)">
     <defs>
      <path id="NanumGothic-4b" d="M 1798 2080 
L 1171 1344 
L 1171 -186 
Q 1171 -275 1082 -275 
L 800 -275 
Q 710 -275 710 -186 
L 710 4371 
Q 710 4461 800 4461 
L 1082 4461 
Q 1171 4461 1171 4371 
L 1171 1933 
L 3149 4371 
Q 3238 4461 3366 4461 
L 3725 4461 
Q 3763 4461 3772 4432 
Q 3782 4403 3750 4371 
L 2099 2432 
L 3904 -186 
Q 3962 -275 3878 -275 
L 3533 -275 
Q 3469 -275 3417 -256 
Q 3366 -237 3334 -186 
L 1798 2080 
z
" transform="scale(0.015625)"/>
      <path id="NanumGothic-63" d="M 2816 -301 
Q 2624 -333 2445 -345 
Q 2266 -358 2016 -358 
Q 1619 -358 1308 -217 
Q 998 -77 784 166 
Q 570 410 454 742 
Q 339 1075 339 1459 
Q 339 1850 460 2179 
Q 582 2509 809 2749 
Q 1037 2989 1353 3126 
Q 1670 3264 2067 3264 
Q 2278 3264 2451 3248 
Q 2624 3232 2822 3187 
Q 2912 3162 2906 3066 
L 2886 2861 
Q 2874 2784 2790 2803 
Q 2624 2854 2470 2876 
Q 2317 2899 2131 2899 
Q 1805 2899 1558 2793 
Q 1312 2688 1145 2496 
Q 979 2304 896 2038 
Q 813 1773 813 1459 
Q 813 1171 899 908 
Q 986 646 1149 444 
Q 1312 243 1545 124 
Q 1779 6 2080 6 
Q 2304 6 2451 25 
Q 2598 45 2784 96 
Q 2880 122 2886 51 
L 2906 -186 
Q 2912 -282 2816 -301 
z
" transform="scale(0.015625)"/>
     </defs>
     <use xlink:href="#NanumGothic-4b"/>
     <use xlink:href="#NanumGothic-2c" transform="translate(64.099991 0)"/>
     <use xlink:href="#NanumGothic-20" transform="translate(94.399979 0)"/>
     <use xlink:href="#NanumGothic-56" transform="translate(122.399963 0)"/>
     <use xlink:href="#NanumGothic-20" transform="translate(188.999954 0)"/>
     <use xlink:href="#NanumGothic-73" transform="translate(216.999939 0)"/>
     <use xlink:href="#NanumGothic-6f" transform="translate(259.399933 0)"/>
     <use xlink:href="#NanumGothic-75" transform="translate(319.999924 0)"/>
     <use xlink:href="#NanumGothic-72" transform="translate(380.599915 0)"/>
     <use xlink:href="#NanumGothic-63" transform="translate(416.899902 0)"/>
     <use xlink:href="#NanumGothic-65" transform="translate(465.299896 0)"/>
    </g>
    <!-- for all CA -->
    <g style="fill: #666666" transform="translate(71.197714 329.88) scale(0.09 -0.09)">
     <defs>
      <path id="NanumGothic-43" d="M 3834 186 
Q 3872 198 3904 188 
Q 3936 179 3936 141 
L 3949 -109 
Q 3955 -192 3859 -224 
Q 3648 -294 3424 -326 
Q 3200 -358 2861 -358 
Q 1747 -358 1088 320 
Q 762 653 605 1094 
Q 448 1536 448 2093 
Q 448 3187 1107 3866 
Q 1779 4544 2861 4544 
Q 3014 4544 3139 4537 
Q 3264 4531 3382 4518 
Q 3501 4506 3616 4486 
Q 3731 4467 3859 4435 
Q 3955 4416 3949 4314 
L 3936 4058 
Q 3923 3968 3840 4000 
Q 3590 4083 3366 4112 
Q 3142 4141 2861 4141 
Q 1958 4141 1421 3565 
Q 922 3008 922 2093 
Q 922 1632 1043 1261 
Q 1165 890 1414 614 
Q 1933 38 2861 45 
Q 3130 51 3395 83 
Q 3661 115 3834 186 
z
" transform="scale(0.015625)"/>
      <path id="NanumGothic-41" d="M 3386 1402 
Q 3117 2067 2870 2716 
Q 2624 3366 2355 4032 
Q 2086 3366 1827 2716 
Q 1568 2067 1299 1402 
L 3386 1402 
z
M 4499 -186 
Q 4531 -275 4442 -275 
L 4134 -275 
Q 4096 -275 4067 -262 
Q 4038 -250 4013 -186 
L 3539 992 
L 1133 992 
Q 1011 691 896 403 
Q 781 115 666 -186 
Q 640 -250 611 -262 
Q 582 -275 544 -275 
L 243 -275 
Q 154 -275 186 -186 
L 2067 4397 
Q 2099 4474 2182 4474 
L 2573 4474 
Q 2656 4474 2688 4397 
L 4499 -186 
z
" transform="scale(0.015625)"/>
     </defs>
     <use xlink:href="#NanumGothic-66"/>
     <use xlink:href="#NanumGothic-6f" transform="translate(36.299988 0)"/>
     <use xlink:href="#NanumGothic-72" transform="translate(96.899979 0)"/>
     <use xlink:href="#NanumGothic-20" transform="translate(133.199966 0)"/>
     <use xlink:href="#NanumGothic-61" transform="translate(161.199951 0)"/>
     <use xlink:href="#NanumGothic-6c" transform="translate(215.699936 0)"/>
     <use xlink:href="#NanumGothic-6c" transform="translate(239.899933 0)"/>
     <use xlink:href="#NanumGothic-20" transform="translate(264.09993 0)"/>
     <use xlink:href="#NanumGothic-43" transform="translate(292.099915 0)"/>
     <use xlink:href="#NanumGothic-41" transform="translate(359.299911 0)"/>
    </g>
   </g>
   <g id="text_5">
    <!-- Noisy action chunk A$^τ$  [n=50, action_dim=7] -->
    <g style="fill: #333333" transform="translate(373.841429 473.045) scale(0.11 -0.11)">
     <defs>
      <path id="NanumGothic-4e" d="M 1050 -186 
Q 1050 -275 960 -275 
L 672 -275 
Q 582 -275 582 -186 
L 582 4294 
Q 582 4429 604 4451 
Q 627 4474 762 4474 
L 1056 4474 
Q 1139 4474 1168 4458 
Q 1197 4442 1229 4384 
L 3642 243 
L 3642 4384 
Q 3642 4474 3731 4474 
L 4013 4474 
Q 4102 4474 4102 4384 
L 4102 -96 
Q 4102 -230 4080 -252 
Q 4058 -275 3923 -275 
L 3533 -275 
Q 3482 -275 3459 -262 
Q 3437 -250 3405 -198 
L 1050 3872 
L 1050 -186 
z
" transform="scale(0.015625)"/>
      <path id="NanumGothic-69" d="M 1050 -186 
Q 1050 -275 960 -275 
L 678 -275 
Q 589 -275 589 -186 
L 589 3098 
Q 589 3187 678 3187 
L 960 3187 
Q 1050 3187 1050 3098 
L 1050 -186 
z
M 506 4397 
Q 506 4525 595 4617 
Q 685 4710 813 4710 
Q 941 4710 1033 4617 
Q 1126 4525 1126 4397 
Q 1126 4269 1033 4179 
Q 941 4090 813 4090 
Q 685 4090 595 4179 
Q 506 4269 506 4397 
z
" transform="scale(0.015625)"/>
      <path id="NanumGothic-68" d="M 3334 -186 
Q 3334 -275 3245 -275 
L 2989 -275 
Q 2899 -275 2899 -186 
L 2899 1786 
Q 2899 2093 2844 2307 
Q 2790 2522 2688 2653 
Q 2586 2784 2438 2841 
Q 2291 2899 2112 2899 
Q 1587 2899 1308 2649 
Q 1030 2400 1030 1958 
L 1030 -186 
Q 1030 -275 941 -275 
L 685 -275 
Q 595 -275 595 -186 
L 595 4730 
Q 595 4819 685 4819 
L 941 4819 
Q 1030 4819 1030 4730 
L 1030 2874 
Q 1210 3078 1475 3171 
Q 1741 3264 2138 3264 
Q 2758 3264 3046 2899 
Q 3334 2534 3334 1792 
L 3334 -186 
z
" transform="scale(0.015625)"/>
      <path id="NanumGothic-6b" d="M 1734 1645 
L 3117 -186 
Q 3136 -218 3129 -246 
Q 3123 -275 3085 -275 
L 2810 -275 
Q 2746 -275 2694 -256 
Q 2643 -237 2611 -186 
L 1459 1338 
L 1030 858 
L 1030 -186 
Q 1030 -275 941 -275 
L 685 -275 
Q 595 -275 595 -186 
L 595 4730 
Q 595 4819 685 4819 
L 941 4819 
Q 1030 4819 1030 4730 
L 1030 1395 
L 2490 3098 
Q 2579 3187 2701 3187 
L 3002 3187 
Q 3040 3187 3053 3158 
Q 3066 3130 3034 3098 
L 1734 1645 
z
" transform="scale(0.015625)"/>
      <path id="DejaVuSans-Oblique-3c4" d="M 2103 638 
Q 2188 488 2525 488 
L 2800 488 
L 2706 0 
L 2363 0 
Q 1800 0 1600 300 
Q 1403 606 1534 1269 
L 1856 2925 
L 541 2925 
L 653 3500 
L 3881 3500 
L 3769 2925 
L 2444 2925 
L 2113 1234 
Q 2025 781 2103 638 
z
" transform="scale(0.015625)"/>
      <path id="NanumGothic-5b" d="M 1024 -1126 
Q 934 -1126 918 -1113 
Q 902 -1101 902 -1011 
L 902 4877 
Q 902 4966 918 4982 
Q 934 4998 1024 4998 
L 1894 4998 
Q 1990 4998 2006 4985 
Q 2022 4973 2022 4883 
L 2022 4800 
Q 2022 4704 2006 4688 
Q 1990 4672 1888 4672 
L 1427 4672 
Q 1357 4672 1344 4659 
Q 1331 4646 1331 4570 
L 1331 -704 
Q 1331 -774 1340 -787 
Q 1350 -800 1421 -800 
L 1888 -800 
Q 1990 -800 2006 -816 
Q 2022 -832 2022 -928 
L 2022 -1005 
Q 2022 -1094 2006 -1110 
Q 1990 -1126 1888 -1126 
L 1024 -1126 
z
" transform="scale(0.015625)"/>
      <path id="NanumGothic-3d" d="M 3757 2995 
Q 3827 2995 3836 2985 
Q 3846 2976 3846 2906 
L 3846 2618 
Q 3846 2547 3836 2537 
Q 3827 2528 3757 2528 
L 467 2528 
Q 397 2528 387 2537 
Q 378 2547 378 2618 
L 378 2906 
Q 378 2976 387 2985 
Q 397 2995 467 2995 
L 3757 2995 
z
M 3757 1626 
Q 3827 1626 3836 1616 
Q 3846 1606 3846 1536 
L 3846 1261 
Q 3846 1190 3836 1180 
Q 3827 1171 3757 1171 
L 467 1171 
Q 397 1171 387 1180 
Q 378 1190 378 1261 
L 378 1536 
Q 378 1606 387 1616 
Q 397 1626 467 1626 
L 3757 1626 
z
" transform="scale(0.015625)"/>
      <path id="NanumGothic-35" d="M 736 -205 
Q 646 -173 646 -90 
L 646 179 
Q 646 288 736 243 
Q 966 134 1187 89 
Q 1408 45 1670 45 
Q 2234 45 2586 320 
Q 2970 614 2970 1165 
Q 2970 2246 1734 2246 
Q 1491 2246 1296 2220 
Q 1101 2195 864 2131 
Q 794 2112 749 2147 
Q 704 2182 704 2253 
L 742 4294 
Q 742 4429 764 4451 
Q 787 4474 922 4474 
L 3110 4474 
Q 3200 4474 3200 4384 
L 3200 4173 
Q 3200 4083 3110 4083 
L 1178 4083 
Q 1171 3680 1161 3296 
Q 1152 2912 1146 2509 
Q 1459 2630 1907 2630 
Q 2579 2630 2995 2266 
Q 3411 1888 3411 1254 
Q 3411 480 2931 58 
Q 2470 -346 1670 -346 
Q 1382 -346 1171 -314 
Q 960 -282 736 -205 
z
" transform="scale(0.015625)"/>
      <path id="NanumGothic-30" d="M 3066 2093 
Q 3066 4102 1965 4102 
Q 864 4102 864 2093 
Q 864 77 1965 77 
Q 3066 77 3066 2093 
z
M 3526 2093 
Q 3526 -326 1965 -326 
Q 390 -326 390 2093 
Q 390 3098 698 3725 
Q 1088 4512 1965 4512 
Q 2829 4512 3226 3725 
Q 3373 3411 3449 3008 
Q 3526 2605 3526 2093 
z
" transform="scale(0.015625)"/>
      <path id="NanumGothic-5f" d="M 3392 -794 
Q 3462 -794 3472 -803 
Q 3482 -813 3482 -883 
L 3482 -1037 
Q 3482 -1107 3472 -1116 
Q 3462 -1126 3392 -1126 
L 154 -1126 
Q 83 -1126 73 -1116 
Q 64 -1107 64 -1037 
L 64 -883 
Q 64 -813 73 -803 
Q 83 -794 154 -794 
L 3392 -794 
z
" transform="scale(0.015625)"/>
      <path id="NanumGothic-64" d="M 877 1459 
Q 877 1158 925 912 
Q 973 666 1075 480 
Q 1216 250 1417 128 
Q 1619 6 1901 6 
Q 2157 6 2352 140 
Q 2547 275 2678 483 
Q 2810 691 2874 950 
Q 2938 1210 2938 1459 
Q 2938 1766 2870 2028 
Q 2803 2291 2672 2483 
Q 2541 2675 2349 2784 
Q 2157 2893 1901 2893 
Q 1357 2893 1075 2426 
Q 973 2240 925 1993 
Q 877 1747 877 1459 
z
M 3366 -186 
Q 3366 -275 3277 -275 
L 3027 -275 
Q 2938 -275 2938 -186 
L 2938 294 
Q 2592 -358 1824 -358 
Q 1139 -358 755 166 
Q 403 653 403 1459 
Q 403 3258 1824 3258 
Q 2208 3258 2505 3104 
Q 2803 2950 2938 2707 
L 2938 4723 
Q 2938 4813 3027 4813 
L 3277 4813 
Q 3366 4813 3366 4723 
L 3366 -186 
z
" transform="scale(0.015625)"/>
      <path id="NanumGothic-37" d="M 1549 -211 
Q 1504 -301 1421 -301 
L 1101 -301 
Q 1062 -301 1046 -275 
Q 1030 -250 1050 -211 
L 2912 4083 
L 538 4083 
Q 448 4083 448 4173 
L 448 4384 
Q 448 4474 538 4474 
L 3194 4474 
Q 3328 4474 3350 4451 
Q 3373 4429 3373 4294 
L 3373 4134 
Q 3373 4083 3354 4045 
L 1549 -211 
z
" transform="scale(0.015625)"/>
      <path id="NanumGothic-5d" d="M 1376 4998 
Q 1466 4998 1482 4985 
Q 1498 4973 1498 4883 
L 1498 -1005 
Q 1498 -1094 1482 -1110 
Q 1466 -1126 1376 -1126 
L 506 -1126 
Q 410 -1126 394 -1113 
Q 378 -1101 378 -1011 
L 378 -928 
Q 378 -832 394 -816 
Q 410 -800 512 -800 
L 973 -800 
Q 1043 -800 1056 -787 
Q 1069 -774 1069 -698 
L 1069 4576 
Q 1069 4646 1059 4659 
Q 1050 4672 979 4672 
L 512 4672 
Q 410 4672 394 4688 
Q 378 4704 378 4800 
L 378 4877 
Q 378 4966 394 4982 
Q 410 4998 512 4998 
L 1376 4998 
z
" transform="scale(0.015625)"/>
     </defs>
     <use xlink:href="#NanumGothic-4e" transform="translate(0 0.90625)"/>
     <use xlink:href="#NanumGothic-6f" transform="translate(72.699982 0.90625)"/>
     <use xlink:href="#NanumGothic-69" transform="translate(133.299973 0.90625)"/>
     <use xlink:href="#NanumGothic-73" transform="translate(157.499969 0.90625)"/>
     <use xlink:href="#NanumGothic-79" transform="translate(199.899963 0.90625)"/>
     <use xlink:href="#NanumGothic-20" transform="translate(246.299957 0.90625)"/>
     <use xlink:href="#NanumGothic-61" transform="translate(274.299942 0.90625)"/>
     <use xlink:href="#NanumGothic-63" transform="translate(328.799927 0.90625)"/>
     <use xlink:href="#NanumGothic-74" transform="translate(377.199921 0.90625)"/>
     <use xlink:href="#NanumGothic-69" transform="translate(413.499908 0.90625)"/>
     <use xlink:href="#NanumGothic-6f" transform="translate(437.699905 0.90625)"/>
     <use xlink:href="#NanumGothic-6e" transform="translate(498.299896 0.90625)"/>
     <use xlink:href="#NanumGothic-20" transform="translate(558.899887 0.90625)"/>
     <use xlink:href="#NanumGothic-63" transform="translate(586.899872 0.90625)"/>
     <use xlink:href="#NanumGothic-68" transform="translate(635.299866 0.90625)"/>
     <use xlink:href="#NanumGothic-75" transform="translate(695.899857 0.90625)"/>
     <use xlink:href="#NanumGothic-6e" transform="translate(756.499847 0.90625)"/>
     <use xlink:href="#NanumGothic-6b" transform="translate(817.099838 0.90625)"/>
     <use xlink:href="#NanumGothic-20" transform="translate(869.099823 0.90625)"/>
     <use xlink:href="#NanumGothic-41" transform="translate(897.099808 0.90625)"/>
     <use xlink:href="#DejaVuSans-Oblique-3c4" transform="translate(970.756821 39.1875) scale(0.7)"/>
     <use xlink:href="#NanumGothic-20" transform="translate(1015.63475 0.90625)"/>
     <use xlink:href="#NanumGothic-20" transform="translate(1043.634735 0.90625)"/>
     <use xlink:href="#NanumGothic-5b" transform="translate(1071.63472 0.90625)"/>
     <use xlink:href="#NanumGothic-6e" transform="translate(1107.934708 0.90625)"/>
     <use xlink:href="#NanumGothic-3d" transform="translate(1168.534698 0.90625)"/>
     <use xlink:href="#NanumGothic-35" transform="translate(1233.934692 0.90625)"/>
     <use xlink:href="#NanumGothic-30" transform="translate(1289.534683 0.90625)"/>
     <use xlink:href="#NanumGothic-2c" transform="translate(1350.134674 0.90625)"/>
     <use xlink:href="#NanumGothic-20" transform="translate(1380.434662 0.90625)"/>
     <use xlink:href="#NanumGothic-61" transform="translate(1408.434647 0.90625)"/>
     <use xlink:href="#NanumGothic-63" transform="translate(1462.934631 0.90625)"/>
     <use xlink:href="#NanumGothic-74" transform="translate(1511.334625 0.90625)"/>
     <use xlink:href="#NanumGothic-69" transform="translate(1547.634613 0.90625)"/>
     <use xlink:href="#NanumGothic-6f" transform="translate(1571.83461 0.90625)"/>
     <use xlink:href="#NanumGothic-6e" transform="translate(1632.434601 0.90625)"/>
     <use xlink:href="#NanumGothic-5f" transform="translate(1693.034592 0.90625)"/>
     <use xlink:href="#NanumGothic-64" transform="translate(1747.534576 0.90625)"/>
     <use xlink:href="#NanumGothic-69" transform="translate(1808.134567 0.90625)"/>
     <use xlink:href="#NanumGothic-6d" transform="translate(1832.334564 0.90625)"/>
     <use xlink:href="#NanumGothic-3d" transform="translate(1923.134552 0.90625)"/>
     <use xlink:href="#NanumGothic-37" transform="translate(1988.534546 0.90625)"/>
     <use xlink:href="#NanumGothic-5d" transform="translate(2049.134537 0.90625)"/>
    </g>
   </g>
   <g id="text_6">
    <!-- Block 1: Cross-Attention -->
    <g style="fill: #5b56b5" transform="translate(426.973147 367.896) scale(0.11 -0.11)">
     <defs>
      <path id="NanumGothic-42" d="M 2784 3277 
Q 2784 4064 1741 4064 
L 1088 4064 
L 1088 2394 
L 1619 2394 
Q 2202 2394 2493 2624 
Q 2784 2854 2784 3277 
z
M 2931 1050 
Q 2931 1523 2585 1753 
Q 2240 1984 1491 1984 
L 1075 1984 
L 1075 128 
L 1568 128 
Q 2931 128 2931 1050 
z
M 3405 1075 
Q 3405 -275 1555 -275 
L 781 -275 
Q 646 -275 624 -252 
Q 602 -230 602 -96 
L 602 4282 
Q 602 4416 624 4438 
Q 646 4461 781 4461 
L 1741 4461 
Q 3258 4461 3258 3296 
Q 3258 2406 2413 2214 
Q 2899 2074 3152 1789 
Q 3405 1504 3405 1075 
z
" transform="scale(0.015625)"/>
      <path id="NanumGothic-31" d="M 2362 -211 
Q 2362 -301 2272 -301 
L 2010 -301 
Q 1920 -301 1920 -211 
L 1920 3949 
Q 1722 3782 1549 3635 
Q 1376 3488 1184 3322 
Q 1114 3264 1056 3334 
L 928 3488 
Q 909 3520 909 3555 
Q 909 3590 941 3616 
L 1933 4448 
Q 1958 4474 2010 4474 
L 2182 4474 
Q 2317 4474 2339 4451 
Q 2362 4429 2362 4294 
L 2362 -211 
z
" transform="scale(0.015625)"/>
      <path id="NanumGothic-3a" d="M 646 3526 
Q 646 3674 755 3782 
Q 864 3891 1011 3891 
Q 1158 3891 1267 3782 
Q 1376 3674 1376 3526 
Q 1376 3379 1267 3270 
Q 1158 3162 1011 3162 
Q 864 3162 755 3270 
Q 646 3379 646 3526 
z
M 646 640 
Q 646 787 755 896 
Q 864 1005 1011 1005 
Q 1158 1005 1267 896 
Q 1376 787 1376 640 
Q 1376 493 1267 384 
Q 1158 275 1011 275 
Q 864 275 755 384 
Q 646 493 646 640 
z
" transform="scale(0.015625)"/>
     </defs>
     <use xlink:href="#NanumGothic-42"/>
     <use xlink:href="#NanumGothic-6c" transform="translate(60.599991 0)"/>
     <use xlink:href="#NanumGothic-6f" transform="translate(84.799988 0)"/>
     <use xlink:href="#NanumGothic-63" transform="translate(145.399979 0)"/>
     <use xlink:href="#NanumGothic-6b" transform="translate(193.799973 0)"/>
     <use xlink:href="#NanumGothic-20" transform="translate(245.799957 0)"/>
     <use xlink:href="#NanumGothic-31" transform="translate(273.799942 0)"/>
     <use xlink:href="#NanumGothic-3a" transform="translate(334.399933 0)"/>
     <use xlink:href="#NanumGothic-20" transform="translate(364.699921 0)"/>
     <use xlink:href="#NanumGothic-43" transform="translate(392.699905 0)"/>
     <use xlink:href="#NanumGothic-72" transform="translate(459.899902 0)"/>
     <use xlink:href="#NanumGothic-6f" transform="translate(496.19989 0)"/>
     <use xlink:href="#NanumGothic-73" transform="translate(556.799881 0)"/>
     <use xlink:href="#NanumGothic-73" transform="translate(599.199875 0)"/>
     <use xlink:href="#NanumGothic-2d" transform="translate(641.599869 0)"/>
     <use xlink:href="#NanumGothic-41" transform="translate(677.899857 0)"/>
     <use xlink:href="#NanumGothic-74" transform="translate(750.599838 0)"/>
     <use xlink:href="#NanumGothic-74" transform="translate(786.899826 0)"/>
     <use xlink:href="#NanumGothic-65" transform="translate(823.199814 0)"/>
     <use xlink:href="#NanumGothic-6e" transform="translate(877.699799 0)"/>
     <use xlink:href="#NanumGothic-74" transform="translate(938.299789 0)"/>
     <use xlink:href="#NanumGothic-69" transform="translate(974.599777 0)"/>
     <use xlink:href="#NanumGothic-6f" transform="translate(998.799774 0)"/>
     <use xlink:href="#NanumGothic-6e" transform="translate(1059.399765 0)"/>
    </g>
   </g>
   <g id="text_7">
    <!-- Q ← action,  K,V ← VLM features -->
    <g style="fill: #333333" transform="translate(412.277679 403.8) scale(0.1 -0.1)">
     <defs>
      <path id="NanumGothic-51" d="M 4160 2093 
Q 4160 2925 3770 3494 
Q 3328 4141 2534 4141 
Q 1734 4141 1293 3494 
Q 902 2925 902 2093 
Q 902 1261 1293 691 
Q 1734 45 2534 45 
Q 3328 45 3770 691 
Q 4160 1261 4160 2093 
z
M 4294 -1069 
Q 4326 -1101 4316 -1129 
Q 4307 -1158 4269 -1158 
L 3904 -1158 
Q 3776 -1158 3686 -1069 
L 2931 -326 
Q 2848 -339 2752 -348 
Q 2656 -358 2534 -358 
Q 1517 -358 966 326 
Q 448 966 435 2093 
Q 429 3117 934 3802 
Q 1222 4154 1628 4349 
Q 2035 4544 2534 4544 
Q 3034 4544 3437 4349 
Q 3840 4154 4128 3802 
Q 4634 3117 4627 2093 
Q 4621 1670 4534 1305 
Q 4448 941 4301 653 
Q 4147 358 3913 137 
Q 3680 -83 3379 -198 
L 4294 -1069 
z
" transform="scale(0.015625)"/>
      <path id="NanumGothic-2190" d="M 5888 1843 
L 819 1843 
L 1286 877 
L 128 1920 
L 1286 2963 
L 819 1997 
L 5888 1997 
L 5888 1843 
z
" transform="scale(0.015625)"/>
     </defs>
     <use xlink:href="#NanumGothic-51"/>
     <use xlink:href="#NanumGothic-20" transform="translate(78.699982 0)"/>
     <use xlink:href="#NanumGothic-2190" transform="translate(106.699966 0)"/>
     <use xlink:href="#NanumGothic-20" transform="translate(200.699951 0)"/>
     <use xlink:href="#NanumGothic-61" transform="translate(228.699936 0)"/>
     <use xlink:href="#NanumGothic-63" transform="translate(283.199921 0)"/>
     <use xlink:href="#NanumGothic-74" transform="translate(331.599915 0)"/>
     <use xlink:href="#NanumGothic-69" transform="translate(367.899902 0)"/>
     <use xlink:href="#NanumGothic-6f" transform="translate(392.099899 0)"/>
     <use xlink:href="#NanumGothic-6e" transform="translate(452.69989 0)"/>
     <use xlink:href="#NanumGothic-2c" transform="translate(513.299881 0)"/>
     <use xlink:href="#NanumGothic-20" transform="translate(543.599869 0)"/>
     <use xlink:href="#NanumGothic-20" transform="translate(571.599854 0)"/>
     <use xlink:href="#NanumGothic-4b" transform="translate(599.599838 0)"/>
     <use xlink:href="#NanumGothic-2c" transform="translate(663.699829 0)"/>
     <use xlink:href="#NanumGothic-56" transform="translate(693.999817 0)"/>
     <use xlink:href="#NanumGothic-20" transform="translate(760.599808 0)"/>
     <use xlink:href="#NanumGothic-2190" transform="translate(788.599792 0)"/>
     <use xlink:href="#NanumGothic-20" transform="translate(882.599777 0)"/>
     <use xlink:href="#NanumGothic-56" transform="translate(910.599762 0)"/>
     <use xlink:href="#NanumGothic-4c" transform="translate(977.199753 0)"/>
     <use xlink:href="#NanumGothic-4d" transform="translate(1025.599747 0)"/>
     <use xlink:href="#NanumGothic-20" transform="translate(1122.499741 0)"/>
     <use xlink:href="#NanumGothic-66" transform="translate(1150.499725 0)"/>
     <use xlink:href="#NanumGothic-65" transform="translate(1186.799713 0)"/>
     <use xlink:href="#NanumGothic-61" transform="translate(1241.299698 0)"/>
     <use xlink:href="#NanumGothic-74" transform="translate(1295.799683 0)"/>
     <use xlink:href="#NanumGothic-75" transform="translate(1332.09967 0)"/>
     <use xlink:href="#NanumGothic-72" transform="translate(1392.699661 0)"/>
     <use xlink:href="#NanumGothic-65" transform="translate(1428.999649 0)"/>
     <use xlink:href="#NanumGothic-73" transform="translate(1483.499634 0)"/>
    </g>
   </g>
   <g id="text_8">
    <!-- AdaLN(τ) -->
    <g style="fill: #c8694f" transform="translate(745.383496 390.507422) scale(0.09 -0.09)">
     <defs>
      <path id="NanumGothic-3c4" d="M 2771 2739 
L 1382 2739 
L 1382 320 
Q 1382 147 1456 86 
Q 1530 26 1626 26 
Q 1734 26 1804 102 
Q 1875 179 1907 416 
L 2259 326 
Q 2208 -38 2045 -188 
Q 1882 -339 1594 -339 
Q 1338 -339 1155 -185 
Q 973 -32 973 307 
L 973 2739 
L 83 2739 
L 83 3085 
L 2771 3085 
L 2771 2739 
z
" transform="scale(0.015625)"/>
     </defs>
     <use xlink:href="#NanumGothic-41"/>
     <use xlink:href="#NanumGothic-64" transform="translate(72.699982 0)"/>
     <use xlink:href="#NanumGothic-61" transform="translate(133.299973 0)"/>
     <use xlink:href="#NanumGothic-4c" transform="translate(187.799957 0)"/>
     <use xlink:href="#NanumGothic-4e" transform="translate(236.199951 0)"/>
     <use xlink:href="#NanumGothic-28" transform="translate(308.899933 0)"/>
     <use xlink:href="#NanumGothic-3c4" transform="translate(345.199921 0)"/>
     <use xlink:href="#NanumGothic-29" transform="translate(389.799911 0)"/>
    </g>
   </g>
   <g id="text_9">
    <!-- Block 2: Self-Attention -->
    <g style="fill: #c8694f" transform="translate(431.340491 284.472) scale(0.11 -0.11)">
     <use xlink:href="#NanumGothic-42"/>
     <use xlink:href="#NanumGothic-6c" transform="translate(60.599991 0)"/>
     <use xlink:href="#NanumGothic-6f" transform="translate(84.799988 0)"/>
     <use xlink:href="#NanumGothic-63" transform="translate(145.399979 0)"/>
     <use xlink:href="#NanumGothic-6b" transform="translate(193.799973 0)"/>
     <use xlink:href="#NanumGothic-20" transform="translate(245.799957 0)"/>
     <use xlink:href="#NanumGothic-32" transform="translate(273.799942 0)"/>
     <use xlink:href="#NanumGothic-3a" transform="translate(334.399933 0)"/>
     <use xlink:href="#NanumGothic-20" transform="translate(364.699921 0)"/>
     <use xlink:href="#NanumGothic-53" transform="translate(392.699905 0)"/>
     <use xlink:href="#NanumGothic-65" transform="translate(447.19989 0)"/>
     <use xlink:href="#NanumGothic-6c" transform="translate(501.699875 0)"/>
     <use xlink:href="#NanumGothic-66" transform="translate(525.899872 0)"/>
     <use xlink:href="#NanumGothic-2d" transform="translate(562.19986 0)"/>
     <use xlink:href="#NanumGothic-41" transform="translate(598.499847 0)"/>
     <use xlink:href="#NanumGothic-74" transform="translate(671.199829 0)"/>
     <use xlink:href="#NanumGothic-74" transform="translate(707.499817 0)"/>
     <use xlink:href="#NanumGothic-65" transform="translate(743.799805 0)"/>
     <use xlink:href="#NanumGothic-6e" transform="translate(798.299789 0)"/>
     <use xlink:href="#NanumGothic-74" transform="translate(858.89978 0)"/>
     <use xlink:href="#NanumGothic-69" transform="translate(895.199768 0)"/>
     <use xlink:href="#NanumGothic-6f" transform="translate(919.399765 0)"/>
     <use xlink:href="#NanumGothic-6e" transform="translate(979.999756 0)"/>
    </g>
   </g>
   <g id="text_10">
    <!-- Q,K,V ← action tokens (causal mask) -->
    <g style="fill: #333333" transform="translate(403.977679 320.376) scale(0.1 -0.1)">
     <use xlink:href="#NanumGothic-51"/>
     <use xlink:href="#NanumGothic-2c" transform="translate(78.699982 0)"/>
     <use xlink:href="#NanumGothic-4b" transform="translate(108.999969 0)"/>
     <use xlink:href="#NanumGothic-2c" transform="translate(173.09996 0)"/>
     <use xlink:href="#NanumGothic-56" transform="translate(203.399948 0)"/>
     <use xlink:href="#NanumGothic-20" transform="translate(269.999939 0)"/>
     <use xlink:href="#NanumGothic-2190" transform="translate(297.999924 0)"/>
     <use xlink:href="#NanumGothic-20" transform="translate(391.999908 0)"/>
     <use xlink:href="#NanumGothic-61" transform="translate(419.999893 0)"/>
     <use xlink:href="#NanumGothic-63" transform="translate(474.499878 0)"/>
     <use xlink:href="#NanumGothic-74" transform="translate(522.899872 0)"/>
     <use xlink:href="#NanumGothic-69" transform="translate(559.19986 0)"/>
     <use xlink:href="#NanumGothic-6f" transform="translate(583.399857 0)"/>
     <use xlink:href="#NanumGothic-6e" transform="translate(643.999847 0)"/>
     <use xlink:href="#NanumGothic-20" transform="translate(704.599838 0)"/>
     <use xlink:href="#NanumGothic-74" transform="translate(732.599823 0)"/>
     <use xlink:href="#NanumGothic-6f" transform="translate(768.899811 0)"/>
     <use xlink:href="#NanumGothic-6b" transform="translate(829.499802 0)"/>
     <use xlink:href="#NanumGothic-65" transform="translate(881.499786 0)"/>
     <use xlink:href="#NanumGothic-6e" transform="translate(935.999771 0)"/>
     <use xlink:href="#NanumGothic-73" transform="translate(996.599762 0)"/>
     <use xlink:href="#NanumGothic-20" transform="translate(1038.999756 0)"/>
     <use xlink:href="#NanumGothic-28" transform="translate(1066.999741 0)"/>
     <use xlink:href="#NanumGothic-63" transform="translate(1103.299728 0)"/>
     <use xlink:href="#NanumGothic-61" transform="translate(1151.699722 0)"/>
     <use xlink:href="#NanumGothic-75" transform="translate(1206.199707 0)"/>
     <use xlink:href="#NanumGothic-73" transform="translate(1266.799698 0)"/>
     <use xlink:href="#NanumGothic-61" transform="translate(1309.199692 0)"/>
     <use xlink:href="#NanumGothic-6c" transform="translate(1363.699677 0)"/>
     <use xlink:href="#NanumGothic-20" transform="translate(1387.899673 0)"/>
     <use xlink:href="#NanumGothic-6d" transform="translate(1415.899658 0)"/>
     <use xlink:href="#NanumGothic-61" transform="translate(1506.699646 0)"/>
     <use xlink:href="#NanumGothic-73" transform="translate(1561.199631 0)"/>
     <use xlink:href="#NanumGothic-6b" transform="translate(1603.599625 0)"/>
     <use xlink:href="#NanumGothic-29" transform="translate(1655.599609 0)"/>
    </g>
   </g>
   <g id="text_11">
    <!-- AdaLN(τ) -->
    <g style="fill: #c8694f" transform="translate(745.383496 307.083422) scale(0.09 -0.09)">
     <use xlink:href="#NanumGothic-41"/>
     <use xlink:href="#NanumGothic-64" transform="translate(72.699982 0)"/>
     <use xlink:href="#NanumGothic-61" transform="translate(133.299973 0)"/>
     <use xlink:href="#NanumGothic-4c" transform="translate(187.799957 0)"/>
     <use xlink:href="#NanumGothic-4e" transform="translate(236.199951 0)"/>
     <use xlink:href="#NanumGothic-28" transform="translate(308.899933 0)"/>
     <use xlink:href="#NanumGothic-3c4" transform="translate(345.199921 0)"/>
     <use xlink:href="#NanumGothic-29" transform="translate(389.799911 0)"/>
    </g>
   </g>
   <g id="text_12">
    <!-- Block 3: Cross-Attention -->
    <g style="fill: #5b56b5" transform="translate(426.973147 201.048) scale(0.11 -0.11)">
     <defs>
      <path id="NanumGothic-33" d="M 493 -192 
Q 397 -166 410 -45 
L 435 205 
Q 448 282 538 243 
Q 806 134 1046 89 
Q 1286 45 1606 38 
Q 2112 32 2458 294 
Q 2861 563 2861 1082 
Q 2861 1990 1498 1990 
L 1165 1990 
Q 1082 1990 1082 2061 
L 1082 2298 
Q 1082 2381 1165 2381 
L 1197 2381 
Q 1882 2381 2266 2528 
Q 2848 2752 2848 3334 
Q 2848 3520 2749 3677 
Q 2650 3834 2483 3942 
Q 2330 4032 2138 4083 
Q 1946 4134 1734 4134 
Q 1517 4134 1254 4076 
Q 992 4019 749 3923 
Q 666 3891 653 3974 
L 627 4211 
Q 608 4301 710 4339 
Q 998 4435 1248 4480 
Q 1498 4525 1779 4525 
Q 2426 4525 2835 4250 
Q 3302 3936 3302 3334 
Q 3302 2906 2995 2592 
Q 2739 2317 2330 2189 
Q 2534 2163 2710 2080 
Q 2886 1997 3014 1850 
Q 3162 1690 3238 1488 
Q 3315 1286 3315 1043 
Q 3315 723 3184 464 
Q 3053 205 2810 19 
Q 2573 -154 2265 -253 
Q 1958 -352 1581 -346 
Q 1242 -339 995 -307 
Q 749 -275 493 -192 
z
" transform="scale(0.015625)"/>
     </defs>
     <use xlink:href="#NanumGothic-42"/>
     <use xlink:href="#NanumGothic-6c" transform="translate(60.599991 0)"/>
     <use xlink:href="#NanumGothic-6f" transform="translate(84.799988 0)"/>
     <use xlink:href="#NanumGothic-63" transform="translate(145.399979 0)"/>
     <use xlink:href="#NanumGothic-6b" transform="translate(193.799973 0)"/>
     <use xlink:href="#NanumGothic-20" transform="translate(245.799957 0)"/>
     <use xlink:href="#NanumGothic-33" transform="translate(273.799942 0)"/>
     <use xlink:href="#NanumGothic-3a" transform="translate(334.399933 0)"/>
     <use xlink:href="#NanumGothic-20" transform="translate(364.699921 0)"/>
     <use xlink:href="#NanumGothic-43" transform="translate(392.699905 0)"/>
     <use xlink:href="#NanumGothic-72" transform="translate(459.899902 0)"/>
     <use xlink:href="#NanumGothic-6f" transform="translate(496.19989 0)"/>
     <use xlink:href="#NanumGothic-73" transform="translate(556.799881 0)"/>
     <use xlink:href="#NanumGothic-73" transform="translate(599.199875 0)"/>
     <use xlink:href="#NanumGothic-2d" transform="translate(641.599869 0)"/>
     <use xlink:href="#NanumGothic-41" transform="translate(677.899857 0)"/>
     <use xlink:href="#NanumGothic-74" transform="translate(750.599838 0)"/>
     <use xlink:href="#NanumGothic-74" transform="translate(786.899826 0)"/>
     <use xlink:href="#NanumGothic-65" transform="translate(823.199814 0)"/>
     <use xlink:href="#NanumGothic-6e" transform="translate(877.699799 0)"/>
     <use xlink:href="#NanumGothic-74" transform="translate(938.299789 0)"/>
     <use xlink:href="#NanumGothic-69" transform="translate(974.599777 0)"/>
     <use xlink:href="#NanumGothic-6f" transform="translate(998.799774 0)"/>
     <use xlink:href="#NanumGothic-6e" transform="translate(1059.399765 0)"/>
    </g>
   </g>
   <g id="text_13">
    <!-- Q ← action,  K,V ← VLM features -->
    <g style="fill: #333333" transform="translate(412.277679 236.952) scale(0.1 -0.1)">
     <use xlink:href="#NanumGothic-51"/>
     <use xlink:href="#NanumGothic-20" transform="translate(78.699982 0)"/>
     <use xlink:href="#NanumGothic-2190" transform="translate(106.699966 0)"/>
     <use xlink:href="#NanumGothic-20" transform="translate(200.699951 0)"/>
     <use xlink:href="#NanumGothic-61" transform="translate(228.699936 0)"/>
     <use xlink:href="#NanumGothic-63" transform="translate(283.199921 0)"/>
     <use xlink:href="#NanumGothic-74" transform="translate(331.599915 0)"/>
     <use xlink:href="#NanumGothic-69" transform="translate(367.899902 0)"/>
     <use xlink:href="#NanumGothic-6f" transform="translate(392.099899 0)"/>
     <use xlink:href="#NanumGothic-6e" transform="translate(452.69989 0)"/>
     <use xlink:href="#NanumGothic-2c" transform="translate(513.299881 0)"/>
     <use xlink:href="#NanumGothic-20" transform="translate(543.599869 0)"/>
     <use xlink:href="#NanumGothic-20" transform="translate(571.599854 0)"/>
     <use xlink:href="#NanumGothic-4b" transform="translate(599.599838 0)"/>
     <use xlink:href="#NanumGothic-2c" transform="translate(663.699829 0)"/>
     <use xlink:href="#NanumGothic-56" transform="translate(693.999817 0)"/>
     <use xlink:href="#NanumGothic-20" transform="translate(760.599808 0)"/>
     <use xlink:href="#NanumGothic-2190" transform="translate(788.599792 0)"/>
     <use xlink:href="#NanumGothic-20" transform="translate(882.599777 0)"/>
     <use xlink:href="#NanumGothic-56" transform="translate(910.599762 0)"/>
     <use xlink:href="#NanumGothic-4c" transform="translate(977.199753 0)"/>
     <use xlink:href="#NanumGothic-4d" transform="translate(1025.599747 0)"/>
     <use xlink:href="#NanumGothic-20" transform="translate(1122.499741 0)"/>
     <use xlink:href="#NanumGothic-66" transform="translate(1150.499725 0)"/>
     <use xlink:href="#NanumGothic-65" transform="translate(1186.799713 0)"/>
     <use xlink:href="#NanumGothic-61" transform="translate(1241.299698 0)"/>
     <use xlink:href="#NanumGothic-74" transform="translate(1295.799683 0)"/>
     <use xlink:href="#NanumGothic-75" transform="translate(1332.09967 0)"/>
     <use xlink:href="#NanumGothic-72" transform="translate(1392.699661 0)"/>
     <use xlink:href="#NanumGothic-65" transform="translate(1428.999649 0)"/>
     <use xlink:href="#NanumGothic-73" transform="translate(1483.499634 0)"/>
    </g>
   </g>
   <g id="text_14">
    <!-- AdaLN(τ) -->
    <g style="fill: #c8694f" transform="translate(745.383496 223.659422) scale(0.09 -0.09)">
     <use xlink:href="#NanumGothic-41"/>
     <use xlink:href="#NanumGothic-64" transform="translate(72.699982 0)"/>
     <use xlink:href="#NanumGothic-61" transform="translate(133.299973 0)"/>
     <use xlink:href="#NanumGothic-4c" transform="translate(187.799957 0)"/>
     <use xlink:href="#NanumGothic-4e" transform="translate(236.199951 0)"/>
     <use xlink:href="#NanumGothic-28" transform="translate(308.899933 0)"/>
     <use xlink:href="#NanumGothic-3c4" transform="translate(345.199921 0)"/>
     <use xlink:href="#NanumGothic-29" transform="translate(389.799911 0)"/>
    </g>
   </g>
   <g id="text_15">
    <!-- Block 4: Self-Attention -->
    <g style="fill: #c8694f" transform="translate(431.340491 117.624) scale(0.11 -0.11)">
     <defs>
      <path id="NanumGothic-34" d="M 2509 1216 
L 2509 4070 
Q 2035 3354 1568 2643 
Q 1101 1933 621 1216 
L 2509 1216 
z
M 2944 -211 
Q 2944 -301 2854 -301 
L 2598 -301 
Q 2509 -301 2509 -211 
L 2509 826 
L 397 826 
Q 262 826 240 848 
Q 218 870 218 1005 
L 218 1203 
Q 218 1261 224 1280 
Q 230 1299 262 1350 
L 2304 4397 
Q 2342 4454 2358 4464 
Q 2374 4474 2445 4474 
L 2765 4474 
Q 2899 4474 2921 4451 
Q 2944 4429 2944 4294 
L 2944 1216 
L 3578 1216 
Q 3667 1216 3667 1126 
L 3667 915 
Q 3667 826 3578 826 
L 2944 826 
L 2944 -211 
z
" transform="scale(0.015625)"/>
     </defs>
     <use xlink:href="#NanumGothic-42"/>
     <use xlink:href="#NanumGothic-6c" transform="translate(60.599991 0)"/>
     <use xlink:href="#NanumGothic-6f" transform="translate(84.799988 0)"/>
     <use xlink:href="#NanumGothic-63" transform="translate(145.399979 0)"/>
     <use xlink:href="#NanumGothic-6b" transform="translate(193.799973 0)"/>
     <use xlink:href="#NanumGothic-20" transform="translate(245.799957 0)"/>
     <use xlink:href="#NanumGothic-34" transform="translate(273.799942 0)"/>
     <use xlink:href="#NanumGothic-3a" transform="translate(334.399933 0)"/>
     <use xlink:href="#NanumGothic-20" transform="translate(364.699921 0)"/>
     <use xlink:href="#NanumGothic-53" transform="translate(392.699905 0)"/>
     <use xlink:href="#NanumGothic-65" transform="translate(447.19989 0)"/>
     <use xlink:href="#NanumGothic-6c" transform="translate(501.699875 0)"/>
     <use xlink:href="#NanumGothic-66" transform="translate(525.899872 0)"/>
     <use xlink:href="#NanumGothic-2d" transform="translate(562.19986 0)"/>
     <use xlink:href="#NanumGothic-41" transform="translate(598.499847 0)"/>
     <use xlink:href="#NanumGothic-74" transform="translate(671.199829 0)"/>
     <use xlink:href="#NanumGothic-74" transform="translate(707.499817 0)"/>
     <use xlink:href="#NanumGothic-65" transform="translate(743.799805 0)"/>
     <use xlink:href="#NanumGothic-6e" transform="translate(798.299789 0)"/>
     <use xlink:href="#NanumGothic-74" transform="translate(858.89978 0)"/>
     <use xlink:href="#NanumGothic-69" transform="translate(895.199768 0)"/>
     <use xlink:href="#NanumGothic-6f" transform="translate(919.399765 0)"/>
     <use xlink:href="#NanumGothic-6e" transform="translate(979.999756 0)"/>
    </g>
   </g>
   <g id="text_16">
    <!-- Q,K,V ← action tokens (causal mask) -->
    <g style="fill: #333333" transform="translate(403.977679 153.528) scale(0.1 -0.1)">
     <use xlink:href="#NanumGothic-51"/>
     <use xlink:href="#NanumGothic-2c" transform="translate(78.699982 0)"/>
     <use xlink:href="#NanumGothic-4b" transform="translate(108.999969 0)"/>
     <use xlink:href="#NanumGothic-2c" transform="translate(173.09996 0)"/>
     <use xlink:href="#NanumGothic-56" transform="translate(203.399948 0)"/>
     <use xlink:href="#NanumGothic-20" transform="translate(269.999939 0)"/>
     <use xlink:href="#NanumGothic-2190" transform="translate(297.999924 0)"/>
     <use xlink:href="#NanumGothic-20" transform="translate(391.999908 0)"/>
     <use xlink:href="#NanumGothic-61" transform="translate(419.999893 0)"/>
     <use xlink:href="#NanumGothic-63" transform="translate(474.499878 0)"/>
     <use xlink:href="#NanumGothic-74" transform="translate(522.899872 0)"/>
     <use xlink:href="#NanumGothic-69" transform="translate(559.19986 0)"/>
     <use xlink:href="#NanumGothic-6f" transform="translate(583.399857 0)"/>
     <use xlink:href="#NanumGothic-6e" transform="translate(643.999847 0)"/>
     <use xlink:href="#NanumGothic-20" transform="translate(704.599838 0)"/>
     <use xlink:href="#NanumGothic-74" transform="translate(732.599823 0)"/>
     <use xlink:href="#NanumGothic-6f" transform="translate(768.899811 0)"/>
     <use xlink:href="#NanumGothic-6b" transform="translate(829.499802 0)"/>
     <use xlink:href="#NanumGothic-65" transform="translate(881.499786 0)"/>
     <use xlink:href="#NanumGothic-6e" transform="translate(935.999771 0)"/>
     <use xlink:href="#NanumGothic-73" transform="translate(996.599762 0)"/>
     <use xlink:href="#NanumGothic-20" transform="translate(1038.999756 0)"/>
     <use xlink:href="#NanumGothic-28" transform="translate(1066.999741 0)"/>
     <use xlink:href="#NanumGothic-63" transform="translate(1103.299728 0)"/>
     <use xlink:href="#NanumGothic-61" transform="translate(1151.699722 0)"/>
     <use xlink:href="#NanumGothic-75" transform="translate(1206.199707 0)"/>
     <use xlink:href="#NanumGothic-73" transform="translate(1266.799698 0)"/>
     <use xlink:href="#NanumGothic-61" transform="translate(1309.199692 0)"/>
     <use xlink:href="#NanumGothic-6c" transform="translate(1363.699677 0)"/>
     <use xlink:href="#NanumGothic-20" transform="translate(1387.899673 0)"/>
     <use xlink:href="#NanumGothic-6d" transform="translate(1415.899658 0)"/>
     <use xlink:href="#NanumGothic-61" transform="translate(1506.699646 0)"/>
     <use xlink:href="#NanumGothic-73" transform="translate(1561.199631 0)"/>
     <use xlink:href="#NanumGothic-6b" transform="translate(1603.599625 0)"/>
     <use xlink:href="#NanumGothic-29" transform="translate(1655.599609 0)"/>
    </g>
   </g>
   <g id="text_17">
    <!-- AdaLN(τ) -->
    <g style="fill: #c8694f" transform="translate(745.383496 140.235422) scale(0.09 -0.09)">
     <use xlink:href="#NanumGothic-41"/>
     <use xlink:href="#NanumGothic-64" transform="translate(72.699982 0)"/>
     <use xlink:href="#NanumGothic-61" transform="translate(133.299973 0)"/>
     <use xlink:href="#NanumGothic-4c" transform="translate(187.799957 0)"/>
     <use xlink:href="#NanumGothic-4e" transform="translate(236.199951 0)"/>
     <use xlink:href="#NanumGothic-28" transform="translate(308.899933 0)"/>
     <use xlink:href="#NanumGothic-3c4" transform="translate(345.199921 0)"/>
     <use xlink:href="#NanumGothic-29" transform="translate(389.799911 0)"/>
    </g>
   </g>
   <g id="text_18">
    <!-- Output: velocity v$_θ$  [n=50, action_dim=7] -->
    <g style="fill: #333333" transform="translate(382.531429 47.477) scale(0.11 -0.11)">
     <defs>
      <path id="NanumGothic-4f" d="M 4160 2093 
Q 4160 2496 4057 2854 
Q 3955 3213 3770 3501 
Q 3546 3814 3235 3984 
Q 2925 4154 2534 4154 
Q 2138 4154 1827 3984 
Q 1517 3814 1293 3501 
Q 1107 3213 1004 2854 
Q 902 2496 902 2093 
Q 902 1690 1004 1328 
Q 1107 966 1293 678 
Q 1523 371 1836 198 
Q 2150 26 2534 26 
Q 2925 26 3235 195 
Q 3546 365 3770 678 
Q 3955 966 4057 1328 
Q 4160 1690 4160 2093 
z
M 4627 2093 
Q 4614 954 4102 314 
Q 3546 -378 2534 -378 
Q 1523 -378 960 314 
Q 435 973 435 2093 
Q 435 2624 563 3053 
Q 691 3482 934 3814 
Q 1222 4166 1628 4361 
Q 2035 4557 2534 4557 
Q 3040 4557 3440 4365 
Q 3840 4173 4128 3808 
Q 4378 3462 4506 3036 
Q 4634 2611 4627 2093 
z
" transform="scale(0.015625)"/>
      <path id="NanumGothic-76" d="M 1843 -192 
Q 1811 -275 1715 -275 
L 1402 -275 
Q 1306 -275 1280 -192 
L 154 3098 
Q 141 3130 160 3158 
Q 179 3187 218 3187 
L 506 3187 
Q 582 3187 621 3098 
L 1568 166 
L 2554 3098 
Q 2566 3136 2598 3161 
Q 2630 3187 2669 3187 
L 2950 3187 
Q 2989 3187 3008 3158 
Q 3027 3130 3014 3098 
L 1843 -192 
z
" transform="scale(0.015625)"/>
      <path id="DejaVuSans-Oblique-3b8" d="M 2913 2219 
L 925 2219 
Q 791 1284 928 888 
Q 1100 400 1566 400 
Q 2034 400 2391 891 
Q 2703 1322 2913 2219 
z
M 3009 2750 
Q 3094 3638 2984 3950 
Q 2813 4444 2353 4444 
Q 1875 4444 1525 3956 
Q 1250 3563 1034 2750 
L 3009 2750 
z
M 2444 4913 
Q 3194 4913 3494 4250 
Q 3794 3591 3566 2422 
Q 3341 1256 2781 594 
Q 2225 -72 1475 -72 
Q 722 -72 425 594 
Q 128 1256 353 2422 
Q 581 3591 1134 4250 
Q 1691 4913 2444 4913 
z
" transform="scale(0.015625)"/>
     </defs>
     <use xlink:href="#NanumGothic-4f" transform="translate(0 0.90625)"/>
     <use xlink:href="#NanumGothic-75" transform="translate(78.699982 0.90625)"/>
     <use xlink:href="#NanumGothic-74" transform="translate(139.299973 0.90625)"/>
     <use xlink:href="#NanumGothic-70" transform="translate(175.59996 0.90625)"/>
     <use xlink:href="#NanumGothic-75" transform="translate(236.199951 0.90625)"/>
     <use xlink:href="#NanumGothic-74" transform="translate(296.799942 0.90625)"/>
     <use xlink:href="#NanumGothic-3a" transform="translate(333.09993 0.90625)"/>
     <use xlink:href="#NanumGothic-20" transform="translate(363.399918 0.90625)"/>
     <use xlink:href="#NanumGothic-76" transform="translate(391.399902 0.90625)"/>
     <use xlink:href="#NanumGothic-65" transform="translate(439.799896 0.90625)"/>
     <use xlink:href="#NanumGothic-6c" transform="translate(494.299881 0.90625)"/>
     <use xlink:href="#NanumGothic-6f" transform="translate(518.499878 0.90625)"/>
     <use xlink:href="#NanumGothic-63" transform="translate(579.099869 0.90625)"/>
     <use xlink:href="#NanumGothic-69" transform="translate(627.499863 0.90625)"/>
     <use xlink:href="#NanumGothic-74" transform="translate(651.69986 0.90625)"/>
     <use xlink:href="#NanumGothic-79" transform="translate(687.999847 0.90625)"/>
     <use xlink:href="#NanumGothic-20" transform="translate(734.399841 0.90625)"/>
     <use xlink:href="#NanumGothic-76" transform="translate(762.399826 0.90625)"/>
     <use xlink:href="#DejaVuSans-Oblique-3b8" transform="translate(811.756851 -15.5) scale(0.7)"/>
     <use xlink:href="#NanumGothic-20" transform="translate(857.318375 0.90625)"/>
     <use xlink:href="#NanumGothic-20" transform="translate(885.318359 0.90625)"/>
     <use xlink:href="#NanumGothic-5b" transform="translate(913.318344 0.90625)"/>
     <use xlink:href="#NanumGothic-6e" transform="translate(949.618332 0.90625)"/>
     <use xlink:href="#NanumGothic-3d" transform="translate(1010.218323 0.90625)"/>
     <use xlink:href="#NanumGothic-35" transform="translate(1075.618317 0.90625)"/>
     <use xlink:href="#NanumGothic-30" transform="translate(1131.218307 0.90625)"/>
     <use xlink:href="#NanumGothic-2c" transform="translate(1191.818298 0.90625)"/>
     <use xlink:href="#NanumGothic-20" transform="translate(1222.118286 0.90625)"/>
     <use xlink:href="#NanumGothic-61" transform="translate(1250.118271 0.90625)"/>
     <use xlink:href="#NanumGothic-63" transform="translate(1304.618256 0.90625)"/>
     <use xlink:href="#NanumGothic-74" transform="translate(1353.01825 0.90625)"/>
     <use xlink:href="#NanumGothic-69" transform="translate(1389.318237 0.90625)"/>
     <use xlink:href="#NanumGothic-6f" transform="translate(1413.518234 0.90625)"/>
     <use xlink:href="#NanumGothic-6e" transform="translate(1474.118225 0.90625)"/>
     <use xlink:href="#NanumGothic-5f" transform="translate(1534.718216 0.90625)"/>
     <use xlink:href="#NanumGothic-64" transform="translate(1589.218201 0.90625)"/>
     <use xlink:href="#NanumGothic-69" transform="translate(1649.818192 0.90625)"/>
     <use xlink:href="#NanumGothic-6d" transform="translate(1674.018188 0.90625)"/>
     <use xlink:href="#NanumGothic-3d" transform="translate(1764.818176 0.90625)"/>
     <use xlink:href="#NanumGothic-37" transform="translate(1830.21817 0.90625)"/>
     <use xlink:href="#NanumGothic-5d" transform="translate(1890.818161 0.90625)"/>
    </g>
   </g>
   <g id="text_19">
    <!-- τ embed -->
    <g style="fill: #c8694f" transform="translate(810.302917 245.4) scale(0.11 -0.11)">
     <defs>
      <path id="NanumGothic-62" d="M 3066 1478 
Q 3072 1747 3017 2003 
Q 2963 2259 2841 2464 
Q 2720 2669 2518 2793 
Q 2317 2918 2022 2918 
Q 1760 2918 1565 2806 
Q 1370 2694 1242 2496 
Q 1114 2298 1050 2035 
Q 986 1773 986 1478 
Q 986 1190 1066 924 
Q 1146 659 1283 460 
Q 1421 262 1609 144 
Q 1798 26 2022 26 
Q 2317 26 2518 150 
Q 2720 275 2841 480 
Q 2963 685 3017 947 
Q 3072 1210 3066 1478 
z
M 557 4749 
Q 557 4838 646 4838 
L 896 4838 
Q 986 4838 986 4749 
L 986 2707 
Q 1146 2970 1440 3126 
Q 1734 3283 2099 3283 
Q 3526 3283 3526 1478 
Q 3533 1120 3453 790 
Q 3373 461 3193 211 
Q 3014 -38 2742 -188 
Q 2470 -339 2099 -339 
Q 1331 -339 986 314 
L 986 -186 
Q 986 -275 896 -275 
L 646 -275 
Q 557 -275 557 -186 
L 557 4749 
z
" transform="scale(0.015625)"/>
     </defs>
     <use xlink:href="#NanumGothic-3c4"/>
     <use xlink:href="#NanumGothic-20" transform="translate(44.599991 0)"/>
     <use xlink:href="#NanumGothic-65" transform="translate(72.599976 0)"/>
     <use xlink:href="#NanumGothic-6d" transform="translate(127.09996 0)"/>
     <use xlink:href="#NanumGothic-62" transform="translate(217.899948 0)"/>
     <use xlink:href="#NanumGothic-65" transform="translate(278.499939 0)"/>
     <use xlink:href="#NanumGothic-64" transform="translate(332.999924 0)"/>
    </g>
   </g>
   <g id="text_20">
    <!-- sinusoidal -->
    <g style="fill: #666666" transform="translate(811.506355 267.194625) scale(0.09 -0.09)">
     <use xlink:href="#NanumGothic-73"/>
     <use xlink:href="#NanumGothic-69" transform="translate(42.399994 0)"/>
     <use xlink:href="#NanumGothic-6e" transform="translate(66.599991 0)"/>
     <use xlink:href="#NanumGothic-75" transform="translate(127.199982 0)"/>
     <use xlink:href="#NanumGothic-73" transform="translate(187.799973 0)"/>
     <use xlink:href="#NanumGothic-6f" transform="translate(230.199966 0)"/>
     <use xlink:href="#NanumGothic-69" transform="translate(290.799957 0)"/>
     <use xlink:href="#NanumGothic-64" transform="translate(314.999954 0)"/>
     <use xlink:href="#NanumGothic-61" transform="translate(375.599945 0)"/>
     <use xlink:href="#NanumGothic-6c" transform="translate(430.09993 0)"/>
    </g>
    <!-- + MLP -->
    <g style="fill: #666666" transform="translate(818.61073 277.08) scale(0.09 -0.09)">
     <defs>
      <path id="NanumGothic-2b" d="M 3846 1971 
Q 3846 1882 3830 1869 
Q 3814 1856 3725 1856 
L 2342 1856 
L 2342 474 
Q 2342 390 2329 377 
Q 2317 365 2234 365 
L 1984 365 
Q 1901 365 1888 377 
Q 1875 390 1875 474 
L 1875 1856 
L 499 1856 
Q 410 1856 394 1869 
Q 378 1882 378 1971 
L 378 2202 
Q 378 2291 394 2304 
Q 410 2317 499 2317 
L 1875 2317 
L 1875 3686 
Q 1875 3776 1891 3789 
Q 1907 3802 1997 3802 
L 2221 3802 
Q 2310 3802 2326 3789 
Q 2342 3776 2342 3686 
L 2342 2317 
L 3725 2317 
Q 3814 2317 3830 2304 
Q 3846 2291 3846 2202 
L 3846 1971 
z
" transform="scale(0.015625)"/>
      <path id="NanumGothic-50" d="M 3008 3123 
Q 3008 3578 2771 3824 
Q 2534 4070 2074 4070 
L 1114 4070 
L 1114 2157 
L 1632 2157 
Q 1939 2157 2185 2189 
Q 2432 2221 2608 2323 
Q 2784 2426 2886 2614 
Q 2989 2803 3008 3123 
z
M 1114 -186 
Q 1114 -275 1024 -275 
L 736 -275 
Q 646 -275 646 -186 
L 646 4282 
Q 646 4422 675 4448 
Q 704 4474 838 4474 
L 1978 4474 
Q 2682 4474 3078 4134 
Q 3488 3782 3488 3123 
Q 3488 2790 3369 2531 
Q 3251 2272 3040 2096 
Q 2829 1920 2541 1830 
Q 2253 1741 1926 1754 
L 1114 1754 
L 1114 -186 
z
" transform="scale(0.015625)"/>
     </defs>
     <use xlink:href="#NanumGothic-2b"/>
     <use xlink:href="#NanumGothic-20" transform="translate(65.399994 0)"/>
     <use xlink:href="#NanumGothic-4d" transform="translate(93.399979 0)"/>
     <use xlink:href="#NanumGothic-4c" transform="translate(190.299973 0)"/>
     <use xlink:href="#NanumGothic-50" transform="translate(238.699966 0)"/>
    </g>
   </g>
   <g id="text_21">
    <!-- CA (Cross-Attention with VLM features) → SA (causal Self-Attention within action chunk) → repeat -->
    <g style="fill: #666666" transform="translate(205.052656 26.2) scale(0.11 -0.11)">
     <defs>
      <path id="NanumGothic-77" d="M 4218 -205 
Q 4198 -275 4115 -275 
L 3738 -275 
Q 3661 -275 3635 -205 
L 2726 2739 
Q 2490 1997 2253 1267 
Q 2016 538 1779 -198 
Q 1760 -275 1664 -275 
L 1312 -275 
Q 1267 -275 1238 -262 
Q 1210 -250 1197 -198 
L 128 3098 
Q 115 3130 134 3158 
Q 154 3187 192 3187 
L 486 3187 
Q 563 3187 602 3098 
L 1510 179 
Q 1747 915 1974 1622 
Q 2202 2330 2438 3066 
Q 2470 3187 2586 3187 
L 2886 3187 
Q 3008 3187 3040 3066 
L 3930 179 
Q 4173 934 4400 1638 
Q 4627 2342 4870 3098 
Q 4883 3136 4915 3161 
Q 4947 3187 4986 3187 
L 5242 3187 
Q 5280 3187 5299 3158 
Q 5318 3130 5306 3098 
L 4218 -205 
z
" transform="scale(0.015625)"/>
      <path id="NanumGothic-2192" d="M 5888 1920 
L 4730 877 
L 5197 1843 
L 128 1843 
L 128 1997 
L 5197 1997 
L 4730 2963 
L 5888 1920 
z
" transform="scale(0.015625)"/>
     </defs>
     <use xlink:href="#NanumGothic-43"/>
     <use xlink:href="#NanumGothic-41" transform="translate(67.199997 0)"/>
     <use xlink:href="#NanumGothic-20" transform="translate(139.899979 0)"/>
     <use xlink:href="#NanumGothic-28" transform="translate(167.899963 0)"/>
     <use xlink:href="#NanumGothic-43" transform="translate(204.199951 0)"/>
     <use xlink:href="#NanumGothic-72" transform="translate(271.399948 0)"/>
     <use xlink:href="#NanumGothic-6f" transform="translate(307.699936 0)"/>
     <use xlink:href="#NanumGothic-73" transform="translate(368.299927 0)"/>
     <use xlink:href="#NanumGothic-73" transform="translate(410.699921 0)"/>
     <use xlink:href="#NanumGothic-2d" transform="translate(453.099915 0)"/>
     <use xlink:href="#NanumGothic-41" transform="translate(489.399902 0)"/>
     <use xlink:href="#NanumGothic-74" transform="translate(562.099884 0)"/>
     <use xlink:href="#NanumGothic-74" transform="translate(598.399872 0)"/>
     <use xlink:href="#NanumGothic-65" transform="translate(634.69986 0)"/>
     <use xlink:href="#NanumGothic-6e" transform="translate(689.199844 0)"/>
     <use xlink:href="#NanumGothic-74" transform="translate(749.799835 0)"/>
     <use xlink:href="#NanumGothic-69" transform="translate(786.099823 0)"/>
     <use xlink:href="#NanumGothic-6f" transform="translate(810.29982 0)"/>
     <use xlink:href="#NanumGothic-6e" transform="translate(870.899811 0)"/>
     <use xlink:href="#NanumGothic-20" transform="translate(931.499802 0)"/>
     <use xlink:href="#NanumGothic-77" transform="translate(959.499786 0)"/>
     <use xlink:href="#NanumGothic-69" transform="translate(1044.299774 0)"/>
     <use xlink:href="#NanumGothic-74" transform="translate(1068.499771 0)"/>
     <use xlink:href="#NanumGothic-68" transform="translate(1104.799759 0)"/>
     <use xlink:href="#NanumGothic-20" transform="translate(1165.39975 0)"/>
     <use xlink:href="#NanumGothic-56" transform="translate(1193.399734 0)"/>
     <use xlink:href="#NanumGothic-4c" transform="translate(1259.999725 0)"/>
     <use xlink:href="#NanumGothic-4d" transform="translate(1308.399719 0)"/>
     <use xlink:href="#NanumGothic-20" transform="translate(1405.299713 0)"/>
     <use xlink:href="#NanumGothic-66" transform="translate(1433.299698 0)"/>
     <use xlink:href="#NanumGothic-65" transform="translate(1469.599686 0)"/>
     <use xlink:href="#NanumGothic-61" transform="translate(1524.09967 0)"/>
     <use xlink:href="#NanumGothic-74" transform="translate(1578.599655 0)"/>
     <use xlink:href="#NanumGothic-75" transform="translate(1614.899643 0)"/>
     <use xlink:href="#NanumGothic-72" transform="translate(1675.499634 0)"/>
     <use xlink:href="#NanumGothic-65" transform="translate(1711.799622 0)"/>
     <use xlink:href="#NanumGothic-73" transform="translate(1766.299606 0)"/>
     <use xlink:href="#NanumGothic-29" transform="translate(1808.6996 0)"/>
     <use xlink:href="#NanumGothic-20" transform="translate(1844.999588 0)"/>
     <use xlink:href="#NanumGothic-2192" transform="translate(1872.999573 0)"/>
     <use xlink:href="#NanumGothic-20" transform="translate(1966.999557 0)"/>
     <use xlink:href="#NanumGothic-53" transform="translate(1994.999542 0)"/>
     <use xlink:href="#NanumGothic-41" transform="translate(2049.499527 0)"/>
     <use xlink:href="#NanumGothic-20" transform="translate(2122.199509 0)"/>
     <use xlink:href="#NanumGothic-28" transform="translate(2150.199493 0)"/>
     <use xlink:href="#NanumGothic-63" transform="translate(2186.499481 0)"/>
     <use xlink:href="#NanumGothic-61" transform="translate(2234.899475 0)"/>
     <use xlink:href="#NanumGothic-75" transform="translate(2289.39946 0)"/>
     <use xlink:href="#NanumGothic-73" transform="translate(2349.999451 0)"/>
     <use xlink:href="#NanumGothic-61" transform="translate(2392.399445 0)"/>
     <use xlink:href="#NanumGothic-6c" transform="translate(2446.899429 0)"/>
     <use xlink:href="#NanumGothic-20" transform="translate(2471.099426 0)"/>
     <use xlink:href="#NanumGothic-53" transform="translate(2499.099411 0)"/>
     <use xlink:href="#NanumGothic-65" transform="translate(2553.599396 0)"/>
     <use xlink:href="#NanumGothic-6c" transform="translate(2608.09938 0)"/>
     <use xlink:href="#NanumGothic-66" transform="translate(2632.299377 0)"/>
     <use xlink:href="#NanumGothic-2d" transform="translate(2668.599365 0)"/>
     <use xlink:href="#NanumGothic-41" transform="translate(2704.899353 0)"/>
     <use xlink:href="#NanumGothic-74" transform="translate(2777.599335 0)"/>
     <use xlink:href="#NanumGothic-74" transform="translate(2813.899323 0)"/>
     <use xlink:href="#NanumGothic-65" transform="translate(2850.19931 0)"/>
     <use xlink:href="#NanumGothic-6e" transform="translate(2904.699295 0)"/>
     <use xlink:href="#NanumGothic-74" transform="translate(2965.299286 0)"/>
     <use xlink:href="#NanumGothic-69" transform="translate(3001.599274 0)"/>
     <use xlink:href="#NanumGothic-6f" transform="translate(3025.799271 0)"/>
     <use xlink:href="#NanumGothic-6e" transform="translate(3086.399261 0)"/>
     <use xlink:href="#NanumGothic-20" transform="translate(3146.999252 0)"/>
     <use xlink:href="#NanumGothic-77" transform="translate(3174.999237 0)"/>
     <use xlink:href="#NanumGothic-69" transform="translate(3259.799225 0)"/>
     <use xlink:href="#NanumGothic-74" transform="translate(3283.999222 0)"/>
     <use xlink:href="#NanumGothic-68" transform="translate(3320.29921 0)"/>
     <use xlink:href="#NanumGothic-69" transform="translate(3380.8992 0)"/>
     <use xlink:href="#NanumGothic-6e" transform="translate(3405.099197 0)"/>
     <use xlink:href="#NanumGothic-20" transform="translate(3465.699188 0)"/>
     <use xlink:href="#NanumGothic-61" transform="translate(3493.699173 0)"/>
     <use xlink:href="#NanumGothic-63" transform="translate(3548.199158 0)"/>
     <use xlink:href="#NanumGothic-74" transform="translate(3596.599152 0)"/>
     <use xlink:href="#NanumGothic-69" transform="translate(3632.899139 0)"/>
     <use xlink:href="#NanumGothic-6f" transform="translate(3657.099136 0)"/>
     <use xlink:href="#NanumGothic-6e" transform="translate(3717.699127 0)"/>
     <use xlink:href="#NanumGothic-20" transform="translate(3778.299118 0)"/>
     <use xlink:href="#NanumGothic-63" transform="translate(3806.299103 0)"/>
     <use xlink:href="#NanumGothic-68" transform="translate(3854.699097 0)"/>
     <use xlink:href="#NanumGothic-75" transform="translate(3915.299088 0)"/>
     <use xlink:href="#NanumGothic-6e" transform="translate(3975.899078 0)"/>
     <use xlink:href="#NanumGothic-6b" transform="translate(4036.499069 0)"/>
     <use xlink:href="#NanumGothic-29" transform="translate(4088.499054 0)"/>
     <use xlink:href="#NanumGothic-20" transform="translate(4124.799042 0)"/>
     <use xlink:href="#NanumGothic-2192" transform="translate(4152.799026 0)"/>
     <use xlink:href="#NanumGothic-20" transform="translate(4246.799011 0)"/>
     <use xlink:href="#NanumGothic-72" transform="translate(4274.798996 0)"/>
     <use xlink:href="#NanumGothic-65" transform="translate(4311.098984 0)"/>
     <use xlink:href="#NanumGothic-70" transform="translate(4365.598969 0)"/>
     <use xlink:href="#NanumGothic-65" transform="translate(4426.198959 0)"/>
     <use xlink:href="#NanumGothic-61" transform="translate(4480.698944 0)"/>
     <use xlink:href="#NanumGothic-74" transform="translate(4535.198929 0)"/>
    </g>
   </g>
  </g>
  <g id="text_22">
   <!-- SmolVLA Action Expert: Interleaved CA + SA blocks -->
   <g transform="translate(290.406094 17.783125) scale(0.14 -0.14)">
    <defs>
     <path id="NanumGothic-45" d="M 826 -282 
Q 691 -282 668 -259 
Q 646 -237 646 -102 
L 646 4307 
Q 646 4429 668 4451 
Q 691 4474 813 4474 
L 3034 4474 
Q 3123 4474 3123 4384 
L 3123 4160 
Q 3123 4070 3034 4070 
L 1114 4070 
L 1114 2381 
L 2938 2381 
Q 3027 2381 3027 2291 
L 3027 2061 
Q 3027 1971 2938 1971 
L 1114 1971 
L 1114 128 
L 3110 128 
Q 3200 128 3200 38 
L 3200 -192 
Q 3200 -282 3110 -282 
L 826 -282 
z
" transform="scale(0.015625)"/>
     <path id="NanumGothic-78" d="M 3046 -186 
Q 3066 -218 3050 -246 
Q 3034 -275 2995 -275 
L 2637 -275 
Q 2560 -275 2509 -186 
L 1645 1222 
L 717 -186 
Q 659 -275 589 -275 
L 269 -275 
Q 230 -275 214 -246 
Q 198 -218 218 -186 
L 1389 1562 
L 339 3098 
Q 320 3130 336 3158 
Q 352 3187 390 3187 
L 742 3187 
Q 819 3187 870 3098 
L 1645 1894 
L 2432 3098 
Q 2490 3187 2560 3187 
L 2874 3187 
Q 2912 3187 2928 3158 
Q 2944 3130 2925 3098 
L 1901 1562 
L 3046 -186 
z
" transform="scale(0.015625)"/>
     <path id="NanumGothic-49" d="M 1069 -186 
Q 1069 -275 979 -275 
L 672 -275 
Q 582 -275 582 -186 
L 582 4371 
Q 582 4461 672 4461 
L 979 4461 
Q 1069 4461 1069 4371 
L 1069 -186 
z
" transform="scale(0.015625)"/>
    </defs>
    <use xlink:href="#NanumGothic-53"/>
    <use xlink:href="#NanumGothic-6d" transform="translate(54.499985 0)"/>
    <use xlink:href="#NanumGothic-6f" transform="translate(145.299973 0)"/>
    <use xlink:href="#NanumGothic-6c" transform="translate(205.899963 0)"/>
    <use xlink:href="#NanumGothic-56" transform="translate(230.09996 0)"/>
    <use xlink:href="#NanumGothic-4c" transform="translate(296.699951 0)"/>
    <use xlink:href="#NanumGothic-41" transform="translate(345.099945 0)"/>
    <use xlink:href="#NanumGothic-20" transform="translate(417.799927 0)"/>
    <use xlink:href="#NanumGothic-41" transform="translate(445.799911 0)"/>
    <use xlink:href="#NanumGothic-63" transform="translate(518.499893 0)"/>
    <use xlink:href="#NanumGothic-74" transform="translate(566.899887 0)"/>
    <use xlink:href="#NanumGothic-69" transform="translate(603.199875 0)"/>
    <use xlink:href="#NanumGothic-6f" transform="translate(627.399872 0)"/>
    <use xlink:href="#NanumGothic-6e" transform="translate(687.999863 0)"/>
    <use xlink:href="#NanumGothic-20" transform="translate(748.599854 0)"/>
    <use xlink:href="#NanumGothic-45" transform="translate(776.599838 0)"/>
    <use xlink:href="#NanumGothic-78" transform="translate(834.199829 0)"/>
    <use xlink:href="#NanumGothic-70" transform="translate(885.199814 0)"/>
    <use xlink:href="#NanumGothic-65" transform="translate(945.799805 0)"/>
    <use xlink:href="#NanumGothic-72" transform="translate(1000.299789 0)"/>
    <use xlink:href="#NanumGothic-74" transform="translate(1036.599777 0)"/>
    <use xlink:href="#NanumGothic-3a" transform="translate(1072.899765 0)"/>
    <use xlink:href="#NanumGothic-20" transform="translate(1103.199753 0)"/>
    <use xlink:href="#NanumGothic-49" transform="translate(1131.199738 0)"/>
    <use xlink:href="#NanumGothic-6e" transform="translate(1155.399734 0)"/>
    <use xlink:href="#NanumGothic-74" transform="translate(1215.999725 0)"/>
    <use xlink:href="#NanumGothic-65" transform="translate(1252.299713 0)"/>
    <use xlink:href="#NanumGothic-72" transform="translate(1306.799698 0)"/>
    <use xlink:href="#NanumGothic-6c" transform="translate(1343.099686 0)"/>
    <use xlink:href="#NanumGothic-65" transform="translate(1367.299683 0)"/>
    <use xlink:href="#NanumGothic-61" transform="translate(1421.799667 0)"/>
    <use xlink:href="#NanumGothic-76" transform="translate(1476.299652 0)"/>
    <use xlink:href="#NanumGothic-65" transform="translate(1524.699646 0)"/>
    <use xlink:href="#NanumGothic-64" transform="translate(1579.199631 0)"/>
    <use xlink:href="#NanumGothic-20" transform="translate(1639.799622 0)"/>
    <use xlink:href="#NanumGothic-43" transform="translate(1667.799606 0)"/>
    <use xlink:href="#NanumGothic-41" transform="translate(1734.999603 0)"/>
    <use xlink:href="#NanumGothic-20" transform="translate(1807.699585 0)"/>
    <use xlink:href="#NanumGothic-2b" transform="translate(1835.69957 0)"/>
    <use xlink:href="#NanumGothic-20" transform="translate(1901.099564 0)"/>
    <use xlink:href="#NanumGothic-53" transform="translate(1929.099548 0)"/>
    <use xlink:href="#NanumGothic-41" transform="translate(1983.599533 0)"/>
    <use xlink:href="#NanumGothic-20" transform="translate(2056.299515 0)"/>
    <use xlink:href="#NanumGothic-62" transform="translate(2084.2995 0)"/>
    <use xlink:href="#NanumGothic-6c" transform="translate(2144.89949 0)"/>
    <use xlink:href="#NanumGothic-6f" transform="translate(2169.099487 0)"/>
    <use xlink:href="#NanumGothic-63" transform="translate(2229.699478 0)"/>
    <use xlink:href="#NanumGothic-6b" transform="translate(2278.099472 0)"/>
    <use xlink:href="#NanumGothic-73" transform="translate(2330.099457 0)"/>
   </g>
  </g>
 </g>
 <defs>
  <clipPath id="p73ee1f523f">
   <rect x="7.2" y="34.2" width="898.56" height="475.2"/>
  </clipPath>
 </defs>
</svg>
