<?xml version="1.0" encoding="utf-8" standalone="no"?>
<!DOCTYPE svg PUBLIC "-//W3C//DTD SVG 1.1//EN"
  "http://www.w3.org/Graphics/SVG/1.1/DTD/svg11.dtd">
<svg xmlns:xlink="http://www.w3.org/1999/xlink" width="748.8pt" height="388.239688pt" viewBox="0 0 748.8 388.239688" xmlns="http://www.w3.org/2000/svg" version="1.1">
 <metadata>
  <rdf:RDF xmlns:dc="http://purl.org/dc/elements/1.1/" xmlns:cc="http://creativecommons.org/ns#" xmlns:rdf="http://www.w3.org/1999/02/22-rdf-syntax-ns#">
   <cc:Work>
    <dc:type rdf:resource="http://purl.org/dc/dcmitype/StillImage"/>
    <dc:date>2026-05-29T09:08:01.371290</dc:date>
    <dc:format>image/svg+xml</dc:format>
    <dc:creator>
     <cc:Agent>
      <dc:title>Matplotlib v3.10.9, https://matplotlib.org/</dc:title>
     </cc:Agent>
    </dc:creator>
   </cc:Work>
  </rdf:RDF>
 </metadata>
 <defs>
  <style type="text/css">*{stroke-linejoin: round; stroke-linecap: butt}</style>
 </defs>
 <g id="figure_1">
  <g id="patch_1">
   <path d="M 0 388.239688 
L 748.8 388.239688 
L 748.8 0 
L 0 0 
z
" style="fill: #ffffff"/>
  </g>
  <g id="axes_1">
   <g id="patch_2">
    <path d="M 7.2 177.48 
L 741.6 177.48 
L 741.6 50.76 
L 7.2 50.76 
z
" style="fill: #ffffff"/>
   </g>
   <g id="patch_3">
    <path d="M 7.2 151.08 
L 103.28972 151.08 
L 103.28972 98.28 
L 7.2 98.28 
z
" clip-path="url(#p7d374e4138)" style="fill: #e7e6e2; stroke: #7a7a7a; stroke-linejoin: miter"/>
   </g>
   <g id="patch_4">
    <path d="M 103.28972 151.08 
L 240.560748 151.08 
L 240.560748 98.28 
L 103.28972 98.28 
z
" clip-path="url(#p7d374e4138)" style="fill: #d8eee0; stroke: #3da084; stroke-linejoin: miter"/>
   </g>
   <g id="patch_5">
    <path d="M 240.560748 151.08 
L 336.650467 151.08 
L 336.650467 98.28 
L 240.560748 98.28 
z
" clip-path="url(#p7d374e4138)" style="fill: #e7e6e2; stroke: #7a7a7a; stroke-linejoin: miter"/>
   </g>
   <g id="patch_6">
    <path d="M 336.650467 151.08 
L 473.921495 151.08 
L 473.921495 98.28 
L 336.650467 98.28 
z
" clip-path="url(#p7d374e4138)" style="fill: #d8eee0; stroke: #3da084; stroke-linejoin: miter"/>
   </g>
   <g id="patch_7">
    <path d="M 473.921495 151.08 
L 570.011215 151.08 
L 570.011215 98.28 
L 473.921495 98.28 
z
" clip-path="url(#p7d374e4138)" style="fill: #e7e6e2; stroke: #7a7a7a; stroke-linejoin: miter"/>
   </g>
   <g id="patch_8">
    <path d="M 570.011215 151.08 
L 707.282243 151.08 
L 707.282243 98.28 
L 570.011215 98.28 
z
" clip-path="url(#p7d374e4138)" style="fill: #d8eee0; stroke: #3da084; stroke-linejoin: miter"/>
   </g>
   <g id="matplotlib.axis_1">
    <g id="text_1">
     <!-- time → -->
     <g transform="translate(358.010156 189.000312) scale(0.1 -0.1)">
      <defs>
       <path id="NanumGothic-74" d="M 2208 -282 
Q 1939 -378 1677 -378 
Q 1158 -378 992 -38 
Q 883 192 883 774 
L 883 2816 
L 282 2816 
Q 192 2816 192 2906 
L 192 3098 
Q 192 3187 282 3187 
L 883 3187 
L 883 4051 
Q 883 4147 966 4147 
L 1235 4147 
Q 1318 4147 1318 4051 
L 1318 3187 
L 2029 3187 
Q 2118 3187 2118 3098 
L 2118 2906 
Q 2118 2816 2029 2816 
L 1318 2816 
L 1318 557 
Q 1318 -13 1779 -13 
Q 1958 -13 2182 64 
Q 2214 77 2243 64 
Q 2272 51 2272 13 
L 2285 -154 
Q 2298 -243 2208 -282 
z
" transform="scale(0.015625)"/>
       <path id="NanumGothic-69" d="M 1050 -186 
Q 1050 -275 960 -275 
L 678 -275 
Q 589 -275 589 -186 
L 589 3098 
Q 589 3187 678 3187 
L 960 3187 
Q 1050 3187 1050 3098 
L 1050 -186 
z
M 506 4397 
Q 506 4525 595 4617 
Q 685 4710 813 4710 
Q 941 4710 1033 4617 
Q 1126 4525 1126 4397 
Q 1126 4269 1033 4179 
Q 941 4090 813 4090 
Q 685 4090 595 4179 
Q 506 4269 506 4397 
z
" transform="scale(0.015625)"/>
       <path id="NanumGothic-6d" d="M 602 2374 
Q 602 2643 595 2800 
Q 589 2957 576 3098 
Q 576 3187 666 3187 
L 902 3187 
Q 992 3187 992 3098 
L 992 2752 
Q 1139 2989 1388 3126 
Q 1638 3264 2003 3264 
Q 2387 3264 2675 3075 
Q 2963 2886 3027 2522 
Q 3162 2886 3459 3075 
Q 3757 3264 4147 3264 
Q 4397 3264 4598 3174 
Q 4800 3085 4944 2928 
Q 5088 2771 5165 2560 
Q 5242 2349 5242 2112 
L 5242 -186 
Q 5242 -275 5152 -275 
L 4909 -275 
Q 4819 -275 4819 -192 
L 4819 2022 
Q 4819 2899 4083 2899 
Q 3859 2899 3683 2800 
Q 3507 2701 3382 2528 
Q 3258 2355 3197 2124 
Q 3136 1894 3142 1638 
L 3142 -186 
Q 3142 -275 3053 -275 
L 2797 -275 
Q 2707 -275 2707 -186 
L 2707 2022 
Q 2707 2899 1965 2899 
Q 1530 2899 1280 2617 
Q 1030 2336 1030 1875 
L 1030 -186 
Q 1030 -275 941 -275 
L 691 -275 
Q 602 -275 602 -186 
L 602 2374 
z
" transform="scale(0.015625)"/>
       <path id="NanumGothic-65" d="M 2733 1696 
Q 2733 1958 2681 2163 
Q 2630 2368 2522 2534 
Q 2285 2912 1837 2912 
Q 1376 2912 1088 2528 
Q 973 2355 896 2131 
Q 819 1907 813 1696 
L 2733 1696 
z
M 813 1331 
Q 806 1011 886 764 
Q 966 518 1120 352 
Q 1274 186 1488 96 
Q 1702 6 1965 6 
Q 2221 6 2445 54 
Q 2669 102 2861 211 
Q 2944 250 2944 166 
L 2944 -122 
Q 2944 -179 2874 -211 
Q 2662 -294 2432 -336 
Q 2202 -378 1933 -378 
Q 1146 -378 742 80 
Q 339 538 339 1459 
Q 339 2272 742 2771 
Q 1165 3277 1811 3277 
Q 2170 3277 2432 3149 
Q 2694 3021 2880 2765 
Q 3206 2310 3206 1549 
Q 3206 1466 3203 1421 
Q 3200 1376 3181 1357 
Q 3162 1338 3114 1334 
Q 3066 1331 2976 1331 
L 813 1331 
z
" transform="scale(0.015625)"/>
       <path id="NanumGothic-20" transform="scale(0.015625)"/>
       <path id="NanumGothic-2192" d="M 5888 1920 
L 4730 877 
L 5197 1843 
L 128 1843 
L 128 1997 
L 5197 1997 
L 4730 2963 
L 5888 1920 
z
" transform="scale(0.015625)"/>
      </defs>
      <use xlink:href="#NanumGothic-74"/>
      <use xlink:href="#NanumGothic-69" transform="translate(36.299988 0)"/>
      <use xlink:href="#NanumGothic-6d" transform="translate(60.499985 0)"/>
      <use xlink:href="#NanumGothic-65" transform="translate(151.299973 0)"/>
      <use xlink:href="#NanumGothic-20" transform="translate(205.799957 0)"/>
      <use xlink:href="#NanumGothic-2192" transform="translate(233.799942 0)"/>
     </g>
    </g>
   </g>
   <g id="matplotlib.axis_2"/>
   <g id="patch_9">
    <path d="M 7.2 177.48 
L 741.6 177.48 
" style="fill: none; stroke: #000000; stroke-width: 0.8; stroke-linejoin: miter; stroke-linecap: square"/>
   </g>
   <g id="text_2">
    <!-- inference -->
    <g style="fill: #333333" transform="translate(35.899782 127.182422) scale(0.09 -0.09)">
     <defs>
      <path id="NanumGothic-6e" d="M 3334 -186 
Q 3334 -275 3245 -275 
L 2989 -275 
Q 2899 -275 2899 -186 
L 2899 1830 
Q 2899 2419 2688 2665 
Q 2477 2912 2093 2912 
Q 1574 2912 1302 2624 
Q 1030 2336 1030 1818 
L 1030 -186 
Q 1030 -275 941 -275 
L 685 -275 
Q 595 -275 595 -186 
L 595 2374 
Q 595 2650 592 2803 
Q 589 2957 576 3098 
Q 570 3142 598 3164 
Q 627 3187 666 3187 
L 896 3187 
Q 986 3187 986 3098 
L 986 2746 
Q 1165 3021 1417 3149 
Q 1670 3277 2112 3277 
Q 2720 3277 3027 2925 
Q 3334 2573 3334 1933 
L 3334 -186 
z
" transform="scale(0.015625)"/>
      <path id="NanumGothic-66" d="M 2144 4870 
Q 2227 4845 2221 4736 
L 2208 4550 
Q 2202 4512 2176 4502 
Q 2150 4493 2118 4506 
Q 2048 4531 1990 4540 
Q 1933 4550 1856 4550 
Q 1478 4550 1370 4173 
Q 1325 4019 1325 3494 
L 1325 3187 
L 2029 3187 
Q 2118 3187 2118 3098 
L 2118 2906 
Q 2118 2816 2029 2816 
L 1325 2816 
L 1325 -186 
Q 1325 -275 1235 -275 
L 986 -275 
Q 896 -275 896 -186 
L 896 2816 
L 275 2816 
Q 186 2816 186 2906 
L 186 3098 
Q 186 3187 275 3187 
L 896 3187 
L 896 3450 
Q 896 4147 1024 4454 
Q 1222 4915 1818 4915 
Q 2003 4915 2144 4870 
z
" transform="scale(0.015625)"/>
      <path id="NanumGothic-72" d="M 2221 2797 
Q 2106 2835 1914 2835 
Q 1440 2835 1210 2368 
Q 1030 2003 1030 1434 
L 1030 -186 
Q 1030 -275 941 -275 
L 691 -275 
Q 602 -275 602 -186 
L 602 2413 
Q 602 2643 598 2787 
Q 595 2931 589 3098 
Q 589 3187 678 3187 
L 915 3187 
Q 1005 3187 1005 3098 
L 1005 2470 
Q 1318 3277 1926 3277 
Q 2074 3277 2221 3238 
Q 2259 3226 2288 3197 
Q 2317 3168 2317 3117 
L 2317 2848 
Q 2317 2810 2285 2797 
Q 2253 2784 2221 2797 
z
" transform="scale(0.015625)"/>
      <path id="NanumGothic-63" d="M 2816 -301 
Q 2624 -333 2445 -345 
Q 2266 -358 2016 -358 
Q 1619 -358 1308 -217 
Q 998 -77 784 166 
Q 570 410 454 742 
Q 339 1075 339 1459 
Q 339 1850 460 2179 
Q 582 2509 809 2749 
Q 1037 2989 1353 3126 
Q 1670 3264 2067 3264 
Q 2278 3264 2451 3248 
Q 2624 3232 2822 3187 
Q 2912 3162 2906 3066 
L 2886 2861 
Q 2874 2784 2790 2803 
Q 2624 2854 2470 2876 
Q 2317 2899 2131 2899 
Q 1805 2899 1558 2793 
Q 1312 2688 1145 2496 
Q 979 2304 896 2038 
Q 813 1773 813 1459 
Q 813 1171 899 908 
Q 986 646 1149 444 
Q 1312 243 1545 124 
Q 1779 6 2080 6 
Q 2304 6 2451 25 
Q 2598 45 2784 96 
Q 2880 122 2886 51 
L 2906 -186 
Q 2912 -282 2816 -301 
z
" transform="scale(0.015625)"/>
     </defs>
     <use xlink:href="#NanumGothic-69"/>
     <use xlink:href="#NanumGothic-6e" transform="translate(24.199997 0)"/>
     <use xlink:href="#NanumGothic-66" transform="translate(84.799988 0)"/>
     <use xlink:href="#NanumGothic-65" transform="translate(121.099976 0)"/>
     <use xlink:href="#NanumGothic-72" transform="translate(175.59996 0)"/>
     <use xlink:href="#NanumGothic-65" transform="translate(211.899948 0)"/>
     <use xlink:href="#NanumGothic-6e" transform="translate(266.399933 0)"/>
     <use xlink:href="#NanumGothic-63" transform="translate(326.999924 0)"/>
     <use xlink:href="#NanumGothic-65" transform="translate(375.399918 0)"/>
    </g>
   </g>
   <g id="text_3">
    <!-- action chunk -->
    <g style="fill: #333333" transform="translate(145.160077 127.182422) scale(0.09 -0.09)">
     <defs>
      <path id="NanumGothic-61" d="M 2566 1530 
L 2445 1530 
Q 2086 1542 1808 1500 
Q 1530 1459 1344 1389 
Q 1075 1293 940 1104 
Q 806 915 806 653 
Q 806 493 857 355 
Q 909 218 1018 141 
Q 1210 -13 1530 -13 
Q 1754 -13 1942 76 
Q 2131 166 2272 332 
Q 2413 499 2489 745 
Q 2566 992 2566 1312 
L 2566 1530 
z
M 742 2650 
Q 710 2630 681 2640 
Q 653 2650 653 2682 
L 653 2925 
Q 653 3014 742 3059 
Q 966 3181 1219 3229 
Q 1472 3277 1773 3277 
Q 2413 3277 2707 2973 
Q 3002 2669 3002 2054 
L 3002 448 
Q 3002 256 3008 105 
Q 3014 -45 3027 -186 
Q 3027 -275 2938 -275 
L 2707 -275 
Q 2618 -275 2618 -186 
L 2618 307 
Q 2483 -19 2166 -198 
Q 1850 -378 1478 -378 
Q 832 -378 531 0 
Q 429 128 377 297 
Q 326 467 326 634 
Q 326 1024 508 1305 
Q 691 1587 1069 1728 
Q 1530 1894 2483 1894 
L 2566 1894 
L 2566 2086 
Q 2566 2490 2384 2701 
Q 2202 2912 1773 2912 
Q 1485 2912 1229 2851 
Q 973 2790 742 2650 
z
" transform="scale(0.015625)"/>
      <path id="NanumGothic-6f" d="M 3130 1453 
Q 3130 1754 3050 2016 
Q 2970 2278 2829 2483 
Q 2496 2893 1965 2893 
Q 1696 2893 1481 2787 
Q 1267 2682 1101 2483 
Q 954 2278 874 2016 
Q 794 1754 794 1453 
Q 794 1146 874 883 
Q 954 621 1101 422 
Q 1440 6 1965 6 
Q 2234 6 2448 115 
Q 2662 224 2829 422 
Q 2970 621 3050 883 
Q 3130 1146 3130 1453 
z
M 3603 1453 
Q 3603 1075 3494 752 
Q 3386 429 3206 186 
Q 2982 -83 2672 -230 
Q 2362 -378 1965 -378 
Q 1568 -378 1254 -230 
Q 941 -83 717 186 
Q 538 429 432 752 
Q 326 1075 326 1453 
Q 326 2227 717 2720 
Q 1165 3277 1965 3277 
Q 2368 3277 2675 3139 
Q 2982 3002 3206 2720 
Q 3603 2214 3603 1453 
z
" transform="scale(0.015625)"/>
      <path id="NanumGothic-68" d="M 3334 -186 
Q 3334 -275 3245 -275 
L 2989 -275 
Q 2899 -275 2899 -186 
L 2899 1786 
Q 2899 2093 2844 2307 
Q 2790 2522 2688 2653 
Q 2586 2784 2438 2841 
Q 2291 2899 2112 2899 
Q 1587 2899 1308 2649 
Q 1030 2400 1030 1958 
L 1030 -186 
Q 1030 -275 941 -275 
L 685 -275 
Q 595 -275 595 -186 
L 595 4730 
Q 595 4819 685 4819 
L 941 4819 
Q 1030 4819 1030 4730 
L 1030 2874 
Q 1210 3078 1475 3171 
Q 1741 3264 2138 3264 
Q 2758 3264 3046 2899 
Q 3334 2534 3334 1792 
L 3334 -186 
z
" transform="scale(0.015625)"/>
      <path id="NanumGothic-75" d="M 3347 -186 
Q 3347 -275 3258 -275 
L 3027 -275 
Q 2938 -275 2938 -186 
L 2938 346 
Q 2771 -38 2492 -208 
Q 2214 -378 1792 -378 
Q 595 -378 595 960 
L 595 3098 
Q 595 3187 685 3187 
L 941 3187 
Q 1030 3187 1030 3098 
L 1030 1075 
Q 1030 -13 1862 -13 
Q 2106 -13 2301 92 
Q 2496 198 2630 380 
Q 2765 563 2835 806 
Q 2906 1050 2899 1318 
L 2899 3098 
Q 2899 3187 2989 3187 
L 3245 3187 
Q 3334 3187 3334 3098 
L 3334 525 
Q 3334 314 3337 147 
Q 3341 -19 3347 -186 
z
" transform="scale(0.015625)"/>
      <path id="NanumGothic-6b" d="M 1734 1645 
L 3117 -186 
Q 3136 -218 3129 -246 
Q 3123 -275 3085 -275 
L 2810 -275 
Q 2746 -275 2694 -256 
Q 2643 -237 2611 -186 
L 1459 1338 
L 1030 858 
L 1030 -186 
Q 1030 -275 941 -275 
L 685 -275 
Q 595 -275 595 -186 
L 595 4730 
Q 595 4819 685 4819 
L 941 4819 
Q 1030 4819 1030 4730 
L 1030 1395 
L 2490 3098 
Q 2579 3187 2701 3187 
L 3002 3187 
Q 3040 3187 3053 3158 
Q 3066 3130 3034 3098 
L 1734 1645 
z
" transform="scale(0.015625)"/>
     </defs>
     <use xlink:href="#NanumGothic-61"/>
     <use xlink:href="#NanumGothic-63" transform="translate(54.499985 0)"/>
     <use xlink:href="#NanumGothic-74" transform="translate(102.899979 0)"/>
     <use xlink:href="#NanumGothic-69" transform="translate(139.199966 0)"/>
     <use xlink:href="#NanumGothic-6f" transform="translate(163.399963 0)"/>
     <use xlink:href="#NanumGothic-6e" transform="translate(223.999954 0)"/>
     <use xlink:href="#NanumGothic-20" transform="translate(284.599945 0)"/>
     <use xlink:href="#NanumGothic-63" transform="translate(312.59993 0)"/>
     <use xlink:href="#NanumGothic-68" transform="translate(360.999924 0)"/>
     <use xlink:href="#NanumGothic-75" transform="translate(421.599915 0)"/>
     <use xlink:href="#NanumGothic-6e" transform="translate(482.199905 0)"/>
     <use xlink:href="#NanumGothic-6b" transform="translate(542.799896 0)"/>
    </g>
   </g>
   <g id="text_4">
    <!-- inference -->
    <g style="fill: #333333" transform="translate(269.260529 127.182422) scale(0.09 -0.09)">
     <use xlink:href="#NanumGothic-69"/>
     <use xlink:href="#NanumGothic-6e" transform="translate(24.199997 0)"/>
     <use xlink:href="#NanumGothic-66" transform="translate(84.799988 0)"/>
     <use xlink:href="#NanumGothic-65" transform="translate(121.099976 0)"/>
     <use xlink:href="#NanumGothic-72" transform="translate(175.59996 0)"/>
     <use xlink:href="#NanumGothic-65" transform="translate(211.899948 0)"/>
     <use xlink:href="#NanumGothic-6e" transform="translate(266.399933 0)"/>
     <use xlink:href="#NanumGothic-63" transform="translate(326.999924 0)"/>
     <use xlink:href="#NanumGothic-65" transform="translate(375.399918 0)"/>
    </g>
   </g>
   <g id="text_5">
    <!-- action chunk -->
    <g style="fill: #333333" transform="translate(378.520825 127.182422) scale(0.09 -0.09)">
     <use xlink:href="#NanumGothic-61"/>
     <use xlink:href="#NanumGothic-63" transform="translate(54.499985 0)"/>
     <use xlink:href="#NanumGothic-74" transform="translate(102.899979 0)"/>
     <use xlink:href="#NanumGothic-69" transform="translate(139.199966 0)"/>
     <use xlink:href="#NanumGothic-6f" transform="translate(163.399963 0)"/>
     <use xlink:href="#NanumGothic-6e" transform="translate(223.999954 0)"/>
     <use xlink:href="#NanumGothic-20" transform="translate(284.599945 0)"/>
     <use xlink:href="#NanumGothic-63" transform="translate(312.59993 0)"/>
     <use xlink:href="#NanumGothic-68" transform="translate(360.999924 0)"/>
     <use xlink:href="#NanumGothic-75" transform="translate(421.599915 0)"/>
     <use xlink:href="#NanumGothic-6e" transform="translate(482.199905 0)"/>
     <use xlink:href="#NanumGothic-6b" transform="translate(542.799896 0)"/>
    </g>
   </g>
   <g id="text_6">
    <!-- inference -->
    <g style="fill: #333333" transform="translate(502.621277 127.182422) scale(0.09 -0.09)">
     <use xlink:href="#NanumGothic-69"/>
     <use xlink:href="#NanumGothic-6e" transform="translate(24.199997 0)"/>
     <use xlink:href="#NanumGothic-66" transform="translate(84.799988 0)"/>
     <use xlink:href="#NanumGothic-65" transform="translate(121.099976 0)"/>
     <use xlink:href="#NanumGothic-72" transform="translate(175.59996 0)"/>
     <use xlink:href="#NanumGothic-65" transform="translate(211.899948 0)"/>
     <use xlink:href="#NanumGothic-6e" transform="translate(266.399933 0)"/>
     <use xlink:href="#NanumGothic-63" transform="translate(326.999924 0)"/>
     <use xlink:href="#NanumGothic-65" transform="translate(375.399918 0)"/>
    </g>
   </g>
   <g id="text_7">
    <!-- action chunk -->
    <g style="fill: #333333" transform="translate(611.881573 127.182422) scale(0.09 -0.09)">
     <use xlink:href="#NanumGothic-61"/>
     <use xlink:href="#NanumGothic-63" transform="translate(54.499985 0)"/>
     <use xlink:href="#NanumGothic-74" transform="translate(102.899979 0)"/>
     <use xlink:href="#NanumGothic-69" transform="translate(139.199966 0)"/>
     <use xlink:href="#NanumGothic-6f" transform="translate(163.399963 0)"/>
     <use xlink:href="#NanumGothic-6e" transform="translate(223.999954 0)"/>
     <use xlink:href="#NanumGothic-20" transform="translate(284.599945 0)"/>
     <use xlink:href="#NanumGothic-63" transform="translate(312.59993 0)"/>
     <use xlink:href="#NanumGothic-68" transform="translate(360.999924 0)"/>
     <use xlink:href="#NanumGothic-75" transform="translate(421.599915 0)"/>
     <use xlink:href="#NanumGothic-6e" transform="translate(482.199905 0)"/>
     <use xlink:href="#NanumGothic-6b" transform="translate(542.799896 0)"/>
    </g>
   </g>
   <g id="text_8">
    <!-- robot IDLE -->
    <g style="fill: #8b3a3a" transform="translate(30.980797 77.16) scale(0.1 -0.1)">
     <defs>
      <path id="NanumGothic-62" d="M 3066 1478 
Q 3072 1747 3017 2003 
Q 2963 2259 2841 2464 
Q 2720 2669 2518 2793 
Q 2317 2918 2022 2918 
Q 1760 2918 1565 2806 
Q 1370 2694 1242 2496 
Q 1114 2298 1050 2035 
Q 986 1773 986 1478 
Q 986 1190 1066 924 
Q 1146 659 1283 460 
Q 1421 262 1609 144 
Q 1798 26 2022 26 
Q 2317 26 2518 150 
Q 2720 275 2841 480 
Q 2963 685 3017 947 
Q 3072 1210 3066 1478 
z
M 557 4749 
Q 557 4838 646 4838 
L 896 4838 
Q 986 4838 986 4749 
L 986 2707 
Q 1146 2970 1440 3126 
Q 1734 3283 2099 3283 
Q 3526 3283 3526 1478 
Q 3533 1120 3453 790 
Q 3373 461 3193 211 
Q 3014 -38 2742 -188 
Q 2470 -339 2099 -339 
Q 1331 -339 986 314 
L 986 -186 
Q 986 -275 896 -275 
L 646 -275 
Q 557 -275 557 -186 
L 557 4749 
z
" transform="scale(0.015625)"/>
      <path id="NanumGothic-49" d="M 1069 -186 
Q 1069 -275 979 -275 
L 672 -275 
Q 582 -275 582 -186 
L 582 4371 
Q 582 4461 672 4461 
L 979 4461 
Q 1069 4461 1069 4371 
L 1069 -186 
z
" transform="scale(0.015625)"/>
      <path id="NanumGothic-44" d="M 3706 2131 
Q 3706 3149 3142 3635 
Q 2643 4064 1773 4064 
L 1082 4064 
L 1082 128 
L 1472 128 
Q 3706 128 3706 2131 
z
M 4173 2106 
Q 4173 1510 3968 1043 
Q 3763 576 3398 269 
Q 3053 6 2560 -134 
Q 2067 -275 1446 -275 
L 787 -275 
Q 653 -275 630 -252 
Q 608 -230 608 -96 
L 608 4282 
Q 608 4416 630 4438 
Q 653 4461 787 4461 
L 1792 4461 
Q 3008 4461 3622 3802 
Q 4173 3194 4173 2106 
z
" transform="scale(0.015625)"/>
      <path id="NanumGothic-4c" d="M 2912 128 
Q 3002 128 3002 38 
L 3002 -186 
Q 3002 -275 2912 -275 
L 838 -275 
Q 749 -275 701 -272 
Q 653 -269 630 -246 
Q 608 -224 605 -173 
Q 602 -122 602 -32 
L 602 4371 
Q 602 4461 691 4461 
L 986 4461 
Q 1075 4461 1075 4371 
L 1075 128 
L 2912 128 
z
" transform="scale(0.015625)"/>
      <path id="NanumGothic-45" d="M 826 -282 
Q 691 -282 668 -259 
Q 646 -237 646 -102 
L 646 4307 
Q 646 4429 668 4451 
Q 691 4474 813 4474 
L 3034 4474 
Q 3123 4474 3123 4384 
L 3123 4160 
Q 3123 4070 3034 4070 
L 1114 4070 
L 1114 2381 
L 2938 2381 
Q 3027 2381 3027 2291 
L 3027 2061 
Q 3027 1971 2938 1971 
L 1114 1971 
L 1114 128 
L 3110 128 
Q 3200 128 3200 38 
L 3200 -192 
Q 3200 -282 3110 -282 
L 826 -282 
z
" transform="scale(0.015625)"/>
     </defs>
     <use xlink:href="#NanumGothic-72"/>
     <use xlink:href="#NanumGothic-6f" transform="translate(36.299988 0)"/>
     <use xlink:href="#NanumGothic-62" transform="translate(96.899979 0)"/>
     <use xlink:href="#NanumGothic-6f" transform="translate(157.499969 0)"/>
     <use xlink:href="#NanumGothic-74" transform="translate(218.09996 0)"/>
     <use xlink:href="#NanumGothic-20" transform="translate(254.399948 0)"/>
     <use xlink:href="#NanumGothic-49" transform="translate(282.399933 0)"/>
     <use xlink:href="#NanumGothic-44" transform="translate(306.59993 0)"/>
     <use xlink:href="#NanumGothic-4c" transform="translate(379.299911 0)"/>
     <use xlink:href="#NanumGothic-45" transform="translate(427.699905 0)"/>
    </g>
   </g>
   <g id="text_9">
    <!-- Sync mode: 학습 중 idle time 발생 -->
    <g style="fill: #8b3a3a" transform="translate(7.2 44.76) scale(0.11 -0.11)">
     <defs>
      <path id="NanumGothic-53" d="M 550 -211 
Q 448 -179 467 -96 
L 493 198 
Q 506 250 534 269 
Q 563 288 602 262 
Q 826 141 1053 86 
Q 1280 32 1574 32 
Q 2042 32 2339 288 
Q 2637 544 2637 1011 
Q 2637 1197 2493 1382 
Q 2349 1568 2093 1734 
Q 1869 1875 1587 2028 
Q 1306 2182 1050 2364 
Q 794 2547 621 2774 
Q 448 3002 448 3302 
Q 448 3610 576 3843 
Q 704 4077 918 4233 
Q 1133 4390 1408 4473 
Q 1683 4557 1971 4557 
Q 2221 4557 2413 4528 
Q 2605 4499 2829 4429 
Q 2925 4397 2906 4314 
L 2854 4064 
Q 2835 3955 2746 4006 
Q 2566 4090 2396 4118 
Q 2227 4147 1965 4147 
Q 1754 4147 1565 4096 
Q 1376 4045 1238 3942 
Q 1101 3840 1017 3686 
Q 934 3533 934 3322 
Q 934 3155 1046 3008 
Q 1158 2861 1321 2733 
Q 1485 2605 1673 2499 
Q 1862 2394 2016 2304 
Q 2227 2182 2425 2054 
Q 2624 1926 2777 1766 
Q 2931 1606 3027 1414 
Q 3123 1222 3123 973 
Q 3123 653 2992 403 
Q 2861 154 2643 -19 
Q 2426 -192 2141 -285 
Q 1856 -378 1549 -378 
Q 1267 -378 1046 -339 
Q 826 -301 550 -211 
z
" transform="scale(0.015625)"/>
      <path id="NanumGothic-79" d="M 301 -1222 
Q 224 -1203 237 -1126 
L 256 -909 
Q 256 -832 333 -864 
Q 435 -902 570 -902 
Q 704 -902 816 -860 
Q 928 -819 986 -749 
Q 1056 -659 1142 -454 
Q 1229 -250 1312 13 
Q 1024 794 742 1555 
Q 461 2317 173 3098 
Q 160 3130 173 3158 
Q 186 3187 224 3187 
L 525 3187 
Q 614 3187 653 3098 
L 1517 614 
Q 1754 1267 1968 1859 
Q 2182 2451 2419 3098 
Q 2451 3187 2547 3187 
L 2822 3187 
Q 2861 3187 2873 3158 
Q 2886 3130 2874 3098 
L 1542 -474 
Q 1472 -659 1385 -806 
Q 1299 -954 1210 -1043 
Q 1094 -1152 953 -1206 
Q 813 -1261 659 -1261 
Q 563 -1261 486 -1254 
Q 410 -1248 301 -1222 
z
" transform="scale(0.015625)"/>
      <path id="NanumGothic-64" d="M 877 1459 
Q 877 1158 925 912 
Q 973 666 1075 480 
Q 1216 250 1417 128 
Q 1619 6 1901 6 
Q 2157 6 2352 140 
Q 2547 275 2678 483 
Q 2810 691 2874 950 
Q 2938 1210 2938 1459 
Q 2938 1766 2870 2028 
Q 2803 2291 2672 2483 
Q 2541 2675 2349 2784 
Q 2157 2893 1901 2893 
Q 1357 2893 1075 2426 
Q 973 2240 925 1993 
Q 877 1747 877 1459 
z
M 3366 -186 
Q 3366 -275 3277 -275 
L 3027 -275 
Q 2938 -275 2938 -186 
L 2938 294 
Q 2592 -358 1824 -358 
Q 1139 -358 755 166 
Q 403 653 403 1459 
Q 403 3258 1824 3258 
Q 2208 3258 2505 3104 
Q 2803 2950 2938 2707 
L 2938 4723 
Q 2938 4813 3027 4813 
L 3277 4813 
Q 3366 4813 3366 4723 
L 3366 -186 
z
" transform="scale(0.015625)"/>
      <path id="NanumGothic-3a" d="M 646 3526 
Q 646 3674 755 3782 
Q 864 3891 1011 3891 
Q 1158 3891 1267 3782 
Q 1376 3674 1376 3526 
Q 1376 3379 1267 3270 
Q 1158 3162 1011 3162 
Q 864 3162 755 3270 
Q 646 3379 646 3526 
z
M 646 640 
Q 646 787 755 896 
Q 864 1005 1011 1005 
Q 1158 1005 1267 896 
Q 1376 787 1376 640 
Q 1376 493 1267 384 
Q 1158 275 1011 275 
Q 864 275 755 384 
Q 646 493 646 640 
z
" transform="scale(0.015625)"/>
      <path id="NanumGothic-d559" d="M 3533 2381 
Q 3533 2150 3427 1961 
Q 3322 1773 3139 1632 
Q 2957 1491 2704 1414 
Q 2451 1338 2157 1338 
Q 1856 1338 1606 1414 
Q 1357 1491 1171 1632 
Q 986 1773 883 1965 
Q 781 2157 781 2381 
Q 781 2611 883 2803 
Q 986 2995 1171 3129 
Q 1357 3264 1606 3341 
Q 1856 3418 2157 3418 
Q 2451 3418 2704 3341 
Q 2957 3264 3139 3126 
Q 3322 2989 3427 2797 
Q 3533 2605 3533 2381 
z
M 3104 2381 
Q 3104 2534 3033 2659 
Q 2963 2784 2835 2870 
Q 2707 2957 2534 3005 
Q 2362 3053 2157 3053 
Q 1952 3053 1779 3005 
Q 1606 2957 1478 2870 
Q 1350 2784 1276 2659 
Q 1203 2534 1203 2381 
Q 1203 2227 1276 2102 
Q 1350 1978 1478 1888 
Q 1606 1798 1779 1750 
Q 1952 1702 2157 1702 
Q 2362 1702 2534 1750 
Q 2707 1798 2835 1888 
Q 2963 1978 3033 2102 
Q 3104 2227 3104 2381 
z
M 1197 845 
Q 1197 883 1229 902 
Q 1261 922 1293 922 
L 4442 922 
Q 4742 922 4835 810 
Q 4928 698 4928 435 
L 4928 -832 
Q 4928 -922 4838 -922 
L 4576 -922 
Q 4486 -922 4486 -832 
L 4486 403 
Q 4486 493 4457 515 
Q 4429 538 4339 538 
L 1293 538 
Q 1261 538 1229 560 
Q 1197 582 1197 614 
L 1197 845 
z
M 4928 1325 
Q 4928 1235 4838 1235 
L 4576 1235 
Q 4486 1235 4486 1325 
L 4486 4915 
Q 4486 5005 4576 5005 
L 4838 5005 
Q 4928 5005 4928 4915 
L 4928 3174 
L 5811 3174 
Q 5850 3174 5878 3152 
Q 5907 3130 5907 3091 
L 5907 2886 
Q 5907 2854 5878 2828 
Q 5850 2803 5811 2803 
L 4928 2803 
L 4928 1325 
z
M 4026 3789 
Q 4026 3706 3930 3706 
L 397 3706 
Q 365 3706 336 3731 
Q 307 3757 307 3795 
L 307 4000 
Q 307 4038 336 4064 
Q 365 4090 397 4090 
L 3930 4090 
Q 4026 4090 4026 4006 
L 4026 3789 
z
M 3091 4576 
Q 3091 4486 2995 4486 
L 1242 4486 
Q 1210 4486 1181 4508 
Q 1152 4531 1152 4570 
L 1152 4787 
Q 1152 4826 1177 4851 
Q 1203 4877 1235 4877 
L 2995 4877 
Q 3091 4877 3091 4787 
L 3091 4576 
z
" transform="scale(0.015625)"/>
      <path id="NanumGothic-c2b5" d="M 1555 -858 
Q 1402 -858 1309 -838 
Q 1216 -819 1165 -764 
Q 1114 -710 1094 -624 
Q 1075 -538 1075 -403 
L 1075 1408 
Q 1075 1440 1100 1462 
Q 1126 1485 1158 1485 
L 1440 1485 
Q 1472 1485 1494 1459 
Q 1517 1434 1517 1408 
L 1517 717 
L 4486 717 
L 4486 1402 
Q 4486 1434 4508 1459 
Q 4531 1485 4563 1485 
L 4845 1485 
Q 4877 1485 4902 1462 
Q 4928 1440 4928 1408 
L 4928 -448 
Q 4928 -691 4825 -774 
Q 4723 -858 4442 -858 
L 1555 -858 
z
M 1517 333 
L 1517 -320 
Q 1517 -416 1549 -445 
Q 1581 -474 1670 -474 
L 4333 -474 
Q 4422 -474 4454 -445 
Q 4486 -416 4486 -320 
L 4486 333 
L 1517 333 
z
M 3232 4890 
Q 3219 4851 3216 4816 
Q 3213 4781 3200 4749 
Q 3219 4666 3254 4589 
Q 3290 4512 3334 4448 
Q 3469 4237 3680 4048 
Q 3891 3859 4144 3708 
Q 4397 3558 4681 3449 
Q 4966 3341 5254 3283 
Q 5293 3270 5299 3238 
Q 5306 3206 5293 3174 
L 5184 2957 
Q 5171 2925 5148 2909 
Q 5126 2893 5062 2906 
Q 4736 2982 4419 3120 
Q 4102 3258 3827 3440 
Q 3552 3622 3334 3833 
Q 3117 4045 2989 4256 
Q 2733 3814 2240 3481 
Q 1747 3149 947 2880 
Q 845 2848 819 2912 
L 710 3142 
Q 698 3174 707 3212 
Q 717 3251 762 3264 
Q 1229 3405 1584 3571 
Q 1939 3738 2188 3936 
Q 2438 4134 2588 4380 
Q 2739 4627 2790 4934 
Q 2810 5018 2874 5011 
L 3162 4979 
Q 3194 4979 3219 4956 
Q 3245 4934 3232 4890 
z
M 5728 2387 
Q 5760 2387 5792 2364 
Q 5824 2342 5824 2304 
L 5824 2086 
Q 5824 2054 5792 2028 
Q 5760 2003 5728 2003 
L 288 2003 
Q 250 2003 221 2028 
Q 192 2054 192 2086 
L 192 2310 
Q 192 2349 221 2368 
Q 250 2387 288 2387 
L 5728 2387 
z
" transform="scale(0.015625)"/>
      <path id="NanumGothic-c911" d="M 5728 2310 
Q 5760 2310 5792 2288 
Q 5824 2266 5824 2227 
L 5824 2010 
Q 5824 1978 5792 1952 
Q 5760 1926 5728 1926 
L 3219 1926 
L 3219 1146 
Q 3507 1133 3817 1078 
Q 4128 1024 4390 905 
Q 4653 787 4822 595 
Q 4992 403 4992 109 
Q 4992 -218 4787 -422 
Q 4582 -627 4281 -742 
Q 3981 -858 3632 -899 
Q 3283 -941 2995 -941 
Q 2803 -941 2582 -921 
Q 2362 -902 2141 -860 
Q 1920 -819 1715 -742 
Q 1510 -666 1353 -547 
Q 1197 -429 1101 -269 
Q 1005 -109 1005 109 
Q 1005 397 1174 592 
Q 1344 787 1606 905 
Q 1869 1024 2182 1078 
Q 2496 1133 2778 1146 
L 2778 1926 
L 288 1926 
Q 250 1926 221 1952 
Q 192 1978 192 2010 
L 192 2227 
Q 192 2266 221 2288 
Q 250 2310 288 2310 
L 5728 2310 
z
M 4493 4218 
Q 4160 3904 3590 3610 
Q 3770 3558 3990 3500 
Q 4211 3443 4441 3385 
Q 4672 3328 4902 3277 
Q 5133 3226 5331 3187 
Q 5414 3168 5389 3098 
L 5299 2886 
Q 5267 2816 5184 2835 
Q 4966 2874 4697 2938 
Q 4429 3002 4150 3075 
Q 3872 3149 3600 3225 
Q 3328 3302 3098 3379 
Q 2592 3168 2013 3005 
Q 1434 2842 832 2739 
Q 774 2726 752 2748 
Q 730 2771 717 2810 
L 659 3002 
Q 634 3098 710 3104 
Q 1152 3174 1638 3308 
Q 2125 3443 2576 3609 
Q 3027 3776 3404 3958 
Q 3782 4141 4006 4307 
Q 4109 4384 4086 4429 
Q 4064 4474 3974 4474 
L 1210 4474 
Q 1126 4474 1126 4557 
L 1126 4781 
Q 1126 4858 1210 4858 
L 4134 4858 
Q 4627 4858 4716 4688 
Q 4806 4518 4493 4218 
z
M 4525 102 
Q 4525 314 4352 438 
Q 4179 563 3936 633 
Q 3693 704 3433 726 
Q 3174 749 2995 749 
Q 2810 749 2550 726 
Q 2291 704 2051 633 
Q 1811 563 1641 438 
Q 1472 314 1472 102 
Q 1472 -102 1641 -230 
Q 1811 -358 2051 -425 
Q 2291 -493 2550 -515 
Q 2810 -538 2995 -538 
Q 3174 -538 3436 -515 
Q 3699 -493 3939 -425 
Q 4179 -358 4352 -230 
Q 4525 -102 4525 102 
z
" transform="scale(0.015625)"/>
      <path id="NanumGothic-6c" d="M 1056 -186 
Q 1056 -275 966 -275 
L 685 -275 
Q 595 -275 595 -186 
L 595 4723 
Q 595 4813 685 4813 
L 966 4813 
Q 1056 4813 1056 4723 
L 1056 -186 
z
" transform="scale(0.015625)"/>
      <path id="NanumGothic-bc1c" d="M 1158 2144 
Q 1005 2144 912 2163 
Q 819 2182 768 2236 
Q 717 2291 697 2377 
Q 678 2464 678 2598 
L 678 4838 
Q 678 4870 704 4892 
Q 730 4915 762 4915 
L 1037 4915 
Q 1069 4915 1091 4889 
Q 1114 4864 1114 4838 
L 1114 3840 
L 2982 3840 
L 2982 4832 
Q 2982 4864 3004 4889 
Q 3027 4915 3059 4915 
L 3334 4915 
Q 3366 4915 3392 4892 
Q 3418 4870 3418 4838 
L 3418 2554 
Q 3418 2310 3315 2227 
Q 3213 2144 2931 2144 
L 1158 2144 
z
M 5062 -838 
Q 5062 -870 5033 -892 
Q 5005 -915 4979 -915 
L 1760 -915 
Q 1459 -915 1366 -803 
Q 1274 -691 1274 -422 
L 1274 58 
Q 1274 326 1386 419 
Q 1498 512 1786 512 
L 4346 512 
Q 4435 512 4460 537 
Q 4486 563 4486 659 
L 4486 1024 
Q 4486 1120 4464 1145 
Q 4442 1171 4352 1171 
L 1350 1171 
Q 1318 1171 1289 1190 
Q 1261 1210 1261 1242 
L 1261 1472 
Q 1261 1504 1289 1523 
Q 1318 1542 1350 1542 
L 4422 1542 
Q 4576 1542 4672 1520 
Q 4768 1498 4825 1446 
Q 4883 1395 4905 1302 
Q 4928 1210 4928 1075 
L 4928 595 
Q 4928 326 4816 233 
Q 4704 141 4416 141 
L 1850 141 
Q 1760 141 1737 115 
Q 1715 90 1715 -6 
L 1715 -397 
Q 1715 -486 1740 -515 
Q 1766 -544 1856 -544 
L 4973 -544 
Q 5005 -544 5033 -563 
Q 5062 -582 5062 -614 
L 5062 -838 
z
M 1114 3462 
L 1114 2675 
Q 1114 2579 1146 2550 
Q 1178 2522 1267 2522 
L 2829 2522 
Q 2918 2522 2950 2550 
Q 2982 2579 2982 2675 
L 2982 3462 
L 1114 3462 
z
M 4928 1978 
Q 4928 1888 4838 1888 
L 4576 1888 
Q 4486 1888 4486 1978 
L 4486 4915 
Q 4486 5005 4576 5005 
L 4838 5005 
Q 4928 5005 4928 4915 
L 4928 3642 
L 5811 3642 
Q 5850 3642 5878 3619 
Q 5907 3597 5907 3558 
L 5907 3341 
Q 5907 3309 5878 3283 
Q 5850 3258 5811 3258 
L 4928 3258 
L 4928 1978 
z
" transform="scale(0.015625)"/>
      <path id="NanumGothic-c0dd" d="M 1434 250 
Q 1434 525 1581 739 
Q 1728 954 1993 1104 
Q 2259 1254 2620 1331 
Q 2982 1408 3418 1408 
Q 3814 1408 4172 1331 
Q 4531 1254 4806 1107 
Q 5082 960 5242 745 
Q 5402 531 5402 250 
Q 5402 -32 5242 -253 
Q 5082 -474 4806 -621 
Q 4531 -768 4172 -845 
Q 3814 -922 3418 -922 
Q 2982 -922 2620 -845 
Q 2259 -768 1993 -621 
Q 1728 -474 1581 -253 
Q 1434 -32 1434 250 
z
M 1907 230 
Q 1907 38 2019 -106 
Q 2131 -250 2332 -346 
Q 2534 -442 2809 -490 
Q 3085 -538 3411 -538 
Q 3699 -538 3974 -490 
Q 4250 -442 4461 -346 
Q 4672 -250 4803 -106 
Q 4934 38 4934 230 
Q 4934 429 4803 576 
Q 4672 723 4461 822 
Q 4250 922 3974 973 
Q 3699 1024 3411 1024 
Q 3085 1024 2809 973 
Q 2534 922 2332 822 
Q 2131 723 2019 576 
Q 1907 429 1907 230 
z
M 4128 1773 
Q 4128 1683 4038 1683 
L 3795 1683 
Q 3706 1683 3706 1773 
L 3706 4806 
Q 3706 4896 3795 4896 
L 4038 4896 
Q 4128 4896 4128 4806 
L 4128 3392 
L 4941 3392 
L 4941 4915 
Q 4941 5005 5030 5005 
L 5274 5005 
Q 5363 5005 5363 4915 
L 5363 1574 
Q 5363 1485 5274 1485 
L 5030 1485 
Q 4941 1485 4941 1574 
L 4941 3008 
L 4128 3008 
L 4128 1773 
z
M 2131 4704 
Q 2125 4218 1997 3776 
Q 2074 3552 2202 3334 
Q 2330 3117 2493 2925 
Q 2656 2733 2848 2576 
Q 3040 2419 3238 2317 
Q 3309 2278 3258 2202 
L 3104 1984 
Q 3085 1958 3062 1955 
Q 3040 1952 2982 1984 
Q 2630 2202 2316 2541 
Q 2003 2880 1798 3245 
Q 1613 2854 1334 2505 
Q 1056 2157 666 1837 
Q 614 1798 579 1798 
Q 544 1798 531 1818 
L 352 2022 
Q 294 2093 384 2157 
Q 710 2413 947 2694 
Q 1184 2976 1344 3293 
Q 1504 3610 1587 3962 
Q 1670 4314 1683 4710 
Q 1677 4755 1702 4784 
Q 1728 4813 1760 4813 
L 2061 4794 
Q 2131 4794 2131 4704 
z
" transform="scale(0.015625)"/>
     </defs>
     <use xlink:href="#NanumGothic-53"/>
     <use xlink:href="#NanumGothic-79" transform="translate(54.499985 0)"/>
     <use xlink:href="#NanumGothic-6e" transform="translate(100.899979 0)"/>
     <use xlink:href="#NanumGothic-63" transform="translate(161.499969 0)"/>
     <use xlink:href="#NanumGothic-20" transform="translate(209.899963 0)"/>
     <use xlink:href="#NanumGothic-6d" transform="translate(237.899948 0)"/>
     <use xlink:href="#NanumGothic-6f" transform="translate(328.699936 0)"/>
     <use xlink:href="#NanumGothic-64" transform="translate(389.299927 0)"/>
     <use xlink:href="#NanumGothic-65" transform="translate(449.899918 0)"/>
     <use xlink:href="#NanumGothic-3a" transform="translate(504.399902 0)"/>
     <use xlink:href="#NanumGothic-20" transform="translate(534.69989 0)"/>
     <use xlink:href="#NanumGothic-d559" transform="translate(562.699875 0)"/>
     <use xlink:href="#NanumGothic-c2b5" transform="translate(656.69986 0)"/>
     <use xlink:href="#NanumGothic-20" transform="translate(750.699844 0)"/>
     <use xlink:href="#NanumGothic-c911" transform="translate(778.699829 0)"/>
     <use xlink:href="#NanumGothic-20" transform="translate(872.699814 0)"/>
     <use xlink:href="#NanumGothic-69" transform="translate(900.699799 0)"/>
     <use xlink:href="#NanumGothic-64" transform="translate(924.899796 0)"/>
     <use xlink:href="#NanumGothic-6c" transform="translate(985.499786 0)"/>
     <use xlink:href="#NanumGothic-65" transform="translate(1009.699783 0)"/>
     <use xlink:href="#NanumGothic-20" transform="translate(1064.199768 0)"/>
     <use xlink:href="#NanumGothic-74" transform="translate(1092.199753 0)"/>
     <use xlink:href="#NanumGothic-69" transform="translate(1128.499741 0)"/>
     <use xlink:href="#NanumGothic-6d" transform="translate(1152.699738 0)"/>
     <use xlink:href="#NanumGothic-65" transform="translate(1243.499725 0)"/>
     <use xlink:href="#NanumGothic-20" transform="translate(1297.99971 0)"/>
     <use xlink:href="#NanumGothic-bc1c" transform="translate(1325.999695 0)"/>
     <use xlink:href="#NanumGothic-c0dd" transform="translate(1419.99968 0)"/>
    </g>
   </g>
  </g>
  <g id="axes_2">
   <g id="patch_10">
    <path d="M 7.2 367.56 
L 741.6 367.56 
L 741.6 240.84 
L 7.2 240.84 
z
" style="fill: #ffffff"/>
   </g>
   <g id="patch_11">
    <path d="M 84.505263 290.12 
L 192.732632 290.12 
L 192.732632 261.96 
L 84.505263 261.96 
z
" clip-path="url(#p33abe51712)" style="fill: #e7e6e2; stroke: #7a7a7a; stroke-linejoin: miter"/>
   </g>
   <g id="patch_12">
    <path d="M 192.732632 290.12 
L 300.96 290.12 
L 300.96 261.96 
L 192.732632 261.96 
z
" clip-path="url(#p33abe51712)" style="fill: #e7e6e2; stroke: #7a7a7a; stroke-linejoin: miter"/>
   </g>
   <g id="patch_13">
    <path d="M 300.96 290.12 
L 409.187368 290.12 
L 409.187368 261.96 
L 300.96 261.96 
z
" clip-path="url(#p33abe51712)" style="fill: #e7e6e2; stroke: #7a7a7a; stroke-linejoin: miter"/>
   </g>
   <g id="patch_14">
    <path d="M 409.187368 290.12 
L 517.414737 290.12 
L 517.414737 261.96 
L 409.187368 261.96 
z
" clip-path="url(#p33abe51712)" style="fill: #e7e6e2; stroke: #7a7a7a; stroke-linejoin: miter"/>
   </g>
   <g id="patch_15">
    <path d="M 84.505263 346.44 
L 239.115789 346.44 
L 239.115789 318.28 
L 84.505263 318.28 
z
" clip-path="url(#p33abe51712)" style="fill: #d8eee0; stroke: #3da084; stroke-linejoin: miter"/>
   </g>
   <g id="patch_16">
    <path d="M 239.115789 346.44 
L 393.726316 346.44 
L 393.726316 318.28 
L 239.115789 318.28 
z
" clip-path="url(#p33abe51712)" style="fill: #d8eee0; stroke: #3da084; stroke-linejoin: miter"/>
   </g>
   <g id="patch_17">
    <path d="M 393.726316 346.44 
L 548.336842 346.44 
L 548.336842 318.28 
L 393.726316 318.28 
z
" clip-path="url(#p33abe51712)" style="fill: #d8eee0; stroke: #3da084; stroke-linejoin: miter"/>
   </g>
   <g id="patch_18">
    <path d="M 548.336842 346.44 
L 702.947368 346.44 
L 702.947368 318.28 
L 548.336842 318.28 
z
" clip-path="url(#p33abe51712)" style="fill: #d8eee0; stroke: #3da084; stroke-linejoin: miter"/>
   </g>
   <g id="matplotlib.axis_3">
    <g id="text_10">
     <!-- time → -->
     <g transform="translate(358.010156 379.080312) scale(0.1 -0.1)">
      <use xlink:href="#NanumGothic-74"/>
      <use xlink:href="#NanumGothic-69" transform="translate(36.299988 0)"/>
      <use xlink:href="#NanumGothic-6d" transform="translate(60.499985 0)"/>
      <use xlink:href="#NanumGothic-65" transform="translate(151.299973 0)"/>
      <use xlink:href="#NanumGothic-20" transform="translate(205.799957 0)"/>
      <use xlink:href="#NanumGothic-2192" transform="translate(233.799942 0)"/>
     </g>
    </g>
   </g>
   <g id="matplotlib.axis_4"/>
   <g id="patch_19">
    <path d="M 7.2 367.56 
L 741.6 367.56 
" style="fill: none; stroke: #000000; stroke-width: 0.8; stroke-linejoin: miter; stroke-linecap: square"/>
   </g>
   <g id="text_11">
    <!-- inf 1 -->
    <g style="fill: #333333" transform="translate(129.18301 278.542422) scale(0.09 -0.09)">
     <defs>
      <path id="NanumGothic-31" d="M 2362 -211 
Q 2362 -301 2272 -301 
L 2010 -301 
Q 1920 -301 1920 -211 
L 1920 3949 
Q 1722 3782 1549 3635 
Q 1376 3488 1184 3322 
Q 1114 3264 1056 3334 
L 928 3488 
Q 909 3520 909 3555 
Q 909 3590 941 3616 
L 1933 4448 
Q 1958 4474 2010 4474 
L 2182 4474 
Q 2317 4474 2339 4451 
Q 2362 4429 2362 4294 
L 2362 -211 
z
" transform="scale(0.015625)"/>
     </defs>
     <use xlink:href="#NanumGothic-69"/>
     <use xlink:href="#NanumGothic-6e" transform="translate(24.199997 0)"/>
     <use xlink:href="#NanumGothic-66" transform="translate(84.799988 0)"/>
     <use xlink:href="#NanumGothic-20" transform="translate(121.099976 0)"/>
     <use xlink:href="#NanumGothic-31" transform="translate(149.09996 0)"/>
    </g>
   </g>
   <g id="text_12">
    <!-- inf 2 -->
    <g style="fill: #333333" transform="translate(237.410378 278.542422) scale(0.09 -0.09)">
     <defs>
      <path id="NanumGothic-32" d="M 576 -301 
Q 506 -301 470 -297 
Q 435 -294 419 -278 
Q 403 -262 400 -227 
Q 397 -192 397 -122 
L 403 19 
Q 403 102 454 154 
L 1510 1318 
Q 2688 2592 2688 3251 
Q 2688 3635 2432 3891 
Q 2182 4141 1811 4141 
Q 1293 4141 730 3853 
Q 640 3808 627 3891 
L 589 4102 
Q 570 4211 653 4237 
Q 979 4384 1241 4454 
Q 1504 4525 1779 4525 
Q 2394 4525 2758 4218 
Q 3168 3885 3168 3270 
Q 3168 3034 3053 2752 
Q 2938 2470 2733 2163 
Q 2605 1984 2371 1696 
Q 2138 1408 1837 1082 
Q 1613 838 1392 588 
Q 1171 339 947 96 
L 3187 96 
Q 3277 96 3277 6 
L 3277 -211 
Q 3277 -301 3187 -301 
L 576 -301 
z
" transform="scale(0.015625)"/>
     </defs>
     <use xlink:href="#NanumGothic-69"/>
     <use xlink:href="#NanumGothic-6e" transform="translate(24.199997 0)"/>
     <use xlink:href="#NanumGothic-66" transform="translate(84.799988 0)"/>
     <use xlink:href="#NanumGothic-20" transform="translate(121.099976 0)"/>
     <use xlink:href="#NanumGothic-32" transform="translate(149.09996 0)"/>
    </g>
   </g>
   <g id="text_13">
    <!-- inf 3 -->
    <g style="fill: #333333" transform="translate(345.637747 278.542422) scale(0.09 -0.09)">
     <defs>
      <path id="NanumGothic-33" d="M 493 -192 
Q 397 -166 410 -45 
L 435 205 
Q 448 282 538 243 
Q 806 134 1046 89 
Q 1286 45 1606 38 
Q 2112 32 2458 294 
Q 2861 563 2861 1082 
Q 2861 1990 1498 1990 
L 1165 1990 
Q 1082 1990 1082 2061 
L 1082 2298 
Q 1082 2381 1165 2381 
L 1197 2381 
Q 1882 2381 2266 2528 
Q 2848 2752 2848 3334 
Q 2848 3520 2749 3677 
Q 2650 3834 2483 3942 
Q 2330 4032 2138 4083 
Q 1946 4134 1734 4134 
Q 1517 4134 1254 4076 
Q 992 4019 749 3923 
Q 666 3891 653 3974 
L 627 4211 
Q 608 4301 710 4339 
Q 998 4435 1248 4480 
Q 1498 4525 1779 4525 
Q 2426 4525 2835 4250 
Q 3302 3936 3302 3334 
Q 3302 2906 2995 2592 
Q 2739 2317 2330 2189 
Q 2534 2163 2710 2080 
Q 2886 1997 3014 1850 
Q 3162 1690 3238 1488 
Q 3315 1286 3315 1043 
Q 3315 723 3184 464 
Q 3053 205 2810 19 
Q 2573 -154 2265 -253 
Q 1958 -352 1581 -346 
Q 1242 -339 995 -307 
Q 749 -275 493 -192 
z
" transform="scale(0.015625)"/>
     </defs>
     <use xlink:href="#NanumGothic-69"/>
     <use xlink:href="#NanumGothic-6e" transform="translate(24.199997 0)"/>
     <use xlink:href="#NanumGothic-66" transform="translate(84.799988 0)"/>
     <use xlink:href="#NanumGothic-20" transform="translate(121.099976 0)"/>
     <use xlink:href="#NanumGothic-33" transform="translate(149.09996 0)"/>
    </g>
   </g>
   <g id="text_14">
    <!-- inf 4 -->
    <g style="fill: #333333" transform="translate(453.865115 278.542422) scale(0.09 -0.09)">
     <defs>
      <path id="NanumGothic-34" d="M 2509 1216 
L 2509 4070 
Q 2035 3354 1568 2643 
Q 1101 1933 621 1216 
L 2509 1216 
z
M 2944 -211 
Q 2944 -301 2854 -301 
L 2598 -301 
Q 2509 -301 2509 -211 
L 2509 826 
L 397 826 
Q 262 826 240 848 
Q 218 870 218 1005 
L 218 1203 
Q 218 1261 224 1280 
Q 230 1299 262 1350 
L 2304 4397 
Q 2342 4454 2358 4464 
Q 2374 4474 2445 4474 
L 2765 4474 
Q 2899 4474 2921 4451 
Q 2944 4429 2944 4294 
L 2944 1216 
L 3578 1216 
Q 3667 1216 3667 1126 
L 3667 915 
Q 3667 826 3578 826 
L 2944 826 
L 2944 -211 
z
" transform="scale(0.015625)"/>
     </defs>
     <use xlink:href="#NanumGothic-69"/>
     <use xlink:href="#NanumGothic-6e" transform="translate(24.199997 0)"/>
     <use xlink:href="#NanumGothic-66" transform="translate(84.799988 0)"/>
     <use xlink:href="#NanumGothic-20" transform="translate(121.099976 0)"/>
     <use xlink:href="#NanumGothic-34" transform="translate(149.09996 0)"/>
    </g>
   </g>
   <g id="text_15">
    <!-- chunk 1 -->
    <g style="fill: #333333" transform="translate(145.12537 334.862422) scale(0.09 -0.09)">
     <use xlink:href="#NanumGothic-63"/>
     <use xlink:href="#NanumGothic-68" transform="translate(48.399994 0)"/>
     <use xlink:href="#NanumGothic-75" transform="translate(108.999985 0)"/>
     <use xlink:href="#NanumGothic-6e" transform="translate(169.599976 0)"/>
     <use xlink:href="#NanumGothic-6b" transform="translate(230.199966 0)"/>
     <use xlink:href="#NanumGothic-20" transform="translate(282.199951 0)"/>
     <use xlink:href="#NanumGothic-31" transform="translate(310.199936 0)"/>
    </g>
   </g>
   <g id="text_16">
    <!-- chunk 2 -->
    <g style="fill: #333333" transform="translate(299.735896 334.862422) scale(0.09 -0.09)">
     <use xlink:href="#NanumGothic-63"/>
     <use xlink:href="#NanumGothic-68" transform="translate(48.399994 0)"/>
     <use xlink:href="#NanumGothic-75" transform="translate(108.999985 0)"/>
     <use xlink:href="#NanumGothic-6e" transform="translate(169.599976 0)"/>
     <use xlink:href="#NanumGothic-6b" transform="translate(230.199966 0)"/>
     <use xlink:href="#NanumGothic-20" transform="translate(282.199951 0)"/>
     <use xlink:href="#NanumGothic-32" transform="translate(310.199936 0)"/>
    </g>
   </g>
   <g id="text_17">
    <!-- chunk 3 -->
    <g style="fill: #333333" transform="translate(454.346423 334.862422) scale(0.09 -0.09)">
     <use xlink:href="#NanumGothic-63"/>
     <use xlink:href="#NanumGothic-68" transform="translate(48.399994 0)"/>
     <use xlink:href="#NanumGothic-75" transform="translate(108.999985 0)"/>
     <use xlink:href="#NanumGothic-6e" transform="translate(169.599976 0)"/>
     <use xlink:href="#NanumGothic-6b" transform="translate(230.199966 0)"/>
     <use xlink:href="#NanumGothic-20" transform="translate(282.199951 0)"/>
     <use xlink:href="#NanumGothic-33" transform="translate(310.199936 0)"/>
    </g>
   </g>
   <g id="text_18">
    <!-- chunk 4 -->
    <g style="fill: #333333" transform="translate(608.956949 334.862422) scale(0.09 -0.09)">
     <use xlink:href="#NanumGothic-63"/>
     <use xlink:href="#NanumGothic-68" transform="translate(48.399994 0)"/>
     <use xlink:href="#NanumGothic-75" transform="translate(108.999985 0)"/>
     <use xlink:href="#NanumGothic-6e" transform="translate(169.599976 0)"/>
     <use xlink:href="#NanumGothic-6b" transform="translate(230.199966 0)"/>
     <use xlink:href="#NanumGothic-20" transform="translate(282.199951 0)"/>
     <use xlink:href="#NanumGothic-34" transform="translate(310.199936 0)"/>
    </g>
   </g>
   <g id="text_19">
    <!-- Policy -->
    <g style="fill: #666666" transform="translate(38.159778 273.594812) scale(0.09 -0.09)">
     <defs>
      <path id="NanumGothic-50" d="M 3008 3123 
Q 3008 3578 2771 3824 
Q 2534 4070 2074 4070 
L 1114 4070 
L 1114 2157 
L 1632 2157 
Q 1939 2157 2185 2189 
Q 2432 2221 2608 2323 
Q 2784 2426 2886 2614 
Q 2989 2803 3008 3123 
z
M 1114 -186 
Q 1114 -275 1024 -275 
L 736 -275 
Q 646 -275 646 -186 
L 646 4282 
Q 646 4422 675 4448 
Q 704 4474 838 4474 
L 1978 4474 
Q 2682 4474 3078 4134 
Q 3488 3782 3488 3123 
Q 3488 2790 3369 2531 
Q 3251 2272 3040 2096 
Q 2829 1920 2541 1830 
Q 2253 1741 1926 1754 
L 1114 1754 
L 1114 -186 
z
" transform="scale(0.015625)"/>
     </defs>
     <use xlink:href="#NanumGothic-50"/>
     <use xlink:href="#NanumGothic-6f" transform="translate(53.449997 0)"/>
     <use xlink:href="#NanumGothic-6c" transform="translate(114.049988 0)"/>
     <use xlink:href="#NanumGothic-69" transform="translate(138.249985 0)"/>
     <use xlink:href="#NanumGothic-63" transform="translate(162.449982 0)"/>
     <use xlink:href="#NanumGothic-79" transform="translate(210.849976 0)"/>
    </g>
    <!-- server -->
    <g style="fill: #666666" transform="translate(36.797122 283.490031) scale(0.09 -0.09)">
     <defs>
      <path id="NanumGothic-73" d="M 422 147 
Q 813 -13 1229 -13 
Q 1574 -13 1798 156 
Q 2022 326 2022 614 
Q 2022 781 1897 937 
Q 1773 1094 1594 1197 
Q 1395 1306 1187 1405 
Q 979 1504 787 1613 
Q 557 1741 448 1929 
Q 339 2118 339 2323 
Q 339 2560 428 2739 
Q 518 2918 672 3040 
Q 826 3162 1030 3219 
Q 1235 3277 1466 3277 
Q 1709 3277 1888 3251 
Q 2067 3226 2246 3174 
Q 2285 3162 2313 3136 
Q 2342 3110 2336 3066 
L 2317 2874 
Q 2310 2822 2278 2809 
Q 2246 2797 2214 2810 
Q 2054 2867 1894 2889 
Q 1734 2912 1510 2912 
Q 768 2912 768 2323 
Q 768 2195 867 2080 
Q 966 1965 1203 1850 
Q 1408 1747 1606 1654 
Q 1805 1562 2035 1434 
Q 2234 1325 2365 1101 
Q 2496 877 2496 614 
Q 2496 358 2393 172 
Q 2291 -13 2118 -134 
Q 1946 -256 1722 -317 
Q 1498 -378 1261 -378 
Q 1120 -378 1008 -371 
Q 896 -365 797 -352 
Q 698 -339 595 -320 
Q 493 -301 378 -269 
Q 288 -237 294 -154 
L 320 83 
Q 333 186 422 147 
z
" transform="scale(0.015625)"/>
      <path id="NanumGothic-76" d="M 1843 -192 
Q 1811 -275 1715 -275 
L 1402 -275 
Q 1306 -275 1280 -192 
L 154 3098 
Q 141 3130 160 3158 
Q 179 3187 218 3187 
L 506 3187 
Q 582 3187 621 3098 
L 1568 166 
L 2554 3098 
Q 2566 3136 2598 3161 
Q 2630 3187 2669 3187 
L 2950 3187 
Q 2989 3187 3008 3158 
Q 3027 3130 3014 3098 
L 1843 -192 
z
" transform="scale(0.015625)"/>
     </defs>
     <use xlink:href="#NanumGothic-73"/>
     <use xlink:href="#NanumGothic-65" transform="translate(42.399994 0)"/>
     <use xlink:href="#NanumGothic-72" transform="translate(96.899979 0)"/>
     <use xlink:href="#NanumGothic-76" transform="translate(133.199966 0)"/>
     <use xlink:href="#NanumGothic-65" transform="translate(181.59996 0)"/>
     <use xlink:href="#NanumGothic-72" transform="translate(236.099945 0)"/>
    </g>
   </g>
   <g id="text_20">
    <!-- Robot -->
    <g style="fill: #666666" transform="translate(36.088372 329.919734) scale(0.09 -0.09)">
     <defs>
      <path id="NanumGothic-52" d="M 3002 3078 
Q 3002 3347 2941 3536 
Q 2880 3725 2736 3843 
Q 2592 3962 2361 4013 
Q 2131 4064 1786 4064 
L 1126 4064 
L 1126 2157 
L 1798 2157 
Q 2061 2157 2281 2221 
Q 2502 2285 2662 2406 
Q 2822 2528 2912 2697 
Q 3002 2867 3002 3078 
z
M 3763 -186 
Q 3776 -218 3763 -246 
Q 3750 -275 3712 -275 
L 3379 -275 
Q 3283 -275 3238 -186 
Q 2950 416 2758 797 
Q 2566 1178 2458 1402 
Q 2323 1664 2253 1805 
Q 2106 1773 1981 1766 
Q 1856 1760 1664 1754 
L 1126 1754 
L 1126 -186 
Q 1126 -275 1037 -275 
L 749 -275 
Q 659 -275 659 -186 
L 659 4269 
Q 659 4339 662 4377 
Q 666 4416 685 4435 
Q 704 4454 742 4457 
Q 781 4461 851 4461 
L 2061 4461 
Q 2426 4461 2691 4361 
Q 2957 4262 3133 4083 
Q 3309 3904 3395 3648 
Q 3482 3392 3482 3078 
Q 3482 2886 3414 2713 
Q 3347 2541 3232 2393 
Q 3117 2246 2966 2128 
Q 2816 2010 2656 1933 
L 3763 -186 
z
" transform="scale(0.015625)"/>
     </defs>
     <use xlink:href="#NanumGothic-52"/>
     <use xlink:href="#NanumGothic-6f" transform="translate(62.199997 0)"/>
     <use xlink:href="#NanumGothic-62" transform="translate(122.799988 0)"/>
     <use xlink:href="#NanumGothic-6f" transform="translate(183.399979 0)"/>
     <use xlink:href="#NanumGothic-74" transform="translate(243.999969 0)"/>
    </g>
    <!-- client -->
    <g style="fill: #666666" transform="translate(38.975403 339.805109) scale(0.09 -0.09)">
     <use xlink:href="#NanumGothic-63"/>
     <use xlink:href="#NanumGothic-6c" transform="translate(48.399994 0)"/>
     <use xlink:href="#NanumGothic-69" transform="translate(72.599991 0)"/>
     <use xlink:href="#NanumGothic-65" transform="translate(96.799988 0)"/>
     <use xlink:href="#NanumGothic-6e" transform="translate(151.299973 0)"/>
     <use xlink:href="#NanumGothic-74" transform="translate(211.899963 0)"/>
    </g>
   </g>
   <g id="text_21">
    <!-- robot은 항상 실행 중. inference는 다음 chunk를 미리 준비 -->
    <g style="fill: #3da084" transform="translate(266.888816 247.88) scale(0.1 -0.1)">
     <defs>
      <path id="NanumGothic-c740" d="M 5728 2022 
Q 5760 2022 5792 2000 
Q 5824 1978 5824 1939 
L 5824 1722 
Q 5824 1690 5792 1664 
Q 5760 1638 5728 1638 
L 288 1638 
Q 250 1638 221 1664 
Q 192 1690 192 1722 
L 192 1939 
Q 192 1978 221 2000 
Q 250 2022 288 2022 
L 5728 2022 
z
M 3008 2624 
Q 2701 2624 2352 2681 
Q 2003 2739 1705 2873 
Q 1408 3008 1213 3229 
Q 1018 3450 1018 3776 
Q 1018 4122 1213 4342 
Q 1408 4563 1705 4691 
Q 2003 4819 2352 4867 
Q 2701 4915 3008 4915 
Q 3322 4915 3674 4857 
Q 4026 4800 4320 4669 
Q 4614 4538 4806 4320 
Q 4998 4102 4998 3776 
Q 4998 3450 4806 3229 
Q 4614 3008 4320 2873 
Q 4026 2739 3674 2681 
Q 3322 2624 3008 2624 
z
M 3008 4518 
Q 2803 4518 2540 4489 
Q 2278 4461 2048 4381 
Q 1818 4301 1658 4153 
Q 1498 4006 1498 3770 
Q 1498 3533 1658 3385 
Q 1818 3238 2048 3158 
Q 2278 3078 2540 3049 
Q 2803 3021 3008 3021 
Q 3213 3021 3475 3049 
Q 3738 3078 3968 3158 
Q 4198 3238 4358 3385 
Q 4518 3533 4518 3770 
Q 4518 4006 4358 4153 
Q 4198 4301 3968 4381 
Q 3738 4461 3475 4489 
Q 3213 4518 3008 4518 
z
M 5133 -704 
Q 5133 -742 5101 -761 
Q 5069 -781 5037 -781 
L 1562 -781 
Q 1261 -781 1168 -656 
Q 1075 -531 1075 -269 
L 1075 1037 
Q 1075 1126 1165 1126 
L 1427 1126 
Q 1517 1126 1517 1037 
L 1517 -262 
Q 1517 -352 1545 -374 
Q 1574 -397 1664 -397 
L 5037 -397 
Q 5069 -397 5101 -419 
Q 5133 -442 5133 -474 
L 5133 -704 
z
" transform="scale(0.015625)"/>
      <path id="NanumGothic-d56d" d="M 5005 64 
Q 5005 -160 4857 -339 
Q 4710 -518 4457 -646 
Q 4205 -774 3869 -844 
Q 3533 -915 3149 -915 
Q 2733 -915 2393 -844 
Q 2054 -774 1811 -646 
Q 1568 -518 1433 -339 
Q 1299 -160 1299 64 
Q 1299 282 1433 458 
Q 1568 634 1811 762 
Q 2054 890 2393 960 
Q 2733 1030 3149 1030 
Q 3533 1030 3869 963 
Q 4205 896 4457 768 
Q 4710 640 4857 461 
Q 5005 282 5005 64 
z
M 3533 2413 
Q 3533 2182 3427 1993 
Q 3322 1805 3139 1664 
Q 2957 1523 2704 1446 
Q 2451 1370 2157 1370 
Q 1856 1370 1606 1446 
Q 1357 1523 1171 1664 
Q 986 1805 883 1997 
Q 781 2189 781 2413 
Q 781 2643 883 2835 
Q 986 3027 1171 3161 
Q 1357 3296 1606 3373 
Q 1856 3450 2157 3450 
Q 2451 3450 2704 3373 
Q 2957 3296 3139 3158 
Q 3322 3021 3427 2829 
Q 3533 2637 3533 2413 
z
M 4550 45 
Q 4550 192 4435 307 
Q 4320 422 4125 502 
Q 3930 582 3674 624 
Q 3418 666 3142 666 
Q 2835 666 2579 624 
Q 2323 582 2140 502 
Q 1958 422 1856 307 
Q 1754 192 1754 45 
Q 1754 -96 1856 -208 
Q 1958 -320 2140 -397 
Q 2323 -474 2579 -512 
Q 2835 -550 3142 -550 
Q 3418 -550 3674 -512 
Q 3930 -474 4125 -397 
Q 4320 -320 4435 -208 
Q 4550 -96 4550 45 
z
M 3104 2413 
Q 3104 2566 3033 2691 
Q 2963 2816 2835 2902 
Q 2707 2989 2534 3037 
Q 2362 3085 2157 3085 
Q 1952 3085 1779 3037 
Q 1606 2989 1478 2902 
Q 1350 2816 1276 2691 
Q 1203 2566 1203 2413 
Q 1203 2259 1276 2134 
Q 1350 2010 1478 1920 
Q 1606 1830 1779 1782 
Q 1952 1734 2157 1734 
Q 2362 1734 2534 1782 
Q 2707 1830 2835 1920 
Q 2963 2010 3033 2134 
Q 3104 2259 3104 2413 
z
M 4928 1274 
Q 4928 1184 4838 1184 
L 4576 1184 
Q 4486 1184 4486 1274 
L 4486 4915 
Q 4486 5005 4576 5005 
L 4838 5005 
Q 4928 5005 4928 4915 
L 4928 3181 
L 5811 3181 
Q 5850 3181 5878 3158 
Q 5907 3136 5907 3098 
L 5907 2880 
Q 5907 2848 5878 2822 
Q 5850 2797 5811 2797 
L 4928 2797 
L 4928 1274 
z
M 4026 3821 
Q 4026 3738 3930 3738 
L 397 3738 
Q 365 3738 336 3763 
Q 307 3789 307 3827 
L 307 4032 
Q 307 4070 336 4096 
Q 365 4122 397 4122 
L 3930 4122 
Q 4026 4122 4026 4038 
L 4026 3821 
z
M 3091 4608 
Q 3091 4518 2995 4518 
L 1242 4518 
Q 1210 4518 1181 4540 
Q 1152 4563 1152 4602 
L 1152 4819 
Q 1152 4858 1177 4883 
Q 1203 4909 1235 4909 
L 2995 4909 
Q 3091 4909 3091 4819 
L 3091 4608 
z
" transform="scale(0.015625)"/>
      <path id="NanumGothic-c0c1" d="M 1299 250 
Q 1299 518 1433 732 
Q 1568 947 1811 1097 
Q 2054 1248 2393 1328 
Q 2733 1408 3149 1408 
Q 3533 1408 3869 1328 
Q 4205 1248 4457 1101 
Q 4710 954 4857 739 
Q 5005 525 5005 250 
Q 5005 -26 4857 -243 
Q 4710 -461 4457 -611 
Q 4205 -762 3869 -842 
Q 3533 -922 3149 -922 
Q 2733 -922 2393 -842 
Q 2054 -762 1811 -611 
Q 1568 -461 1433 -243 
Q 1299 -26 1299 250 
z
M 1754 230 
Q 1754 45 1856 -99 
Q 1958 -243 2140 -339 
Q 2323 -435 2579 -486 
Q 2835 -538 3142 -538 
Q 3418 -538 3674 -486 
Q 3930 -435 4125 -339 
Q 4320 -243 4435 -99 
Q 4550 45 4550 230 
Q 4550 422 4435 569 
Q 4320 717 4125 816 
Q 3930 915 3674 969 
Q 3418 1024 3142 1024 
Q 2835 1024 2579 969 
Q 2323 915 2140 816 
Q 1958 717 1856 569 
Q 1754 422 1754 230 
z
M 2342 4774 
Q 2342 4307 2246 3904 
Q 2323 3635 2460 3392 
Q 2598 3149 2784 2937 
Q 2970 2726 3190 2556 
Q 3411 2387 3654 2272 
Q 3693 2253 3689 2217 
Q 3686 2182 3674 2157 
L 3539 1946 
Q 3520 1914 3494 1901 
Q 3469 1888 3411 1920 
Q 3264 1997 3075 2128 
Q 2886 2259 2694 2438 
Q 2502 2618 2329 2832 
Q 2157 3046 2042 3277 
Q 1830 2790 1472 2393 
Q 1114 1997 634 1683 
Q 602 1664 563 1657 
Q 525 1651 499 1683 
L 339 1894 
Q 320 1920 333 1958 
Q 346 1997 378 2016 
Q 1139 2483 1523 3193 
Q 1907 3904 1894 4781 
Q 1894 4883 1971 4883 
L 2272 4864 
Q 2342 4864 2342 4774 
z
M 4928 1530 
Q 4928 1440 4838 1440 
L 4576 1440 
Q 4486 1440 4486 1530 
L 4486 4915 
Q 4486 5005 4576 5005 
L 4838 5005 
Q 4928 5005 4928 4915 
L 4928 3373 
L 5811 3373 
Q 5850 3373 5878 3350 
Q 5907 3328 5907 3290 
L 5907 3072 
Q 5907 3040 5878 3014 
Q 5850 2989 5811 2989 
L 4928 2989 
L 4928 1530 
z
" transform="scale(0.015625)"/>
      <path id="NanumGothic-c2e4" d="M 5286 -838 
Q 5286 -870 5257 -892 
Q 5229 -915 5203 -915 
L 1984 -915 
Q 1683 -915 1590 -803 
Q 1498 -691 1498 -422 
L 1498 58 
Q 1498 326 1610 419 
Q 1722 512 2010 512 
L 4570 512 
Q 4659 512 4684 537 
Q 4710 563 4710 659 
L 4710 1024 
Q 4710 1120 4688 1145 
Q 4666 1171 4576 1171 
L 1574 1171 
Q 1542 1171 1513 1190 
Q 1485 1210 1485 1242 
L 1485 1472 
Q 1485 1504 1513 1523 
Q 1542 1542 1574 1542 
L 4646 1542 
Q 4800 1542 4896 1520 
Q 4992 1498 5049 1446 
Q 5107 1395 5129 1302 
Q 5152 1210 5152 1075 
L 5152 595 
Q 5152 326 5040 233 
Q 4928 141 4640 141 
L 2074 141 
Q 1984 141 1961 115 
Q 1939 90 1939 -6 
L 1939 -397 
Q 1939 -486 1964 -515 
Q 1990 -544 2080 -544 
L 5197 -544 
Q 5229 -544 5257 -563 
Q 5286 -582 5286 -614 
L 5286 -838 
z
M 2355 4806 
Q 2349 4358 2240 3974 
Q 2323 3763 2470 3552 
Q 2618 3341 2806 3155 
Q 2995 2970 3216 2819 
Q 3437 2669 3667 2573 
Q 3706 2560 3706 2525 
Q 3706 2490 3693 2464 
L 3571 2246 
Q 3552 2208 3517 2205 
Q 3482 2202 3443 2214 
Q 3238 2304 3033 2441 
Q 2829 2579 2640 2748 
Q 2451 2918 2294 3100 
Q 2138 3283 2035 3462 
Q 1830 3078 1500 2742 
Q 1171 2406 691 2099 
Q 646 2067 617 2064 
Q 589 2061 557 2099 
L 397 2298 
Q 346 2368 429 2426 
Q 826 2675 1107 2940 
Q 1389 3206 1565 3497 
Q 1741 3789 1824 4115 
Q 1907 4442 1907 4813 
Q 1907 4864 1932 4889 
Q 1958 4915 1984 4915 
L 2285 4896 
Q 2355 4896 2355 4806 
z
M 5152 2003 
Q 5152 1914 5062 1914 
L 4800 1914 
Q 4710 1914 4710 2003 
L 4710 4915 
Q 4710 5005 4800 5005 
L 5062 5005 
Q 5152 5005 5152 4915 
L 5152 2003 
z
" transform="scale(0.015625)"/>
      <path id="NanumGothic-d589" d="M 5382 64 
Q 5382 -173 5219 -355 
Q 5056 -538 4787 -662 
Q 4518 -787 4166 -851 
Q 3814 -915 3430 -915 
Q 3014 -915 2659 -851 
Q 2304 -787 2041 -662 
Q 1779 -538 1632 -355 
Q 1485 -173 1485 64 
Q 1485 294 1632 473 
Q 1779 653 2041 777 
Q 2304 902 2659 966 
Q 3014 1030 3430 1030 
Q 3814 1030 4166 966 
Q 4518 902 4787 780 
Q 5056 659 5219 476 
Q 5382 294 5382 64 
z
M 3053 2426 
Q 3053 2234 2973 2051 
Q 2893 1869 2736 1728 
Q 2579 1587 2352 1500 
Q 2125 1414 1837 1414 
Q 1542 1414 1315 1500 
Q 1088 1587 934 1728 
Q 781 1869 701 2051 
Q 621 2234 621 2426 
Q 621 2624 701 2803 
Q 781 2982 934 3123 
Q 1088 3264 1315 3347 
Q 1542 3430 1837 3430 
Q 2125 3430 2352 3344 
Q 2579 3258 2736 3120 
Q 2893 2982 2973 2800 
Q 3053 2618 3053 2426 
z
M 4128 3302 
L 4941 3302 
L 4941 4915 
Q 4941 5005 5030 5005 
L 5274 5005 
Q 5363 5005 5363 4915 
L 5363 1306 
Q 5363 1216 5274 1216 
L 5030 1216 
Q 4941 1216 4941 1306 
L 4941 2918 
L 4128 2918 
L 4128 1504 
Q 4128 1414 4038 1414 
L 3795 1414 
Q 3706 1414 3706 1504 
L 3706 4806 
Q 3706 4896 3795 4896 
L 4038 4896 
Q 4128 4896 4128 4806 
L 4128 3302 
z
M 4934 45 
Q 4934 205 4800 323 
Q 4666 442 4451 518 
Q 4237 595 3968 633 
Q 3699 672 3424 672 
Q 3123 672 2851 633 
Q 2579 595 2374 518 
Q 2170 442 2051 323 
Q 1933 205 1933 45 
Q 1933 -109 2051 -221 
Q 2170 -333 2374 -409 
Q 2579 -486 2851 -521 
Q 3123 -557 3424 -557 
Q 3699 -557 3968 -521 
Q 4237 -486 4451 -409 
Q 4666 -333 4800 -221 
Q 4934 -109 4934 45 
z
M 2643 2426 
Q 2643 2688 2441 2877 
Q 2240 3066 1837 3066 
Q 1434 3066 1232 2880 
Q 1030 2694 1030 2426 
Q 1030 2170 1232 1974 
Q 1434 1779 1837 1779 
Q 2240 1779 2441 1974 
Q 2643 2170 2643 2426 
z
M 3251 3802 
Q 3251 3718 3155 3718 
L 474 3718 
Q 442 3718 413 3744 
Q 384 3770 384 3808 
L 384 4013 
Q 384 4051 413 4076 
Q 442 4102 474 4102 
L 3155 4102 
Q 3251 4102 3251 4019 
L 3251 3802 
z
M 2611 4570 
Q 2611 4480 2515 4480 
L 1152 4480 
Q 1120 4480 1091 4502 
Q 1062 4525 1062 4563 
L 1062 4781 
Q 1062 4819 1088 4844 
Q 1114 4870 1146 4870 
L 2515 4870 
Q 2611 4870 2611 4781 
L 2611 4570 
z
" transform="scale(0.015625)"/>
      <path id="NanumGothic-2e" d="M 691 -256 
Q 691 -122 784 -29 
Q 877 64 1011 64 
Q 1146 64 1238 -29 
Q 1331 -122 1331 -256 
Q 1331 -390 1238 -483 
Q 1146 -576 1011 -576 
Q 877 -576 784 -483 
Q 691 -390 691 -256 
z
" transform="scale(0.015625)"/>
      <path id="NanumGothic-b294" d="M 5037 2893 
Q 5037 2854 5005 2835 
Q 4973 2816 4941 2816 
L 1619 2816 
Q 1318 2816 1225 2941 
Q 1133 3066 1133 3328 
L 1133 4806 
Q 1133 4896 1222 4896 
L 1485 4896 
Q 1574 4896 1574 4806 
L 1574 3341 
Q 1574 3251 1603 3225 
Q 1632 3200 1722 3200 
L 4941 3200 
Q 4973 3200 5005 3177 
Q 5037 3155 5037 3123 
L 5037 2893 
z
M 5133 -704 
Q 5133 -742 5101 -761 
Q 5069 -781 5037 -781 
L 1562 -781 
Q 1261 -781 1168 -656 
Q 1075 -531 1075 -269 
L 1075 979 
Q 1075 1069 1165 1069 
L 1427 1069 
Q 1517 1069 1517 979 
L 1517 -262 
Q 1517 -352 1545 -374 
Q 1574 -397 1664 -397 
L 5037 -397 
Q 5069 -397 5101 -419 
Q 5133 -442 5133 -474 
L 5133 -704 
z
M 5728 1958 
Q 5760 1958 5792 1936 
Q 5824 1914 5824 1875 
L 5824 1658 
Q 5824 1626 5792 1600 
Q 5760 1574 5728 1574 
L 288 1574 
Q 250 1574 221 1600 
Q 192 1626 192 1658 
L 192 1875 
Q 192 1914 221 1936 
Q 250 1958 288 1958 
L 5728 1958 
z
" transform="scale(0.015625)"/>
      <path id="NanumGothic-b2e4" d="M 4019 1171 
Q 4032 1082 3936 1062 
Q 3699 1005 3337 953 
Q 2976 902 2576 864 
Q 2176 826 1785 806 
Q 1395 787 1107 794 
Q 819 800 713 928 
Q 608 1056 608 1325 
L 608 4077 
Q 608 4346 710 4435 
Q 813 4525 1094 4525 
L 3296 4525 
Q 3379 4525 3379 4448 
L 3379 4218 
Q 3379 4141 3296 4141 
L 1178 4141 
Q 1088 4141 1069 4118 
Q 1050 4096 1050 4000 
L 1050 1357 
Q 1050 1261 1082 1229 
Q 1114 1197 1203 1190 
Q 1510 1178 1852 1194 
Q 2195 1210 2544 1245 
Q 2893 1280 3229 1328 
Q 3565 1376 3866 1434 
Q 3968 1453 3987 1363 
L 4019 1171 
z
M 4928 -806 
Q 4928 -896 4838 -896 
L 4576 -896 
Q 4486 -896 4486 -806 
L 4486 4915 
Q 4486 5005 4576 5005 
L 4838 5005 
Q 4928 5005 4928 4915 
L 4928 2586 
L 5811 2586 
Q 5850 2586 5878 2563 
Q 5907 2541 5907 2502 
L 5907 2285 
Q 5907 2253 5878 2227 
Q 5850 2202 5811 2202 
L 4928 2202 
L 4928 -806 
z
" transform="scale(0.015625)"/>
      <path id="NanumGothic-c74c" d="M 1075 672 
Q 1075 941 1177 1033 
Q 1280 1126 1562 1126 
L 4442 1126 
Q 4595 1126 4688 1107 
Q 4781 1088 4835 1037 
Q 4890 986 4909 896 
Q 4928 806 4928 672 
L 4928 -390 
Q 4928 -659 4825 -752 
Q 4723 -845 4442 -845 
L 1562 -845 
Q 1408 -845 1315 -825 
Q 1222 -806 1168 -752 
Q 1114 -698 1094 -611 
Q 1075 -525 1075 -390 
L 1075 672 
z
M 1670 742 
Q 1581 742 1549 707 
Q 1517 672 1517 576 
L 1517 -294 
Q 1517 -390 1549 -425 
Q 1581 -461 1670 -461 
L 4333 -461 
Q 4422 -461 4454 -425 
Q 4486 -390 4486 -294 
L 4486 576 
Q 4486 672 4454 707 
Q 4422 742 4333 742 
L 1670 742 
z
M 5728 2144 
Q 5760 2144 5792 2121 
Q 5824 2099 5824 2061 
L 5824 1843 
Q 5824 1811 5792 1785 
Q 5760 1760 5728 1760 
L 288 1760 
Q 250 1760 221 1785 
Q 192 1811 192 1843 
L 192 2061 
Q 192 2099 221 2121 
Q 250 2144 288 2144 
L 5728 2144 
z
M 2995 2669 
Q 2675 2669 2323 2723 
Q 1971 2778 1680 2906 
Q 1389 3034 1197 3254 
Q 1005 3475 1005 3802 
Q 1005 4128 1197 4342 
Q 1389 4557 1680 4688 
Q 1971 4819 2323 4873 
Q 2675 4928 2995 4928 
Q 3322 4928 3674 4864 
Q 4026 4800 4317 4665 
Q 4608 4531 4797 4316 
Q 4986 4102 4986 3802 
Q 4986 3494 4797 3280 
Q 4608 3066 4313 2931 
Q 4019 2797 3670 2733 
Q 3322 2669 2995 2669 
z
M 2995 4531 
Q 2771 4531 2505 4496 
Q 2240 4461 2009 4374 
Q 1779 4288 1625 4147 
Q 1472 4006 1472 3795 
Q 1472 3590 1625 3449 
Q 1779 3309 2009 3222 
Q 2240 3136 2505 3101 
Q 2771 3066 2995 3066 
Q 3213 3066 3478 3101 
Q 3744 3136 3974 3222 
Q 4205 3309 4361 3449 
Q 4518 3590 4518 3795 
Q 4518 4006 4361 4147 
Q 4205 4288 3974 4374 
Q 3744 4461 3478 4496 
Q 3213 4531 2995 4531 
z
" transform="scale(0.015625)"/>
      <path id="NanumGothic-b97c" d="M 5728 2278 
Q 5760 2278 5792 2256 
Q 5824 2234 5824 2195 
L 5824 1978 
Q 5824 1946 5792 1920 
Q 5760 1894 5728 1894 
L 288 1894 
Q 250 1894 221 1920 
Q 192 1946 192 1978 
L 192 2195 
Q 192 2234 221 2256 
Q 250 2278 288 2278 
L 5728 2278 
z
M 5062 -781 
Q 5062 -813 5033 -835 
Q 5005 -858 4979 -858 
L 1568 -858 
Q 1267 -858 1174 -746 
Q 1082 -634 1082 -365 
L 1082 13 
Q 1082 282 1194 374 
Q 1306 467 1594 467 
L 4352 467 
Q 4442 467 4464 492 
Q 4486 518 4486 614 
L 4486 858 
Q 4486 954 4464 979 
Q 4442 1005 4352 1005 
L 1158 1005 
Q 1126 1005 1097 1024 
Q 1069 1043 1069 1075 
L 1069 1299 
Q 1069 1331 1097 1350 
Q 1126 1370 1158 1370 
L 4416 1370 
Q 4570 1370 4666 1347 
Q 4762 1325 4819 1273 
Q 4877 1222 4899 1129 
Q 4922 1037 4922 902 
L 4922 557 
Q 4922 288 4810 195 
Q 4698 102 4410 102 
L 1651 102 
Q 1562 102 1539 76 
Q 1517 51 1517 -45 
L 1517 -339 
Q 1517 -429 1542 -457 
Q 1568 -486 1658 -486 
L 4973 -486 
Q 5005 -486 5033 -505 
Q 5062 -525 5062 -557 
L 5062 -781 
z
M 5011 2880 
Q 5011 2848 4982 2825 
Q 4954 2803 4928 2803 
L 1594 2803 
Q 1293 2803 1200 2915 
Q 1107 3027 1107 3296 
L 1107 3642 
Q 1107 3910 1219 4003 
Q 1331 4096 1619 4096 
L 4333 4096 
Q 4422 4096 4444 4118 
Q 4467 4141 4467 4243 
L 4467 4506 
Q 4467 4602 4444 4627 
Q 4422 4653 4333 4653 
L 1197 4653 
Q 1165 4653 1136 4672 
Q 1107 4691 1107 4723 
L 1107 4954 
Q 1107 4986 1136 5005 
Q 1165 5024 1197 5024 
L 4403 5024 
Q 4557 5024 4653 5001 
Q 4749 4979 4806 4928 
Q 4864 4877 4886 4784 
Q 4909 4691 4909 4557 
L 4909 4186 
Q 4909 3910 4797 3820 
Q 4685 3731 4397 3731 
L 1677 3731 
Q 1587 3731 1564 3705 
Q 1542 3680 1542 3584 
L 1542 3315 
Q 1542 3226 1568 3197 
Q 1594 3168 1683 3168 
L 4922 3168 
Q 4954 3168 4982 3149 
Q 5011 3130 5011 3098 
L 5011 2880 
z
" transform="scale(0.015625)"/>
      <path id="NanumGothic-bbf8" d="M 5152 -806 
Q 5152 -896 5062 -896 
L 4800 -896 
Q 4710 -896 4710 -806 
L 4710 4915 
Q 4710 5005 4800 5005 
L 5062 5005 
Q 5152 5005 5152 4915 
L 5152 -806 
z
M 704 4070 
Q 704 4339 806 4432 
Q 909 4525 1190 4525 
L 3072 4525 
Q 3226 4525 3318 4505 
Q 3411 4486 3465 4435 
Q 3520 4384 3539 4294 
Q 3558 4205 3558 4070 
L 3558 1235 
Q 3558 966 3456 873 
Q 3354 781 3072 781 
L 1190 781 
Q 1037 781 944 800 
Q 851 819 796 873 
Q 742 928 723 1014 
Q 704 1101 704 1235 
L 704 4070 
z
M 1299 4141 
Q 1210 4141 1178 4105 
Q 1146 4070 1146 3974 
L 1146 1331 
Q 1146 1235 1178 1200 
Q 1210 1165 1299 1165 
L 2963 1165 
Q 3053 1165 3085 1200 
Q 3117 1235 3117 1331 
L 3117 3974 
Q 3117 4070 3085 4105 
Q 3053 4141 2963 4141 
L 1299 4141 
z
" transform="scale(0.015625)"/>
      <path id="NanumGothic-b9ac" d="M 5152 -806 
Q 5152 -896 5062 -896 
L 4800 -896 
Q 4710 -896 4710 -806 
L 4710 4915 
Q 4710 5005 4800 5005 
L 5062 5005 
Q 5152 5005 5152 4915 
L 5152 -806 
z
M 1210 550 
Q 922 563 822 668 
Q 723 774 723 1043 
L 723 2317 
Q 723 2586 835 2678 
Q 947 2771 1235 2771 
L 2848 2771 
Q 2938 2771 2963 2796 
Q 2989 2822 2989 2918 
L 2989 3994 
Q 2989 4090 2966 4115 
Q 2944 4141 2854 4141 
L 838 4141 
Q 806 4141 777 4160 
Q 749 4179 749 4211 
L 749 4454 
Q 749 4486 777 4505 
Q 806 4525 838 4525 
L 2925 4525 
Q 3078 4525 3174 4502 
Q 3270 4480 3328 4429 
Q 3386 4378 3408 4285 
Q 3430 4192 3430 4058 
L 3430 2842 
Q 3430 2573 3318 2480 
Q 3206 2387 2918 2387 
L 1299 2387 
Q 1210 2387 1187 2361 
Q 1165 2336 1165 2240 
L 1165 1075 
Q 1165 928 1306 928 
Q 2067 915 2768 985 
Q 3469 1056 4128 1203 
Q 4218 1222 4237 1139 
L 4275 928 
Q 4294 845 4192 819 
Q 3853 742 3478 688 
Q 3104 634 2717 598 
Q 2330 563 1946 550 
Q 1562 538 1210 550 
z
" transform="scale(0.015625)"/>
      <path id="NanumGothic-c900" d="M 4493 4179 
Q 4307 4013 4076 3859 
Q 3846 3706 3578 3558 
Q 4000 3424 4461 3299 
Q 4922 3174 5331 3091 
Q 5414 3072 5389 3002 
L 5299 2790 
Q 5267 2720 5184 2739 
Q 4973 2778 4707 2842 
Q 4442 2906 4163 2982 
Q 3885 3059 3603 3145 
Q 3322 3232 3085 3315 
Q 2176 2906 870 2598 
Q 813 2586 787 2605 
Q 762 2624 749 2662 
L 691 2848 
Q 666 2938 736 2957 
Q 1261 3078 1741 3228 
Q 2221 3379 2640 3548 
Q 3059 3718 3408 3904 
Q 3757 4090 4006 4275 
Q 4109 4352 4086 4393 
Q 4064 4435 3974 4435 
L 1210 4435 
Q 1126 4435 1126 4518 
L 1126 4742 
Q 1126 4819 1210 4819 
L 4134 4819 
Q 4627 4819 4723 4643 
Q 4819 4467 4493 4179 
z
M 2912 339 
Q 2880 339 2854 368 
Q 2829 397 2829 435 
L 2829 1728 
L 288 1728 
Q 250 1728 221 1753 
Q 192 1779 192 1811 
L 192 2029 
Q 192 2067 221 2089 
Q 250 2112 288 2112 
L 5728 2112 
Q 5760 2112 5792 2089 
Q 5824 2067 5824 2029 
L 5824 1811 
Q 5824 1779 5792 1753 
Q 5760 1728 5728 1728 
L 3270 1728 
L 3270 435 
Q 3270 397 3248 368 
Q 3226 339 3187 339 
L 2912 339 
z
M 5133 -704 
Q 5133 -742 5101 -761 
Q 5069 -781 5037 -781 
L 1510 -781 
Q 1210 -781 1117 -656 
Q 1024 -531 1024 -269 
L 1024 1005 
Q 1024 1094 1114 1094 
L 1376 1094 
Q 1466 1094 1466 1005 
L 1466 -262 
Q 1466 -352 1494 -374 
Q 1523 -397 1613 -397 
L 5037 -397 
Q 5069 -397 5101 -419 
Q 5133 -442 5133 -474 
L 5133 -704 
z
" transform="scale(0.015625)"/>
      <path id="NanumGothic-be44" d="M 5158 -806 
Q 5158 -896 5069 -896 
L 4806 -896 
Q 4717 -896 4717 -806 
L 4717 4915 
Q 4717 5005 4806 5005 
L 5069 5005 
Q 5158 5005 5158 4915 
L 5158 -806 
z
M 1178 781 
Q 1024 781 931 800 
Q 838 819 787 873 
Q 736 928 717 1014 
Q 698 1101 698 1235 
L 698 4602 
Q 698 4634 723 4656 
Q 749 4678 781 4678 
L 1056 4678 
Q 1088 4678 1110 4652 
Q 1133 4627 1133 4602 
L 1133 3117 
L 3117 3117 
L 3117 4595 
Q 3117 4627 3139 4652 
Q 3162 4678 3194 4678 
L 3469 4678 
Q 3501 4678 3526 4656 
Q 3552 4634 3552 4602 
L 3552 1190 
Q 3552 947 3449 864 
Q 3347 781 3066 781 
L 1178 781 
z
M 1133 2739 
L 1133 1312 
Q 1133 1216 1165 1187 
Q 1197 1158 1286 1158 
L 2963 1158 
Q 3053 1158 3085 1187 
Q 3117 1216 3117 1312 
L 3117 2739 
L 1133 2739 
z
" transform="scale(0.015625)"/>
     </defs>
     <use xlink:href="#NanumGothic-72"/>
     <use xlink:href="#NanumGothic-6f" transform="translate(36.299988 0)"/>
     <use xlink:href="#NanumGothic-62" transform="translate(96.899979 0)"/>
     <use xlink:href="#NanumGothic-6f" transform="translate(157.499969 0)"/>
     <use xlink:href="#NanumGothic-74" transform="translate(218.09996 0)"/>
     <use xlink:href="#NanumGothic-c740" transform="translate(254.399948 0)"/>
     <use xlink:href="#NanumGothic-20" transform="translate(348.399933 0)"/>
     <use xlink:href="#NanumGothic-d56d" transform="translate(376.399918 0)"/>
     <use xlink:href="#NanumGothic-c0c1" transform="translate(470.399902 0)"/>
     <use xlink:href="#NanumGothic-20" transform="translate(564.399887 0)"/>
     <use xlink:href="#NanumGothic-c2e4" transform="translate(592.399872 0)"/>
     <use xlink:href="#NanumGothic-d589" transform="translate(686.399857 0)"/>
     <use xlink:href="#NanumGothic-20" transform="translate(780.399841 0)"/>
     <use xlink:href="#NanumGothic-c911" transform="translate(808.399826 0)"/>
     <use xlink:href="#NanumGothic-2e" transform="translate(902.399811 0)"/>
     <use xlink:href="#NanumGothic-20" transform="translate(932.699799 0)"/>
     <use xlink:href="#NanumGothic-69" transform="translate(960.699783 0)"/>
     <use xlink:href="#NanumGothic-6e" transform="translate(984.89978 0)"/>
     <use xlink:href="#NanumGothic-66" transform="translate(1045.499771 0)"/>
     <use xlink:href="#NanumGothic-65" transform="translate(1081.799759 0)"/>
     <use xlink:href="#NanumGothic-72" transform="translate(1136.299744 0)"/>
     <use xlink:href="#NanumGothic-65" transform="translate(1172.599731 0)"/>
     <use xlink:href="#NanumGothic-6e" transform="translate(1227.099716 0)"/>
     <use xlink:href="#NanumGothic-63" transform="translate(1287.699707 0)"/>
     <use xlink:href="#NanumGothic-65" transform="translate(1336.099701 0)"/>
     <use xlink:href="#NanumGothic-b294" transform="translate(1390.599686 0)"/>
     <use xlink:href="#NanumGothic-20" transform="translate(1484.59967 0)"/>
     <use xlink:href="#NanumGothic-b2e4" transform="translate(1512.599655 0)"/>
     <use xlink:href="#NanumGothic-c74c" transform="translate(1606.59964 0)"/>
     <use xlink:href="#NanumGothic-20" transform="translate(1700.599625 0)"/>
     <use xlink:href="#NanumGothic-63" transform="translate(1728.599609 0)"/>
     <use xlink:href="#NanumGothic-68" transform="translate(1776.999603 0)"/>
     <use xlink:href="#NanumGothic-75" transform="translate(1837.599594 0)"/>
     <use xlink:href="#NanumGothic-6e" transform="translate(1898.199585 0)"/>
     <use xlink:href="#NanumGothic-6b" transform="translate(1958.799576 0)"/>
     <use xlink:href="#NanumGothic-b97c" transform="translate(2010.799561 0)"/>
     <use xlink:href="#NanumGothic-20" transform="translate(2104.799545 0)"/>
     <use xlink:href="#NanumGothic-bbf8" transform="translate(2132.79953 0)"/>
     <use xlink:href="#NanumGothic-b9ac" transform="translate(2226.799515 0)"/>
     <use xlink:href="#NanumGothic-20" transform="translate(2320.7995 0)"/>
     <use xlink:href="#NanumGothic-c900" transform="translate(2348.799484 0)"/>
     <use xlink:href="#NanumGothic-be44" transform="translate(2442.799469 0)"/>
    </g>
   </g>
   <g id="text_22">
    <!-- Async mode: inference와 action 실행이 병렬 -->
    <g style="fill: #3da084" transform="translate(7.2 234.84) scale(0.11 -0.11)">
     <defs>
      <path id="NanumGothic-41" d="M 3386 1402 
Q 3117 2067 2870 2716 
Q 2624 3366 2355 4032 
Q 2086 3366 1827 2716 
Q 1568 2067 1299 1402 
L 3386 1402 
z
M 4499 -186 
Q 4531 -275 4442 -275 
L 4134 -275 
Q 4096 -275 4067 -262 
Q 4038 -250 4013 -186 
L 3539 992 
L 1133 992 
Q 1011 691 896 403 
Q 781 115 666 -186 
Q 640 -250 611 -262 
Q 582 -275 544 -275 
L 243 -275 
Q 154 -275 186 -186 
L 2067 4397 
Q 2099 4474 2182 4474 
L 2573 4474 
Q 2656 4474 2688 4397 
L 4499 -186 
z
" transform="scale(0.015625)"/>
      <path id="NanumGothic-c640" d="M 4090 890 
Q 4192 909 4198 845 
L 4237 621 
Q 4250 544 4154 531 
Q 3936 493 3686 461 
Q 3437 429 3181 400 
Q 2925 371 2669 348 
Q 2413 326 2182 314 
Q 2003 301 1760 294 
Q 1517 288 1254 285 
Q 992 282 742 282 
Q 493 282 307 288 
Q 269 288 240 313 
Q 211 339 211 371 
L 211 589 
Q 211 627 240 649 
Q 269 672 307 672 
Q 442 666 630 662 
Q 819 659 1030 659 
Q 1242 659 1462 665 
Q 1683 672 1882 678 
L 1882 1792 
Q 1594 1824 1354 1942 
Q 1114 2061 938 2246 
Q 762 2432 662 2672 
Q 563 2912 563 3187 
Q 563 3520 678 3782 
Q 794 4045 995 4224 
Q 1197 4403 1475 4499 
Q 1754 4595 2074 4595 
Q 2381 4595 2659 4499 
Q 2938 4403 3149 4220 
Q 3360 4038 3485 3776 
Q 3610 3514 3610 3187 
Q 3610 2918 3514 2684 
Q 3418 2451 3248 2268 
Q 3078 2086 2841 1964 
Q 2605 1843 2323 1805 
L 2323 698 
Q 2534 710 2768 729 
Q 3002 749 3232 771 
Q 3462 794 3683 826 
Q 3904 858 4090 890 
z
M 3162 3194 
Q 3162 3437 3072 3619 
Q 2982 3802 2832 3926 
Q 2682 4051 2483 4115 
Q 2285 4179 2074 4179 
Q 1850 4179 1658 4115 
Q 1466 4051 1322 3926 
Q 1178 3802 1094 3616 
Q 1011 3430 1011 3194 
Q 1011 2963 1091 2780 
Q 1171 2598 1312 2467 
Q 1453 2336 1648 2265 
Q 1843 2195 2074 2195 
Q 2285 2195 2483 2268 
Q 2682 2342 2832 2476 
Q 2982 2611 3072 2793 
Q 3162 2976 3162 3194 
z
M 4928 -806 
Q 4928 -896 4838 -896 
L 4576 -896 
Q 4486 -896 4486 -806 
L 4486 4915 
Q 4486 5005 4576 5005 
L 4838 5005 
Q 4928 5005 4928 4915 
L 4928 2413 
L 5811 2413 
Q 5850 2413 5878 2390 
Q 5907 2368 5907 2330 
L 5907 2112 
Q 5907 2080 5878 2054 
Q 5850 2029 5811 2029 
L 4928 2029 
L 4928 -806 
z
" transform="scale(0.015625)"/>
      <path id="NanumGothic-c774" d="M 3654 2566 
Q 3654 2208 3568 1843 
Q 3482 1478 3296 1184 
Q 3110 890 2819 701 
Q 2528 512 2118 512 
Q 1696 512 1405 697 
Q 1114 883 938 1180 
Q 762 1478 685 1843 
Q 608 2208 608 2566 
Q 608 2944 685 3312 
Q 762 3680 938 3974 
Q 1114 4269 1405 4448 
Q 1696 4627 2118 4627 
Q 2528 4627 2819 4448 
Q 3110 4269 3296 3977 
Q 3482 3686 3568 3318 
Q 3654 2950 3654 2566 
z
M 3200 2573 
Q 3200 2867 3139 3168 
Q 3078 3469 2950 3709 
Q 2822 3949 2617 4099 
Q 2413 4250 2118 4250 
Q 1811 4250 1609 4099 
Q 1408 3949 1286 3709 
Q 1165 3469 1113 3168 
Q 1062 2867 1062 2573 
Q 1062 2291 1110 1993 
Q 1158 1696 1280 1449 
Q 1402 1203 1606 1046 
Q 1811 890 2118 890 
Q 2413 890 2617 1046 
Q 2822 1203 2950 1449 
Q 3078 1696 3139 1993 
Q 3200 2291 3200 2573 
z
M 5152 -806 
Q 5152 -896 5062 -896 
L 4800 -896 
Q 4710 -896 4710 -806 
L 4710 4915 
Q 4710 5005 4800 5005 
L 5062 5005 
Q 5152 5005 5152 4915 
L 5152 -806 
z
" transform="scale(0.015625)"/>
      <path id="NanumGothic-bcd1" d="M 1190 1907 
Q 1037 1907 944 1926 
Q 851 1946 800 2000 
Q 749 2054 729 2140 
Q 710 2227 710 2362 
L 710 4730 
Q 710 4762 736 4784 
Q 762 4806 794 4806 
L 1069 4806 
Q 1101 4806 1123 4780 
Q 1146 4755 1146 4730 
L 1146 3712 
L 3008 3712 
L 3008 4723 
Q 3008 4755 3030 4780 
Q 3053 4806 3085 4806 
L 3360 4806 
Q 3392 4806 3417 4784 
Q 3443 4762 3443 4730 
L 3443 3987 
L 4710 3987 
L 4710 4915 
Q 4710 5005 4800 5005 
L 5062 5005 
Q 5152 5005 5152 4915 
L 5152 1517 
Q 5152 1427 5062 1427 
L 4800 1427 
Q 4710 1427 4710 1517 
L 4710 2502 
L 3443 2502 
L 3443 2317 
Q 3443 2074 3340 1990 
Q 3238 1907 2957 1907 
L 1190 1907 
z
M 5203 250 
Q 5203 -26 5056 -243 
Q 4909 -461 4656 -611 
Q 4403 -762 4067 -842 
Q 3731 -922 3347 -922 
Q 2931 -922 2592 -842 
Q 2253 -762 2009 -611 
Q 1766 -461 1632 -243 
Q 1498 -26 1498 250 
Q 1498 518 1632 732 
Q 1766 947 2009 1097 
Q 2253 1248 2592 1328 
Q 2931 1408 3347 1408 
Q 3731 1408 4067 1328 
Q 4403 1248 4656 1101 
Q 4909 954 5056 739 
Q 5203 525 5203 250 
z
M 4749 230 
Q 4749 422 4633 569 
Q 4518 717 4323 816 
Q 4128 915 3872 969 
Q 3616 1024 3341 1024 
Q 3034 1024 2778 969 
Q 2522 915 2339 816 
Q 2157 717 2054 569 
Q 1952 422 1952 230 
Q 1952 45 2054 -99 
Q 2157 -243 2339 -339 
Q 2522 -435 2778 -486 
Q 3034 -538 3341 -538 
Q 3616 -538 3872 -486 
Q 4128 -435 4323 -339 
Q 4518 -243 4633 -99 
Q 4749 45 4749 230 
z
M 1146 3334 
L 1146 2438 
Q 1146 2342 1178 2313 
Q 1210 2285 1299 2285 
L 2854 2285 
Q 2944 2285 2976 2313 
Q 3008 2342 3008 2438 
L 3008 3334 
L 1146 3334 
z
M 3443 2880 
L 4710 2880 
L 4710 3610 
L 3443 3610 
L 3443 2880 
z
" transform="scale(0.015625)"/>
      <path id="NanumGothic-b82c" d="M 5286 -838 
Q 5286 -870 5257 -892 
Q 5229 -915 5203 -915 
L 1984 -915 
Q 1683 -915 1590 -803 
Q 1498 -691 1498 -422 
L 1498 13 
Q 1498 282 1610 374 
Q 1722 467 2010 467 
L 4570 467 
Q 4659 467 4684 492 
Q 4710 518 4710 614 
L 4710 934 
Q 4710 1030 4688 1056 
Q 4666 1082 4576 1082 
L 1574 1082 
Q 1542 1082 1513 1101 
Q 1485 1120 1485 1152 
L 1485 1382 
Q 1485 1414 1513 1433 
Q 1542 1453 1574 1453 
L 4646 1453 
Q 4800 1453 4896 1430 
Q 4992 1408 5049 1357 
Q 5107 1306 5129 1213 
Q 5152 1120 5152 986 
L 5152 550 
Q 5152 282 5040 189 
Q 4928 96 4640 96 
L 2074 96 
Q 1984 96 1961 70 
Q 1939 45 1939 -51 
L 1939 -397 
Q 1939 -486 1964 -515 
Q 1990 -544 2080 -544 
L 5197 -544 
Q 5229 -544 5257 -563 
Q 5286 -582 5286 -614 
L 5286 -838 
z
M 1197 2003 
Q 909 2010 809 2118 
Q 710 2227 710 2496 
L 710 3174 
Q 710 3443 822 3536 
Q 934 3629 1222 3629 
L 2483 3629 
Q 2573 3629 2598 3654 
Q 2624 3680 2624 3776 
L 2624 4275 
Q 2624 4371 2601 4396 
Q 2579 4422 2490 4422 
L 813 4422 
Q 736 4422 736 4506 
L 736 4730 
Q 736 4806 813 4806 
L 2560 4806 
Q 2714 4806 2810 4784 
Q 2906 4762 2963 4710 
Q 3021 4659 3043 4566 
Q 3066 4474 3066 4339 
L 3066 3699 
Q 3066 3430 2954 3337 
Q 2842 3245 2554 3245 
L 1286 3245 
Q 1197 3245 1174 3219 
Q 1152 3194 1152 3098 
L 1152 2528 
Q 1152 2381 1293 2381 
Q 1587 2381 1856 2387 
Q 2125 2394 2384 2416 
Q 2643 2438 2908 2473 
Q 3174 2509 3456 2560 
Q 3520 2573 3542 2560 
Q 3565 2547 3578 2496 
L 3616 2291 
Q 3629 2234 3606 2214 
Q 3584 2195 3526 2182 
Q 3219 2125 2940 2086 
Q 2662 2048 2387 2029 
Q 2112 2010 1821 2003 
Q 1530 1997 1197 2003 
z
M 4710 4230 
L 4710 4915 
Q 4710 5005 4800 5005 
L 5062 5005 
Q 5152 5005 5152 4915 
L 5152 1862 
Q 5152 1773 5062 1773 
L 4800 1773 
Q 4710 1773 4710 1862 
L 4710 2829 
L 3590 2829 
Q 3507 2829 3507 2906 
L 3507 3130 
Q 3507 3206 3590 3206 
L 4710 3206 
L 4710 3853 
L 3590 3853 
Q 3507 3853 3507 3930 
L 3507 4154 
Q 3507 4230 3590 4230 
L 4710 4230 
z
" transform="scale(0.015625)"/>
     </defs>
     <use xlink:href="#NanumGothic-41"/>
     <use xlink:href="#NanumGothic-73" transform="translate(72.699982 0)"/>
     <use xlink:href="#NanumGothic-79" transform="translate(115.099976 0)"/>
     <use xlink:href="#NanumGothic-6e" transform="translate(161.499969 0)"/>
     <use xlink:href="#NanumGothic-63" transform="translate(222.09996 0)"/>
     <use xlink:href="#NanumGothic-20" transform="translate(270.499954 0)"/>
     <use xlink:href="#NanumGothic-6d" transform="translate(298.499939 0)"/>
     <use xlink:href="#NanumGothic-6f" transform="translate(389.299927 0)"/>
     <use xlink:href="#NanumGothic-64" transform="translate(449.899918 0)"/>
     <use xlink:href="#NanumGothic-65" transform="translate(510.499908 0)"/>
     <use xlink:href="#NanumGothic-3a" transform="translate(564.999893 0)"/>
     <use xlink:href="#NanumGothic-20" transform="translate(595.299881 0)"/>
     <use xlink:href="#NanumGothic-69" transform="translate(623.299866 0)"/>
     <use xlink:href="#NanumGothic-6e" transform="translate(647.499863 0)"/>
     <use xlink:href="#NanumGothic-66" transform="translate(708.099854 0)"/>
     <use xlink:href="#NanumGothic-65" transform="translate(744.399841 0)"/>
     <use xlink:href="#NanumGothic-72" transform="translate(798.899826 0)"/>
     <use xlink:href="#NanumGothic-65" transform="translate(835.199814 0)"/>
     <use xlink:href="#NanumGothic-6e" transform="translate(889.699799 0)"/>
     <use xlink:href="#NanumGothic-63" transform="translate(950.299789 0)"/>
     <use xlink:href="#NanumGothic-65" transform="translate(998.699783 0)"/>
     <use xlink:href="#NanumGothic-c640" transform="translate(1053.199768 0)"/>
     <use xlink:href="#NanumGothic-20" transform="translate(1147.199753 0)"/>
     <use xlink:href="#NanumGothic-61" transform="translate(1175.199738 0)"/>
     <use xlink:href="#NanumGothic-63" transform="translate(1229.699722 0)"/>
     <use xlink:href="#NanumGothic-74" transform="translate(1278.099716 0)"/>
     <use xlink:href="#NanumGothic-69" transform="translate(1314.399704 0)"/>
     <use xlink:href="#NanumGothic-6f" transform="translate(1338.599701 0)"/>
     <use xlink:href="#NanumGothic-6e" transform="translate(1399.199692 0)"/>
     <use xlink:href="#NanumGothic-20" transform="translate(1459.799683 0)"/>
     <use xlink:href="#NanumGothic-c2e4" transform="translate(1487.799667 0)"/>
     <use xlink:href="#NanumGothic-d589" transform="translate(1581.799652 0)"/>
     <use xlink:href="#NanumGothic-c774" transform="translate(1675.799637 0)"/>
     <use xlink:href="#NanumGothic-20" transform="translate(1769.799622 0)"/>
     <use xlink:href="#NanumGothic-bcd1" transform="translate(1797.799606 0)"/>
     <use xlink:href="#NanumGothic-b82c" transform="translate(1891.799591 0)"/>
    </g>
   </g>
  </g>
  <g id="text_23">
   <!-- SmolVLA Async vs Sync Inference Timeline -->
   <g transform="translate(216.550469 17.951562) scale(0.14 -0.14)">
    <defs>
     <path id="NanumGothic-56" d="M 3706 4371 
Q 3718 4410 3750 4435 
Q 3782 4461 3821 4461 
L 4109 4461 
Q 4147 4461 4166 4432 
Q 4186 4403 4173 4371 
L 2426 -192 
Q 2406 -243 2384 -259 
Q 2362 -275 2310 -275 
L 1958 -275 
Q 1907 -275 1884 -259 
Q 1862 -243 1843 -192 
L 134 4371 
Q 122 4403 141 4432 
Q 160 4461 198 4461 
L 518 4461 
Q 595 4461 634 4371 
L 2138 192 
Q 2522 1222 2912 2262 
Q 3302 3302 3706 4371 
z
" transform="scale(0.015625)"/>
     <path id="NanumGothic-54" d="M 2010 4064 
L 2010 -186 
Q 2010 -275 1920 -275 
L 1626 -275 
Q 1536 -275 1536 -186 
L 1536 4064 
L 218 4064 
Q 128 4064 128 4154 
L 128 4371 
Q 128 4461 218 4461 
L 3341 4461 
Q 3430 4461 3430 4371 
L 3430 4154 
Q 3430 4064 3341 4064 
L 2010 4064 
z
" transform="scale(0.015625)"/>
    </defs>
    <use xlink:href="#NanumGothic-53"/>
    <use xlink:href="#NanumGothic-6d" transform="translate(54.499985 0)"/>
    <use xlink:href="#NanumGothic-6f" transform="translate(145.299973 0)"/>
    <use xlink:href="#NanumGothic-6c" transform="translate(205.899963 0)"/>
    <use xlink:href="#NanumGothic-56" transform="translate(230.09996 0)"/>
    <use xlink:href="#NanumGothic-4c" transform="translate(296.699951 0)"/>
    <use xlink:href="#NanumGothic-41" transform="translate(345.099945 0)"/>
    <use xlink:href="#NanumGothic-20" transform="translate(417.799927 0)"/>
    <use xlink:href="#NanumGothic-41" transform="translate(445.799911 0)"/>
    <use xlink:href="#NanumGothic-73" transform="translate(518.499893 0)"/>
    <use xlink:href="#NanumGothic-79" transform="translate(560.899887 0)"/>
    <use xlink:href="#NanumGothic-6e" transform="translate(607.299881 0)"/>
    <use xlink:href="#NanumGothic-63" transform="translate(667.899872 0)"/>
    <use xlink:href="#NanumGothic-20" transform="translate(716.299866 0)"/>
    <use xlink:href="#NanumGothic-76" transform="translate(744.29985 0)"/>
    <use xlink:href="#NanumGothic-73" transform="translate(792.699844 0)"/>
    <use xlink:href="#NanumGothic-20" transform="translate(835.099838 0)"/>
    <use xlink:href="#NanumGothic-53" transform="translate(863.099823 0)"/>
    <use xlink:href="#NanumGothic-79" transform="translate(917.599808 0)"/>
    <use xlink:href="#NanumGothic-6e" transform="translate(963.999802 0)"/>
    <use xlink:href="#NanumGothic-63" transform="translate(1024.599792 0)"/>
    <use xlink:href="#NanumGothic-20" transform="translate(1072.999786 0)"/>
    <use xlink:href="#NanumGothic-49" transform="translate(1100.999771 0)"/>
    <use xlink:href="#NanumGothic-6e" transform="translate(1125.199768 0)"/>
    <use xlink:href="#NanumGothic-66" transform="translate(1185.799759 0)"/>
    <use xlink:href="#NanumGothic-65" transform="translate(1222.099747 0)"/>
    <use xlink:href="#NanumGothic-72" transform="translate(1276.599731 0)"/>
    <use xlink:href="#NanumGothic-65" transform="translate(1312.899719 0)"/>
    <use xlink:href="#NanumGothic-6e" transform="translate(1367.399704 0)"/>
    <use xlink:href="#NanumGothic-63" transform="translate(1427.999695 0)"/>
    <use xlink:href="#NanumGothic-65" transform="translate(1476.399689 0)"/>
    <use xlink:href="#NanumGothic-20" transform="translate(1530.899673 0)"/>
    <use xlink:href="#NanumGothic-54" transform="translate(1558.899658 0)"/>
    <use xlink:href="#NanumGothic-69" transform="translate(1613.399643 0)"/>
    <use xlink:href="#NanumGothic-6d" transform="translate(1637.59964 0)"/>
    <use xlink:href="#NanumGothic-65" transform="translate(1728.399628 0)"/>
    <use xlink:href="#NanumGothic-6c" transform="translate(1782.899612 0)"/>
    <use xlink:href="#NanumGothic-69" transform="translate(1807.099609 0)"/>
    <use xlink:href="#NanumGothic-6e" transform="translate(1831.299606 0)"/>
    <use xlink:href="#NanumGothic-65" transform="translate(1891.899597 0)"/>
   </g>
  </g>
 </g>
 <defs>
  <clipPath id="p7d374e4138">
   <rect x="7.2" y="50.76" width="734.4" height="126.72"/>
  </clipPath>
  <clipPath id="p33abe51712">
   <rect x="7.2" y="240.84" width="734.4" height="126.72"/>
  </clipPath>
 </defs>
</svg>
